%TF.GenerationSoftware,KiCad,Pcbnew,8.0.6*%
%TF.CreationDate,2024-12-16T11:38:41+00:00*%
%TF.ProjectId,scorn_choc_wireless,73636f72-6e5f-4636-986f-635f77697265,v1.0.0*%
%TF.SameCoordinates,Original*%
%TF.FileFunction,Copper,L1,Top*%
%TF.FilePolarity,Positive*%
%FSLAX46Y46*%
G04 Gerber Fmt 4.6, Leading zero omitted, Abs format (unit mm)*
G04 Created by KiCad (PCBNEW 8.0.6) date 2024-12-16 11:38:41*
%MOMM*%
%LPD*%
G01*
G04 APERTURE LIST*
G04 Aperture macros list*
%AMRotRect*
0 Rectangle, with rotation*
0 The origin of the aperture is its center*
0 $1 length*
0 $2 width*
0 $3 Rotation angle, in degrees counterclockwise*
0 Add horizontal line*
21,1,$1,$2,0,0,$3*%
%AMOutline5P*
0 Free polygon, 5 corners , with rotation*
0 The origin of the aperture is its center*
0 number of corners: always 5*
0 $1 to $10 corner X, Y*
0 $11 Rotation angle, in degrees counterclockwise*
0 create outline with 5 corners*
4,1,5,$1,$2,$3,$4,$5,$6,$7,$8,$9,$10,$1,$2,$11*%
%AMOutline6P*
0 Free polygon, 6 corners , with rotation*
0 The origin of the aperture is its center*
0 number of corners: always 6*
0 $1 to $12 corner X, Y*
0 $13 Rotation angle, in degrees counterclockwise*
0 create outline with 6 corners*
4,1,6,$1,$2,$3,$4,$5,$6,$7,$8,$9,$10,$11,$12,$1,$2,$13*%
%AMOutline7P*
0 Free polygon, 7 corners , with rotation*
0 The origin of the aperture is its center*
0 number of corners: always 7*
0 $1 to $14 corner X, Y*
0 $15 Rotation angle, in degrees counterclockwise*
0 create outline with 7 corners*
4,1,7,$1,$2,$3,$4,$5,$6,$7,$8,$9,$10,$11,$12,$13,$14,$1,$2,$15*%
%AMOutline8P*
0 Free polygon, 8 corners , with rotation*
0 The origin of the aperture is its center*
0 number of corners: always 8*
0 $1 to $16 corner X, Y*
0 $17 Rotation angle, in degrees counterclockwise*
0 create outline with 8 corners*
4,1,8,$1,$2,$3,$4,$5,$6,$7,$8,$9,$10,$11,$12,$13,$14,$15,$16,$1,$2,$17*%
%AMFreePoly0*
4,1,6,0.500000,-0.625000,-0.650000,-0.625000,-0.150000,0.000000,-0.650000,0.625000,0.500000,0.625000,0.500000,-0.625000,0.500000,-0.625000,$1*%
%AMFreePoly1*
4,1,6,0.250000,0.000000,-0.250000,-0.625000,-0.500000,-0.625000,-0.500000,0.625000,-0.250000,0.625000,0.250000,0.000000,0.250000,0.000000,$1*%
%AMFreePoly2*
4,1,6,0.600000,-0.200000,0.600000,-0.400000,-0.600000,-0.400000,-0.600000,-0.200000,0.000000,0.400000,0.600000,-0.200000,0.600000,-0.200000,$1*%
%AMFreePoly3*
4,1,6,0.600000,-1.000000,0.000000,-0.400000,-0.600000,-1.000000,-0.600000,0.250000,0.600000,0.250000,0.600000,-1.000000,0.600000,-1.000000,$1*%
G04 Aperture macros list end*
%TA.AperFunction,SMDPad,CuDef*%
%ADD10RotRect,0.900000X1.200000X276.000000*%
%TD*%
%TA.AperFunction,SMDPad,CuDef*%
%ADD11RotRect,0.900000X1.200000X275.000000*%
%TD*%
%TA.AperFunction,SMDPad,CuDef*%
%ADD12RotRect,0.900000X1.200000X282.000000*%
%TD*%
%TA.AperFunction,SMDPad,CuDef*%
%ADD13R,1.200000X0.900000*%
%TD*%
%TA.AperFunction,SMDPad,CuDef*%
%ADD14RotRect,0.900000X1.200000X252.000000*%
%TD*%
%TA.AperFunction,ComponentPad*%
%ADD15C,0.800000*%
%TD*%
%TA.AperFunction,SMDPad,CuDef*%
%ADD16FreePoly0,0.000000*%
%TD*%
%TA.AperFunction,SMDPad,CuDef*%
%ADD17FreePoly0,180.000000*%
%TD*%
%TA.AperFunction,SMDPad,CuDef*%
%ADD18FreePoly1,0.000000*%
%TD*%
%TA.AperFunction,ComponentPad*%
%ADD19C,1.700000*%
%TD*%
%TA.AperFunction,SMDPad,CuDef*%
%ADD20FreePoly1,180.000000*%
%TD*%
%TA.AperFunction,SMDPad,CuDef*%
%ADD21FreePoly2,270.000000*%
%TD*%
%TA.AperFunction,ComponentPad*%
%ADD22O,1.750000X1.200000*%
%TD*%
%TA.AperFunction,SMDPad,CuDef*%
%ADD23FreePoly3,270.000000*%
%TD*%
%TA.AperFunction,SMDPad,CuDef*%
%ADD24R,1.200000X0.600000*%
%TD*%
%TA.AperFunction,ComponentPad*%
%ADD25O,1.700000X1.700000*%
%TD*%
%TA.AperFunction,SMDPad,CuDef*%
%ADD26RotRect,0.900000X1.200000X273.000000*%
%TD*%
%TA.AperFunction,SMDPad,CuDef*%
%ADD27R,1.500000X0.700000*%
%TD*%
%TA.AperFunction,SMDPad,CuDef*%
%ADD28R,0.800000X1.000000*%
%TD*%
%TA.AperFunction,SMDPad,CuDef*%
%ADD29RotRect,0.900000X1.200000X265.000000*%
%TD*%
%TA.AperFunction,SMDPad,CuDef*%
%ADD30RotRect,2.600000X2.600000X192.000000*%
%TD*%
%TA.AperFunction,SMDPad,CuDef*%
%ADD31Outline5P,-1.300000X1.300000X1.300000X1.300000X1.300000X-0.117000X0.117000X-1.300000X-1.300000X-1.300000X192.000000*%
%TD*%
%TA.AperFunction,SMDPad,CuDef*%
%ADD32RotRect,2.600000X2.600000X185.000000*%
%TD*%
%TA.AperFunction,SMDPad,CuDef*%
%ADD33Outline5P,-1.300000X1.300000X1.300000X1.300000X1.300000X-0.117000X0.117000X-1.300000X-1.300000X-1.300000X185.000000*%
%TD*%
%TA.AperFunction,SMDPad,CuDef*%
%ADD34R,2.600000X2.600000*%
%TD*%
%TA.AperFunction,SMDPad,CuDef*%
%ADD35Outline5P,-1.300000X1.300000X1.300000X1.300000X1.300000X-0.117000X0.117000X-1.300000X-1.300000X-1.300000X180.000000*%
%TD*%
%TA.AperFunction,SMDPad,CuDef*%
%ADD36RotRect,2.600000X2.600000X162.000000*%
%TD*%
%TA.AperFunction,SMDPad,CuDef*%
%ADD37Outline5P,-1.300000X1.300000X1.300000X1.300000X1.300000X-0.117000X0.117000X-1.300000X-1.300000X-1.300000X162.000000*%
%TD*%
%TA.AperFunction,SMDPad,CuDef*%
%ADD38RotRect,2.600000X2.600000X183.000000*%
%TD*%
%TA.AperFunction,SMDPad,CuDef*%
%ADD39Outline5P,-1.300000X1.300000X1.300000X1.300000X1.300000X-0.117000X0.117000X-1.300000X-1.300000X-1.300000X183.000000*%
%TD*%
%TA.AperFunction,SMDPad,CuDef*%
%ADD40RotRect,2.600000X2.600000X175.000000*%
%TD*%
%TA.AperFunction,SMDPad,CuDef*%
%ADD41Outline5P,-1.300000X1.300000X1.300000X1.300000X1.300000X-0.117000X0.117000X-1.300000X-1.300000X-1.300000X175.000000*%
%TD*%
%TA.AperFunction,SMDPad,CuDef*%
%ADD42RotRect,2.600000X2.600000X186.000000*%
%TD*%
%TA.AperFunction,SMDPad,CuDef*%
%ADD43Outline5P,-1.300000X1.300000X1.300000X1.300000X1.300000X-0.117000X0.117000X-1.300000X-1.300000X-1.300000X186.000000*%
%TD*%
%TA.AperFunction,ViaPad*%
%ADD44C,0.600000*%
%TD*%
%TA.AperFunction,Conductor*%
%ADD45C,0.200000*%
%TD*%
%TA.AperFunction,Conductor*%
%ADD46C,0.250000*%
%TD*%
%TA.AperFunction,Conductor*%
%ADD47C,0.150000*%
%TD*%
%ADD48C,0.300000*%
%ADD49C,0.350000*%
G04 APERTURE END LIST*
D10*
%TO.P,D7,2*%
%TO.N,ring_bottom*%
X191006572Y-132057061D03*
%TO.P,D7,1*%
%TO.N,R2*%
X190661628Y-128775139D03*
%TD*%
D11*
%TO.P,D19,2*%
%TO.N,inner_cluster*%
X223528607Y-154899821D03*
%TO.P,D19,1*%
%TO.N,R3*%
X223240993Y-151612379D03*
%TD*%
D12*
%TO.P,D4,2*%
%TO.N,pinky_bottom*%
X175365254Y-144761844D03*
%TO.P,D4,1*%
%TO.N,R2*%
X174679146Y-141533956D03*
%TD*%
D13*
%TO.P,D18,2*%
%TO.N,inner_top*%
X244545600Y-98088900D03*
%TO.P,D18,1*%
%TO.N,R0*%
X244545600Y-94788900D03*
%TD*%
%TO.P,D17,2*%
%TO.N,inner_home*%
X244545600Y-115088900D03*
%TO.P,D17,1*%
%TO.N,R1*%
X244545600Y-111788900D03*
%TD*%
%TO.P,D14,2*%
%TO.N,index_home*%
X226545600Y-113088900D03*
%TO.P,D14,1*%
%TO.N,R1*%
X226545600Y-109788900D03*
%TD*%
D12*
%TO.P,D2,2*%
%TO.N,outer_home*%
X154224054Y-131875744D03*
%TO.P,D2,1*%
%TO.N,R1*%
X153537946Y-128647856D03*
%TD*%
%TO.P,D1,2*%
%TO.N,outer_bottom*%
X157758554Y-148504244D03*
%TO.P,D1,1*%
%TO.N,R2*%
X157072446Y-145276356D03*
%TD*%
D14*
%TO.P,D21,2*%
%TO.N,outer_cluster*%
X269112522Y-163022743D03*
%TO.P,D21,1*%
%TO.N,R3*%
X270132278Y-159884257D03*
%TD*%
D10*
%TO.P,D8,2*%
%TO.N,ring_home*%
X189229572Y-115150261D03*
%TO.P,D8,1*%
%TO.N,R1*%
X188884628Y-111868339D03*
%TD*%
D15*
%TO.P,MCU1,124*%
%TO.N,LED*%
X264245600Y-92738900D03*
D16*
X262870600Y-92738900D03*
D15*
%TO.P,MCU1,123*%
%TO.N,P0*%
X264245600Y-95278900D03*
D16*
X262870600Y-95278900D03*
D15*
%TO.P,MCU1,122*%
%TO.N,GND*%
X264245600Y-97818900D03*
D16*
X262870600Y-97818900D03*
D15*
%TO.P,MCU1,121*%
X264245600Y-100358900D03*
D16*
X262870600Y-100358900D03*
D15*
%TO.P,MCU1,120*%
%TO.N,MOSI*%
X264245600Y-102898900D03*
D16*
X262870600Y-102898900D03*
D15*
%TO.P,MCU1,119*%
%TO.N,SCK*%
X264245600Y-105438900D03*
D16*
X262870600Y-105438900D03*
D15*
%TO.P,MCU1,118*%
%TO.N,CS*%
X264245600Y-107978900D03*
D16*
X262870600Y-107978900D03*
D15*
%TO.P,MCU1,117*%
%TO.N,R0*%
X264245600Y-110518900D03*
D16*
X262870600Y-110518900D03*
D15*
%TO.P,MCU1,116*%
%TO.N,R1*%
X264245600Y-113058900D03*
D16*
X262870600Y-113058900D03*
D15*
%TO.P,MCU1,115*%
%TO.N,R2*%
X264245600Y-115598900D03*
D16*
X262870600Y-115598900D03*
D15*
%TO.P,MCU1,114*%
%TO.N,R3*%
X264245600Y-118138900D03*
D16*
X262870600Y-118138900D03*
D15*
%TO.P,MCU1,113*%
%TO.N,DAT*%
X264245600Y-120678900D03*
D16*
X262870600Y-120678900D03*
D17*
%TO.P,MCU1,112*%
%TO.N,P10*%
X272420600Y-120678900D03*
D15*
X271045600Y-120678900D03*
D17*
%TO.P,MCU1,111*%
%TO.N,P16*%
X272420600Y-118138900D03*
D15*
X271045600Y-118138900D03*
D17*
%TO.P,MCU1,110*%
%TO.N,C5*%
X272420600Y-115598900D03*
D15*
X271045600Y-115598900D03*
D17*
%TO.P,MCU1,109*%
%TO.N,C4*%
X272420600Y-113058900D03*
D15*
X271045600Y-113058900D03*
D17*
%TO.P,MCU1,108*%
%TO.N,C3*%
X272420600Y-110518900D03*
D15*
X271045600Y-110518900D03*
D17*
%TO.P,MCU1,107*%
%TO.N,C2*%
X272420600Y-107978900D03*
D15*
X271045600Y-107978900D03*
D17*
%TO.P,MCU1,106*%
%TO.N,C1*%
X272420600Y-105438900D03*
D15*
X271045600Y-105438900D03*
D17*
%TO.P,MCU1,105*%
%TO.N,C0*%
X272420600Y-102898900D03*
D15*
X271045600Y-102898900D03*
D17*
%TO.P,MCU1,104*%
%TO.N,VCC*%
X272420600Y-100358900D03*
D15*
X271045600Y-100358900D03*
D17*
%TO.P,MCU1,103*%
%TO.N,RST*%
X272420600Y-97818900D03*
D15*
X271045600Y-97818900D03*
D17*
%TO.P,MCU1,102*%
%TO.N,GND*%
X272420600Y-95278900D03*
D15*
X271045600Y-95278900D03*
D17*
%TO.P,MCU1,101*%
%TO.N,RAW*%
X272420600Y-92738900D03*
D15*
X271045600Y-92738900D03*
D18*
%TO.P,MCU1,24*%
%TO.N,MCU1_24*%
X262145600Y-92738900D03*
D19*
X260025600Y-92738900D03*
D18*
%TO.P,MCU1,23*%
%TO.N,MCU1_23*%
X262145600Y-95278900D03*
D19*
X260025600Y-95278900D03*
D18*
%TO.P,MCU1,22*%
%TO.N,MCU1_22*%
X262145600Y-97818900D03*
D19*
X260025600Y-97818900D03*
D18*
%TO.P,MCU1,21*%
%TO.N,MCU1_21*%
X262145600Y-100358900D03*
D19*
X260025600Y-100358900D03*
D18*
%TO.P,MCU1,20*%
%TO.N,MCU1_20*%
X262145600Y-102898900D03*
D19*
X260025600Y-102898900D03*
D18*
%TO.P,MCU1,19*%
%TO.N,MCU1_19*%
X262145600Y-105438900D03*
D19*
X260025600Y-105438900D03*
D18*
%TO.P,MCU1,18*%
%TO.N,MCU1_18*%
X262145600Y-107978900D03*
D19*
X260025600Y-107978900D03*
D18*
%TO.P,MCU1,17*%
%TO.N,MCU1_17*%
X262145600Y-110518900D03*
D19*
X260025600Y-110518900D03*
D18*
%TO.P,MCU1,16*%
%TO.N,MCU1_16*%
X262145600Y-113058900D03*
D19*
X260025600Y-113058900D03*
D18*
%TO.P,MCU1,15*%
%TO.N,MCU1_15*%
X262145600Y-115598900D03*
D19*
X260025600Y-115598900D03*
D18*
%TO.P,MCU1,14*%
%TO.N,MCU1_14*%
X262145600Y-118138900D03*
D19*
X260025600Y-118138900D03*
D18*
%TO.P,MCU1,13*%
%TO.N,MCU1_13*%
X262145600Y-120678900D03*
D19*
X260025600Y-120678900D03*
%TO.P,MCU1,12*%
%TO.N,MCU1_12*%
X275265600Y-120678900D03*
D20*
X273145600Y-120678900D03*
D19*
%TO.P,MCU1,11*%
%TO.N,MCU1_11*%
X275265600Y-118138900D03*
D20*
X273145600Y-118138900D03*
D19*
%TO.P,MCU1,10*%
%TO.N,MCU1_10*%
X275265600Y-115598900D03*
D20*
X273145600Y-115598900D03*
D19*
%TO.P,MCU1,9*%
%TO.N,MCU1_9*%
X275265600Y-113058900D03*
D20*
X273145600Y-113058900D03*
D19*
%TO.P,MCU1,8*%
%TO.N,MCU1_8*%
X275265600Y-110518900D03*
D20*
X273145600Y-110518900D03*
D19*
%TO.P,MCU1,7*%
%TO.N,MCU1_7*%
X275265600Y-107978900D03*
D20*
X273145600Y-107978900D03*
D19*
%TO.P,MCU1,6*%
%TO.N,MCU1_6*%
X275265600Y-105438900D03*
D20*
X273145600Y-105438900D03*
D19*
%TO.P,MCU1,5*%
%TO.N,MCU1_5*%
X275265600Y-102898900D03*
D20*
X273145600Y-102898900D03*
D19*
%TO.P,MCU1,4*%
%TO.N,MCU1_4*%
X275265600Y-100358900D03*
D20*
X273145600Y-100358900D03*
D19*
%TO.P,MCU1,3*%
%TO.N,MCU1_3*%
X275265600Y-97818900D03*
D20*
X273145600Y-97818900D03*
D19*
%TO.P,MCU1,2*%
%TO.N,MCU1_2*%
X275265600Y-95278900D03*
D20*
X273145600Y-95278900D03*
D19*
%TO.P,MCU1,1*%
%TO.N,MCU1_1*%
X275265600Y-92738900D03*
D20*
X273145600Y-92738900D03*
%TD*%
D12*
%TO.P,D5,2*%
%TO.N,pinky_home*%
X171830754Y-128133344D03*
%TO.P,D5,1*%
%TO.N,R1*%
X171144646Y-124905456D03*
%TD*%
D21*
%TO.P,BAT1,22*%
%TO.N,BAT1_2*%
X264945600Y-131938900D03*
%TO.P,BAT1,21*%
%TO.N,BAT1_1*%
X264945600Y-133938900D03*
D22*
%TO.P,BAT1,12*%
%TO.N,BAT1_2*%
X263145600Y-131938900D03*
%TO.P,BAT1,11*%
%TO.N,BAT1_1*%
X263145600Y-133938900D03*
D23*
%TO.P,BAT1,2*%
%TO.N,GND*%
X265961600Y-131938900D03*
%TO.P,BAT1,1*%
%TO.N,BAT_P*%
X265961600Y-133938900D03*
%TD*%
D24*
%TO.P,DISP1,17*%
%TO.N,DISP1_5*%
X272725600Y-126388900D03*
%TO.P,DISP1,16*%
%TO.N,DISP1_4*%
X270185600Y-126388900D03*
%TO.P,DISP1,15*%
%TO.N,DISP1_2*%
X265105600Y-126388900D03*
%TO.P,DISP1,14*%
%TO.N,DISP1_1*%
X262565600Y-126388900D03*
%TO.P,DISP1,13*%
%TO.N,MOSI*%
X272725600Y-127288900D03*
%TO.P,DISP1,12*%
%TO.N,SCK*%
X270185600Y-127288900D03*
%TO.P,DISP1,11*%
%TO.N,GND*%
X265105600Y-127288900D03*
%TO.P,DISP1,10*%
%TO.N,CS*%
X262565600Y-127288900D03*
D19*
%TO.P,DISP1,5*%
%TO.N,DISP1_5*%
X272725600Y-124638900D03*
D25*
%TO.P,DISP1,4*%
%TO.N,DISP1_4*%
X270185600Y-124638900D03*
%TO.P,DISP1,3*%
%TO.N,VCC*%
X267645600Y-124638900D03*
%TO.P,DISP1,2*%
%TO.N,DISP1_2*%
X265105600Y-124638900D03*
%TO.P,DISP1,1*%
%TO.N,DISP1_1*%
X262565600Y-124638900D03*
%TD*%
D12*
%TO.P,D6,2*%
%TO.N,pinky_top*%
X168296254Y-111504744D03*
%TO.P,D6,1*%
%TO.N,R0*%
X167610146Y-108276856D03*
%TD*%
D10*
%TO.P,D9,2*%
%TO.N,ring_top*%
X187452672Y-98243361D03*
%TO.P,D9,1*%
%TO.N,R0*%
X187107728Y-94961439D03*
%TD*%
D19*
%TO.P,RST1,2*%
%TO.N,GND*%
X276145600Y-133688900D03*
%TO.P,RST1,1*%
%TO.N,RST*%
X276145600Y-127188900D03*
%TD*%
D26*
%TO.P,D12,2*%
%TO.N,middle_top*%
X206421454Y-89673439D03*
%TO.P,D12,1*%
%TO.N,R0*%
X206248746Y-86377961D03*
%TD*%
%TO.P,D10,2*%
%TO.N,middle_bottom*%
X208200954Y-123626839D03*
%TO.P,D10,1*%
%TO.N,R2*%
X208028246Y-120331361D03*
%TD*%
D27*
%TO.P,PWR1,3*%
%TO.N,N/C*%
X274410600Y-138688900D03*
%TO.P,PWR1,2*%
%TO.N,RAW*%
X274410600Y-140188900D03*
%TO.P,PWR1,1*%
%TO.N,BAT_P*%
X274410600Y-143188900D03*
D28*
%TO.P,PWR1,*%
%TO.N,*%
X277270600Y-144588900D03*
X277270600Y-137288900D03*
X275060600Y-144588900D03*
X275060600Y-137288900D03*
%TD*%
D13*
%TO.P,D15,2*%
%TO.N,index_top*%
X226545600Y-96088900D03*
%TO.P,D15,1*%
%TO.N,R0*%
X226545600Y-92788900D03*
%TD*%
D29*
%TO.P,D20,2*%
%TO.N,mid_cluster*%
X246502393Y-156276821D03*
%TO.P,D20,1*%
%TO.N,R3*%
X246790007Y-152989379D03*
%TD*%
D13*
%TO.P,D16,2*%
%TO.N,inner_bottom*%
X244545600Y-132088900D03*
%TO.P,D16,1*%
%TO.N,R2*%
X244545600Y-128788900D03*
%TD*%
D26*
%TO.P,D11,2*%
%TO.N,middle_home*%
X207311254Y-106650139D03*
%TO.P,D11,1*%
%TO.N,R1*%
X207138546Y-103354661D03*
%TD*%
D12*
%TO.P,D3,2*%
%TO.N,outer_top*%
X150689554Y-115247244D03*
%TO.P,D3,1*%
%TO.N,R0*%
X150003446Y-112019356D03*
%TD*%
D13*
%TO.P,D13,2*%
%TO.N,index_bottom*%
X226545600Y-130088900D03*
%TO.P,D13,1*%
%TO.N,R2*%
X226545600Y-126788900D03*
%TD*%
D30*
%TO.P,SW4,2*%
%TO.N,pinky_bottom*%
X176480540Y-148205184D03*
D31*
%TO.P,SW4,1*%
%TO.N,C1*%
X165640341Y-152758489D03*
%TD*%
D30*
%TO.P,SW2,2*%
%TO.N,outer_home*%
X155339340Y-135319084D03*
D31*
%TO.P,SW2,1*%
%TO.N,C0*%
X144499141Y-139872389D03*
%TD*%
D32*
%TO.P,SW19,2*%
%TO.N,inner_cluster*%
X224215945Y-158453416D03*
D33*
%TO.P,SW19,1*%
%TO.N,C3*%
X212901639Y-161651694D03*
%TD*%
D30*
%TO.P,SW5,2*%
%TO.N,pinky_home*%
X172946040Y-131576684D03*
D31*
%TO.P,SW5,1*%
%TO.N,C1*%
X162105841Y-136129989D03*
%TD*%
D30*
%TO.P,SW3,2*%
%TO.N,outer_top*%
X151804840Y-118690584D03*
D31*
%TO.P,SW3,1*%
%TO.N,C0*%
X140964641Y-123243889D03*
%TD*%
D34*
%TO.P,SW13,2*%
%TO.N,index_bottom*%
X226920600Y-133688900D03*
D35*
%TO.P,SW13,1*%
%TO.N,C4*%
X215370600Y-135888900D03*
%TD*%
D36*
%TO.P,SW21,2*%
%TO.N,outer_cluster*%
X268356779Y-166562478D03*
D37*
%TO.P,SW21,1*%
%TO.N,C5*%
X256692239Y-165085656D03*
%TD*%
D34*
%TO.P,SW15,2*%
%TO.N,index_top*%
X226920600Y-99688900D03*
D35*
%TO.P,SW15,1*%
%TO.N,C4*%
X215370600Y-101888900D03*
%TD*%
D34*
%TO.P,SW14,2*%
%TO.N,index_home*%
X226920600Y-116688900D03*
D35*
%TO.P,SW14,1*%
%TO.N,C4*%
X215370600Y-118888900D03*
%TD*%
D38*
%TO.P,SW11,2*%
%TO.N,middle_home*%
X207874119Y-110225581D03*
D39*
%TO.P,SW11,1*%
%TO.N,C3*%
X196455087Y-113027046D03*
%TD*%
D30*
%TO.P,SW6,2*%
%TO.N,pinky_top*%
X169411540Y-114948184D03*
D31*
%TO.P,SW6,1*%
%TO.N,C1*%
X158571341Y-119501489D03*
%TD*%
D38*
%TO.P,SW12,2*%
%TO.N,middle_top*%
X206984419Y-93248881D03*
D39*
%TO.P,SW12,1*%
%TO.N,C3*%
X195565387Y-96050346D03*
%TD*%
D34*
%TO.P,SW18,2*%
%TO.N,inner_top*%
X244920600Y-101688900D03*
D35*
%TO.P,SW18,1*%
%TO.N,C5*%
X233370600Y-103888900D03*
%TD*%
D34*
%TO.P,SW16,2*%
%TO.N,inner_bottom*%
X244920600Y-135688900D03*
D35*
%TO.P,SW16,1*%
%TO.N,C5*%
X233370600Y-137888900D03*
%TD*%
D38*
%TO.P,SW10,2*%
%TO.N,middle_bottom*%
X208763819Y-127202281D03*
D39*
%TO.P,SW10,1*%
%TO.N,C3*%
X197344787Y-130003746D03*
%TD*%
D40*
%TO.P,SW20,2*%
%TO.N,mid_cluster*%
X246562277Y-159895844D03*
D41*
%TO.P,SW20,1*%
%TO.N,C4*%
X234864486Y-161080823D03*
%TD*%
D34*
%TO.P,SW17,2*%
%TO.N,inner_home*%
X244920600Y-118688900D03*
D35*
%TO.P,SW17,1*%
%TO.N,C5*%
X233370600Y-120888900D03*
%TD*%
D42*
%TO.P,SW8,2*%
%TO.N,ring_home*%
X189978850Y-118691284D03*
D43*
%TO.P,SW8,1*%
%TO.N,C2*%
X178722085Y-122086536D03*
%TD*%
D42*
%TO.P,SW9,2*%
%TO.N,ring_top*%
X188201850Y-101784484D03*
D43*
%TO.P,SW9,1*%
%TO.N,C2*%
X176945085Y-105179736D03*
%TD*%
D30*
%TO.P,SW1,2*%
%TO.N,outer_bottom*%
X158873840Y-151947584D03*
D31*
%TO.P,SW1,1*%
%TO.N,C0*%
X148033641Y-156500889D03*
%TD*%
D42*
%TO.P,SW7,2*%
%TO.N,ring_bottom*%
X191755850Y-135598184D03*
D43*
%TO.P,SW7,1*%
%TO.N,C2*%
X180499085Y-138993436D03*
%TD*%
D44*
%TO.N,ring_bottom*%
X182500000Y-135892000D03*
%TO.N,VCC*%
X276500000Y-122500000D03*
%TO.N,C0*%
X252671300Y-101665000D03*
X252671300Y-139919600D03*
X147271000Y-137162000D03*
X143737000Y-120533000D03*
X150806000Y-153790000D03*
%TO.N,outer_bottom*%
X150639000Y-153008000D03*
%TO.N,GND*%
X265961600Y-135074700D03*
%TO.N,outer_home*%
X147105000Y-136379000D03*
%TO.N,outer_top*%
X143570000Y-119751000D03*
%TO.N,C1*%
X257500000Y-89500000D03*
X164878000Y-133419000D03*
X161343000Y-116791000D03*
X168412000Y-150048000D03*
%TO.N,pinky_bottom*%
X168246000Y-149265000D03*
%TO.N,pinky_home*%
X164711000Y-132637000D03*
%TO.N,pinky_top*%
X161177000Y-116008000D03*
%TO.N,C2*%
X183539000Y-136587000D03*
X181762000Y-119681000D03*
X179985000Y-102774000D03*
%TO.N,ring_home*%
X181679000Y-118885000D03*
%TO.N,ring_top*%
X179902000Y-101978000D03*
%TO.N,C3*%
X199617000Y-110784000D03*
X200507000Y-127760000D03*
X196455087Y-104544913D03*
X198727000Y-93806800D03*
X215983000Y-159299000D03*
X196500000Y-101500000D03*
%TO.N,middle_bottom*%
X200465000Y-126961000D03*
%TO.N,middle_home*%
X199575000Y-109985000D03*
%TO.N,middle_top*%
X198685000Y-93007900D03*
%TO.N,C4*%
X221920600Y-124673100D03*
X238308000Y-159299000D03*
X218646000Y-116814000D03*
X259379000Y-124124200D03*
X218646000Y-133814000D03*
X218646000Y-99813900D03*
%TO.N,index_bottom*%
X218646000Y-133014000D03*
%TO.N,index_home*%
X218646000Y-116014000D03*
%TO.N,index_top*%
X218646000Y-99013900D03*
%TO.N,C5*%
X236646000Y-101814000D03*
X236646000Y-135814000D03*
X236646000Y-118814000D03*
X250292200Y-166291900D03*
X260448000Y-164124000D03*
%TO.N,inner_bottom*%
X236646000Y-135014000D03*
%TO.N,inner_home*%
X236646000Y-118014000D03*
%TO.N,inner_top*%
X236646000Y-101014000D03*
%TO.N,inner_cluster*%
X215914000Y-158502000D03*
%TO.N,mid_cluster*%
X238378000Y-158502000D03*
%TO.N,outer_cluster*%
X260695000Y-163363000D03*
%TO.N,R2*%
X190348000Y-127687200D03*
X228745600Y-127515600D03*
X172875600Y-142414500D03*
X208415000Y-119339700D03*
X247418800Y-127630000D03*
X201660300Y-119339700D03*
X247418800Y-114472200D03*
X158148400Y-146252000D03*
X143569700Y-145371400D03*
%TO.N,R1*%
X205963900Y-103165900D03*
X193374500Y-103165900D03*
X192436400Y-108860900D03*
X173235700Y-112188300D03*
X148000000Y-128000000D03*
X171108300Y-123835900D03*
X229849900Y-111788900D03*
X154147600Y-127572800D03*
%TO.N,R0*%
X188421200Y-95104100D03*
X210745600Y-86233400D03*
X249445200Y-109248900D03*
X148817400Y-112233700D03*
X190470400Y-86216100D03*
X249445200Y-94788900D03*
X167919900Y-107200900D03*
X228745600Y-92147200D03*
%TO.N,R3*%
X255631500Y-119408900D03*
X254047300Y-153087600D03*
X229838100Y-151285200D03*
X208834900Y-151147800D03*
%TO.N,RST*%
X274551000Y-99016000D03*
%TO.N,MOSI*%
X265740400Y-128308900D03*
%TO.N,SCK*%
X266227100Y-127212600D03*
%TO.N,CS*%
X264348800Y-128747000D03*
%TO.N,BAT_P*%
X273145200Y-142828400D03*
X266600300Y-132975500D03*
%TO.N,RAW*%
X273158600Y-139963600D03*
%TD*%
D45*
%TO.N,ring_bottom*%
X184425000Y-135690000D02*
X182702000Y-135690000D01*
X182702000Y-135690000D02*
X182500000Y-135892000D01*
D46*
%TO.N,VCC*%
X276500000Y-122500000D02*
X269784500Y-122500000D01*
X269784500Y-122500000D02*
X267645600Y-124638900D01*
%TO.N,RAW*%
X273158600Y-139963600D02*
X274185300Y-139963600D01*
X274185300Y-139963600D02*
X274410600Y-140188900D01*
D47*
%TO.N,C0*%
X146369300Y-141742600D02*
X144896600Y-141742600D01*
D45*
X148034000Y-156501000D02*
X149106100Y-154849900D01*
D47*
X271045600Y-102898900D02*
X269811700Y-101665000D01*
D45*
X144499000Y-139872000D02*
X145571600Y-138220100D01*
X140965000Y-123244000D02*
X142037100Y-121592900D01*
D47*
X175446700Y-140626000D02*
X160499000Y-140626000D01*
X158623300Y-142501700D02*
X147128400Y-142501700D01*
X252671300Y-139919600D02*
X235047600Y-139919600D01*
D45*
X146097000Y-137411000D02*
X147271000Y-137162000D01*
D47*
X234201400Y-140765800D02*
X175586500Y-140765800D01*
X271046000Y-102899000D02*
X271045700Y-102899000D01*
D45*
X142563000Y-120783000D02*
X143737000Y-120533000D01*
D47*
X140964600Y-123243900D02*
X140964600Y-122896800D01*
D46*
X272420500Y-102899000D02*
X271046000Y-102899000D01*
D47*
X272420500Y-102899000D02*
X272420600Y-102898900D01*
X144499100Y-139872400D02*
X144499100Y-139525300D01*
D46*
X272421000Y-102899000D02*
X272420500Y-102899000D01*
D47*
X144499100Y-139872400D02*
X144896600Y-141742600D01*
D45*
X149632000Y-154040000D02*
X150806000Y-153790000D01*
D47*
X148033600Y-156500900D02*
X148033600Y-156153800D01*
X269811700Y-101665000D02*
X252671300Y-101665000D01*
%TO.N,outer_bottom*%
X158873840Y-149619530D02*
X158873840Y-151947584D01*
D45*
X158873700Y-151947800D02*
X157524400Y-151071600D01*
D47*
X158873800Y-151947600D02*
X158873700Y-151947700D01*
D45*
X158874000Y-151948000D02*
X158873700Y-151947800D01*
D47*
X157758554Y-148504244D02*
X158873840Y-149619530D01*
D45*
X151593000Y-152805000D02*
X150639000Y-153008000D01*
X156675000Y-150520000D02*
X152501000Y-151407000D01*
X152501000Y-151407000D02*
X151593000Y-152805000D01*
D46*
%TO.N,GND*%
X271046000Y-95278900D02*
X271045600Y-95278900D01*
X262871000Y-97818900D02*
X262870600Y-97818900D01*
X265961600Y-131938900D02*
X266250000Y-131938900D01*
X264245500Y-100359000D02*
X264245600Y-100358900D01*
X265105600Y-131082900D02*
X265105600Y-127288900D01*
X264245500Y-100359000D02*
X264246000Y-100359000D01*
X272421000Y-95278900D02*
X272420600Y-95278900D01*
X272420600Y-95278900D02*
X271046000Y-95278900D01*
X262871000Y-100359000D02*
X264245500Y-100359000D01*
X267935500Y-133336100D02*
X266538300Y-131938900D01*
X262870700Y-100359000D02*
X262870600Y-100358900D01*
X264245600Y-97818900D02*
X264246000Y-97818900D01*
X266196900Y-135074700D02*
X265961600Y-135074700D01*
X265961600Y-131938900D02*
X265105600Y-131082900D01*
X262871000Y-97818900D02*
X264245600Y-97818900D01*
X262871000Y-100359000D02*
X262870700Y-100359000D01*
X267935500Y-133336100D02*
X266196900Y-135074700D01*
X276145600Y-133688900D02*
X268288300Y-133688900D01*
D45*
%TO.N,outer_home*%
X148059000Y-136177000D02*
X147105000Y-136379000D01*
D47*
X154224054Y-131875744D02*
X155339340Y-132991030D01*
X155339340Y-132991030D02*
X155339340Y-135319084D01*
D45*
X148967000Y-134778000D02*
X148059000Y-136177000D01*
D47*
X155339300Y-135319100D02*
X155339100Y-135319100D01*
D45*
X155339000Y-135319000D02*
X153989900Y-134442900D01*
X153140000Y-133891000D02*
X148967000Y-134778000D01*
D47*
%TO.N,outer_top*%
X151804840Y-116362530D02*
X151804840Y-118690584D01*
D45*
X145432000Y-118150000D02*
X144524000Y-119548000D01*
X151805000Y-118691000D02*
X151804700Y-118690800D01*
X151804700Y-118690800D02*
X150455400Y-117814600D01*
D47*
X151804800Y-118690600D02*
X151804700Y-118690700D01*
D45*
X144524000Y-119548000D02*
X143570000Y-119751000D01*
X149606000Y-117263000D02*
X145432000Y-118150000D01*
D47*
X150689554Y-115247244D02*
X151804840Y-116362530D01*
%TO.N,C1*%
X273617691Y-89500000D02*
X277000000Y-92882309D01*
D45*
X158571000Y-119501000D02*
X159643800Y-117849900D01*
X163704000Y-133669000D02*
X164878000Y-133419000D01*
D47*
X158571300Y-119501500D02*
X158571300Y-119154400D01*
D45*
X162106000Y-136130000D02*
X163178300Y-134478600D01*
D47*
X277000000Y-92882309D02*
X277000000Y-104000000D01*
X165640300Y-152758500D02*
X165640300Y-152411400D01*
X271186100Y-104313900D02*
X271000000Y-104500000D01*
D46*
X272420500Y-105439000D02*
X271046000Y-105439000D01*
D47*
X276686100Y-104313900D02*
X271186100Y-104313900D01*
X257500000Y-89500000D02*
X273617691Y-89500000D01*
X271046000Y-105439000D02*
X271045700Y-105439000D01*
D46*
X272421000Y-105439000D02*
X272420500Y-105439000D01*
D47*
X272420500Y-105439000D02*
X272420600Y-105438900D01*
X162105800Y-136130000D02*
X162105800Y-135782900D01*
X271045600Y-104545600D02*
X271045600Y-105438900D01*
D45*
X160170000Y-117040000D02*
X161343000Y-116791000D01*
X165640000Y-152758000D02*
X166712800Y-151106900D01*
X167239000Y-150297000D02*
X168412000Y-150048000D01*
%TO.N,pinky_bottom*%
X176480000Y-148205000D02*
X175131100Y-147328600D01*
X174282000Y-146777000D02*
X170108000Y-147664000D01*
D47*
X176480540Y-145877130D02*
X176480540Y-148205184D01*
X176480500Y-148205200D02*
X176480200Y-148205200D01*
X175365254Y-144761844D02*
X176480540Y-145877130D01*
D45*
X170108000Y-147664000D02*
X169200000Y-149063000D01*
X169200000Y-149063000D02*
X168246000Y-149265000D01*
%TO.N,pinky_home*%
X172945900Y-131576900D02*
X171596600Y-130700700D01*
D47*
X172946000Y-131576700D02*
X172945900Y-131576800D01*
D45*
X170747000Y-130149000D02*
X166573000Y-131036000D01*
X165665000Y-132434000D02*
X164711000Y-132637000D01*
D47*
X172946040Y-129248630D02*
X172946040Y-131576684D01*
D45*
X172946000Y-131577000D02*
X172945900Y-131576900D01*
D47*
X171830754Y-128133344D02*
X172946040Y-129248630D01*
D45*
X166573000Y-131036000D02*
X165665000Y-132434000D01*
D47*
%TO.N,pinky_top*%
X169411540Y-112620030D02*
X169411540Y-114948184D01*
D45*
X169412000Y-114948000D02*
X169411700Y-114947800D01*
D47*
X168296254Y-111504744D02*
X169411540Y-112620030D01*
X169411500Y-114948200D02*
X169411700Y-114948000D01*
D45*
X163039000Y-114407000D02*
X162131000Y-115806000D01*
X167213000Y-113520000D02*
X163039000Y-114407000D01*
X162131000Y-115806000D02*
X161177000Y-116008000D01*
X169411700Y-114947800D02*
X168062100Y-114071400D01*
D47*
%TO.N,C2*%
X172000000Y-119500000D02*
X172000000Y-110124821D01*
X178722085Y-122086536D02*
X177308621Y-123500000D01*
D45*
X176945000Y-105180000D02*
X178143900Y-103699400D01*
D47*
X272420500Y-107979000D02*
X272420600Y-107978900D01*
X182007400Y-102774000D02*
X183443900Y-104210500D01*
X215664900Y-106673300D02*
X269740000Y-106673300D01*
X179076721Y-140415800D02*
X180499085Y-138993436D01*
X271046000Y-107979000D02*
X271045700Y-107979000D01*
X178722085Y-122086536D02*
X178722085Y-129277915D01*
X172000000Y-110124821D02*
X176945085Y-105179736D01*
X175500000Y-132500000D02*
X175500000Y-139000000D01*
X269740000Y-106673300D02*
X271045600Y-107978900D01*
X179985000Y-102774000D02*
X182007400Y-102774000D01*
D46*
X272420500Y-107979000D02*
X271046000Y-107979000D01*
D45*
X180499000Y-138993000D02*
X181697900Y-137513000D01*
D47*
X192484800Y-102589200D02*
X211580800Y-102589200D01*
D46*
X272421000Y-107979000D02*
X272420500Y-107979000D01*
D47*
X176000000Y-123500000D02*
X172000000Y-119500000D01*
X183443900Y-104210500D02*
X190863500Y-104210500D01*
D45*
X182346000Y-136713000D02*
X183539000Y-136587000D01*
X180569000Y-119806000D02*
X181762000Y-119681000D01*
D47*
X178722085Y-129277915D02*
X175500000Y-132500000D01*
X176915800Y-140415800D02*
X179076721Y-140415800D01*
D45*
X178792000Y-102899000D02*
X179985000Y-102774000D01*
X178722000Y-122087000D02*
X179920900Y-120606400D01*
D47*
X211580800Y-102589200D02*
X215664900Y-106673300D01*
%TO.N,ring_bottom*%
X191006572Y-132057061D02*
X191755850Y-132806339D01*
D45*
X191756000Y-135598000D02*
X190352800Y-134461900D01*
X189718000Y-133948000D02*
X185475000Y-134394000D01*
D47*
X191755900Y-135598200D02*
X191756000Y-135598100D01*
X191755850Y-132806339D02*
X191755850Y-135598184D01*
D45*
%TO.N,ring_home*%
X187941000Y-117041000D02*
X183698000Y-117487000D01*
X183698000Y-117487000D02*
X182648000Y-118783000D01*
D47*
X189978850Y-115899539D02*
X189978850Y-118691284D01*
X189978900Y-118691300D02*
X189979000Y-118691200D01*
X189979000Y-118691200D02*
X189979000Y-118691000D01*
D45*
X189979000Y-118691000D02*
X188575800Y-117554900D01*
X182648000Y-118783000D02*
X181679000Y-118885000D01*
D47*
X189229572Y-115150261D02*
X189978850Y-115899539D01*
D45*
%TO.N,ring_top*%
X188202000Y-101784000D02*
X186798800Y-100647900D01*
D47*
X188201850Y-98992539D02*
X188201850Y-101784484D01*
X188201900Y-101784500D02*
X188202000Y-101784400D01*
X187452672Y-98243361D02*
X188201850Y-98992539D01*
X188202000Y-101784400D02*
X188202000Y-101784000D01*
D45*
X181921000Y-100580000D02*
X180871000Y-101876000D01*
X180871000Y-101876000D02*
X179902000Y-101978000D01*
X186164000Y-100134000D02*
X181921000Y-100580000D01*
%TO.N,C3*%
X195565000Y-96050400D02*
X196824800Y-94651500D01*
X196824800Y-94651500D02*
X197529000Y-93869600D01*
D47*
X268649000Y-104267300D02*
X244157700Y-104267300D01*
D46*
X272420500Y-110519000D02*
X271046000Y-110519000D01*
D47*
X271045700Y-110519000D02*
X271045600Y-110518900D01*
X271046000Y-110519000D02*
X271045700Y-110519000D01*
D46*
X272421000Y-110519000D02*
X272420500Y-110519000D01*
D47*
X195565387Y-96050346D02*
X195565387Y-100565387D01*
D45*
X198419000Y-110846000D02*
X199617000Y-110784000D01*
D47*
X208405400Y-97941300D02*
X197456341Y-97941300D01*
D45*
X196455000Y-113027000D02*
X197714500Y-111628300D01*
D47*
X276435900Y-107550600D02*
X275558800Y-106673500D01*
D45*
X197345000Y-130004000D02*
X198604200Y-128605000D01*
D47*
X272788900Y-109248900D02*
X275595400Y-109248900D01*
D45*
X197529000Y-93869600D02*
X198727000Y-93806800D01*
D47*
X196455087Y-113027046D02*
X196455087Y-104544913D01*
D45*
X212902000Y-161652000D02*
X214120900Y-160199100D01*
D47*
X275558800Y-106673500D02*
X271055200Y-106673500D01*
D45*
X199308000Y-127823000D02*
X200507000Y-127760000D01*
D47*
X195565387Y-100565387D02*
X196500000Y-101500000D01*
X275595400Y-109248900D02*
X276435900Y-108408400D01*
X242489400Y-105935600D02*
X216399700Y-105935600D01*
X195565400Y-96050300D02*
X196824800Y-94790900D01*
D45*
X214788000Y-159404000D02*
X215983000Y-159299000D01*
D47*
X272420600Y-110518900D02*
X272420600Y-109617200D01*
X216399700Y-105935600D02*
X208405400Y-97941300D01*
D45*
%TO.N,middle_bottom*%
X201438000Y-126910000D02*
X200465000Y-126961000D01*
X208764000Y-127202000D02*
X207347300Y-125927000D01*
D47*
X208763819Y-124189704D02*
X208763819Y-127202281D01*
D45*
X206815000Y-125448000D02*
X202554000Y-125671000D01*
X202554000Y-125671000D02*
X201438000Y-126910000D01*
D47*
X208763800Y-127202300D02*
X208764000Y-127202100D01*
X208200954Y-123626839D02*
X208763819Y-124189704D01*
%TO.N,middle_home*%
X207874100Y-110225600D02*
X207873900Y-110225800D01*
D45*
X205926000Y-108471000D02*
X201664000Y-108695000D01*
X200549000Y-109934000D02*
X199575000Y-109985000D01*
D47*
X207311300Y-106650100D02*
X207351700Y-107421800D01*
D45*
X207873900Y-110225900D02*
X206457600Y-108949900D01*
D47*
X207311300Y-108096200D02*
X206457600Y-108949900D01*
D45*
X201664000Y-108695000D02*
X200549000Y-109934000D01*
X207874000Y-110226000D02*
X207873900Y-110225900D01*
D47*
X207311300Y-107462200D02*
X207311300Y-108096200D01*
%TO.N,middle_top*%
X206421454Y-89673439D02*
X206984419Y-90236404D01*
D45*
X199659000Y-92956900D02*
X198685000Y-93007900D01*
D47*
X206984419Y-90236404D02*
X206984419Y-93248881D01*
X206984400Y-93248900D02*
X206984000Y-93248900D01*
D45*
X206984000Y-93248900D02*
X205567900Y-91973500D01*
X200775000Y-91717800D02*
X199659000Y-92956900D01*
X205036000Y-91494500D02*
X200775000Y-91717800D01*
D47*
%TO.N,C4*%
X221920600Y-124673100D02*
X258830100Y-124673100D01*
X271046000Y-113059000D02*
X271045700Y-113059000D01*
D45*
X216688700Y-100571200D02*
X217446000Y-99813900D01*
D46*
X272420500Y-113059000D02*
X271046000Y-113059000D01*
D47*
X258830100Y-124673100D02*
X259379000Y-124124200D01*
D45*
X215371000Y-101889000D02*
X216688700Y-100571200D01*
D47*
X215371100Y-101888900D02*
X216688700Y-100571300D01*
D45*
X217446000Y-116814000D02*
X218646000Y-116814000D01*
D47*
X272420500Y-113059000D02*
X272420600Y-113058900D01*
D45*
X237112000Y-159195000D02*
X238308000Y-159299000D01*
X215371000Y-135889000D02*
X217446000Y-133814000D01*
D46*
X272421000Y-113059000D02*
X272420500Y-113059000D01*
D47*
X215370600Y-118888900D02*
X215370900Y-118888900D01*
X215370600Y-135888900D02*
X215370900Y-135888900D01*
X215370600Y-101888900D02*
X215371100Y-101888900D01*
D45*
X217446000Y-99813900D02*
X218646000Y-99813900D01*
D47*
X271045700Y-113059000D02*
X271045600Y-113058900D01*
D45*
X217446000Y-133814000D02*
X218646000Y-133814000D01*
X215371000Y-118889000D02*
X217446000Y-116814000D01*
X234864000Y-161081000D02*
X236733800Y-159512300D01*
%TO.N,index_bottom*%
X226185100Y-132953100D02*
X225067000Y-131835000D01*
X219621000Y-133014000D02*
X218646000Y-133014000D01*
D47*
X226920600Y-133688600D02*
X226920600Y-133688900D01*
D45*
X220800000Y-131835000D02*
X219621000Y-133014000D01*
D47*
X226545600Y-132592600D02*
X226545600Y-130088900D01*
D45*
X226920600Y-133688600D02*
X226185100Y-132953100D01*
X225067000Y-131835000D02*
X220800000Y-131835000D01*
X226921000Y-133689000D02*
X226920600Y-133688600D01*
D47*
%TO.N,index_home*%
X226545600Y-115592600D02*
X226545600Y-113088900D01*
D45*
X219621000Y-116014000D02*
X218646000Y-116014000D01*
X226921000Y-116689000D02*
X226920600Y-116688600D01*
D47*
X226920600Y-116688600D02*
X226920600Y-116688900D01*
D45*
X226920600Y-116688600D02*
X226185100Y-115953100D01*
X220800000Y-114835000D02*
X219621000Y-116014000D01*
X225067000Y-114835000D02*
X220800000Y-114835000D01*
X226185100Y-115953100D02*
X225067000Y-114835000D01*
D47*
%TO.N,index_top*%
X226545600Y-98592500D02*
X226545600Y-96088900D01*
D45*
X226185100Y-98953000D02*
X225067000Y-97834900D01*
X219621000Y-99013900D02*
X218646000Y-99013900D01*
X226920600Y-99688500D02*
X226185100Y-98953000D01*
X220800000Y-97834900D02*
X219621000Y-99013900D01*
X226921000Y-99688900D02*
X226920600Y-99688500D01*
X225067000Y-97834900D02*
X220800000Y-97834900D01*
D47*
X226920600Y-99688500D02*
X226920600Y-99688900D01*
D45*
%TO.N,C5*%
X235446000Y-135814000D02*
X236646000Y-135814000D01*
X233371000Y-103889000D02*
X235446000Y-101814000D01*
D47*
X233370600Y-103888900D02*
X233370900Y-103888900D01*
X247405400Y-120754600D02*
X240497500Y-120754600D01*
D46*
X272421000Y-115599000D02*
X272420500Y-115599000D01*
D47*
X269888800Y-116755700D02*
X251404300Y-116755700D01*
X255485995Y-166291900D02*
X250292200Y-166291900D01*
X258344300Y-164243600D02*
X258344400Y-164243700D01*
D45*
X256692000Y-165086000D02*
X258344400Y-164243700D01*
D47*
X238556900Y-118814000D02*
X236646000Y-118814000D01*
D46*
X272420500Y-115599000D02*
X271046000Y-115599000D01*
D45*
X235446000Y-101814000D02*
X236646000Y-101814000D01*
D47*
X233370600Y-137888900D02*
X233370900Y-137888900D01*
X251404300Y-116755700D02*
X247405400Y-120754600D01*
D45*
X233371000Y-137889000D02*
X235446000Y-135814000D01*
D47*
X271046000Y-115599000D02*
X271045700Y-115599000D01*
X256692200Y-165085700D02*
X257152000Y-165085700D01*
D45*
X258344400Y-164243700D02*
X259307000Y-163753000D01*
D47*
X271045600Y-115598900D02*
X269888800Y-116755700D01*
X233370600Y-120888900D02*
X233370900Y-120888900D01*
X272420500Y-115599000D02*
X272420600Y-115598900D01*
D45*
X235446000Y-118814000D02*
X236646000Y-118814000D01*
X259307000Y-163753000D02*
X260448000Y-164124000D01*
D47*
X256692239Y-165085656D02*
X255485995Y-166291900D01*
D45*
X233371000Y-120889000D02*
X235446000Y-118814000D01*
D47*
X240497500Y-120754600D02*
X238556900Y-118814000D01*
D45*
%TO.N,inner_bottom*%
X238800000Y-133835000D02*
X237621000Y-135014000D01*
D47*
X244545600Y-134592600D02*
X244545600Y-132088900D01*
D45*
X244920600Y-135688600D02*
X244185100Y-134953100D01*
D47*
X244920600Y-135688600D02*
X244920600Y-135688900D01*
D45*
X244185100Y-134953100D02*
X243067000Y-133835000D01*
X243067000Y-133835000D02*
X238800000Y-133835000D01*
X244921000Y-135689000D02*
X244920600Y-135688600D01*
X237621000Y-135014000D02*
X236646000Y-135014000D01*
%TO.N,inner_home*%
X244185100Y-117953100D02*
X243067000Y-116835000D01*
X237621000Y-118014000D02*
X236646000Y-118014000D01*
D47*
X244545600Y-117592600D02*
X244545600Y-115088900D01*
D45*
X243067000Y-116835000D02*
X238800000Y-116835000D01*
X238800000Y-116835000D02*
X237621000Y-118014000D01*
X244921000Y-118689000D02*
X244920600Y-118688600D01*
D47*
X244920600Y-118688600D02*
X244920600Y-118688900D01*
D45*
X244920600Y-118688600D02*
X244185100Y-117953100D01*
%TO.N,inner_top*%
X244920800Y-101688700D02*
X243499600Y-100267500D01*
X238800000Y-99834900D02*
X237621000Y-101014000D01*
X243067000Y-99834900D02*
X238800000Y-99834900D01*
D47*
X244545600Y-101313900D02*
X244920600Y-101688900D01*
D45*
X237621000Y-101014000D02*
X236646000Y-101014000D01*
D47*
X244545600Y-98088900D02*
X244545600Y-101313900D01*
D45*
X244921000Y-101689000D02*
X244920800Y-101688700D01*
D47*
%TO.N,inner_cluster*%
X223528607Y-154899821D02*
X224215945Y-155587159D01*
D45*
X217957000Y-157140000D02*
X216885000Y-158417000D01*
X224216000Y-158453000D02*
X222807400Y-157271600D01*
X216885000Y-158417000D02*
X215914000Y-158502000D01*
X222207000Y-156768000D02*
X217957000Y-157140000D01*
D47*
X224215900Y-158453400D02*
X224216000Y-158453300D01*
X224216000Y-158453300D02*
X224216000Y-158453000D01*
X224215945Y-155587159D02*
X224215945Y-158453416D01*
D45*
%TO.N,mid_cluster*%
X240626000Y-157515000D02*
X239349000Y-158587000D01*
D47*
X246562200Y-159895800D02*
X246562000Y-159896000D01*
X246502393Y-159835960D02*
X246562277Y-159895844D01*
D45*
X246562000Y-159896000D02*
X245153700Y-158216900D01*
D47*
X246562300Y-159895800D02*
X246562200Y-159895800D01*
D45*
X244877000Y-157887000D02*
X240626000Y-157515000D01*
X239349000Y-158587000D02*
X238378000Y-158502000D01*
D47*
X246502393Y-156276821D02*
X246502393Y-159835960D01*
D45*
%TO.N,outer_cluster*%
X267166000Y-164226000D02*
X263108000Y-162908000D01*
X261623000Y-163665000D02*
X260695000Y-163363000D01*
D47*
X268356800Y-165989300D02*
X268356800Y-166562500D01*
X269112522Y-163022743D02*
X268356779Y-163778486D01*
D45*
X267761500Y-165394000D02*
X267271300Y-164432500D01*
D47*
X267761500Y-165394000D02*
X268356800Y-165989300D01*
D45*
X268357000Y-166562000D02*
X267761500Y-165394000D01*
X263108000Y-162908000D02*
X261623000Y-163665000D01*
D47*
X268356779Y-163778486D02*
X268356779Y-166562478D01*
X269081500Y-167107000D02*
X269081600Y-167107000D01*
X269081600Y-167107000D02*
X269112500Y-167076100D01*
%TO.N,R2*%
X208799800Y-121103000D02*
X214485700Y-126788900D01*
X226545600Y-127515600D02*
X228745600Y-127515600D01*
X208414900Y-119339700D02*
X208415000Y-119339700D01*
X264245500Y-115599000D02*
X264245600Y-115598900D01*
X262431500Y-114472200D02*
X247418800Y-114472200D01*
X208415000Y-119339700D02*
X201660300Y-119339700D01*
X190576100Y-127960800D02*
X190576100Y-127915300D01*
X157072400Y-145276400D02*
X157262300Y-146169600D01*
X174679100Y-141534000D02*
X173670500Y-141748400D01*
X157072446Y-145276356D02*
X143664744Y-145276356D01*
X208194900Y-119559700D02*
X208414900Y-119339700D01*
X143664744Y-145276356D02*
X143569700Y-145371400D01*
X263558300Y-115599000D02*
X262431500Y-114472200D01*
X190661600Y-128775100D02*
X190576000Y-127960800D01*
X157965600Y-146169600D02*
X157262300Y-146169600D01*
X244977800Y-127630000D02*
X247418800Y-127630000D01*
X262871000Y-115599000D02*
X262870700Y-115599000D01*
D46*
X262871000Y-115599000D02*
X263558300Y-115599000D01*
D47*
X214485700Y-126788900D02*
X226545600Y-126788900D01*
X172875600Y-142414500D02*
X173004400Y-142414500D01*
X262870700Y-115599000D02*
X262870600Y-115598900D01*
X157072446Y-145276356D02*
X159934302Y-142414500D01*
D46*
X263558300Y-115599000D02*
X264245500Y-115599000D01*
D47*
X208028200Y-120331400D02*
X207987800Y-119559700D01*
X173004400Y-142414500D02*
X173670500Y-141748400D01*
X159934302Y-142414500D02*
X172875600Y-142414500D01*
X228745600Y-127515600D02*
X243999000Y-127515600D01*
X244545600Y-128788900D02*
X244545600Y-128062200D01*
X158048000Y-146252000D02*
X157965600Y-146169600D01*
X190576100Y-127915300D02*
X190348000Y-127687200D01*
D46*
X264245500Y-115599000D02*
X264246000Y-115599000D01*
D47*
X243999000Y-127515600D02*
X244545600Y-128062200D01*
X208028200Y-120331400D02*
X208068600Y-121103000D01*
X158148400Y-146252000D02*
X158048000Y-146252000D01*
%TO.N,R1*%
X148000000Y-128000000D02*
X151000000Y-128000000D01*
D46*
X262871000Y-113059000D02*
X263558300Y-113059000D01*
D47*
X263558300Y-113059000D02*
X262288200Y-111788900D01*
X225334200Y-108698300D02*
X212482100Y-108698300D01*
X206224900Y-103402500D02*
X205988300Y-103165900D01*
X188884600Y-111868300D02*
X187936800Y-111967900D01*
X173235700Y-112188300D02*
X187716400Y-112188300D01*
X189832500Y-111464800D02*
X192436400Y-108860900D01*
X205988300Y-103165900D02*
X205963900Y-103165900D01*
X262288200Y-111788900D02*
X244545600Y-111788900D01*
X170136000Y-125119800D02*
X156600600Y-125119800D01*
X171144600Y-124905500D02*
X170954700Y-124012200D01*
D46*
X263558300Y-113059000D02*
X264245500Y-113059000D01*
D47*
X153537946Y-128647856D02*
X153537946Y-128182454D01*
X262870700Y-113059000D02*
X262870600Y-113058900D01*
X205963900Y-103165900D02*
X193374500Y-103165900D01*
X229849900Y-111788900D02*
X228492900Y-111788900D01*
X262871000Y-113059000D02*
X262870700Y-113059000D01*
X156600600Y-125119800D02*
X154147600Y-127572800D01*
X264245500Y-113059000D02*
X264245600Y-113058900D01*
X226545600Y-109909700D02*
X225334200Y-108698300D01*
X153574800Y-127000000D02*
X154147600Y-127572800D01*
X171144600Y-124905500D02*
X170136000Y-125119900D01*
X171108300Y-123858700D02*
X170954800Y-124012200D01*
D46*
X264245500Y-113059000D02*
X264246000Y-113059000D01*
D47*
X152000000Y-127000000D02*
X153574800Y-127000000D01*
X188884600Y-111868300D02*
X189832500Y-111768700D01*
X244545600Y-111788900D02*
X229849900Y-111788900D01*
X226545600Y-109841600D02*
X226545600Y-109909700D01*
X171108300Y-123835900D02*
X171108300Y-123858700D01*
X212482100Y-108698300D02*
X207910100Y-104126300D01*
X153537946Y-128182454D02*
X154147600Y-127572800D01*
X207138500Y-103354700D02*
X207178900Y-104126300D01*
X228492900Y-111788900D02*
X226545600Y-109841600D01*
X226545600Y-109788900D02*
X226545600Y-109841600D01*
X207138500Y-103354700D02*
X206224900Y-103402500D01*
%TO.N,R0*%
X148994800Y-112233700D02*
X148817400Y-112233700D01*
X190470400Y-86216100D02*
X205125400Y-86216100D01*
X262871000Y-110519000D02*
X262870700Y-110519000D01*
X167610146Y-108276856D02*
X167610146Y-107510654D01*
D46*
X264245500Y-110519000D02*
X264246000Y-110519000D01*
D47*
X228064000Y-92147200D02*
X228745600Y-92147200D01*
X187818700Y-94886800D02*
X187854000Y-94886800D01*
X150003400Y-112019400D02*
X148994800Y-112233800D01*
X188297900Y-95104100D02*
X188055600Y-94861800D01*
X264245500Y-110519000D02*
X264245600Y-110518900D01*
X188421200Y-95104100D02*
X188297900Y-95104100D01*
X226545600Y-92788900D02*
X217301100Y-92788900D01*
X187107700Y-94961400D02*
X187818600Y-94886700D01*
X206248700Y-86378000D02*
X207162400Y-86330100D01*
X217301100Y-92788900D02*
X210745600Y-86233400D01*
X206248700Y-86378000D02*
X205335100Y-86425800D01*
X210648900Y-86330100D02*
X207162400Y-86330100D01*
X228745600Y-92147200D02*
X231387300Y-94788900D01*
X150003446Y-112019356D02*
X153745946Y-108276856D01*
X249445200Y-94788900D02*
X244545600Y-94788900D01*
D46*
X263558300Y-110519000D02*
X264245500Y-110519000D01*
X262871000Y-110519000D02*
X263558300Y-110519000D01*
D47*
X153745946Y-108276856D02*
X167610146Y-108276856D01*
X167610146Y-107510654D02*
X167919900Y-107200900D01*
X187858300Y-94882500D02*
X188055600Y-94861800D01*
X262870700Y-110519000D02*
X262870600Y-110518900D01*
X210745600Y-86233400D02*
X210648900Y-86330100D01*
X262288200Y-109248900D02*
X249445200Y-109248900D01*
X231387300Y-94788900D02*
X244545600Y-94788900D01*
X227422300Y-92788900D02*
X228064000Y-92147200D01*
X263558300Y-110519000D02*
X262288200Y-109248900D01*
%TO.N,R3*%
X263558300Y-118139000D02*
X262288400Y-119408900D01*
X223241000Y-151612400D02*
X224177700Y-151530400D01*
X262871000Y-118139000D02*
X262870700Y-118139000D01*
X247742900Y-153087600D02*
X254047300Y-153087600D01*
X223241000Y-151612400D02*
X222304300Y-151694400D01*
X244231100Y-151285200D02*
X245853300Y-152907400D01*
X254047300Y-153087600D02*
X262621100Y-153087600D01*
X264245500Y-118139000D02*
X264245600Y-118138900D01*
X221757800Y-151147800D02*
X222304300Y-151694300D01*
D46*
X264245500Y-118139000D02*
X264246000Y-118139000D01*
X263558300Y-118139000D02*
X264245500Y-118139000D01*
D47*
X208834900Y-151147800D02*
X221757800Y-151147800D01*
X262621100Y-153087600D02*
X269073900Y-159540400D01*
X246790000Y-152989400D02*
X247726700Y-153071400D01*
X229838100Y-151285200D02*
X244231100Y-151285200D01*
D46*
X262871000Y-118139000D02*
X263558300Y-118139000D01*
D47*
X270132300Y-159884300D02*
X269073900Y-159540400D01*
X224422900Y-151285200D02*
X229838100Y-151285200D01*
X262870700Y-118139000D02*
X262870600Y-118138900D01*
X262288400Y-119408900D02*
X255631500Y-119408900D01*
%TO.N,RAW*%
X271046000Y-92738900D02*
X271045600Y-92738900D01*
D46*
X272421000Y-92738900D02*
X272420600Y-92738900D01*
X272420600Y-92738900D02*
X271046000Y-92738900D01*
D47*
%TO.N,RST*%
X271046000Y-97818900D02*
X271046000Y-98100500D01*
X271961500Y-99016000D02*
X274551000Y-99016000D01*
D46*
X272420600Y-97818900D02*
X271046000Y-97818900D01*
D47*
X271046000Y-98100500D02*
X271961500Y-99016000D01*
D46*
X272421000Y-97818900D02*
X272420600Y-97818900D01*
D47*
X271046000Y-97818900D02*
X271045600Y-97818900D01*
D46*
%TO.N,VCC*%
X272421000Y-100359000D02*
X272420500Y-100359000D01*
X271046000Y-100359000D02*
X271045700Y-100359000D01*
X271045700Y-100359000D02*
X271045600Y-100358900D01*
X272420500Y-100359000D02*
X271046000Y-100359000D01*
X272420500Y-100359000D02*
X272420600Y-100358900D01*
D47*
%TO.N,P16*%
X272420500Y-118139000D02*
X272420600Y-118138900D01*
D46*
X272420500Y-118139000D02*
X271046000Y-118139000D01*
X272421000Y-118139000D02*
X272420500Y-118139000D01*
D47*
X271046000Y-118139000D02*
X271045700Y-118139000D01*
X271045700Y-118139000D02*
X271045600Y-118138900D01*
D46*
%TO.N,P10*%
X272420500Y-120679000D02*
X271046000Y-120679000D01*
D47*
X271045700Y-120679000D02*
X271045600Y-120678900D01*
X271046000Y-120679000D02*
X271045700Y-120679000D01*
X272420500Y-120679000D02*
X272420600Y-120678900D01*
D46*
X272421000Y-120679000D02*
X272420500Y-120679000D01*
D47*
%TO.N,LED*%
X262871000Y-92738900D02*
X262870600Y-92738900D01*
D46*
X264245600Y-92738900D02*
X264246000Y-92738900D01*
X262871000Y-92738900D02*
X264245600Y-92738900D01*
%TO.N,P0*%
X262871000Y-95278900D02*
X264245600Y-95278900D01*
X264245600Y-95278900D02*
X264246000Y-95278900D01*
D47*
X262871000Y-95278900D02*
X262870600Y-95278900D01*
%TO.N,MOSI*%
X264245500Y-102899000D02*
X264245600Y-102898900D01*
X271848900Y-127288900D02*
X270828900Y-128308900D01*
X262870700Y-102899000D02*
X262870600Y-102898900D01*
X272725600Y-127288900D02*
X271848900Y-127288900D01*
X270828900Y-128308900D02*
X265740400Y-128308900D01*
X262871000Y-102899000D02*
X262870700Y-102899000D01*
D46*
X262871000Y-102899000D02*
X264245500Y-102899000D01*
X264245500Y-102899000D02*
X264246000Y-102899000D01*
D47*
%TO.N,SCK*%
X270185600Y-127288900D02*
X266303400Y-127288900D01*
X266303400Y-127288900D02*
X266227100Y-127212600D01*
X262871000Y-105439000D02*
X262870700Y-105439000D01*
X264245500Y-105439000D02*
X264245600Y-105438900D01*
X262870700Y-105439000D02*
X262870600Y-105438900D01*
D46*
X264245500Y-105439000D02*
X264246000Y-105439000D01*
X262871000Y-105439000D02*
X264245500Y-105439000D01*
%TO.N,CS*%
X264245500Y-107979000D02*
X264246000Y-107979000D01*
D47*
X262890700Y-127288900D02*
X264348800Y-128747000D01*
X264245500Y-107979000D02*
X264245600Y-107978900D01*
X262871000Y-107979000D02*
X262870700Y-107979000D01*
D46*
X262871000Y-107979000D02*
X264245500Y-107979000D01*
D47*
X262870700Y-107979000D02*
X262870600Y-107978900D01*
X262565600Y-127288900D02*
X262890700Y-127288900D01*
%TO.N,DAT*%
X262871000Y-120679000D02*
X262870700Y-120679000D01*
D46*
X262871000Y-120679000D02*
X264245500Y-120679000D01*
D47*
X264245500Y-120679000D02*
X264245600Y-120678900D01*
D46*
X264245500Y-120679000D02*
X264246000Y-120679000D01*
D47*
X262870700Y-120679000D02*
X262870600Y-120678900D01*
D46*
%TO.N,MCU1_24*%
X262145600Y-92738900D02*
X262146000Y-92738900D01*
D47*
X260026000Y-92738900D02*
X260025600Y-92738900D01*
D46*
X260026000Y-92738900D02*
X262145600Y-92738900D01*
%TO.N,MCU1_1*%
X275265600Y-92738900D02*
X275266000Y-92738900D01*
X273146000Y-92738900D02*
X275265600Y-92738900D01*
%TO.N,MCU1_23*%
X262145600Y-95278900D02*
X262146000Y-95278900D01*
X260026000Y-95278900D02*
X262145600Y-95278900D01*
D47*
X260026000Y-95278900D02*
X260025600Y-95278900D01*
D46*
%TO.N,MCU1_2*%
X275265600Y-95278900D02*
X275266000Y-95278900D01*
X273146000Y-95278900D02*
X275265600Y-95278900D01*
D47*
%TO.N,MCU1_22*%
X260026000Y-97818900D02*
X260025600Y-97818900D01*
D46*
X262145600Y-97818900D02*
X262146000Y-97818900D01*
X260026000Y-97818900D02*
X262145600Y-97818900D01*
%TO.N,MCU1_3*%
X273146000Y-97818900D02*
X275265600Y-97818900D01*
X275265600Y-97818900D02*
X275266000Y-97818900D01*
%TO.N,MCU1_21*%
X260026000Y-100359000D02*
X262146000Y-100359000D01*
D47*
X260026000Y-100359000D02*
X260025700Y-100359000D01*
X260025700Y-100359000D02*
X260025600Y-100358900D01*
%TO.N,MCU1_4*%
X275265500Y-100359000D02*
X275265600Y-100358900D01*
D46*
X273146000Y-100359000D02*
X275265500Y-100359000D01*
X275265500Y-100359000D02*
X275266000Y-100359000D01*
D47*
%TO.N,MCU1_20*%
X260025700Y-102899000D02*
X260025600Y-102898900D01*
D46*
X260026000Y-102899000D02*
X262146000Y-102899000D01*
D47*
X260026000Y-102899000D02*
X260025700Y-102899000D01*
%TO.N,MCU1_5*%
X275265500Y-102899000D02*
X275265600Y-102898900D01*
D46*
X273146000Y-102899000D02*
X275265500Y-102899000D01*
X275265500Y-102899000D02*
X275266000Y-102899000D01*
D47*
%TO.N,MCU1_19*%
X260026000Y-105439000D02*
X260025700Y-105439000D01*
D46*
X260026000Y-105439000D02*
X262146000Y-105439000D01*
D47*
X260025700Y-105439000D02*
X260025600Y-105438900D01*
D46*
%TO.N,MCU1_6*%
X273146000Y-105439000D02*
X275265500Y-105439000D01*
D47*
X275265500Y-105439000D02*
X275265600Y-105438900D01*
D46*
X275265500Y-105439000D02*
X275266000Y-105439000D01*
%TO.N,MCU1_18*%
X260026000Y-107979000D02*
X262146000Y-107979000D01*
D47*
X260025700Y-107979000D02*
X260025600Y-107978900D01*
X260026000Y-107979000D02*
X260025700Y-107979000D01*
%TO.N,MCU1_7*%
X275265500Y-107979000D02*
X275265600Y-107978900D01*
D46*
X273146000Y-107979000D02*
X275265500Y-107979000D01*
X275265500Y-107979000D02*
X275266000Y-107979000D01*
D47*
%TO.N,MCU1_17*%
X260025700Y-110519000D02*
X260025600Y-110518900D01*
X260026000Y-110519000D02*
X260025700Y-110519000D01*
D46*
X260026000Y-110519000D02*
X262146000Y-110519000D01*
%TO.N,MCU1_8*%
X275265500Y-110519000D02*
X275266000Y-110519000D01*
X273146000Y-110519000D02*
X275265500Y-110519000D01*
D47*
X275265500Y-110519000D02*
X275265600Y-110518900D01*
%TO.N,MCU1_16*%
X260026000Y-113059000D02*
X260025700Y-113059000D01*
X260025700Y-113059000D02*
X260025600Y-113058900D01*
D46*
X260026000Y-113059000D02*
X262146000Y-113059000D01*
%TO.N,MCU1_9*%
X273146000Y-113059000D02*
X275265500Y-113059000D01*
X275265500Y-113059000D02*
X275266000Y-113059000D01*
D47*
X275265500Y-113059000D02*
X275265600Y-113058900D01*
%TO.N,MCU1_15*%
X260026000Y-115599000D02*
X260025700Y-115599000D01*
X260025700Y-115599000D02*
X260025600Y-115598900D01*
D46*
X260026000Y-115599000D02*
X262146000Y-115599000D01*
%TO.N,MCU1_10*%
X273146000Y-115599000D02*
X275265500Y-115599000D01*
X275265500Y-115599000D02*
X275266000Y-115599000D01*
D47*
X275265500Y-115599000D02*
X275265600Y-115598900D01*
D46*
%TO.N,MCU1_14*%
X260026000Y-118139000D02*
X262146000Y-118139000D01*
D47*
X260025700Y-118139000D02*
X260025600Y-118138900D01*
X260026000Y-118139000D02*
X260025700Y-118139000D01*
%TO.N,MCU1_11*%
X275265500Y-118139000D02*
X275265600Y-118138900D01*
D46*
X275265500Y-118139000D02*
X275266000Y-118139000D01*
X273146000Y-118139000D02*
X275265500Y-118139000D01*
D47*
%TO.N,MCU1_13*%
X260026000Y-120679000D02*
X260025700Y-120679000D01*
X260025700Y-120679000D02*
X260025600Y-120678900D01*
D46*
X260026000Y-120679000D02*
X262146000Y-120679000D01*
%TO.N,MCU1_12*%
X275265500Y-120679000D02*
X275266000Y-120679000D01*
X273146000Y-120679000D02*
X275265500Y-120679000D01*
D47*
X275265500Y-120679000D02*
X275265600Y-120678900D01*
%TO.N,DISP1_1*%
X262565600Y-125076100D02*
X262565600Y-124638900D01*
D46*
X262566000Y-124639000D02*
X262566000Y-125076500D01*
X262566000Y-125514000D02*
X262566000Y-126389000D01*
X262566000Y-125076500D02*
X262566000Y-125514000D01*
%TO.N,DISP1_2*%
X265106000Y-124639000D02*
X265106000Y-125076500D01*
X265106000Y-125076500D02*
X265106000Y-125514000D01*
X265106000Y-125514000D02*
X265106000Y-126389000D01*
D47*
X265105600Y-125076100D02*
X265105600Y-124638900D01*
%TO.N,DISP1_4*%
X270185600Y-125076100D02*
X270185600Y-124638900D01*
D46*
X270186000Y-124639000D02*
X270186000Y-125076500D01*
X270186000Y-125514000D02*
X270186000Y-126389000D01*
X270186000Y-125076500D02*
X270186000Y-125514000D01*
%TO.N,DISP1_5*%
X272726000Y-124639000D02*
X272726000Y-125076500D01*
X272726000Y-125514000D02*
X272726000Y-126389000D01*
X272726000Y-125076500D02*
X272726000Y-125514000D01*
D47*
X272725600Y-125076100D02*
X272725600Y-124638900D01*
D46*
%TO.N,BAT_P*%
X266600300Y-132975500D02*
X266600300Y-133300200D01*
X273145200Y-142828400D02*
X274050100Y-142828400D01*
X266600300Y-132975500D02*
X266563600Y-133012200D01*
X274050100Y-142828400D02*
X274410600Y-143188900D01*
X266600300Y-133300200D02*
X265961600Y-133938900D01*
%TO.N,BAT1_1*%
X263145700Y-133939000D02*
X263145600Y-133938900D01*
X263146000Y-133939000D02*
X263145700Y-133939000D01*
X264946000Y-133939000D02*
X263146000Y-133939000D01*
%TO.N,BAT1_2*%
X264946000Y-131939000D02*
X263146000Y-131939000D01*
X263145700Y-131939000D02*
X263145600Y-131938900D01*
X263146000Y-131939000D02*
X263145700Y-131939000D01*
D47*
%TO.N,DISP1_5*%
X272726000Y-125076500D02*
X272725600Y-125076100D01*
%TO.N,DISP1_4*%
X270186000Y-125076500D02*
X270185600Y-125076100D01*
%TO.N,DISP1_2*%
X265106000Y-125076500D02*
X265105600Y-125076100D01*
%TO.N,DISP1_1*%
X262566000Y-125076500D02*
X262565600Y-125076100D01*
%TO.N,R3*%
X222304300Y-151694300D02*
X222304300Y-151694400D01*
X246790000Y-152989400D02*
X245853300Y-152907400D01*
X247726700Y-153071400D02*
X247742900Y-153087600D01*
X224177700Y-151530400D02*
X224422900Y-151285200D01*
%TO.N,R0*%
X187818600Y-94886700D02*
X187818700Y-94886800D01*
X187854000Y-94886800D02*
X187858300Y-94882500D01*
X148994800Y-112233800D02*
X148994800Y-112233700D01*
X205125400Y-86216100D02*
X205335100Y-86425800D01*
X226545600Y-92788900D02*
X227422300Y-92788900D01*
%TO.N,R1*%
X151000000Y-128000000D02*
X152000000Y-127000000D01*
X207910100Y-104126300D02*
X207178900Y-104126300D01*
X187716400Y-112188300D02*
X187936800Y-111967900D01*
X189832500Y-111768700D02*
X189832500Y-111464800D01*
X170136000Y-125119900D02*
X170136000Y-125119800D01*
X170954800Y-124012200D02*
X170954700Y-124012200D01*
%TO.N,R2*%
X226545600Y-126788900D02*
X226545600Y-127515600D01*
X208068600Y-121103000D02*
X208799800Y-121103000D01*
X207987800Y-119559700D02*
X208194900Y-119559700D01*
X190576000Y-127960800D02*
X190576100Y-127960800D01*
X244545600Y-128062200D02*
X244977800Y-127630000D01*
D45*
%TO.N,outer_cluster*%
X267271300Y-164432500D02*
X267166000Y-164226000D01*
%TO.N,mid_cluster*%
X245153700Y-158216900D02*
X244877000Y-157887000D01*
%TO.N,inner_cluster*%
X222807400Y-157271600D02*
X222207000Y-156768000D01*
D47*
%TO.N,inner_top*%
X244920600Y-101688900D02*
X244920800Y-101688700D01*
D45*
X243499600Y-100267500D02*
X243067000Y-99834900D01*
D47*
%TO.N,inner_home*%
X244185100Y-117953100D02*
X244545600Y-117592600D01*
%TO.N,inner_bottom*%
X244185100Y-134953100D02*
X244545600Y-134592600D01*
%TO.N,C5*%
X271045700Y-115599000D02*
X271045600Y-115598900D01*
X233370900Y-103888900D02*
X233371000Y-103889000D01*
X233370900Y-120888900D02*
X233371000Y-120889000D01*
X233370900Y-137888900D02*
X233371000Y-137889000D01*
%TO.N,index_top*%
X226185100Y-98953000D02*
X226545600Y-98592500D01*
%TO.N,index_home*%
X226185100Y-115953100D02*
X226545600Y-115592600D01*
%TO.N,index_bottom*%
X226185100Y-132953100D02*
X226545600Y-132592600D01*
%TO.N,C4*%
X216688700Y-100571300D02*
X216688700Y-100571200D01*
X215370900Y-118888900D02*
X215371000Y-118889000D01*
X215370900Y-135888900D02*
X215371000Y-135889000D01*
D45*
X236733800Y-159512300D02*
X237112000Y-159195000D01*
%TO.N,middle_top*%
X205567900Y-91973500D02*
X205036000Y-91494500D01*
D47*
%TO.N,middle_home*%
X207351700Y-107421800D02*
X207311300Y-107462200D01*
D45*
X206457600Y-108949900D02*
X205926000Y-108471000D01*
D47*
X207873900Y-110225800D02*
X207873900Y-110225900D01*
%TO.N,middle_bottom*%
X208764000Y-127202100D02*
X208764000Y-127202000D01*
D45*
X207347300Y-125927000D02*
X206815000Y-125448000D01*
D47*
%TO.N,C3*%
X244157700Y-104267300D02*
X242489400Y-105935600D01*
X196824800Y-94790900D02*
X196824800Y-94651500D01*
D45*
X214120900Y-160199100D02*
X214788000Y-159404000D01*
D47*
X197456341Y-97941300D02*
X195565387Y-96050346D01*
X272420600Y-109617200D02*
X272788900Y-109248900D01*
X272420500Y-110519000D02*
X272420600Y-110518900D01*
D45*
X197714500Y-111628300D02*
X198419000Y-110846000D01*
X198604200Y-128605000D02*
X199308000Y-127823000D01*
D47*
X276435900Y-108408400D02*
X276435900Y-107550600D01*
X271055200Y-106673500D02*
X268649000Y-104267300D01*
D45*
%TO.N,ring_top*%
X186798800Y-100647900D02*
X186164000Y-100134000D01*
%TO.N,ring_home*%
X188575800Y-117554900D02*
X187941000Y-117041000D01*
%TO.N,ring_bottom*%
X190352800Y-134461900D02*
X189718000Y-133948000D01*
D47*
X191756000Y-135598100D02*
X191756000Y-135598000D01*
D45*
X185475000Y-134394000D02*
X184425000Y-135690000D01*
%TO.N,C2*%
X181697900Y-137513000D02*
X182346000Y-136713000D01*
D47*
X175500000Y-139000000D02*
X176915800Y-140415800D01*
X177308621Y-123500000D02*
X176000000Y-123500000D01*
D45*
X179920900Y-120606400D02*
X180569000Y-119806000D01*
X178143900Y-103699400D02*
X178792000Y-102899000D01*
D47*
X271045700Y-107979000D02*
X271045600Y-107978900D01*
X190863500Y-104210500D02*
X192484800Y-102589200D01*
%TO.N,pinky_top*%
X169411700Y-114948000D02*
X169411700Y-114947800D01*
D45*
X168062100Y-114071400D02*
X167213000Y-113520000D01*
%TO.N,pinky_home*%
X171596600Y-130700700D02*
X170747000Y-130149000D01*
D47*
X172945900Y-131576800D02*
X172945900Y-131576900D01*
D45*
%TO.N,pinky_bottom*%
X175131100Y-147328600D02*
X174282000Y-146777000D01*
D47*
X176480200Y-148205200D02*
X176480000Y-148205000D01*
D45*
%TO.N,C1*%
X159643800Y-117849900D02*
X160170000Y-117040000D01*
X166712800Y-151106900D02*
X167239000Y-150297000D01*
D47*
X271045700Y-105439000D02*
X271045600Y-105438900D01*
D45*
X163178300Y-134478600D02*
X163704000Y-133669000D01*
D47*
X277000000Y-104000000D02*
X276686100Y-104313900D01*
X271000000Y-104500000D02*
X271045600Y-104545600D01*
%TO.N,outer_top*%
X151804700Y-118690700D02*
X151804700Y-118690800D01*
D45*
X150455400Y-117814600D02*
X149606000Y-117263000D01*
%TO.N,outer_home*%
X153989900Y-134442900D02*
X153140000Y-133891000D01*
D47*
X155339100Y-135319100D02*
X155339000Y-135319000D01*
D46*
%TO.N,GND*%
X268288300Y-133688900D02*
X267935500Y-133336100D01*
X266250000Y-131938900D02*
X266538300Y-131938900D01*
D47*
%TO.N,outer_bottom*%
X158873700Y-151947700D02*
X158873700Y-151947800D01*
D45*
X157524400Y-151071600D02*
X156675000Y-150520000D01*
%TO.N,C0*%
X145571600Y-138220100D02*
X146097000Y-137411000D01*
D47*
X147128400Y-142501700D02*
X146369300Y-141742600D01*
X271045700Y-102899000D02*
X271045600Y-102898900D01*
X160499000Y-140626000D02*
X158623300Y-142501700D01*
X175586500Y-140765800D02*
X175446700Y-140626000D01*
X235047600Y-139919600D02*
X234201400Y-140765800D01*
D45*
X142037100Y-121592900D02*
X142563000Y-120783000D01*
X149106100Y-154849900D02*
X149632000Y-154040000D01*
%TD*%
D48*
X182500000Y-135892000D03*
X276500000Y-122500000D03*
X252671300Y-101665000D03*
X252671300Y-139919600D03*
X147271000Y-137162000D03*
X143737000Y-120533000D03*
X150806000Y-153790000D03*
X150639000Y-153008000D03*
X265961600Y-135074700D03*
X147105000Y-136379000D03*
X143570000Y-119751000D03*
X257500000Y-89500000D03*
X164878000Y-133419000D03*
X161343000Y-116791000D03*
X168412000Y-150048000D03*
X168246000Y-149265000D03*
X164711000Y-132637000D03*
X161177000Y-116008000D03*
X183539000Y-136587000D03*
X181762000Y-119681000D03*
X179985000Y-102774000D03*
X181679000Y-118885000D03*
X179902000Y-101978000D03*
X199617000Y-110784000D03*
X200507000Y-127760000D03*
X196455087Y-104544913D03*
X198727000Y-93806800D03*
X215983000Y-159299000D03*
X196500000Y-101500000D03*
X200465000Y-126961000D03*
X199575000Y-109985000D03*
X198685000Y-93007900D03*
X221920600Y-124673100D03*
X238308000Y-159299000D03*
X218646000Y-116814000D03*
X259379000Y-124124200D03*
X218646000Y-133814000D03*
X218646000Y-99813900D03*
X218646000Y-133014000D03*
X218646000Y-116014000D03*
X218646000Y-99013900D03*
X236646000Y-101814000D03*
X236646000Y-135814000D03*
X236646000Y-118814000D03*
X250292200Y-166291900D03*
X260448000Y-164124000D03*
X236646000Y-135014000D03*
X236646000Y-118014000D03*
X236646000Y-101014000D03*
X215914000Y-158502000D03*
X238378000Y-158502000D03*
X260695000Y-163363000D03*
X190348000Y-127687200D03*
X228745600Y-127515600D03*
X172875600Y-142414500D03*
X208415000Y-119339700D03*
X247418800Y-127630000D03*
X201660300Y-119339700D03*
X247418800Y-114472200D03*
X158148400Y-146252000D03*
X143569700Y-145371400D03*
X205963900Y-103165900D03*
X193374500Y-103165900D03*
X192436400Y-108860900D03*
X173235700Y-112188300D03*
X148000000Y-128000000D03*
X171108300Y-123835900D03*
X229849900Y-111788900D03*
X154147600Y-127572800D03*
X188421200Y-95104100D03*
X210745600Y-86233400D03*
X249445200Y-109248900D03*
X148817400Y-112233700D03*
X190470400Y-86216100D03*
X249445200Y-94788900D03*
X167919900Y-107200900D03*
X228745600Y-92147200D03*
X255631500Y-119408900D03*
X254047300Y-153087600D03*
X229838100Y-151285200D03*
X208834900Y-151147800D03*
X274551000Y-99016000D03*
X265740400Y-128308900D03*
X266227100Y-127212600D03*
X264348800Y-128747000D03*
X273145200Y-142828400D03*
X266600300Y-132975500D03*
X273158600Y-139963600D03*
D49*
X252645600Y-142938900D03*
X200877000Y-158738600D03*
X157036100Y-139814500D03*
X273604300Y-152758400D03*
X153501600Y-123186000D03*
X264245600Y-92738900D03*
X264245600Y-95278900D03*
X264245600Y-97818900D03*
X264245600Y-100358900D03*
X264245600Y-102898900D03*
X264245600Y-105438900D03*
X264245600Y-107978900D03*
X264245600Y-110518900D03*
X264245600Y-113058900D03*
X264245600Y-115598900D03*
X264245600Y-118138900D03*
X264245600Y-120678900D03*
X271045600Y-120678900D03*
X271045600Y-118138900D03*
X271045600Y-115598900D03*
X271045600Y-113058900D03*
X271045600Y-110518900D03*
X271045600Y-107978900D03*
X271045600Y-105438900D03*
X271045600Y-102898900D03*
X271045600Y-100358900D03*
X271045600Y-97818900D03*
X271045600Y-95278900D03*
X271045600Y-92738900D03*
X260025600Y-92738900D03*
X260025600Y-95278900D03*
X260025600Y-97818900D03*
X260025600Y-100358900D03*
X260025600Y-102898900D03*
X260025600Y-105438900D03*
X260025600Y-107978900D03*
X260025600Y-110518900D03*
X260025600Y-113058900D03*
X260025600Y-115598900D03*
X260025600Y-118138900D03*
X260025600Y-120678900D03*
X275265600Y-120678900D03*
X275265600Y-118138900D03*
X275265600Y-115598900D03*
X275265600Y-113058900D03*
X275265600Y-110518900D03*
X275265600Y-107978900D03*
X275265600Y-105438900D03*
X275265600Y-102898900D03*
X275265600Y-100358900D03*
X275265600Y-97818900D03*
X275265600Y-95278900D03*
X275265600Y-92738900D03*
X263145600Y-131938900D03*
X263145600Y-133938900D03*
X272725600Y-124638900D03*
X270185600Y-124638900D03*
X267645600Y-124638900D03*
X265105600Y-124638900D03*
X262565600Y-124638900D03*
X252645600Y-92938900D03*
X276145600Y-133688900D03*
X276145600Y-127188900D03*
X276170600Y-142438900D03*
X276170600Y-139438900D03*
X162226888Y-147401114D03*
X163495631Y-150965212D03*
X167606700Y-146257600D03*
X168843775Y-152077578D03*
X173277107Y-148886095D03*
X172986512Y-145114086D03*
X141085688Y-134515014D03*
X142354431Y-138079112D03*
X146465500Y-133371500D03*
X147702575Y-139191478D03*
X152135907Y-135999995D03*
X151845312Y-132227986D03*
X210166529Y-155918257D03*
X210991461Y-159610409D03*
X215645600Y-155438900D03*
X216164177Y-161366258D03*
X220953410Y-158738851D03*
X221124671Y-154959543D03*
X158692388Y-130772614D03*
X159961131Y-134336712D03*
X164072200Y-129629100D03*
X165309275Y-135449078D03*
X169742607Y-132257595D03*
X169452012Y-128485586D03*
X137551188Y-117886514D03*
X138819931Y-121450612D03*
X142931000Y-116743000D03*
X144168075Y-122562978D03*
X148601407Y-119371495D03*
X148310812Y-115599486D03*
X213145600Y-129938900D03*
X213645600Y-133688900D03*
X218645600Y-129938900D03*
X218645600Y-135888900D03*
X223645600Y-133688900D03*
X224145600Y-129938900D03*
X256414789Y-158739307D03*
X255731504Y-162460277D03*
X261645600Y-160438900D03*
X259806949Y-166097686D03*
X265242069Y-165550447D03*
X266876411Y-162138493D03*
X213145600Y-95938900D03*
X213645600Y-99688900D03*
X218645600Y-95938900D03*
X218645600Y-101888900D03*
X223645600Y-99688900D03*
X224145600Y-95938900D03*
X213145600Y-112938900D03*
X213645600Y-116688900D03*
X218645600Y-112938900D03*
X218645600Y-118888900D03*
X223645600Y-116688900D03*
X224145600Y-112938900D03*
X193921738Y-107201648D03*
X194617312Y-110920341D03*
X199414200Y-106913800D03*
X199725599Y-112855646D03*
X204603608Y-110396981D03*
X204906662Y-106625952D03*
X155157888Y-114144114D03*
X156426631Y-117708212D03*
X160537700Y-113000600D03*
X161774775Y-118820578D03*
X166208107Y-115629095D03*
X165917512Y-111857086D03*
X193032038Y-90224948D03*
X193727612Y-93943641D03*
X198524500Y-89937100D03*
X198835899Y-95878946D03*
X203713908Y-93420281D03*
X204016962Y-89649252D03*
X231145600Y-97938900D03*
X231645600Y-101688900D03*
X236645600Y-97938900D03*
X236645600Y-103888900D03*
X241645600Y-101688900D03*
X242145600Y-97938900D03*
X231145600Y-131938900D03*
X231645600Y-135688900D03*
X236645600Y-131938900D03*
X236645600Y-137888900D03*
X241645600Y-135688900D03*
X242145600Y-131938900D03*
X194811438Y-124178348D03*
X195507012Y-127897041D03*
X200303900Y-123890500D03*
X200615299Y-129832346D03*
X205493308Y-127373681D03*
X205796362Y-123602652D03*
X233166529Y-154959543D03*
X233337790Y-158738851D03*
X238645600Y-155438900D03*
X238127023Y-161366258D03*
X243299739Y-159610409D03*
X244124671Y-155918257D03*
X231145600Y-114938900D03*
X231645600Y-118688900D03*
X236645600Y-114938900D03*
X236645600Y-120888900D03*
X241645600Y-118688900D03*
X242145600Y-114938900D03*
X175887330Y-116401707D03*
X176776572Y-120078899D03*
X181357200Y-115826800D03*
X181979144Y-121744205D03*
X186721791Y-119033615D03*
X186827070Y-115251893D03*
X174110330Y-99494907D03*
X174999572Y-103172099D03*
X179580200Y-98920000D03*
X180202144Y-104837405D03*
X184944791Y-102126815D03*
X185050070Y-98345093D03*
X144620188Y-151143514D03*
X145888931Y-154707612D03*
X150000000Y-150000000D03*
X151237075Y-155819978D03*
X155670407Y-152628495D03*
X155379812Y-148856486D03*
X177664330Y-133308607D03*
X178553572Y-136985799D03*
X183134200Y-132733700D03*
X183756144Y-138651105D03*
X188498791Y-135940515D03*
X188604070Y-132158793D03*
M02*
