%TF.GenerationSoftware,KiCad,Pcbnew,8.0.6*%
%TF.CreationDate,2024-12-16T11:38:41+00:00*%
%TF.ProjectId,scorn_choc_wireless,73636f72-6e5f-4636-986f-635f77697265,v1.0.0*%
%TF.SameCoordinates,Original*%
%TF.FileFunction,Legend,Bot*%
%TF.FilePolarity,Positive*%
%FSLAX46Y46*%
G04 Gerber Fmt 4.6, Leading zero omitted, Abs format (unit mm)*
G04 Created by KiCad (PCBNEW 8.0.6) date 2024-12-16 11:38:41*
%MOMM*%
%LPD*%
G01*
G04 APERTURE LIST*
%ADD10C,0.150000*%
%ADD11C,0.000000*%
%ADD12C,0.120000*%
%ADD13C,0.100000*%
%ADD14C,0.350000*%
G04 APERTURE END LIST*
D10*
X270423694Y-95733719D02*
X270423694Y-94733719D01*
X270423694Y-94733719D02*
X270042742Y-94733719D01*
X270042742Y-94733719D02*
X269947504Y-94781338D01*
X269947504Y-94781338D02*
X269899885Y-94828957D01*
X269899885Y-94828957D02*
X269852266Y-94924195D01*
X269852266Y-94924195D02*
X269852266Y-95067052D01*
X269852266Y-95067052D02*
X269899885Y-95162290D01*
X269899885Y-95162290D02*
X269947504Y-95209909D01*
X269947504Y-95209909D02*
X270042742Y-95257528D01*
X270042742Y-95257528D02*
X270423694Y-95257528D01*
X269233218Y-94733719D02*
X269137980Y-94733719D01*
X269137980Y-94733719D02*
X269042742Y-94781338D01*
X269042742Y-94781338D02*
X268995123Y-94828957D01*
X268995123Y-94828957D02*
X268947504Y-94924195D01*
X268947504Y-94924195D02*
X268899885Y-95114671D01*
X268899885Y-95114671D02*
X268899885Y-95352766D01*
X268899885Y-95352766D02*
X268947504Y-95543242D01*
X268947504Y-95543242D02*
X268995123Y-95638480D01*
X268995123Y-95638480D02*
X269042742Y-95686100D01*
X269042742Y-95686100D02*
X269137980Y-95733719D01*
X269137980Y-95733719D02*
X269233218Y-95733719D01*
X269233218Y-95733719D02*
X269328456Y-95686100D01*
X269328456Y-95686100D02*
X269376075Y-95638480D01*
X269376075Y-95638480D02*
X269423694Y-95543242D01*
X269423694Y-95543242D02*
X269471313Y-95352766D01*
X269471313Y-95352766D02*
X269471313Y-95114671D01*
X269471313Y-95114671D02*
X269423694Y-94924195D01*
X269423694Y-94924195D02*
X269376075Y-94828957D01*
X269376075Y-94828957D02*
X269328456Y-94781338D01*
X269328456Y-94781338D02*
X269233218Y-94733719D01*
X269738457Y-93193719D02*
X270214647Y-93193719D01*
X270214647Y-93193719D02*
X270214647Y-92193719D01*
X269405123Y-92669909D02*
X269071790Y-92669909D01*
X268928933Y-93193719D02*
X269405123Y-93193719D01*
X269405123Y-93193719D02*
X269405123Y-92193719D01*
X269405123Y-92193719D02*
X268928933Y-92193719D01*
X268500361Y-93193719D02*
X268500361Y-92193719D01*
X268500361Y-92193719D02*
X268262266Y-92193719D01*
X268262266Y-92193719D02*
X268119409Y-92241338D01*
X268119409Y-92241338D02*
X268024171Y-92336576D01*
X268024171Y-92336576D02*
X267976552Y-92431814D01*
X267976552Y-92431814D02*
X267928933Y-92622290D01*
X267928933Y-92622290D02*
X267928933Y-92765147D01*
X267928933Y-92765147D02*
X267976552Y-92955623D01*
X267976552Y-92955623D02*
X268024171Y-93050861D01*
X268024171Y-93050861D02*
X268119409Y-93146100D01*
X268119409Y-93146100D02*
X268262266Y-93193719D01*
X268262266Y-93193719D02*
X268500361Y-93193719D01*
X270167028Y-121133719D02*
X270167028Y-120133719D01*
X270167028Y-120133719D02*
X269928933Y-120133719D01*
X269928933Y-120133719D02*
X269786076Y-120181338D01*
X269786076Y-120181338D02*
X269690838Y-120276576D01*
X269690838Y-120276576D02*
X269643219Y-120371814D01*
X269643219Y-120371814D02*
X269595600Y-120562290D01*
X269595600Y-120562290D02*
X269595600Y-120705147D01*
X269595600Y-120705147D02*
X269643219Y-120895623D01*
X269643219Y-120895623D02*
X269690838Y-120990861D01*
X269690838Y-120990861D02*
X269786076Y-121086100D01*
X269786076Y-121086100D02*
X269928933Y-121133719D01*
X269928933Y-121133719D02*
X270167028Y-121133719D01*
X269214647Y-120848004D02*
X268738457Y-120848004D01*
X269309885Y-121133719D02*
X268976552Y-120133719D01*
X268976552Y-120133719D02*
X268643219Y-121133719D01*
X268452742Y-120133719D02*
X267881314Y-120133719D01*
X268167028Y-121133719D02*
X268167028Y-120133719D01*
X275788458Y-90648719D02*
X276264648Y-90648719D01*
X276264648Y-90648719D02*
X276264648Y-89648719D01*
X274693219Y-90648719D02*
X274693219Y-89648719D01*
X274264648Y-90648719D02*
X274264648Y-90124909D01*
X274264648Y-90124909D02*
X274312267Y-90029671D01*
X274312267Y-90029671D02*
X274407505Y-89982052D01*
X274407505Y-89982052D02*
X274550362Y-89982052D01*
X274550362Y-89982052D02*
X274645600Y-90029671D01*
X274645600Y-90029671D02*
X274693219Y-90077290D01*
X273359886Y-90648719D02*
X273359886Y-90124909D01*
X273359886Y-90124909D02*
X273407505Y-90029671D01*
X273407505Y-90029671D02*
X273502743Y-89982052D01*
X273502743Y-89982052D02*
X273693219Y-89982052D01*
X273693219Y-89982052D02*
X273788457Y-90029671D01*
X273359886Y-90601100D02*
X273455124Y-90648719D01*
X273455124Y-90648719D02*
X273693219Y-90648719D01*
X273693219Y-90648719D02*
X273788457Y-90601100D01*
X273788457Y-90601100D02*
X273836076Y-90505861D01*
X273836076Y-90505861D02*
X273836076Y-90410623D01*
X273836076Y-90410623D02*
X273788457Y-90315385D01*
X273788457Y-90315385D02*
X273693219Y-90267766D01*
X273693219Y-90267766D02*
X273455124Y-90267766D01*
X273455124Y-90267766D02*
X273359886Y-90220147D01*
X272883695Y-89982052D02*
X272883695Y-90648719D01*
X272883695Y-90077290D02*
X272836076Y-90029671D01*
X272836076Y-90029671D02*
X272740838Y-89982052D01*
X272740838Y-89982052D02*
X272597981Y-89982052D01*
X272597981Y-89982052D02*
X272502743Y-90029671D01*
X272502743Y-90029671D02*
X272455124Y-90124909D01*
X272455124Y-90124909D02*
X272455124Y-90648719D01*
X271550362Y-90648719D02*
X271550362Y-89648719D01*
X271550362Y-90601100D02*
X271645600Y-90648719D01*
X271645600Y-90648719D02*
X271836076Y-90648719D01*
X271836076Y-90648719D02*
X271931314Y-90601100D01*
X271931314Y-90601100D02*
X271978933Y-90553480D01*
X271978933Y-90553480D02*
X272026552Y-90458242D01*
X272026552Y-90458242D02*
X272026552Y-90172528D01*
X272026552Y-90172528D02*
X271978933Y-90077290D01*
X271978933Y-90077290D02*
X271931314Y-90029671D01*
X271931314Y-90029671D02*
X271836076Y-89982052D01*
X271836076Y-89982052D02*
X271645600Y-89982052D01*
X271645600Y-89982052D02*
X271550362Y-90029671D01*
X270312266Y-90648719D02*
X270312266Y-89648719D01*
X270312266Y-90029671D02*
X270217028Y-89982052D01*
X270217028Y-89982052D02*
X270026552Y-89982052D01*
X270026552Y-89982052D02*
X269931314Y-90029671D01*
X269931314Y-90029671D02*
X269883695Y-90077290D01*
X269883695Y-90077290D02*
X269836076Y-90172528D01*
X269836076Y-90172528D02*
X269836076Y-90458242D01*
X269836076Y-90458242D02*
X269883695Y-90553480D01*
X269883695Y-90553480D02*
X269931314Y-90601100D01*
X269931314Y-90601100D02*
X270026552Y-90648719D01*
X270026552Y-90648719D02*
X270217028Y-90648719D01*
X270217028Y-90648719D02*
X270312266Y-90601100D01*
X268978933Y-90648719D02*
X268978933Y-90124909D01*
X268978933Y-90124909D02*
X269026552Y-90029671D01*
X269026552Y-90029671D02*
X269121790Y-89982052D01*
X269121790Y-89982052D02*
X269312266Y-89982052D01*
X269312266Y-89982052D02*
X269407504Y-90029671D01*
X268978933Y-90601100D02*
X269074171Y-90648719D01*
X269074171Y-90648719D02*
X269312266Y-90648719D01*
X269312266Y-90648719D02*
X269407504Y-90601100D01*
X269407504Y-90601100D02*
X269455123Y-90505861D01*
X269455123Y-90505861D02*
X269455123Y-90410623D01*
X269455123Y-90410623D02*
X269407504Y-90315385D01*
X269407504Y-90315385D02*
X269312266Y-90267766D01*
X269312266Y-90267766D02*
X269074171Y-90267766D01*
X269074171Y-90267766D02*
X268978933Y-90220147D01*
X268074171Y-90601100D02*
X268169409Y-90648719D01*
X268169409Y-90648719D02*
X268359885Y-90648719D01*
X268359885Y-90648719D02*
X268455123Y-90601100D01*
X268455123Y-90601100D02*
X268502742Y-90553480D01*
X268502742Y-90553480D02*
X268550361Y-90458242D01*
X268550361Y-90458242D02*
X268550361Y-90172528D01*
X268550361Y-90172528D02*
X268502742Y-90077290D01*
X268502742Y-90077290D02*
X268455123Y-90029671D01*
X268455123Y-90029671D02*
X268359885Y-89982052D01*
X268359885Y-89982052D02*
X268169409Y-89982052D01*
X268169409Y-89982052D02*
X268074171Y-90029671D01*
X267645599Y-90648719D02*
X267645599Y-89648719D01*
X267550361Y-90267766D02*
X267264647Y-90648719D01*
X267264647Y-89982052D02*
X267645599Y-90363004D01*
X266121789Y-90601100D02*
X266026551Y-90648719D01*
X266026551Y-90648719D02*
X265836075Y-90648719D01*
X265836075Y-90648719D02*
X265740837Y-90601100D01*
X265740837Y-90601100D02*
X265693218Y-90505861D01*
X265693218Y-90505861D02*
X265693218Y-90458242D01*
X265693218Y-90458242D02*
X265740837Y-90363004D01*
X265740837Y-90363004D02*
X265836075Y-90315385D01*
X265836075Y-90315385D02*
X265978932Y-90315385D01*
X265978932Y-90315385D02*
X266074170Y-90267766D01*
X266074170Y-90267766D02*
X266121789Y-90172528D01*
X266121789Y-90172528D02*
X266121789Y-90124909D01*
X266121789Y-90124909D02*
X266074170Y-90029671D01*
X266074170Y-90029671D02*
X265978932Y-89982052D01*
X265978932Y-89982052D02*
X265836075Y-89982052D01*
X265836075Y-89982052D02*
X265740837Y-90029671D01*
X265264646Y-90648719D02*
X265264646Y-89982052D01*
X265264646Y-89648719D02*
X265312265Y-89696338D01*
X265312265Y-89696338D02*
X265264646Y-89743957D01*
X265264646Y-89743957D02*
X265217027Y-89696338D01*
X265217027Y-89696338D02*
X265264646Y-89648719D01*
X265264646Y-89648719D02*
X265264646Y-89743957D01*
X264359885Y-90648719D02*
X264359885Y-89648719D01*
X264359885Y-90601100D02*
X264455123Y-90648719D01*
X264455123Y-90648719D02*
X264645599Y-90648719D01*
X264645599Y-90648719D02*
X264740837Y-90601100D01*
X264740837Y-90601100D02*
X264788456Y-90553480D01*
X264788456Y-90553480D02*
X264836075Y-90458242D01*
X264836075Y-90458242D02*
X264836075Y-90172528D01*
X264836075Y-90172528D02*
X264788456Y-90077290D01*
X264788456Y-90077290D02*
X264740837Y-90029671D01*
X264740837Y-90029671D02*
X264645599Y-89982052D01*
X264645599Y-89982052D02*
X264455123Y-89982052D01*
X264455123Y-89982052D02*
X264359885Y-90029671D01*
X263502742Y-90601100D02*
X263597980Y-90648719D01*
X263597980Y-90648719D02*
X263788456Y-90648719D01*
X263788456Y-90648719D02*
X263883694Y-90601100D01*
X263883694Y-90601100D02*
X263931313Y-90505861D01*
X263931313Y-90505861D02*
X263931313Y-90124909D01*
X263931313Y-90124909D02*
X263883694Y-90029671D01*
X263883694Y-90029671D02*
X263788456Y-89982052D01*
X263788456Y-89982052D02*
X263597980Y-89982052D01*
X263597980Y-89982052D02*
X263502742Y-90029671D01*
X263502742Y-90029671D02*
X263455123Y-90124909D01*
X263455123Y-90124909D02*
X263455123Y-90220147D01*
X263455123Y-90220147D02*
X263931313Y-90315385D01*
X261978932Y-91029671D02*
X262026551Y-90982052D01*
X262026551Y-90982052D02*
X262121789Y-90839195D01*
X262121789Y-90839195D02*
X262169408Y-90743957D01*
X262169408Y-90743957D02*
X262217027Y-90601100D01*
X262217027Y-90601100D02*
X262264646Y-90363004D01*
X262264646Y-90363004D02*
X262264646Y-90172528D01*
X262264646Y-90172528D02*
X262217027Y-89934433D01*
X262217027Y-89934433D02*
X262169408Y-89791576D01*
X262169408Y-89791576D02*
X262121789Y-89696338D01*
X262121789Y-89696338D02*
X262026551Y-89553480D01*
X262026551Y-89553480D02*
X261978932Y-89505861D01*
X261597979Y-90648719D02*
X261597979Y-89648719D01*
X261597979Y-89648719D02*
X261264646Y-90363004D01*
X261264646Y-90363004D02*
X260931313Y-89648719D01*
X260931313Y-89648719D02*
X260931313Y-90648719D01*
X260074170Y-89886814D02*
X260074170Y-90648719D01*
X259883694Y-90458242D02*
X260074170Y-90648719D01*
X260074170Y-90648719D02*
X260264646Y-90458242D01*
X259312265Y-91029671D02*
X259264646Y-90982052D01*
X259264646Y-90982052D02*
X259169408Y-90839195D01*
X259169408Y-90839195D02*
X259121789Y-90743957D01*
X259121789Y-90743957D02*
X259074170Y-90601100D01*
X259074170Y-90601100D02*
X259026551Y-90363004D01*
X259026551Y-90363004D02*
X259026551Y-90172528D01*
X259026551Y-90172528D02*
X259074170Y-89934433D01*
X259074170Y-89934433D02*
X259121789Y-89791576D01*
X259121789Y-89791576D02*
X259169408Y-89696338D01*
X259169408Y-89696338D02*
X259264646Y-89553480D01*
X259264646Y-89553480D02*
X259312265Y-89505861D01*
X265772266Y-110878480D02*
X265819885Y-110926100D01*
X265819885Y-110926100D02*
X265962742Y-110973719D01*
X265962742Y-110973719D02*
X266057980Y-110973719D01*
X266057980Y-110973719D02*
X266200837Y-110926100D01*
X266200837Y-110926100D02*
X266296075Y-110830861D01*
X266296075Y-110830861D02*
X266343694Y-110735623D01*
X266343694Y-110735623D02*
X266391313Y-110545147D01*
X266391313Y-110545147D02*
X266391313Y-110402290D01*
X266391313Y-110402290D02*
X266343694Y-110211814D01*
X266343694Y-110211814D02*
X266296075Y-110116576D01*
X266296075Y-110116576D02*
X266200837Y-110021338D01*
X266200837Y-110021338D02*
X266057980Y-109973719D01*
X266057980Y-109973719D02*
X265962742Y-109973719D01*
X265962742Y-109973719D02*
X265819885Y-110021338D01*
X265819885Y-110021338D02*
X265772266Y-110068957D01*
X265438932Y-109973719D02*
X264819885Y-109973719D01*
X264819885Y-109973719D02*
X265153218Y-110354671D01*
X265153218Y-110354671D02*
X265010361Y-110354671D01*
X265010361Y-110354671D02*
X264915123Y-110402290D01*
X264915123Y-110402290D02*
X264867504Y-110449909D01*
X264867504Y-110449909D02*
X264819885Y-110545147D01*
X264819885Y-110545147D02*
X264819885Y-110783242D01*
X264819885Y-110783242D02*
X264867504Y-110878480D01*
X264867504Y-110878480D02*
X264915123Y-110926100D01*
X264915123Y-110926100D02*
X265010361Y-110973719D01*
X265010361Y-110973719D02*
X265296075Y-110973719D01*
X265296075Y-110973719D02*
X265391313Y-110926100D01*
X265391313Y-110926100D02*
X265438932Y-110878480D01*
X265772266Y-115958480D02*
X265819885Y-116006100D01*
X265819885Y-116006100D02*
X265962742Y-116053719D01*
X265962742Y-116053719D02*
X266057980Y-116053719D01*
X266057980Y-116053719D02*
X266200837Y-116006100D01*
X266200837Y-116006100D02*
X266296075Y-115910861D01*
X266296075Y-115910861D02*
X266343694Y-115815623D01*
X266343694Y-115815623D02*
X266391313Y-115625147D01*
X266391313Y-115625147D02*
X266391313Y-115482290D01*
X266391313Y-115482290D02*
X266343694Y-115291814D01*
X266343694Y-115291814D02*
X266296075Y-115196576D01*
X266296075Y-115196576D02*
X266200837Y-115101338D01*
X266200837Y-115101338D02*
X266057980Y-115053719D01*
X266057980Y-115053719D02*
X265962742Y-115053719D01*
X265962742Y-115053719D02*
X265819885Y-115101338D01*
X265819885Y-115101338D02*
X265772266Y-115148957D01*
X264867504Y-115053719D02*
X265343694Y-115053719D01*
X265343694Y-115053719D02*
X265391313Y-115529909D01*
X265391313Y-115529909D02*
X265343694Y-115482290D01*
X265343694Y-115482290D02*
X265248456Y-115434671D01*
X265248456Y-115434671D02*
X265010361Y-115434671D01*
X265010361Y-115434671D02*
X264915123Y-115482290D01*
X264915123Y-115482290D02*
X264867504Y-115529909D01*
X264867504Y-115529909D02*
X264819885Y-115625147D01*
X264819885Y-115625147D02*
X264819885Y-115863242D01*
X264819885Y-115863242D02*
X264867504Y-115958480D01*
X264867504Y-115958480D02*
X264915123Y-116006100D01*
X264915123Y-116006100D02*
X265010361Y-116053719D01*
X265010361Y-116053719D02*
X265248456Y-116053719D01*
X265248456Y-116053719D02*
X265343694Y-116006100D01*
X265343694Y-116006100D02*
X265391313Y-115958480D01*
X266886076Y-93193719D02*
X267219409Y-92717528D01*
X267457504Y-93193719D02*
X267457504Y-92193719D01*
X267457504Y-92193719D02*
X267076552Y-92193719D01*
X267076552Y-92193719D02*
X266981314Y-92241338D01*
X266981314Y-92241338D02*
X266933695Y-92288957D01*
X266933695Y-92288957D02*
X266886076Y-92384195D01*
X266886076Y-92384195D02*
X266886076Y-92527052D01*
X266886076Y-92527052D02*
X266933695Y-92622290D01*
X266933695Y-92622290D02*
X266981314Y-92669909D01*
X266981314Y-92669909D02*
X267076552Y-92717528D01*
X267076552Y-92717528D02*
X267457504Y-92717528D01*
X266505123Y-92908004D02*
X266028933Y-92908004D01*
X266600361Y-93193719D02*
X266267028Y-92193719D01*
X266267028Y-92193719D02*
X265933695Y-93193719D01*
X265695599Y-92193719D02*
X265457504Y-93193719D01*
X265457504Y-93193719D02*
X265267028Y-92479433D01*
X265267028Y-92479433D02*
X265076552Y-93193719D01*
X265076552Y-93193719D02*
X264838457Y-92193719D01*
X265772266Y-103258480D02*
X265819885Y-103306100D01*
X265819885Y-103306100D02*
X265962742Y-103353719D01*
X265962742Y-103353719D02*
X266057980Y-103353719D01*
X266057980Y-103353719D02*
X266200837Y-103306100D01*
X266200837Y-103306100D02*
X266296075Y-103210861D01*
X266296075Y-103210861D02*
X266343694Y-103115623D01*
X266343694Y-103115623D02*
X266391313Y-102925147D01*
X266391313Y-102925147D02*
X266391313Y-102782290D01*
X266391313Y-102782290D02*
X266343694Y-102591814D01*
X266343694Y-102591814D02*
X266296075Y-102496576D01*
X266296075Y-102496576D02*
X266200837Y-102401338D01*
X266200837Y-102401338D02*
X266057980Y-102353719D01*
X266057980Y-102353719D02*
X265962742Y-102353719D01*
X265962742Y-102353719D02*
X265819885Y-102401338D01*
X265819885Y-102401338D02*
X265772266Y-102448957D01*
X265153218Y-102353719D02*
X265057980Y-102353719D01*
X265057980Y-102353719D02*
X264962742Y-102401338D01*
X264962742Y-102401338D02*
X264915123Y-102448957D01*
X264915123Y-102448957D02*
X264867504Y-102544195D01*
X264867504Y-102544195D02*
X264819885Y-102734671D01*
X264819885Y-102734671D02*
X264819885Y-102972766D01*
X264819885Y-102972766D02*
X264867504Y-103163242D01*
X264867504Y-103163242D02*
X264915123Y-103258480D01*
X264915123Y-103258480D02*
X264962742Y-103306100D01*
X264962742Y-103306100D02*
X265057980Y-103353719D01*
X265057980Y-103353719D02*
X265153218Y-103353719D01*
X265153218Y-103353719D02*
X265248456Y-103306100D01*
X265248456Y-103306100D02*
X265296075Y-103258480D01*
X265296075Y-103258480D02*
X265343694Y-103163242D01*
X265343694Y-103163242D02*
X265391313Y-102972766D01*
X265391313Y-102972766D02*
X265391313Y-102734671D01*
X265391313Y-102734671D02*
X265343694Y-102544195D01*
X265343694Y-102544195D02*
X265296075Y-102448957D01*
X265296075Y-102448957D02*
X265248456Y-102401338D01*
X265248456Y-102401338D02*
X265153218Y-102353719D01*
X266957504Y-94781338D02*
X267052742Y-94733719D01*
X267052742Y-94733719D02*
X267195599Y-94733719D01*
X267195599Y-94733719D02*
X267338456Y-94781338D01*
X267338456Y-94781338D02*
X267433694Y-94876576D01*
X267433694Y-94876576D02*
X267481313Y-94971814D01*
X267481313Y-94971814D02*
X267528932Y-95162290D01*
X267528932Y-95162290D02*
X267528932Y-95305147D01*
X267528932Y-95305147D02*
X267481313Y-95495623D01*
X267481313Y-95495623D02*
X267433694Y-95590861D01*
X267433694Y-95590861D02*
X267338456Y-95686100D01*
X267338456Y-95686100D02*
X267195599Y-95733719D01*
X267195599Y-95733719D02*
X267100361Y-95733719D01*
X267100361Y-95733719D02*
X266957504Y-95686100D01*
X266957504Y-95686100D02*
X266909885Y-95638480D01*
X266909885Y-95638480D02*
X266909885Y-95305147D01*
X266909885Y-95305147D02*
X267100361Y-95305147D01*
X266481313Y-95733719D02*
X266481313Y-94733719D01*
X266481313Y-94733719D02*
X265909885Y-95733719D01*
X265909885Y-95733719D02*
X265909885Y-94733719D01*
X265433694Y-95733719D02*
X265433694Y-94733719D01*
X265433694Y-94733719D02*
X265195599Y-94733719D01*
X265195599Y-94733719D02*
X265052742Y-94781338D01*
X265052742Y-94781338D02*
X264957504Y-94876576D01*
X264957504Y-94876576D02*
X264909885Y-94971814D01*
X264909885Y-94971814D02*
X264862266Y-95162290D01*
X264862266Y-95162290D02*
X264862266Y-95305147D01*
X264862266Y-95305147D02*
X264909885Y-95495623D01*
X264909885Y-95495623D02*
X264957504Y-95590861D01*
X264957504Y-95590861D02*
X265052742Y-95686100D01*
X265052742Y-95686100D02*
X265195599Y-95733719D01*
X265195599Y-95733719D02*
X265433694Y-95733719D01*
X265772266Y-108338480D02*
X265819885Y-108386100D01*
X265819885Y-108386100D02*
X265962742Y-108433719D01*
X265962742Y-108433719D02*
X266057980Y-108433719D01*
X266057980Y-108433719D02*
X266200837Y-108386100D01*
X266200837Y-108386100D02*
X266296075Y-108290861D01*
X266296075Y-108290861D02*
X266343694Y-108195623D01*
X266343694Y-108195623D02*
X266391313Y-108005147D01*
X266391313Y-108005147D02*
X266391313Y-107862290D01*
X266391313Y-107862290D02*
X266343694Y-107671814D01*
X266343694Y-107671814D02*
X266296075Y-107576576D01*
X266296075Y-107576576D02*
X266200837Y-107481338D01*
X266200837Y-107481338D02*
X266057980Y-107433719D01*
X266057980Y-107433719D02*
X265962742Y-107433719D01*
X265962742Y-107433719D02*
X265819885Y-107481338D01*
X265819885Y-107481338D02*
X265772266Y-107528957D01*
X265391313Y-107528957D02*
X265343694Y-107481338D01*
X265343694Y-107481338D02*
X265248456Y-107433719D01*
X265248456Y-107433719D02*
X265010361Y-107433719D01*
X265010361Y-107433719D02*
X264915123Y-107481338D01*
X264915123Y-107481338D02*
X264867504Y-107528957D01*
X264867504Y-107528957D02*
X264819885Y-107624195D01*
X264819885Y-107624195D02*
X264819885Y-107719433D01*
X264819885Y-107719433D02*
X264867504Y-107862290D01*
X264867504Y-107862290D02*
X265438932Y-108433719D01*
X265438932Y-108433719D02*
X264819885Y-108433719D01*
X270303427Y-103353719D02*
X270303427Y-102353719D01*
X270303427Y-102353719D02*
X269970094Y-103068004D01*
X269970094Y-103068004D02*
X269636761Y-102353719D01*
X269636761Y-102353719D02*
X269636761Y-103353719D01*
X268970094Y-102353719D02*
X268779618Y-102353719D01*
X268779618Y-102353719D02*
X268684380Y-102401338D01*
X268684380Y-102401338D02*
X268589142Y-102496576D01*
X268589142Y-102496576D02*
X268541523Y-102687052D01*
X268541523Y-102687052D02*
X268541523Y-103020385D01*
X268541523Y-103020385D02*
X268589142Y-103210861D01*
X268589142Y-103210861D02*
X268684380Y-103306100D01*
X268684380Y-103306100D02*
X268779618Y-103353719D01*
X268779618Y-103353719D02*
X268970094Y-103353719D01*
X268970094Y-103353719D02*
X269065332Y-103306100D01*
X269065332Y-103306100D02*
X269160570Y-103210861D01*
X269160570Y-103210861D02*
X269208189Y-103020385D01*
X269208189Y-103020385D02*
X269208189Y-102687052D01*
X269208189Y-102687052D02*
X269160570Y-102496576D01*
X269160570Y-102496576D02*
X269065332Y-102401338D01*
X269065332Y-102401338D02*
X268970094Y-102353719D01*
X268160570Y-103306100D02*
X268017713Y-103353719D01*
X268017713Y-103353719D02*
X267779618Y-103353719D01*
X267779618Y-103353719D02*
X267684380Y-103306100D01*
X267684380Y-103306100D02*
X267636761Y-103258480D01*
X267636761Y-103258480D02*
X267589142Y-103163242D01*
X267589142Y-103163242D02*
X267589142Y-103068004D01*
X267589142Y-103068004D02*
X267636761Y-102972766D01*
X267636761Y-102972766D02*
X267684380Y-102925147D01*
X267684380Y-102925147D02*
X267779618Y-102877528D01*
X267779618Y-102877528D02*
X267970094Y-102829909D01*
X267970094Y-102829909D02*
X268065332Y-102782290D01*
X268065332Y-102782290D02*
X268112951Y-102734671D01*
X268112951Y-102734671D02*
X268160570Y-102639433D01*
X268160570Y-102639433D02*
X268160570Y-102544195D01*
X268160570Y-102544195D02*
X268112951Y-102448957D01*
X268112951Y-102448957D02*
X268065332Y-102401338D01*
X268065332Y-102401338D02*
X267970094Y-102353719D01*
X267970094Y-102353719D02*
X267731999Y-102353719D01*
X267731999Y-102353719D02*
X267589142Y-102401338D01*
X267160570Y-103353719D02*
X267160570Y-102353719D01*
X269852266Y-116053719D02*
X270185599Y-115577528D01*
X270423694Y-116053719D02*
X270423694Y-115053719D01*
X270423694Y-115053719D02*
X270042742Y-115053719D01*
X270042742Y-115053719D02*
X269947504Y-115101338D01*
X269947504Y-115101338D02*
X269899885Y-115148957D01*
X269899885Y-115148957D02*
X269852266Y-115244195D01*
X269852266Y-115244195D02*
X269852266Y-115387052D01*
X269852266Y-115387052D02*
X269899885Y-115482290D01*
X269899885Y-115482290D02*
X269947504Y-115529909D01*
X269947504Y-115529909D02*
X270042742Y-115577528D01*
X270042742Y-115577528D02*
X270423694Y-115577528D01*
X269471313Y-115148957D02*
X269423694Y-115101338D01*
X269423694Y-115101338D02*
X269328456Y-115053719D01*
X269328456Y-115053719D02*
X269090361Y-115053719D01*
X269090361Y-115053719D02*
X268995123Y-115101338D01*
X268995123Y-115101338D02*
X268947504Y-115148957D01*
X268947504Y-115148957D02*
X268899885Y-115244195D01*
X268899885Y-115244195D02*
X268899885Y-115339433D01*
X268899885Y-115339433D02*
X268947504Y-115482290D01*
X268947504Y-115482290D02*
X269518932Y-116053719D01*
X269518932Y-116053719D02*
X268899885Y-116053719D01*
X267409885Y-121133719D02*
X267409885Y-120133719D01*
X267409885Y-120133719D02*
X267028933Y-120133719D01*
X267028933Y-120133719D02*
X266933695Y-120181338D01*
X266933695Y-120181338D02*
X266886076Y-120228957D01*
X266886076Y-120228957D02*
X266838457Y-120324195D01*
X266838457Y-120324195D02*
X266838457Y-120467052D01*
X266838457Y-120467052D02*
X266886076Y-120562290D01*
X266886076Y-120562290D02*
X266933695Y-120609909D01*
X266933695Y-120609909D02*
X267028933Y-120657528D01*
X267028933Y-120657528D02*
X267409885Y-120657528D01*
X265886076Y-121133719D02*
X266457504Y-121133719D01*
X266171790Y-121133719D02*
X266171790Y-120133719D01*
X266171790Y-120133719D02*
X266267028Y-120276576D01*
X266267028Y-120276576D02*
X266362266Y-120371814D01*
X266362266Y-120371814D02*
X266457504Y-120419433D01*
X265267028Y-120133719D02*
X265171790Y-120133719D01*
X265171790Y-120133719D02*
X265076552Y-120181338D01*
X265076552Y-120181338D02*
X265028933Y-120228957D01*
X265028933Y-120228957D02*
X264981314Y-120324195D01*
X264981314Y-120324195D02*
X264933695Y-120514671D01*
X264933695Y-120514671D02*
X264933695Y-120752766D01*
X264933695Y-120752766D02*
X264981314Y-120943242D01*
X264981314Y-120943242D02*
X265028933Y-121038480D01*
X265028933Y-121038480D02*
X265076552Y-121086100D01*
X265076552Y-121086100D02*
X265171790Y-121133719D01*
X265171790Y-121133719D02*
X265267028Y-121133719D01*
X265267028Y-121133719D02*
X265362266Y-121086100D01*
X265362266Y-121086100D02*
X265409885Y-121038480D01*
X265409885Y-121038480D02*
X265457504Y-120943242D01*
X265457504Y-120943242D02*
X265505123Y-120752766D01*
X265505123Y-120752766D02*
X265505123Y-120514671D01*
X265505123Y-120514671D02*
X265457504Y-120324195D01*
X265457504Y-120324195D02*
X265409885Y-120228957D01*
X265409885Y-120228957D02*
X265362266Y-120181338D01*
X265362266Y-120181338D02*
X265267028Y-120133719D01*
X269857504Y-99861338D02*
X269952742Y-99813719D01*
X269952742Y-99813719D02*
X270095599Y-99813719D01*
X270095599Y-99813719D02*
X270238456Y-99861338D01*
X270238456Y-99861338D02*
X270333694Y-99956576D01*
X270333694Y-99956576D02*
X270381313Y-100051814D01*
X270381313Y-100051814D02*
X270428932Y-100242290D01*
X270428932Y-100242290D02*
X270428932Y-100385147D01*
X270428932Y-100385147D02*
X270381313Y-100575623D01*
X270381313Y-100575623D02*
X270333694Y-100670861D01*
X270333694Y-100670861D02*
X270238456Y-100766100D01*
X270238456Y-100766100D02*
X270095599Y-100813719D01*
X270095599Y-100813719D02*
X270000361Y-100813719D01*
X270000361Y-100813719D02*
X269857504Y-100766100D01*
X269857504Y-100766100D02*
X269809885Y-100718480D01*
X269809885Y-100718480D02*
X269809885Y-100385147D01*
X269809885Y-100385147D02*
X270000361Y-100385147D01*
X269381313Y-100813719D02*
X269381313Y-99813719D01*
X269381313Y-99813719D02*
X268809885Y-100813719D01*
X268809885Y-100813719D02*
X268809885Y-99813719D01*
X268333694Y-100813719D02*
X268333694Y-99813719D01*
X268333694Y-99813719D02*
X268095599Y-99813719D01*
X268095599Y-99813719D02*
X267952742Y-99861338D01*
X267952742Y-99861338D02*
X267857504Y-99956576D01*
X267857504Y-99956576D02*
X267809885Y-100051814D01*
X267809885Y-100051814D02*
X267762266Y-100242290D01*
X267762266Y-100242290D02*
X267762266Y-100385147D01*
X267762266Y-100385147D02*
X267809885Y-100575623D01*
X267809885Y-100575623D02*
X267857504Y-100670861D01*
X267857504Y-100670861D02*
X267952742Y-100766100D01*
X267952742Y-100766100D02*
X268095599Y-100813719D01*
X268095599Y-100813719D02*
X268333694Y-100813719D01*
X267409885Y-118593719D02*
X267409885Y-117593719D01*
X267409885Y-117593719D02*
X267028933Y-117593719D01*
X267028933Y-117593719D02*
X266933695Y-117641338D01*
X266933695Y-117641338D02*
X266886076Y-117688957D01*
X266886076Y-117688957D02*
X266838457Y-117784195D01*
X266838457Y-117784195D02*
X266838457Y-117927052D01*
X266838457Y-117927052D02*
X266886076Y-118022290D01*
X266886076Y-118022290D02*
X266933695Y-118069909D01*
X266933695Y-118069909D02*
X267028933Y-118117528D01*
X267028933Y-118117528D02*
X267409885Y-118117528D01*
X265886076Y-118593719D02*
X266457504Y-118593719D01*
X266171790Y-118593719D02*
X266171790Y-117593719D01*
X266171790Y-117593719D02*
X266267028Y-117736576D01*
X266267028Y-117736576D02*
X266362266Y-117831814D01*
X266362266Y-117831814D02*
X266457504Y-117879433D01*
X265028933Y-117593719D02*
X265219409Y-117593719D01*
X265219409Y-117593719D02*
X265314647Y-117641338D01*
X265314647Y-117641338D02*
X265362266Y-117688957D01*
X265362266Y-117688957D02*
X265457504Y-117831814D01*
X265457504Y-117831814D02*
X265505123Y-118022290D01*
X265505123Y-118022290D02*
X265505123Y-118403242D01*
X265505123Y-118403242D02*
X265457504Y-118498480D01*
X265457504Y-118498480D02*
X265409885Y-118546100D01*
X265409885Y-118546100D02*
X265314647Y-118593719D01*
X265314647Y-118593719D02*
X265124171Y-118593719D01*
X265124171Y-118593719D02*
X265028933Y-118546100D01*
X265028933Y-118546100D02*
X264981314Y-118498480D01*
X264981314Y-118498480D02*
X264933695Y-118403242D01*
X264933695Y-118403242D02*
X264933695Y-118165147D01*
X264933695Y-118165147D02*
X264981314Y-118069909D01*
X264981314Y-118069909D02*
X265028933Y-118022290D01*
X265028933Y-118022290D02*
X265124171Y-117974671D01*
X265124171Y-117974671D02*
X265314647Y-117974671D01*
X265314647Y-117974671D02*
X265409885Y-118022290D01*
X265409885Y-118022290D02*
X265457504Y-118069909D01*
X265457504Y-118069909D02*
X265505123Y-118165147D01*
X269852266Y-108338480D02*
X269899885Y-108386100D01*
X269899885Y-108386100D02*
X270042742Y-108433719D01*
X270042742Y-108433719D02*
X270137980Y-108433719D01*
X270137980Y-108433719D02*
X270280837Y-108386100D01*
X270280837Y-108386100D02*
X270376075Y-108290861D01*
X270376075Y-108290861D02*
X270423694Y-108195623D01*
X270423694Y-108195623D02*
X270471313Y-108005147D01*
X270471313Y-108005147D02*
X270471313Y-107862290D01*
X270471313Y-107862290D02*
X270423694Y-107671814D01*
X270423694Y-107671814D02*
X270376075Y-107576576D01*
X270376075Y-107576576D02*
X270280837Y-107481338D01*
X270280837Y-107481338D02*
X270137980Y-107433719D01*
X270137980Y-107433719D02*
X270042742Y-107433719D01*
X270042742Y-107433719D02*
X269899885Y-107481338D01*
X269899885Y-107481338D02*
X269852266Y-107528957D01*
X269471313Y-108386100D02*
X269328456Y-108433719D01*
X269328456Y-108433719D02*
X269090361Y-108433719D01*
X269090361Y-108433719D02*
X268995123Y-108386100D01*
X268995123Y-108386100D02*
X268947504Y-108338480D01*
X268947504Y-108338480D02*
X268899885Y-108243242D01*
X268899885Y-108243242D02*
X268899885Y-108148004D01*
X268899885Y-108148004D02*
X268947504Y-108052766D01*
X268947504Y-108052766D02*
X268995123Y-108005147D01*
X268995123Y-108005147D02*
X269090361Y-107957528D01*
X269090361Y-107957528D02*
X269280837Y-107909909D01*
X269280837Y-107909909D02*
X269376075Y-107862290D01*
X269376075Y-107862290D02*
X269423694Y-107814671D01*
X269423694Y-107814671D02*
X269471313Y-107719433D01*
X269471313Y-107719433D02*
X269471313Y-107624195D01*
X269471313Y-107624195D02*
X269423694Y-107528957D01*
X269423694Y-107528957D02*
X269376075Y-107481338D01*
X269376075Y-107481338D02*
X269280837Y-107433719D01*
X269280837Y-107433719D02*
X269042742Y-107433719D01*
X269042742Y-107433719D02*
X268899885Y-107481338D01*
X269852266Y-110973719D02*
X270185599Y-110497528D01*
X270423694Y-110973719D02*
X270423694Y-109973719D01*
X270423694Y-109973719D02*
X270042742Y-109973719D01*
X270042742Y-109973719D02*
X269947504Y-110021338D01*
X269947504Y-110021338D02*
X269899885Y-110068957D01*
X269899885Y-110068957D02*
X269852266Y-110164195D01*
X269852266Y-110164195D02*
X269852266Y-110307052D01*
X269852266Y-110307052D02*
X269899885Y-110402290D01*
X269899885Y-110402290D02*
X269947504Y-110449909D01*
X269947504Y-110449909D02*
X270042742Y-110497528D01*
X270042742Y-110497528D02*
X270423694Y-110497528D01*
X269233218Y-109973719D02*
X269137980Y-109973719D01*
X269137980Y-109973719D02*
X269042742Y-110021338D01*
X269042742Y-110021338D02*
X268995123Y-110068957D01*
X268995123Y-110068957D02*
X268947504Y-110164195D01*
X268947504Y-110164195D02*
X268899885Y-110354671D01*
X268899885Y-110354671D02*
X268899885Y-110592766D01*
X268899885Y-110592766D02*
X268947504Y-110783242D01*
X268947504Y-110783242D02*
X268995123Y-110878480D01*
X268995123Y-110878480D02*
X269042742Y-110926100D01*
X269042742Y-110926100D02*
X269137980Y-110973719D01*
X269137980Y-110973719D02*
X269233218Y-110973719D01*
X269233218Y-110973719D02*
X269328456Y-110926100D01*
X269328456Y-110926100D02*
X269376075Y-110878480D01*
X269376075Y-110878480D02*
X269423694Y-110783242D01*
X269423694Y-110783242D02*
X269471313Y-110592766D01*
X269471313Y-110592766D02*
X269471313Y-110354671D01*
X269471313Y-110354671D02*
X269423694Y-110164195D01*
X269423694Y-110164195D02*
X269376075Y-110068957D01*
X269376075Y-110068957D02*
X269328456Y-110021338D01*
X269328456Y-110021338D02*
X269233218Y-109973719D01*
X270381313Y-105846100D02*
X270238456Y-105893719D01*
X270238456Y-105893719D02*
X270000361Y-105893719D01*
X270000361Y-105893719D02*
X269905123Y-105846100D01*
X269905123Y-105846100D02*
X269857504Y-105798480D01*
X269857504Y-105798480D02*
X269809885Y-105703242D01*
X269809885Y-105703242D02*
X269809885Y-105608004D01*
X269809885Y-105608004D02*
X269857504Y-105512766D01*
X269857504Y-105512766D02*
X269905123Y-105465147D01*
X269905123Y-105465147D02*
X270000361Y-105417528D01*
X270000361Y-105417528D02*
X270190837Y-105369909D01*
X270190837Y-105369909D02*
X270286075Y-105322290D01*
X270286075Y-105322290D02*
X270333694Y-105274671D01*
X270333694Y-105274671D02*
X270381313Y-105179433D01*
X270381313Y-105179433D02*
X270381313Y-105084195D01*
X270381313Y-105084195D02*
X270333694Y-104988957D01*
X270333694Y-104988957D02*
X270286075Y-104941338D01*
X270286075Y-104941338D02*
X270190837Y-104893719D01*
X270190837Y-104893719D02*
X269952742Y-104893719D01*
X269952742Y-104893719D02*
X269809885Y-104941338D01*
X268809885Y-105798480D02*
X268857504Y-105846100D01*
X268857504Y-105846100D02*
X269000361Y-105893719D01*
X269000361Y-105893719D02*
X269095599Y-105893719D01*
X269095599Y-105893719D02*
X269238456Y-105846100D01*
X269238456Y-105846100D02*
X269333694Y-105750861D01*
X269333694Y-105750861D02*
X269381313Y-105655623D01*
X269381313Y-105655623D02*
X269428932Y-105465147D01*
X269428932Y-105465147D02*
X269428932Y-105322290D01*
X269428932Y-105322290D02*
X269381313Y-105131814D01*
X269381313Y-105131814D02*
X269333694Y-105036576D01*
X269333694Y-105036576D02*
X269238456Y-104941338D01*
X269238456Y-104941338D02*
X269095599Y-104893719D01*
X269095599Y-104893719D02*
X269000361Y-104893719D01*
X269000361Y-104893719D02*
X268857504Y-104941338D01*
X268857504Y-104941338D02*
X268809885Y-104988957D01*
X268381313Y-105893719D02*
X268381313Y-104893719D01*
X267809885Y-105893719D02*
X268238456Y-105322290D01*
X267809885Y-104893719D02*
X268381313Y-105465147D01*
X269857504Y-97321338D02*
X269952742Y-97273719D01*
X269952742Y-97273719D02*
X270095599Y-97273719D01*
X270095599Y-97273719D02*
X270238456Y-97321338D01*
X270238456Y-97321338D02*
X270333694Y-97416576D01*
X270333694Y-97416576D02*
X270381313Y-97511814D01*
X270381313Y-97511814D02*
X270428932Y-97702290D01*
X270428932Y-97702290D02*
X270428932Y-97845147D01*
X270428932Y-97845147D02*
X270381313Y-98035623D01*
X270381313Y-98035623D02*
X270333694Y-98130861D01*
X270333694Y-98130861D02*
X270238456Y-98226100D01*
X270238456Y-98226100D02*
X270095599Y-98273719D01*
X270095599Y-98273719D02*
X270000361Y-98273719D01*
X270000361Y-98273719D02*
X269857504Y-98226100D01*
X269857504Y-98226100D02*
X269809885Y-98178480D01*
X269809885Y-98178480D02*
X269809885Y-97845147D01*
X269809885Y-97845147D02*
X270000361Y-97845147D01*
X269381313Y-98273719D02*
X269381313Y-97273719D01*
X269381313Y-97273719D02*
X268809885Y-98273719D01*
X268809885Y-98273719D02*
X268809885Y-97273719D01*
X268333694Y-98273719D02*
X268333694Y-97273719D01*
X268333694Y-97273719D02*
X268095599Y-97273719D01*
X268095599Y-97273719D02*
X267952742Y-97321338D01*
X267952742Y-97321338D02*
X267857504Y-97416576D01*
X267857504Y-97416576D02*
X267809885Y-97511814D01*
X267809885Y-97511814D02*
X267762266Y-97702290D01*
X267762266Y-97702290D02*
X267762266Y-97845147D01*
X267762266Y-97845147D02*
X267809885Y-98035623D01*
X267809885Y-98035623D02*
X267857504Y-98130861D01*
X267857504Y-98130861D02*
X267952742Y-98226100D01*
X267952742Y-98226100D02*
X268095599Y-98273719D01*
X268095599Y-98273719D02*
X268333694Y-98273719D01*
X267528932Y-99813719D02*
X267195599Y-100813719D01*
X267195599Y-100813719D02*
X266862266Y-99813719D01*
X265957504Y-100718480D02*
X266005123Y-100766100D01*
X266005123Y-100766100D02*
X266147980Y-100813719D01*
X266147980Y-100813719D02*
X266243218Y-100813719D01*
X266243218Y-100813719D02*
X266386075Y-100766100D01*
X266386075Y-100766100D02*
X266481313Y-100670861D01*
X266481313Y-100670861D02*
X266528932Y-100575623D01*
X266528932Y-100575623D02*
X266576551Y-100385147D01*
X266576551Y-100385147D02*
X266576551Y-100242290D01*
X266576551Y-100242290D02*
X266528932Y-100051814D01*
X266528932Y-100051814D02*
X266481313Y-99956576D01*
X266481313Y-99956576D02*
X266386075Y-99861338D01*
X266386075Y-99861338D02*
X266243218Y-99813719D01*
X266243218Y-99813719D02*
X266147980Y-99813719D01*
X266147980Y-99813719D02*
X266005123Y-99861338D01*
X266005123Y-99861338D02*
X265957504Y-99908957D01*
X264957504Y-100718480D02*
X265005123Y-100766100D01*
X265005123Y-100766100D02*
X265147980Y-100813719D01*
X265147980Y-100813719D02*
X265243218Y-100813719D01*
X265243218Y-100813719D02*
X265386075Y-100766100D01*
X265386075Y-100766100D02*
X265481313Y-100670861D01*
X265481313Y-100670861D02*
X265528932Y-100575623D01*
X265528932Y-100575623D02*
X265576551Y-100385147D01*
X265576551Y-100385147D02*
X265576551Y-100242290D01*
X265576551Y-100242290D02*
X265528932Y-100051814D01*
X265528932Y-100051814D02*
X265481313Y-99956576D01*
X265481313Y-99956576D02*
X265386075Y-99861338D01*
X265386075Y-99861338D02*
X265243218Y-99813719D01*
X265243218Y-99813719D02*
X265147980Y-99813719D01*
X265147980Y-99813719D02*
X265005123Y-99861338D01*
X265005123Y-99861338D02*
X264957504Y-99908957D01*
X269852266Y-113513719D02*
X270185599Y-113037528D01*
X270423694Y-113513719D02*
X270423694Y-112513719D01*
X270423694Y-112513719D02*
X270042742Y-112513719D01*
X270042742Y-112513719D02*
X269947504Y-112561338D01*
X269947504Y-112561338D02*
X269899885Y-112608957D01*
X269899885Y-112608957D02*
X269852266Y-112704195D01*
X269852266Y-112704195D02*
X269852266Y-112847052D01*
X269852266Y-112847052D02*
X269899885Y-112942290D01*
X269899885Y-112942290D02*
X269947504Y-112989909D01*
X269947504Y-112989909D02*
X270042742Y-113037528D01*
X270042742Y-113037528D02*
X270423694Y-113037528D01*
X268899885Y-113513719D02*
X269471313Y-113513719D01*
X269185599Y-113513719D02*
X269185599Y-112513719D01*
X269185599Y-112513719D02*
X269280837Y-112656576D01*
X269280837Y-112656576D02*
X269376075Y-112751814D01*
X269376075Y-112751814D02*
X269471313Y-112799433D01*
X266743219Y-98273719D02*
X267076552Y-97797528D01*
X267314647Y-98273719D02*
X267314647Y-97273719D01*
X267314647Y-97273719D02*
X266933695Y-97273719D01*
X266933695Y-97273719D02*
X266838457Y-97321338D01*
X266838457Y-97321338D02*
X266790838Y-97368957D01*
X266790838Y-97368957D02*
X266743219Y-97464195D01*
X266743219Y-97464195D02*
X266743219Y-97607052D01*
X266743219Y-97607052D02*
X266790838Y-97702290D01*
X266790838Y-97702290D02*
X266838457Y-97749909D01*
X266838457Y-97749909D02*
X266933695Y-97797528D01*
X266933695Y-97797528D02*
X267314647Y-97797528D01*
X266362266Y-98226100D02*
X266219409Y-98273719D01*
X266219409Y-98273719D02*
X265981314Y-98273719D01*
X265981314Y-98273719D02*
X265886076Y-98226100D01*
X265886076Y-98226100D02*
X265838457Y-98178480D01*
X265838457Y-98178480D02*
X265790838Y-98083242D01*
X265790838Y-98083242D02*
X265790838Y-97988004D01*
X265790838Y-97988004D02*
X265838457Y-97892766D01*
X265838457Y-97892766D02*
X265886076Y-97845147D01*
X265886076Y-97845147D02*
X265981314Y-97797528D01*
X265981314Y-97797528D02*
X266171790Y-97749909D01*
X266171790Y-97749909D02*
X266267028Y-97702290D01*
X266267028Y-97702290D02*
X266314647Y-97654671D01*
X266314647Y-97654671D02*
X266362266Y-97559433D01*
X266362266Y-97559433D02*
X266362266Y-97464195D01*
X266362266Y-97464195D02*
X266314647Y-97368957D01*
X266314647Y-97368957D02*
X266267028Y-97321338D01*
X266267028Y-97321338D02*
X266171790Y-97273719D01*
X266171790Y-97273719D02*
X265933695Y-97273719D01*
X265933695Y-97273719D02*
X265790838Y-97321338D01*
X265505123Y-97273719D02*
X264933695Y-97273719D01*
X265219409Y-98273719D02*
X265219409Y-97273719D01*
X269852266Y-118593719D02*
X270185599Y-118117528D01*
X270423694Y-118593719D02*
X270423694Y-117593719D01*
X270423694Y-117593719D02*
X270042742Y-117593719D01*
X270042742Y-117593719D02*
X269947504Y-117641338D01*
X269947504Y-117641338D02*
X269899885Y-117688957D01*
X269899885Y-117688957D02*
X269852266Y-117784195D01*
X269852266Y-117784195D02*
X269852266Y-117927052D01*
X269852266Y-117927052D02*
X269899885Y-118022290D01*
X269899885Y-118022290D02*
X269947504Y-118069909D01*
X269947504Y-118069909D02*
X270042742Y-118117528D01*
X270042742Y-118117528D02*
X270423694Y-118117528D01*
X269518932Y-117593719D02*
X268899885Y-117593719D01*
X268899885Y-117593719D02*
X269233218Y-117974671D01*
X269233218Y-117974671D02*
X269090361Y-117974671D01*
X269090361Y-117974671D02*
X268995123Y-118022290D01*
X268995123Y-118022290D02*
X268947504Y-118069909D01*
X268947504Y-118069909D02*
X268899885Y-118165147D01*
X268899885Y-118165147D02*
X268899885Y-118403242D01*
X268899885Y-118403242D02*
X268947504Y-118498480D01*
X268947504Y-118498480D02*
X268995123Y-118546100D01*
X268995123Y-118546100D02*
X269090361Y-118593719D01*
X269090361Y-118593719D02*
X269376075Y-118593719D01*
X269376075Y-118593719D02*
X269471313Y-118546100D01*
X269471313Y-118546100D02*
X269518932Y-118498480D01*
X265772266Y-113418480D02*
X265819885Y-113466100D01*
X265819885Y-113466100D02*
X265962742Y-113513719D01*
X265962742Y-113513719D02*
X266057980Y-113513719D01*
X266057980Y-113513719D02*
X266200837Y-113466100D01*
X266200837Y-113466100D02*
X266296075Y-113370861D01*
X266296075Y-113370861D02*
X266343694Y-113275623D01*
X266343694Y-113275623D02*
X266391313Y-113085147D01*
X266391313Y-113085147D02*
X266391313Y-112942290D01*
X266391313Y-112942290D02*
X266343694Y-112751814D01*
X266343694Y-112751814D02*
X266296075Y-112656576D01*
X266296075Y-112656576D02*
X266200837Y-112561338D01*
X266200837Y-112561338D02*
X266057980Y-112513719D01*
X266057980Y-112513719D02*
X265962742Y-112513719D01*
X265962742Y-112513719D02*
X265819885Y-112561338D01*
X265819885Y-112561338D02*
X265772266Y-112608957D01*
X264915123Y-112847052D02*
X264915123Y-113513719D01*
X265153218Y-112466100D02*
X265391313Y-113180385D01*
X265391313Y-113180385D02*
X264772266Y-113180385D01*
X265772266Y-105798480D02*
X265819885Y-105846100D01*
X265819885Y-105846100D02*
X265962742Y-105893719D01*
X265962742Y-105893719D02*
X266057980Y-105893719D01*
X266057980Y-105893719D02*
X266200837Y-105846100D01*
X266200837Y-105846100D02*
X266296075Y-105750861D01*
X266296075Y-105750861D02*
X266343694Y-105655623D01*
X266343694Y-105655623D02*
X266391313Y-105465147D01*
X266391313Y-105465147D02*
X266391313Y-105322290D01*
X266391313Y-105322290D02*
X266343694Y-105131814D01*
X266343694Y-105131814D02*
X266296075Y-105036576D01*
X266296075Y-105036576D02*
X266200837Y-104941338D01*
X266200837Y-104941338D02*
X266057980Y-104893719D01*
X266057980Y-104893719D02*
X265962742Y-104893719D01*
X265962742Y-104893719D02*
X265819885Y-104941338D01*
X265819885Y-104941338D02*
X265772266Y-104988957D01*
X264819885Y-105893719D02*
X265391313Y-105893719D01*
X265105599Y-105893719D02*
X265105599Y-104893719D01*
X265105599Y-104893719D02*
X265200837Y-105036576D01*
X265200837Y-105036576D02*
X265296075Y-105131814D01*
X265296075Y-105131814D02*
X265391313Y-105179433D01*
X276600419Y-129891280D02*
X276124228Y-129557947D01*
X276600419Y-129319852D02*
X275600419Y-129319852D01*
X275600419Y-129319852D02*
X275600419Y-129700804D01*
X275600419Y-129700804D02*
X275648038Y-129796042D01*
X275648038Y-129796042D02*
X275695657Y-129843661D01*
X275695657Y-129843661D02*
X275790895Y-129891280D01*
X275790895Y-129891280D02*
X275933752Y-129891280D01*
X275933752Y-129891280D02*
X276028990Y-129843661D01*
X276028990Y-129843661D02*
X276076609Y-129796042D01*
X276076609Y-129796042D02*
X276124228Y-129700804D01*
X276124228Y-129700804D02*
X276124228Y-129319852D01*
X276552800Y-130272233D02*
X276600419Y-130415090D01*
X276600419Y-130415090D02*
X276600419Y-130653185D01*
X276600419Y-130653185D02*
X276552800Y-130748423D01*
X276552800Y-130748423D02*
X276505180Y-130796042D01*
X276505180Y-130796042D02*
X276409942Y-130843661D01*
X276409942Y-130843661D02*
X276314704Y-130843661D01*
X276314704Y-130843661D02*
X276219466Y-130796042D01*
X276219466Y-130796042D02*
X276171847Y-130748423D01*
X276171847Y-130748423D02*
X276124228Y-130653185D01*
X276124228Y-130653185D02*
X276076609Y-130462709D01*
X276076609Y-130462709D02*
X276028990Y-130367471D01*
X276028990Y-130367471D02*
X275981371Y-130319852D01*
X275981371Y-130319852D02*
X275886133Y-130272233D01*
X275886133Y-130272233D02*
X275790895Y-130272233D01*
X275790895Y-130272233D02*
X275695657Y-130319852D01*
X275695657Y-130319852D02*
X275648038Y-130367471D01*
X275648038Y-130367471D02*
X275600419Y-130462709D01*
X275600419Y-130462709D02*
X275600419Y-130700804D01*
X275600419Y-130700804D02*
X275648038Y-130843661D01*
X275600419Y-131129376D02*
X275600419Y-131700804D01*
X276600419Y-131415090D02*
X275600419Y-131415090D01*
X277097980Y-135393719D02*
X276907504Y-135393719D01*
X276907504Y-135393719D02*
X276812266Y-135441338D01*
X276812266Y-135441338D02*
X276717028Y-135536576D01*
X276717028Y-135536576D02*
X276669409Y-135727052D01*
X276669409Y-135727052D02*
X276669409Y-136060385D01*
X276669409Y-136060385D02*
X276717028Y-136250861D01*
X276717028Y-136250861D02*
X276812266Y-136346100D01*
X276812266Y-136346100D02*
X276907504Y-136393719D01*
X276907504Y-136393719D02*
X277097980Y-136393719D01*
X277097980Y-136393719D02*
X277193218Y-136346100D01*
X277193218Y-136346100D02*
X277288456Y-136250861D01*
X277288456Y-136250861D02*
X277336075Y-136060385D01*
X277336075Y-136060385D02*
X277336075Y-135727052D01*
X277336075Y-135727052D02*
X277288456Y-135536576D01*
X277288456Y-135536576D02*
X277193218Y-135441338D01*
X277193218Y-135441338D02*
X277097980Y-135393719D01*
X275907504Y-135869909D02*
X276240837Y-135869909D01*
X276240837Y-136393719D02*
X276240837Y-135393719D01*
X276240837Y-135393719D02*
X275764647Y-135393719D01*
X275050361Y-135869909D02*
X275383694Y-135869909D01*
X275383694Y-136393719D02*
X275383694Y-135393719D01*
X275383694Y-135393719D02*
X274907504Y-135393719D01*
X276764647Y-145393719D02*
X276574171Y-145393719D01*
X276574171Y-145393719D02*
X276478933Y-145441338D01*
X276478933Y-145441338D02*
X276383695Y-145536576D01*
X276383695Y-145536576D02*
X276336076Y-145727052D01*
X276336076Y-145727052D02*
X276336076Y-146060385D01*
X276336076Y-146060385D02*
X276383695Y-146250861D01*
X276383695Y-146250861D02*
X276478933Y-146346100D01*
X276478933Y-146346100D02*
X276574171Y-146393719D01*
X276574171Y-146393719D02*
X276764647Y-146393719D01*
X276764647Y-146393719D02*
X276859885Y-146346100D01*
X276859885Y-146346100D02*
X276955123Y-146250861D01*
X276955123Y-146250861D02*
X277002742Y-146060385D01*
X277002742Y-146060385D02*
X277002742Y-145727052D01*
X277002742Y-145727052D02*
X276955123Y-145536576D01*
X276955123Y-145536576D02*
X276859885Y-145441338D01*
X276859885Y-145441338D02*
X276764647Y-145393719D01*
X275907504Y-146393719D02*
X275907504Y-145393719D01*
X275907504Y-145393719D02*
X275336076Y-146393719D01*
X275336076Y-146393719D02*
X275336076Y-145393719D01*
D11*
%TO.C,LOGO_B*%
G36*
X201731268Y-141663219D02*
G01*
X201839013Y-141667193D01*
X201935131Y-141674175D01*
X202013239Y-141684164D01*
X202062953Y-141693156D01*
X202306120Y-141751235D01*
X202537232Y-141830573D01*
X202755981Y-141931011D01*
X202962059Y-142052395D01*
X203155157Y-142194565D01*
X203334968Y-142357367D01*
X203353661Y-142376264D01*
X203511934Y-142554894D01*
X203649955Y-142745946D01*
X203767115Y-142947897D01*
X203862806Y-143159225D01*
X203936419Y-143378406D01*
X203987345Y-143603917D01*
X204014975Y-143834236D01*
X204018701Y-144067838D01*
X204016769Y-144114841D01*
X204008431Y-144240542D01*
X203995225Y-144353626D01*
X203975958Y-144462859D01*
X203949437Y-144577012D01*
X203894006Y-144760856D01*
X203807051Y-144974628D01*
X203699762Y-145177256D01*
X203573513Y-145367607D01*
X203429675Y-145544549D01*
X203269622Y-145706949D01*
X203094728Y-145853674D01*
X202906364Y-145983592D01*
X202705903Y-146095571D01*
X202494720Y-146188478D01*
X202274185Y-146261180D01*
X202045674Y-146312545D01*
X201810557Y-146341440D01*
X201759253Y-146343622D01*
X201681512Y-146343861D01*
X201592506Y-146341831D01*
X201499382Y-146337849D01*
X201409291Y-146332231D01*
X201329380Y-146325294D01*
X201266798Y-146317355D01*
X201206715Y-146306925D01*
X200967117Y-146250450D01*
X200738228Y-146172070D01*
X200520663Y-146072095D01*
X200315037Y-145950837D01*
X200121965Y-145808609D01*
X199942062Y-145645721D01*
X199820417Y-145514901D01*
X199673692Y-145326907D01*
X199548045Y-145127488D01*
X199444013Y-144917921D01*
X199362128Y-144699485D01*
X199302927Y-144473455D01*
X199266943Y-144241109D01*
X199254712Y-144003726D01*
X199261255Y-143825128D01*
X199290772Y-143590423D01*
X199343658Y-143362219D01*
X199419481Y-143141550D01*
X199517808Y-142929452D01*
X199638207Y-142726961D01*
X199780245Y-142535113D01*
X199943488Y-142354943D01*
X199978825Y-142320264D01*
X200160158Y-142162712D01*
X200355153Y-142025506D01*
X200563411Y-141908846D01*
X200784537Y-141812935D01*
X201018133Y-141737973D01*
X201263801Y-141684164D01*
X201311665Y-141677391D01*
X201402094Y-141669338D01*
X201506426Y-141664291D01*
X201618278Y-141662251D01*
X201731268Y-141663219D01*
G37*
G36*
X195484662Y-142437728D02*
G01*
X195579879Y-142440759D01*
X195662827Y-142445538D01*
X195727828Y-142452064D01*
X195774339Y-142458805D01*
X196020965Y-142507712D01*
X196258271Y-142576934D01*
X196484988Y-142665532D01*
X196699845Y-142772567D01*
X196901575Y-142897098D01*
X197088906Y-143038188D01*
X197260569Y-143194897D01*
X197415295Y-143366286D01*
X197551814Y-143551415D01*
X197668856Y-143749346D01*
X197765152Y-143959139D01*
X197811134Y-144086523D01*
X197868712Y-144301160D01*
X197902715Y-144517130D01*
X197913610Y-144733078D01*
X197901867Y-144947645D01*
X197867955Y-145159477D01*
X197812342Y-145367216D01*
X197735498Y-145569506D01*
X197637891Y-145764990D01*
X197519991Y-145952311D01*
X197382265Y-146130114D01*
X197225183Y-146297041D01*
X197049215Y-146451736D01*
X196854827Y-146592843D01*
X196708905Y-146681759D01*
X196488853Y-146792285D01*
X196257557Y-146882700D01*
X196017902Y-146952066D01*
X195772778Y-146999448D01*
X195525071Y-147023909D01*
X195396206Y-147027941D01*
X195135651Y-147019513D01*
X194883126Y-146988224D01*
X194637364Y-146933823D01*
X194397099Y-146856059D01*
X194161065Y-146754684D01*
X194038882Y-146691865D01*
X193840466Y-146572313D01*
X193657916Y-146439288D01*
X193493707Y-146294665D01*
X193350314Y-146140320D01*
X193237181Y-145995146D01*
X193107833Y-145798078D01*
X193002376Y-145595953D01*
X192920628Y-145388285D01*
X192862403Y-145174589D01*
X192827518Y-144954376D01*
X192815789Y-144727161D01*
X192820349Y-144580139D01*
X192844857Y-144370079D01*
X192891249Y-144166677D01*
X192960287Y-143965904D01*
X193015204Y-143838385D01*
X193101943Y-143669757D01*
X193201395Y-143512922D01*
X193317314Y-143362141D01*
X193453451Y-143211675D01*
X193624585Y-143051129D01*
X193818311Y-142902086D01*
X194026799Y-142772340D01*
X194249464Y-142662181D01*
X194485721Y-142571896D01*
X194734985Y-142501773D01*
X194996672Y-142452099D01*
X195023344Y-142448770D01*
X195094707Y-142443070D01*
X195182200Y-142439115D01*
X195280143Y-142436906D01*
X195382857Y-142436444D01*
X195484662Y-142437728D01*
G37*
G36*
X199626200Y-146430268D02*
G01*
X199724802Y-146455712D01*
X199814459Y-146499665D01*
X199890815Y-146561419D01*
X199906962Y-146580183D01*
X199936343Y-146616910D01*
X199976971Y-146669075D01*
X200027311Y-146734620D01*
X200085828Y-146811482D01*
X200150987Y-146897603D01*
X200221255Y-146990921D01*
X200295096Y-147089376D01*
X200370976Y-147190908D01*
X200447360Y-147293456D01*
X200522713Y-147394959D01*
X200595501Y-147493357D01*
X200664189Y-147586590D01*
X200727243Y-147672597D01*
X200783127Y-147749318D01*
X200830308Y-147814692D01*
X200867250Y-147866659D01*
X200892419Y-147903158D01*
X200904280Y-147922129D01*
X200912397Y-147940953D01*
X200929744Y-148007648D01*
X200937165Y-148084120D01*
X200934154Y-148160688D01*
X200920207Y-148227669D01*
X200898250Y-148279395D01*
X200849261Y-148352440D01*
X200785404Y-148415547D01*
X200710506Y-148467066D01*
X200628396Y-148505346D01*
X200542902Y-148528739D01*
X200457852Y-148535593D01*
X200377074Y-148524260D01*
X200304397Y-148493089D01*
X200303618Y-148492606D01*
X200269601Y-148468419D01*
X200235565Y-148437202D01*
X200199142Y-148396056D01*
X200157961Y-148342082D01*
X200109656Y-148272382D01*
X200051856Y-148184056D01*
X200021955Y-148138640D01*
X199973738Y-148072234D01*
X199930659Y-148024096D01*
X199889649Y-147991501D01*
X199847635Y-147971725D01*
X199801548Y-147962046D01*
X199770511Y-147960890D01*
X199706378Y-147971844D01*
X199648860Y-147998210D01*
X199606039Y-148036893D01*
X199603663Y-148040087D01*
X199581940Y-148071691D01*
X199563435Y-148104848D01*
X199546398Y-148144038D01*
X199529078Y-148193739D01*
X199509726Y-148258429D01*
X199486592Y-148342586D01*
X199471154Y-148398825D01*
X199444872Y-148486485D01*
X199420163Y-148555466D01*
X199395252Y-148609356D01*
X199368363Y-148651740D01*
X199337722Y-148686206D01*
X199301551Y-148716339D01*
X199279422Y-148730036D01*
X199226826Y-148753234D01*
X199164261Y-148772880D01*
X199100978Y-148785775D01*
X199045856Y-148790860D01*
X198934351Y-148785769D01*
X198827613Y-148761090D01*
X198730387Y-148718157D01*
X198647418Y-148658304D01*
X198637477Y-148648947D01*
X198586556Y-148587743D01*
X198555036Y-148520256D01*
X198542397Y-148443698D01*
X198548120Y-148355281D01*
X198571684Y-148252217D01*
X198581158Y-148220387D01*
X198599951Y-148159437D01*
X198624193Y-148082523D01*
X198653069Y-147992105D01*
X198685768Y-147890642D01*
X198721478Y-147780594D01*
X198759385Y-147664420D01*
X198798679Y-147544580D01*
X198838546Y-147423533D01*
X198878174Y-147303738D01*
X198916750Y-147187656D01*
X198953463Y-147077745D01*
X198987501Y-146976466D01*
X199018049Y-146886277D01*
X199044298Y-146809639D01*
X199065433Y-146749011D01*
X199080642Y-146706851D01*
X199089115Y-146685621D01*
X199115318Y-146641471D01*
X199172661Y-146574808D01*
X199244806Y-146515691D01*
X199325817Y-146469537D01*
X199419593Y-146437744D01*
X199523011Y-146424043D01*
X199626200Y-146430268D01*
G37*
G36*
X205173414Y-144696785D02*
G01*
X205171445Y-144836676D01*
X205166676Y-144964152D01*
X205164148Y-145010273D01*
X205144995Y-145264406D01*
X205117782Y-145498846D01*
X205082000Y-145716767D01*
X205037143Y-145921341D01*
X204982704Y-146115743D01*
X204902479Y-146342876D01*
X204795564Y-146582244D01*
X204670681Y-146806514D01*
X204528451Y-147014686D01*
X204369498Y-147205763D01*
X204194444Y-147378748D01*
X204066952Y-147492792D01*
X204069966Y-147556929D01*
X204073785Y-147619179D01*
X204080782Y-147707009D01*
X204090475Y-147813403D01*
X204102565Y-147935357D01*
X204116753Y-148069862D01*
X204132742Y-148213915D01*
X204150231Y-148364509D01*
X204158923Y-148438002D01*
X204176364Y-148587641D01*
X204190927Y-148716533D01*
X204202823Y-148827190D01*
X204212263Y-148922124D01*
X204219460Y-149003846D01*
X204224625Y-149074868D01*
X204227968Y-149137701D01*
X204229702Y-149194858D01*
X204230038Y-149248849D01*
X204229188Y-149302186D01*
X204226915Y-149371585D01*
X204223518Y-149427423D01*
X204218582Y-149467613D01*
X204211519Y-149496796D01*
X204201745Y-149519613D01*
X204156275Y-149586470D01*
X204090194Y-149657620D01*
X204007299Y-149730105D01*
X203911098Y-149801512D01*
X203805094Y-149869424D01*
X203692796Y-149931429D01*
X203577709Y-149985112D01*
X203463339Y-150028059D01*
X203410849Y-150044628D01*
X203328062Y-150067570D01*
X203250362Y-150083829D01*
X203170355Y-150094553D01*
X203080648Y-150100887D01*
X202973847Y-150103979D01*
X202766987Y-150107233D01*
X202697359Y-150149436D01*
X202648867Y-150178191D01*
X202463539Y-150276367D01*
X202272199Y-150358878D01*
X202071630Y-150426710D01*
X201858611Y-150480849D01*
X201629923Y-150522278D01*
X201382347Y-150551985D01*
X201326326Y-150557763D01*
X201275270Y-150565313D01*
X201234027Y-150575513D01*
X201194569Y-150590431D01*
X201148869Y-150612134D01*
X201060599Y-150652363D01*
X200910335Y-150707161D01*
X200739265Y-150755371D01*
X200549238Y-150796495D01*
X200342100Y-150830032D01*
X200322814Y-150832524D01*
X200253610Y-150839393D01*
X200169295Y-150844920D01*
X200067505Y-150849214D01*
X199945879Y-150852380D01*
X199802056Y-150854526D01*
X199752943Y-150855144D01*
X199658192Y-150856865D01*
X199571551Y-150859118D01*
X199496315Y-150861777D01*
X199435777Y-150864718D01*
X199393229Y-150867813D01*
X199371964Y-150870938D01*
X199349051Y-150877383D01*
X199301535Y-150888853D01*
X199238256Y-150902956D01*
X199163968Y-150918725D01*
X199083425Y-150935192D01*
X199001381Y-150951389D01*
X198922587Y-150966348D01*
X198851799Y-150979101D01*
X198793769Y-150988681D01*
X198783534Y-150990197D01*
X198687666Y-151000598D01*
X198580041Y-151006692D01*
X198467850Y-151008486D01*
X198358286Y-151005986D01*
X198258540Y-150999199D01*
X198175805Y-150988131D01*
X198126801Y-150978305D01*
X198027541Y-150954060D01*
X197927896Y-150924645D01*
X197832803Y-150891827D01*
X197747199Y-150857375D01*
X197676021Y-150823055D01*
X197624208Y-150790635D01*
X197580907Y-150757608D01*
X197529339Y-150783363D01*
X197506281Y-150794380D01*
X197447645Y-150817212D01*
X197385828Y-150832719D01*
X197315571Y-150841685D01*
X197231614Y-150844895D01*
X197128699Y-150843134D01*
X196965813Y-150830595D01*
X196758503Y-150793505D01*
X196557938Y-150732843D01*
X196363488Y-150648451D01*
X196324201Y-150627675D01*
X196260523Y-150587422D01*
X196208002Y-150542727D01*
X196165182Y-150490718D01*
X196130611Y-150428519D01*
X196102834Y-150353258D01*
X196080398Y-150262061D01*
X196061848Y-150152054D01*
X196045732Y-150020363D01*
X196039371Y-149968300D01*
X196031509Y-149919695D01*
X196023884Y-149887631D01*
X196017283Y-149876093D01*
X196002237Y-149881366D01*
X195970323Y-149901199D01*
X195927292Y-149933024D01*
X195876721Y-149973926D01*
X195822187Y-150020991D01*
X195767268Y-150071304D01*
X195715540Y-150121950D01*
X195683623Y-150155352D01*
X195589265Y-150268324D01*
X195518452Y-150378904D01*
X195470583Y-150487988D01*
X195458496Y-150535652D01*
X195446711Y-150606858D01*
X195436064Y-150696267D01*
X195426677Y-150800611D01*
X195418670Y-150916625D01*
X195412165Y-151041042D01*
X195407285Y-151170594D01*
X195404152Y-151302015D01*
X195402887Y-151432040D01*
X195403611Y-151557400D01*
X195406447Y-151674830D01*
X195411517Y-151781062D01*
X195418942Y-151872831D01*
X195430580Y-151975348D01*
X195464732Y-152202379D01*
X195508571Y-152408748D01*
X195562584Y-152596007D01*
X195627258Y-152765709D01*
X195703079Y-152919408D01*
X195790534Y-153058655D01*
X195830121Y-153110417D01*
X195879150Y-153167603D01*
X195932202Y-153224364D01*
X195984587Y-153275887D01*
X196031617Y-153317363D01*
X196068602Y-153343979D01*
X196105125Y-153365102D01*
X196112442Y-153233383D01*
X196112644Y-153229815D01*
X196127306Y-153098965D01*
X196155769Y-152985655D01*
X196199115Y-152888938D01*
X196258429Y-152807868D01*
X196334793Y-152741498D01*
X196429289Y-152688881D01*
X196543002Y-152649071D01*
X196677013Y-152621121D01*
X196832407Y-152604085D01*
X196933955Y-152599079D01*
X197114233Y-152602085D01*
X197282095Y-152620775D01*
X197435114Y-152654819D01*
X197570863Y-152703890D01*
X197654441Y-152741261D01*
X197741988Y-152709681D01*
X197816578Y-152684502D01*
X197905168Y-152660193D01*
X197994621Y-152642843D01*
X198090803Y-152631592D01*
X198199579Y-152625581D01*
X198326813Y-152623950D01*
X198392390Y-152624511D01*
X198547343Y-152630236D01*
X198689189Y-152642997D01*
X198825730Y-152663892D01*
X198964770Y-152694014D01*
X199114113Y-152734460D01*
X199262420Y-152777861D01*
X199335931Y-152734777D01*
X199407420Y-152696456D01*
X199550810Y-152635996D01*
X199714350Y-152585167D01*
X199896346Y-152544262D01*
X200095104Y-152513573D01*
X200308930Y-152493395D01*
X200536131Y-152484020D01*
X200775013Y-152485741D01*
X201035889Y-152493613D01*
X201092422Y-152450461D01*
X201147997Y-152411779D01*
X201223909Y-152365017D01*
X201313407Y-152314232D01*
X201411740Y-152261947D01*
X201514158Y-152210684D01*
X201615912Y-152162966D01*
X201712250Y-152121315D01*
X201789225Y-152090871D01*
X201936384Y-152039200D01*
X202076322Y-151998613D01*
X202206801Y-151969482D01*
X202325583Y-151952182D01*
X202430428Y-151947085D01*
X202519099Y-151954565D01*
X202589357Y-151974995D01*
X202613031Y-151985492D01*
X202640485Y-151997274D01*
X202652503Y-152001858D01*
X202652924Y-152001583D01*
X202657491Y-151988011D01*
X202663514Y-151960300D01*
X202677266Y-151918833D01*
X202705226Y-151874722D01*
X202748621Y-151828328D01*
X202808973Y-151778397D01*
X202887802Y-151723675D01*
X202986630Y-151662909D01*
X203106977Y-151594844D01*
X203153723Y-151569626D01*
X203303277Y-151495339D01*
X203442289Y-151437520D01*
X203575393Y-151394848D01*
X203707223Y-151366005D01*
X203842411Y-151349668D01*
X203985593Y-151344518D01*
X204026069Y-151344558D01*
X204088359Y-151345109D01*
X204133690Y-151346839D01*
X204167085Y-151350408D01*
X204193567Y-151356478D01*
X204218157Y-151365709D01*
X204245880Y-151378763D01*
X204263485Y-151387890D01*
X204329701Y-151434397D01*
X204383536Y-151496019D01*
X204429210Y-151577328D01*
X204464354Y-151665267D01*
X204499184Y-151778020D01*
X204531369Y-151908844D01*
X204560181Y-152054429D01*
X204584895Y-152211469D01*
X204604782Y-152376653D01*
X204607227Y-152400986D01*
X204626898Y-152659629D01*
X204633713Y-152903887D01*
X204627831Y-153132941D01*
X204609409Y-153345971D01*
X204578606Y-153542158D01*
X204535581Y-153720685D01*
X204480491Y-153880731D01*
X204413495Y-154021477D01*
X204334751Y-154142106D01*
X204244417Y-154241797D01*
X204192903Y-154284680D01*
X204100878Y-154347383D01*
X203985465Y-154413571D01*
X203847175Y-154483015D01*
X203686521Y-154555490D01*
X203504013Y-154630765D01*
X203300164Y-154708615D01*
X203075485Y-154788811D01*
X202830489Y-154871125D01*
X202564294Y-154954852D01*
X202157392Y-155071105D01*
X201743443Y-155175925D01*
X201326095Y-155268632D01*
X200908994Y-155348547D01*
X200495789Y-155414988D01*
X200090127Y-155467276D01*
X199695656Y-155504729D01*
X199316024Y-155526667D01*
X199277868Y-155527995D01*
X199038272Y-155532029D01*
X198779688Y-155529649D01*
X198506097Y-155521122D01*
X198221480Y-155506715D01*
X197929818Y-155486697D01*
X197635092Y-155461333D01*
X197341282Y-155430892D01*
X197052371Y-155395642D01*
X196772337Y-155355848D01*
X196528832Y-155316583D01*
X196242733Y-155264912D01*
X195972907Y-155209874D01*
X195720184Y-155151732D01*
X195485393Y-155090748D01*
X195269363Y-155027187D01*
X195072924Y-154961312D01*
X194896904Y-154893386D01*
X194742133Y-154823674D01*
X194609441Y-154752437D01*
X194499656Y-154679941D01*
X194413607Y-154606447D01*
X194382230Y-154572952D01*
X194343119Y-154521209D01*
X194312580Y-154464164D01*
X194288641Y-154397000D01*
X194269333Y-154314900D01*
X194252686Y-154213050D01*
X194251577Y-154205150D01*
X194239865Y-154117537D01*
X194229366Y-154029927D01*
X194219995Y-153940429D01*
X194211668Y-153847153D01*
X194204302Y-153748209D01*
X194197812Y-153641705D01*
X194192116Y-153525750D01*
X194187128Y-153398455D01*
X194182766Y-153257927D01*
X194178944Y-153102277D01*
X194175580Y-152929613D01*
X194172590Y-152738045D01*
X194169888Y-152525683D01*
X194167393Y-152290634D01*
X194166024Y-152159755D01*
X194164083Y-151996933D01*
X194161953Y-151839927D01*
X194159675Y-151690820D01*
X194157290Y-151551698D01*
X194154838Y-151424644D01*
X194152361Y-151311744D01*
X194149898Y-151215082D01*
X194147491Y-151136742D01*
X194145180Y-151078809D01*
X194143007Y-151043368D01*
X194133116Y-150945355D01*
X194104894Y-150742833D01*
X194067633Y-150552503D01*
X194022041Y-150377261D01*
X193968824Y-150220005D01*
X193908691Y-150083632D01*
X193872844Y-150018882D01*
X193817893Y-149932798D01*
X193756440Y-149847422D01*
X193693814Y-149770075D01*
X193635343Y-149708078D01*
X193624796Y-149698286D01*
X193585378Y-149663424D01*
X193531179Y-149617098D01*
X193465453Y-149562023D01*
X193391457Y-149500916D01*
X193312449Y-149436491D01*
X193231683Y-149371464D01*
X193168321Y-149320704D01*
X193041987Y-149218780D01*
X192930956Y-149127951D01*
X192832283Y-149045637D01*
X192743024Y-148969261D01*
X192660236Y-148896245D01*
X192580974Y-148824011D01*
X192502295Y-148749981D01*
X192421253Y-148671577D01*
X192334905Y-148586221D01*
X192228033Y-148477923D01*
X192074927Y-148314984D01*
X191936063Y-148156243D01*
X191807226Y-147996611D01*
X191684199Y-147830999D01*
X191562766Y-147654320D01*
X191439346Y-147459927D01*
X191264090Y-147149123D01*
X191109085Y-146827549D01*
X190974083Y-146494437D01*
X190858837Y-146149016D01*
X190763100Y-145790517D01*
X190686624Y-145418170D01*
X190629162Y-145031206D01*
X190590467Y-144628854D01*
X190589166Y-144609343D01*
X190585055Y-144522700D01*
X190582306Y-144420629D01*
X190580859Y-144307129D01*
X190580649Y-144186199D01*
X190581295Y-144103109D01*
X191123289Y-144103109D01*
X191126725Y-144371933D01*
X191141761Y-144647451D01*
X191168420Y-144926621D01*
X191206726Y-145206406D01*
X191275354Y-145569529D01*
X191365940Y-145925569D01*
X191477614Y-146268992D01*
X191610380Y-146599808D01*
X191764243Y-146918029D01*
X191939208Y-147223665D01*
X192135280Y-147516726D01*
X192352462Y-147797223D01*
X192435316Y-147895027D01*
X192530407Y-148002203D01*
X192628601Y-148107140D01*
X192732049Y-148211849D01*
X192842903Y-148318340D01*
X192963312Y-148428623D01*
X193095427Y-148544708D01*
X193241399Y-148668604D01*
X193403377Y-148802323D01*
X193583513Y-148947874D01*
X193651954Y-149002828D01*
X193760432Y-149090765D01*
X193852678Y-149167042D01*
X193930825Y-149233727D01*
X193997010Y-149292887D01*
X194053364Y-149346591D01*
X194102023Y-149396906D01*
X194145121Y-149445899D01*
X194184791Y-149495640D01*
X194223169Y-149548195D01*
X194262387Y-149605632D01*
X194365333Y-149777584D01*
X194457742Y-149971814D01*
X194535394Y-150182546D01*
X194598612Y-150410795D01*
X194647722Y-150657575D01*
X194683046Y-150923903D01*
X194685147Y-150945910D01*
X194690981Y-151025253D01*
X194696423Y-151126374D01*
X194701421Y-151247197D01*
X194705927Y-151385643D01*
X194709892Y-151539635D01*
X194713265Y-151707097D01*
X194715998Y-151885950D01*
X194718042Y-152074117D01*
X194719345Y-152269522D01*
X194719860Y-152470086D01*
X194720385Y-152660023D01*
X194722461Y-152894170D01*
X194726197Y-153107654D01*
X194731687Y-153302689D01*
X194739026Y-153481488D01*
X194748309Y-153646264D01*
X194759630Y-153799230D01*
X194773085Y-153942601D01*
X194788769Y-154078588D01*
X194794827Y-154125018D01*
X194803706Y-154176288D01*
X194816138Y-154213867D01*
X194835827Y-154242650D01*
X194866483Y-154267530D01*
X194911811Y-154293403D01*
X194975518Y-154325163D01*
X195055199Y-154362115D01*
X195215298Y-154426648D01*
X195397305Y-154489295D01*
X195599536Y-154549740D01*
X195820306Y-154607664D01*
X196057933Y-154662752D01*
X196310731Y-154714686D01*
X196577017Y-154763148D01*
X196855107Y-154807821D01*
X197143316Y-154848390D01*
X197439962Y-154884535D01*
X197743361Y-154915940D01*
X198051827Y-154942289D01*
X198363678Y-154963263D01*
X198385797Y-154964401D01*
X198455479Y-154966915D01*
X198543614Y-154969024D01*
X198645900Y-154970712D01*
X198758035Y-154971964D01*
X198875716Y-154972764D01*
X198994641Y-154973097D01*
X199110507Y-154972948D01*
X199219012Y-154972300D01*
X199315855Y-154971138D01*
X199396731Y-154969446D01*
X199457340Y-154967210D01*
X199678180Y-154952695D01*
X199971937Y-154924823D01*
X200280197Y-154886832D01*
X200598891Y-154839389D01*
X200923947Y-154783158D01*
X201251294Y-154718805D01*
X201576860Y-154646997D01*
X201896575Y-154568398D01*
X202002802Y-154540308D01*
X202195316Y-154486732D01*
X202388098Y-154429846D01*
X202578947Y-154370453D01*
X202765663Y-154309358D01*
X202946043Y-154247365D01*
X203117887Y-154185279D01*
X203278993Y-154123905D01*
X203427160Y-154064046D01*
X203560188Y-154006507D01*
X203675874Y-153952092D01*
X203772019Y-153901606D01*
X203846419Y-153855854D01*
X203856313Y-153848646D01*
X203910084Y-153792863D01*
X203956854Y-153714153D01*
X203996464Y-153613103D01*
X204028754Y-153490298D01*
X204053564Y-153346324D01*
X204070736Y-153181767D01*
X204080109Y-152997214D01*
X204080464Y-152766063D01*
X204066286Y-152505442D01*
X204037050Y-152253603D01*
X203993258Y-152016237D01*
X203966756Y-151897407D01*
X203899373Y-151900179D01*
X203862453Y-151902747D01*
X203762139Y-151919451D01*
X203652806Y-151951267D01*
X203532528Y-151998922D01*
X203399381Y-152063141D01*
X203251443Y-152144650D01*
X203243010Y-152149513D01*
X203230122Y-152158029D01*
X203221007Y-152168429D01*
X203215512Y-152183934D01*
X203213486Y-152207764D01*
X203214777Y-152243139D01*
X203219235Y-152293280D01*
X203226706Y-152361406D01*
X203237041Y-152450739D01*
X203241518Y-152491911D01*
X203250016Y-152585348D01*
X203256980Y-152682331D01*
X203261787Y-152773564D01*
X203263811Y-152849754D01*
X203263966Y-152886324D01*
X203263438Y-152949783D01*
X203261307Y-152996118D01*
X203257058Y-153030415D01*
X203250174Y-153057758D01*
X203240142Y-153083232D01*
X203228256Y-153107859D01*
X203185551Y-153172902D01*
X203130133Y-153225167D01*
X203058128Y-153267768D01*
X202965661Y-153303817D01*
X202894279Y-153325935D01*
X202801563Y-153349843D01*
X202724425Y-153362358D01*
X202659271Y-153363744D01*
X202602507Y-153354263D01*
X202550538Y-153334177D01*
X202519248Y-153316892D01*
X202477533Y-153286015D01*
X202442638Y-153247699D01*
X202413661Y-153199496D01*
X202389702Y-153138959D01*
X202369859Y-153063641D01*
X202353230Y-152971093D01*
X202338914Y-152858870D01*
X202326010Y-152724522D01*
X202323538Y-152696718D01*
X202317294Y-152634654D01*
X202311078Y-152582791D01*
X202305497Y-152545897D01*
X202301155Y-152528742D01*
X202297262Y-152525402D01*
X202272542Y-152522985D01*
X202229698Y-152529871D01*
X202171671Y-152545023D01*
X202101401Y-152567406D01*
X202021827Y-152595983D01*
X201935889Y-152629717D01*
X201846527Y-152667572D01*
X201756680Y-152708512D01*
X201669290Y-152751501D01*
X201509493Y-152833417D01*
X201512216Y-152893811D01*
X201513039Y-152917042D01*
X201514303Y-152964649D01*
X201515690Y-153027191D01*
X201517082Y-153099247D01*
X201518360Y-153175395D01*
X201519323Y-153246264D01*
X201519529Y-153308382D01*
X201518386Y-153354478D01*
X201515491Y-153389116D01*
X201510438Y-153416862D01*
X201502824Y-153442280D01*
X201492242Y-153469934D01*
X201467108Y-153520369D01*
X201411943Y-153593488D01*
X201342886Y-153653606D01*
X201265705Y-153694991D01*
X201197651Y-153714947D01*
X201111391Y-153722066D01*
X201032461Y-153707183D01*
X200962866Y-153670751D01*
X200904607Y-153613225D01*
X200902857Y-153610916D01*
X200876070Y-153569078D01*
X200854492Y-153520000D01*
X200836846Y-153459349D01*
X200821856Y-153382790D01*
X200808246Y-153285990D01*
X200801402Y-153230549D01*
X200793844Y-153169605D01*
X200787467Y-153118471D01*
X200783178Y-153084438D01*
X200776271Y-153030347D01*
X200528465Y-153037810D01*
X200451163Y-153040752D01*
X200361934Y-153045434D01*
X200276664Y-153051130D01*
X200202224Y-153057375D01*
X200145487Y-153063705D01*
X200098921Y-153070768D01*
X200020734Y-153084947D01*
X199939518Y-153101931D01*
X199862114Y-153120167D01*
X199795366Y-153138106D01*
X199746116Y-153154198D01*
X199715395Y-153165974D01*
X199715085Y-153490181D01*
X199715027Y-153528019D01*
X199714576Y-153621385D01*
X199713562Y-153694482D01*
X199711806Y-153750505D01*
X199709125Y-153792646D01*
X199705340Y-153824100D01*
X199700270Y-153848062D01*
X199693734Y-153867724D01*
X199652532Y-153942586D01*
X199593923Y-154005138D01*
X199522750Y-154052166D01*
X199443004Y-154082628D01*
X199358679Y-154095482D01*
X199273767Y-154089685D01*
X199192260Y-154064196D01*
X199118152Y-154017971D01*
X199112760Y-154013333D01*
X199071012Y-153965082D01*
X199032138Y-153900167D01*
X198999780Y-153825571D01*
X198977577Y-153748279D01*
X198977408Y-153747464D01*
X198970839Y-153711392D01*
X198962419Y-153659039D01*
X198952849Y-153595476D01*
X198942830Y-153525773D01*
X198933062Y-153455002D01*
X198924246Y-153388235D01*
X198917081Y-153330543D01*
X198912268Y-153286996D01*
X198910509Y-153262666D01*
X198910293Y-153261514D01*
X198895709Y-153251541D01*
X198860858Y-153239750D01*
X198809411Y-153226902D01*
X198745043Y-153213755D01*
X198671427Y-153201069D01*
X198592234Y-153189602D01*
X198511138Y-153180115D01*
X198448069Y-153175490D01*
X198368284Y-153173088D01*
X198285055Y-153173425D01*
X198205365Y-153176348D01*
X198136196Y-153181707D01*
X198084528Y-153189351D01*
X198051146Y-153196535D01*
X198051748Y-153438947D01*
X198051418Y-153532365D01*
X198049406Y-153613140D01*
X198045149Y-153676521D01*
X198038106Y-153726223D01*
X198027738Y-153765963D01*
X198013506Y-153799455D01*
X197994867Y-153830417D01*
X197965031Y-153865205D01*
X197915937Y-153907978D01*
X197857904Y-153948625D01*
X197798414Y-153981397D01*
X197751271Y-153997122D01*
X197676798Y-154002889D01*
X197600252Y-153989910D01*
X197527982Y-153959493D01*
X197466335Y-153912948D01*
X197465205Y-153911814D01*
X197429046Y-153869446D01*
X197398250Y-153819308D01*
X197371957Y-153758600D01*
X197349306Y-153684520D01*
X197329435Y-153594267D01*
X197311486Y-153485041D01*
X197294596Y-153354040D01*
X197293078Y-153341332D01*
X197284653Y-153280104D01*
X197275909Y-153229740D01*
X197267721Y-153194774D01*
X197260964Y-153179742D01*
X197246832Y-153173848D01*
X197206979Y-153165733D01*
X197150973Y-153159893D01*
X197083334Y-153156268D01*
X197008579Y-153154796D01*
X196931229Y-153155417D01*
X196855801Y-153158071D01*
X196786815Y-153162695D01*
X196728788Y-153169229D01*
X196686239Y-153177613D01*
X196663688Y-153187785D01*
X196661255Y-153199488D01*
X196659096Y-153232300D01*
X196657609Y-153281885D01*
X196656817Y-153344094D01*
X196656744Y-153414780D01*
X196657416Y-153489793D01*
X196658855Y-153564985D01*
X196661086Y-153636207D01*
X196662375Y-153678770D01*
X196661482Y-153744597D01*
X196654772Y-153795223D01*
X196640567Y-153836661D01*
X196617189Y-153874920D01*
X196582960Y-153916013D01*
X196522192Y-153967348D01*
X196444682Y-154003082D01*
X196355369Y-154019858D01*
X196256165Y-154017726D01*
X196148978Y-153996738D01*
X196035719Y-153956943D01*
X195918298Y-153898394D01*
X195842209Y-153852522D01*
X195676698Y-153733785D01*
X195526716Y-153597734D01*
X195392101Y-153444055D01*
X195272691Y-153272432D01*
X195168325Y-153082552D01*
X195078841Y-152874098D01*
X195004078Y-152646756D01*
X194943875Y-152400211D01*
X194898069Y-152134149D01*
X194866499Y-151848254D01*
X194860958Y-151758703D01*
X194857337Y-151646158D01*
X194855845Y-151518956D01*
X194856356Y-151381454D01*
X194858743Y-151238009D01*
X194862883Y-151092979D01*
X194868649Y-150950720D01*
X194875915Y-150815589D01*
X194884557Y-150691943D01*
X194894448Y-150584140D01*
X194905462Y-150496536D01*
X194920182Y-150418050D01*
X194963310Y-150272776D01*
X195027115Y-150130966D01*
X195112526Y-149990987D01*
X195220467Y-149851207D01*
X195351866Y-149709991D01*
X195406800Y-149656922D01*
X195562926Y-149521422D01*
X195722469Y-149404574D01*
X195882773Y-149308211D01*
X196041181Y-149234167D01*
X196124892Y-149207056D01*
X196219890Y-149193111D01*
X196305157Y-149199897D01*
X196379280Y-149226856D01*
X196440849Y-149273432D01*
X196488451Y-149339069D01*
X196520674Y-149423210D01*
X196526068Y-149449879D01*
X196533956Y-149498663D01*
X196543414Y-149564158D01*
X196553885Y-149642340D01*
X196564813Y-149729188D01*
X196575641Y-149820678D01*
X196581898Y-149874674D01*
X196593340Y-149968960D01*
X196603110Y-150042064D01*
X196611576Y-150096204D01*
X196619104Y-150133598D01*
X196626060Y-150156466D01*
X196632810Y-150167026D01*
X196641884Y-150172302D01*
X196674393Y-150186015D01*
X196722299Y-150203151D01*
X196780084Y-150222005D01*
X196842232Y-150240869D01*
X196903224Y-150258038D01*
X196957543Y-150271806D01*
X196999672Y-150280467D01*
X197032740Y-150285161D01*
X197104341Y-150292168D01*
X197175883Y-150295801D01*
X197235351Y-150295304D01*
X197247187Y-150292314D01*
X197260018Y-150280612D01*
X197270119Y-150258245D01*
X197277682Y-150223232D01*
X197282899Y-150173591D01*
X197285959Y-150107341D01*
X197287054Y-150022498D01*
X197286375Y-149917083D01*
X197284112Y-149789112D01*
X197276345Y-149425760D01*
X197308004Y-149362229D01*
X197352252Y-149294273D01*
X197416855Y-149232127D01*
X197493405Y-149186249D01*
X197577215Y-149159378D01*
X197663604Y-149154254D01*
X197664302Y-149154309D01*
X197752403Y-149172296D01*
X197828263Y-149211467D01*
X197892148Y-149272009D01*
X197944322Y-149354111D01*
X197948723Y-149363170D01*
X197963320Y-149398312D01*
X197975046Y-149437361D01*
X197984203Y-149483270D01*
X197991091Y-149538989D01*
X197996013Y-149607469D01*
X197999269Y-149691661D01*
X198001161Y-149794516D01*
X198001990Y-149918984D01*
X198002001Y-149922709D01*
X198002581Y-150015108D01*
X198003668Y-150101911D01*
X198005171Y-150179322D01*
X198007004Y-150243545D01*
X198009076Y-150290784D01*
X198011299Y-150317243D01*
X198019604Y-150371428D01*
X198104260Y-150399959D01*
X198137084Y-150410595D01*
X198215811Y-150431732D01*
X198294583Y-150445462D01*
X198381475Y-150452964D01*
X198484563Y-150455413D01*
X198493311Y-150455429D01*
X198539209Y-150455090D01*
X198581471Y-150453673D01*
X198624068Y-150450700D01*
X198670975Y-150445694D01*
X198726165Y-150438179D01*
X198793612Y-150427678D01*
X198877288Y-150413713D01*
X198981167Y-150395809D01*
X199003856Y-150390318D01*
X199018066Y-150377070D01*
X199021104Y-150348771D01*
X199019478Y-150309248D01*
X199014743Y-150248018D01*
X199007185Y-150168144D01*
X198997094Y-150072487D01*
X198984756Y-149963904D01*
X198970459Y-149845254D01*
X198969778Y-149839720D01*
X198958441Y-149737004D01*
X198952495Y-149653876D01*
X198952099Y-149586111D01*
X198957408Y-149529486D01*
X198968579Y-149479778D01*
X198985768Y-149432763D01*
X198992854Y-149417914D01*
X199029713Y-149363141D01*
X199078609Y-149312336D01*
X199132681Y-149271858D01*
X199185069Y-149248065D01*
X199224230Y-149240275D01*
X199306366Y-149239264D01*
X199387652Y-149256273D01*
X199461349Y-149289512D01*
X199520716Y-149337191D01*
X199537238Y-149356033D01*
X199553294Y-149377658D01*
X199567216Y-149402081D01*
X199579544Y-149431706D01*
X199590818Y-149468935D01*
X199601577Y-149516172D01*
X199612361Y-149575819D01*
X199623709Y-149650279D01*
X199636161Y-149741956D01*
X199650257Y-149853252D01*
X199666536Y-149986570D01*
X199669914Y-150014349D01*
X199679539Y-150091868D01*
X199688412Y-150161052D01*
X199696001Y-150217885D01*
X199701775Y-150258346D01*
X199705200Y-150278418D01*
X199707238Y-150285674D01*
X199713176Y-150295305D01*
X199725841Y-150301298D01*
X199749697Y-150304510D01*
X199789205Y-150305800D01*
X199848827Y-150306025D01*
X199902338Y-150305539D01*
X200081935Y-150297498D01*
X200261384Y-150280213D01*
X200434760Y-150254515D01*
X200596136Y-150221233D01*
X200739585Y-150181200D01*
X200817573Y-150155814D01*
X200809570Y-150098841D01*
X200803144Y-150053631D01*
X200782284Y-149914084D01*
X200761900Y-149788445D01*
X200742456Y-149679354D01*
X200724414Y-149589450D01*
X200708237Y-149521373D01*
X200689135Y-149445295D01*
X200675660Y-149375791D01*
X200670653Y-149320006D01*
X200673719Y-149273112D01*
X200684464Y-149230278D01*
X200712478Y-149169336D01*
X200763439Y-149103346D01*
X200827766Y-149051838D01*
X200901503Y-149016113D01*
X200980695Y-148997470D01*
X201061386Y-148997210D01*
X201139621Y-149016633D01*
X201211445Y-149057040D01*
X201226433Y-149068689D01*
X201255233Y-149093317D01*
X201279495Y-149119088D01*
X201300046Y-149148589D01*
X201317711Y-149184403D01*
X201333315Y-149229115D01*
X201347683Y-149285309D01*
X201361642Y-149355571D01*
X201376017Y-149442484D01*
X201391633Y-149548634D01*
X201409316Y-149676606D01*
X201417675Y-149737139D01*
X201428735Y-149814226D01*
X201438739Y-149880592D01*
X201447152Y-149932826D01*
X201453439Y-149967515D01*
X201457066Y-149981249D01*
X201465704Y-149982533D01*
X201494575Y-149980991D01*
X201538274Y-149976140D01*
X201591404Y-149968495D01*
X201669169Y-149955079D01*
X201889543Y-149903681D01*
X202095312Y-149834485D01*
X202289034Y-149746679D01*
X202396247Y-149691306D01*
X202391679Y-149620820D01*
X202386712Y-149556008D01*
X202376512Y-149457279D01*
X202363752Y-149361562D01*
X202349266Y-149274247D01*
X202333884Y-149200720D01*
X202318438Y-149146370D01*
X202295720Y-149076641D01*
X202279434Y-149007688D01*
X202274257Y-148949360D01*
X202279302Y-148895989D01*
X202304198Y-148818451D01*
X202349210Y-148746726D01*
X202409653Y-148687955D01*
X202481717Y-148644408D01*
X202561588Y-148618356D01*
X202645455Y-148612069D01*
X202729505Y-148627819D01*
X202796031Y-148658606D01*
X202865148Y-148715044D01*
X202922571Y-148792843D01*
X202968396Y-148892140D01*
X203002720Y-149013071D01*
X203003630Y-149017393D01*
X203011964Y-149067374D01*
X203020680Y-149135483D01*
X203029249Y-149215952D01*
X203037144Y-149303014D01*
X203043837Y-149390903D01*
X203048800Y-149473852D01*
X203051506Y-149546093D01*
X203062031Y-149550514D01*
X203092199Y-149548716D01*
X203138015Y-149541094D01*
X203195477Y-149528317D01*
X203260581Y-149511057D01*
X203331610Y-149487219D01*
X203435592Y-149442114D01*
X203537771Y-149387339D01*
X203627803Y-149328049D01*
X203692472Y-149279991D01*
X203684790Y-149181684D01*
X203683936Y-149170832D01*
X203678949Y-149110792D01*
X203673195Y-149047282D01*
X203666358Y-148977312D01*
X203658120Y-148897895D01*
X203648167Y-148806039D01*
X203636181Y-148698756D01*
X203621847Y-148573056D01*
X203604848Y-148425951D01*
X203582746Y-148233782D01*
X203563602Y-148061346D01*
X203547919Y-147909828D01*
X203535856Y-147777487D01*
X203527576Y-147662581D01*
X203523239Y-147563371D01*
X203523009Y-147478114D01*
X203527045Y-147405069D01*
X203535509Y-147342496D01*
X203548564Y-147288653D01*
X203566370Y-147241799D01*
X203589089Y-147200194D01*
X203616882Y-147162095D01*
X203649910Y-147125763D01*
X203688336Y-147089456D01*
X203732321Y-147051432D01*
X203892241Y-146905889D01*
X204035855Y-146750666D01*
X204160511Y-146586696D01*
X204267833Y-146411318D01*
X204359448Y-146221868D01*
X204436981Y-146015684D01*
X204502055Y-145790102D01*
X204518009Y-145723984D01*
X204557363Y-145529377D01*
X204587319Y-145325424D01*
X204608239Y-145108647D01*
X204620490Y-144875569D01*
X204624436Y-144622710D01*
X204622187Y-144420994D01*
X204614511Y-144221607D01*
X204600891Y-144038012D01*
X204580816Y-143865904D01*
X204553776Y-143700976D01*
X204519262Y-143538924D01*
X204476765Y-143375443D01*
X204458068Y-143311297D01*
X204359778Y-143027336D01*
X204238853Y-142752134D01*
X204095704Y-142486074D01*
X203930742Y-142229544D01*
X203744379Y-141982930D01*
X203537026Y-141746618D01*
X203309094Y-141520993D01*
X203060995Y-141306442D01*
X202793139Y-141103351D01*
X202505939Y-140912106D01*
X202199805Y-140733093D01*
X201875149Y-140566698D01*
X201532382Y-140413308D01*
X201171916Y-140273308D01*
X201160489Y-140269195D01*
X200822362Y-140155846D01*
X200476933Y-140056285D01*
X200121742Y-139970018D01*
X199754328Y-139896552D01*
X199372231Y-139835392D01*
X198972991Y-139786045D01*
X198554147Y-139748017D01*
X198553636Y-139747979D01*
X198480099Y-139743671D01*
X198385726Y-139740082D01*
X198274216Y-139737212D01*
X198149268Y-139735059D01*
X198014581Y-139733625D01*
X197873854Y-139732910D01*
X197730787Y-139732912D01*
X197589079Y-139733633D01*
X197452429Y-139735073D01*
X197324536Y-139737231D01*
X197209100Y-139740107D01*
X197109819Y-139743702D01*
X197030393Y-139748015D01*
X196665064Y-139776776D01*
X196309903Y-139812992D01*
X195972624Y-139856458D01*
X195650238Y-139907700D01*
X195339756Y-139967241D01*
X195038189Y-140035606D01*
X194742547Y-140113319D01*
X194449841Y-140200906D01*
X194381301Y-140222969D01*
X194026717Y-140348162D01*
X193692375Y-140485633D01*
X193377048Y-140636004D01*
X193079511Y-140799894D01*
X192798536Y-140977925D01*
X192532897Y-141170716D01*
X192499306Y-141197581D01*
X192425218Y-141260868D01*
X192342074Y-141336084D01*
X192253873Y-141419286D01*
X192164615Y-141506533D01*
X192078299Y-141593884D01*
X191998924Y-141677396D01*
X191930490Y-141753129D01*
X191876996Y-141817141D01*
X191837692Y-141868062D01*
X191670979Y-142107902D01*
X191525403Y-142359093D01*
X191401662Y-142620192D01*
X191300457Y-142889759D01*
X191222486Y-143166351D01*
X191182341Y-143367192D01*
X191151120Y-143597699D01*
X191131428Y-143844017D01*
X191123289Y-144103109D01*
X190581295Y-144103109D01*
X190581616Y-144061838D01*
X190583697Y-143938047D01*
X190586828Y-143818824D01*
X190590947Y-143708169D01*
X190595993Y-143610081D01*
X190601902Y-143528560D01*
X190608612Y-143467606D01*
X190628117Y-143341731D01*
X190679722Y-143076668D01*
X190744020Y-142827150D01*
X190822435Y-142588620D01*
X190916389Y-142356519D01*
X191027305Y-142126290D01*
X191170808Y-141872143D01*
X191341159Y-141616358D01*
X191531135Y-141373514D01*
X191741523Y-141142682D01*
X191973114Y-140922932D01*
X192226696Y-140713335D01*
X192361551Y-140612422D01*
X192658665Y-140411605D01*
X192975009Y-140225340D01*
X193310092Y-140053769D01*
X193663422Y-139897031D01*
X194034507Y-139755269D01*
X194422855Y-139628623D01*
X194827975Y-139517234D01*
X195249375Y-139421243D01*
X195686564Y-139340791D01*
X196139049Y-139276020D01*
X196606339Y-139227070D01*
X197087943Y-139194082D01*
X197583368Y-139177197D01*
X197765259Y-139175292D01*
X198251919Y-139183024D01*
X198728858Y-139209433D01*
X199195392Y-139254316D01*
X199650837Y-139317472D01*
X200094509Y-139398697D01*
X200525724Y-139497791D01*
X200943798Y-139614550D01*
X201348047Y-139748773D01*
X201737787Y-139900258D01*
X202112333Y-140068801D01*
X202471003Y-140254202D01*
X202813110Y-140456258D01*
X203137973Y-140674767D01*
X203444906Y-140909527D01*
X203451481Y-140914910D01*
X203535972Y-140987253D01*
X203630312Y-141072959D01*
X203730374Y-141167899D01*
X203832029Y-141267946D01*
X203931149Y-141368972D01*
X204023607Y-141466848D01*
X204105275Y-141557448D01*
X204172024Y-141636643D01*
X204276370Y-141770835D01*
X204464314Y-142038551D01*
X204628932Y-142311417D01*
X204770962Y-142591108D01*
X204891140Y-142879302D01*
X204990203Y-143177677D01*
X205068890Y-143487910D01*
X205127937Y-143811679D01*
X205135577Y-143868954D01*
X205146977Y-143981250D01*
X205156557Y-144110297D01*
X205164155Y-144251235D01*
X205169605Y-144399203D01*
X205172746Y-144549340D01*
X205173078Y-144622710D01*
X205173414Y-144696785D01*
G37*
D12*
%TO.C,MCU1*%
X276595600Y-122008900D02*
X273935600Y-122008900D01*
X276595600Y-94008900D02*
X273935600Y-94008900D01*
X276595600Y-91408900D02*
X276595600Y-122008900D01*
X276595600Y-91408900D02*
X273935600Y-91408900D01*
X273935600Y-91408900D02*
X273935600Y-122008900D01*
X261355600Y-122008900D02*
X258695600Y-122008900D01*
X261355600Y-91408900D02*
X261355600Y-122008900D01*
X261355600Y-91408900D02*
X258695600Y-91408900D01*
X258695600Y-91408900D02*
X258695600Y-122008900D01*
D13*
%TO.C,BAT1*%
X270545600Y-134438900D02*
X270545600Y-133438900D01*
X270545600Y-131438900D02*
X270545600Y-132438900D01*
X270045600Y-133938900D02*
X271045600Y-133938900D01*
D12*
X269505600Y-135998900D02*
X268505600Y-135998900D01*
X269505600Y-135078900D02*
X269505600Y-135998900D01*
X269505600Y-130798900D02*
X269505600Y-129878900D01*
X269505600Y-129878900D02*
X268505600Y-129878900D01*
X261685600Y-135998900D02*
X262685600Y-135998900D01*
X261685600Y-134998900D02*
X261685600Y-135998900D01*
X261685600Y-130798900D02*
X261685600Y-129878900D01*
X261685600Y-129878900D02*
X262685600Y-129878900D01*
%TO.C,DISP1*%
X274055600Y-125968900D02*
X261235600Y-125968900D01*
X274055600Y-123308900D02*
X274055600Y-125968900D01*
X274055600Y-123308900D02*
X261235600Y-123308900D01*
X261235600Y-123308900D02*
X261235600Y-125968900D01*
D10*
%TO.C,RST1*%
X277895600Y-133438900D02*
X277645600Y-133438900D01*
X277895600Y-127438900D02*
X277895600Y-133438900D01*
X277645600Y-127438900D02*
X277895600Y-127438900D01*
X274645600Y-133438900D02*
X274395600Y-133438900D01*
X274395600Y-133438900D02*
X274395600Y-127438900D01*
X274395600Y-127438900D02*
X274645600Y-127438900D01*
D12*
%TO.C,PWR1*%
X277570600Y-138088900D02*
X277570600Y-143788900D01*
X276560600Y-144388900D02*
X275770600Y-144388900D01*
X275770600Y-137488900D02*
X276560600Y-137488900D01*
X274720600Y-142338900D02*
X274720600Y-142538900D01*
X274720600Y-139338900D02*
X274720600Y-141038900D01*
D13*
%TO.C,D39*%
X229145600Y-96688900D02*
X228345600Y-96688900D01*
X228745600Y-96688900D02*
X228745600Y-97188900D01*
X228745600Y-96088900D02*
X229295600Y-96088900D01*
X228745600Y-96088900D02*
X229145600Y-96688900D01*
X228745600Y-96088900D02*
X228195600Y-96088900D01*
X228745600Y-95688900D02*
X228745600Y-96088900D01*
X228345600Y-96688900D02*
X228745600Y-96088900D01*
D10*
%TO.C,SW4*%
X167593455Y-150043074D02*
G75*
G02*
X165622896Y-148948867I-438176J1532383D01*
G01*
X166430821Y-152846054D02*
G75*
G02*
X167060045Y-153305264I85007J-544217D01*
G01*
X170778797Y-153966543D02*
X171163915Y-153373513D01*
X169843195Y-149564879D02*
X170436224Y-149949997D01*
X167844354Y-154590278D02*
X170778797Y-153966543D01*
X167593455Y-150043074D02*
X169843195Y-149564879D01*
X167251325Y-154205160D02*
X167844354Y-154590278D01*
X167251325Y-154205160D02*
X167060046Y-153305264D01*
X166430821Y-152846054D02*
X162048719Y-153777497D01*
X165473199Y-148244601D02*
X165618737Y-148929304D01*
X162048719Y-153777497D02*
X161923972Y-153190608D01*
X161175490Y-149669277D02*
X161071534Y-149180203D01*
X161071534Y-149180203D02*
X165473199Y-148244601D01*
D13*
%TO.C,D34*%
X211145600Y-128688900D02*
X210345600Y-128688900D01*
X210745600Y-128688900D02*
X210745600Y-129188900D01*
X210745600Y-128088900D02*
X211295600Y-128088900D01*
X210745600Y-128088900D02*
X211145600Y-128688900D01*
X210745600Y-128088900D02*
X210195600Y-128088900D01*
X210745600Y-127688900D02*
X210745600Y-128088900D01*
X210345600Y-128688900D02*
X210745600Y-128088900D01*
%TO.C,D26*%
X156476137Y-129965772D02*
X155693619Y-130132102D01*
X156084878Y-130048937D02*
X156188834Y-130538011D01*
X155960131Y-129462048D02*
X156498112Y-129347697D01*
X155960131Y-129462048D02*
X156476137Y-129965772D01*
X155960131Y-129462048D02*
X155422150Y-129576400D01*
X155876966Y-129070789D02*
X155960131Y-129462048D01*
X155693619Y-130132102D02*
X155960131Y-129462048D01*
%TO.C,D33*%
X190969336Y-89081323D02*
X190170432Y-89123192D01*
X190569884Y-89102257D02*
X190596052Y-89601572D01*
X190538482Y-88503080D02*
X191087729Y-88474295D01*
X190538482Y-88503080D02*
X190969336Y-89081323D01*
X190538482Y-88503080D02*
X189989236Y-88531864D01*
X190517548Y-88103628D02*
X190538482Y-88503080D01*
X190170432Y-89123192D02*
X190538482Y-88503080D01*
D10*
%TO.C,SW2*%
X146452255Y-137156974D02*
G75*
G02*
X144481696Y-136062767I-438176J1532383D01*
G01*
X145289621Y-139959954D02*
G75*
G02*
X145918845Y-140419164I85007J-544217D01*
G01*
X149637597Y-141080443D02*
X150022715Y-140487413D01*
X148701995Y-136678779D02*
X149295024Y-137063897D01*
X146703154Y-141704178D02*
X149637597Y-141080443D01*
X146452255Y-137156974D02*
X148701995Y-136678779D01*
X146110125Y-141319060D02*
X146703154Y-141704178D01*
X146110125Y-141319060D02*
X145918846Y-140419164D01*
X145289621Y-139959954D02*
X140907519Y-140891397D01*
X144331999Y-135358501D02*
X144477537Y-136043204D01*
X140907519Y-140891397D02*
X140782772Y-140304508D01*
X140034290Y-136783177D02*
X139930334Y-136294103D01*
X139930334Y-136294103D02*
X144331999Y-135358501D01*
%TO.C,SW19*%
X215171120Y-159194545D02*
G75*
G02*
X213348599Y-157868342I-248159J1574362D01*
G01*
X213675555Y-161834940D02*
G75*
G02*
X214244126Y-162367412I18050J-550521D01*
G01*
X217854569Y-163476963D02*
X218309089Y-162935288D01*
X217462368Y-158994087D02*
X218004046Y-159448606D01*
X215171120Y-159194545D02*
X217462368Y-158994087D01*
X214865985Y-163738430D02*
X217854569Y-163476963D01*
X214324310Y-163283911D02*
X214865985Y-163738430D01*
X214324310Y-163283911D02*
X214244127Y-162367412D01*
X213675555Y-161834940D02*
X209212603Y-162225397D01*
X213285847Y-157151081D02*
X213346856Y-157848418D01*
X209212603Y-162225397D02*
X209160309Y-161627681D01*
X208846549Y-158041380D02*
X208802971Y-157543282D01*
X208802971Y-157543282D02*
X213285847Y-157151081D01*
D13*
%TO.C,D35*%
X211145600Y-111688900D02*
X210345600Y-111688900D01*
X210745600Y-111688900D02*
X210745600Y-112188900D01*
X210745600Y-111088900D02*
X211295600Y-111088900D01*
X210745600Y-111088900D02*
X211145600Y-111688900D01*
X210745600Y-111088900D02*
X210195600Y-111088900D01*
X210745600Y-110688900D02*
X210745600Y-111088900D01*
X210345600Y-111688900D02*
X210745600Y-111088900D01*
D10*
%TO.C,SW5*%
X164058955Y-133414574D02*
G75*
G02*
X162088396Y-132320367I-438176J1532383D01*
G01*
X162896321Y-136217554D02*
G75*
G02*
X163525545Y-136676764I85007J-544217D01*
G01*
X167244297Y-137338043D02*
X167629415Y-136745013D01*
X166308695Y-132936379D02*
X166901724Y-133321497D01*
X164309854Y-137961778D02*
X167244297Y-137338043D01*
X164058955Y-133414574D02*
X166308695Y-132936379D01*
X163716825Y-137576660D02*
X164309854Y-137961778D01*
X163716825Y-137576660D02*
X163525546Y-136676764D01*
X162896321Y-136217554D02*
X158514219Y-137148997D01*
X161938699Y-131616101D02*
X162084237Y-132300804D01*
X158514219Y-137148997D02*
X158389472Y-136562108D01*
X157640990Y-133040777D02*
X157537034Y-132551703D01*
X157537034Y-132551703D02*
X161938699Y-131616101D01*
%TO.C,SW3*%
X142917755Y-120528474D02*
G75*
G02*
X140947196Y-119434267I-438176J1532383D01*
G01*
X141755121Y-123331454D02*
G75*
G02*
X142384345Y-123790664I85007J-544217D01*
G01*
X146103097Y-124451943D02*
X146488215Y-123858913D01*
X145167495Y-120050279D02*
X145760524Y-120435397D01*
X143168654Y-125075678D02*
X146103097Y-124451943D01*
X142917755Y-120528474D02*
X145167495Y-120050279D01*
X142575625Y-124690560D02*
X143168654Y-125075678D01*
X142575625Y-124690560D02*
X142384346Y-123790664D01*
X141755121Y-123331454D02*
X137373019Y-124262897D01*
X140797499Y-118730001D02*
X140943037Y-119414704D01*
X137373019Y-124262897D02*
X137248272Y-123676008D01*
X136499790Y-120154677D02*
X136395834Y-119665603D01*
X136395834Y-119665603D02*
X140797499Y-118730001D01*
%TO.C,SW13*%
X217845600Y-133638900D02*
G75*
G02*
X216145600Y-132158900I-110000J1590000D01*
G01*
X216125600Y-136138900D02*
G75*
G02*
X216645600Y-136718900I-30000J-550000D01*
G01*
X220145600Y-138138900D02*
X220645600Y-137638900D01*
X220145600Y-133638900D02*
X220645600Y-134138900D01*
X217845600Y-133638900D02*
X220145600Y-133638900D01*
X217145600Y-138138900D02*
X220145600Y-138138900D01*
X216645600Y-137638900D02*
X217145600Y-138138900D01*
X216645600Y-137638900D02*
X216645600Y-136718900D01*
X216145600Y-131438900D02*
X216145600Y-132138900D01*
X216125600Y-136138900D02*
X211645600Y-136138900D01*
X211645600Y-136138900D02*
X211645600Y-135538900D01*
X211645600Y-131938900D02*
X211645600Y-131438900D01*
X211645600Y-131438900D02*
X216145600Y-131438900D01*
D13*
%TO.C,D25*%
X160010637Y-146594272D02*
X159228119Y-146760602D01*
X159619378Y-146677437D02*
X159723334Y-147166511D01*
X159494631Y-146090548D02*
X160032612Y-145976197D01*
X159494631Y-146090548D02*
X160010637Y-146594272D01*
X159494631Y-146090548D02*
X158956650Y-146204900D01*
X159411466Y-145699289D02*
X159494631Y-146090548D01*
X159228119Y-146760602D02*
X159494631Y-146090548D01*
%TO.C,D27*%
X152941637Y-113337272D02*
X152159119Y-113503602D01*
X152550378Y-113420437D02*
X152654334Y-113909511D01*
X152425631Y-112833548D02*
X152963612Y-112719197D01*
X152425631Y-112833548D02*
X152941637Y-113337272D01*
X152425631Y-112833548D02*
X151887650Y-112947900D01*
X152342466Y-112442289D02*
X152425631Y-112833548D01*
X152159119Y-113503602D02*
X152425631Y-112833548D01*
D10*
%TO.C,SW21*%
X259741392Y-163710596D02*
G75*
G02*
X258581941Y-161777703I386721J1546172D01*
G01*
X257333032Y-165556728D02*
G75*
G02*
X257648351Y-166269029I-198491J-513810D01*
G01*
X261928822Y-164421335D02*
X262249842Y-165051371D01*
X260538245Y-168701089D02*
X261168282Y-168380069D01*
X259741392Y-163710596D02*
X261928822Y-164421335D01*
X258804433Y-161092942D02*
X258588121Y-161758682D01*
X257685076Y-167774038D02*
X260538245Y-168701089D01*
X257364056Y-167144001D02*
X257685076Y-167774038D01*
X257364056Y-167144001D02*
X257648352Y-166269029D01*
X257333032Y-165556728D02*
X253072299Y-164172331D01*
X254524679Y-159702366D02*
X258804433Y-161092942D01*
X254370170Y-160177894D02*
X254524679Y-159702366D01*
X253072299Y-164172331D02*
X253257709Y-163601698D01*
%TO.C,SW15*%
X217845600Y-99638900D02*
G75*
G02*
X216145600Y-98158900I-110000J1590000D01*
G01*
X216125600Y-102138900D02*
G75*
G02*
X216645600Y-102718900I-30000J-550000D01*
G01*
X220145600Y-104138900D02*
X220645600Y-103638900D01*
X220145600Y-99638900D02*
X220645600Y-100138900D01*
X217845600Y-99638900D02*
X220145600Y-99638900D01*
X217145600Y-104138900D02*
X220145600Y-104138900D01*
X216645600Y-103638900D02*
X217145600Y-104138900D01*
X216645600Y-103638900D02*
X216645600Y-102718900D01*
X216145600Y-97438900D02*
X216145600Y-98138900D01*
X216125600Y-102138900D02*
X211645600Y-102138900D01*
X211645600Y-102138900D02*
X211645600Y-101538900D01*
X211645600Y-97938900D02*
X211645600Y-97438900D01*
X211645600Y-97438900D02*
X216145600Y-97438900D01*
%TO.C,SW14*%
X217845600Y-116638900D02*
G75*
G02*
X216145600Y-115158900I-110000J1590000D01*
G01*
X216125600Y-119138900D02*
G75*
G02*
X216645600Y-119718900I-30000J-550000D01*
G01*
X220145600Y-121138900D02*
X220645600Y-120638900D01*
X220145600Y-116638900D02*
X220645600Y-117138900D01*
X217845600Y-116638900D02*
X220145600Y-116638900D01*
X217145600Y-121138900D02*
X220145600Y-121138900D01*
X216645600Y-120638900D02*
X217145600Y-121138900D01*
X216645600Y-120638900D02*
X216645600Y-119718900D01*
X216145600Y-114438900D02*
X216145600Y-115138900D01*
X216125600Y-119138900D02*
X211645600Y-119138900D01*
X211645600Y-119138900D02*
X211645600Y-118538900D01*
X211645600Y-114938900D02*
X211645600Y-114438900D01*
X211645600Y-114438900D02*
X216145600Y-114438900D01*
D13*
%TO.C,D32*%
X191859036Y-106058023D02*
X191060132Y-106099892D01*
X191459584Y-106078957D02*
X191485752Y-106578272D01*
X191428182Y-105479780D02*
X191977429Y-105450995D01*
X191428182Y-105479780D02*
X191859036Y-106058023D01*
X191428182Y-105479780D02*
X190878936Y-105508564D01*
X191407248Y-105080328D02*
X191428182Y-105479780D01*
X191060132Y-106099892D02*
X191428182Y-105479780D01*
%TO.C,D41*%
X231283089Y-153540011D02*
X230486133Y-153470286D01*
X230971767Y-152508954D02*
X230936906Y-152907432D01*
X230936906Y-152907432D02*
X231484812Y-152955368D01*
X230936906Y-152907432D02*
X231283089Y-153540011D01*
X230936906Y-152907432D02*
X230388997Y-152859496D01*
X230884611Y-153505149D02*
X230841033Y-154003246D01*
X230486133Y-153470286D02*
X230936906Y-152907432D01*
D10*
%TO.C,SW11*%
X198808939Y-110650598D02*
G75*
G02*
X197033812Y-109261597I-193063J1582064D01*
G01*
X197222137Y-113237190D02*
G75*
G02*
X197771778Y-113789180I-1175J-550816D01*
G01*
X201341299Y-115024058D02*
X201814446Y-114498576D01*
X201105787Y-110530225D02*
X201631270Y-111003372D01*
X198808939Y-110650598D02*
X201105787Y-110530225D01*
X198345411Y-115181066D02*
X201341299Y-115024058D01*
X197819928Y-114707919D02*
X198345411Y-115181066D01*
X197819928Y-114707919D02*
X197771779Y-113789180D01*
X197222137Y-113237190D02*
X192748276Y-113471655D01*
X196996130Y-108542584D02*
X197032765Y-109241625D01*
X192748276Y-113471655D02*
X192716875Y-112872477D01*
X192528465Y-109277411D02*
X192502297Y-108778096D01*
X192502297Y-108778096D02*
X196996130Y-108542584D01*
%TO.C,SW6*%
X160524455Y-116786074D02*
G75*
G02*
X158553896Y-115691867I-438176J1532383D01*
G01*
X159361821Y-119589054D02*
G75*
G02*
X159991045Y-120048264I85007J-544217D01*
G01*
X163709797Y-120709543D02*
X164094915Y-120116513D01*
X162774195Y-116307879D02*
X163367224Y-116692997D01*
X160775354Y-121333278D02*
X163709797Y-120709543D01*
X160524455Y-116786074D02*
X162774195Y-116307879D01*
X160182325Y-120948160D02*
X160775354Y-121333278D01*
X160182325Y-120948160D02*
X159991046Y-120048264D01*
X159361821Y-119589054D02*
X154979719Y-120520497D01*
X158404199Y-114987601D02*
X158549737Y-115672304D01*
X154979719Y-120520497D02*
X154854972Y-119933608D01*
X154106490Y-116412277D02*
X154002534Y-115923203D01*
X154002534Y-115923203D02*
X158404199Y-114987601D01*
D13*
%TO.C,D40*%
X208065167Y-154847286D02*
X207268211Y-154917011D01*
X207666689Y-154882149D02*
X207710267Y-155380246D01*
X207614394Y-154284432D02*
X208162303Y-154236496D01*
X207614394Y-154284432D02*
X208065167Y-154847286D01*
X207614394Y-154284432D02*
X207066488Y-154332368D01*
X207579533Y-153885954D02*
X207614394Y-154284432D01*
X207268211Y-154917011D02*
X207614394Y-154284432D01*
%TO.C,D31*%
X192748736Y-123034723D02*
X191949832Y-123076592D01*
X192349284Y-123055657D02*
X192375452Y-123554972D01*
X192317882Y-122456480D02*
X192867129Y-122427695D01*
X192317882Y-122456480D02*
X192748736Y-123034723D01*
X192317882Y-122456480D02*
X191768636Y-122485264D01*
X192296948Y-122057028D02*
X192317882Y-122456480D01*
X191949832Y-123076592D02*
X192317882Y-122456480D01*
D10*
%TO.C,SW12*%
X197919239Y-93673898D02*
G75*
G02*
X196144112Y-92284897I-193063J1582064D01*
G01*
X196332437Y-96260490D02*
G75*
G02*
X196882078Y-96812480I-1175J-550816D01*
G01*
X200451599Y-98047358D02*
X200924746Y-97521876D01*
X200216087Y-93553525D02*
X200741570Y-94026672D01*
X197919239Y-93673898D02*
X200216087Y-93553525D01*
X197455711Y-98204366D02*
X200451599Y-98047358D01*
X196930228Y-97731219D02*
X197455711Y-98204366D01*
X196930228Y-97731219D02*
X196882079Y-96812480D01*
X196332437Y-96260490D02*
X191858576Y-96494955D01*
X196106430Y-91565884D02*
X196143065Y-92264925D01*
X191858576Y-96494955D02*
X191827175Y-95895777D01*
X191638765Y-92300711D02*
X191612597Y-91801396D01*
X191612597Y-91801396D02*
X196106430Y-91565884D01*
D13*
%TO.C,D22*%
X142404037Y-150336672D02*
X141621519Y-150503002D01*
X142012778Y-150419837D02*
X142116734Y-150908911D01*
X141888031Y-149832948D02*
X142426012Y-149718597D01*
X141888031Y-149832948D02*
X142404037Y-150336672D01*
X141888031Y-149832948D02*
X141350050Y-149947300D01*
X141804866Y-149441689D02*
X141888031Y-149832948D01*
X141621519Y-150503002D02*
X141888031Y-149832948D01*
%TO.C,D24*%
X135335037Y-117079672D02*
X134552519Y-117246002D01*
X134943778Y-117162837D02*
X135047734Y-117651911D01*
X134819031Y-116575948D02*
X135357012Y-116461597D01*
X134819031Y-116575948D02*
X135335037Y-117079672D01*
X134819031Y-116575948D02*
X134281050Y-116690300D01*
X134735866Y-116184689D02*
X134819031Y-116575948D01*
X134552519Y-117246002D02*
X134819031Y-116575948D01*
D10*
%TO.C,SW18*%
X235845600Y-101638900D02*
G75*
G02*
X234145600Y-100158900I-110000J1590000D01*
G01*
X234125600Y-104138900D02*
G75*
G02*
X234645600Y-104718900I-30000J-550000D01*
G01*
X238145600Y-106138900D02*
X238645600Y-105638900D01*
X238145600Y-101638900D02*
X238645600Y-102138900D01*
X235845600Y-101638900D02*
X238145600Y-101638900D01*
X235145600Y-106138900D02*
X238145600Y-106138900D01*
X234645600Y-105638900D02*
X235145600Y-106138900D01*
X234645600Y-105638900D02*
X234645600Y-104718900D01*
X234145600Y-99438900D02*
X234145600Y-100138900D01*
X234125600Y-104138900D02*
X229645600Y-104138900D01*
X229645600Y-104138900D02*
X229645600Y-103538900D01*
X229645600Y-99938900D02*
X229645600Y-99438900D01*
X229645600Y-99438900D02*
X234145600Y-99438900D01*
%TO.C,SW16*%
X235845600Y-135638900D02*
G75*
G02*
X234145600Y-134158900I-110000J1590000D01*
G01*
X234125600Y-138138900D02*
G75*
G02*
X234645600Y-138718900I-30000J-550000D01*
G01*
X238145600Y-140138900D02*
X238645600Y-139638900D01*
X238145600Y-135638900D02*
X238645600Y-136138900D01*
X235845600Y-135638900D02*
X238145600Y-135638900D01*
X235145600Y-140138900D02*
X238145600Y-140138900D01*
X234645600Y-139638900D02*
X235145600Y-140138900D01*
X234645600Y-139638900D02*
X234645600Y-138718900D01*
X234145600Y-133438900D02*
X234145600Y-134138900D01*
X234125600Y-138138900D02*
X229645600Y-138138900D01*
X229645600Y-138138900D02*
X229645600Y-137538900D01*
X229645600Y-133938900D02*
X229645600Y-133438900D01*
X229645600Y-133438900D02*
X234145600Y-133438900D01*
D13*
%TO.C,D28*%
X175544641Y-132274519D02*
X174749023Y-132358142D01*
X175146832Y-132316330D02*
X175199096Y-132813591D01*
X175084115Y-131719617D02*
X175631102Y-131662127D01*
X175084115Y-131719617D02*
X175544641Y-132274519D01*
X175084115Y-131719617D02*
X174537128Y-131777108D01*
X175042304Y-131321809D02*
X175084115Y-131719617D01*
X174749023Y-132358142D02*
X175084115Y-131719617D01*
%TO.C,D23*%
X138869537Y-133708172D02*
X138087019Y-133874502D01*
X138478278Y-133791337D02*
X138582234Y-134280411D01*
X138353531Y-133204448D02*
X138891512Y-133090097D01*
X138353531Y-133204448D02*
X138869537Y-133708172D01*
X138353531Y-133204448D02*
X137815550Y-133318800D01*
X138270366Y-132813189D02*
X138353531Y-133204448D01*
X138087019Y-133874502D02*
X138353531Y-133204448D01*
D10*
%TO.C,SW10*%
X199698639Y-127627298D02*
G75*
G02*
X197923512Y-126238297I-193063J1582064D01*
G01*
X198111837Y-130213890D02*
G75*
G02*
X198661478Y-130765880I-1175J-550816D01*
G01*
X202230999Y-132000758D02*
X202704146Y-131475276D01*
X201995487Y-127506925D02*
X202520970Y-127980072D01*
X199698639Y-127627298D02*
X201995487Y-127506925D01*
X199235111Y-132157766D02*
X202230999Y-132000758D01*
X198709628Y-131684619D02*
X199235111Y-132157766D01*
X198709628Y-131684619D02*
X198661479Y-130765880D01*
X198111837Y-130213890D02*
X193637976Y-130448355D01*
X197885830Y-125519284D02*
X197922465Y-126218325D01*
X193637976Y-130448355D02*
X193606575Y-129849177D01*
X193418165Y-126254111D02*
X193391997Y-125754796D01*
X193391997Y-125754796D02*
X197885830Y-125519284D01*
%TO.C,SW20*%
X237526168Y-159055096D02*
G75*
G02*
X235961627Y-157432563I28996J1593537D01*
G01*
X235594824Y-161395675D02*
G75*
G02*
X236062294Y-162018789I-77822J-545292D01*
G01*
X239817416Y-159255554D02*
X240271935Y-159797229D01*
X239425215Y-163738430D02*
X239966890Y-163283911D01*
X237526168Y-159055096D02*
X239817416Y-159255554D01*
X236436631Y-163476963D02*
X239425215Y-163738430D01*
X236024380Y-156715303D02*
X235963371Y-157412639D01*
X235982111Y-162935288D02*
X236436631Y-163476963D01*
X235982111Y-162935288D02*
X236062295Y-162018789D01*
X235594824Y-161395675D02*
X231131872Y-161005217D01*
X231541503Y-156323102D02*
X236024380Y-156715303D01*
X231497926Y-156821199D02*
X231541503Y-156323102D01*
X231131872Y-161005217D02*
X231184165Y-160407500D01*
D13*
%TO.C,D38*%
X229145600Y-113688900D02*
X228345600Y-113688900D01*
X228745600Y-113688900D02*
X228745600Y-114188900D01*
X228745600Y-113088900D02*
X229295600Y-113088900D01*
X228745600Y-113088900D02*
X229145600Y-113688900D01*
X228745600Y-113088900D02*
X228195600Y-113088900D01*
X228745600Y-112688900D02*
X228745600Y-113088900D01*
X228345600Y-113688900D02*
X228745600Y-113088900D01*
%TO.C,D30*%
X171990641Y-98460819D02*
X171195023Y-98544442D01*
X171592832Y-98502630D02*
X171645096Y-98999891D01*
X171530115Y-97905917D02*
X172077102Y-97848427D01*
X171530115Y-97905917D02*
X171990641Y-98460819D01*
X171530115Y-97905917D02*
X170983128Y-97963408D01*
X171488304Y-97508109D02*
X171530115Y-97905917D01*
X171195023Y-98544442D02*
X171530115Y-97905917D01*
D10*
%TO.C,SW17*%
X235845600Y-118638900D02*
G75*
G02*
X234145600Y-117158900I-110000J1590000D01*
G01*
X234125600Y-121138900D02*
G75*
G02*
X234645600Y-121718900I-30000J-550000D01*
G01*
X238145600Y-123138900D02*
X238645600Y-122638900D01*
X238145600Y-118638900D02*
X238645600Y-119138900D01*
X235845600Y-118638900D02*
X238145600Y-118638900D01*
X235145600Y-123138900D02*
X238145600Y-123138900D01*
X234645600Y-122638900D02*
X235145600Y-123138900D01*
X234645600Y-122638900D02*
X234645600Y-121718900D01*
X234145600Y-116438900D02*
X234145600Y-117138900D01*
X234125600Y-121138900D02*
X229645600Y-121138900D01*
X229645600Y-121138900D02*
X229645600Y-120538900D01*
X229645600Y-116938900D02*
X229645600Y-116438900D01*
X229645600Y-116438900D02*
X234145600Y-116438900D01*
D13*
%TO.C,D36*%
X211145600Y-94688900D02*
X210345600Y-94688900D01*
X210745600Y-94688900D02*
X210745600Y-95188900D01*
X210745600Y-94088900D02*
X211295600Y-94088900D01*
X210745600Y-94088900D02*
X211145600Y-94688900D01*
X210745600Y-94088900D02*
X210195600Y-94088900D01*
X210745600Y-93688900D02*
X210745600Y-94088900D01*
X210345600Y-94688900D02*
X210745600Y-94088900D01*
%TO.C,D42*%
X254898968Y-156932471D02*
X254138123Y-156685257D01*
X254827563Y-155857808D02*
X254703956Y-156238230D01*
X254703956Y-156238230D02*
X255227037Y-156408190D01*
X254703956Y-156238230D02*
X254898968Y-156932471D01*
X254703956Y-156238230D02*
X254180875Y-156068271D01*
X254518546Y-156808864D02*
X254364037Y-157284392D01*
X254138123Y-156685257D02*
X254703956Y-156238230D01*
D10*
%TO.C,SW8*%
X180948338Y-119590154D02*
G75*
G02*
X179102948Y-118295960I-275598J1569792D01*
G01*
X179499081Y-122256245D02*
G75*
G02*
X180076861Y-122778715I27655J-550125D01*
G01*
X183706116Y-123825087D02*
X184151113Y-123275562D01*
X183235738Y-119349738D02*
X183785263Y-119794735D01*
X180948338Y-119590154D02*
X183235738Y-119349738D01*
X180722551Y-124138672D02*
X183706116Y-123825087D01*
X180173025Y-123693676D02*
X180722551Y-124138672D01*
X180173025Y-123693676D02*
X180076859Y-122778715D01*
X179499081Y-122256245D02*
X175043623Y-122724535D01*
X179027688Y-117579904D02*
X179100858Y-118276069D01*
X175043623Y-122724535D02*
X174980906Y-122127822D01*
X174604604Y-118547543D02*
X174552339Y-118050282D01*
X174552339Y-118050282D02*
X179027688Y-117579904D01*
%TO.C,SW9*%
X179171338Y-102683354D02*
G75*
G02*
X177325948Y-101389160I-275598J1569792D01*
G01*
X177722081Y-105349445D02*
G75*
G02*
X178299861Y-105871915I27655J-550125D01*
G01*
X181929116Y-106918287D02*
X182374113Y-106368762D01*
X181458738Y-102442938D02*
X182008263Y-102887935D01*
X179171338Y-102683354D02*
X181458738Y-102442938D01*
X178945551Y-107231872D02*
X181929116Y-106918287D01*
X178396025Y-106786876D02*
X178945551Y-107231872D01*
X178396025Y-106786876D02*
X178299859Y-105871915D01*
X177722081Y-105349445D02*
X173266623Y-105817735D01*
X177250688Y-100673104D02*
X177323858Y-101369269D01*
X173266623Y-105817735D02*
X173203906Y-105221022D01*
X172827604Y-101640743D02*
X172775339Y-101143482D01*
X172775339Y-101143482D02*
X177250688Y-100673104D01*
D13*
%TO.C,D37*%
X229145600Y-130688900D02*
X228345600Y-130688900D01*
X228745600Y-130688900D02*
X228745600Y-131188900D01*
X228745600Y-130088900D02*
X229295600Y-130088900D01*
X228745600Y-130088900D02*
X229145600Y-130688900D01*
X228745600Y-130088900D02*
X228195600Y-130088900D01*
X228745600Y-129688900D02*
X228745600Y-130088900D01*
X228345600Y-130688900D02*
X228745600Y-130088900D01*
D10*
%TO.C,SW1*%
X149986755Y-153785474D02*
G75*
G02*
X148016196Y-152691267I-438176J1532383D01*
G01*
X148824121Y-156588454D02*
G75*
G02*
X149453345Y-157047664I85007J-544217D01*
G01*
X153172097Y-157708943D02*
X153557215Y-157115913D01*
X152236495Y-153307279D02*
X152829524Y-153692397D01*
X150237654Y-158332678D02*
X153172097Y-157708943D01*
X149986755Y-153785474D02*
X152236495Y-153307279D01*
X149644625Y-157947560D02*
X150237654Y-158332678D01*
X149644625Y-157947560D02*
X149453346Y-157047664D01*
X148824121Y-156588454D02*
X144442019Y-157519897D01*
X147866499Y-151987001D02*
X148012037Y-152671704D01*
X144442019Y-157519897D02*
X144317272Y-156933008D01*
X143568790Y-153411677D02*
X143464834Y-152922603D01*
X143464834Y-152922603D02*
X147866499Y-151987001D01*
%TO.C,SW7*%
X182725338Y-136497054D02*
G75*
G02*
X180879948Y-135202860I-275598J1569792D01*
G01*
X181276081Y-139163145D02*
G75*
G02*
X181853861Y-139685615I27655J-550125D01*
G01*
X185483116Y-140731987D02*
X185928113Y-140182462D01*
X185012738Y-136256638D02*
X185562263Y-136701635D01*
X182725338Y-136497054D02*
X185012738Y-136256638D01*
X182499551Y-141045572D02*
X185483116Y-140731987D01*
X181950025Y-140600576D02*
X182499551Y-141045572D01*
X181950025Y-140600576D02*
X181853859Y-139685615D01*
X181276081Y-139163145D02*
X176820623Y-139631435D01*
X180804688Y-134486804D02*
X180877858Y-135182969D01*
X176820623Y-139631435D02*
X176757906Y-139034722D01*
X176381604Y-135454443D02*
X176329339Y-134957182D01*
X176329339Y-134957182D02*
X180804688Y-134486804D01*
D13*
%TO.C,D29*%
X173767641Y-115367619D02*
X172972023Y-115451242D01*
X173369832Y-115409430D02*
X173422096Y-115906691D01*
X173307115Y-114812717D02*
X173854102Y-114755227D01*
X173307115Y-114812717D02*
X173767641Y-115367619D01*
X173307115Y-114812717D02*
X172760128Y-114870208D01*
X173265304Y-114414909D02*
X173307115Y-114812717D01*
X172972023Y-115451242D02*
X173307115Y-114812717D01*
%TD*%
D14*
X252645600Y-142938900D03*
X200877000Y-158738600D03*
X157036100Y-139814500D03*
X273604300Y-152758400D03*
X153501600Y-123186000D03*
X264245600Y-92738900D03*
X264245600Y-95278900D03*
X264245600Y-97818900D03*
X264245600Y-100358900D03*
X264245600Y-102898900D03*
X264245600Y-105438900D03*
X264245600Y-107978900D03*
X264245600Y-110518900D03*
X264245600Y-113058900D03*
X264245600Y-115598900D03*
X264245600Y-118138900D03*
X264245600Y-120678900D03*
X271045600Y-120678900D03*
X271045600Y-118138900D03*
X271045600Y-115598900D03*
X271045600Y-113058900D03*
X271045600Y-110518900D03*
X271045600Y-107978900D03*
X271045600Y-105438900D03*
X271045600Y-102898900D03*
X271045600Y-100358900D03*
X271045600Y-97818900D03*
X271045600Y-95278900D03*
X271045600Y-92738900D03*
X260025600Y-92738900D03*
X260025600Y-95278900D03*
X260025600Y-97818900D03*
X260025600Y-100358900D03*
X260025600Y-102898900D03*
X260025600Y-105438900D03*
X260025600Y-107978900D03*
X260025600Y-110518900D03*
X260025600Y-113058900D03*
X260025600Y-115598900D03*
X260025600Y-118138900D03*
X260025600Y-120678900D03*
X275265600Y-120678900D03*
X275265600Y-118138900D03*
X275265600Y-115598900D03*
X275265600Y-113058900D03*
X275265600Y-110518900D03*
X275265600Y-107978900D03*
X275265600Y-105438900D03*
X275265600Y-102898900D03*
X275265600Y-100358900D03*
X275265600Y-97818900D03*
X275265600Y-95278900D03*
X275265600Y-92738900D03*
X263145600Y-131938900D03*
X263145600Y-133938900D03*
X272725600Y-124638900D03*
X270185600Y-124638900D03*
X267645600Y-124638900D03*
X265105600Y-124638900D03*
X262565600Y-124638900D03*
X252645600Y-92938900D03*
X276145600Y-133688900D03*
X276145600Y-127188900D03*
X276170600Y-142438900D03*
X276170600Y-139438900D03*
X162226888Y-147401114D03*
X163495631Y-150965212D03*
X167606700Y-146257600D03*
X168843775Y-152077578D03*
X173277107Y-148886095D03*
X172986512Y-145114086D03*
X141085688Y-134515014D03*
X142354431Y-138079112D03*
X146465500Y-133371500D03*
X147702575Y-139191478D03*
X152135907Y-135999995D03*
X151845312Y-132227986D03*
X210166529Y-155918257D03*
X210991461Y-159610409D03*
X215645600Y-155438900D03*
X216164177Y-161366258D03*
X220953410Y-158738851D03*
X221124671Y-154959543D03*
X158692388Y-130772614D03*
X159961131Y-134336712D03*
X164072200Y-129629100D03*
X165309275Y-135449078D03*
X169742607Y-132257595D03*
X169452012Y-128485586D03*
X137551188Y-117886514D03*
X138819931Y-121450612D03*
X142931000Y-116743000D03*
X144168075Y-122562978D03*
X148601407Y-119371495D03*
X148310812Y-115599486D03*
X213145600Y-129938900D03*
X213645600Y-133688900D03*
X218645600Y-129938900D03*
X218645600Y-135888900D03*
X223645600Y-133688900D03*
X224145600Y-129938900D03*
X256414789Y-158739307D03*
X255731504Y-162460277D03*
X261645600Y-160438900D03*
X259806949Y-166097686D03*
X265242069Y-165550447D03*
X266876411Y-162138493D03*
X213145600Y-95938900D03*
X213645600Y-99688900D03*
X218645600Y-95938900D03*
X218645600Y-101888900D03*
X223645600Y-99688900D03*
X224145600Y-95938900D03*
X213145600Y-112938900D03*
X213645600Y-116688900D03*
X218645600Y-112938900D03*
X218645600Y-118888900D03*
X223645600Y-116688900D03*
X224145600Y-112938900D03*
X193921738Y-107201648D03*
X194617312Y-110920341D03*
X199414200Y-106913800D03*
X199725599Y-112855646D03*
X204603608Y-110396981D03*
X204906662Y-106625952D03*
X155157888Y-114144114D03*
X156426631Y-117708212D03*
X160537700Y-113000600D03*
X161774775Y-118820578D03*
X166208107Y-115629095D03*
X165917512Y-111857086D03*
X193032038Y-90224948D03*
X193727612Y-93943641D03*
X198524500Y-89937100D03*
X198835899Y-95878946D03*
X203713908Y-93420281D03*
X204016962Y-89649252D03*
X231145600Y-97938900D03*
X231645600Y-101688900D03*
X236645600Y-97938900D03*
X236645600Y-103888900D03*
X241645600Y-101688900D03*
X242145600Y-97938900D03*
X231145600Y-131938900D03*
X231645600Y-135688900D03*
X236645600Y-131938900D03*
X236645600Y-137888900D03*
X241645600Y-135688900D03*
X242145600Y-131938900D03*
X194811438Y-124178348D03*
X195507012Y-127897041D03*
X200303900Y-123890500D03*
X200615299Y-129832346D03*
X205493308Y-127373681D03*
X205796362Y-123602652D03*
X233166529Y-154959543D03*
X233337790Y-158738851D03*
X238645600Y-155438900D03*
X238127023Y-161366258D03*
X243299739Y-159610409D03*
X244124671Y-155918257D03*
X231145600Y-114938900D03*
X231645600Y-118688900D03*
X236645600Y-114938900D03*
X236645600Y-120888900D03*
X241645600Y-118688900D03*
X242145600Y-114938900D03*
X175887330Y-116401707D03*
X176776572Y-120078899D03*
X181357200Y-115826800D03*
X181979144Y-121744205D03*
X186721791Y-119033615D03*
X186827070Y-115251893D03*
X174110330Y-99494907D03*
X174999572Y-103172099D03*
X179580200Y-98920000D03*
X180202144Y-104837405D03*
X184944791Y-102126815D03*
X185050070Y-98345093D03*
X144620188Y-151143514D03*
X145888931Y-154707612D03*
X150000000Y-150000000D03*
X151237075Y-155819978D03*
X155670407Y-152628495D03*
X155379812Y-148856486D03*
X177664330Y-133308607D03*
X178553572Y-136985799D03*
X183134200Y-132733700D03*
X183756144Y-138651105D03*
X188498791Y-135940515D03*
X188604070Y-132158793D03*
M02*
