%TF.GenerationSoftware,KiCad,Pcbnew,8.0.6*%
%TF.CreationDate,2024-12-16T16:55:52+00:00*%
%TF.ProjectId,scorn_choc_wireless,73636f72-6e5f-4636-986f-635f77697265,v1.0.0*%
%TF.SameCoordinates,Original*%
%TF.FileFunction,Copper,L2,Bot*%
%TF.FilePolarity,Positive*%
%FSLAX46Y46*%
G04 Gerber Fmt 4.6, Leading zero omitted, Abs format (unit mm)*
G04 Created by KiCad (PCBNEW 8.0.6) date 2024-12-16 16:55:52*
%MOMM*%
%LPD*%
G01*
G04 APERTURE LIST*
G04 Aperture macros list*
%AMRotRect*
0 Rectangle, with rotation*
0 The origin of the aperture is its center*
0 $1 length*
0 $2 width*
0 $3 Rotation angle, in degrees counterclockwise*
0 Add horizontal line*
21,1,$1,$2,0,0,$3*%
%AMOutline5P*
0 Free polygon, 5 corners , with rotation*
0 The origin of the aperture is its center*
0 number of corners: always 5*
0 $1 to $10 corner X, Y*
0 $11 Rotation angle, in degrees counterclockwise*
0 create outline with 5 corners*
4,1,5,$1,$2,$3,$4,$5,$6,$7,$8,$9,$10,$1,$2,$11*%
%AMOutline6P*
0 Free polygon, 6 corners , with rotation*
0 The origin of the aperture is its center*
0 number of corners: always 6*
0 $1 to $12 corner X, Y*
0 $13 Rotation angle, in degrees counterclockwise*
0 create outline with 6 corners*
4,1,6,$1,$2,$3,$4,$5,$6,$7,$8,$9,$10,$11,$12,$1,$2,$13*%
%AMOutline7P*
0 Free polygon, 7 corners , with rotation*
0 The origin of the aperture is its center*
0 number of corners: always 7*
0 $1 to $14 corner X, Y*
0 $15 Rotation angle, in degrees counterclockwise*
0 create outline with 7 corners*
4,1,7,$1,$2,$3,$4,$5,$6,$7,$8,$9,$10,$11,$12,$13,$14,$1,$2,$15*%
%AMOutline8P*
0 Free polygon, 8 corners , with rotation*
0 The origin of the aperture is its center*
0 number of corners: always 8*
0 $1 to $16 corner X, Y*
0 $17 Rotation angle, in degrees counterclockwise*
0 create outline with 8 corners*
4,1,8,$1,$2,$3,$4,$5,$6,$7,$8,$9,$10,$11,$12,$13,$14,$15,$16,$1,$2,$17*%
%AMFreePoly0*
4,1,6,0.250000,0.000000,-0.250000,-0.625000,-0.500000,-0.625000,-0.500000,0.625000,-0.250000,0.625000,0.250000,0.000000,0.250000,0.000000,$1*%
%AMFreePoly1*
4,1,6,0.500000,-0.625000,-0.650000,-0.625000,-0.150000,0.000000,-0.650000,0.625000,0.500000,0.625000,0.500000,-0.625000,0.500000,-0.625000,$1*%
%AMFreePoly2*
4,1,6,0.600000,-1.000000,0.000000,-0.400000,-0.600000,-1.000000,-0.600000,0.250000,0.600000,0.250000,0.600000,-1.000000,0.600000,-1.000000,$1*%
%AMFreePoly3*
4,1,6,0.600000,-0.200000,0.600000,-0.400000,-0.600000,-0.400000,-0.600000,-0.200000,0.000000,0.400000,0.600000,-0.200000,0.600000,-0.200000,$1*%
G04 Aperture macros list end*
%TA.AperFunction,SMDPad,CuDef*%
%ADD10FreePoly0,180.000000*%
%TD*%
%TA.AperFunction,ComponentPad*%
%ADD11C,1.700000*%
%TD*%
%TA.AperFunction,SMDPad,CuDef*%
%ADD12FreePoly0,0.000000*%
%TD*%
%TA.AperFunction,SMDPad,CuDef*%
%ADD13FreePoly1,0.000000*%
%TD*%
%TA.AperFunction,ComponentPad*%
%ADD14C,0.800000*%
%TD*%
%TA.AperFunction,SMDPad,CuDef*%
%ADD15FreePoly1,180.000000*%
%TD*%
%TA.AperFunction,SMDPad,CuDef*%
%ADD16FreePoly2,270.000000*%
%TD*%
%TA.AperFunction,ComponentPad*%
%ADD17O,1.750000X1.200000*%
%TD*%
%TA.AperFunction,SMDPad,CuDef*%
%ADD18FreePoly3,270.000000*%
%TD*%
%TA.AperFunction,ComponentPad*%
%ADD19O,1.700000X1.700000*%
%TD*%
%TA.AperFunction,SMDPad,CuDef*%
%ADD20R,1.200000X0.600000*%
%TD*%
%TA.AperFunction,SMDPad,CuDef*%
%ADD21R,0.800000X1.000000*%
%TD*%
%TA.AperFunction,SMDPad,CuDef*%
%ADD22R,1.500000X0.700000*%
%TD*%
%TA.AperFunction,SMDPad,CuDef*%
%ADD23R,1.200000X0.900000*%
%TD*%
%TA.AperFunction,SMDPad,CuDef*%
%ADD24Outline5P,-1.300000X1.300000X1.300000X1.300000X1.300000X-1.300000X-0.117000X-1.300000X-1.300000X-0.117000X192.000000*%
%TD*%
%TA.AperFunction,SMDPad,CuDef*%
%ADD25RotRect,2.600000X2.600000X192.000000*%
%TD*%
%TA.AperFunction,SMDPad,CuDef*%
%ADD26RotRect,0.900000X1.200000X282.000000*%
%TD*%
%TA.AperFunction,SMDPad,CuDef*%
%ADD27RotRect,0.900000X1.200000X273.000000*%
%TD*%
%TA.AperFunction,SMDPad,CuDef*%
%ADD28Outline5P,-1.300000X1.300000X1.300000X1.300000X1.300000X-1.300000X-0.117000X-1.300000X-1.300000X-0.117000X185.000000*%
%TD*%
%TA.AperFunction,SMDPad,CuDef*%
%ADD29RotRect,2.600000X2.600000X185.000000*%
%TD*%
%TA.AperFunction,SMDPad,CuDef*%
%ADD30Outline5P,-1.300000X1.300000X1.300000X1.300000X1.300000X-1.300000X-0.117000X-1.300000X-1.300000X-0.117000X180.000000*%
%TD*%
%TA.AperFunction,SMDPad,CuDef*%
%ADD31R,2.600000X2.600000*%
%TD*%
%TA.AperFunction,SMDPad,CuDef*%
%ADD32Outline5P,-1.300000X1.300000X1.300000X1.300000X1.300000X-1.300000X-0.117000X-1.300000X-1.300000X-0.117000X162.000000*%
%TD*%
%TA.AperFunction,SMDPad,CuDef*%
%ADD33RotRect,2.600000X2.600000X162.000000*%
%TD*%
%TA.AperFunction,SMDPad,CuDef*%
%ADD34RotRect,0.900000X1.200000X265.000000*%
%TD*%
%TA.AperFunction,SMDPad,CuDef*%
%ADD35Outline5P,-1.300000X1.300000X1.300000X1.300000X1.300000X-1.300000X-0.117000X-1.300000X-1.300000X-0.117000X183.000000*%
%TD*%
%TA.AperFunction,SMDPad,CuDef*%
%ADD36RotRect,2.600000X2.600000X183.000000*%
%TD*%
%TA.AperFunction,SMDPad,CuDef*%
%ADD37RotRect,0.900000X1.200000X275.000000*%
%TD*%
%TA.AperFunction,SMDPad,CuDef*%
%ADD38RotRect,0.900000X1.200000X276.000000*%
%TD*%
%TA.AperFunction,SMDPad,CuDef*%
%ADD39Outline5P,-1.300000X1.300000X1.300000X1.300000X1.300000X-1.300000X-0.117000X-1.300000X-1.300000X-0.117000X175.000000*%
%TD*%
%TA.AperFunction,SMDPad,CuDef*%
%ADD40RotRect,2.600000X2.600000X175.000000*%
%TD*%
%TA.AperFunction,SMDPad,CuDef*%
%ADD41RotRect,0.900000X1.200000X252.000000*%
%TD*%
%TA.AperFunction,SMDPad,CuDef*%
%ADD42Outline5P,-1.300000X1.300000X1.300000X1.300000X1.300000X-1.300000X-0.117000X-1.300000X-1.300000X-0.117000X186.000000*%
%TD*%
%TA.AperFunction,SMDPad,CuDef*%
%ADD43RotRect,2.600000X2.600000X186.000000*%
%TD*%
%TA.AperFunction,ViaPad*%
%ADD44C,0.600000*%
%TD*%
%TA.AperFunction,Conductor*%
%ADD45C,0.250000*%
%TD*%
%TA.AperFunction,Conductor*%
%ADD46C,0.200000*%
%TD*%
%TA.AperFunction,Conductor*%
%ADD47C,0.150000*%
%TD*%
%ADD48C,0.300000*%
%ADD49C,0.350000*%
G04 APERTURE END LIST*
D10*
%TO.P,MCU1,1*%
%TO.N,MCU1_1*%
X273145600Y-92738900D03*
D11*
X275265600Y-92738900D03*
D10*
%TO.P,MCU1,2*%
%TO.N,MCU1_2*%
X273145600Y-95278900D03*
D11*
X275265600Y-95278900D03*
D10*
%TO.P,MCU1,3*%
%TO.N,MCU1_3*%
X273145600Y-97818900D03*
D11*
X275265600Y-97818900D03*
D10*
%TO.P,MCU1,4*%
%TO.N,MCU1_4*%
X273145600Y-100358900D03*
D11*
X275265600Y-100358900D03*
D10*
%TO.P,MCU1,5*%
%TO.N,MCU1_5*%
X273145600Y-102898900D03*
D11*
X275265600Y-102898900D03*
D10*
%TO.P,MCU1,6*%
%TO.N,MCU1_6*%
X273145600Y-105438900D03*
D11*
X275265600Y-105438900D03*
D10*
%TO.P,MCU1,7*%
%TO.N,MCU1_7*%
X273145600Y-107978900D03*
D11*
X275265600Y-107978900D03*
D10*
%TO.P,MCU1,8*%
%TO.N,MCU1_8*%
X273145600Y-110518900D03*
D11*
X275265600Y-110518900D03*
D10*
%TO.P,MCU1,9*%
%TO.N,MCU1_9*%
X273145600Y-113058900D03*
D11*
X275265600Y-113058900D03*
D10*
%TO.P,MCU1,10*%
%TO.N,MCU1_10*%
X273145600Y-115598900D03*
D11*
X275265600Y-115598900D03*
D10*
%TO.P,MCU1,11*%
%TO.N,MCU1_11*%
X273145600Y-118138900D03*
D11*
X275265600Y-118138900D03*
D10*
%TO.P,MCU1,12*%
%TO.N,MCU1_12*%
X273145600Y-120678900D03*
D11*
X275265600Y-120678900D03*
%TO.P,MCU1,13*%
%TO.N,MCU1_13*%
X260025600Y-120678900D03*
D12*
X262145600Y-120678900D03*
D11*
%TO.P,MCU1,14*%
%TO.N,MCU1_14*%
X260025600Y-118138900D03*
D12*
X262145600Y-118138900D03*
D11*
%TO.P,MCU1,15*%
%TO.N,MCU1_15*%
X260025600Y-115598900D03*
D12*
X262145600Y-115598900D03*
D11*
%TO.P,MCU1,16*%
%TO.N,MCU1_16*%
X260025600Y-113058900D03*
D12*
X262145600Y-113058900D03*
D11*
%TO.P,MCU1,17*%
%TO.N,MCU1_17*%
X260025600Y-110518900D03*
D12*
X262145600Y-110518900D03*
D11*
%TO.P,MCU1,18*%
%TO.N,MCU1_18*%
X260025600Y-107978900D03*
D12*
X262145600Y-107978900D03*
D11*
%TO.P,MCU1,19*%
%TO.N,MCU1_19*%
X260025600Y-105438900D03*
D12*
X262145600Y-105438900D03*
D11*
%TO.P,MCU1,20*%
%TO.N,MCU1_20*%
X260025600Y-102898900D03*
D12*
X262145600Y-102898900D03*
D11*
%TO.P,MCU1,21*%
%TO.N,MCU1_21*%
X260025600Y-100358900D03*
D12*
X262145600Y-100358900D03*
D11*
%TO.P,MCU1,22*%
%TO.N,MCU1_22*%
X260025600Y-97818900D03*
D12*
X262145600Y-97818900D03*
D11*
%TO.P,MCU1,23*%
%TO.N,MCU1_23*%
X260025600Y-95278900D03*
D12*
X262145600Y-95278900D03*
D11*
%TO.P,MCU1,24*%
%TO.N,MCU1_24*%
X260025600Y-92738900D03*
D12*
X262145600Y-92738900D03*
D13*
%TO.P,MCU1,101*%
%TO.N,RAW*%
X262870600Y-92738900D03*
D14*
X271045600Y-92738900D03*
D13*
%TO.P,MCU1,102*%
%TO.N,GND*%
X262870600Y-95278900D03*
D14*
X271045600Y-95278900D03*
D13*
%TO.P,MCU1,103*%
%TO.N,RST*%
X262870600Y-97818900D03*
D14*
X271045600Y-97818900D03*
D13*
%TO.P,MCU1,104*%
%TO.N,VCC*%
X262870600Y-100358900D03*
D14*
X271045600Y-100358900D03*
D13*
%TO.P,MCU1,105*%
%TO.N,C0*%
X262870600Y-102898900D03*
D14*
X271045600Y-102898900D03*
D13*
%TO.P,MCU1,106*%
%TO.N,C1*%
X262870600Y-105438900D03*
D14*
X271045600Y-105438900D03*
D13*
%TO.P,MCU1,107*%
%TO.N,C2*%
X262870600Y-107978900D03*
D14*
X271045600Y-107978900D03*
D13*
%TO.P,MCU1,108*%
%TO.N,C3*%
X262870600Y-110518900D03*
D14*
X271045600Y-110518900D03*
D13*
%TO.P,MCU1,109*%
%TO.N,C4*%
X262870600Y-113058900D03*
D14*
X271045600Y-113058900D03*
D13*
%TO.P,MCU1,110*%
%TO.N,C5*%
X262870600Y-115598900D03*
D14*
X271045600Y-115598900D03*
D13*
%TO.P,MCU1,111*%
%TO.N,P16*%
X262870600Y-118138900D03*
D14*
X271045600Y-118138900D03*
D13*
%TO.P,MCU1,112*%
%TO.N,P10*%
X262870600Y-120678900D03*
D14*
X271045600Y-120678900D03*
%TO.P,MCU1,113*%
%TO.N,DAT*%
X264245600Y-120678900D03*
D15*
X272420600Y-120678900D03*
D14*
%TO.P,MCU1,114*%
%TO.N,R3*%
X264245600Y-118138900D03*
D15*
X272420600Y-118138900D03*
D14*
%TO.P,MCU1,115*%
%TO.N,R2*%
X264245600Y-115598900D03*
D15*
X272420600Y-115598900D03*
D14*
%TO.P,MCU1,116*%
%TO.N,R1*%
X264245600Y-113058900D03*
D15*
X272420600Y-113058900D03*
D14*
%TO.P,MCU1,117*%
%TO.N,R0*%
X264245600Y-110518900D03*
D15*
X272420600Y-110518900D03*
D14*
%TO.P,MCU1,118*%
%TO.N,CS*%
X264245600Y-107978900D03*
D15*
X272420600Y-107978900D03*
D14*
%TO.P,MCU1,119*%
%TO.N,SCK*%
X264245600Y-105438900D03*
D15*
X272420600Y-105438900D03*
D14*
%TO.P,MCU1,120*%
%TO.N,MOSI*%
X264245600Y-102898900D03*
D15*
X272420600Y-102898900D03*
D14*
%TO.P,MCU1,121*%
%TO.N,GND*%
X264245600Y-100358900D03*
D15*
X272420600Y-100358900D03*
D14*
%TO.P,MCU1,122*%
X264245600Y-97818900D03*
D15*
X272420600Y-97818900D03*
D14*
%TO.P,MCU1,123*%
%TO.N,P0*%
X264245600Y-95278900D03*
D15*
X272420600Y-95278900D03*
D14*
%TO.P,MCU1,124*%
%TO.N,LED*%
X264245600Y-92738900D03*
D15*
X272420600Y-92738900D03*
%TD*%
D16*
%TO.P,BAT1,1*%
%TO.N,BAT_P*%
X265961600Y-131938900D03*
%TO.P,BAT1,2*%
%TO.N,GND*%
X265961600Y-133938900D03*
D17*
%TO.P,BAT1,11*%
%TO.N,BAT1_1*%
X263145600Y-133938900D03*
%TO.P,BAT1,12*%
%TO.N,BAT1_2*%
X263145600Y-131938900D03*
D18*
%TO.P,BAT1,31*%
%TO.N,BAT1_1*%
X264945600Y-133938900D03*
%TO.P,BAT1,32*%
%TO.N,BAT1_2*%
X264945600Y-131938900D03*
%TD*%
D19*
%TO.P,DISP1,1*%
%TO.N,DISP1_1*%
X262565600Y-124638900D03*
%TO.P,DISP1,2*%
%TO.N,DISP1_2*%
X265105600Y-124638900D03*
%TO.P,DISP1,3*%
%TO.N,VCC*%
X267645600Y-124638900D03*
%TO.P,DISP1,4*%
%TO.N,DISP1_4*%
X270185600Y-124638900D03*
D11*
%TO.P,DISP1,5*%
%TO.N,DISP1_5*%
X272725600Y-124638900D03*
D20*
%TO.P,DISP1,20*%
%TO.N,CS*%
X272725600Y-127288900D03*
%TO.P,DISP1,21*%
%TO.N,GND*%
X270185600Y-127288900D03*
%TO.P,DISP1,22*%
%TO.N,SCK*%
X265105600Y-127288900D03*
%TO.P,DISP1,23*%
%TO.N,MOSI*%
X262565600Y-127288900D03*
%TO.P,DISP1,24*%
%TO.N,DISP1_5*%
X272725600Y-126388900D03*
%TO.P,DISP1,25*%
%TO.N,DISP1_4*%
X270185600Y-126388900D03*
%TO.P,DISP1,26*%
%TO.N,DISP1_2*%
X265105600Y-126388900D03*
%TO.P,DISP1,27*%
%TO.N,DISP1_1*%
X262565600Y-126388900D03*
%TD*%
D11*
%TO.P,RST1,1*%
%TO.N,RST*%
X276145600Y-127188900D03*
%TO.P,RST1,2*%
%TO.N,GND*%
X276145600Y-133688900D03*
%TD*%
D21*
%TO.P,PWR1,*%
%TO.N,*%
X275060600Y-137288900D03*
X275060600Y-144588900D03*
X277270600Y-137288900D03*
X277270600Y-144588900D03*
D22*
%TO.P,PWR1,1*%
%TO.N,N/C*%
X274410600Y-138688900D03*
%TO.P,PWR1,2*%
%TO.N,RAW*%
X274410600Y-141688900D03*
%TO.P,PWR1,3*%
%TO.N,BAT_P*%
X274410600Y-143188900D03*
%TD*%
D23*
%TO.P,D39,1*%
%TO.N,R0*%
X228745600Y-94788900D03*
%TO.P,D39,2*%
%TO.N,inner_top*%
X228745600Y-98088900D03*
%TD*%
D24*
%TO.P,SW4,1*%
%TO.N,C1*%
X172047208Y-151396667D03*
D25*
%TO.P,SW4,2*%
%TO.N,pinky_bottom*%
X160292197Y-151646123D03*
%TD*%
D23*
%TO.P,D34,1*%
%TO.N,R2*%
X210745600Y-126788900D03*
%TO.P,D34,2*%
%TO.N,index_bottom*%
X210745600Y-130088900D03*
%TD*%
D26*
%TO.P,D26,1*%
%TO.N,R1*%
X155689846Y-128190456D03*
%TO.P,D26,2*%
%TO.N,pinky_home*%
X156375954Y-131418344D03*
%TD*%
D27*
%TO.P,D33,1*%
%TO.N,R0*%
X190470446Y-87204861D03*
%TO.P,D33,2*%
%TO.N,middle_top*%
X190643154Y-90500339D03*
%TD*%
D24*
%TO.P,SW2,1*%
%TO.N,C0*%
X150906008Y-138510567D03*
D25*
%TO.P,SW2,2*%
%TO.N,outer_home*%
X139150997Y-138760023D03*
%TD*%
D28*
%TO.P,SW19,1*%
%TO.N,C3*%
X219426714Y-161080823D03*
D29*
%TO.P,SW19,2*%
%TO.N,inner_cluster*%
X207728923Y-159895844D03*
%TD*%
D23*
%TO.P,D35,1*%
%TO.N,R1*%
X210745600Y-109788900D03*
%TO.P,D35,2*%
%TO.N,index_home*%
X210745600Y-113088900D03*
%TD*%
D24*
%TO.P,SW5,1*%
%TO.N,C1*%
X168512708Y-134768167D03*
D25*
%TO.P,SW5,2*%
%TO.N,pinky_home*%
X156757697Y-135017623D03*
%TD*%
D24*
%TO.P,SW3,1*%
%TO.N,C0*%
X147371508Y-121882067D03*
D25*
%TO.P,SW3,2*%
%TO.N,outer_top*%
X135616497Y-122131523D03*
%TD*%
D30*
%TO.P,SW13,1*%
%TO.N,C4*%
X221920600Y-135888900D03*
D31*
%TO.P,SW13,2*%
%TO.N,index_bottom*%
X210370600Y-133688900D03*
%TD*%
D26*
%TO.P,D25,1*%
%TO.N,R2*%
X159224346Y-144818956D03*
%TO.P,D25,2*%
%TO.N,pinky_bottom*%
X159910454Y-148046844D03*
%TD*%
%TO.P,D27,1*%
%TO.N,R0*%
X152155346Y-111561956D03*
%TO.P,D27,2*%
%TO.N,pinky_top*%
X152841454Y-114789844D03*
%TD*%
D32*
%TO.P,SW21,1*%
%TO.N,C5*%
X262921659Y-167109717D03*
D33*
%TO.P,SW21,2*%
%TO.N,outer_cluster*%
X252616794Y-161448246D03*
%TD*%
D30*
%TO.P,SW15,1*%
%TO.N,C4*%
X221920600Y-101888900D03*
D31*
%TO.P,SW15,2*%
%TO.N,index_top*%
X210370600Y-99688900D03*
%TD*%
D30*
%TO.P,SW14,1*%
%TO.N,C4*%
X221920600Y-118888900D03*
D31*
%TO.P,SW14,2*%
%TO.N,index_home*%
X210370600Y-116688900D03*
%TD*%
D27*
%TO.P,D32,1*%
%TO.N,R1*%
X191360146Y-104181561D03*
%TO.P,D32,2*%
%TO.N,middle_home*%
X191532854Y-107477039D03*
%TD*%
D34*
%TO.P,D41,1*%
%TO.N,R3*%
X231050207Y-151612379D03*
%TO.P,D41,2*%
%TO.N,mid_cluster*%
X230762593Y-154899821D03*
%TD*%
D35*
%TO.P,SW11,1*%
%TO.N,C3*%
X202996111Y-112684245D03*
D36*
%TO.P,SW11,2*%
%TO.N,middle_home*%
X191346800Y-111091741D03*
%TD*%
D24*
%TO.P,SW6,1*%
%TO.N,C1*%
X164978208Y-118139667D03*
D25*
%TO.P,SW6,2*%
%TO.N,pinky_top*%
X153223197Y-118389123D03*
%TD*%
D37*
%TO.P,D40,1*%
%TO.N,R3*%
X207501093Y-152989379D03*
%TO.P,D40,2*%
%TO.N,inner_cluster*%
X207788707Y-156276821D03*
%TD*%
D27*
%TO.P,D31,1*%
%TO.N,R2*%
X192249846Y-121158261D03*
%TO.P,D31,2*%
%TO.N,middle_bottom*%
X192422554Y-124453739D03*
%TD*%
D35*
%TO.P,SW12,1*%
%TO.N,C3*%
X202106411Y-95707545D03*
D36*
%TO.P,SW12,2*%
%TO.N,middle_top*%
X190457100Y-94115041D03*
%TD*%
D26*
%TO.P,D22,1*%
%TO.N,R2*%
X141617746Y-148561356D03*
%TO.P,D22,2*%
%TO.N,outer_bottom*%
X142303854Y-151789244D03*
%TD*%
%TO.P,D24,1*%
%TO.N,R0*%
X134548746Y-115304356D03*
%TO.P,D24,2*%
%TO.N,outer_top*%
X135234854Y-118532244D03*
%TD*%
D30*
%TO.P,SW18,1*%
%TO.N,C5*%
X239920600Y-103888900D03*
D31*
%TO.P,SW18,2*%
%TO.N,inner_top*%
X228370600Y-101688900D03*
%TD*%
D30*
%TO.P,SW16,1*%
%TO.N,C5*%
X239920600Y-137888900D03*
D31*
%TO.P,SW16,2*%
%TO.N,inner_bottom*%
X228370600Y-135688900D03*
%TD*%
D38*
%TO.P,D28,1*%
%TO.N,R2*%
X174948228Y-130426739D03*
%TO.P,D28,2*%
%TO.N,ring_bottom*%
X175293172Y-133708661D03*
%TD*%
D26*
%TO.P,D23,1*%
%TO.N,R1*%
X138083246Y-131932856D03*
%TO.P,D23,2*%
%TO.N,outer_home*%
X138769354Y-135160744D03*
%TD*%
D35*
%TO.P,SW10,1*%
%TO.N,C3*%
X203885811Y-129660945D03*
D36*
%TO.P,SW10,2*%
%TO.N,middle_bottom*%
X192236500Y-128068441D03*
%TD*%
D39*
%TO.P,SW20,1*%
%TO.N,C4*%
X241389561Y-161651694D03*
D40*
%TO.P,SW20,2*%
%TO.N,mid_cluster*%
X230075255Y-158453416D03*
%TD*%
D23*
%TO.P,D38,1*%
%TO.N,R1*%
X228745600Y-111788900D03*
%TO.P,D38,2*%
%TO.N,inner_home*%
X228745600Y-115088900D03*
%TD*%
D38*
%TO.P,D30,1*%
%TO.N,R0*%
X171394228Y-96613039D03*
%TO.P,D30,2*%
%TO.N,ring_top*%
X171739172Y-99894961D03*
%TD*%
D30*
%TO.P,SW17,1*%
%TO.N,C5*%
X239920600Y-120888900D03*
D31*
%TO.P,SW17,2*%
%TO.N,inner_home*%
X228370600Y-118688900D03*
%TD*%
D23*
%TO.P,D36,1*%
%TO.N,R0*%
X210745600Y-92788900D03*
%TO.P,D36,2*%
%TO.N,index_top*%
X210745600Y-96088900D03*
%TD*%
D41*
%TO.P,D42,1*%
%TO.N,R3*%
X255105678Y-155001857D03*
%TO.P,D42,2*%
%TO.N,outer_cluster*%
X254085922Y-158140343D03*
%TD*%
D42*
%TO.P,SW8,1*%
%TO.N,C2*%
X185236204Y-121401875D03*
D43*
%TO.P,SW8,2*%
%TO.N,ring_home*%
X173519513Y-120421230D03*
%TD*%
D42*
%TO.P,SW9,1*%
%TO.N,C2*%
X183459204Y-104495075D03*
D43*
%TO.P,SW9,2*%
%TO.N,ring_top*%
X171742513Y-103514430D03*
%TD*%
D23*
%TO.P,D37,1*%
%TO.N,R2*%
X228745600Y-128788900D03*
%TO.P,D37,2*%
%TO.N,inner_bottom*%
X228745600Y-132088900D03*
%TD*%
D24*
%TO.P,SW1,1*%
%TO.N,C0*%
X154440508Y-155139067D03*
D25*
%TO.P,SW1,2*%
%TO.N,outer_bottom*%
X142685497Y-155388523D03*
%TD*%
D42*
%TO.P,SW7,1*%
%TO.N,C2*%
X187013204Y-138308775D03*
D43*
%TO.P,SW7,2*%
%TO.N,ring_bottom*%
X175296513Y-137328130D03*
%TD*%
D38*
%TO.P,D29,1*%
%TO.N,R1*%
X173171228Y-113519839D03*
%TO.P,D29,2*%
%TO.N,ring_home*%
X173516172Y-116801761D03*
%TD*%
D44*
%TO.N,C0*%
X252671300Y-101665000D03*
X252671300Y-139919600D03*
X147271000Y-137162000D03*
X143737000Y-120533000D03*
X150806000Y-153790000D03*
%TO.N,outer_bottom*%
X150639000Y-153008000D03*
%TO.N,GND*%
X265961600Y-135074700D03*
%TO.N,outer_home*%
X147105000Y-136379000D03*
%TO.N,outer_top*%
X143570000Y-119751000D03*
%TO.N,C1*%
X257500000Y-89500000D03*
X164878000Y-133419000D03*
X161343000Y-116791000D03*
X168412000Y-150048000D03*
%TO.N,pinky_bottom*%
X168246000Y-149265000D03*
%TO.N,pinky_home*%
X164711000Y-132637000D03*
%TO.N,pinky_top*%
X161177000Y-116008000D03*
%TO.N,C2*%
X183539000Y-136587000D03*
X181762000Y-119681000D03*
X179985000Y-102774000D03*
%TO.N,ring_bottom*%
X182500000Y-135892000D03*
%TO.N,ring_home*%
X181679000Y-118885000D03*
%TO.N,ring_top*%
X179902000Y-101978000D03*
%TO.N,C3*%
X199617000Y-110784000D03*
X200507000Y-127760000D03*
X196455087Y-104544913D03*
X198727000Y-93806800D03*
X215983000Y-159299000D03*
X196500000Y-101500000D03*
%TO.N,middle_bottom*%
X200465000Y-126961000D03*
%TO.N,middle_home*%
X199575000Y-109985000D03*
%TO.N,middle_top*%
X198685000Y-93007900D03*
%TO.N,C4*%
X221920600Y-124673100D03*
X238308000Y-159299000D03*
X218646000Y-116814000D03*
X259379000Y-124124200D03*
X218646000Y-133814000D03*
X218646000Y-99813900D03*
%TO.N,index_bottom*%
X218646000Y-133014000D03*
%TO.N,index_home*%
X218646000Y-116014000D03*
%TO.N,index_top*%
X218646000Y-99013900D03*
%TO.N,C5*%
X236646000Y-101814000D03*
X236646000Y-135814000D03*
X236646000Y-118814000D03*
X250292200Y-166291900D03*
X260448000Y-164124000D03*
%TO.N,inner_bottom*%
X236646000Y-135014000D03*
%TO.N,inner_home*%
X236646000Y-118014000D03*
%TO.N,inner_top*%
X236646000Y-101014000D03*
%TO.N,inner_cluster*%
X215914000Y-158502000D03*
%TO.N,mid_cluster*%
X238378000Y-158502000D03*
%TO.N,outer_cluster*%
X260695000Y-163363000D03*
%TO.N,R2*%
X190348000Y-127687200D03*
X228745600Y-127515600D03*
X172875600Y-142414500D03*
X208415000Y-119339700D03*
X247418800Y-127630000D03*
X201660300Y-119339700D03*
X247418800Y-114472200D03*
X158148400Y-146252000D03*
X143569700Y-145371400D03*
%TO.N,R1*%
X205963900Y-103165900D03*
X193374500Y-103165900D03*
X192436400Y-108860900D03*
X173235700Y-112188300D03*
X148000000Y-128000000D03*
X171108300Y-123835900D03*
X229849900Y-111788900D03*
X154147600Y-127572800D03*
%TO.N,R0*%
X188421200Y-95104100D03*
X210745600Y-86233400D03*
X249445200Y-109248900D03*
X148817400Y-112233700D03*
X190470400Y-86216100D03*
X249445200Y-94788900D03*
X167919900Y-107200900D03*
X228745600Y-92147200D03*
%TO.N,R3*%
X255631500Y-119408900D03*
X254047300Y-153087600D03*
X229838100Y-151285200D03*
X208834900Y-151147800D03*
%TO.N,RAW*%
X273158600Y-139963600D03*
%TO.N,RST*%
X274551000Y-99016000D03*
%TO.N,VCC*%
X276500000Y-122500000D03*
%TO.N,MOSI*%
X265740400Y-128308900D03*
%TO.N,SCK*%
X266227100Y-127212600D03*
%TO.N,CS*%
X264348800Y-128747000D03*
%TO.N,BAT_P*%
X273145200Y-142828400D03*
X266600300Y-132975500D03*
%TD*%
D45*
%TO.N,C0*%
X265041000Y-103129000D02*
X270816000Y-103129000D01*
D46*
X150906000Y-138511000D02*
X149099900Y-137337500D01*
D47*
X271045600Y-102898900D02*
X271045600Y-102899400D01*
D46*
X154441000Y-155139000D02*
X152682700Y-153997700D01*
D47*
X149294500Y-136899059D02*
X149294500Y-123805059D01*
D45*
X264546000Y-103624000D02*
X265041000Y-103129000D01*
D46*
X144910000Y-120284000D02*
X143737000Y-120533000D01*
D45*
X263220000Y-102899000D02*
X263945000Y-103624000D01*
D47*
X271045600Y-102899400D02*
X270816000Y-103129000D01*
D46*
X149099900Y-137337500D02*
X148445000Y-136912000D01*
D47*
X149294500Y-123805059D02*
X147371508Y-121882067D01*
X262871000Y-102899000D02*
X262870700Y-102899000D01*
D46*
X147372000Y-121882000D02*
X145564800Y-120709000D01*
X148445000Y-136912000D02*
X147271000Y-137162000D01*
D45*
X263945000Y-103624000D02*
X264546000Y-103624000D01*
D47*
X153841407Y-154539966D02*
X154440508Y-155139067D01*
X150906008Y-138510567D02*
X153841407Y-141445966D01*
X150906008Y-138510567D02*
X149294500Y-136899059D01*
D45*
X262871000Y-102899000D02*
X263220000Y-102899000D01*
D46*
X145564800Y-120709000D02*
X144910000Y-120284000D01*
D47*
X262870700Y-102899000D02*
X262870600Y-102898900D01*
X252671300Y-139919600D02*
X252671300Y-101665000D01*
D46*
X152682700Y-153997700D02*
X151979000Y-153541000D01*
D47*
X150906000Y-139525100D02*
X150906000Y-138511000D01*
X153841407Y-141445966D02*
X153841407Y-154539966D01*
D46*
X151979000Y-153541000D02*
X150806000Y-153790000D01*
D47*
%TO.N,outer_bottom*%
X142685500Y-155388500D02*
X142685400Y-155388400D01*
D46*
X148301000Y-152300000D02*
X149699000Y-153208000D01*
X149699000Y-153208000D02*
X150639000Y-153008000D01*
X144114000Y-153190000D02*
X148301000Y-152300000D01*
X142685000Y-155389000D02*
X142685400Y-155388400D01*
D47*
X142685497Y-152170887D02*
X142685497Y-155388523D01*
D46*
X142685400Y-155388400D02*
X144114000Y-153190000D01*
D47*
X142303854Y-151789244D02*
X142685497Y-152170887D01*
D45*
%TO.N,GND*%
X272420500Y-100359000D02*
X272071000Y-100359000D01*
X265041000Y-95508900D02*
X270815600Y-95508900D01*
X271808300Y-100096300D02*
X272071000Y-99833600D01*
X270745000Y-99633900D02*
X270240000Y-100139000D01*
X262871000Y-95278900D02*
X263220000Y-95278900D01*
X263220000Y-95278900D02*
X263945000Y-96003900D01*
X264245600Y-97253215D02*
X264245600Y-97818900D01*
X270185600Y-127728900D02*
X270185600Y-127288900D01*
X272071000Y-99833600D02*
X272071000Y-97818900D01*
X270745000Y-97093900D02*
X270240000Y-97598900D01*
X262617400Y-133012200D02*
X265034900Y-133012200D01*
X270240000Y-97598900D02*
X264466000Y-97598900D01*
X264546000Y-96003900D02*
X265041000Y-95508900D01*
X257760100Y-128154900D02*
X262617400Y-133012200D01*
X272421000Y-97818900D02*
X272420600Y-97818900D01*
X264466000Y-97598900D02*
X264465600Y-97598900D01*
X263501985Y-96509600D02*
X264245600Y-97253215D01*
X264466000Y-100139000D02*
X264465500Y-100139000D01*
X259670100Y-96509600D02*
X257760100Y-98419600D01*
X262870600Y-96230600D02*
X262591600Y-96509600D01*
X272420600Y-97818900D02*
X272071000Y-97818900D01*
X262591600Y-96509600D02*
X259670100Y-96509600D01*
X272071000Y-100359000D02*
X271808300Y-100096300D01*
X262870600Y-95278900D02*
X262870600Y-96230600D01*
X270815600Y-95508900D02*
X270816000Y-95508900D01*
X265961600Y-133938900D02*
X265961600Y-135074700D01*
X262591600Y-96509600D02*
X263501985Y-96509600D01*
X271808300Y-100096300D02*
X271346000Y-99633900D01*
X262871000Y-95278900D02*
X262870600Y-95278900D01*
X264465600Y-97598900D02*
X264245600Y-97818900D01*
X263945000Y-96003900D02*
X264546000Y-96003900D01*
X271346000Y-99633900D02*
X270745000Y-99633900D01*
X257760100Y-98419600D02*
X257760100Y-128154900D01*
X272421000Y-100359000D02*
X272420500Y-100359000D01*
X264465500Y-100139000D02*
X264245600Y-100358900D01*
X272420500Y-100359000D02*
X272420600Y-100358900D01*
X270815600Y-95508900D02*
X271045600Y-95278900D01*
X276145600Y-133688900D02*
X270185600Y-127728900D01*
X270240000Y-100139000D02*
X264466000Y-100139000D01*
X272071000Y-97818900D02*
X271346000Y-97093900D01*
X271346000Y-97093900D02*
X270745000Y-97093900D01*
X265034900Y-133012200D02*
X265961600Y-133938900D01*
D47*
%TO.N,outer_home*%
X139150997Y-135542387D02*
X139150997Y-138760023D01*
D46*
X146165000Y-136579000D02*
X147105000Y-136379000D01*
X140579000Y-136561000D02*
X144766000Y-135671000D01*
D47*
X138769354Y-135160744D02*
X139150997Y-135542387D01*
D46*
X139151000Y-138760000D02*
X140579000Y-136561000D01*
X144766000Y-135671000D02*
X146165000Y-136579000D01*
D47*
%TO.N,outer_top*%
X135616497Y-118913887D02*
X135616497Y-122131523D01*
X135616497Y-120883503D02*
X137000000Y-119500000D01*
X135616497Y-122131523D02*
X135616497Y-120883503D01*
X135234854Y-118532244D02*
X135616497Y-118913887D01*
X141000000Y-120000000D02*
X143321000Y-120000000D01*
X137000000Y-119500000D02*
X140500000Y-119500000D01*
X143321000Y-120000000D02*
X143570000Y-119751000D01*
X140500000Y-119500000D02*
X141000000Y-120000000D01*
%TO.N,C1*%
X164978208Y-118139667D02*
X164379107Y-117540566D01*
D46*
X170241000Y-150223600D02*
X169586000Y-149798000D01*
D45*
X262871000Y-105439000D02*
X263220000Y-105439000D01*
D47*
X169500000Y-95500000D02*
X175000000Y-90000000D01*
D46*
X166706700Y-133595100D02*
X166052000Y-133170000D01*
D47*
X164379107Y-117540566D02*
X164379107Y-104120893D01*
X167339641Y-120501100D02*
X167339641Y-133595100D01*
D45*
X263220000Y-105439000D02*
X263945000Y-106164000D01*
D47*
X247000000Y-91500000D02*
X247500000Y-91500000D01*
X172047208Y-151396667D02*
X170435700Y-149785159D01*
X164978208Y-118139667D02*
X167339641Y-120501100D01*
X164379107Y-104120893D02*
X169500000Y-99000000D01*
X262870700Y-105439000D02*
X262870600Y-105438900D01*
X231000000Y-91500000D02*
X247000000Y-91500000D01*
X190500000Y-85000000D02*
X210500000Y-85000000D01*
X271045600Y-105438900D02*
X271045600Y-105439400D01*
D45*
X265041000Y-105669000D02*
X270816000Y-105669000D01*
X263945000Y-106164000D02*
X264546000Y-106164000D01*
D47*
X247500000Y-91500000D02*
X249500000Y-89500000D01*
D46*
X169586000Y-149798000D02*
X168412000Y-150048000D01*
D47*
X262871000Y-105439000D02*
X262870700Y-105439000D01*
D45*
X264546000Y-106164000D02*
X265041000Y-105669000D01*
D47*
X249500000Y-89500000D02*
X257500000Y-89500000D01*
D46*
X168513000Y-134768000D02*
X166706700Y-133595100D01*
D47*
X271045600Y-105439400D02*
X270816000Y-105669000D01*
X175000000Y-90000000D02*
X185500000Y-90000000D01*
D46*
X162517000Y-116541000D02*
X161343000Y-116791000D01*
D47*
X167339641Y-133595100D02*
X168512708Y-134768167D01*
X210500000Y-85000000D02*
X217000000Y-91500000D01*
X169500000Y-99000000D02*
X169500000Y-95500000D01*
D46*
X166052000Y-133170000D02*
X164878000Y-133419000D01*
X164978000Y-118140000D02*
X163172000Y-116966600D01*
D47*
X185500000Y-90000000D02*
X190500000Y-85000000D01*
D46*
X163172000Y-116966600D02*
X162517000Y-116541000D01*
D47*
X170435700Y-149785159D02*
X170435700Y-136691159D01*
X217000000Y-91500000D02*
X231000000Y-91500000D01*
D46*
X172047000Y-151397000D02*
X170241000Y-150223600D01*
D47*
X170435700Y-136691159D02*
X168512708Y-134768167D01*
%TO.N,pinky_bottom*%
X160292200Y-151646100D02*
X160292100Y-151646100D01*
X159910454Y-148046844D02*
X160292197Y-148428587D01*
D46*
X165907000Y-148557000D02*
X167306000Y-149465000D01*
D47*
X160292100Y-151646100D02*
X160292000Y-151646000D01*
D46*
X161720000Y-149447000D02*
X165907000Y-148557000D01*
X167306000Y-149465000D02*
X168246000Y-149265000D01*
D47*
X160292197Y-148428587D02*
X160292197Y-151646123D01*
D46*
X160292000Y-151646000D02*
X161720000Y-149447000D01*
D47*
%TO.N,pinky_home*%
X156375954Y-131418344D02*
X156757697Y-131800087D01*
X156757697Y-131800087D02*
X156757697Y-135017623D01*
D46*
X158186000Y-132819000D02*
X162373000Y-131929000D01*
X156758100Y-135017900D02*
X158186000Y-132819000D01*
D47*
X156757700Y-135017600D02*
X156757800Y-135017600D01*
D46*
X162373000Y-131929000D02*
X163771000Y-132837000D01*
D47*
X156757800Y-135017600D02*
X156758100Y-135017900D01*
D46*
X156758000Y-135018000D02*
X156758100Y-135017900D01*
X163771000Y-132837000D02*
X164711000Y-132637000D01*
D47*
%TO.N,pinky_top*%
X153223197Y-115171587D02*
X153223197Y-118389123D01*
X153223100Y-118389100D02*
X153223000Y-118389000D01*
D46*
X153223000Y-118389000D02*
X154651000Y-116190000D01*
X154651000Y-116190000D02*
X158838000Y-115300000D01*
X158838000Y-115300000D02*
X160237000Y-116208000D01*
X160237000Y-116208000D02*
X161177000Y-116008000D01*
D47*
X152841454Y-114789844D02*
X153223197Y-115171587D01*
X153223200Y-118389100D02*
X153223100Y-118389100D01*
D46*
%TO.N,C2*%
X184733000Y-136462000D02*
X183539000Y-136587000D01*
X185146700Y-136797100D02*
X184733000Y-136462000D01*
D45*
X263945000Y-108704000D02*
X264546000Y-108704000D01*
X263220000Y-107979000D02*
X263945000Y-108704000D01*
D46*
X183459000Y-104495000D02*
X181593000Y-102983400D01*
X183369800Y-119890200D02*
X182956000Y-119555000D01*
D45*
X262871000Y-107979000D02*
X263220000Y-107979000D01*
D47*
X271045600Y-107978900D02*
X271045600Y-107979400D01*
D46*
X185236000Y-121402000D02*
X183369800Y-119890200D01*
D47*
X262870700Y-107979000D02*
X262870600Y-107978900D01*
D46*
X182956000Y-119555000D02*
X181762000Y-119681000D01*
D47*
X271045600Y-107979400D02*
X270816000Y-108209000D01*
D46*
X181179000Y-102648000D02*
X179985000Y-102774000D01*
D45*
X265041000Y-108209000D02*
X270816000Y-108209000D01*
D46*
X187013000Y-138309000D02*
X185146700Y-136797100D01*
D45*
X264546000Y-108704000D02*
X265041000Y-108209000D01*
D46*
X181593000Y-102983400D02*
X181179000Y-102648000D01*
D47*
X262871000Y-107979000D02*
X262870700Y-107979000D01*
D46*
%TO.N,ring_bottom*%
X181204000Y-134843000D02*
X182500000Y-135892000D01*
D47*
X175293172Y-133708661D02*
X175293172Y-137324789D01*
D46*
X176699600Y-135595600D02*
X176947000Y-135290000D01*
X175297000Y-137328000D02*
X176699600Y-135595600D01*
D47*
X175293172Y-137324789D02*
X175296513Y-137328130D01*
X175296900Y-137328100D02*
X175297000Y-137328000D01*
D46*
X176947000Y-135290000D02*
X181204000Y-134843000D01*
D47*
X175296500Y-137328100D02*
X175296900Y-137328100D01*
D46*
%TO.N,ring_home*%
X179427000Y-117936000D02*
X180723000Y-118985000D01*
D47*
X173516172Y-120417889D02*
X173519513Y-120421230D01*
D46*
X173520000Y-120421000D02*
X174922600Y-118689400D01*
D47*
X173519800Y-120421200D02*
X173520000Y-120421000D01*
D46*
X180723000Y-118985000D02*
X181679000Y-118885000D01*
X175170000Y-118384000D02*
X179427000Y-117936000D01*
D47*
X173516172Y-116801761D02*
X173516172Y-120417889D01*
D46*
X174922600Y-118689400D02*
X175170000Y-118384000D01*
D47*
X173519500Y-120421200D02*
X173519800Y-120421200D01*
%TO.N,ring_top*%
X171742500Y-103514400D02*
X171742600Y-103514400D01*
X171739200Y-99895000D02*
X171824800Y-100709300D01*
D46*
X172444300Y-102648200D02*
X173393000Y-101477000D01*
X178946000Y-102079000D02*
X179902000Y-101978000D01*
D47*
X171742600Y-103514400D02*
X171743000Y-103514000D01*
D46*
X173393000Y-101477000D02*
X177650000Y-101029000D01*
D47*
X171824800Y-100709300D02*
X172444300Y-101328800D01*
D46*
X177650000Y-101029000D02*
X178946000Y-102079000D01*
X171743000Y-103514000D02*
X172444300Y-102648200D01*
D47*
X172444300Y-101328800D02*
X172444300Y-102648200D01*
%TO.N,C3*%
X262870700Y-110519000D02*
X262870600Y-110518900D01*
X203885800Y-129660900D02*
X203749100Y-129660900D01*
D45*
X265041000Y-110749000D02*
X270816000Y-110749000D01*
X263945000Y-111244000D02*
X264546000Y-111244000D01*
D46*
X202106000Y-95707600D02*
X200731900Y-94469900D01*
X217179000Y-159195000D02*
X215983000Y-159299000D01*
D47*
X206000000Y-164500000D02*
X216007537Y-164500000D01*
X203132900Y-112821034D02*
X203132900Y-128908034D01*
X202996111Y-112684245D02*
X203132900Y-112821034D01*
D45*
X264546000Y-111244000D02*
X265041000Y-110749000D01*
D47*
X196500000Y-104500000D02*
X196455087Y-104544913D01*
D46*
X202996000Y-112684000D02*
X201621600Y-111447000D01*
D47*
X201621600Y-111447000D02*
X202858800Y-112684200D01*
X202106400Y-95707500D02*
X201969400Y-95707500D01*
D46*
X219427000Y-161081000D02*
X217557200Y-159512300D01*
X199926000Y-93744000D02*
X198727000Y-93806800D01*
D47*
X200731900Y-94470000D02*
X200731900Y-94469900D01*
X196500000Y-101500000D02*
X196500000Y-104500000D01*
X203885811Y-162385811D02*
X206000000Y-164500000D01*
X271045600Y-110518900D02*
X271045600Y-110519400D01*
X201969400Y-95707500D02*
X200731900Y-94470000D01*
D46*
X201705000Y-127697000D02*
X200507000Y-127760000D01*
D45*
X263220000Y-110519000D02*
X263945000Y-111244000D01*
D46*
X202511300Y-128423100D02*
X201705000Y-127697000D01*
D45*
X262871000Y-110519000D02*
X263220000Y-110519000D01*
D47*
X203885811Y-129660945D02*
X203885811Y-162385811D01*
X203132900Y-128908034D02*
X203885811Y-129660945D01*
X202858800Y-112684200D02*
X202996100Y-112684200D01*
X203749100Y-129660900D02*
X202511300Y-128423100D01*
X216007537Y-164500000D02*
X219426714Y-161080823D01*
D46*
X203886000Y-129661000D02*
X202511300Y-128423100D01*
X200815000Y-110721000D02*
X199617000Y-110784000D01*
X217557200Y-159512300D02*
X217179000Y-159195000D01*
D47*
X262871000Y-110519000D02*
X262870700Y-110519000D01*
D46*
X200731900Y-94469900D02*
X199926000Y-93744000D01*
X201621600Y-111447000D02*
X200815000Y-110721000D01*
D47*
X271045600Y-110519400D02*
X270816000Y-110749000D01*
D46*
%TO.N,middle_bottom*%
X193991000Y-126120000D02*
X198266000Y-125896000D01*
D47*
X192236500Y-128068400D02*
X192236400Y-128068400D01*
D46*
X198266000Y-125896000D02*
X199505000Y-127012000D01*
X193653000Y-126495200D02*
X193991000Y-126120000D01*
D47*
X192236400Y-128068400D02*
X192236000Y-128068000D01*
D46*
X192236000Y-128068000D02*
X193653000Y-126495200D01*
D47*
X192422554Y-124453739D02*
X192422554Y-127882387D01*
D46*
X199505000Y-127012000D02*
X200465000Y-126961000D01*
D47*
X192422554Y-127882387D02*
X192236500Y-128068441D01*
D46*
%TO.N,middle_home*%
X197376000Y-108919000D02*
X198615000Y-110035000D01*
D47*
X191532854Y-107477039D02*
X191532854Y-110905687D01*
X191346900Y-111091700D02*
X191347100Y-111091900D01*
X191532854Y-110905687D02*
X191346800Y-111091741D01*
D46*
X191347100Y-111091900D02*
X192055200Y-110305100D01*
D47*
X191346800Y-111091700D02*
X191346900Y-111091700D01*
D46*
X192055200Y-110305100D02*
X193101000Y-109143000D01*
X191347000Y-111092000D02*
X191347100Y-111091900D01*
X193101000Y-109143000D02*
X197376000Y-108919000D01*
X198615000Y-110035000D02*
X199575000Y-109985000D01*
%TO.N,middle_top*%
X192211000Y-92166600D02*
X196486000Y-91942500D01*
X190457100Y-94115000D02*
X191165300Y-93328300D01*
X190457000Y-94115100D02*
X190457100Y-94115000D01*
X191165300Y-93328300D02*
X192211000Y-92166600D01*
D47*
X190643154Y-90500339D02*
X190643154Y-93928987D01*
X190643154Y-93928987D02*
X190457100Y-94115041D01*
D46*
X196486000Y-91942500D02*
X197726000Y-93058200D01*
X197726000Y-93058200D02*
X198685000Y-93007900D01*
D45*
%TO.N,C4*%
X263220000Y-113059000D02*
X263945000Y-113784000D01*
D47*
X221920600Y-118888900D02*
X221920600Y-124673100D01*
X221373400Y-133089200D02*
X221920600Y-132542000D01*
X221920600Y-118888600D02*
X221920600Y-118888900D01*
X258895600Y-115104700D02*
X258895600Y-123640800D01*
X220602600Y-100570900D02*
X220602600Y-100570500D01*
D46*
X221921000Y-118889000D02*
X221920600Y-118888600D01*
X221921000Y-135889000D02*
X221920600Y-135888600D01*
D47*
X229409600Y-160821900D02*
X234789900Y-160821900D01*
X234789900Y-160821900D02*
X236312800Y-159299000D01*
X221920600Y-101888900D02*
X220602600Y-100570900D01*
D46*
X221920600Y-118888600D02*
X221373400Y-118341400D01*
D47*
X262870600Y-113058900D02*
X262870600Y-113960600D01*
D46*
X221920600Y-135888600D02*
X221373400Y-135341400D01*
D47*
X221920600Y-115542000D02*
X221373400Y-116089200D01*
D46*
X220602600Y-100570500D02*
X219846000Y-99813900D01*
D45*
X265041000Y-113289000D02*
X270816000Y-113289000D01*
D47*
X262409900Y-114421300D02*
X259579000Y-114421300D01*
X221921000Y-153333300D02*
X229409600Y-160821900D01*
D45*
X262871000Y-113059000D02*
X263220000Y-113059000D01*
D46*
X240170400Y-160199100D02*
X239503000Y-159404000D01*
X221373400Y-118341400D02*
X219846000Y-116814000D01*
D47*
X221373400Y-116089200D02*
X221373400Y-118341400D01*
X221920600Y-132542000D02*
X221920600Y-124673100D01*
D46*
X219846000Y-133814000D02*
X218646000Y-133814000D01*
X241390000Y-161652000D02*
X240170400Y-160199100D01*
D47*
X236312800Y-159299000D02*
X238308000Y-159299000D01*
X258895600Y-123640800D02*
X259379000Y-124124200D01*
X262870700Y-113059000D02*
X262870600Y-113058900D01*
D46*
X221373400Y-135341400D02*
X219846000Y-133814000D01*
D45*
X263945000Y-113784000D02*
X264546000Y-113784000D01*
D47*
X221920600Y-101888900D02*
X221920600Y-115542000D01*
D46*
X219846000Y-99813900D02*
X218646000Y-99813900D01*
D47*
X262870600Y-113960600D02*
X262409900Y-114421300D01*
X262871000Y-113059000D02*
X262870700Y-113059000D01*
X271045600Y-113058900D02*
X271045600Y-113059400D01*
X271045600Y-113059400D02*
X270816000Y-113289000D01*
D46*
X221921000Y-101889000D02*
X220602600Y-100570500D01*
D47*
X221373400Y-135341400D02*
X221373400Y-133089200D01*
D45*
X264546000Y-113784000D02*
X265041000Y-113289000D01*
D46*
X219846000Y-116814000D02*
X218646000Y-116814000D01*
D47*
X221921000Y-135889000D02*
X221921000Y-153333300D01*
D46*
X239503000Y-159404000D02*
X238308000Y-159299000D01*
D47*
X221920600Y-135888600D02*
X221920600Y-135888900D01*
X259579000Y-114421300D02*
X258895600Y-115104700D01*
%TO.N,index_bottom*%
X210745600Y-132969200D02*
X210745600Y-130088900D01*
D46*
X216505000Y-131835000D02*
X217684000Y-133014000D01*
X217684000Y-133014000D02*
X218646000Y-133014000D01*
X210918200Y-133141800D02*
X212225000Y-131835000D01*
D47*
X210370900Y-133688900D02*
X210371000Y-133689000D01*
X210918200Y-133141800D02*
X210745600Y-132969200D01*
D46*
X212225000Y-131835000D02*
X216505000Y-131835000D01*
D47*
X210370600Y-133688900D02*
X210370900Y-133688900D01*
D46*
X210371000Y-133689000D02*
X210918200Y-133141800D01*
D47*
%TO.N,index_home*%
X210918200Y-116141800D02*
X210745600Y-115969200D01*
X210370600Y-116688900D02*
X210370900Y-116688900D01*
D46*
X216505000Y-114835000D02*
X217684000Y-116014000D01*
D47*
X210370900Y-116688900D02*
X210371000Y-116689000D01*
D46*
X210371000Y-116689000D02*
X210918200Y-116141800D01*
D47*
X210745600Y-115969200D02*
X210745600Y-113088900D01*
D46*
X210918200Y-116141800D02*
X212225000Y-114835000D01*
X212225000Y-114835000D02*
X216505000Y-114835000D01*
X217684000Y-116014000D02*
X218646000Y-116014000D01*
%TO.N,index_top*%
X217684000Y-99013900D02*
X218646000Y-99013900D01*
X212225000Y-97834900D02*
X216505000Y-97834900D01*
X216505000Y-97834900D02*
X217684000Y-99013900D01*
D47*
X210745600Y-98969300D02*
X210745600Y-96088900D01*
X210370600Y-99688900D02*
X210371000Y-99688900D01*
X210918100Y-99141800D02*
X210745600Y-98969300D01*
D46*
X210371000Y-99688900D02*
X210918100Y-99141800D01*
X210918100Y-99141800D02*
X212225000Y-97834900D01*
%TO.N,C5*%
X237846000Y-135814000D02*
X236646000Y-135814000D01*
D47*
X250292200Y-148260200D02*
X250292200Y-166291900D01*
D46*
X239920600Y-137888600D02*
X239373400Y-137341400D01*
D47*
X262921700Y-167109700D02*
X262921700Y-165998900D01*
X239373400Y-137341400D02*
X239373400Y-135089200D01*
D45*
X264546000Y-116324000D02*
X265041000Y-115829000D01*
D47*
X239373400Y-135089200D02*
X239920600Y-134542000D01*
D45*
X262871000Y-115599000D02*
X263220000Y-115599000D01*
D47*
X262871000Y-115599000D02*
X262870700Y-115599000D01*
X239308900Y-120276900D02*
X239308900Y-118153700D01*
D46*
X239920600Y-120888600D02*
X239308900Y-120276900D01*
D45*
X263945000Y-116324000D02*
X264546000Y-116324000D01*
D46*
X239921000Y-120889000D02*
X239920600Y-120888600D01*
X237846000Y-118814000D02*
X236646000Y-118814000D01*
X261767000Y-164844200D02*
X261589000Y-164495000D01*
X239921000Y-103889000D02*
X239920600Y-103888600D01*
X239920600Y-103888600D02*
X237846000Y-101814000D01*
D47*
X271045600Y-115598900D02*
X271045600Y-115599400D01*
D46*
X239373400Y-137341400D02*
X237846000Y-135814000D01*
D47*
X239920600Y-103888600D02*
X239920600Y-103888900D01*
X239920600Y-134542000D02*
X239920600Y-120888900D01*
D46*
X237846000Y-101814000D02*
X236646000Y-101814000D01*
D47*
X239920600Y-137888600D02*
X239920600Y-137888900D01*
D45*
X263220000Y-115599000D02*
X263945000Y-116324000D01*
D47*
X239920600Y-120888600D02*
X239920600Y-120888900D01*
D46*
X239921000Y-137889000D02*
X239920600Y-137888600D01*
X261589000Y-164495000D02*
X260448000Y-164124000D01*
X262922000Y-167110000D02*
X261767000Y-164844200D01*
D47*
X239921000Y-137889000D02*
X250292200Y-148260200D01*
X271045600Y-115599400D02*
X270816000Y-115829000D01*
X239920600Y-117542000D02*
X239920600Y-103888900D01*
D45*
X265041000Y-115829000D02*
X270816000Y-115829000D01*
D47*
X262870700Y-115599000D02*
X262870600Y-115598900D01*
X239308900Y-118153700D02*
X239920600Y-117542000D01*
D46*
X239308900Y-120276900D02*
X237846000Y-118814000D01*
D47*
%TO.N,inner_bottom*%
X228745600Y-134969200D02*
X228745600Y-132088900D01*
D46*
X228371000Y-135689000D02*
X228918200Y-135141800D01*
D47*
X228918200Y-135141800D02*
X228745600Y-134969200D01*
X228370600Y-135688900D02*
X228370900Y-135688900D01*
D46*
X228918200Y-135141800D02*
X230225000Y-133835000D01*
D47*
X228370900Y-135688900D02*
X228371000Y-135689000D01*
D46*
X235684000Y-135014000D02*
X236646000Y-135014000D01*
X234505000Y-133835000D02*
X235684000Y-135014000D01*
X230225000Y-133835000D02*
X234505000Y-133835000D01*
%TO.N,inner_home*%
X230225000Y-116835000D02*
X234505000Y-116835000D01*
X234505000Y-116835000D02*
X235684000Y-118014000D01*
X228371000Y-118689000D02*
X228918200Y-118141800D01*
D47*
X228370900Y-118688900D02*
X228371000Y-118689000D01*
D46*
X235684000Y-118014000D02*
X236646000Y-118014000D01*
D47*
X228370600Y-118688900D02*
X228370900Y-118688900D01*
X228745600Y-117969200D02*
X228745600Y-115088900D01*
X228918200Y-118141800D02*
X228745600Y-117969200D01*
D46*
X228918200Y-118141800D02*
X230225000Y-116835000D01*
D47*
%TO.N,inner_top*%
X228370900Y-101688900D02*
X228371000Y-101689000D01*
D46*
X229791600Y-100268300D02*
X230225000Y-99834900D01*
X228371000Y-101689000D02*
X229791600Y-100268300D01*
D47*
X228745600Y-98088900D02*
X228745600Y-101313900D01*
X228370600Y-101688900D02*
X228370900Y-101688900D01*
D46*
X230225000Y-99834900D02*
X234505000Y-99834900D01*
D47*
X228745600Y-101313900D02*
X228370600Y-101688900D01*
D46*
X234505000Y-99834900D02*
X235684000Y-101014000D01*
X235684000Y-101014000D02*
X236646000Y-101014000D01*
%TO.N,inner_cluster*%
X209414000Y-157887000D02*
X213679000Y-157514000D01*
X208295800Y-159220300D02*
X209414000Y-157887000D01*
X207729000Y-159896000D02*
X207729100Y-159895900D01*
X213679000Y-157514000D02*
X214956000Y-158586000D01*
X214956000Y-158586000D02*
X215914000Y-158502000D01*
D47*
X207729000Y-159895800D02*
X207729100Y-159895900D01*
X207788707Y-159836060D02*
X207728923Y-159895844D01*
X207788707Y-156276821D02*
X207788707Y-159836060D01*
D46*
X207729100Y-159895900D02*
X208295800Y-159220300D01*
D47*
X207728900Y-159895800D02*
X207729000Y-159895800D01*
D46*
%TO.N,mid_cluster*%
X230075000Y-158453000D02*
X231483800Y-157271400D01*
D47*
X230075255Y-155587159D02*
X230075255Y-158453416D01*
X230762593Y-154899821D02*
X230075255Y-155587159D01*
X230075000Y-158453100D02*
X230075000Y-158453000D01*
D46*
X236348000Y-157141000D02*
X237420000Y-158418000D01*
D47*
X230075300Y-158453400D02*
X230075000Y-158453100D01*
D46*
X231483800Y-157271400D02*
X232084000Y-156768000D01*
X232084000Y-156768000D02*
X236348000Y-157141000D01*
X237420000Y-158418000D02*
X238378000Y-158502000D01*
%TO.N,outer_cluster*%
X252617000Y-161448000D02*
X253877500Y-160805900D01*
X254953000Y-160258000D02*
X259024000Y-161581000D01*
D47*
X252616794Y-159609471D02*
X252616794Y-161448246D01*
D46*
X259024000Y-161581000D02*
X259781000Y-163066000D01*
X253877500Y-160805900D02*
X254953000Y-160258000D01*
X259781000Y-163066000D02*
X260695000Y-163363000D01*
D47*
X252617000Y-161448000D02*
X252616800Y-161448200D01*
X254085922Y-158140343D02*
X252616794Y-159609471D01*
D45*
%TO.N,R2*%
X271346000Y-114874000D02*
X270745000Y-114874000D01*
D47*
X141617746Y-148561356D02*
X141617746Y-147323354D01*
X192249846Y-121158261D02*
X190348000Y-123060107D01*
X159224346Y-144818956D02*
X159224346Y-145176054D01*
D45*
X272071000Y-115599000D02*
X271346000Y-114874000D01*
D47*
X190348000Y-123060107D02*
X190348000Y-127687200D01*
X272420500Y-115599000D02*
X272420600Y-115598900D01*
X210745600Y-126788900D02*
X210745600Y-126062200D01*
X174948228Y-130426739D02*
X177687767Y-127687200D01*
D45*
X270745000Y-114874000D02*
X270240000Y-115379000D01*
D47*
X172500000Y-142038900D02*
X172875600Y-142414500D01*
X177687767Y-127687200D02*
X190348000Y-127687200D01*
X159224346Y-145176054D02*
X158148400Y-146252000D01*
D45*
X272421000Y-115599000D02*
X272420500Y-115599000D01*
D47*
X141617746Y-147323354D02*
X143569700Y-145371400D01*
X174573261Y-130426739D02*
X172500000Y-132500000D01*
D45*
X272420500Y-115599000D02*
X272071000Y-115599000D01*
D47*
X247418800Y-127630000D02*
X247418800Y-114472200D01*
X228745600Y-128062200D02*
X228745600Y-127515600D01*
D45*
X270240000Y-115379000D02*
X264466000Y-115379000D01*
D47*
X174948228Y-130426739D02*
X174573261Y-130426739D01*
X192249846Y-121158261D02*
X194068407Y-119339700D01*
X228745600Y-128788900D02*
X228745600Y-128062200D01*
X172500000Y-132500000D02*
X172500000Y-142038900D01*
X210745600Y-126062200D02*
X208415000Y-123731600D01*
X194068407Y-119339700D02*
X201660300Y-119339700D01*
X264466000Y-115379000D02*
X264465500Y-115379000D01*
X208415000Y-123731600D02*
X208415000Y-119339700D01*
X264465500Y-115379000D02*
X264245600Y-115598900D01*
D45*
%TO.N,R1*%
X272420500Y-113059000D02*
X272071000Y-113059000D01*
D47*
X191360146Y-104181561D02*
X192436400Y-105257815D01*
X192358839Y-104181561D02*
X193374500Y-103165900D01*
X138083246Y-131932856D02*
X142016102Y-128000000D01*
X272420500Y-113059000D02*
X272420600Y-113058900D01*
X205963900Y-104280500D02*
X205963900Y-103165900D01*
X155689846Y-128190456D02*
X154765256Y-128190456D01*
X173171228Y-113519839D02*
X173171228Y-112252772D01*
X210745600Y-109062200D02*
X205963900Y-104280500D01*
X173171228Y-112252772D02*
X173235700Y-112188300D01*
X173171228Y-113519839D02*
X171108300Y-115582767D01*
X264465500Y-112839000D02*
X264245600Y-113058900D01*
X142016102Y-128000000D02*
X148000000Y-128000000D01*
X210745600Y-109788900D02*
X210745600Y-109062200D01*
D45*
X271346000Y-112334000D02*
X270745000Y-112334000D01*
X272071000Y-113059000D02*
X271346000Y-112334000D01*
X272421000Y-113059000D02*
X272420500Y-113059000D01*
D47*
X192436400Y-105257815D02*
X192436400Y-108860900D01*
D45*
X270240000Y-112839000D02*
X264466000Y-112839000D01*
D47*
X154765256Y-128190456D02*
X154147600Y-127572800D01*
X264466000Y-112839000D02*
X264465500Y-112839000D01*
X171108300Y-115582767D02*
X171108300Y-123835900D01*
D45*
X270745000Y-112334000D02*
X270240000Y-112839000D01*
D47*
X229622300Y-111788900D02*
X229849900Y-111788900D01*
X191360146Y-104181561D02*
X192358839Y-104181561D01*
X228745600Y-111788900D02*
X229622300Y-111788900D01*
%TO.N,R0*%
X249445200Y-94788900D02*
X249445200Y-109248900D01*
X168000000Y-101000000D02*
X168000000Y-107120800D01*
X190430000Y-86433200D02*
X190470400Y-86392800D01*
D45*
X272071000Y-110519000D02*
X271346000Y-109794000D01*
D47*
X190470400Y-87204900D02*
X190430000Y-86433200D01*
X171394228Y-96613039D02*
X171886961Y-96613039D01*
X152155346Y-111561956D02*
X149489144Y-111561956D01*
X272420500Y-110519000D02*
X272420600Y-110518900D01*
X137619402Y-112233700D02*
X148817400Y-112233700D01*
X171394228Y-97605772D02*
X168000000Y-101000000D01*
D45*
X272421000Y-110519000D02*
X272420500Y-110519000D01*
D47*
X149489144Y-111561956D02*
X148817400Y-112233700D01*
X173395900Y-95104100D02*
X188421200Y-95104100D01*
X168000000Y-107120800D02*
X167919900Y-107200900D01*
X134548746Y-115304356D02*
X137619402Y-112233700D01*
X264465500Y-110299000D02*
X264245600Y-110518900D01*
D45*
X270745000Y-109794000D02*
X270240000Y-110299000D01*
D47*
X264466000Y-110299000D02*
X264465500Y-110299000D01*
X228745600Y-94788900D02*
X228745600Y-92147200D01*
X210745600Y-92788900D02*
X210745600Y-86233400D01*
X190470400Y-86392800D02*
X190470400Y-86216100D01*
D45*
X270240000Y-110299000D02*
X264466000Y-110299000D01*
X271346000Y-109794000D02*
X270745000Y-109794000D01*
X272420500Y-110519000D02*
X272071000Y-110519000D01*
D47*
X188421200Y-89254107D02*
X188421200Y-95104100D01*
X171886961Y-96613039D02*
X173395900Y-95104100D01*
X171394228Y-96613039D02*
X171394228Y-97605772D01*
X190470446Y-87204861D02*
X188421200Y-89254107D01*
%TO.N,R3*%
X254047300Y-154658000D02*
X254047300Y-153087600D01*
X255105700Y-155001900D02*
X254047300Y-154658000D01*
X230113500Y-151530400D02*
X230113500Y-151530500D01*
X207501100Y-152989400D02*
X208437800Y-152907400D01*
X255631500Y-119408900D02*
X255631500Y-154476035D01*
X231050200Y-151612400D02*
X230113500Y-151530400D01*
X272420500Y-118139000D02*
X272420600Y-118138900D01*
X208437800Y-152907400D02*
X208437800Y-152052700D01*
X230083400Y-151530500D02*
X229838100Y-151285200D01*
X208437800Y-152052700D02*
X208834900Y-151655600D01*
X208834900Y-151655600D02*
X208834900Y-151147800D01*
D45*
X272071000Y-118139000D02*
X271346000Y-117414000D01*
D47*
X230113500Y-151530500D02*
X230083400Y-151530500D01*
D45*
X272420500Y-118139000D02*
X272071000Y-118139000D01*
X271346000Y-117414000D02*
X270745000Y-117414000D01*
D47*
X264466000Y-117919000D02*
X264465500Y-117919000D01*
D45*
X270745000Y-117414000D02*
X270240000Y-117919000D01*
D47*
X255631500Y-154476035D02*
X255105678Y-155001857D01*
X264465500Y-117919000D02*
X264245600Y-118138900D01*
D45*
X270240000Y-117919000D02*
X264466000Y-117919000D01*
X272421000Y-118139000D02*
X272420500Y-118139000D01*
D47*
%TO.N,RAW*%
X271045600Y-92738900D02*
X271045600Y-92739300D01*
D45*
X274410600Y-141215600D02*
X273158600Y-139963600D01*
X274036100Y-136463900D02*
X273158600Y-137341400D01*
X277508900Y-94008900D02*
X277820575Y-94320575D01*
X272081000Y-94008900D02*
X277508900Y-94008900D01*
D47*
X262871000Y-92738900D02*
X262870600Y-92738900D01*
D45*
X263220000Y-92738900D02*
X263945000Y-93463900D01*
X262871000Y-92738900D02*
X263220000Y-92738900D01*
X263945000Y-93463900D02*
X264546000Y-93463900D01*
X277820575Y-133675626D02*
X275032301Y-136463900D01*
X274410600Y-141688900D02*
X274410600Y-141215600D01*
X265041000Y-92968900D02*
X270816000Y-92968900D01*
X275032301Y-136463900D02*
X274036100Y-136463900D01*
X277820575Y-94320575D02*
X277820575Y-133675626D01*
X270928500Y-92856400D02*
X272081000Y-94008900D01*
D47*
X270928500Y-92856400D02*
X270816000Y-92968900D01*
D45*
X264546000Y-93463900D02*
X265041000Y-92968900D01*
D47*
X271045600Y-92739300D02*
X270928500Y-92856400D01*
D45*
X273158600Y-137341400D02*
X273158600Y-139963600D01*
%TO.N,RST*%
X263220000Y-97818900D02*
X263945000Y-98543900D01*
D47*
X271045600Y-97819300D02*
X270816000Y-98048900D01*
X277016000Y-99016000D02*
X277420575Y-99420575D01*
D45*
X265041000Y-98048900D02*
X270816000Y-98048900D01*
D47*
X271045600Y-97818900D02*
X271045600Y-97819300D01*
X277420575Y-99420575D02*
X277420575Y-125913925D01*
D45*
X264546000Y-98543900D02*
X265041000Y-98048900D01*
D47*
X262871000Y-97818900D02*
X262870600Y-97818900D01*
D45*
X263945000Y-98543900D02*
X264546000Y-98543900D01*
X262871000Y-97818900D02*
X263220000Y-97818900D01*
D47*
X274551000Y-99016000D02*
X277016000Y-99016000D01*
X277420575Y-125913925D02*
X276145600Y-127188900D01*
D45*
%TO.N,VCC*%
X271045600Y-100589000D02*
X272020800Y-101564200D01*
X271045600Y-100358900D02*
X271045600Y-100589000D01*
X264546000Y-101084000D02*
X265041000Y-100589000D01*
X276995700Y-122004300D02*
X276500000Y-122500000D01*
X272020800Y-101564200D02*
X275684900Y-101564200D01*
X275684900Y-101564200D02*
X276995700Y-102875000D01*
X262871000Y-100359000D02*
X263220000Y-100359000D01*
X271045600Y-100589000D02*
X270816000Y-100589000D01*
X276995700Y-102875000D02*
X276995700Y-122004300D01*
X263945000Y-101084000D02*
X264546000Y-101084000D01*
X262871000Y-100359000D02*
X262870700Y-100359000D01*
X265041000Y-100589000D02*
X270816000Y-100589000D01*
X262870700Y-100359000D02*
X262870600Y-100358900D01*
X263220000Y-100359000D02*
X263945000Y-101084000D01*
%TO.N,P16*%
X263220000Y-118139000D02*
X263945000Y-118864000D01*
D47*
X271045600Y-118138900D02*
X271045600Y-118139400D01*
X262871000Y-118139000D02*
X262870700Y-118139000D01*
D45*
X264546000Y-118864000D02*
X265041000Y-118369000D01*
D47*
X262870700Y-118139000D02*
X262870600Y-118138900D01*
D45*
X265041000Y-118369000D02*
X270816000Y-118369000D01*
X262871000Y-118139000D02*
X263220000Y-118139000D01*
X263945000Y-118864000D02*
X264546000Y-118864000D01*
D47*
X271045600Y-118139400D02*
X270816000Y-118369000D01*
D45*
%TO.N,P10*%
X263945000Y-121404000D02*
X264546000Y-121404000D01*
X262871000Y-120679000D02*
X263220000Y-120679000D01*
D47*
X262871000Y-120679000D02*
X262870700Y-120679000D01*
X271045600Y-120678900D02*
X271045600Y-120679400D01*
X262870700Y-120679000D02*
X262870600Y-120678900D01*
D45*
X264546000Y-121404000D02*
X265041000Y-120909000D01*
D47*
X271045600Y-120679400D02*
X270816000Y-120909000D01*
D45*
X265041000Y-120909000D02*
X270816000Y-120909000D01*
X263220000Y-120679000D02*
X263945000Y-121404000D01*
%TO.N,LED*%
X272071000Y-92738900D02*
X271346000Y-92013900D01*
X272420600Y-92738900D02*
X272071000Y-92738900D01*
D47*
X264466000Y-92518900D02*
X264465600Y-92518900D01*
D45*
X272421000Y-92738900D02*
X272420600Y-92738900D01*
X271346000Y-92013900D02*
X270745000Y-92013900D01*
X270240000Y-92518900D02*
X264466000Y-92518900D01*
D47*
X264465600Y-92518900D02*
X264245600Y-92738900D01*
D45*
X270745000Y-92013900D02*
X270240000Y-92518900D01*
%TO.N,P0*%
X272420600Y-95278900D02*
X272071000Y-95278900D01*
D47*
X264465600Y-95058900D02*
X264245600Y-95278900D01*
D45*
X270745000Y-94553900D02*
X270240000Y-95058900D01*
X271346000Y-94553900D02*
X270745000Y-94553900D01*
D47*
X264466000Y-95058900D02*
X264465600Y-95058900D01*
D45*
X272071000Y-95278900D02*
X271346000Y-94553900D01*
X272421000Y-95278900D02*
X272420600Y-95278900D01*
X270240000Y-95058900D02*
X264466000Y-95058900D01*
D47*
%TO.N,MOSI*%
X258161800Y-103137200D02*
X258161800Y-124259200D01*
X265740400Y-128308900D02*
X265601800Y-128170300D01*
D45*
X270240000Y-102679000D02*
X264466000Y-102679000D01*
D47*
X264465500Y-102679000D02*
X264245600Y-102898900D01*
X264466000Y-102679000D02*
X264465500Y-102679000D01*
X265740400Y-128308900D02*
X264723873Y-128308900D01*
D45*
X270745000Y-102174000D02*
X270240000Y-102679000D01*
D47*
X264245600Y-102898900D02*
X264245600Y-102731400D01*
X258161800Y-124259200D02*
X261191500Y-127288900D01*
X263283700Y-101769500D02*
X259529500Y-101769500D01*
D45*
X272071000Y-102899000D02*
X271346000Y-102174000D01*
D47*
X259529500Y-101769500D02*
X258161800Y-103137200D01*
X261191500Y-127288900D02*
X261688900Y-127288900D01*
D45*
X272421000Y-102899000D02*
X272420500Y-102899000D01*
D47*
X272420500Y-102899000D02*
X272420600Y-102898900D01*
D45*
X272420500Y-102899000D02*
X272071000Y-102899000D01*
D47*
X262565600Y-127288900D02*
X261688900Y-127288900D01*
X264245600Y-102731400D02*
X263283700Y-101769500D01*
D45*
X271346000Y-102174000D02*
X270745000Y-102174000D01*
D47*
X264723873Y-128308900D02*
X263703873Y-127288900D01*
X263703873Y-127288900D02*
X262565600Y-127288900D01*
%TO.N,SCK*%
X272420500Y-105439000D02*
X272420600Y-105438900D01*
X264245600Y-105271400D02*
X264245600Y-105438900D01*
X264228900Y-127288900D02*
X263835600Y-126895600D01*
X259533200Y-104309500D02*
X263283700Y-104309500D01*
D45*
X271346000Y-104714000D02*
X270745000Y-104714000D01*
D47*
X261261800Y-123504200D02*
X259614000Y-125152000D01*
X265105600Y-127288900D02*
X264228900Y-127288900D01*
X264466000Y-105219000D02*
X264465500Y-105219000D01*
X266150800Y-127288900D02*
X265105600Y-127288900D01*
X263050600Y-123504200D02*
X261261800Y-123504200D01*
X258513500Y-105329200D02*
X259533200Y-104309500D01*
D45*
X272421000Y-105439000D02*
X272420500Y-105439000D01*
X270745000Y-104714000D02*
X270240000Y-105219000D01*
D47*
X263283700Y-104309500D02*
X264245600Y-105271400D01*
X259614000Y-125152000D02*
X259552000Y-125152000D01*
X259552000Y-125152000D02*
X258513500Y-124113500D01*
X264465500Y-105219000D02*
X264245600Y-105438900D01*
D45*
X272071000Y-105439000D02*
X271346000Y-104714000D01*
D47*
X263835600Y-126895600D02*
X263835600Y-124289200D01*
X263835600Y-124289200D02*
X263050600Y-123504200D01*
D45*
X272420500Y-105439000D02*
X272071000Y-105439000D01*
D47*
X258513500Y-124113500D02*
X258513500Y-105329200D01*
X266227100Y-127212600D02*
X266150800Y-127288900D01*
D45*
X270240000Y-105219000D02*
X264466000Y-105219000D01*
D47*
%TO.N,CS*%
X276393700Y-121606300D02*
X276393700Y-110031300D01*
X272420500Y-107979000D02*
X272420600Y-107978900D01*
X271455600Y-126895600D02*
X271455600Y-124301000D01*
X264466000Y-107759000D02*
X264465500Y-107759000D01*
D45*
X272420800Y-107979000D02*
X272420500Y-107979000D01*
D47*
X268915600Y-124309400D02*
X268915600Y-126036300D01*
X271848900Y-127288900D02*
X271455600Y-126895600D01*
X271455600Y-124301000D02*
X270643800Y-123489200D01*
X269735800Y-123489200D02*
X268915600Y-124309400D01*
X270643800Y-123489200D02*
X269735800Y-123489200D01*
X275611300Y-109248900D02*
X276393700Y-110031300D01*
D45*
X272071000Y-107979000D02*
X271346000Y-107254000D01*
X271346000Y-107254000D02*
X270745000Y-107254000D01*
D47*
X266066200Y-128885700D02*
X264487500Y-128885700D01*
X264465500Y-107759000D02*
X264245600Y-107978900D01*
X272420800Y-107979000D02*
X272420800Y-108050500D01*
X275925000Y-124839500D02*
X275925000Y-122075000D01*
X275925000Y-122075000D02*
X276393700Y-121606300D01*
D45*
X272420500Y-107979000D02*
X272071000Y-107979000D01*
X270745000Y-107254000D02*
X270240000Y-107759000D01*
D47*
X273475600Y-127288900D02*
X275925000Y-124839500D01*
X272725600Y-127288900D02*
X271848900Y-127288900D01*
D45*
X272421000Y-107979000D02*
X272420800Y-107979000D01*
D47*
X273619200Y-109248900D02*
X275611300Y-109248900D01*
X272420800Y-108050500D02*
X273619200Y-109248900D01*
X264487500Y-128885700D02*
X264348800Y-128747000D01*
X272725600Y-127288900D02*
X273475600Y-127288900D01*
D45*
X270240000Y-107759000D02*
X264466000Y-107759000D01*
D47*
X268915600Y-126036300D02*
X266066200Y-128885700D01*
D45*
%TO.N,DAT*%
X272071000Y-120679000D02*
X271346000Y-119954000D01*
X270240000Y-120459000D02*
X264466000Y-120459000D01*
X272421000Y-120679000D02*
X272420500Y-120679000D01*
X270745000Y-119954000D02*
X270240000Y-120459000D01*
X271346000Y-119954000D02*
X270745000Y-119954000D01*
D47*
X272420500Y-120679000D02*
X272420600Y-120678900D01*
X264466000Y-120459000D02*
X264465500Y-120459000D01*
D45*
X272420500Y-120679000D02*
X272071000Y-120679000D01*
D47*
X264465500Y-120459000D02*
X264245600Y-120678900D01*
D45*
%TO.N,MCU1_24*%
X262145600Y-92738900D02*
X262146000Y-92738900D01*
D47*
X260026000Y-92738900D02*
X260025600Y-92738900D01*
D45*
X260026000Y-92738900D02*
X262145600Y-92738900D01*
%TO.N,MCU1_1*%
X275265600Y-92738900D02*
X273146000Y-92738900D01*
X275266000Y-92738900D02*
X275265600Y-92738900D01*
D47*
%TO.N,MCU1_23*%
X260026000Y-95278900D02*
X260025600Y-95278900D01*
D45*
X262145600Y-95278900D02*
X262146000Y-95278900D01*
X260026000Y-95278900D02*
X262145600Y-95278900D01*
%TO.N,MCU1_2*%
X275265600Y-95278900D02*
X273146000Y-95278900D01*
X275266000Y-95278900D02*
X275265600Y-95278900D01*
%TO.N,MCU1_22*%
X260026000Y-97818900D02*
X262145600Y-97818900D01*
D47*
X260026000Y-97818900D02*
X260025600Y-97818900D01*
D45*
X262145600Y-97818900D02*
X262146000Y-97818900D01*
%TO.N,MCU1_3*%
X275265600Y-97818900D02*
X273146000Y-97818900D01*
X275266000Y-97818900D02*
X275265600Y-97818900D01*
D47*
%TO.N,MCU1_21*%
X260025700Y-100359000D02*
X260025600Y-100358900D01*
D45*
X260026000Y-100359000D02*
X262146000Y-100359000D01*
D47*
X260026000Y-100359000D02*
X260025700Y-100359000D01*
D45*
%TO.N,MCU1_4*%
X275265500Y-100359000D02*
X273146000Y-100359000D01*
X275266000Y-100359000D02*
X275265500Y-100359000D01*
D47*
X275265500Y-100359000D02*
X275265600Y-100358900D01*
D45*
%TO.N,MCU1_20*%
X260026000Y-102899000D02*
X262146000Y-102899000D01*
D47*
X260025700Y-102899000D02*
X260025600Y-102898900D01*
X260026000Y-102899000D02*
X260025700Y-102899000D01*
%TO.N,MCU1_5*%
X275265500Y-102899000D02*
X275265600Y-102898900D01*
D45*
X275266000Y-102899000D02*
X275265500Y-102899000D01*
X275265500Y-102899000D02*
X273146000Y-102899000D01*
D47*
%TO.N,MCU1_19*%
X260025700Y-105439000D02*
X260025600Y-105438900D01*
X260026000Y-105439000D02*
X260025700Y-105439000D01*
D45*
X260026000Y-105439000D02*
X262146000Y-105439000D01*
%TO.N,MCU1_6*%
X275266000Y-105439000D02*
X275265500Y-105439000D01*
D47*
X275265500Y-105439000D02*
X275265600Y-105438900D01*
D45*
X275265500Y-105439000D02*
X273146000Y-105439000D01*
%TO.N,MCU1_18*%
X260026000Y-107979000D02*
X262146000Y-107979000D01*
D47*
X260026000Y-107979000D02*
X260025700Y-107979000D01*
X260025700Y-107979000D02*
X260025600Y-107978900D01*
D45*
%TO.N,MCU1_7*%
X275266000Y-107979000D02*
X275265500Y-107979000D01*
D47*
X275265500Y-107979000D02*
X275265600Y-107978900D01*
D45*
X275265500Y-107979000D02*
X273146000Y-107979000D01*
%TO.N,MCU1_17*%
X260026000Y-110519000D02*
X262146000Y-110519000D01*
D47*
X260026000Y-110519000D02*
X260025700Y-110519000D01*
X260025700Y-110519000D02*
X260025600Y-110518900D01*
D45*
%TO.N,MCU1_8*%
X275265500Y-110519000D02*
X273146000Y-110519000D01*
D47*
X275265500Y-110519000D02*
X275265600Y-110518900D01*
D45*
X275266000Y-110519000D02*
X275265500Y-110519000D01*
D47*
%TO.N,MCU1_16*%
X260025700Y-113059000D02*
X260025600Y-113058900D01*
X260026000Y-113059000D02*
X260025700Y-113059000D01*
D45*
X260026000Y-113059000D02*
X262146000Y-113059000D01*
%TO.N,MCU1_9*%
X275266000Y-113059000D02*
X275265500Y-113059000D01*
X275265500Y-113059000D02*
X273146000Y-113059000D01*
D47*
X275265500Y-113059000D02*
X275265600Y-113058900D01*
%TO.N,MCU1_15*%
X260025700Y-115599000D02*
X260025600Y-115598900D01*
D45*
X260026000Y-115599000D02*
X262146000Y-115599000D01*
D47*
X260026000Y-115599000D02*
X260025700Y-115599000D01*
D45*
%TO.N,MCU1_10*%
X275265500Y-115599000D02*
X273146000Y-115599000D01*
X275266000Y-115599000D02*
X275265500Y-115599000D01*
D47*
X275265500Y-115599000D02*
X275265600Y-115598900D01*
%TO.N,MCU1_14*%
X260025700Y-118139000D02*
X260025600Y-118138900D01*
X260026000Y-118139000D02*
X260025700Y-118139000D01*
D45*
X260026000Y-118139000D02*
X262146000Y-118139000D01*
%TO.N,MCU1_11*%
X275266000Y-118139000D02*
X275265500Y-118139000D01*
X275265500Y-118139000D02*
X273146000Y-118139000D01*
D47*
X275265500Y-118139000D02*
X275265600Y-118138900D01*
D45*
%TO.N,MCU1_13*%
X260026000Y-120679000D02*
X262146000Y-120679000D01*
D47*
X260026000Y-120679000D02*
X260025700Y-120679000D01*
X260025700Y-120679000D02*
X260025600Y-120678900D01*
D45*
%TO.N,MCU1_12*%
X275266000Y-120679000D02*
X275265500Y-120679000D01*
D47*
X275265500Y-120679000D02*
X275265600Y-120678900D01*
D45*
X275265500Y-120679000D02*
X273146000Y-120679000D01*
%TO.N,DISP1_1*%
X262566000Y-125076500D02*
X262566000Y-125514000D01*
X262566000Y-124639000D02*
X262566000Y-125076500D01*
X262566000Y-125514000D02*
X262566000Y-126389000D01*
D47*
X262565600Y-125076100D02*
X262565600Y-124638900D01*
X262566000Y-125076500D02*
X262565600Y-125076100D01*
%TO.N,DISP1_2*%
X265105600Y-125076100D02*
X265105600Y-124638900D01*
D45*
X265106000Y-125076500D02*
X265106000Y-125514000D01*
X265106000Y-125514000D02*
X265106000Y-126389000D01*
D47*
X265106000Y-125076500D02*
X265105600Y-125076100D01*
D45*
X265106000Y-124639000D02*
X265106000Y-125076500D01*
%TO.N,DISP1_4*%
X270186000Y-125076500D02*
X270186000Y-125514000D01*
D47*
X270186000Y-125076500D02*
X270185600Y-125076100D01*
D45*
X270186000Y-124639000D02*
X270186000Y-125076500D01*
D47*
X270185600Y-125076100D02*
X270185600Y-124638900D01*
D45*
X270186000Y-125514000D02*
X270186000Y-126389000D01*
D47*
%TO.N,DISP1_5*%
X272726000Y-125076500D02*
X272725600Y-125076100D01*
D45*
X272726000Y-125076500D02*
X272726000Y-125514000D01*
D47*
X272725600Y-125076100D02*
X272725600Y-124638900D01*
D45*
X272726000Y-125514000D02*
X272726000Y-126389000D01*
X272726000Y-124639000D02*
X272726000Y-125076500D01*
%TO.N,BAT_P*%
X273145200Y-142828400D02*
X274050100Y-142828400D01*
X266600300Y-132577600D02*
X265961600Y-131938900D01*
X266600300Y-136283500D02*
X273145200Y-142828400D01*
X266538300Y-132913500D02*
X266600300Y-132975500D01*
X274050100Y-142828400D02*
X274410600Y-143188900D01*
X266600300Y-132975500D02*
X266600300Y-132577600D01*
X266600300Y-132975500D02*
X266600300Y-136283500D01*
%TO.N,BAT1_1*%
X264946000Y-133939000D02*
X263146000Y-133939000D01*
X263146000Y-133939000D02*
X263145700Y-133939000D01*
X263145700Y-133939000D02*
X263145600Y-133938900D01*
%TO.N,BAT1_2*%
X263146000Y-131939000D02*
X263145700Y-131939000D01*
X263145700Y-131939000D02*
X263145600Y-131938900D01*
X264946000Y-131939000D02*
X263146000Y-131939000D01*
%TD*%
D48*
X252671300Y-101665000D03*
X252671300Y-139919600D03*
X147271000Y-137162000D03*
X143737000Y-120533000D03*
X150806000Y-153790000D03*
X150639000Y-153008000D03*
X265961600Y-135074700D03*
X147105000Y-136379000D03*
X143570000Y-119751000D03*
X257500000Y-89500000D03*
X164878000Y-133419000D03*
X161343000Y-116791000D03*
X168412000Y-150048000D03*
X168246000Y-149265000D03*
X164711000Y-132637000D03*
X161177000Y-116008000D03*
X183539000Y-136587000D03*
X181762000Y-119681000D03*
X179985000Y-102774000D03*
X182500000Y-135892000D03*
X181679000Y-118885000D03*
X179902000Y-101978000D03*
X199617000Y-110784000D03*
X200507000Y-127760000D03*
X196455087Y-104544913D03*
X198727000Y-93806800D03*
X215983000Y-159299000D03*
X196500000Y-101500000D03*
X200465000Y-126961000D03*
X199575000Y-109985000D03*
X198685000Y-93007900D03*
X221920600Y-124673100D03*
X238308000Y-159299000D03*
X218646000Y-116814000D03*
X259379000Y-124124200D03*
X218646000Y-133814000D03*
X218646000Y-99813900D03*
X218646000Y-133014000D03*
X218646000Y-116014000D03*
X218646000Y-99013900D03*
X236646000Y-101814000D03*
X236646000Y-135814000D03*
X236646000Y-118814000D03*
X250292200Y-166291900D03*
X260448000Y-164124000D03*
X236646000Y-135014000D03*
X236646000Y-118014000D03*
X236646000Y-101014000D03*
X215914000Y-158502000D03*
X238378000Y-158502000D03*
X260695000Y-163363000D03*
X190348000Y-127687200D03*
X228745600Y-127515600D03*
X172875600Y-142414500D03*
X208415000Y-119339700D03*
X247418800Y-127630000D03*
X201660300Y-119339700D03*
X247418800Y-114472200D03*
X158148400Y-146252000D03*
X143569700Y-145371400D03*
X205963900Y-103165900D03*
X193374500Y-103165900D03*
X192436400Y-108860900D03*
X173235700Y-112188300D03*
X148000000Y-128000000D03*
X171108300Y-123835900D03*
X229849900Y-111788900D03*
X154147600Y-127572800D03*
X188421200Y-95104100D03*
X210745600Y-86233400D03*
X249445200Y-109248900D03*
X148817400Y-112233700D03*
X190470400Y-86216100D03*
X249445200Y-94788900D03*
X167919900Y-107200900D03*
X228745600Y-92147200D03*
X255631500Y-119408900D03*
X254047300Y-153087600D03*
X229838100Y-151285200D03*
X208834900Y-151147800D03*
X273158600Y-139963600D03*
X274551000Y-99016000D03*
X276500000Y-122500000D03*
X265740400Y-128308900D03*
X266227100Y-127212600D03*
X264348800Y-128747000D03*
X273145200Y-142828400D03*
X266600300Y-132975500D03*
D49*
X252645600Y-142938900D03*
X200877000Y-158738600D03*
X157036100Y-139814500D03*
X273604300Y-152758400D03*
X153501600Y-123186000D03*
X275265600Y-92738900D03*
X275265600Y-95278900D03*
X275265600Y-97818900D03*
X275265600Y-100358900D03*
X275265600Y-102898900D03*
X275265600Y-105438900D03*
X275265600Y-107978900D03*
X275265600Y-110518900D03*
X275265600Y-113058900D03*
X275265600Y-115598900D03*
X275265600Y-118138900D03*
X275265600Y-120678900D03*
X260025600Y-120678900D03*
X260025600Y-118138900D03*
X260025600Y-115598900D03*
X260025600Y-113058900D03*
X260025600Y-110518900D03*
X260025600Y-107978900D03*
X260025600Y-105438900D03*
X260025600Y-102898900D03*
X260025600Y-100358900D03*
X260025600Y-97818900D03*
X260025600Y-95278900D03*
X260025600Y-92738900D03*
X271045600Y-92738900D03*
X271045600Y-95278900D03*
X271045600Y-97818900D03*
X271045600Y-100358900D03*
X271045600Y-102898900D03*
X271045600Y-105438900D03*
X271045600Y-107978900D03*
X271045600Y-110518900D03*
X271045600Y-113058900D03*
X271045600Y-115598900D03*
X271045600Y-118138900D03*
X271045600Y-120678900D03*
X264245600Y-120678900D03*
X264245600Y-118138900D03*
X264245600Y-115598900D03*
X264245600Y-113058900D03*
X264245600Y-110518900D03*
X264245600Y-107978900D03*
X264245600Y-105438900D03*
X264245600Y-102898900D03*
X264245600Y-100358900D03*
X264245600Y-97818900D03*
X264245600Y-95278900D03*
X264245600Y-92738900D03*
X263145600Y-133938900D03*
X263145600Y-131938900D03*
X262565600Y-124638900D03*
X265105600Y-124638900D03*
X267645600Y-124638900D03*
X270185600Y-124638900D03*
X272725600Y-124638900D03*
X252645600Y-92938900D03*
X276145600Y-127188900D03*
X276145600Y-133688900D03*
X276170600Y-139438900D03*
X276170600Y-142438900D03*
X172986512Y-145114086D03*
X173277107Y-148886095D03*
X168843775Y-152077578D03*
X167606700Y-146257600D03*
X163495631Y-150965212D03*
X162226888Y-147401114D03*
X151845312Y-132227986D03*
X152135907Y-135999995D03*
X147702575Y-139191478D03*
X146465500Y-133371500D03*
X142354431Y-138079112D03*
X141085688Y-134515014D03*
X221124671Y-154959543D03*
X220953411Y-158738851D03*
X216164177Y-161366258D03*
X215645600Y-155438900D03*
X210991461Y-159610409D03*
X210166529Y-155918257D03*
X169452012Y-128485586D03*
X169742607Y-132257595D03*
X165309275Y-135449078D03*
X164072200Y-129629100D03*
X159961131Y-134336712D03*
X158692388Y-130772614D03*
X148310812Y-115599486D03*
X148601407Y-119371495D03*
X144168075Y-122562978D03*
X142931000Y-116743000D03*
X138819931Y-121450612D03*
X137551188Y-117886514D03*
X224145600Y-129938900D03*
X223645600Y-133688900D03*
X218645600Y-135888900D03*
X218645600Y-129938900D03*
X213645600Y-133688900D03*
X213145600Y-129938900D03*
X266876411Y-162138493D03*
X265242069Y-165550447D03*
X259806949Y-166097686D03*
X261645600Y-160438900D03*
X255731504Y-162460277D03*
X256414789Y-158739307D03*
X224145600Y-95938900D03*
X223645600Y-99688900D03*
X218645600Y-101888900D03*
X218645600Y-95938900D03*
X213645600Y-99688900D03*
X213145600Y-95938900D03*
X224145600Y-112938900D03*
X223645600Y-116688900D03*
X218645600Y-118888900D03*
X218645600Y-112938900D03*
X213645600Y-116688900D03*
X213145600Y-112938900D03*
X204906662Y-106625952D03*
X204603608Y-110396981D03*
X199725599Y-112855646D03*
X199414200Y-106913800D03*
X194617312Y-110920341D03*
X193921738Y-107201648D03*
X165917512Y-111857086D03*
X166208107Y-115629095D03*
X161774775Y-118820578D03*
X160537700Y-113000600D03*
X156426631Y-117708212D03*
X155157888Y-114144114D03*
X204016962Y-89649252D03*
X203713908Y-93420281D03*
X198835899Y-95878946D03*
X198524500Y-89937100D03*
X193727612Y-93943641D03*
X193032038Y-90224948D03*
X242145600Y-97938900D03*
X241645600Y-101688900D03*
X236645600Y-103888900D03*
X236645600Y-97938900D03*
X231645600Y-101688900D03*
X231145600Y-97938900D03*
X242145600Y-131938900D03*
X241645600Y-135688900D03*
X236645600Y-137888900D03*
X236645600Y-131938900D03*
X231645600Y-135688900D03*
X231145600Y-131938900D03*
X205796362Y-123602652D03*
X205493308Y-127373681D03*
X200615299Y-129832346D03*
X200303900Y-123890500D03*
X195507012Y-127897041D03*
X194811438Y-124178348D03*
X244124671Y-155918257D03*
X243299739Y-159610409D03*
X238127023Y-161366258D03*
X238645600Y-155438900D03*
X233337789Y-158738851D03*
X233166529Y-154959543D03*
X242145600Y-114938900D03*
X241645600Y-118688900D03*
X236645600Y-120888900D03*
X236645600Y-114938900D03*
X231645600Y-118688900D03*
X231145600Y-114938900D03*
X186827070Y-115251893D03*
X186721791Y-119033615D03*
X181979144Y-121744205D03*
X181357200Y-115826800D03*
X176776572Y-120078899D03*
X175887330Y-116401707D03*
X185050070Y-98345093D03*
X184944791Y-102126815D03*
X180202144Y-104837405D03*
X179580200Y-98920000D03*
X174999572Y-103172099D03*
X174110330Y-99494907D03*
X155379812Y-148856486D03*
X155670407Y-152628495D03*
X151237075Y-155819978D03*
X150000000Y-150000000D03*
X145888931Y-154707612D03*
X144620188Y-151143514D03*
X188604070Y-132158793D03*
X188498791Y-135940515D03*
X183756144Y-138651105D03*
X183134200Y-132733700D03*
X178553572Y-136985799D03*
X177664330Y-133308607D03*
M02*
