M48
METRIC,TZ
T1C0.300
T2C0.400
T3C0.750
T4C1.000
%
G90
G05
T1
X143570Y-145371
X143570Y-119751
X143737Y-120533
X147105Y-136379
X147271Y-137162
X148000Y-128000
X148817Y-112234
X150639Y-153008
X150806Y-153790
X154148Y-127573
X158148Y-146252
X161177Y-116008
X161343Y-116791
X164711Y-132637
X164878Y-133419
X167920Y-107201
X168246Y-149265
X168412Y-150048
X171108Y-123836
X172876Y-142415
X173236Y-112188
X179902Y-101978
X179985Y-102774
X181679Y-118885
X181762Y-119681
X182500Y-135892
X183539Y-136587
X188421Y-95104
X190348Y-127687
X190470Y-86216
X192436Y-108861
X193374Y-103166
X196455Y-104545
X196500Y-101500
X198685Y-93008
X198727Y-93807
X199575Y-109985
X199617Y-110784
X200465Y-126961
X200507Y-127760
X201660Y-119340
X205964Y-103166
X208415Y-119340
X208835Y-151148
X210746Y-86233
X215914Y-158502
X215983Y-159299
X218646Y-99014
X218646Y-99814
X218646Y-116014
X218646Y-116814
X218646Y-133014
X218646Y-133814
X221921Y-124673
X228746Y-92147
X228746Y-127516
X229838Y-151285
X229850Y-111789
X236646Y-101014
X236646Y-101814
X236646Y-118014
X236646Y-118814
X236646Y-135014
X236646Y-135814
X238308Y-159299
X238378Y-158502
X247419Y-114472
X247419Y-127630
X249445Y-94789
X249445Y-109249
X250292Y-166292
X252671Y-101665
X252671Y-139920
X254047Y-153088
X255632Y-119409
X257500Y-89500
X259379Y-124124
X260448Y-164124
X260695Y-163363
X264349Y-128747
X265740Y-128309
X265962Y-135075
X266227Y-127213
X266600Y-132976
X273145Y-142828
X273159Y-139964
X274551Y-99016
X276500Y-122500
T2
X264246Y-92739
X264246Y-95279
X264246Y-97819
X264246Y-100359
X264246Y-102899
X264246Y-105439
X264246Y-107979
X264246Y-110519
X264246Y-113059
X264246Y-115599
X264246Y-118139
X264246Y-120679
X271046Y-92739
X271046Y-95279
X271046Y-97819
X271046Y-100359
X271046Y-102899
X271046Y-105439
X271046Y-107979
X271046Y-110519
X271046Y-113059
X271046Y-115599
X271046Y-118139
X271046Y-120679
T3
X263146Y-131939
X263146Y-133939
T4
X260026Y-92739
X260026Y-95279
X260026Y-97819
X260026Y-100359
X260026Y-102899
X260026Y-105439
X260026Y-107979
X260026Y-110519
X260026Y-113059
X260026Y-115599
X260026Y-118139
X260026Y-120679
X262566Y-124639
X265106Y-124639
X267646Y-124639
X270186Y-124639
X272726Y-124639
X275266Y-92739
X275266Y-95279
X275266Y-97819
X275266Y-100359
X275266Y-102899
X275266Y-105439
X275266Y-107979
X275266Y-110519
X275266Y-113059
X275266Y-115599
X275266Y-118139
X275266Y-120679
X276146Y-127189
X276146Y-133689
M30
