M48
METRIC,TZ
T1C0.900
T2C1.900
T3C3.000
T4C4.300
T5C5.000
%
G90
G05
T1
X276171Y-139439
X276171Y-142439
T2
X137551Y-117887
X141086Y-134515
X144620Y-151144
X148311Y-115599
X151845Y-132228
X155158Y-114144
X155380Y-148856
X158692Y-130773
X162227Y-147401
X165918Y-111857
X169452Y-128486
X172987Y-145114
X174110Y-99495
X175887Y-116402
X177664Y-133309
X185050Y-98345
X186827Y-115252
X188604Y-132159
X193032Y-90225
X193922Y-107202
X194811Y-124178
X204017Y-89649
X204907Y-106626
X205796Y-123603
X210167Y-155918
X213146Y-95939
X213146Y-112939
X213146Y-129939
X221125Y-154960
X224146Y-95939
X224146Y-112939
X224146Y-129939
X231146Y-97939
X231146Y-114939
X231146Y-131939
X233167Y-154960
X242146Y-97939
X242146Y-114939
X242146Y-131939
X244125Y-155918
X256415Y-158739
X266876Y-162138
T3
X138820Y-121451
X142354Y-138079
X144168Y-122563
X145889Y-154708
X147703Y-139191
X148601Y-119371
X151237Y-155820
X152136Y-136000
X155670Y-152628
X156427Y-117708
X159961Y-134337
X161775Y-118821
X163496Y-150965
X165309Y-135449
X166208Y-115629
X168844Y-152078
X169743Y-132258
X173277Y-148886
X175000Y-103172
X176777Y-120079
X178554Y-136986
X180202Y-104837
X181979Y-121744
X183756Y-138651
X184945Y-102127
X186722Y-119034
X188499Y-135941
X193728Y-93944
X194617Y-110920
X195507Y-127897
X198836Y-95879
X199726Y-112856
X200615Y-129832
X203714Y-93420
X204604Y-110397
X205493Y-127374
X210991Y-159610
X213646Y-99689
X213646Y-116689
X213646Y-133689
X216164Y-161366
X218646Y-101889
X218646Y-118889
X218646Y-135889
X220953Y-158739
X223646Y-99689
X223646Y-116689
X223646Y-133689
X231646Y-101689
X231646Y-118689
X231646Y-135689
X233338Y-158739
X236646Y-103889
X236646Y-120889
X236646Y-137889
X238127Y-161366
X241646Y-101689
X241646Y-118689
X241646Y-135689
X243300Y-159610
X255732Y-162460
X259807Y-166098
X265242Y-165550
T4
X153502Y-123186
X157036Y-139814
X200877Y-158739
X252646Y-92939
X252646Y-142939
X273604Y-152758
T5
X142931Y-116743
X146466Y-133372
X150000Y-150000
X160538Y-113001
X164072Y-129629
X167607Y-146258
X179580Y-98920
X181357Y-115827
X183134Y-132734
X198524Y-89937
X199414Y-106914
X200304Y-123891
X215646Y-155439
X218646Y-95939
X218646Y-112939
X218646Y-129939
X236646Y-97939
X236646Y-114939
X236646Y-131939
X238646Y-155439
X261646Y-160439
M30
