%TF.GenerationSoftware,KiCad,Pcbnew,8.0.6*%
%TF.CreationDate,2024-12-16T11:38:41+00:00*%
%TF.ProjectId,scorn_choc_wireless,73636f72-6e5f-4636-986f-635f77697265,v1.0.0*%
%TF.SameCoordinates,Original*%
%TF.FileFunction,Profile,NP*%
%FSLAX46Y46*%
G04 Gerber Fmt 4.6, Leading zero omitted, Abs format (unit mm)*
G04 Created by KiCad (PCBNEW 8.0.6) date 2024-12-16 11:38:41*
%MOMM*%
%LPD*%
G01*
G04 APERTURE LIST*
%TA.AperFunction,Profile*%
%ADD10C,0.150000*%
%TD*%
%ADD11C,0.350000*%
G04 APERTURE END LIST*
D10*
X205094923Y-166602009D02*
X181177165Y-154557270D01*
X151563760Y-104169986D02*
G75*
G02*
X151450541Y-104197518I-529160J1929486D01*
G01*
X227341300Y-164955762D02*
G75*
G02*
X227696353Y-164956337I174300J-1992638D01*
G01*
X142343299Y-162362058D02*
G75*
G02*
X139963237Y-160782389I-415799J1956358D01*
G01*
X213315275Y-85438897D02*
X228005967Y-85438897D01*
X168655628Y-97677555D02*
X167825855Y-91674176D01*
X167825855Y-91674176D02*
G75*
G02*
X169597969Y-89411357I1981045J273876D01*
G01*
X209531893Y-80092485D02*
X211505341Y-84289860D01*
X130357471Y-110684788D02*
G75*
G02*
X131905858Y-108351826I1964329J376588D01*
G01*
X247362601Y-166740898D02*
X227696353Y-164956335D01*
X247362601Y-166740898D02*
G75*
G02*
X247812103Y-166834614I-180601J-1991102D01*
G01*
X142343299Y-162362058D02*
X179861788Y-154387257D01*
X228005967Y-85438897D02*
G75*
G02*
X229967084Y-87046674I33J-1999903D01*
G01*
X185386357Y-86430639D02*
G75*
G02*
X183655329Y-87933812I-1940057J485839D01*
G01*
X269609847Y-172195452D02*
G75*
G02*
X267161832Y-173259454I-1817747J834052D01*
G01*
X229967129Y-87046665D02*
X230045575Y-87438897D01*
X206168788Y-166808117D02*
G75*
G02*
X205094923Y-166602010I-174288J1992517D01*
G01*
X151563760Y-104169986D02*
X167203504Y-99880147D01*
X276445575Y-87438897D02*
G75*
G02*
X278445603Y-89438897I25J-2000003D01*
G01*
X169597963Y-89411300D02*
X183655329Y-87933811D01*
X168655628Y-97677555D02*
G75*
G02*
X167203501Y-99880135I-1981128J-273845D01*
G01*
X179861788Y-154387257D02*
G75*
G02*
X181177163Y-154557273I415812J-1956343D01*
G01*
X185386357Y-86430639D02*
X186630884Y-81461238D01*
X278263354Y-153336029D02*
X269609847Y-172195452D01*
X267161823Y-173259480D02*
X247812104Y-166834612D01*
X278445575Y-89438897D02*
X278445575Y-152501955D01*
X278445575Y-152501955D02*
G75*
G02*
X278263344Y-153336024I-1999675J-45D01*
G01*
X227341300Y-164955762D02*
X206168788Y-166808117D01*
X213315275Y-85438897D02*
G75*
G02*
X211505311Y-84289874I25J2000097D01*
G01*
X186630884Y-81461238D02*
G75*
G02*
X188466296Y-79949831I1940016J-485762D01*
G01*
X139963257Y-160782385D02*
X130357471Y-110684788D01*
X131905867Y-108351870D02*
X151450542Y-104197521D01*
X230045575Y-87438897D02*
X276445575Y-87438897D01*
X207617287Y-78946189D02*
G75*
G02*
X209531939Y-80092464I104813J-1997111D01*
G01*
X188466297Y-79949850D02*
X207617287Y-78946189D01*
D11*
X252645600Y-142938900D03*
X200877000Y-158738600D03*
X157036100Y-139814500D03*
X273604300Y-152758400D03*
X153501600Y-123186000D03*
X264245600Y-92738900D03*
X264245600Y-95278900D03*
X264245600Y-97818900D03*
X264245600Y-100358900D03*
X264245600Y-102898900D03*
X264245600Y-105438900D03*
X264245600Y-107978900D03*
X264245600Y-110518900D03*
X264245600Y-113058900D03*
X264245600Y-115598900D03*
X264245600Y-118138900D03*
X264245600Y-120678900D03*
X271045600Y-120678900D03*
X271045600Y-118138900D03*
X271045600Y-115598900D03*
X271045600Y-113058900D03*
X271045600Y-110518900D03*
X271045600Y-107978900D03*
X271045600Y-105438900D03*
X271045600Y-102898900D03*
X271045600Y-100358900D03*
X271045600Y-97818900D03*
X271045600Y-95278900D03*
X271045600Y-92738900D03*
X260025600Y-92738900D03*
X260025600Y-95278900D03*
X260025600Y-97818900D03*
X260025600Y-100358900D03*
X260025600Y-102898900D03*
X260025600Y-105438900D03*
X260025600Y-107978900D03*
X260025600Y-110518900D03*
X260025600Y-113058900D03*
X260025600Y-115598900D03*
X260025600Y-118138900D03*
X260025600Y-120678900D03*
X275265600Y-120678900D03*
X275265600Y-118138900D03*
X275265600Y-115598900D03*
X275265600Y-113058900D03*
X275265600Y-110518900D03*
X275265600Y-107978900D03*
X275265600Y-105438900D03*
X275265600Y-102898900D03*
X275265600Y-100358900D03*
X275265600Y-97818900D03*
X275265600Y-95278900D03*
X275265600Y-92738900D03*
X263145600Y-131938900D03*
X263145600Y-133938900D03*
X272725600Y-124638900D03*
X270185600Y-124638900D03*
X267645600Y-124638900D03*
X265105600Y-124638900D03*
X262565600Y-124638900D03*
X252645600Y-92938900D03*
X276145600Y-133688900D03*
X276145600Y-127188900D03*
X276170600Y-142438900D03*
X276170600Y-139438900D03*
X162226888Y-147401114D03*
X163495631Y-150965212D03*
X167606700Y-146257600D03*
X168843775Y-152077578D03*
X173277107Y-148886095D03*
X172986512Y-145114086D03*
X141085688Y-134515014D03*
X142354431Y-138079112D03*
X146465500Y-133371500D03*
X147702575Y-139191478D03*
X152135907Y-135999995D03*
X151845312Y-132227986D03*
X210166529Y-155918257D03*
X210991461Y-159610409D03*
X215645600Y-155438900D03*
X216164177Y-161366258D03*
X220953410Y-158738851D03*
X221124671Y-154959543D03*
X158692388Y-130772614D03*
X159961131Y-134336712D03*
X164072200Y-129629100D03*
X165309275Y-135449078D03*
X169742607Y-132257595D03*
X169452012Y-128485586D03*
X137551188Y-117886514D03*
X138819931Y-121450612D03*
X142931000Y-116743000D03*
X144168075Y-122562978D03*
X148601407Y-119371495D03*
X148310812Y-115599486D03*
X213145600Y-129938900D03*
X213645600Y-133688900D03*
X218645600Y-129938900D03*
X218645600Y-135888900D03*
X223645600Y-133688900D03*
X224145600Y-129938900D03*
X256414789Y-158739307D03*
X255731504Y-162460277D03*
X261645600Y-160438900D03*
X259806949Y-166097686D03*
X265242069Y-165550447D03*
X266876411Y-162138493D03*
X213145600Y-95938900D03*
X213645600Y-99688900D03*
X218645600Y-95938900D03*
X218645600Y-101888900D03*
X223645600Y-99688900D03*
X224145600Y-95938900D03*
X213145600Y-112938900D03*
X213645600Y-116688900D03*
X218645600Y-112938900D03*
X218645600Y-118888900D03*
X223645600Y-116688900D03*
X224145600Y-112938900D03*
X193921738Y-107201648D03*
X194617312Y-110920341D03*
X199414200Y-106913800D03*
X199725599Y-112855646D03*
X204603608Y-110396981D03*
X204906662Y-106625952D03*
X155157888Y-114144114D03*
X156426631Y-117708212D03*
X160537700Y-113000600D03*
X161774775Y-118820578D03*
X166208107Y-115629095D03*
X165917512Y-111857086D03*
X193032038Y-90224948D03*
X193727612Y-93943641D03*
X198524500Y-89937100D03*
X198835899Y-95878946D03*
X203713908Y-93420281D03*
X204016962Y-89649252D03*
X231145600Y-97938900D03*
X231645600Y-101688900D03*
X236645600Y-97938900D03*
X236645600Y-103888900D03*
X241645600Y-101688900D03*
X242145600Y-97938900D03*
X231145600Y-131938900D03*
X231645600Y-135688900D03*
X236645600Y-131938900D03*
X236645600Y-137888900D03*
X241645600Y-135688900D03*
X242145600Y-131938900D03*
X194811438Y-124178348D03*
X195507012Y-127897041D03*
X200303900Y-123890500D03*
X200615299Y-129832346D03*
X205493308Y-127373681D03*
X205796362Y-123602652D03*
X233166529Y-154959543D03*
X233337790Y-158738851D03*
X238645600Y-155438900D03*
X238127023Y-161366258D03*
X243299739Y-159610409D03*
X244124671Y-155918257D03*
X231145600Y-114938900D03*
X231645600Y-118688900D03*
X236645600Y-114938900D03*
X236645600Y-120888900D03*
X241645600Y-118688900D03*
X242145600Y-114938900D03*
X175887330Y-116401707D03*
X176776572Y-120078899D03*
X181357200Y-115826800D03*
X181979144Y-121744205D03*
X186721791Y-119033615D03*
X186827070Y-115251893D03*
X174110330Y-99494907D03*
X174999572Y-103172099D03*
X179580200Y-98920000D03*
X180202144Y-104837405D03*
X184944791Y-102126815D03*
X185050070Y-98345093D03*
X144620188Y-151143514D03*
X145888931Y-154707612D03*
X150000000Y-150000000D03*
X151237075Y-155819978D03*
X155670407Y-152628495D03*
X155379812Y-148856486D03*
X177664330Y-133308607D03*
X178553572Y-136985799D03*
X183134200Y-132733700D03*
X183756144Y-138651105D03*
X188498791Y-135940515D03*
X188604070Y-132158793D03*
M02*
