M48
; DRILL file {KiCad 8.0.5} date 2024-10-14T20:57:03+0100
; FORMAT={-:-/ absolute / metric / decimal}
; #@! TF.CreationDate,2024-10-14T20:57:03+01:00
; #@! TF.GenerationSoftware,Kicad,Pcbnew,8.0.5
; #@! TF.FileFunction,MixedPlating,1,2
FMAT,2
METRIC
; #@! TA.AperFunction,Plated,PTH,ViaDrill
T1C0.300
; #@! TA.AperFunction,Plated,PTH,ViaDrill
T2C0.400
; #@! TA.AperFunction,Plated,PTH,ComponentDrill
T3C0.400
; #@! TA.AperFunction,Plated,PTH,ComponentDrill
T4C0.900
; #@! TA.AperFunction,Plated,PTH,ComponentDrill
T5C1.000
; #@! TA.AperFunction,Plated,PTH,ComponentDrill
T6C1.300
; #@! TA.AperFunction,NonPlated,NPTH,ComponentDrill
T7C1.500
; #@! TA.AperFunction,NonPlated,NPTH,ComponentDrill
T8C1.900
; #@! TA.AperFunction,NonPlated,NPTH,ComponentDrill
T9C3.000
; #@! TA.AperFunction,NonPlated,NPTH,ComponentDrill
T10C4.300
; #@! TA.AperFunction,NonPlated,NPTH,ComponentDrill
T11C5.000
%
G90
G05
T1
X134.75Y-129.949
X135.21Y-132.92
X137.23Y-135.299
X138.366Y-128.416
X139.777Y-150.171
X141.648Y-139.947
X141.968Y-116.594
X142.022Y-111.494
X142.782Y-117.261
X144.849Y-111.401
X145.806Y-110.07
X146.046Y-133.344
X148.144Y-161.185
X148.788Y-115.906
X149.271Y-142.188
X150.157Y-153.328
X150.711Y-132.271
X152.748Y-129.346
X153.075Y-123.421
X154.241Y-148.9
X157.744Y-135.152
X159.778Y-124.804
X159.853Y-141.721
X160.153Y-156.043
X162.392Y-152.73
X162.616Y-109.501
X163.621Y-109.929
X164.627Y-140.22
X164.935Y-123.761
X166.833Y-140.692
X167.427Y-126.568
X167.787Y-125.684
X168.679Y-141.146
X169.579Y-111.153
X169.909Y-98.513
X171.097Y-127.038
X172.264Y-144.946
X172.718Y-145.83
X172.928Y-103.657
X177.153Y-109.85
X180.779Y-122.003
X181.057Y-96.257
X181.474Y-126.063
X181.488Y-143.437
X182.264Y-97.953
X183.706Y-126.314
X185.204Y-113.571
X186.601Y-136.098
X186.667Y-130.471
X188.137Y-132.801
X188.782Y-94.55
X190.511Y-102.557
X190.761Y-86.596
X191.982Y-110.95
X192.745Y-96.282
X193.182Y-126.35
X194.016Y-100.669
X194.182Y-130.75
X194.895Y-117.64
X198.777Y-102.557
X198.982Y-135.75
X200.064Y-119.281
X200.291Y-134.642
X201.714Y-102.545
X205.367Y-115.171
X206.075Y-108.291
X206.947Y-156.343
X207.942Y-109.109
X208.366Y-127.15
X211.225Y-106.429
X211.382Y-116.55
X211.471Y-166.294
X212.582Y-119.35
X214.582Y-102.35
X215.637Y-123.884
X216.738Y-124.685
X217.242Y-136.806
X217.983Y-134.331
X220.246Y-159.113
X221.061Y-106.671
X221.876Y-142.256
X222.462Y-106.304
X222.946Y-113.486
X222.953Y-153.615
X224.582Y-142.15
X224.71Y-94.877
X224.929Y-115.862
X224.949Y-129.519
X226.003Y-127.845
X228.547Y-164.143
X229.982Y-127.55
X230.982Y-120.75
X231.068Y-108.438
X231.249Y-125.513
X231.261Y-165.739
X232.182Y-142.704
X232.982Y-104.15
X235.215Y-121.211
X238.921Y-108.732
X241.547Y-154.543
X244.947Y-147.943
X245.106Y-119.919
X245.947Y-150.143
X247.48Y-135.411
X251.737Y-156.616
X254.347Y-122.743
X255.003Y-171.259
X258.141Y-166.792
X260.64Y-125.78
X261.266Y-154.218
X262.947Y-131.543
X263.965Y-126.622
X265.947Y-124.943
X266.607Y-161.496
T2
X133.285Y-115.22
X134.447Y-116.405
X136.82Y-131.849
X137.982Y-133.033
X140.354Y-148.477
X141.516Y-149.662
X142.39Y-114.716
X142.969Y-113.162
X145.924Y-131.345
X146.504Y-129.79
X149.459Y-147.973
X150.038Y-146.419
X150.892Y-111.478
X152.054Y-112.662
X154.427Y-128.106
X155.588Y-129.291
X157.961Y-144.735
X159.123Y-145.919
X159.996Y-110.974
X160.576Y-109.419
X163.531Y-127.602
X164.11Y-126.048
X167.065Y-144.231
X167.645Y-142.676
X170.412Y-96.797
X171.443Y-98.096
X172.189Y-113.704
X173.22Y-115.003
X173.966Y-130.611
X174.997Y-131.91
X179.519Y-97.247
X180.258Y-95.762
X181.296Y-114.154
X182.035Y-112.669
X183.073Y-131.061
X183.812Y-129.576
X189.618Y-87.534
X190.507Y-104.51
X190.58Y-88.885
X191.397Y-121.487
X191.469Y-105.862
X192.359Y-122.839
X198.689Y-88.46
X199.504Y-87.015
X199.578Y-105.437
X200.394Y-103.992
X200.468Y-122.414
X201.283Y-120.969
X206.563Y-153.221
X207.571Y-154.538
X210.015Y-127.269
X210.015Y-93.269
X210.015Y-110.269
X210.905Y-111.669
X210.905Y-94.669
X210.905Y-128.669
X215.661Y-153.83
X216.425Y-152.358
X219.025Y-111.669
X219.025Y-94.669
X219.025Y-128.669
X219.915Y-110.269
X219.915Y-93.269
X219.915Y-127.269
X228.015Y-112.269
X228.015Y-95.269
X228.015Y-129.269
X228.905Y-130.669
X228.905Y-113.669
X228.905Y-96.669
X230.504Y-152.358
X231.269Y-153.83
X237.025Y-113.669
X237.025Y-96.669
X237.025Y-130.669
X237.915Y-95.269
X237.915Y-112.269
X237.915Y-129.269
X239.358Y-154.538
X240.366Y-153.221
X254.926Y-156.504
X255.339Y-158.11
X263.062Y-160.619
X264.341Y-159.563
T3
X260.565Y-108.169
X260.565Y-100.549
X260.565Y-105.629
X260.565Y-110.709
X260.565Y-115.789
X260.565Y-118.329
X260.565Y-95.469
X260.565Y-98.009
X260.565Y-103.089
X260.565Y-113.249
X260.565Y-120.869
X260.565Y-123.409
X267.365Y-95.469
X267.365Y-123.409
X267.365Y-103.089
X267.365Y-113.249
X267.365Y-118.329
X267.365Y-120.869
X267.365Y-98.009
X267.365Y-100.549
X267.365Y-105.629
X267.365Y-110.709
X267.365Y-115.789
X267.365Y-108.169
T5
X256.345Y-95.469
X256.345Y-98.009
X256.345Y-100.549
X256.345Y-103.089
X256.345Y-105.629
X256.345Y-108.169
X256.345Y-110.709
X256.345Y-113.249
X256.345Y-115.789
X256.345Y-118.329
X256.345Y-123.409
X256.345Y-120.869
X260.155Y-129.369
X262.695Y-129.369
X265.235Y-129.369
X267.775Y-129.369
X271.585Y-95.469
X271.585Y-98.009
X271.585Y-100.549
X271.585Y-103.089
X271.585Y-105.629
X271.585Y-108.169
X271.585Y-110.709
X271.585Y-113.249
X271.585Y-115.789
X271.585Y-118.329
X271.585Y-120.869
X271.585Y-123.409
T6
X271.965Y-130.419
X271.965Y-136.919
T7
X264.365Y-142.669
X271.365Y-142.669
T8
X133.87Y-120.616
X137.405Y-137.245
X140.939Y-153.873
X144.63Y-118.329
X148.164Y-134.958
X151.477Y-116.874
X151.699Y-151.586
X155.011Y-133.503
X158.546Y-150.131
X162.236Y-114.587
X165.771Y-131.216
X169.305Y-147.844
X170.429Y-102.225
X172.206Y-119.132
X173.983Y-136.039
X181.369Y-101.075
X183.146Y-117.982
X184.923Y-134.889
X189.351Y-92.955
X190.241Y-109.932
X191.13Y-126.908
X200.336Y-92.379
X201.226Y-109.356
X202.115Y-126.333
X206.485Y-158.648
X209.465Y-115.669
X209.465Y-132.669
X209.465Y-98.669
X217.444Y-157.689
X220.465Y-115.669
X220.465Y-132.669
X220.465Y-98.669
X227.465Y-134.669
X227.465Y-117.669
X227.465Y-100.669
X229.485Y-157.689
X238.465Y-134.669
X238.465Y-117.669
X238.465Y-100.669
X240.444Y-158.648
X252.734Y-161.469
X263.195Y-164.868
T9
X135.139Y-124.181
X138.673Y-140.809
X140.487Y-125.293
X142.208Y-157.438
X144.022Y-141.921
X144.92Y-122.101
X147.556Y-158.55
X148.455Y-138.73
X151.989Y-155.358
X152.746Y-120.438
X156.28Y-137.067
X158.094Y-121.551
X159.815Y-153.695
X161.628Y-138.179
X162.527Y-118.359
X165.163Y-154.808
X166.062Y-134.988
X169.596Y-151.616
X171.318Y-105.902
X173.096Y-122.809
X174.873Y-139.716
X176.521Y-107.567
X178.298Y-124.474
X180.075Y-141.381
X181.264Y-104.857
X183.041Y-121.764
X184.818Y-138.67
X190.047Y-96.674
X190.936Y-113.65
X191.826Y-130.627
X195.155Y-98.609
X196.045Y-115.586
X196.934Y-132.562
X200.033Y-96.15
X200.923Y-113.127
X201.812Y-130.104
X207.31Y-162.34
X209.965Y-119.419
X209.965Y-136.419
X209.965Y-102.419
X212.483Y-164.096
X214.965Y-121.619
X214.965Y-138.619
X214.965Y-104.619
X217.272Y-161.469
X219.965Y-119.419
X219.965Y-136.419
X219.965Y-102.419
X227.965Y-138.419
X227.965Y-121.419
X227.965Y-104.419
X229.657Y-161.469
X232.965Y-140.619
X232.965Y-123.619
X232.965Y-106.619
X234.446Y-164.096
X237.965Y-138.419
X237.965Y-121.419
X237.965Y-104.419
X239.619Y-162.34
X252.05Y-165.19
X256.126Y-168.828
X261.561Y-168.28
T10
X149.821Y-125.916
X153.355Y-142.544
X197.196Y-161.469
X248.965Y-95.669
X269.923Y-155.488
T11
X139.25Y-119.473
X142.784Y-136.101
X146.319Y-152.73
X156.857Y-115.731
X160.391Y-132.359
X163.926Y-148.988
X175.899Y-101.65
X177.676Y-118.557
X179.453Y-135.464
X194.843Y-92.667
X195.733Y-109.644
X196.623Y-126.62
X211.965Y-158.169
X214.965Y-115.669
X214.965Y-132.669
X214.965Y-98.669
X232.965Y-134.669
X232.965Y-117.669
X232.965Y-100.669
X234.965Y-158.169
X257.965Y-163.169
T4
G00X263.065Y-140.369
M15
G01X261.365Y-140.369
M16
G05
G00X263.065Y-144.969
M15
G01X261.365Y-144.969
M16
G05
G00X267.065Y-140.369
M15
G01X266.465Y-140.369
M16
G05
G00X267.065Y-144.969
M15
G01X266.465Y-144.969
M16
G05
G00X270.065Y-140.369
M15
G01X269.465Y-140.369
M16
G05
G00X270.065Y-144.969
M15
G01X269.465Y-144.969
M16
G05
M30
