%TF.GenerationSoftware,KiCad,Pcbnew,8.0.5*%
%TF.CreationDate,2024-10-14T20:57:03+01:00*%
%TF.ProjectId,scorn_choc.kicad_pcb_hybrid_routing,73636f72-6e5f-4636-986f-632e6b696361,v1.0.0*%
%TF.SameCoordinates,Original*%
%TF.FileFunction,Legend,Top*%
%TF.FilePolarity,Positive*%
%FSLAX46Y46*%
G04 Gerber Fmt 4.6, Leading zero omitted, Abs format (unit mm)*
G04 Created by KiCad (PCBNEW 8.0.5) date 2024-10-14 20:57:03*
%MOMM*%
%LPD*%
G01*
G04 APERTURE LIST*
%ADD10C,0.200000*%
%ADD11C,0.150000*%
%ADD12C,0.000000*%
%ADD13C,0.100000*%
%ADD14C,0.120000*%
%ADD15C,0.350000*%
%ADD16O,1.500000X0.900000*%
%ADD17O,2.600000X0.900000*%
G04 APERTURE END LIST*
D10*
X271274435Y-127600552D02*
X271512530Y-128267219D01*
X271512530Y-128267219D02*
X271750625Y-127600552D01*
X272655387Y-128267219D02*
X272083959Y-128267219D01*
X272369673Y-128267219D02*
X272369673Y-127267219D01*
X272369673Y-127267219D02*
X272274435Y-127410076D01*
X272274435Y-127410076D02*
X272179197Y-127505314D01*
X272179197Y-127505314D02*
X272083959Y-127552933D01*
X273083959Y-128171980D02*
X273131578Y-128219600D01*
X273131578Y-128219600D02*
X273083959Y-128267219D01*
X273083959Y-128267219D02*
X273036340Y-128219600D01*
X273036340Y-128219600D02*
X273083959Y-128171980D01*
X273083959Y-128171980D02*
X273083959Y-128267219D01*
X273750625Y-127267219D02*
X273845863Y-127267219D01*
X273845863Y-127267219D02*
X273941101Y-127314838D01*
X273941101Y-127314838D02*
X273988720Y-127362457D01*
X273988720Y-127362457D02*
X274036339Y-127457695D01*
X274036339Y-127457695D02*
X274083958Y-127648171D01*
X274083958Y-127648171D02*
X274083958Y-127886266D01*
X274083958Y-127886266D02*
X274036339Y-128076742D01*
X274036339Y-128076742D02*
X273988720Y-128171980D01*
X273988720Y-128171980D02*
X273941101Y-128219600D01*
X273941101Y-128219600D02*
X273845863Y-128267219D01*
X273845863Y-128267219D02*
X273750625Y-128267219D01*
X273750625Y-128267219D02*
X273655387Y-128219600D01*
X273655387Y-128219600D02*
X273607768Y-128171980D01*
X273607768Y-128171980D02*
X273560149Y-128076742D01*
X273560149Y-128076742D02*
X273512530Y-127886266D01*
X273512530Y-127886266D02*
X273512530Y-127648171D01*
X273512530Y-127648171D02*
X273560149Y-127457695D01*
X273560149Y-127457695D02*
X273607768Y-127362457D01*
X273607768Y-127362457D02*
X273655387Y-127314838D01*
X273655387Y-127314838D02*
X273750625Y-127267219D01*
D11*
X261752629Y-100051267D02*
X261657391Y-100003648D01*
X261657391Y-100003648D02*
X261514534Y-100003648D01*
X261514534Y-100003648D02*
X261371677Y-100051267D01*
X261371677Y-100051267D02*
X261276439Y-100146505D01*
X261276439Y-100146505D02*
X261228820Y-100241743D01*
X261228820Y-100241743D02*
X261181201Y-100432219D01*
X261181201Y-100432219D02*
X261181201Y-100575076D01*
X261181201Y-100575076D02*
X261228820Y-100765552D01*
X261228820Y-100765552D02*
X261276439Y-100860790D01*
X261276439Y-100860790D02*
X261371677Y-100956029D01*
X261371677Y-100956029D02*
X261514534Y-101003648D01*
X261514534Y-101003648D02*
X261609772Y-101003648D01*
X261609772Y-101003648D02*
X261752629Y-100956029D01*
X261752629Y-100956029D02*
X261800248Y-100908409D01*
X261800248Y-100908409D02*
X261800248Y-100575076D01*
X261800248Y-100575076D02*
X261609772Y-100575076D01*
X262228820Y-101003648D02*
X262228820Y-100003648D01*
X262228820Y-100003648D02*
X262800248Y-101003648D01*
X262800248Y-101003648D02*
X262800248Y-100003648D01*
X263276439Y-101003648D02*
X263276439Y-100003648D01*
X263276439Y-100003648D02*
X263514534Y-100003648D01*
X263514534Y-100003648D02*
X263657391Y-100051267D01*
X263657391Y-100051267D02*
X263752629Y-100146505D01*
X263752629Y-100146505D02*
X263800248Y-100241743D01*
X263800248Y-100241743D02*
X263847867Y-100432219D01*
X263847867Y-100432219D02*
X263847867Y-100575076D01*
X263847867Y-100575076D02*
X263800248Y-100765552D01*
X263800248Y-100765552D02*
X263752629Y-100860790D01*
X263752629Y-100860790D02*
X263657391Y-100956029D01*
X263657391Y-100956029D02*
X263514534Y-101003648D01*
X263514534Y-101003648D02*
X263276439Y-101003648D01*
X261752629Y-102591267D02*
X261657391Y-102543648D01*
X261657391Y-102543648D02*
X261514534Y-102543648D01*
X261514534Y-102543648D02*
X261371677Y-102591267D01*
X261371677Y-102591267D02*
X261276439Y-102686505D01*
X261276439Y-102686505D02*
X261228820Y-102781743D01*
X261228820Y-102781743D02*
X261181201Y-102972219D01*
X261181201Y-102972219D02*
X261181201Y-103115076D01*
X261181201Y-103115076D02*
X261228820Y-103305552D01*
X261228820Y-103305552D02*
X261276439Y-103400790D01*
X261276439Y-103400790D02*
X261371677Y-103496029D01*
X261371677Y-103496029D02*
X261514534Y-103543648D01*
X261514534Y-103543648D02*
X261609772Y-103543648D01*
X261609772Y-103543648D02*
X261752629Y-103496029D01*
X261752629Y-103496029D02*
X261800248Y-103448409D01*
X261800248Y-103448409D02*
X261800248Y-103115076D01*
X261800248Y-103115076D02*
X261609772Y-103115076D01*
X262228820Y-103543648D02*
X262228820Y-102543648D01*
X262228820Y-102543648D02*
X262800248Y-103543648D01*
X262800248Y-103543648D02*
X262800248Y-102543648D01*
X263276439Y-103543648D02*
X263276439Y-102543648D01*
X263276439Y-102543648D02*
X263514534Y-102543648D01*
X263514534Y-102543648D02*
X263657391Y-102591267D01*
X263657391Y-102591267D02*
X263752629Y-102686505D01*
X263752629Y-102686505D02*
X263800248Y-102781743D01*
X263800248Y-102781743D02*
X263847867Y-102972219D01*
X263847867Y-102972219D02*
X263847867Y-103115076D01*
X263847867Y-103115076D02*
X263800248Y-103305552D01*
X263800248Y-103305552D02*
X263752629Y-103400790D01*
X263752629Y-103400790D02*
X263657391Y-103496029D01*
X263657391Y-103496029D02*
X263514534Y-103543648D01*
X263514534Y-103543648D02*
X263276439Y-103543648D01*
X256274057Y-93378648D02*
X255940724Y-92902457D01*
X255702629Y-93378648D02*
X255702629Y-92378648D01*
X255702629Y-92378648D02*
X256083581Y-92378648D01*
X256083581Y-92378648D02*
X256178819Y-92426267D01*
X256178819Y-92426267D02*
X256226438Y-92473886D01*
X256226438Y-92473886D02*
X256274057Y-92569124D01*
X256274057Y-92569124D02*
X256274057Y-92711981D01*
X256274057Y-92711981D02*
X256226438Y-92807219D01*
X256226438Y-92807219D02*
X256178819Y-92854838D01*
X256178819Y-92854838D02*
X256083581Y-92902457D01*
X256083581Y-92902457D02*
X255702629Y-92902457D01*
X257750248Y-92378648D02*
X257750248Y-93092933D01*
X257750248Y-93092933D02*
X257702629Y-93235790D01*
X257702629Y-93235790D02*
X257607391Y-93331029D01*
X257607391Y-93331029D02*
X257464534Y-93378648D01*
X257464534Y-93378648D02*
X257369296Y-93378648D01*
X258655010Y-92711981D02*
X258655010Y-93378648D01*
X258226439Y-92711981D02*
X258226439Y-93235790D01*
X258226439Y-93235790D02*
X258274058Y-93331029D01*
X258274058Y-93331029D02*
X258369296Y-93378648D01*
X258369296Y-93378648D02*
X258512153Y-93378648D01*
X258512153Y-93378648D02*
X258607391Y-93331029D01*
X258607391Y-93331029D02*
X258655010Y-93283409D01*
X259131201Y-93378648D02*
X259131201Y-92711981D01*
X259131201Y-92807219D02*
X259178820Y-92759600D01*
X259178820Y-92759600D02*
X259274058Y-92711981D01*
X259274058Y-92711981D02*
X259416915Y-92711981D01*
X259416915Y-92711981D02*
X259512153Y-92759600D01*
X259512153Y-92759600D02*
X259559772Y-92854838D01*
X259559772Y-92854838D02*
X259559772Y-93378648D01*
X259559772Y-92854838D02*
X259607391Y-92759600D01*
X259607391Y-92759600D02*
X259702629Y-92711981D01*
X259702629Y-92711981D02*
X259845486Y-92711981D01*
X259845486Y-92711981D02*
X259940725Y-92759600D01*
X259940725Y-92759600D02*
X259988344Y-92854838D01*
X259988344Y-92854838D02*
X259988344Y-93378648D01*
X260464534Y-92711981D02*
X260464534Y-93711981D01*
X260464534Y-92759600D02*
X260559772Y-92711981D01*
X260559772Y-92711981D02*
X260750248Y-92711981D01*
X260750248Y-92711981D02*
X260845486Y-92759600D01*
X260845486Y-92759600D02*
X260893105Y-92807219D01*
X260893105Y-92807219D02*
X260940724Y-92902457D01*
X260940724Y-92902457D02*
X260940724Y-93188171D01*
X260940724Y-93188171D02*
X260893105Y-93283409D01*
X260893105Y-93283409D02*
X260845486Y-93331029D01*
X260845486Y-93331029D02*
X260750248Y-93378648D01*
X260750248Y-93378648D02*
X260559772Y-93378648D01*
X260559772Y-93378648D02*
X260464534Y-93331029D01*
X261750248Y-93331029D02*
X261655010Y-93378648D01*
X261655010Y-93378648D02*
X261464534Y-93378648D01*
X261464534Y-93378648D02*
X261369296Y-93331029D01*
X261369296Y-93331029D02*
X261321677Y-93235790D01*
X261321677Y-93235790D02*
X261321677Y-92854838D01*
X261321677Y-92854838D02*
X261369296Y-92759600D01*
X261369296Y-92759600D02*
X261464534Y-92711981D01*
X261464534Y-92711981D02*
X261655010Y-92711981D01*
X261655010Y-92711981D02*
X261750248Y-92759600D01*
X261750248Y-92759600D02*
X261797867Y-92854838D01*
X261797867Y-92854838D02*
X261797867Y-92950076D01*
X261797867Y-92950076D02*
X261321677Y-93045314D01*
X262226439Y-93378648D02*
X262226439Y-92711981D01*
X262226439Y-92902457D02*
X262274058Y-92807219D01*
X262274058Y-92807219D02*
X262321677Y-92759600D01*
X262321677Y-92759600D02*
X262416915Y-92711981D01*
X262416915Y-92711981D02*
X262512153Y-92711981D01*
X262797868Y-93331029D02*
X262893106Y-93378648D01*
X262893106Y-93378648D02*
X263083582Y-93378648D01*
X263083582Y-93378648D02*
X263178820Y-93331029D01*
X263178820Y-93331029D02*
X263226439Y-93235790D01*
X263226439Y-93235790D02*
X263226439Y-93188171D01*
X263226439Y-93188171D02*
X263178820Y-93092933D01*
X263178820Y-93092933D02*
X263083582Y-93045314D01*
X263083582Y-93045314D02*
X262940725Y-93045314D01*
X262940725Y-93045314D02*
X262845487Y-92997695D01*
X262845487Y-92997695D02*
X262797868Y-92902457D01*
X262797868Y-92902457D02*
X262797868Y-92854838D01*
X262797868Y-92854838D02*
X262845487Y-92759600D01*
X262845487Y-92759600D02*
X262940725Y-92711981D01*
X262940725Y-92711981D02*
X263083582Y-92711981D01*
X263083582Y-92711981D02*
X263178820Y-92759600D01*
X263702630Y-93331029D02*
X263702630Y-93378648D01*
X263702630Y-93378648D02*
X263655011Y-93473886D01*
X263655011Y-93473886D02*
X263607392Y-93521505D01*
X264893106Y-93378648D02*
X264893106Y-92378648D01*
X264893106Y-92378648D02*
X265226439Y-93092933D01*
X265226439Y-93092933D02*
X265559772Y-92378648D01*
X265559772Y-92378648D02*
X265559772Y-93378648D01*
X266607391Y-93283409D02*
X266559772Y-93331029D01*
X266559772Y-93331029D02*
X266416915Y-93378648D01*
X266416915Y-93378648D02*
X266321677Y-93378648D01*
X266321677Y-93378648D02*
X266178820Y-93331029D01*
X266178820Y-93331029D02*
X266083582Y-93235790D01*
X266083582Y-93235790D02*
X266035963Y-93140552D01*
X266035963Y-93140552D02*
X265988344Y-92950076D01*
X265988344Y-92950076D02*
X265988344Y-92807219D01*
X265988344Y-92807219D02*
X266035963Y-92616743D01*
X266035963Y-92616743D02*
X266083582Y-92521505D01*
X266083582Y-92521505D02*
X266178820Y-92426267D01*
X266178820Y-92426267D02*
X266321677Y-92378648D01*
X266321677Y-92378648D02*
X266416915Y-92378648D01*
X266416915Y-92378648D02*
X266559772Y-92426267D01*
X266559772Y-92426267D02*
X266607391Y-92473886D01*
X267035963Y-92378648D02*
X267035963Y-93188171D01*
X267035963Y-93188171D02*
X267083582Y-93283409D01*
X267083582Y-93283409D02*
X267131201Y-93331029D01*
X267131201Y-93331029D02*
X267226439Y-93378648D01*
X267226439Y-93378648D02*
X267416915Y-93378648D01*
X267416915Y-93378648D02*
X267512153Y-93331029D01*
X267512153Y-93331029D02*
X267559772Y-93283409D01*
X267559772Y-93283409D02*
X267607391Y-93188171D01*
X267607391Y-93188171D02*
X267607391Y-92378648D01*
X268845487Y-93378648D02*
X268845487Y-92378648D01*
X268845487Y-92378648D02*
X269083582Y-92378648D01*
X269083582Y-92378648D02*
X269226439Y-92426267D01*
X269226439Y-92426267D02*
X269321677Y-92521505D01*
X269321677Y-92521505D02*
X269369296Y-92616743D01*
X269369296Y-92616743D02*
X269416915Y-92807219D01*
X269416915Y-92807219D02*
X269416915Y-92950076D01*
X269416915Y-92950076D02*
X269369296Y-93140552D01*
X269369296Y-93140552D02*
X269321677Y-93235790D01*
X269321677Y-93235790D02*
X269226439Y-93331029D01*
X269226439Y-93331029D02*
X269083582Y-93378648D01*
X269083582Y-93378648D02*
X268845487Y-93378648D01*
X269988344Y-93378648D02*
X269893106Y-93331029D01*
X269893106Y-93331029D02*
X269845487Y-93283409D01*
X269845487Y-93283409D02*
X269797868Y-93188171D01*
X269797868Y-93188171D02*
X269797868Y-92902457D01*
X269797868Y-92902457D02*
X269845487Y-92807219D01*
X269845487Y-92807219D02*
X269893106Y-92759600D01*
X269893106Y-92759600D02*
X269988344Y-92711981D01*
X269988344Y-92711981D02*
X270131201Y-92711981D01*
X270131201Y-92711981D02*
X270226439Y-92759600D01*
X270226439Y-92759600D02*
X270274058Y-92807219D01*
X270274058Y-92807219D02*
X270321677Y-92902457D01*
X270321677Y-92902457D02*
X270321677Y-93188171D01*
X270321677Y-93188171D02*
X270274058Y-93283409D01*
X270274058Y-93283409D02*
X270226439Y-93331029D01*
X270226439Y-93331029D02*
X270131201Y-93378648D01*
X270131201Y-93378648D02*
X269988344Y-93378648D01*
X270655011Y-92711981D02*
X270845487Y-93378648D01*
X270845487Y-93378648D02*
X271035963Y-92902457D01*
X271035963Y-92902457D02*
X271226439Y-93378648D01*
X271226439Y-93378648D02*
X271416915Y-92711981D01*
X271797868Y-92711981D02*
X271797868Y-93378648D01*
X271797868Y-92807219D02*
X271845487Y-92759600D01*
X271845487Y-92759600D02*
X271940725Y-92711981D01*
X271940725Y-92711981D02*
X272083582Y-92711981D01*
X272083582Y-92711981D02*
X272178820Y-92759600D01*
X272178820Y-92759600D02*
X272226439Y-92854838D01*
X272226439Y-92854838D02*
X272226439Y-93378648D01*
X261300248Y-106036029D02*
X261443105Y-106083648D01*
X261443105Y-106083648D02*
X261681200Y-106083648D01*
X261681200Y-106083648D02*
X261776438Y-106036029D01*
X261776438Y-106036029D02*
X261824057Y-105988409D01*
X261824057Y-105988409D02*
X261871676Y-105893171D01*
X261871676Y-105893171D02*
X261871676Y-105797933D01*
X261871676Y-105797933D02*
X261824057Y-105702695D01*
X261824057Y-105702695D02*
X261776438Y-105655076D01*
X261776438Y-105655076D02*
X261681200Y-105607457D01*
X261681200Y-105607457D02*
X261490724Y-105559838D01*
X261490724Y-105559838D02*
X261395486Y-105512219D01*
X261395486Y-105512219D02*
X261347867Y-105464600D01*
X261347867Y-105464600D02*
X261300248Y-105369362D01*
X261300248Y-105369362D02*
X261300248Y-105274124D01*
X261300248Y-105274124D02*
X261347867Y-105178886D01*
X261347867Y-105178886D02*
X261395486Y-105131267D01*
X261395486Y-105131267D02*
X261490724Y-105083648D01*
X261490724Y-105083648D02*
X261728819Y-105083648D01*
X261728819Y-105083648D02*
X261871676Y-105131267D01*
X262300248Y-106083648D02*
X262300248Y-105083648D01*
X262300248Y-105083648D02*
X262538343Y-105083648D01*
X262538343Y-105083648D02*
X262681200Y-105131267D01*
X262681200Y-105131267D02*
X262776438Y-105226505D01*
X262776438Y-105226505D02*
X262824057Y-105321743D01*
X262824057Y-105321743D02*
X262871676Y-105512219D01*
X262871676Y-105512219D02*
X262871676Y-105655076D01*
X262871676Y-105655076D02*
X262824057Y-105845552D01*
X262824057Y-105845552D02*
X262776438Y-105940790D01*
X262776438Y-105940790D02*
X262681200Y-106036029D01*
X262681200Y-106036029D02*
X262538343Y-106083648D01*
X262538343Y-106083648D02*
X262300248Y-106083648D01*
X263252629Y-105797933D02*
X263728819Y-105797933D01*
X263157391Y-106083648D02*
X263490724Y-105083648D01*
X263490724Y-105083648D02*
X263824057Y-106083648D01*
X265837867Y-116148409D02*
X265790248Y-116196029D01*
X265790248Y-116196029D02*
X265647391Y-116243648D01*
X265647391Y-116243648D02*
X265552153Y-116243648D01*
X265552153Y-116243648D02*
X265409296Y-116196029D01*
X265409296Y-116196029D02*
X265314058Y-116100790D01*
X265314058Y-116100790D02*
X265266439Y-116005552D01*
X265266439Y-116005552D02*
X265218820Y-115815076D01*
X265218820Y-115815076D02*
X265218820Y-115672219D01*
X265218820Y-115672219D02*
X265266439Y-115481743D01*
X265266439Y-115481743D02*
X265314058Y-115386505D01*
X265314058Y-115386505D02*
X265409296Y-115291267D01*
X265409296Y-115291267D02*
X265552153Y-115243648D01*
X265552153Y-115243648D02*
X265647391Y-115243648D01*
X265647391Y-115243648D02*
X265790248Y-115291267D01*
X265790248Y-115291267D02*
X265837867Y-115338886D01*
X266695010Y-115576981D02*
X266695010Y-116243648D01*
X266456915Y-115196029D02*
X266218820Y-115910314D01*
X266218820Y-115910314D02*
X266837867Y-115910314D01*
X264724057Y-95923648D02*
X264390724Y-95447457D01*
X264152629Y-95923648D02*
X264152629Y-94923648D01*
X264152629Y-94923648D02*
X264533581Y-94923648D01*
X264533581Y-94923648D02*
X264628819Y-94971267D01*
X264628819Y-94971267D02*
X264676438Y-95018886D01*
X264676438Y-95018886D02*
X264724057Y-95114124D01*
X264724057Y-95114124D02*
X264724057Y-95256981D01*
X264724057Y-95256981D02*
X264676438Y-95352219D01*
X264676438Y-95352219D02*
X264628819Y-95399838D01*
X264628819Y-95399838D02*
X264533581Y-95447457D01*
X264533581Y-95447457D02*
X264152629Y-95447457D01*
X265105010Y-95637933D02*
X265581200Y-95637933D01*
X265009772Y-95923648D02*
X265343105Y-94923648D01*
X265343105Y-94923648D02*
X265676438Y-95923648D01*
X265914534Y-94923648D02*
X266152629Y-95923648D01*
X266152629Y-95923648D02*
X266343105Y-95209362D01*
X266343105Y-95209362D02*
X266533581Y-95923648D01*
X266533581Y-95923648D02*
X266771677Y-94923648D01*
X265837867Y-113608409D02*
X265790248Y-113656029D01*
X265790248Y-113656029D02*
X265647391Y-113703648D01*
X265647391Y-113703648D02*
X265552153Y-113703648D01*
X265552153Y-113703648D02*
X265409296Y-113656029D01*
X265409296Y-113656029D02*
X265314058Y-113560790D01*
X265314058Y-113560790D02*
X265266439Y-113465552D01*
X265266439Y-113465552D02*
X265218820Y-113275076D01*
X265218820Y-113275076D02*
X265218820Y-113132219D01*
X265218820Y-113132219D02*
X265266439Y-112941743D01*
X265266439Y-112941743D02*
X265314058Y-112846505D01*
X265314058Y-112846505D02*
X265409296Y-112751267D01*
X265409296Y-112751267D02*
X265552153Y-112703648D01*
X265552153Y-112703648D02*
X265647391Y-112703648D01*
X265647391Y-112703648D02*
X265790248Y-112751267D01*
X265790248Y-112751267D02*
X265837867Y-112798886D01*
X266171201Y-112703648D02*
X266790248Y-112703648D01*
X266790248Y-112703648D02*
X266456915Y-113084600D01*
X266456915Y-113084600D02*
X266599772Y-113084600D01*
X266599772Y-113084600D02*
X266695010Y-113132219D01*
X266695010Y-113132219D02*
X266742629Y-113179838D01*
X266742629Y-113179838D02*
X266790248Y-113275076D01*
X266790248Y-113275076D02*
X266790248Y-113513171D01*
X266790248Y-113513171D02*
X266742629Y-113608409D01*
X266742629Y-113608409D02*
X266695010Y-113656029D01*
X266695010Y-113656029D02*
X266599772Y-113703648D01*
X266599772Y-113703648D02*
X266314058Y-113703648D01*
X266314058Y-113703648D02*
X266218820Y-113656029D01*
X266218820Y-113656029D02*
X266171201Y-113608409D01*
X264652629Y-97511267D02*
X264557391Y-97463648D01*
X264557391Y-97463648D02*
X264414534Y-97463648D01*
X264414534Y-97463648D02*
X264271677Y-97511267D01*
X264271677Y-97511267D02*
X264176439Y-97606505D01*
X264176439Y-97606505D02*
X264128820Y-97701743D01*
X264128820Y-97701743D02*
X264081201Y-97892219D01*
X264081201Y-97892219D02*
X264081201Y-98035076D01*
X264081201Y-98035076D02*
X264128820Y-98225552D01*
X264128820Y-98225552D02*
X264176439Y-98320790D01*
X264176439Y-98320790D02*
X264271677Y-98416029D01*
X264271677Y-98416029D02*
X264414534Y-98463648D01*
X264414534Y-98463648D02*
X264509772Y-98463648D01*
X264509772Y-98463648D02*
X264652629Y-98416029D01*
X264652629Y-98416029D02*
X264700248Y-98368409D01*
X264700248Y-98368409D02*
X264700248Y-98035076D01*
X264700248Y-98035076D02*
X264509772Y-98035076D01*
X265128820Y-98463648D02*
X265128820Y-97463648D01*
X265128820Y-97463648D02*
X265700248Y-98463648D01*
X265700248Y-98463648D02*
X265700248Y-97463648D01*
X266176439Y-98463648D02*
X266176439Y-97463648D01*
X266176439Y-97463648D02*
X266414534Y-97463648D01*
X266414534Y-97463648D02*
X266557391Y-97511267D01*
X266557391Y-97511267D02*
X266652629Y-97606505D01*
X266652629Y-97606505D02*
X266700248Y-97701743D01*
X266700248Y-97701743D02*
X266747867Y-97892219D01*
X266747867Y-97892219D02*
X266747867Y-98035076D01*
X266747867Y-98035076D02*
X266700248Y-98225552D01*
X266700248Y-98225552D02*
X266652629Y-98320790D01*
X266652629Y-98320790D02*
X266557391Y-98416029D01*
X266557391Y-98416029D02*
X266414534Y-98463648D01*
X266414534Y-98463648D02*
X266176439Y-98463648D01*
X264200248Y-123863648D02*
X264200248Y-122863648D01*
X264200248Y-122863648D02*
X264581200Y-122863648D01*
X264581200Y-122863648D02*
X264676438Y-122911267D01*
X264676438Y-122911267D02*
X264724057Y-122958886D01*
X264724057Y-122958886D02*
X264771676Y-123054124D01*
X264771676Y-123054124D02*
X264771676Y-123196981D01*
X264771676Y-123196981D02*
X264724057Y-123292219D01*
X264724057Y-123292219D02*
X264676438Y-123339838D01*
X264676438Y-123339838D02*
X264581200Y-123387457D01*
X264581200Y-123387457D02*
X264200248Y-123387457D01*
X265724057Y-123863648D02*
X265152629Y-123863648D01*
X265438343Y-123863648D02*
X265438343Y-122863648D01*
X265438343Y-122863648D02*
X265343105Y-123006505D01*
X265343105Y-123006505D02*
X265247867Y-123101743D01*
X265247867Y-123101743D02*
X265152629Y-123149362D01*
X266343105Y-122863648D02*
X266438343Y-122863648D01*
X266438343Y-122863648D02*
X266533581Y-122911267D01*
X266533581Y-122911267D02*
X266581200Y-122958886D01*
X266581200Y-122958886D02*
X266628819Y-123054124D01*
X266628819Y-123054124D02*
X266676438Y-123244600D01*
X266676438Y-123244600D02*
X266676438Y-123482695D01*
X266676438Y-123482695D02*
X266628819Y-123673171D01*
X266628819Y-123673171D02*
X266581200Y-123768409D01*
X266581200Y-123768409D02*
X266533581Y-123816029D01*
X266533581Y-123816029D02*
X266438343Y-123863648D01*
X266438343Y-123863648D02*
X266343105Y-123863648D01*
X266343105Y-123863648D02*
X266247867Y-123816029D01*
X266247867Y-123816029D02*
X266200248Y-123768409D01*
X266200248Y-123768409D02*
X266152629Y-123673171D01*
X266152629Y-123673171D02*
X266105010Y-123482695D01*
X266105010Y-123482695D02*
X266105010Y-123244600D01*
X266105010Y-123244600D02*
X266152629Y-123054124D01*
X266152629Y-123054124D02*
X266200248Y-122958886D01*
X266200248Y-122958886D02*
X266247867Y-122911267D01*
X266247867Y-122911267D02*
X266343105Y-122863648D01*
X261443105Y-123863648D02*
X261443105Y-122863648D01*
X261443105Y-122863648D02*
X261681200Y-122863648D01*
X261681200Y-122863648D02*
X261824057Y-122911267D01*
X261824057Y-122911267D02*
X261919295Y-123006505D01*
X261919295Y-123006505D02*
X261966914Y-123101743D01*
X261966914Y-123101743D02*
X262014533Y-123292219D01*
X262014533Y-123292219D02*
X262014533Y-123435076D01*
X262014533Y-123435076D02*
X261966914Y-123625552D01*
X261966914Y-123625552D02*
X261919295Y-123720790D01*
X261919295Y-123720790D02*
X261824057Y-123816029D01*
X261824057Y-123816029D02*
X261681200Y-123863648D01*
X261681200Y-123863648D02*
X261443105Y-123863648D01*
X262395486Y-123577933D02*
X262871676Y-123577933D01*
X262300248Y-123863648D02*
X262633581Y-122863648D01*
X262633581Y-122863648D02*
X262966914Y-123863648D01*
X263157391Y-122863648D02*
X263728819Y-122863648D01*
X263443105Y-123863648D02*
X263443105Y-122863648D01*
X264200248Y-121323648D02*
X264200248Y-120323648D01*
X264200248Y-120323648D02*
X264581200Y-120323648D01*
X264581200Y-120323648D02*
X264676438Y-120371267D01*
X264676438Y-120371267D02*
X264724057Y-120418886D01*
X264724057Y-120418886D02*
X264771676Y-120514124D01*
X264771676Y-120514124D02*
X264771676Y-120656981D01*
X264771676Y-120656981D02*
X264724057Y-120752219D01*
X264724057Y-120752219D02*
X264676438Y-120799838D01*
X264676438Y-120799838D02*
X264581200Y-120847457D01*
X264581200Y-120847457D02*
X264200248Y-120847457D01*
X265724057Y-121323648D02*
X265152629Y-121323648D01*
X265438343Y-121323648D02*
X265438343Y-120323648D01*
X265438343Y-120323648D02*
X265343105Y-120466505D01*
X265343105Y-120466505D02*
X265247867Y-120561743D01*
X265247867Y-120561743D02*
X265152629Y-120609362D01*
X266581200Y-120323648D02*
X266390724Y-120323648D01*
X266390724Y-120323648D02*
X266295486Y-120371267D01*
X266295486Y-120371267D02*
X266247867Y-120418886D01*
X266247867Y-120418886D02*
X266152629Y-120561743D01*
X266152629Y-120561743D02*
X266105010Y-120752219D01*
X266105010Y-120752219D02*
X266105010Y-121133171D01*
X266105010Y-121133171D02*
X266152629Y-121228409D01*
X266152629Y-121228409D02*
X266200248Y-121276029D01*
X266200248Y-121276029D02*
X266295486Y-121323648D01*
X266295486Y-121323648D02*
X266485962Y-121323648D01*
X266485962Y-121323648D02*
X266581200Y-121276029D01*
X266581200Y-121276029D02*
X266628819Y-121228409D01*
X266628819Y-121228409D02*
X266676438Y-121133171D01*
X266676438Y-121133171D02*
X266676438Y-120895076D01*
X266676438Y-120895076D02*
X266628819Y-120799838D01*
X266628819Y-120799838D02*
X266581200Y-120752219D01*
X266581200Y-120752219D02*
X266485962Y-120704600D01*
X266485962Y-120704600D02*
X266295486Y-120704600D01*
X266295486Y-120704600D02*
X266200248Y-120752219D01*
X266200248Y-120752219D02*
X266152629Y-120799838D01*
X266152629Y-120799838D02*
X266105010Y-120895076D01*
X261757867Y-116243648D02*
X261424534Y-115767457D01*
X261186439Y-116243648D02*
X261186439Y-115243648D01*
X261186439Y-115243648D02*
X261567391Y-115243648D01*
X261567391Y-115243648D02*
X261662629Y-115291267D01*
X261662629Y-115291267D02*
X261710248Y-115338886D01*
X261710248Y-115338886D02*
X261757867Y-115434124D01*
X261757867Y-115434124D02*
X261757867Y-115576981D01*
X261757867Y-115576981D02*
X261710248Y-115672219D01*
X261710248Y-115672219D02*
X261662629Y-115719838D01*
X261662629Y-115719838D02*
X261567391Y-115767457D01*
X261567391Y-115767457D02*
X261186439Y-115767457D01*
X262710248Y-116243648D02*
X262138820Y-116243648D01*
X262424534Y-116243648D02*
X262424534Y-115243648D01*
X262424534Y-115243648D02*
X262329296Y-115386505D01*
X262329296Y-115386505D02*
X262234058Y-115481743D01*
X262234058Y-115481743D02*
X262138820Y-115529362D01*
X261757867Y-121323648D02*
X261424534Y-120847457D01*
X261186439Y-121323648D02*
X261186439Y-120323648D01*
X261186439Y-120323648D02*
X261567391Y-120323648D01*
X261567391Y-120323648D02*
X261662629Y-120371267D01*
X261662629Y-120371267D02*
X261710248Y-120418886D01*
X261710248Y-120418886D02*
X261757867Y-120514124D01*
X261757867Y-120514124D02*
X261757867Y-120656981D01*
X261757867Y-120656981D02*
X261710248Y-120752219D01*
X261710248Y-120752219D02*
X261662629Y-120799838D01*
X261662629Y-120799838D02*
X261567391Y-120847457D01*
X261567391Y-120847457D02*
X261186439Y-120847457D01*
X262091201Y-120323648D02*
X262710248Y-120323648D01*
X262710248Y-120323648D02*
X262376915Y-120704600D01*
X262376915Y-120704600D02*
X262519772Y-120704600D01*
X262519772Y-120704600D02*
X262615010Y-120752219D01*
X262615010Y-120752219D02*
X262662629Y-120799838D01*
X262662629Y-120799838D02*
X262710248Y-120895076D01*
X262710248Y-120895076D02*
X262710248Y-121133171D01*
X262710248Y-121133171D02*
X262662629Y-121228409D01*
X262662629Y-121228409D02*
X262615010Y-121276029D01*
X262615010Y-121276029D02*
X262519772Y-121323648D01*
X262519772Y-121323648D02*
X262234058Y-121323648D01*
X262234058Y-121323648D02*
X262138820Y-121276029D01*
X262138820Y-121276029D02*
X262091201Y-121228409D01*
X261757865Y-118783648D02*
X261424532Y-118307457D01*
X261186437Y-118783648D02*
X261186437Y-117783648D01*
X261186437Y-117783648D02*
X261567389Y-117783648D01*
X261567389Y-117783648D02*
X261662627Y-117831267D01*
X261662627Y-117831267D02*
X261710246Y-117878886D01*
X261710246Y-117878886D02*
X261757865Y-117974124D01*
X261757865Y-117974124D02*
X261757865Y-118116981D01*
X261757865Y-118116981D02*
X261710246Y-118212219D01*
X261710246Y-118212219D02*
X261662627Y-118259838D01*
X261662627Y-118259838D02*
X261567389Y-118307457D01*
X261567389Y-118307457D02*
X261186437Y-118307457D01*
X262138818Y-117878886D02*
X262186437Y-117831267D01*
X262186437Y-117831267D02*
X262281675Y-117783648D01*
X262281675Y-117783648D02*
X262519770Y-117783648D01*
X262519770Y-117783648D02*
X262615008Y-117831267D01*
X262615008Y-117831267D02*
X262662627Y-117878886D01*
X262662627Y-117878886D02*
X262710246Y-117974124D01*
X262710246Y-117974124D02*
X262710246Y-118069362D01*
X262710246Y-118069362D02*
X262662627Y-118212219D01*
X262662627Y-118212219D02*
X262091199Y-118783648D01*
X262091199Y-118783648D02*
X262710246Y-118783648D01*
X265837867Y-108528409D02*
X265790248Y-108576029D01*
X265790248Y-108576029D02*
X265647391Y-108623648D01*
X265647391Y-108623648D02*
X265552153Y-108623648D01*
X265552153Y-108623648D02*
X265409296Y-108576029D01*
X265409296Y-108576029D02*
X265314058Y-108480790D01*
X265314058Y-108480790D02*
X265266439Y-108385552D01*
X265266439Y-108385552D02*
X265218820Y-108195076D01*
X265218820Y-108195076D02*
X265218820Y-108052219D01*
X265218820Y-108052219D02*
X265266439Y-107861743D01*
X265266439Y-107861743D02*
X265314058Y-107766505D01*
X265314058Y-107766505D02*
X265409296Y-107671267D01*
X265409296Y-107671267D02*
X265552153Y-107623648D01*
X265552153Y-107623648D02*
X265647391Y-107623648D01*
X265647391Y-107623648D02*
X265790248Y-107671267D01*
X265790248Y-107671267D02*
X265837867Y-107718886D01*
X266790248Y-108623648D02*
X266218820Y-108623648D01*
X266504534Y-108623648D02*
X266504534Y-107623648D01*
X266504534Y-107623648D02*
X266409296Y-107766505D01*
X266409296Y-107766505D02*
X266314058Y-107861743D01*
X266314058Y-107861743D02*
X266218820Y-107909362D01*
X261186439Y-98463648D02*
X261186439Y-97463648D01*
X261186439Y-97463648D02*
X261567391Y-97463648D01*
X261567391Y-97463648D02*
X261662629Y-97511267D01*
X261662629Y-97511267D02*
X261710248Y-97558886D01*
X261710248Y-97558886D02*
X261757867Y-97654124D01*
X261757867Y-97654124D02*
X261757867Y-97796981D01*
X261757867Y-97796981D02*
X261710248Y-97892219D01*
X261710248Y-97892219D02*
X261662629Y-97939838D01*
X261662629Y-97939838D02*
X261567391Y-97987457D01*
X261567391Y-97987457D02*
X261186439Y-97987457D01*
X262376915Y-97463648D02*
X262472153Y-97463648D01*
X262472153Y-97463648D02*
X262567391Y-97511267D01*
X262567391Y-97511267D02*
X262615010Y-97558886D01*
X262615010Y-97558886D02*
X262662629Y-97654124D01*
X262662629Y-97654124D02*
X262710248Y-97844600D01*
X262710248Y-97844600D02*
X262710248Y-98082695D01*
X262710248Y-98082695D02*
X262662629Y-98273171D01*
X262662629Y-98273171D02*
X262615010Y-98368409D01*
X262615010Y-98368409D02*
X262567391Y-98416029D01*
X262567391Y-98416029D02*
X262472153Y-98463648D01*
X262472153Y-98463648D02*
X262376915Y-98463648D01*
X262376915Y-98463648D02*
X262281677Y-98416029D01*
X262281677Y-98416029D02*
X262234058Y-98368409D01*
X262234058Y-98368409D02*
X262186439Y-98273171D01*
X262186439Y-98273171D02*
X262138820Y-98082695D01*
X262138820Y-98082695D02*
X262138820Y-97844600D01*
X262138820Y-97844600D02*
X262186439Y-97654124D01*
X262186439Y-97654124D02*
X262234058Y-97558886D01*
X262234058Y-97558886D02*
X262281677Y-97511267D01*
X262281677Y-97511267D02*
X262376915Y-97463648D01*
X265837867Y-105988409D02*
X265790248Y-106036029D01*
X265790248Y-106036029D02*
X265647391Y-106083648D01*
X265647391Y-106083648D02*
X265552153Y-106083648D01*
X265552153Y-106083648D02*
X265409296Y-106036029D01*
X265409296Y-106036029D02*
X265314058Y-105940790D01*
X265314058Y-105940790D02*
X265266439Y-105845552D01*
X265266439Y-105845552D02*
X265218820Y-105655076D01*
X265218820Y-105655076D02*
X265218820Y-105512219D01*
X265218820Y-105512219D02*
X265266439Y-105321743D01*
X265266439Y-105321743D02*
X265314058Y-105226505D01*
X265314058Y-105226505D02*
X265409296Y-105131267D01*
X265409296Y-105131267D02*
X265552153Y-105083648D01*
X265552153Y-105083648D02*
X265647391Y-105083648D01*
X265647391Y-105083648D02*
X265790248Y-105131267D01*
X265790248Y-105131267D02*
X265837867Y-105178886D01*
X266456915Y-105083648D02*
X266552153Y-105083648D01*
X266552153Y-105083648D02*
X266647391Y-105131267D01*
X266647391Y-105131267D02*
X266695010Y-105178886D01*
X266695010Y-105178886D02*
X266742629Y-105274124D01*
X266742629Y-105274124D02*
X266790248Y-105464600D01*
X266790248Y-105464600D02*
X266790248Y-105702695D01*
X266790248Y-105702695D02*
X266742629Y-105893171D01*
X266742629Y-105893171D02*
X266695010Y-105988409D01*
X266695010Y-105988409D02*
X266647391Y-106036029D01*
X266647391Y-106036029D02*
X266552153Y-106083648D01*
X266552153Y-106083648D02*
X266456915Y-106083648D01*
X266456915Y-106083648D02*
X266361677Y-106036029D01*
X266361677Y-106036029D02*
X266314058Y-105988409D01*
X266314058Y-105988409D02*
X266266439Y-105893171D01*
X266266439Y-105893171D02*
X266218820Y-105702695D01*
X266218820Y-105702695D02*
X266218820Y-105464600D01*
X266218820Y-105464600D02*
X266266439Y-105274124D01*
X266266439Y-105274124D02*
X266314058Y-105178886D01*
X266314058Y-105178886D02*
X266361677Y-105131267D01*
X266361677Y-105131267D02*
X266456915Y-105083648D01*
X265837867Y-111068409D02*
X265790248Y-111116029D01*
X265790248Y-111116029D02*
X265647391Y-111163648D01*
X265647391Y-111163648D02*
X265552153Y-111163648D01*
X265552153Y-111163648D02*
X265409296Y-111116029D01*
X265409296Y-111116029D02*
X265314058Y-111020790D01*
X265314058Y-111020790D02*
X265266439Y-110925552D01*
X265266439Y-110925552D02*
X265218820Y-110735076D01*
X265218820Y-110735076D02*
X265218820Y-110592219D01*
X265218820Y-110592219D02*
X265266439Y-110401743D01*
X265266439Y-110401743D02*
X265314058Y-110306505D01*
X265314058Y-110306505D02*
X265409296Y-110211267D01*
X265409296Y-110211267D02*
X265552153Y-110163648D01*
X265552153Y-110163648D02*
X265647391Y-110163648D01*
X265647391Y-110163648D02*
X265790248Y-110211267D01*
X265790248Y-110211267D02*
X265837867Y-110258886D01*
X266218820Y-110258886D02*
X266266439Y-110211267D01*
X266266439Y-110211267D02*
X266361677Y-110163648D01*
X266361677Y-110163648D02*
X266599772Y-110163648D01*
X266599772Y-110163648D02*
X266695010Y-110211267D01*
X266695010Y-110211267D02*
X266742629Y-110258886D01*
X266742629Y-110258886D02*
X266790248Y-110354124D01*
X266790248Y-110354124D02*
X266790248Y-110449362D01*
X266790248Y-110449362D02*
X266742629Y-110592219D01*
X266742629Y-110592219D02*
X266171201Y-111163648D01*
X266171201Y-111163648D02*
X266790248Y-111163648D01*
X261871676Y-95923648D02*
X261395486Y-95923648D01*
X261395486Y-95923648D02*
X261395486Y-94923648D01*
X262205010Y-95399838D02*
X262538343Y-95399838D01*
X262681200Y-95923648D02*
X262205010Y-95923648D01*
X262205010Y-95923648D02*
X262205010Y-94923648D01*
X262205010Y-94923648D02*
X262681200Y-94923648D01*
X263109772Y-95923648D02*
X263109772Y-94923648D01*
X263109772Y-94923648D02*
X263347867Y-94923648D01*
X263347867Y-94923648D02*
X263490724Y-94971267D01*
X263490724Y-94971267D02*
X263585962Y-95066505D01*
X263585962Y-95066505D02*
X263633581Y-95161743D01*
X263633581Y-95161743D02*
X263681200Y-95352219D01*
X263681200Y-95352219D02*
X263681200Y-95495076D01*
X263681200Y-95495076D02*
X263633581Y-95685552D01*
X263633581Y-95685552D02*
X263585962Y-95780790D01*
X263585962Y-95780790D02*
X263490724Y-95876029D01*
X263490724Y-95876029D02*
X263347867Y-95923648D01*
X263347867Y-95923648D02*
X263109772Y-95923648D01*
X264866914Y-101003648D02*
X264533581Y-100527457D01*
X264295486Y-101003648D02*
X264295486Y-100003648D01*
X264295486Y-100003648D02*
X264676438Y-100003648D01*
X264676438Y-100003648D02*
X264771676Y-100051267D01*
X264771676Y-100051267D02*
X264819295Y-100098886D01*
X264819295Y-100098886D02*
X264866914Y-100194124D01*
X264866914Y-100194124D02*
X264866914Y-100336981D01*
X264866914Y-100336981D02*
X264819295Y-100432219D01*
X264819295Y-100432219D02*
X264771676Y-100479838D01*
X264771676Y-100479838D02*
X264676438Y-100527457D01*
X264676438Y-100527457D02*
X264295486Y-100527457D01*
X265247867Y-100956029D02*
X265390724Y-101003648D01*
X265390724Y-101003648D02*
X265628819Y-101003648D01*
X265628819Y-101003648D02*
X265724057Y-100956029D01*
X265724057Y-100956029D02*
X265771676Y-100908409D01*
X265771676Y-100908409D02*
X265819295Y-100813171D01*
X265819295Y-100813171D02*
X265819295Y-100717933D01*
X265819295Y-100717933D02*
X265771676Y-100622695D01*
X265771676Y-100622695D02*
X265724057Y-100575076D01*
X265724057Y-100575076D02*
X265628819Y-100527457D01*
X265628819Y-100527457D02*
X265438343Y-100479838D01*
X265438343Y-100479838D02*
X265343105Y-100432219D01*
X265343105Y-100432219D02*
X265295486Y-100384600D01*
X265295486Y-100384600D02*
X265247867Y-100289362D01*
X265247867Y-100289362D02*
X265247867Y-100194124D01*
X265247867Y-100194124D02*
X265295486Y-100098886D01*
X265295486Y-100098886D02*
X265343105Y-100051267D01*
X265343105Y-100051267D02*
X265438343Y-100003648D01*
X265438343Y-100003648D02*
X265676438Y-100003648D01*
X265676438Y-100003648D02*
X265819295Y-100051267D01*
X266105010Y-100003648D02*
X266676438Y-100003648D01*
X266390724Y-101003648D02*
X266390724Y-100003648D01*
X265837867Y-118688409D02*
X265790248Y-118736029D01*
X265790248Y-118736029D02*
X265647391Y-118783648D01*
X265647391Y-118783648D02*
X265552153Y-118783648D01*
X265552153Y-118783648D02*
X265409296Y-118736029D01*
X265409296Y-118736029D02*
X265314058Y-118640790D01*
X265314058Y-118640790D02*
X265266439Y-118545552D01*
X265266439Y-118545552D02*
X265218820Y-118355076D01*
X265218820Y-118355076D02*
X265218820Y-118212219D01*
X265218820Y-118212219D02*
X265266439Y-118021743D01*
X265266439Y-118021743D02*
X265314058Y-117926505D01*
X265314058Y-117926505D02*
X265409296Y-117831267D01*
X265409296Y-117831267D02*
X265552153Y-117783648D01*
X265552153Y-117783648D02*
X265647391Y-117783648D01*
X265647391Y-117783648D02*
X265790248Y-117831267D01*
X265790248Y-117831267D02*
X265837867Y-117878886D01*
X266742629Y-117783648D02*
X266266439Y-117783648D01*
X266266439Y-117783648D02*
X266218820Y-118259838D01*
X266218820Y-118259838D02*
X266266439Y-118212219D01*
X266266439Y-118212219D02*
X266361677Y-118164600D01*
X266361677Y-118164600D02*
X266599772Y-118164600D01*
X266599772Y-118164600D02*
X266695010Y-118212219D01*
X266695010Y-118212219D02*
X266742629Y-118259838D01*
X266742629Y-118259838D02*
X266790248Y-118355076D01*
X266790248Y-118355076D02*
X266790248Y-118593171D01*
X266790248Y-118593171D02*
X266742629Y-118688409D01*
X266742629Y-118688409D02*
X266695010Y-118736029D01*
X266695010Y-118736029D02*
X266599772Y-118783648D01*
X266599772Y-118783648D02*
X266361677Y-118783648D01*
X266361677Y-118783648D02*
X266266439Y-118736029D01*
X266266439Y-118736029D02*
X266218820Y-118688409D01*
X264081201Y-102543648D02*
X264414534Y-103543648D01*
X264414534Y-103543648D02*
X264747867Y-102543648D01*
X265652629Y-103448409D02*
X265605010Y-103496029D01*
X265605010Y-103496029D02*
X265462153Y-103543648D01*
X265462153Y-103543648D02*
X265366915Y-103543648D01*
X265366915Y-103543648D02*
X265224058Y-103496029D01*
X265224058Y-103496029D02*
X265128820Y-103400790D01*
X265128820Y-103400790D02*
X265081201Y-103305552D01*
X265081201Y-103305552D02*
X265033582Y-103115076D01*
X265033582Y-103115076D02*
X265033582Y-102972219D01*
X265033582Y-102972219D02*
X265081201Y-102781743D01*
X265081201Y-102781743D02*
X265128820Y-102686505D01*
X265128820Y-102686505D02*
X265224058Y-102591267D01*
X265224058Y-102591267D02*
X265366915Y-102543648D01*
X265366915Y-102543648D02*
X265462153Y-102543648D01*
X265462153Y-102543648D02*
X265605010Y-102591267D01*
X265605010Y-102591267D02*
X265652629Y-102638886D01*
X266652629Y-103448409D02*
X266605010Y-103496029D01*
X266605010Y-103496029D02*
X266462153Y-103543648D01*
X266462153Y-103543648D02*
X266366915Y-103543648D01*
X266366915Y-103543648D02*
X266224058Y-103496029D01*
X266224058Y-103496029D02*
X266128820Y-103400790D01*
X266128820Y-103400790D02*
X266081201Y-103305552D01*
X266081201Y-103305552D02*
X266033582Y-103115076D01*
X266033582Y-103115076D02*
X266033582Y-102972219D01*
X266033582Y-102972219D02*
X266081201Y-102781743D01*
X266081201Y-102781743D02*
X266128820Y-102686505D01*
X266128820Y-102686505D02*
X266224058Y-102591267D01*
X266224058Y-102591267D02*
X266366915Y-102543648D01*
X266366915Y-102543648D02*
X266462153Y-102543648D01*
X266462153Y-102543648D02*
X266605010Y-102591267D01*
X266605010Y-102591267D02*
X266652629Y-102638886D01*
X261757867Y-113703648D02*
X261424534Y-113227457D01*
X261186439Y-113703648D02*
X261186439Y-112703648D01*
X261186439Y-112703648D02*
X261567391Y-112703648D01*
X261567391Y-112703648D02*
X261662629Y-112751267D01*
X261662629Y-112751267D02*
X261710248Y-112798886D01*
X261710248Y-112798886D02*
X261757867Y-112894124D01*
X261757867Y-112894124D02*
X261757867Y-113036981D01*
X261757867Y-113036981D02*
X261710248Y-113132219D01*
X261710248Y-113132219D02*
X261662629Y-113179838D01*
X261662629Y-113179838D02*
X261567391Y-113227457D01*
X261567391Y-113227457D02*
X261186439Y-113227457D01*
X262376915Y-112703648D02*
X262472153Y-112703648D01*
X262472153Y-112703648D02*
X262567391Y-112751267D01*
X262567391Y-112751267D02*
X262615010Y-112798886D01*
X262615010Y-112798886D02*
X262662629Y-112894124D01*
X262662629Y-112894124D02*
X262710248Y-113084600D01*
X262710248Y-113084600D02*
X262710248Y-113322695D01*
X262710248Y-113322695D02*
X262662629Y-113513171D01*
X262662629Y-113513171D02*
X262615010Y-113608409D01*
X262615010Y-113608409D02*
X262567391Y-113656029D01*
X262567391Y-113656029D02*
X262472153Y-113703648D01*
X262472153Y-113703648D02*
X262376915Y-113703648D01*
X262376915Y-113703648D02*
X262281677Y-113656029D01*
X262281677Y-113656029D02*
X262234058Y-113608409D01*
X262234058Y-113608409D02*
X262186439Y-113513171D01*
X262186439Y-113513171D02*
X262138820Y-113322695D01*
X262138820Y-113322695D02*
X262138820Y-113084600D01*
X262138820Y-113084600D02*
X262186439Y-112894124D01*
X262186439Y-112894124D02*
X262234058Y-112798886D01*
X262234058Y-112798886D02*
X262281677Y-112751267D01*
X262281677Y-112751267D02*
X262376915Y-112703648D01*
X261324058Y-108576029D02*
X261466915Y-108623648D01*
X261466915Y-108623648D02*
X261705010Y-108623648D01*
X261705010Y-108623648D02*
X261800248Y-108576029D01*
X261800248Y-108576029D02*
X261847867Y-108528409D01*
X261847867Y-108528409D02*
X261895486Y-108433171D01*
X261895486Y-108433171D02*
X261895486Y-108337933D01*
X261895486Y-108337933D02*
X261847867Y-108242695D01*
X261847867Y-108242695D02*
X261800248Y-108195076D01*
X261800248Y-108195076D02*
X261705010Y-108147457D01*
X261705010Y-108147457D02*
X261514534Y-108099838D01*
X261514534Y-108099838D02*
X261419296Y-108052219D01*
X261419296Y-108052219D02*
X261371677Y-108004600D01*
X261371677Y-108004600D02*
X261324058Y-107909362D01*
X261324058Y-107909362D02*
X261324058Y-107814124D01*
X261324058Y-107814124D02*
X261371677Y-107718886D01*
X261371677Y-107718886D02*
X261419296Y-107671267D01*
X261419296Y-107671267D02*
X261514534Y-107623648D01*
X261514534Y-107623648D02*
X261752629Y-107623648D01*
X261752629Y-107623648D02*
X261895486Y-107671267D01*
X262895486Y-108528409D02*
X262847867Y-108576029D01*
X262847867Y-108576029D02*
X262705010Y-108623648D01*
X262705010Y-108623648D02*
X262609772Y-108623648D01*
X262609772Y-108623648D02*
X262466915Y-108576029D01*
X262466915Y-108576029D02*
X262371677Y-108480790D01*
X262371677Y-108480790D02*
X262324058Y-108385552D01*
X262324058Y-108385552D02*
X262276439Y-108195076D01*
X262276439Y-108195076D02*
X262276439Y-108052219D01*
X262276439Y-108052219D02*
X262324058Y-107861743D01*
X262324058Y-107861743D02*
X262371677Y-107766505D01*
X262371677Y-107766505D02*
X262466915Y-107671267D01*
X262466915Y-107671267D02*
X262609772Y-107623648D01*
X262609772Y-107623648D02*
X262705010Y-107623648D01*
X262705010Y-107623648D02*
X262847867Y-107671267D01*
X262847867Y-107671267D02*
X262895486Y-107718886D01*
X263800248Y-108623648D02*
X263324058Y-108623648D01*
X263324058Y-108623648D02*
X263324058Y-107623648D01*
X261757867Y-111068409D02*
X261710248Y-111116029D01*
X261710248Y-111116029D02*
X261567391Y-111163648D01*
X261567391Y-111163648D02*
X261472153Y-111163648D01*
X261472153Y-111163648D02*
X261329296Y-111116029D01*
X261329296Y-111116029D02*
X261234058Y-111020790D01*
X261234058Y-111020790D02*
X261186439Y-110925552D01*
X261186439Y-110925552D02*
X261138820Y-110735076D01*
X261138820Y-110735076D02*
X261138820Y-110592219D01*
X261138820Y-110592219D02*
X261186439Y-110401743D01*
X261186439Y-110401743D02*
X261234058Y-110306505D01*
X261234058Y-110306505D02*
X261329296Y-110211267D01*
X261329296Y-110211267D02*
X261472153Y-110163648D01*
X261472153Y-110163648D02*
X261567391Y-110163648D01*
X261567391Y-110163648D02*
X261710248Y-110211267D01*
X261710248Y-110211267D02*
X261757867Y-110258886D01*
X262138820Y-111116029D02*
X262281677Y-111163648D01*
X262281677Y-111163648D02*
X262519772Y-111163648D01*
X262519772Y-111163648D02*
X262615010Y-111116029D01*
X262615010Y-111116029D02*
X262662629Y-111068409D01*
X262662629Y-111068409D02*
X262710248Y-110973171D01*
X262710248Y-110973171D02*
X262710248Y-110877933D01*
X262710248Y-110877933D02*
X262662629Y-110782695D01*
X262662629Y-110782695D02*
X262615010Y-110735076D01*
X262615010Y-110735076D02*
X262519772Y-110687457D01*
X262519772Y-110687457D02*
X262329296Y-110639838D01*
X262329296Y-110639838D02*
X262234058Y-110592219D01*
X262234058Y-110592219D02*
X262186439Y-110544600D01*
X262186439Y-110544600D02*
X262138820Y-110449362D01*
X262138820Y-110449362D02*
X262138820Y-110354124D01*
X262138820Y-110354124D02*
X262186439Y-110258886D01*
X262186439Y-110258886D02*
X262234058Y-110211267D01*
X262234058Y-110211267D02*
X262329296Y-110163648D01*
X262329296Y-110163648D02*
X262567391Y-110163648D01*
X262567391Y-110163648D02*
X262710248Y-110211267D01*
X261274057Y-126076032D02*
X261416914Y-126123651D01*
X261416914Y-126123651D02*
X261655009Y-126123651D01*
X261655009Y-126123651D02*
X261750247Y-126076032D01*
X261750247Y-126076032D02*
X261797866Y-126028412D01*
X261797866Y-126028412D02*
X261845485Y-125933174D01*
X261845485Y-125933174D02*
X261845485Y-125837936D01*
X261845485Y-125837936D02*
X261797866Y-125742698D01*
X261797866Y-125742698D02*
X261750247Y-125695079D01*
X261750247Y-125695079D02*
X261655009Y-125647460D01*
X261655009Y-125647460D02*
X261464533Y-125599841D01*
X261464533Y-125599841D02*
X261369295Y-125552222D01*
X261369295Y-125552222D02*
X261321676Y-125504603D01*
X261321676Y-125504603D02*
X261274057Y-125409365D01*
X261274057Y-125409365D02*
X261274057Y-125314127D01*
X261274057Y-125314127D02*
X261321676Y-125218889D01*
X261321676Y-125218889D02*
X261369295Y-125171270D01*
X261369295Y-125171270D02*
X261464533Y-125123651D01*
X261464533Y-125123651D02*
X261702628Y-125123651D01*
X261702628Y-125123651D02*
X261845485Y-125171270D01*
X262845485Y-126028412D02*
X262797866Y-126076032D01*
X262797866Y-126076032D02*
X262655009Y-126123651D01*
X262655009Y-126123651D02*
X262559771Y-126123651D01*
X262559771Y-126123651D02*
X262416914Y-126076032D01*
X262416914Y-126076032D02*
X262321676Y-125980793D01*
X262321676Y-125980793D02*
X262274057Y-125885555D01*
X262274057Y-125885555D02*
X262226438Y-125695079D01*
X262226438Y-125695079D02*
X262226438Y-125552222D01*
X262226438Y-125552222D02*
X262274057Y-125361746D01*
X262274057Y-125361746D02*
X262321676Y-125266508D01*
X262321676Y-125266508D02*
X262416914Y-125171270D01*
X262416914Y-125171270D02*
X262559771Y-125123651D01*
X262559771Y-125123651D02*
X262655009Y-125123651D01*
X262655009Y-125123651D02*
X262797866Y-125171270D01*
X262797866Y-125171270D02*
X262845485Y-125218889D01*
X263750247Y-126123651D02*
X263274057Y-126123651D01*
X263274057Y-126123651D02*
X263274057Y-125123651D01*
X264131200Y-125123651D02*
X264464533Y-126123651D01*
X264464533Y-126123651D02*
X264797866Y-125123651D01*
X265702628Y-126028412D02*
X265655009Y-126076032D01*
X265655009Y-126076032D02*
X265512152Y-126123651D01*
X265512152Y-126123651D02*
X265416914Y-126123651D01*
X265416914Y-126123651D02*
X265274057Y-126076032D01*
X265274057Y-126076032D02*
X265178819Y-125980793D01*
X265178819Y-125980793D02*
X265131200Y-125885555D01*
X265131200Y-125885555D02*
X265083581Y-125695079D01*
X265083581Y-125695079D02*
X265083581Y-125552222D01*
X265083581Y-125552222D02*
X265131200Y-125361746D01*
X265131200Y-125361746D02*
X265178819Y-125266508D01*
X265178819Y-125266508D02*
X265274057Y-125171270D01*
X265274057Y-125171270D02*
X265416914Y-125123651D01*
X265416914Y-125123651D02*
X265512152Y-125123651D01*
X265512152Y-125123651D02*
X265655009Y-125171270D01*
X265655009Y-125171270D02*
X265702628Y-125218889D01*
X266702628Y-126028412D02*
X266655009Y-126076032D01*
X266655009Y-126076032D02*
X266512152Y-126123651D01*
X266512152Y-126123651D02*
X266416914Y-126123651D01*
X266416914Y-126123651D02*
X266274057Y-126076032D01*
X266274057Y-126076032D02*
X266178819Y-125980793D01*
X266178819Y-125980793D02*
X266131200Y-125885555D01*
X266131200Y-125885555D02*
X266083581Y-125695079D01*
X266083581Y-125695079D02*
X266083581Y-125552222D01*
X266083581Y-125552222D02*
X266131200Y-125361746D01*
X266131200Y-125361746D02*
X266178819Y-125266508D01*
X266178819Y-125266508D02*
X266274057Y-125171270D01*
X266274057Y-125171270D02*
X266416914Y-125123651D01*
X266416914Y-125123651D02*
X266512152Y-125123651D01*
X266512152Y-125123651D02*
X266655009Y-125171270D01*
X266655009Y-125171270D02*
X266702628Y-125218889D01*
X267702628Y-125171270D02*
X267607390Y-125123651D01*
X267607390Y-125123651D02*
X267464533Y-125123651D01*
X267464533Y-125123651D02*
X267321676Y-125171270D01*
X267321676Y-125171270D02*
X267226438Y-125266508D01*
X267226438Y-125266508D02*
X267178819Y-125361746D01*
X267178819Y-125361746D02*
X267131200Y-125552222D01*
X267131200Y-125552222D02*
X267131200Y-125695079D01*
X267131200Y-125695079D02*
X267178819Y-125885555D01*
X267178819Y-125885555D02*
X267226438Y-125980793D01*
X267226438Y-125980793D02*
X267321676Y-126076032D01*
X267321676Y-126076032D02*
X267464533Y-126123651D01*
X267464533Y-126123651D02*
X267559771Y-126123651D01*
X267559771Y-126123651D02*
X267702628Y-126076032D01*
X267702628Y-126076032D02*
X267750247Y-126028412D01*
X267750247Y-126028412D02*
X267750247Y-125695079D01*
X267750247Y-125695079D02*
X267559771Y-125695079D01*
X268178819Y-126123651D02*
X268178819Y-125123651D01*
X268178819Y-125123651D02*
X268750247Y-126123651D01*
X268750247Y-126123651D02*
X268750247Y-125123651D01*
X269226438Y-126123651D02*
X269226438Y-125123651D01*
X269226438Y-125123651D02*
X269464533Y-125123651D01*
X269464533Y-125123651D02*
X269607390Y-125171270D01*
X269607390Y-125171270D02*
X269702628Y-125266508D01*
X269702628Y-125266508D02*
X269750247Y-125361746D01*
X269750247Y-125361746D02*
X269797866Y-125552222D01*
X269797866Y-125552222D02*
X269797866Y-125695079D01*
X269797866Y-125695079D02*
X269750247Y-125885555D01*
X269750247Y-125885555D02*
X269702628Y-125980793D01*
X269702628Y-125980793D02*
X269607390Y-126076032D01*
X269607390Y-126076032D02*
X269464533Y-126123651D01*
X269464533Y-126123651D02*
X269226438Y-126123651D01*
X258250247Y-126076032D02*
X258393104Y-126123651D01*
X258393104Y-126123651D02*
X258631199Y-126123651D01*
X258631199Y-126123651D02*
X258726437Y-126076032D01*
X258726437Y-126076032D02*
X258774056Y-126028412D01*
X258774056Y-126028412D02*
X258821675Y-125933174D01*
X258821675Y-125933174D02*
X258821675Y-125837936D01*
X258821675Y-125837936D02*
X258774056Y-125742698D01*
X258774056Y-125742698D02*
X258726437Y-125695079D01*
X258726437Y-125695079D02*
X258631199Y-125647460D01*
X258631199Y-125647460D02*
X258440723Y-125599841D01*
X258440723Y-125599841D02*
X258345485Y-125552222D01*
X258345485Y-125552222D02*
X258297866Y-125504603D01*
X258297866Y-125504603D02*
X258250247Y-125409365D01*
X258250247Y-125409365D02*
X258250247Y-125314127D01*
X258250247Y-125314127D02*
X258297866Y-125218889D01*
X258297866Y-125218889D02*
X258345485Y-125171270D01*
X258345485Y-125171270D02*
X258440723Y-125123651D01*
X258440723Y-125123651D02*
X258678818Y-125123651D01*
X258678818Y-125123651D02*
X258821675Y-125171270D01*
X259250247Y-126123651D02*
X259250247Y-125123651D01*
X259250247Y-125123651D02*
X259488342Y-125123651D01*
X259488342Y-125123651D02*
X259631199Y-125171270D01*
X259631199Y-125171270D02*
X259726437Y-125266508D01*
X259726437Y-125266508D02*
X259774056Y-125361746D01*
X259774056Y-125361746D02*
X259821675Y-125552222D01*
X259821675Y-125552222D02*
X259821675Y-125695079D01*
X259821675Y-125695079D02*
X259774056Y-125885555D01*
X259774056Y-125885555D02*
X259726437Y-125980793D01*
X259726437Y-125980793D02*
X259631199Y-126076032D01*
X259631199Y-126076032D02*
X259488342Y-126123651D01*
X259488342Y-126123651D02*
X259250247Y-126123651D01*
X260202628Y-125837936D02*
X260678818Y-125837936D01*
X260107390Y-126123651D02*
X260440723Y-125123651D01*
X260440723Y-125123651D02*
X260774056Y-126123651D01*
X272419355Y-134216449D02*
X271943164Y-134549782D01*
X272419355Y-134787877D02*
X271419355Y-134787877D01*
X271419355Y-134787877D02*
X271419355Y-134406925D01*
X271419355Y-134406925D02*
X271466974Y-134311687D01*
X271466974Y-134311687D02*
X271514593Y-134264068D01*
X271514593Y-134264068D02*
X271609831Y-134216449D01*
X271609831Y-134216449D02*
X271752688Y-134216449D01*
X271752688Y-134216449D02*
X271847926Y-134264068D01*
X271847926Y-134264068D02*
X271895545Y-134311687D01*
X271895545Y-134311687D02*
X271943164Y-134406925D01*
X271943164Y-134406925D02*
X271943164Y-134787877D01*
X272371736Y-133835496D02*
X272419355Y-133692639D01*
X272419355Y-133692639D02*
X272419355Y-133454544D01*
X272419355Y-133454544D02*
X272371736Y-133359306D01*
X272371736Y-133359306D02*
X272324116Y-133311687D01*
X272324116Y-133311687D02*
X272228878Y-133264068D01*
X272228878Y-133264068D02*
X272133640Y-133264068D01*
X272133640Y-133264068D02*
X272038402Y-133311687D01*
X272038402Y-133311687D02*
X271990783Y-133359306D01*
X271990783Y-133359306D02*
X271943164Y-133454544D01*
X271943164Y-133454544D02*
X271895545Y-133645020D01*
X271895545Y-133645020D02*
X271847926Y-133740258D01*
X271847926Y-133740258D02*
X271800307Y-133787877D01*
X271800307Y-133787877D02*
X271705069Y-133835496D01*
X271705069Y-133835496D02*
X271609831Y-133835496D01*
X271609831Y-133835496D02*
X271514593Y-133787877D01*
X271514593Y-133787877D02*
X271466974Y-133740258D01*
X271466974Y-133740258D02*
X271419355Y-133645020D01*
X271419355Y-133645020D02*
X271419355Y-133406925D01*
X271419355Y-133406925D02*
X271466974Y-133264068D01*
X271419355Y-132978353D02*
X271419355Y-132406925D01*
X272419355Y-132692639D02*
X271419355Y-132692639D01*
D12*
%TO.C,G\u002A\u002A\u002A*%
G36*
X194555138Y-141868550D02*
G01*
X194987980Y-141896962D01*
X195400871Y-141939991D01*
X195850264Y-142005788D01*
X196288834Y-142089393D01*
X196715577Y-142190441D01*
X197129490Y-142308569D01*
X197529567Y-142443412D01*
X197914805Y-142594606D01*
X198284200Y-142761786D01*
X198636748Y-142944588D01*
X198971444Y-143142649D01*
X199271698Y-143344422D01*
X199523500Y-143535887D01*
X199765546Y-143742691D01*
X199994710Y-143961718D01*
X200207869Y-144189857D01*
X200401895Y-144423993D01*
X200531313Y-144599275D01*
X200706900Y-144870900D01*
X200860402Y-145152481D01*
X200992035Y-145444565D01*
X201102012Y-145747697D01*
X201190549Y-146062425D01*
X201257860Y-146389296D01*
X201274226Y-146491679D01*
X201291219Y-146630242D01*
X201304176Y-146788303D01*
X201313093Y-146961117D01*
X201317970Y-147143939D01*
X201318804Y-147332025D01*
X201315595Y-147520629D01*
X201308340Y-147705007D01*
X201297037Y-147880414D01*
X201281686Y-148042104D01*
X201274808Y-148098821D01*
X201227115Y-148394495D01*
X201162909Y-148672210D01*
X201081988Y-148932395D01*
X200984147Y-149175476D01*
X200869183Y-149401882D01*
X200736892Y-149612041D01*
X200587069Y-149806381D01*
X200419511Y-149985329D01*
X200340733Y-150058748D01*
X200213241Y-150172792D01*
X200216254Y-150236929D01*
X200220484Y-150304852D01*
X200227686Y-150394129D01*
X200237562Y-150501751D01*
X200249815Y-150624714D01*
X200264144Y-150760013D01*
X200280251Y-150904640D01*
X200296520Y-151044509D01*
X200315303Y-151204131D01*
X200331113Y-151341894D01*
X200344163Y-151460311D01*
X200354664Y-151561893D01*
X200362828Y-151649151D01*
X200368865Y-151724598D01*
X200372988Y-151790746D01*
X200375409Y-151850104D01*
X200376337Y-151905186D01*
X200375986Y-151958503D01*
X200375477Y-151982186D01*
X200372982Y-152056577D01*
X200369487Y-152111037D01*
X200364407Y-152150208D01*
X200357155Y-152178731D01*
X200348034Y-152199613D01*
X200302087Y-152267056D01*
X200235850Y-152338228D01*
X200152829Y-152410714D01*
X200056530Y-152482101D01*
X199950459Y-152549974D01*
X199838123Y-152611919D01*
X199723027Y-152665522D01*
X199609628Y-152708059D01*
X199520608Y-152735339D01*
X199440903Y-152755280D01*
X199363121Y-152769030D01*
X199279867Y-152777734D01*
X199183749Y-152782541D01*
X199120136Y-152783979D01*
X198913276Y-152787233D01*
X198843648Y-152829436D01*
X198659373Y-152931927D01*
X198469939Y-153018491D01*
X198272128Y-153090116D01*
X198062720Y-153147785D01*
X197838496Y-153192486D01*
X197596237Y-153225202D01*
X197528636Y-153231985D01*
X197463221Y-153238907D01*
X197414327Y-153246751D01*
X197373928Y-153257584D01*
X197333996Y-153273474D01*
X197295158Y-153292134D01*
X197159895Y-153351075D01*
X197002587Y-153403762D01*
X196825081Y-153449698D01*
X196629225Y-153488382D01*
X196488389Y-153510032D01*
X196423511Y-153517352D01*
X196344274Y-153523296D01*
X196248316Y-153527971D01*
X196133277Y-153531485D01*
X195996793Y-153533945D01*
X195948345Y-153534526D01*
X195850786Y-153535935D01*
X195759700Y-153537939D01*
X195678382Y-153540412D01*
X195610124Y-153543228D01*
X195558219Y-153546262D01*
X195525960Y-153549388D01*
X195518253Y-153550938D01*
X195486172Y-153559709D01*
X195434655Y-153571861D01*
X195368457Y-153586428D01*
X195292330Y-153602441D01*
X195211029Y-153618932D01*
X195129306Y-153634933D01*
X195051914Y-153649475D01*
X194983608Y-153661592D01*
X194940058Y-153668681D01*
X194846059Y-153679591D01*
X194739450Y-153686195D01*
X194627425Y-153688498D01*
X194517175Y-153686506D01*
X194415891Y-153680226D01*
X194330766Y-153669665D01*
X194322094Y-153668131D01*
X194224938Y-153647213D01*
X194124873Y-153620221D01*
X194026835Y-153588922D01*
X193935763Y-153555084D01*
X193856593Y-153520475D01*
X193794262Y-153486863D01*
X193770497Y-153470635D01*
X193727196Y-153437608D01*
X193675628Y-153463363D01*
X193616809Y-153489253D01*
X193556853Y-153507513D01*
X193490500Y-153518928D01*
X193412492Y-153524282D01*
X193317569Y-153524359D01*
X193274988Y-153523134D01*
X193062118Y-153503897D01*
X192856470Y-153461211D01*
X192657417Y-153394916D01*
X192509776Y-153328451D01*
X192439512Y-153289397D01*
X192381183Y-153247444D01*
X192333337Y-153199718D01*
X192294519Y-153143345D01*
X192263276Y-153075453D01*
X192238154Y-152993167D01*
X192217699Y-152893613D01*
X192200457Y-152773919D01*
X192192021Y-152700363D01*
X192184583Y-152640707D01*
X192176706Y-152594161D01*
X192169177Y-152564710D01*
X192163572Y-152556093D01*
X192143031Y-152564331D01*
X192108533Y-152586874D01*
X192063655Y-152620809D01*
X192011975Y-152663220D01*
X191957069Y-152711193D01*
X191902514Y-152761813D01*
X191861829Y-152801950D01*
X191760518Y-152915785D01*
X191682925Y-153026967D01*
X191628451Y-153136394D01*
X191616872Y-153167988D01*
X191604124Y-153218962D01*
X191592398Y-153291230D01*
X191581816Y-153381524D01*
X191572499Y-153486579D01*
X191564570Y-153603128D01*
X191558149Y-153727903D01*
X191553360Y-153857639D01*
X191550324Y-153989069D01*
X191549163Y-154118925D01*
X191549998Y-154243942D01*
X191552951Y-154360853D01*
X191558144Y-154466391D01*
X191565231Y-154552831D01*
X191595436Y-154789059D01*
X191635123Y-155003969D01*
X191684778Y-155199113D01*
X191744888Y-155376044D01*
X191815939Y-155536316D01*
X191898419Y-155681480D01*
X191936823Y-155738655D01*
X191977374Y-155791599D01*
X192026537Y-155848826D01*
X192079623Y-155905526D01*
X192131943Y-155956886D01*
X192178809Y-155998097D01*
X192214891Y-156023979D01*
X192251414Y-156045102D01*
X192258730Y-155913383D01*
X192273055Y-155782075D01*
X192301153Y-155668330D01*
X192344107Y-155571202D01*
X192403001Y-155489745D01*
X192478917Y-155423013D01*
X192572939Y-155370057D01*
X192686149Y-155329933D01*
X192819630Y-155301693D01*
X192974466Y-155284391D01*
X192978696Y-155284085D01*
X193164664Y-155278495D01*
X193339525Y-155288765D01*
X193500852Y-155314567D01*
X193646218Y-155355573D01*
X193717152Y-155383890D01*
X193800729Y-155421261D01*
X193888277Y-155389681D01*
X193980427Y-155359152D01*
X194068724Y-155336274D01*
X194159034Y-155320186D01*
X194257220Y-155310030D01*
X194369149Y-155304944D01*
X194473101Y-155303950D01*
X194635271Y-155307230D01*
X194781294Y-155317121D01*
X194918973Y-155334717D01*
X195056113Y-155361116D01*
X195200515Y-155397410D01*
X195260402Y-155414460D01*
X195408708Y-155457861D01*
X195482220Y-155414777D01*
X195613472Y-155349003D01*
X195765831Y-155292695D01*
X195937603Y-155246144D01*
X196127096Y-155209645D01*
X196332614Y-155183491D01*
X196552464Y-155167974D01*
X196784952Y-155163388D01*
X196921302Y-155165741D01*
X197182178Y-155173613D01*
X197238711Y-155130461D01*
X197297160Y-155089915D01*
X197373743Y-155042932D01*
X197463711Y-154992032D01*
X197562313Y-154939740D01*
X197664800Y-154888575D01*
X197766420Y-154841063D01*
X197858539Y-154801315D01*
X198008514Y-154744145D01*
X198152408Y-154697868D01*
X198287983Y-154662858D01*
X198412999Y-154639488D01*
X198525220Y-154628132D01*
X198622405Y-154629162D01*
X198702317Y-154642953D01*
X198735646Y-154654995D01*
X198769577Y-154669958D01*
X198792744Y-154679710D01*
X198798792Y-154681858D01*
X198802934Y-154671204D01*
X198808885Y-154645078D01*
X198809803Y-154640300D01*
X198824343Y-154597203D01*
X198852855Y-154553030D01*
X198896860Y-154506526D01*
X198957877Y-154456437D01*
X199037430Y-154401511D01*
X199137037Y-154340494D01*
X199253266Y-154274844D01*
X199406809Y-154195454D01*
X199548446Y-154132921D01*
X199682809Y-154085924D01*
X199814532Y-154053143D01*
X199948250Y-154033259D01*
X200088595Y-154024951D01*
X200131882Y-154024518D01*
X200204901Y-154024719D01*
X200258366Y-154025757D01*
X200297301Y-154028293D01*
X200326727Y-154032989D01*
X200351668Y-154040505D01*
X200377145Y-154051501D01*
X200392169Y-154058763D01*
X200461866Y-154102413D01*
X200518201Y-154160116D01*
X200565395Y-154236444D01*
X200575499Y-154257328D01*
X200612181Y-154349687D01*
X200646913Y-154463283D01*
X200678968Y-154594808D01*
X200707619Y-154740952D01*
X200732141Y-154898409D01*
X200751071Y-155056653D01*
X200771925Y-155316570D01*
X200779909Y-155562177D01*
X200775180Y-155792654D01*
X200757898Y-156007183D01*
X200728221Y-156204945D01*
X200686306Y-156385120D01*
X200632313Y-156546889D01*
X200566399Y-156689434D01*
X200488722Y-156811935D01*
X200399441Y-156913575D01*
X200390706Y-156921797D01*
X200329027Y-156972823D01*
X200252479Y-157025029D01*
X200159434Y-157079276D01*
X200048263Y-157136424D01*
X199917337Y-157197334D01*
X199765026Y-157262869D01*
X199677817Y-157298662D01*
X199352854Y-157423167D01*
X199009771Y-157541424D01*
X198652184Y-157652643D01*
X198283712Y-157756034D01*
X197907972Y-157850807D01*
X197528580Y-157936172D01*
X197149154Y-158011338D01*
X196773312Y-158075515D01*
X196404670Y-158127914D01*
X196046846Y-158167743D01*
X195703457Y-158194214D01*
X195542187Y-158202044D01*
X195468698Y-158204868D01*
X195395845Y-158207663D01*
X195330963Y-158210148D01*
X195281384Y-158212042D01*
X195271844Y-158212405D01*
X195227471Y-158213400D01*
X195165866Y-158213845D01*
X195094370Y-158213729D01*
X195020322Y-158213043D01*
X195001500Y-158212769D01*
X194708825Y-158205028D01*
X194413737Y-158191183D01*
X194117851Y-158171539D01*
X193822779Y-158146398D01*
X193530133Y-158116063D01*
X193241527Y-158080836D01*
X192958573Y-158041022D01*
X192682885Y-157996922D01*
X192416075Y-157948840D01*
X192159756Y-157897079D01*
X191915541Y-157841942D01*
X191685042Y-157783731D01*
X191469874Y-157722749D01*
X191271648Y-157659301D01*
X191091977Y-157593687D01*
X190932475Y-157526212D01*
X190794754Y-157457178D01*
X190710024Y-157406703D01*
X190622520Y-157344880D01*
X190553354Y-157282688D01*
X190499843Y-157215697D01*
X190459304Y-157139475D01*
X190429054Y-157049593D01*
X190406409Y-156941619D01*
X190398975Y-156893050D01*
X190387151Y-156805344D01*
X190376546Y-156717811D01*
X190367078Y-156628559D01*
X190358661Y-156535699D01*
X190351213Y-156437338D01*
X190344648Y-156331587D01*
X190338884Y-156216555D01*
X190333837Y-156090350D01*
X190329422Y-155951083D01*
X190325555Y-155796862D01*
X190322154Y-155625797D01*
X190319133Y-155435997D01*
X190316409Y-155225571D01*
X190313898Y-154992629D01*
X190313681Y-154970634D01*
X190311918Y-154804701D01*
X190309933Y-154642943D01*
X190307768Y-154487444D01*
X190305464Y-154340289D01*
X190303061Y-154203561D01*
X190300600Y-154079347D01*
X190298122Y-153969730D01*
X190295668Y-153876794D01*
X190293278Y-153802625D01*
X190290994Y-153749307D01*
X190289296Y-153723368D01*
X190265541Y-153516141D01*
X190232416Y-153319752D01*
X190190629Y-153137098D01*
X190140888Y-152971076D01*
X190083899Y-152824583D01*
X190054979Y-152763632D01*
X190009119Y-152682288D01*
X189952473Y-152595765D01*
X189890369Y-152511387D01*
X189828138Y-152436473D01*
X189781632Y-152388078D01*
X189748775Y-152358355D01*
X189699882Y-152316122D01*
X189638209Y-152264095D01*
X189567013Y-152204989D01*
X189489550Y-152141520D01*
X189409075Y-152076403D01*
X189377972Y-152051464D01*
X189243699Y-151943638D01*
X189126068Y-151848079D01*
X189022136Y-151762209D01*
X188928957Y-151683450D01*
X188843590Y-151609224D01*
X188763088Y-151536954D01*
X188684508Y-151464061D01*
X188604907Y-151387967D01*
X188521339Y-151306095D01*
X188481194Y-151266221D01*
X188316818Y-151097956D01*
X188169371Y-150937129D01*
X188034635Y-150778653D01*
X187908395Y-150617438D01*
X187786434Y-150448397D01*
X187709055Y-150334320D01*
X187520655Y-150030029D01*
X187352665Y-149715464D01*
X187204837Y-149389855D01*
X187076925Y-149052431D01*
X186968680Y-148702425D01*
X186879856Y-148339065D01*
X186810204Y-147961582D01*
X186759478Y-147569206D01*
X186736756Y-147308854D01*
X186732279Y-147226879D01*
X186729182Y-147128435D01*
X186727402Y-147017522D01*
X186726877Y-146898139D01*
X186727518Y-146779035D01*
X187269369Y-146779035D01*
X187272969Y-147022078D01*
X187285571Y-147271597D01*
X187306993Y-147523568D01*
X187337052Y-147773968D01*
X187375565Y-148018774D01*
X187408041Y-148187470D01*
X187494204Y-148543330D01*
X187601918Y-148887811D01*
X187731022Y-149220574D01*
X187881355Y-149541280D01*
X188052754Y-149849590D01*
X188245059Y-150145164D01*
X188458108Y-150427662D01*
X188498751Y-150477223D01*
X188592888Y-150588032D01*
X188688236Y-150694834D01*
X188786946Y-150799638D01*
X188891167Y-150904455D01*
X189003050Y-151011294D01*
X189124747Y-151122165D01*
X189258406Y-151239078D01*
X189406179Y-151364044D01*
X189570217Y-151499072D01*
X189729802Y-151627874D01*
X189848274Y-151723223D01*
X189949322Y-151805757D01*
X190035081Y-151877544D01*
X190107684Y-151940652D01*
X190169265Y-151997148D01*
X190221958Y-152049100D01*
X190267899Y-152098577D01*
X190309220Y-152147646D01*
X190348057Y-152198374D01*
X190386543Y-152252829D01*
X190408676Y-152285632D01*
X190515563Y-152464968D01*
X190607382Y-152659832D01*
X190684456Y-152871238D01*
X190747110Y-153100201D01*
X190795668Y-153347736D01*
X190829334Y-153603903D01*
X190835293Y-153675227D01*
X190840876Y-153769047D01*
X190846033Y-153883287D01*
X190850715Y-154015869D01*
X190854873Y-154164717D01*
X190858457Y-154327753D01*
X190861417Y-154502899D01*
X190863705Y-154688078D01*
X190865270Y-154881213D01*
X190866063Y-155080227D01*
X190866149Y-155150086D01*
X190867046Y-155401132D01*
X190869532Y-155629860D01*
X190873701Y-155838484D01*
X190879648Y-156029216D01*
X190887468Y-156204271D01*
X190897256Y-156365860D01*
X190909107Y-156516198D01*
X190923115Y-156657498D01*
X190935057Y-156758588D01*
X190943653Y-156822293D01*
X190953217Y-156868897D01*
X190967457Y-156903294D01*
X190990078Y-156930377D01*
X191024789Y-156955042D01*
X191075295Y-156982182D01*
X191121807Y-157005163D01*
X191270210Y-157071213D01*
X191441568Y-157135455D01*
X191634304Y-157197590D01*
X191846842Y-157257319D01*
X192077605Y-157314342D01*
X192325018Y-157368360D01*
X192587505Y-157419074D01*
X192863490Y-157466183D01*
X193151395Y-157509388D01*
X193449646Y-157548391D01*
X193756665Y-157582891D01*
X194070878Y-157612590D01*
X194390707Y-157637187D01*
X194479246Y-157643005D01*
X194553545Y-157646498D01*
X194647626Y-157649011D01*
X194757749Y-157650591D01*
X194880174Y-157651282D01*
X195011161Y-157651129D01*
X195146970Y-157650178D01*
X195283861Y-157648473D01*
X195418095Y-157646060D01*
X195545932Y-157642984D01*
X195663630Y-157639289D01*
X195767452Y-157635023D01*
X195853656Y-157630228D01*
X195910837Y-157625718D01*
X196422559Y-157567048D01*
X196924919Y-157490348D01*
X197422864Y-157394658D01*
X197921339Y-157279015D01*
X198425291Y-157142459D01*
X198483075Y-157125590D01*
X198660178Y-157071888D01*
X198836634Y-157015271D01*
X199010076Y-156956666D01*
X199178135Y-156896996D01*
X199338444Y-156837186D01*
X199488634Y-156778163D01*
X199626337Y-156720850D01*
X199749187Y-156666173D01*
X199854814Y-156615057D01*
X199940851Y-156568427D01*
X199992708Y-156535854D01*
X200044573Y-156486948D01*
X200091025Y-156414997D01*
X200132323Y-156319565D01*
X200148293Y-156272059D01*
X200179467Y-156149205D01*
X200203027Y-156006759D01*
X200218995Y-155848493D01*
X200227391Y-155678177D01*
X200228236Y-155499580D01*
X200221552Y-155316473D01*
X200207359Y-155132626D01*
X200185677Y-154951808D01*
X200156529Y-154777791D01*
X200139547Y-154696237D01*
X200113045Y-154577407D01*
X200045661Y-154580179D01*
X199948331Y-154591213D01*
X199842727Y-154617077D01*
X199726925Y-154658498D01*
X199599002Y-154716201D01*
X199457034Y-154790912D01*
X199397732Y-154824650D01*
X199382779Y-154833475D01*
X199371678Y-154842473D01*
X199364279Y-154854865D01*
X199360429Y-154873871D01*
X199359976Y-154902711D01*
X199362771Y-154944606D01*
X199368660Y-155002776D01*
X199377492Y-155080442D01*
X199383330Y-155130739D01*
X199392346Y-155219123D01*
X199400131Y-155315551D01*
X199406059Y-155410727D01*
X199409507Y-155495356D01*
X199410100Y-155529754D01*
X199410139Y-155602857D01*
X199408814Y-155656483D01*
X199405609Y-155695718D01*
X199400008Y-155725646D01*
X199391497Y-155751353D01*
X199386431Y-155763232D01*
X199347050Y-155833141D01*
X199296226Y-155889252D01*
X199230084Y-155934677D01*
X199144751Y-155972531D01*
X199111950Y-155983817D01*
X199006998Y-156015379D01*
X198919994Y-156035375D01*
X198847344Y-156044067D01*
X198785453Y-156041720D01*
X198730727Y-156028596D01*
X198696827Y-156014177D01*
X198650181Y-155986831D01*
X198610943Y-155953641D01*
X198578211Y-155912160D01*
X198551084Y-155859940D01*
X198528660Y-155794534D01*
X198510038Y-155713494D01*
X198494317Y-155614373D01*
X198480595Y-155494723D01*
X198472299Y-155404522D01*
X198466222Y-155339609D01*
X198459921Y-155282906D01*
X198454001Y-155239180D01*
X198449067Y-155213201D01*
X198447444Y-155208742D01*
X198429954Y-155202729D01*
X198393285Y-155206391D01*
X198340375Y-155218692D01*
X198274166Y-155238596D01*
X198197597Y-155265066D01*
X198113608Y-155297066D01*
X198025138Y-155333559D01*
X197935127Y-155373510D01*
X197846516Y-155415882D01*
X197815579Y-155431501D01*
X197655782Y-155513417D01*
X197658505Y-155573811D01*
X197659592Y-155606051D01*
X197660894Y-155657444D01*
X197662292Y-155722568D01*
X197663669Y-155796002D01*
X197664649Y-155855395D01*
X197665699Y-155935224D01*
X197665755Y-155995047D01*
X197664412Y-156039430D01*
X197661265Y-156072938D01*
X197655908Y-156100133D01*
X197647938Y-156125582D01*
X197638531Y-156149934D01*
X197595149Y-156228324D01*
X197534221Y-156297342D01*
X197461515Y-156351257D01*
X197411993Y-156374991D01*
X197321563Y-156398848D01*
X197236966Y-156400365D01*
X197160206Y-156379994D01*
X197093285Y-156338190D01*
X197050896Y-156293225D01*
X197023766Y-156251674D01*
X197001919Y-156203138D01*
X196984079Y-156143281D01*
X196968969Y-156067769D01*
X196955313Y-155972268D01*
X196954534Y-155965990D01*
X196946688Y-155902444D01*
X196939231Y-155842351D01*
X196933071Y-155793001D01*
X196929467Y-155764438D01*
X196922560Y-155710347D01*
X196674754Y-155717810D01*
X196587790Y-155721196D01*
X196498658Y-155726011D01*
X196414231Y-155731789D01*
X196341379Y-155738066D01*
X196291776Y-155743705D01*
X196219329Y-155755189D01*
X196139341Y-155770498D01*
X196058656Y-155788083D01*
X195984115Y-155806392D01*
X195922561Y-155823876D01*
X195892405Y-155834198D01*
X195861684Y-155845974D01*
X195861374Y-156170181D01*
X195861021Y-156277606D01*
X195859821Y-156363760D01*
X195857219Y-156431948D01*
X195852662Y-156485473D01*
X195845595Y-156527642D01*
X195835464Y-156561757D01*
X195821716Y-156591123D01*
X195803796Y-156619045D01*
X195781150Y-156648826D01*
X195781102Y-156648886D01*
X195730648Y-156696258D01*
X195664183Y-156735574D01*
X195589892Y-156763082D01*
X195515961Y-156775031D01*
X195505322Y-156775250D01*
X195418126Y-156766311D01*
X195337156Y-156741205D01*
X195269894Y-156702332D01*
X195264441Y-156697971D01*
X195222587Y-156652370D01*
X195183140Y-156589208D01*
X195149739Y-156515466D01*
X195126026Y-156438129D01*
X195123866Y-156428279D01*
X195117366Y-156392803D01*
X195108994Y-156340885D01*
X195099450Y-156277597D01*
X195089434Y-156208010D01*
X195079648Y-156137196D01*
X195070790Y-156070225D01*
X195063563Y-156012170D01*
X195058666Y-155968100D01*
X195056799Y-155943089D01*
X195056798Y-155942666D01*
X195045195Y-155932993D01*
X195012834Y-155921400D01*
X194963389Y-155908649D01*
X194900532Y-155895498D01*
X194827936Y-155882707D01*
X194749275Y-155871034D01*
X194668220Y-155861238D01*
X194657426Y-155860115D01*
X194586704Y-155855121D01*
X194506257Y-155853001D01*
X194423068Y-155853604D01*
X194344119Y-155856779D01*
X194276391Y-155862374D01*
X194230817Y-155869351D01*
X194197435Y-155876535D01*
X194198037Y-156118947D01*
X194197621Y-156219118D01*
X194195460Y-156298458D01*
X194191012Y-156360682D01*
X194183739Y-156409507D01*
X194173099Y-156448649D01*
X194158554Y-156481822D01*
X194141156Y-156510417D01*
X194106093Y-156550312D01*
X194055517Y-156593134D01*
X193996909Y-156633133D01*
X193944703Y-156661397D01*
X193875403Y-156680951D01*
X193799622Y-156680851D01*
X193723710Y-156662405D01*
X193654012Y-156626920D01*
X193612624Y-156592948D01*
X193576298Y-156550762D01*
X193545359Y-156500887D01*
X193518948Y-156440523D01*
X193496204Y-156366867D01*
X193476266Y-156277120D01*
X193458273Y-156168480D01*
X193441365Y-156038145D01*
X193440885Y-156034040D01*
X193432623Y-155971235D01*
X193423872Y-155918416D01*
X193415509Y-155880120D01*
X193408407Y-155860881D01*
X193407253Y-155859742D01*
X193379078Y-155850253D01*
X193332078Y-155843075D01*
X193270773Y-155838148D01*
X193199681Y-155835410D01*
X193123320Y-155834801D01*
X193046209Y-155836260D01*
X192972867Y-155839725D01*
X192907813Y-155845137D01*
X192855565Y-155852435D01*
X192820641Y-155861557D01*
X192809977Y-155867785D01*
X192807248Y-155882424D01*
X192805169Y-155917484D01*
X192803764Y-155968815D01*
X192803058Y-156032270D01*
X192803074Y-156103699D01*
X192803837Y-156178954D01*
X192805371Y-156253886D01*
X192807375Y-156316207D01*
X192808858Y-156392394D01*
X192805404Y-156450233D01*
X192795334Y-156495734D01*
X192776970Y-156534908D01*
X192748634Y-156573767D01*
X192729248Y-156596013D01*
X192664669Y-156649738D01*
X192586479Y-156684458D01*
X192496590Y-156700222D01*
X192396911Y-156697081D01*
X192289351Y-156675086D01*
X192175821Y-156634288D01*
X192064587Y-156578394D01*
X191892340Y-156467015D01*
X191735691Y-156338458D01*
X191594479Y-156192408D01*
X191468542Y-156028550D01*
X191357718Y-155846569D01*
X191261846Y-155646151D01*
X191180764Y-155426981D01*
X191114312Y-155188743D01*
X191062326Y-154931123D01*
X191024646Y-154653807D01*
X191012788Y-154528254D01*
X191007023Y-154433713D01*
X191003507Y-154320367D01*
X191002114Y-154192572D01*
X191002717Y-154054686D01*
X191005192Y-153911067D01*
X191009412Y-153766070D01*
X191015253Y-153624052D01*
X191022588Y-153489372D01*
X191031292Y-153366386D01*
X191041239Y-153259451D01*
X191051751Y-153176536D01*
X191086704Y-153024980D01*
X191145924Y-152870841D01*
X191229273Y-152714449D01*
X191273352Y-152645311D01*
X191315289Y-152589358D01*
X191372434Y-152522685D01*
X191440504Y-152449539D01*
X191515214Y-152374169D01*
X191592279Y-152300824D01*
X191667416Y-152233750D01*
X191736340Y-152177196D01*
X191772519Y-152150369D01*
X191916768Y-152054397D01*
X192047775Y-151978774D01*
X192165904Y-151923382D01*
X192271519Y-151888104D01*
X192364985Y-151872823D01*
X192446665Y-151877420D01*
X192516923Y-151901778D01*
X192526262Y-151906988D01*
X192590277Y-151958594D01*
X192638536Y-152027891D01*
X192666963Y-152103210D01*
X192672916Y-152133063D01*
X192680950Y-152183328D01*
X192690509Y-152249983D01*
X192701036Y-152329004D01*
X192711977Y-152416370D01*
X192721930Y-152500678D01*
X192734313Y-152606032D01*
X192744848Y-152689128D01*
X192753900Y-152752185D01*
X192761837Y-152797420D01*
X192769025Y-152827054D01*
X192775829Y-152843303D01*
X192779099Y-152847026D01*
X192801260Y-152858245D01*
X192841730Y-152873787D01*
X192894990Y-152891947D01*
X192955524Y-152911018D01*
X193017813Y-152929295D01*
X193076340Y-152945070D01*
X193125589Y-152956638D01*
X193145961Y-152960467D01*
X193212887Y-152968921D01*
X193285960Y-152974392D01*
X193353165Y-152976123D01*
X193381640Y-152975304D01*
X193396697Y-152970451D01*
X193408879Y-152956457D01*
X193418377Y-152931341D01*
X193425380Y-152893119D01*
X193430081Y-152839812D01*
X193432669Y-152769435D01*
X193433337Y-152680009D01*
X193432274Y-152569551D01*
X193430401Y-152469112D01*
X193422634Y-152105760D01*
X193454293Y-152042229D01*
X193504053Y-151967725D01*
X193569997Y-151907012D01*
X193647439Y-151862826D01*
X193731698Y-151837910D01*
X193809892Y-151834254D01*
X193898085Y-151852086D01*
X193974034Y-151891099D01*
X194038007Y-151951482D01*
X194090267Y-152033424D01*
X194090611Y-152034111D01*
X194106021Y-152068710D01*
X194118481Y-152106433D01*
X194128291Y-152150230D01*
X194135753Y-152203053D01*
X194141169Y-152267853D01*
X194144838Y-152347581D01*
X194147063Y-152445186D01*
X194148145Y-152563622D01*
X194148278Y-152598984D01*
X194148837Y-152691527D01*
X194149905Y-152778624D01*
X194151394Y-152856479D01*
X194153215Y-152921298D01*
X194155279Y-152969282D01*
X194157498Y-152996637D01*
X194157587Y-152997243D01*
X194165893Y-153051428D01*
X194250549Y-153079959D01*
X194331479Y-153104342D01*
X194409269Y-153120854D01*
X194491993Y-153130673D01*
X194587726Y-153134975D01*
X194630851Y-153135413D01*
X194677801Y-153135215D01*
X194720414Y-153134021D01*
X194762664Y-153131357D01*
X194808525Y-153126743D01*
X194861970Y-153119704D01*
X194926972Y-153109763D01*
X195007505Y-153096442D01*
X195107542Y-153079265D01*
X195127456Y-153075809D01*
X195155114Y-153067953D01*
X195165850Y-153051820D01*
X195167393Y-153028771D01*
X195165743Y-152988877D01*
X195160986Y-152927502D01*
X195153410Y-152847504D01*
X195143301Y-152751742D01*
X195130948Y-152643076D01*
X195116748Y-152525254D01*
X195105155Y-152421485D01*
X195098945Y-152337507D01*
X195098277Y-152269096D01*
X195103306Y-152212030D01*
X195114190Y-152162084D01*
X195131085Y-152115037D01*
X195132057Y-152112763D01*
X195164423Y-152058012D01*
X195210705Y-152005489D01*
X195264042Y-151961551D01*
X195317574Y-151932557D01*
X195331358Y-151928065D01*
X195411399Y-151917403D01*
X195493951Y-151925654D01*
X195572274Y-151951027D01*
X195639626Y-151991732D01*
X195667005Y-152017191D01*
X195685413Y-152038347D01*
X195701208Y-152060162D01*
X195714929Y-152085040D01*
X195727114Y-152115383D01*
X195738305Y-152153595D01*
X195749040Y-152202078D01*
X195759860Y-152263236D01*
X195771303Y-152339471D01*
X195783909Y-152433187D01*
X195798219Y-152546786D01*
X195812825Y-152666570D01*
X195822585Y-152746022D01*
X195831776Y-152818517D01*
X195839865Y-152880038D01*
X195846322Y-152926565D01*
X195850612Y-152954082D01*
X195851489Y-152958418D01*
X195855614Y-152970447D01*
X195863984Y-152978359D01*
X195881059Y-152983014D01*
X195911302Y-152985269D01*
X195959176Y-152985981D01*
X195995116Y-152986025D01*
X196173588Y-152980947D01*
X196353707Y-152966373D01*
X196529547Y-152943134D01*
X196695182Y-152912062D01*
X196844685Y-152873985D01*
X196885874Y-152861200D01*
X196963862Y-152835814D01*
X196955858Y-152778841D01*
X196934946Y-152635554D01*
X196914367Y-152505366D01*
X196894585Y-152390916D01*
X196876063Y-152294842D01*
X196859265Y-152219786D01*
X196854526Y-152201373D01*
X196833300Y-152115857D01*
X196820886Y-152048298D01*
X196816892Y-151993866D01*
X196820922Y-151947730D01*
X196830752Y-151910278D01*
X196868488Y-151833855D01*
X196922686Y-151770896D01*
X196989390Y-151722702D01*
X197064646Y-151690572D01*
X197144499Y-151675807D01*
X197224993Y-151679707D01*
X197302173Y-151703573D01*
X197357734Y-151737040D01*
X197388896Y-151762009D01*
X197415141Y-151786934D01*
X197437296Y-151814400D01*
X197456185Y-151846991D01*
X197472634Y-151887291D01*
X197487468Y-151937886D01*
X197501513Y-152001360D01*
X197515594Y-152080298D01*
X197530537Y-152177284D01*
X197547167Y-152294903D01*
X197555605Y-152356606D01*
X197567096Y-152439322D01*
X197577917Y-152513786D01*
X197587535Y-152576587D01*
X197595414Y-152624313D01*
X197601019Y-152653552D01*
X197603355Y-152661249D01*
X197617806Y-152662478D01*
X197651073Y-152660021D01*
X197697759Y-152654391D01*
X197737693Y-152648495D01*
X197963547Y-152602894D01*
X198173938Y-152539769D01*
X198371422Y-152458306D01*
X198435323Y-152426679D01*
X198542536Y-152371306D01*
X198537968Y-152300820D01*
X198529934Y-152203074D01*
X198518788Y-152104751D01*
X198505360Y-152011238D01*
X198490482Y-151927922D01*
X198474987Y-151860193D01*
X198464727Y-151826370D01*
X198438499Y-151744220D01*
X198424119Y-151677423D01*
X198420699Y-151620310D01*
X198425590Y-151575989D01*
X198452539Y-151494121D01*
X198498518Y-151423063D01*
X198559715Y-151365086D01*
X198632318Y-151322461D01*
X198712515Y-151297458D01*
X198796493Y-151292348D01*
X198875794Y-151307819D01*
X198954721Y-151346579D01*
X199021872Y-151406587D01*
X199077345Y-151487979D01*
X199121236Y-151590891D01*
X199149009Y-151693071D01*
X199157266Y-151740598D01*
X199165964Y-151806916D01*
X199174577Y-151886258D01*
X199182577Y-151972856D01*
X199189435Y-152060943D01*
X199194624Y-152144753D01*
X199197616Y-152218518D01*
X199197795Y-152226093D01*
X199209056Y-152230556D01*
X199239831Y-152228546D01*
X199286115Y-152220735D01*
X199343908Y-152207792D01*
X199406870Y-152191057D01*
X199505646Y-152156253D01*
X199610161Y-152108021D01*
X199710071Y-152051514D01*
X199774092Y-152008049D01*
X199838761Y-151959991D01*
X199831079Y-151861684D01*
X199826199Y-151801955D01*
X199820609Y-151739304D01*
X199813994Y-151670741D01*
X199806036Y-151593277D01*
X199796421Y-151503922D01*
X199784831Y-151399687D01*
X199770950Y-151277583D01*
X199754463Y-151134620D01*
X199751137Y-151105951D01*
X199728741Y-150911189D01*
X199709645Y-150739061D01*
X199694011Y-150587827D01*
X199682001Y-150455744D01*
X199673775Y-150341073D01*
X199669496Y-150242072D01*
X199669324Y-150156999D01*
X199673422Y-150084115D01*
X199681951Y-150021677D01*
X199695071Y-149967945D01*
X199712945Y-149921178D01*
X199735735Y-149879634D01*
X199763601Y-149841573D01*
X199796705Y-149805253D01*
X199835208Y-149768934D01*
X199878610Y-149731432D01*
X200042284Y-149582174D01*
X200185414Y-149426768D01*
X200309626Y-149262552D01*
X200416545Y-149086861D01*
X200507796Y-148897033D01*
X200585004Y-148690406D01*
X200648344Y-148470102D01*
X200691052Y-148277929D01*
X200724235Y-148077621D01*
X200748255Y-147865698D01*
X200763480Y-147638682D01*
X200770272Y-147393095D01*
X200770725Y-147302710D01*
X200768789Y-147108346D01*
X200762842Y-146933552D01*
X200752472Y-146773588D01*
X200737267Y-146623710D01*
X200716814Y-146479177D01*
X200690703Y-146335249D01*
X200683744Y-146301210D01*
X200610949Y-146011937D01*
X200514890Y-145729803D01*
X200395983Y-145455363D01*
X200254643Y-145189173D01*
X200091287Y-144931789D01*
X199906328Y-144683768D01*
X199700183Y-144445666D01*
X199473268Y-144218039D01*
X199225997Y-144001444D01*
X198958786Y-143796435D01*
X198672051Y-143603571D01*
X198665687Y-143599569D01*
X198340542Y-143409043D01*
X197997062Y-143234060D01*
X197636190Y-143074920D01*
X197258871Y-142931923D01*
X196866046Y-142805370D01*
X196458661Y-142695559D01*
X196037657Y-142602792D01*
X195603979Y-142527367D01*
X195158569Y-142469585D01*
X195087518Y-142462123D01*
X194960971Y-142449730D01*
X194844651Y-142439501D01*
X194734213Y-142431246D01*
X194625309Y-142424776D01*
X194513592Y-142419900D01*
X194394714Y-142416430D01*
X194264329Y-142414176D01*
X194118090Y-142412948D01*
X193951649Y-142412557D01*
X193950847Y-142412557D01*
X193776124Y-142412948D01*
X193621079Y-142414325D01*
X193480826Y-142416887D01*
X193350477Y-142420834D01*
X193225148Y-142426368D01*
X193099952Y-142433688D01*
X192970002Y-142442995D01*
X192830412Y-142454489D01*
X192746590Y-142461921D01*
X192307324Y-142510032D01*
X191879925Y-142573651D01*
X191465513Y-142652463D01*
X191065211Y-142746150D01*
X190680138Y-142854397D01*
X190311416Y-142976887D01*
X189960167Y-143113305D01*
X189627512Y-143263335D01*
X189314571Y-143426659D01*
X189303385Y-143432953D01*
X189225594Y-143478817D01*
X189134094Y-143535973D01*
X189034569Y-143600615D01*
X188932703Y-143668938D01*
X188834181Y-143737138D01*
X188744688Y-143801411D01*
X188679185Y-143850716D01*
X188611380Y-143906251D01*
X188532442Y-143975762D01*
X188446369Y-144055307D01*
X188357161Y-144140944D01*
X188268817Y-144228733D01*
X188185337Y-144314732D01*
X188110720Y-144394998D01*
X188048965Y-144465591D01*
X188023285Y-144497141D01*
X187850225Y-144736525D01*
X187699602Y-144985938D01*
X187571435Y-145245338D01*
X187465741Y-145514681D01*
X187382539Y-145793925D01*
X187321848Y-146083028D01*
X187314416Y-146128983D01*
X187289910Y-146328464D01*
X187274955Y-146546489D01*
X187269369Y-146779035D01*
X186727518Y-146779035D01*
X186727544Y-146774286D01*
X186729341Y-146649962D01*
X186732205Y-146529166D01*
X186736073Y-146415898D01*
X186740884Y-146314158D01*
X186746575Y-146227943D01*
X186753082Y-146161256D01*
X186754901Y-146147606D01*
X186801246Y-145874038D01*
X186859642Y-145618073D01*
X186931513Y-145375150D01*
X187018281Y-145140714D01*
X187121370Y-144910204D01*
X187173594Y-144806290D01*
X187326147Y-144537435D01*
X187497579Y-144282400D01*
X187688679Y-144040255D01*
X187900236Y-143810069D01*
X188133039Y-143590914D01*
X188372984Y-143393335D01*
X188658496Y-143187253D01*
X188963858Y-142995171D01*
X189288592Y-142817277D01*
X189632219Y-142653760D01*
X189994261Y-142504807D01*
X190374240Y-142370607D01*
X190771676Y-142251348D01*
X191186092Y-142147219D01*
X191617008Y-142058407D01*
X191880262Y-142013034D01*
X192314117Y-141951899D01*
X192758415Y-141905468D01*
X193208910Y-141873829D01*
X193661359Y-141857071D01*
X194111516Y-141855282D01*
X194555138Y-141868550D01*
G37*
G36*
X195778316Y-149111216D02*
G01*
X195876523Y-149137742D01*
X195965534Y-149182736D01*
X196037104Y-149241419D01*
X196054313Y-149261479D01*
X196084235Y-149298946D01*
X196125334Y-149351760D01*
X196176075Y-149417860D01*
X196234925Y-149495184D01*
X196300348Y-149581674D01*
X196370810Y-149675269D01*
X196444776Y-149773907D01*
X196520712Y-149875529D01*
X196597082Y-149978074D01*
X196672353Y-150079481D01*
X196744989Y-150177691D01*
X196813456Y-150270642D01*
X196876219Y-150356275D01*
X196931744Y-150432528D01*
X196978496Y-150497342D01*
X197014940Y-150548655D01*
X197039541Y-150584407D01*
X197050569Y-150602129D01*
X197071194Y-150663261D01*
X197082065Y-150737480D01*
X197082677Y-150815104D01*
X197072525Y-150886451D01*
X197066496Y-150907669D01*
X197029154Y-150986259D01*
X196974469Y-151055978D01*
X196906270Y-151115175D01*
X196828384Y-151162201D01*
X196744640Y-151195405D01*
X196658866Y-151213138D01*
X196574889Y-151213749D01*
X196496538Y-151195589D01*
X196450686Y-151173089D01*
X196416642Y-151149026D01*
X196382633Y-151117998D01*
X196346288Y-151077106D01*
X196305241Y-151023451D01*
X196257120Y-150954134D01*
X196199559Y-150866257D01*
X196198145Y-150864056D01*
X196145780Y-150786414D01*
X196100248Y-150728541D01*
X196058477Y-150687713D01*
X196017396Y-150661206D01*
X195973935Y-150646297D01*
X195947837Y-150642046D01*
X195883406Y-150644422D01*
X195821674Y-150663709D01*
X195770725Y-150696812D01*
X195752328Y-150716893D01*
X195730194Y-150748586D01*
X195711450Y-150781393D01*
X195694346Y-150819791D01*
X195677132Y-150868259D01*
X195658058Y-150931276D01*
X195635373Y-151013320D01*
X195632881Y-151022586D01*
X195605015Y-151121797D01*
X195579679Y-151200398D01*
X195555097Y-151261974D01*
X195529495Y-151310113D01*
X195501096Y-151348400D01*
X195468125Y-151380422D01*
X195447840Y-151396339D01*
X195395224Y-151424632D01*
X195325677Y-151447096D01*
X195246409Y-151462503D01*
X195164630Y-151469629D01*
X195087549Y-151467247D01*
X195056798Y-151462836D01*
X194946175Y-151431498D01*
X194850016Y-151382055D01*
X194793707Y-151338304D01*
X194739646Y-151277844D01*
X194705069Y-151211545D01*
X194689457Y-151136619D01*
X194692289Y-151050279D01*
X194713045Y-150949736D01*
X194717973Y-150932217D01*
X194732474Y-150883895D01*
X194752990Y-150817889D01*
X194778709Y-150736659D01*
X194808820Y-150642663D01*
X194842509Y-150538362D01*
X194878964Y-150426214D01*
X194917374Y-150308680D01*
X194956925Y-150188218D01*
X194996805Y-150067289D01*
X195036203Y-149948351D01*
X195074305Y-149833865D01*
X195110299Y-149726290D01*
X195143373Y-149628085D01*
X195172715Y-149541710D01*
X195197512Y-149469625D01*
X195216952Y-149414288D01*
X195230223Y-149378159D01*
X195235403Y-149365621D01*
X195280149Y-149296972D01*
X195343498Y-149232399D01*
X195419515Y-149177319D01*
X195472106Y-149149537D01*
X195571750Y-149116405D01*
X195675273Y-149103867D01*
X195778316Y-149111216D01*
G37*
G36*
X191582933Y-145116899D02*
G01*
X191681996Y-145119098D01*
X191771497Y-145123044D01*
X191845755Y-145128738D01*
X191874117Y-145132064D01*
X192122327Y-145177113D01*
X192361451Y-145242650D01*
X192590221Y-145327737D01*
X192807367Y-145431434D01*
X193011618Y-145552802D01*
X193201707Y-145690902D01*
X193376362Y-145844794D01*
X193534315Y-146013540D01*
X193674295Y-146196200D01*
X193795033Y-146391835D01*
X193895260Y-146599506D01*
X193911441Y-146639139D01*
X193983368Y-146852327D01*
X194031438Y-147067662D01*
X194056120Y-147283786D01*
X194057883Y-147499343D01*
X194037196Y-147712977D01*
X193994528Y-147923330D01*
X193930347Y-148129048D01*
X193845122Y-148328772D01*
X193739323Y-148521146D01*
X193613418Y-148704814D01*
X193467876Y-148878420D01*
X193303165Y-149040606D01*
X193119756Y-149190016D01*
X193001116Y-149272843D01*
X192786337Y-149399549D01*
X192559983Y-149504991D01*
X192323379Y-149588827D01*
X192077847Y-149650712D01*
X191824711Y-149690305D01*
X191565294Y-149707262D01*
X191339575Y-149703554D01*
X191105421Y-149680080D01*
X190873188Y-149635542D01*
X190645321Y-149571111D01*
X190424266Y-149487961D01*
X190212469Y-149387262D01*
X190012376Y-149270187D01*
X189826432Y-149137908D01*
X189657084Y-148991598D01*
X189506777Y-148832428D01*
X189496602Y-148820320D01*
X189349794Y-148626733D01*
X189226130Y-148426397D01*
X189125788Y-148220033D01*
X189048943Y-148008360D01*
X188995772Y-147792096D01*
X188966450Y-147571962D01*
X188961154Y-147348676D01*
X188980059Y-147122958D01*
X189023342Y-146895528D01*
X189024437Y-146891050D01*
X189059879Y-146771051D01*
X189108797Y-146640533D01*
X189167813Y-146506864D01*
X189233548Y-146377411D01*
X189302623Y-146259542D01*
X189339372Y-146204372D01*
X189491644Y-146008203D01*
X189660456Y-145829978D01*
X189845138Y-145670095D01*
X190045020Y-145528952D01*
X190259433Y-145406948D01*
X190487708Y-145304479D01*
X190729175Y-145221944D01*
X190983164Y-145159742D01*
X191142961Y-145132099D01*
X191204644Y-145125567D01*
X191285163Y-145120781D01*
X191378837Y-145117741D01*
X191479987Y-145116446D01*
X191582933Y-145116899D01*
G37*
G36*
X197916903Y-144344291D02*
G01*
X198021235Y-144349338D01*
X198111665Y-144357391D01*
X198159528Y-144364164D01*
X198401876Y-144417496D01*
X198633564Y-144492100D01*
X198853527Y-144587201D01*
X199060696Y-144702020D01*
X199254006Y-144835783D01*
X199432390Y-144987711D01*
X199594780Y-145157029D01*
X199740111Y-145342959D01*
X199867314Y-145544726D01*
X199921546Y-145646824D01*
X200017588Y-145865481D01*
X200090203Y-146090370D01*
X200139228Y-146319978D01*
X200164500Y-146552792D01*
X200165853Y-146787298D01*
X200143126Y-147021984D01*
X200096154Y-147255335D01*
X200095726Y-147257012D01*
X200026686Y-147478371D01*
X199935756Y-147690512D01*
X199824343Y-147892039D01*
X199693855Y-148081557D01*
X199545700Y-148257671D01*
X199381286Y-148418985D01*
X199202021Y-148564102D01*
X199009313Y-148691628D01*
X198804570Y-148800168D01*
X198589199Y-148888324D01*
X198389187Y-148948644D01*
X198222046Y-148983884D01*
X198044858Y-149008698D01*
X197865819Y-149022399D01*
X197693127Y-149024300D01*
X197569763Y-149017303D01*
X197331573Y-148983605D01*
X197101157Y-148927503D01*
X196879788Y-148850063D01*
X196668740Y-148752348D01*
X196469287Y-148635423D01*
X196282702Y-148500353D01*
X196110260Y-148348202D01*
X195953234Y-148180036D01*
X195812897Y-147996917D01*
X195690524Y-147799912D01*
X195587387Y-147590085D01*
X195504762Y-147368499D01*
X195474933Y-147266433D01*
X195428084Y-147044941D01*
X195404257Y-146818543D01*
X195403068Y-146589831D01*
X195424133Y-146361395D01*
X195467068Y-146135829D01*
X195531491Y-145915724D01*
X195617018Y-145703672D01*
X195723265Y-145502265D01*
X195740094Y-145474542D01*
X195877604Y-145274717D01*
X196032357Y-145092034D01*
X196203368Y-144927147D01*
X196389654Y-144780708D01*
X196590231Y-144653373D01*
X196804117Y-144545796D01*
X197030327Y-144458629D01*
X197267878Y-144392528D01*
X197410090Y-144364164D01*
X197488199Y-144354175D01*
X197584317Y-144347193D01*
X197692062Y-144343219D01*
X197805051Y-144342251D01*
X197916903Y-144344291D01*
G37*
D13*
%TO.C,D9*%
X183227458Y-99622774D02*
X183562551Y-98984251D01*
X183520739Y-98586441D02*
X183562551Y-98984251D01*
X183562551Y-98984251D02*
X183015563Y-99041740D01*
X183562551Y-98984251D02*
X184023076Y-99539151D01*
X183562551Y-98984251D02*
X184109537Y-98926759D01*
X183625267Y-99580962D02*
X183677531Y-100078223D01*
X184023076Y-99539151D02*
X183227458Y-99622774D01*
D14*
%TO.C,MCU1*%
X255014534Y-94138825D02*
X255014534Y-124738829D01*
X255014534Y-94138825D02*
X257674534Y-94138829D01*
X255014534Y-124738829D02*
X257674534Y-124738829D01*
X257674534Y-94138829D02*
X257674534Y-124738829D01*
X270254534Y-94138829D02*
X270254534Y-124738829D01*
X270254534Y-94138829D02*
X272914534Y-94138825D01*
X270254534Y-96738830D02*
X272914534Y-96738828D01*
X270254534Y-124738829D02*
X272914534Y-124738829D01*
X272914534Y-94138825D02*
X272914534Y-124738829D01*
D13*
%TO.C,D2*%
X149860655Y-133319434D02*
X150127167Y-132649380D01*
X150044002Y-132258119D02*
X150127167Y-132649380D01*
X150127167Y-132649380D02*
X149589186Y-132763732D01*
X150127167Y-132649380D02*
X150643173Y-133153104D01*
X150127167Y-132649380D02*
X150665148Y-132535029D01*
X150251913Y-133236269D02*
X150355870Y-133725345D01*
X150643173Y-133153104D02*
X149860655Y-133319434D01*
%TO.C,D17*%
X240464535Y-116418832D02*
X240864536Y-115818832D01*
X240864535Y-115418832D02*
X240864536Y-115818832D01*
X240864535Y-116418833D02*
X240864535Y-116918832D01*
X240864536Y-115818832D02*
X240314536Y-115818833D01*
X240864536Y-115818832D02*
X241264535Y-116418832D01*
X240864536Y-115818832D02*
X241414531Y-115818833D01*
X241264535Y-116418832D02*
X240464535Y-116418832D01*
%TO.C,D14*%
X222464533Y-114418833D02*
X222864534Y-113818833D01*
X222864533Y-113418833D02*
X222864534Y-113818833D01*
X222864533Y-114418834D02*
X222864533Y-114918833D01*
X222864534Y-113818833D02*
X222314534Y-113818834D01*
X222864534Y-113818833D02*
X223264533Y-114418833D01*
X222864534Y-113818833D02*
X223414529Y-113818834D01*
X223264533Y-114418833D02*
X222464533Y-114418833D01*
%TO.C,D12*%
X202267665Y-91026223D02*
X202635715Y-90406113D01*
X202614781Y-90006659D02*
X202635715Y-90406113D01*
X202635715Y-90406113D02*
X202086469Y-90434894D01*
X202635715Y-90406113D02*
X203066569Y-90984353D01*
X202635715Y-90406113D02*
X203184962Y-90377325D01*
X202667116Y-91005287D02*
X202693285Y-91504601D01*
X203066569Y-90984353D02*
X202267665Y-91026223D01*
%TO.C,D20*%
X242544869Y-157577215D02*
X242995642Y-157014361D01*
X242943347Y-157612079D02*
X242899769Y-158110175D01*
X242995642Y-157014361D02*
X242447734Y-156966426D01*
X242995642Y-157014361D02*
X243341825Y-157646940D01*
X242995642Y-157014361D02*
X243543544Y-157062297D01*
X243030503Y-156615883D02*
X242995642Y-157014361D01*
X243341825Y-157646940D02*
X242544869Y-157577215D01*
%TO.C,D3*%
X146326152Y-116690937D02*
X146592664Y-116020883D01*
X146509499Y-115629622D02*
X146592664Y-116020883D01*
X146592664Y-116020883D02*
X146054683Y-116135235D01*
X146592664Y-116020883D02*
X147108670Y-116524607D01*
X146592664Y-116020883D02*
X147130645Y-115906532D01*
X146717410Y-116607772D02*
X146821367Y-117096848D01*
X147108670Y-116524607D02*
X146326152Y-116690937D01*
%TO.C,D11*%
X203157468Y-108002924D02*
X203525518Y-107382814D01*
X203504584Y-106983360D02*
X203525518Y-107382814D01*
X203525518Y-107382814D02*
X202976272Y-107411595D01*
X203525518Y-107382814D02*
X203956372Y-107961054D01*
X203525518Y-107382814D02*
X204074765Y-107354026D01*
X203556919Y-107981988D02*
X203583088Y-108481302D01*
X203956372Y-107961054D02*
X203157468Y-108002924D01*
%TO.C,D16*%
X240464534Y-133418834D02*
X240864535Y-132818834D01*
X240864534Y-132418834D02*
X240864535Y-132818834D01*
X240864534Y-133418835D02*
X240864534Y-133918834D01*
X240864535Y-132818834D02*
X240314535Y-132818835D01*
X240864535Y-132818834D02*
X241264534Y-133418834D01*
X240864535Y-132818834D02*
X241414530Y-132818835D01*
X241264534Y-133418834D02*
X240464534Y-133418834D01*
%TO.C,D18*%
X240464534Y-99418829D02*
X240864535Y-98818829D01*
X240864534Y-98418829D02*
X240864535Y-98818829D01*
X240864534Y-99418830D02*
X240864534Y-99918829D01*
X240864535Y-98818829D02*
X240314535Y-98818830D01*
X240864535Y-98818829D02*
X241264534Y-99418829D01*
X240864535Y-98818829D02*
X241414530Y-98818830D01*
X241264534Y-99418829D02*
X240464534Y-99418829D01*
%TO.C,D7*%
X186781358Y-133436469D02*
X187116451Y-132797946D01*
X187074639Y-132400136D02*
X187116451Y-132797946D01*
X187116451Y-132797946D02*
X186569463Y-132855435D01*
X187116451Y-132797946D02*
X187576976Y-133352846D01*
X187116451Y-132797946D02*
X187663437Y-132740454D01*
X187179167Y-133394657D02*
X187231431Y-133891918D01*
X187576976Y-133352846D02*
X186781358Y-133436469D01*
D14*
%TO.C,DISP1*%
X258824533Y-128038832D02*
X258824533Y-130698833D01*
X269104533Y-128038832D02*
X258824533Y-128038832D01*
X269104533Y-128038832D02*
X269104534Y-130698838D01*
X269104534Y-130698838D02*
X258824533Y-130698833D01*
D13*
%TO.C,D19*%
X219327046Y-156269945D02*
X219673229Y-155637366D01*
X219638368Y-155238888D02*
X219673229Y-155637366D01*
X219673229Y-155637366D02*
X219125327Y-155685302D01*
X219673229Y-155637366D02*
X220124002Y-156200220D01*
X219673229Y-155637366D02*
X220221136Y-155589431D01*
X219725525Y-156235084D02*
X219769102Y-156733180D01*
X220124002Y-156200220D02*
X219327046Y-156269945D01*
%TO.C,D1*%
X153395151Y-149947934D02*
X153661663Y-149277880D01*
X153578498Y-148886619D02*
X153661663Y-149277880D01*
X153661663Y-149277880D02*
X153123682Y-149392232D01*
X153661663Y-149277880D02*
X154177669Y-149781604D01*
X153661663Y-149277880D02*
X154199644Y-149163529D01*
X153786409Y-149864769D02*
X153890366Y-150353845D01*
X154177669Y-149781604D02*
X153395151Y-149947934D01*
%TO.C,D5*%
X167467356Y-129577030D02*
X167733868Y-128906976D01*
X167650703Y-128515715D02*
X167733868Y-128906976D01*
X167733868Y-128906976D02*
X167195887Y-129021328D01*
X167733868Y-128906976D02*
X168249874Y-129410700D01*
X167733868Y-128906976D02*
X168271849Y-128792625D01*
X167858614Y-129493865D02*
X167962571Y-129982941D01*
X168249874Y-129410700D02*
X167467356Y-129577030D01*
%TO.C,D13*%
X222464535Y-131418831D02*
X222864536Y-130818831D01*
X222864535Y-130418831D02*
X222864536Y-130818831D01*
X222864535Y-131418832D02*
X222864535Y-131918831D01*
X222864536Y-130818831D02*
X222314536Y-130818832D01*
X222864536Y-130818831D02*
X223264535Y-131418831D01*
X222864536Y-130818831D02*
X223414531Y-130818832D01*
X223264535Y-131418831D02*
X222464535Y-131418831D01*
%TO.C,D10*%
X204047166Y-124979624D02*
X204415216Y-124359514D01*
X204394282Y-123960060D02*
X204415216Y-124359514D01*
X204415216Y-124359514D02*
X203865970Y-124388295D01*
X204415216Y-124359514D02*
X204846070Y-124937754D01*
X204415216Y-124359514D02*
X204964463Y-124330726D01*
X204446617Y-124958688D02*
X204472786Y-125458002D01*
X204846070Y-124937754D02*
X204047166Y-124979624D01*
D11*
%TO.C,RST1*%
X270214536Y-130668831D02*
X270464536Y-130668831D01*
X270214536Y-136668830D02*
X270214536Y-130668831D01*
X270214536Y-136668830D02*
X270464536Y-136668829D01*
X273714536Y-130668830D02*
X273464536Y-130668831D01*
X273714536Y-136668829D02*
X273464536Y-136668829D01*
X273714536Y-136668829D02*
X273714536Y-130668830D01*
D13*
%TO.C,D8*%
X185004359Y-116529671D02*
X185339452Y-115891148D01*
X185297640Y-115493338D02*
X185339452Y-115891148D01*
X185339452Y-115891148D02*
X184792464Y-115948637D01*
X185339452Y-115891148D02*
X185799977Y-116446048D01*
X185339452Y-115891148D02*
X185886438Y-115833656D01*
X185402168Y-116487859D02*
X185454432Y-116985120D01*
X185799977Y-116446048D02*
X185004359Y-116529671D01*
%TO.C,D15*%
X222464533Y-97418829D02*
X222864534Y-96818829D01*
X222864533Y-96418829D02*
X222864534Y-96818829D01*
X222864533Y-97418830D02*
X222864533Y-97918829D01*
X222864534Y-96818829D02*
X222314534Y-96818830D01*
X222864534Y-96818829D02*
X223264533Y-97418829D01*
X222864534Y-96818829D02*
X223414529Y-96818830D01*
X223264533Y-97418829D02*
X222464533Y-97418829D01*
%TO.C,D4*%
X171001851Y-146205532D02*
X171268363Y-145535478D01*
X171185198Y-145144217D02*
X171268363Y-145535478D01*
X171268363Y-145535478D02*
X170730382Y-145649830D01*
X171268363Y-145535478D02*
X171784369Y-146039202D01*
X171268363Y-145535478D02*
X171806344Y-145421127D01*
X171393109Y-146122367D02*
X171497066Y-146611443D01*
X171784369Y-146039202D02*
X171001851Y-146205532D01*
%TO.C,D6*%
X163932852Y-112948435D02*
X164199364Y-112278381D01*
X164116199Y-111887120D02*
X164199364Y-112278381D01*
X164199364Y-112278381D02*
X163661383Y-112392733D01*
X164199364Y-112278381D02*
X164715370Y-112782105D01*
X164199364Y-112278381D02*
X164737345Y-112164030D01*
X164324110Y-112865270D02*
X164428067Y-113354346D01*
X164715370Y-112782105D02*
X163932852Y-112948435D01*
%TO.C,D21*%
X265483658Y-164297588D02*
X266049491Y-163850563D01*
X265864081Y-164421196D02*
X265709572Y-164896724D01*
X266049491Y-163850563D02*
X265526404Y-163680603D01*
X266049491Y-163850563D02*
X266244503Y-164544804D01*
X266049491Y-163850563D02*
X266572572Y-164020522D01*
X266173098Y-163470140D02*
X266049491Y-163850563D01*
X266244503Y-164544804D02*
X265483658Y-164297588D01*
D14*
%TO.C,LED21*%
X255308491Y-159046255D02*
X256830181Y-159540683D01*
X255802914Y-157524565D02*
X255308491Y-159046255D01*
%TO.C,LED17*%
X229164533Y-112968831D02*
X229164533Y-114568831D01*
X229164533Y-114568831D02*
X230764533Y-114568831D01*
D11*
%TO.C,SW3*%
X138166869Y-123996973D02*
X138551987Y-123403941D01*
X138551987Y-123403941D02*
X140801726Y-122925747D01*
X138894560Y-127420490D02*
X139487589Y-127805607D01*
X139487589Y-127805607D02*
X142422032Y-127181873D01*
X142007173Y-120420372D02*
X146408836Y-119484770D01*
X142152709Y-121105075D02*
X142007173Y-120420372D01*
X142422032Y-127181873D02*
X142807152Y-126588843D01*
X142615871Y-125688947D02*
X142807152Y-126588843D01*
X146408836Y-119484770D02*
X146512792Y-119973843D01*
X147261274Y-123495175D02*
X147386020Y-124082063D01*
X147386020Y-124082063D02*
X143003919Y-125013508D01*
X142156868Y-121124638D02*
G75*
G02*
X140801726Y-122925747I-1578124J-222985D01*
G01*
X142615871Y-125688947D02*
G75*
G02*
X143003919Y-125013507I531737J143700D01*
G01*
D14*
%TO.C,LED5*%
X155696972Y-128551793D02*
X156029630Y-130116829D01*
X156029630Y-130116829D02*
X157594669Y-129784169D01*
%TO.C,LED7*%
X175182652Y-131186532D02*
X175349897Y-132777769D01*
X175349897Y-132777769D02*
X176941132Y-132610522D01*
%TO.C,LED19*%
X207769295Y-153817927D02*
X207908744Y-155411838D01*
X207908744Y-155411838D02*
X209502656Y-155272389D01*
%TO.C,LED6*%
X152162474Y-111923297D02*
X152495132Y-113488333D01*
X152495132Y-113488333D02*
X154060171Y-113155673D01*
D11*
%TO.C,SW8*%
X176126110Y-122942779D02*
X176571106Y-122393254D01*
X176491959Y-126423606D02*
X177041485Y-126868602D01*
X176571106Y-122393254D02*
X178858507Y-122152838D01*
X177041485Y-126868602D02*
X180025050Y-126555017D01*
X180025050Y-126555017D02*
X180470047Y-126005492D01*
X180319231Y-119787192D02*
X184794580Y-119316814D01*
X180373881Y-125090532D02*
X180470047Y-126005492D01*
X180392401Y-120483357D02*
X180319231Y-119787192D01*
X184794580Y-119316814D02*
X184846844Y-119814075D01*
X185223147Y-123394353D02*
X185285864Y-123991069D01*
X185285864Y-123991069D02*
X180830406Y-124459354D01*
X180373881Y-125090532D02*
G75*
G02*
X180830406Y-124459354I543848J87329D01*
G01*
X180394492Y-120503247D02*
G75*
G02*
X178858507Y-122152838I-1592784J-56807D01*
G01*
D14*
%TO.C,LED3*%
X134555777Y-115665694D02*
X134888435Y-117230730D01*
X134888435Y-117230730D02*
X136453474Y-116898070D01*
D11*
%TO.C,SW7*%
X177903113Y-139849680D02*
X178348109Y-139300155D01*
X178268962Y-143330507D02*
X178818488Y-143775503D01*
X178348109Y-139300155D02*
X180635510Y-139059739D01*
X178818488Y-143775503D02*
X181802053Y-143461918D01*
X181802053Y-143461918D02*
X182247050Y-142912393D01*
X182096234Y-136694093D02*
X186571583Y-136223715D01*
X182150884Y-141997433D02*
X182247050Y-142912393D01*
X182169404Y-137390258D02*
X182096234Y-136694093D01*
X186571583Y-136223715D02*
X186623847Y-136720976D01*
X187000150Y-140301254D02*
X187062867Y-140897970D01*
X187062867Y-140897970D02*
X182607409Y-141366255D01*
X182150884Y-141997433D02*
G75*
G02*
X182607409Y-141366255I543848J87329D01*
G01*
X182171495Y-137410148D02*
G75*
G02*
X180635510Y-139059739I-1592784J-56807D01*
G01*
%TO.C,SW10*%
X194845388Y-130919348D02*
X195318532Y-130393865D01*
X195028561Y-134414551D02*
X195554044Y-134887698D01*
X195318532Y-130393865D02*
X197615380Y-130273496D01*
X195554044Y-134887698D02*
X198549932Y-134730690D01*
X198549932Y-134730690D02*
X199023078Y-134205208D01*
X198974930Y-133286467D02*
X199023078Y-134205208D01*
X199197911Y-127987536D02*
X203691742Y-127752025D01*
X199234545Y-128686577D02*
X199197911Y-127987536D01*
X203691742Y-127752025D02*
X203717912Y-128251339D01*
X203906317Y-131846406D02*
X203937723Y-132445583D01*
X203937723Y-132445583D02*
X199463862Y-132680049D01*
X198974930Y-133286467D02*
G75*
G02*
X199463862Y-132680049I547679J58740D01*
G01*
X199235594Y-128706552D02*
G75*
G02*
X197615380Y-130273495I-1593582J26639D01*
G01*
D14*
%TO.C,LED11*%
X191692340Y-105149106D02*
X191776078Y-106746913D01*
X191776078Y-106746913D02*
X193373886Y-106663175D01*
D11*
%TO.C,SW21*%
X253682990Y-169873931D02*
X254004009Y-170503968D01*
X254004009Y-170503968D02*
X256857179Y-171431018D01*
X254764550Y-166545232D02*
X255394586Y-166224214D01*
X255394586Y-166224214D02*
X257582016Y-166934950D01*
X256857179Y-171431018D02*
X257487216Y-171109999D01*
X257771512Y-170235027D02*
X257487216Y-171109999D01*
X259662339Y-166033697D02*
X259878649Y-165367957D01*
X259878649Y-165367957D02*
X264158404Y-166758534D01*
X262706026Y-171228499D02*
X258445291Y-169844104D01*
X262891435Y-170657865D02*
X262706026Y-171228499D01*
X264158404Y-166758534D02*
X264003896Y-167234062D01*
X257771512Y-170235027D02*
G75*
G02*
X258445291Y-169844104I532348J-141423D01*
G01*
X259656158Y-166052718D02*
G75*
G02*
X257582016Y-166934950I-1478182J595943D01*
G01*
D14*
%TO.C,LED1*%
X141624774Y-148922699D02*
X141957432Y-150487735D01*
X141957432Y-150487735D02*
X143522471Y-150155075D01*
D11*
%TO.C,SW12*%
X193065987Y-96965948D02*
X193539131Y-96440465D01*
X193249160Y-100461151D02*
X193774643Y-100934298D01*
X193539131Y-96440465D02*
X195835979Y-96320096D01*
X193774643Y-100934298D02*
X196770531Y-100777290D01*
X196770531Y-100777290D02*
X197243677Y-100251808D01*
X197195529Y-99333067D02*
X197243677Y-100251808D01*
X197418510Y-94034136D02*
X201912341Y-93798625D01*
X197455144Y-94733177D02*
X197418510Y-94034136D01*
X201912341Y-93798625D02*
X201938511Y-94297939D01*
X202126916Y-97893006D02*
X202158322Y-98492183D01*
X202158322Y-98492183D02*
X197684461Y-98726649D01*
X197195529Y-99333067D02*
G75*
G02*
X197684461Y-98726649I547679J58740D01*
G01*
X197456193Y-94753152D02*
G75*
G02*
X195835979Y-96320095I-1593582J26639D01*
G01*
D14*
%TO.C,LED2*%
X138090272Y-132294195D02*
X138422930Y-133859231D01*
X138422930Y-133859231D02*
X139987969Y-133526571D01*
D11*
%TO.C,SW4*%
X162842568Y-153511576D02*
X163227686Y-152918544D01*
X163227686Y-152918544D02*
X165477425Y-152440350D01*
X163570259Y-156935093D02*
X164163288Y-157320210D01*
X164163288Y-157320210D02*
X167097731Y-156696476D01*
X166682872Y-149934975D02*
X171084535Y-148999373D01*
X166828408Y-150619678D02*
X166682872Y-149934975D01*
X167097731Y-156696476D02*
X167482851Y-156103446D01*
X167291570Y-155203550D02*
X167482851Y-156103446D01*
X171084535Y-148999373D02*
X171188491Y-149488446D01*
X171936973Y-153009778D02*
X172061719Y-153596666D01*
X172061719Y-153596666D02*
X167679618Y-154528111D01*
X166832567Y-150639241D02*
G75*
G02*
X165477425Y-152440350I-1578124J-222985D01*
G01*
X167291570Y-155203550D02*
G75*
G02*
X167679618Y-154528110I531737J143700D01*
G01*
D14*
%TO.C,LED9*%
X171628652Y-97372840D02*
X171795897Y-98964077D01*
X171795897Y-98964077D02*
X173387132Y-98796830D01*
%TO.C,LED16*%
X229164535Y-129968828D02*
X229164535Y-131568828D01*
X229164535Y-131568828D02*
X230764535Y-131568828D01*
%TO.C,LED12*%
X190802644Y-88172406D02*
X190886382Y-89770213D01*
X190886382Y-89770213D02*
X192484190Y-89686475D01*
D11*
%TO.C,SW15*%
X212964536Y-102868831D02*
X213464538Y-102368831D01*
X212964538Y-106368831D02*
X213464538Y-106868831D01*
X213464538Y-102368831D02*
X215764538Y-102368831D01*
X213464538Y-106868831D02*
X216464538Y-106868831D01*
X216464538Y-106868831D02*
X216964538Y-106368831D01*
X216964538Y-105448831D02*
X216964538Y-106368831D01*
X217464538Y-100168831D02*
X221964538Y-100168831D01*
X217464538Y-100868831D02*
X217464538Y-100168831D01*
X221964538Y-100168831D02*
X221964538Y-100668831D01*
X221964538Y-104268831D02*
X221964538Y-104868831D01*
X221964538Y-104868831D02*
X217484538Y-104868831D01*
X216964538Y-105448831D02*
G75*
G02*
X217484538Y-104868832I549995J30004D01*
G01*
X217464537Y-100888831D02*
G75*
G02*
X215764538Y-102368832I-1589998J109997D01*
G01*
%TO.C,SW9*%
X174349105Y-106035980D02*
X174794101Y-105486455D01*
X174714954Y-109516807D02*
X175264480Y-109961803D01*
X174794101Y-105486455D02*
X177081502Y-105246039D01*
X175264480Y-109961803D02*
X178248045Y-109648218D01*
X178248045Y-109648218D02*
X178693042Y-109098693D01*
X178542226Y-102880393D02*
X183017575Y-102410015D01*
X178596876Y-108183733D02*
X178693042Y-109098693D01*
X178615396Y-103576558D02*
X178542226Y-102880393D01*
X183017575Y-102410015D02*
X183069839Y-102907276D01*
X183446142Y-106487554D02*
X183508859Y-107084270D01*
X183508859Y-107084270D02*
X179053401Y-107552555D01*
X178596876Y-108183733D02*
G75*
G02*
X179053401Y-107552555I543848J87329D01*
G01*
X178617487Y-103596448D02*
G75*
G02*
X177081502Y-105246039I-1592784J-56807D01*
G01*
%TO.C,SW16*%
X230964530Y-138868832D02*
X231464532Y-138368832D01*
X230964532Y-142368832D02*
X231464532Y-142868832D01*
X231464532Y-138368832D02*
X233764532Y-138368832D01*
X231464532Y-142868832D02*
X234464532Y-142868832D01*
X234464532Y-142868832D02*
X234964532Y-142368832D01*
X234964532Y-141448832D02*
X234964532Y-142368832D01*
X235464532Y-136168832D02*
X239964532Y-136168832D01*
X235464532Y-136868832D02*
X235464532Y-136168832D01*
X239964532Y-136168832D02*
X239964532Y-136668832D01*
X239964532Y-140268832D02*
X239964532Y-140868832D01*
X239964532Y-140868832D02*
X235484532Y-140868832D01*
X234964532Y-141448832D02*
G75*
G02*
X235484532Y-140868833I549995J30004D01*
G01*
X235464531Y-136888832D02*
G75*
G02*
X233764532Y-138368833I-1589998J109997D01*
G01*
D14*
%TO.C,LED13*%
X211164537Y-127968828D02*
X211164537Y-129568828D01*
X211164537Y-129568828D02*
X212764537Y-129568828D01*
%TO.C,LED15*%
X211164535Y-93968826D02*
X211164535Y-95568826D01*
X211164535Y-95568826D02*
X212764535Y-95568826D01*
D11*
%TO.C,SW13*%
X212964533Y-136868826D02*
X213464535Y-136368826D01*
X212964535Y-140368826D02*
X213464535Y-140868826D01*
X213464535Y-136368826D02*
X215764535Y-136368826D01*
X213464535Y-140868826D02*
X216464535Y-140868826D01*
X216464535Y-140868826D02*
X216964535Y-140368826D01*
X216964535Y-139448826D02*
X216964535Y-140368826D01*
X217464535Y-134168826D02*
X221964535Y-134168826D01*
X217464535Y-134868826D02*
X217464535Y-134168826D01*
X221964535Y-134168826D02*
X221964535Y-134668826D01*
X221964535Y-138268826D02*
X221964535Y-138868826D01*
X221964535Y-138868826D02*
X217484535Y-138868826D01*
X216964535Y-139448826D02*
G75*
G02*
X217484535Y-138868827I549995J30004D01*
G01*
X217464534Y-134888826D02*
G75*
G02*
X215764535Y-136368827I-1589998J109997D01*
G01*
D14*
%TO.C,LED18*%
X229164537Y-95968828D02*
X229164537Y-97568828D01*
X229164537Y-97568828D02*
X230764537Y-97568828D01*
D11*
%TO.C,SW14*%
X212964529Y-119868827D02*
X213464531Y-119368827D01*
X212964531Y-123368827D02*
X213464531Y-123868827D01*
X213464531Y-119368827D02*
X215764531Y-119368827D01*
X213464531Y-123868827D02*
X216464531Y-123868827D01*
X216464531Y-123868827D02*
X216964531Y-123368827D01*
X216964531Y-122448827D02*
X216964531Y-123368827D01*
X217464531Y-117168827D02*
X221964531Y-117168827D01*
X217464531Y-117868827D02*
X217464531Y-117168827D01*
X221964531Y-117168827D02*
X221964531Y-117668827D01*
X221964531Y-121268827D02*
X221964531Y-121868827D01*
X221964531Y-121868827D02*
X217484531Y-121868827D01*
X216964531Y-122448827D02*
G75*
G02*
X217484531Y-121868828I549995J30004D01*
G01*
X217464530Y-117888827D02*
G75*
G02*
X215764531Y-119368828I-1589998J109997D01*
G01*
D14*
%TO.C,LED10*%
X192582044Y-122125812D02*
X192665782Y-123723619D01*
X192665782Y-123723619D02*
X194263590Y-123639881D01*
%TO.C,LED20*%
X231449144Y-154749449D02*
X233043055Y-154888898D01*
X231588593Y-153155537D02*
X231449144Y-154749449D01*
D11*
%TO.C,SW1*%
X145235868Y-157253973D02*
X145620986Y-156660941D01*
X145620986Y-156660941D02*
X147870725Y-156182747D01*
X145963559Y-160677490D02*
X146556588Y-161062607D01*
X146556588Y-161062607D02*
X149491031Y-160438873D01*
X149076172Y-153677372D02*
X153477835Y-152741770D01*
X149221708Y-154362075D02*
X149076172Y-153677372D01*
X149491031Y-160438873D02*
X149876151Y-159845843D01*
X149684870Y-158945947D02*
X149876151Y-159845843D01*
X153477835Y-152741770D02*
X153581791Y-153230843D01*
X154330273Y-156752175D02*
X154455019Y-157339063D01*
X154455019Y-157339063D02*
X150072918Y-158270508D01*
X149225867Y-154381638D02*
G75*
G02*
X147870725Y-156182747I-1578124J-222985D01*
G01*
X149684870Y-158945947D02*
G75*
G02*
X150072918Y-158270507I531737J143700D01*
G01*
%TO.C,SW18*%
X230964534Y-104868831D02*
X231464536Y-104368831D01*
X230964536Y-108368831D02*
X231464536Y-108868831D01*
X231464536Y-104368831D02*
X233764536Y-104368831D01*
X231464536Y-108868831D02*
X234464536Y-108868831D01*
X234464536Y-108868831D02*
X234964536Y-108368831D01*
X234964536Y-107448831D02*
X234964536Y-108368831D01*
X235464536Y-102168831D02*
X239964536Y-102168831D01*
X235464536Y-102868831D02*
X235464536Y-102168831D01*
X239964536Y-102168831D02*
X239964536Y-102668831D01*
X239964536Y-106268831D02*
X239964536Y-106868831D01*
X239964536Y-106868831D02*
X235484536Y-106868831D01*
X234964536Y-107448831D02*
G75*
G02*
X235484536Y-106868832I549995J30004D01*
G01*
X235464535Y-102888831D02*
G75*
G02*
X233764536Y-104368832I-1589998J109997D01*
G01*
D14*
%TO.C,LED8*%
X173405652Y-114279740D02*
X173572897Y-115870977D01*
X173572897Y-115870977D02*
X175164132Y-115703730D01*
D11*
%TO.C,SW2*%
X141701367Y-140625475D02*
X142086485Y-140032443D01*
X142086485Y-140032443D02*
X144336224Y-139554249D01*
X142429058Y-144048992D02*
X143022087Y-144434109D01*
X143022087Y-144434109D02*
X145956530Y-143810375D01*
X145541671Y-137048874D02*
X149943334Y-136113272D01*
X145687207Y-137733577D02*
X145541671Y-137048874D01*
X145956530Y-143810375D02*
X146341650Y-143217345D01*
X146150369Y-142317449D02*
X146341650Y-143217345D01*
X149943334Y-136113272D02*
X150047290Y-136602345D01*
X150795772Y-140123677D02*
X150920518Y-140710565D01*
X150920518Y-140710565D02*
X146538417Y-141642010D01*
X145691366Y-137753140D02*
G75*
G02*
X144336224Y-139554249I-1578124J-222985D01*
G01*
X146150369Y-142317449D02*
G75*
G02*
X146538417Y-141642009I531737J143700D01*
G01*
%TO.C,SW20*%
X232301043Y-165665219D02*
X232755563Y-166206894D01*
X232606086Y-162178537D02*
X233147764Y-161724018D01*
X232755563Y-166206894D02*
X235744147Y-166468361D01*
X233147764Y-161724018D02*
X235439012Y-161924476D01*
X235744147Y-166468361D02*
X236285822Y-166013842D01*
X236366005Y-165097343D02*
X236285822Y-166013842D01*
X237263278Y-160578349D02*
X237324285Y-159881012D01*
X237324285Y-159881012D02*
X241807161Y-160273213D01*
X241397529Y-164955328D02*
X236934577Y-164564870D01*
X241449823Y-164357612D02*
X241397529Y-164955328D01*
X241807161Y-160273213D02*
X241763583Y-160771311D01*
X236366005Y-165097343D02*
G75*
G02*
X236934577Y-164564869I550518J-18044D01*
G01*
X237261531Y-160598272D02*
G75*
G02*
X235439012Y-161924476I-1574362J248158D01*
G01*
%TO.C,SW19*%
X210338196Y-162527160D02*
X210792717Y-161985485D01*
X210643243Y-166013842D02*
X211184918Y-166468361D01*
X210792717Y-161985485D02*
X213083965Y-161785027D01*
X211184918Y-166468361D02*
X214173502Y-166206894D01*
X214173502Y-166206894D02*
X214628022Y-165665219D01*
X214547838Y-164748720D02*
X214628022Y-165665219D01*
X214585753Y-159445234D02*
X219068630Y-159053033D01*
X214646762Y-160142570D02*
X214585753Y-159445234D01*
X219068630Y-159053033D02*
X219112207Y-159551130D01*
X219425968Y-163137431D02*
X219478261Y-163735148D01*
X219478261Y-163735148D02*
X215015309Y-164125606D01*
X214547838Y-164748720D02*
G75*
G02*
X215015309Y-164125607I545287J77825D01*
G01*
X214648504Y-160162494D02*
G75*
G02*
X213083965Y-161785027I-1593541J-28992D01*
G01*
D14*
%TO.C,LED4*%
X159231472Y-145180296D02*
X159564130Y-146745332D01*
X159564130Y-146745332D02*
X161129169Y-146412672D01*
D11*
%TO.C,SW5*%
X159308069Y-136883076D02*
X159693187Y-136290044D01*
X159693187Y-136290044D02*
X161942926Y-135811850D01*
X160035760Y-140306593D02*
X160628789Y-140691710D01*
X160628789Y-140691710D02*
X163563232Y-140067976D01*
X163148373Y-133306475D02*
X167550036Y-132370873D01*
X163293909Y-133991178D02*
X163148373Y-133306475D01*
X163563232Y-140067976D02*
X163948352Y-139474946D01*
X163757071Y-138575050D02*
X163948352Y-139474946D01*
X167550036Y-132370873D02*
X167653992Y-132859946D01*
X168402474Y-136381278D02*
X168527220Y-136968166D01*
X168527220Y-136968166D02*
X164145119Y-137899611D01*
X163298068Y-134010741D02*
G75*
G02*
X161942926Y-135811850I-1578124J-222985D01*
G01*
X163757071Y-138575050D02*
G75*
G02*
X164145119Y-137899610I531737J143700D01*
G01*
%TO.C,SW17*%
X230964533Y-121868829D02*
X231464535Y-121368829D01*
X230964535Y-125368829D02*
X231464535Y-125868829D01*
X231464535Y-121368829D02*
X233764535Y-121368829D01*
X231464535Y-125868829D02*
X234464535Y-125868829D01*
X234464535Y-125868829D02*
X234964535Y-125368829D01*
X234964535Y-124448829D02*
X234964535Y-125368829D01*
X235464535Y-119168829D02*
X239964535Y-119168829D01*
X235464535Y-119868829D02*
X235464535Y-119168829D01*
X239964535Y-119168829D02*
X239964535Y-119668829D01*
X239964535Y-123268829D02*
X239964535Y-123868829D01*
X239964535Y-123868829D02*
X235484535Y-123868829D01*
X234964535Y-124448829D02*
G75*
G02*
X235484535Y-123868830I549995J30004D01*
G01*
X235464534Y-119888829D02*
G75*
G02*
X233764535Y-121368830I-1589998J109997D01*
G01*
D14*
%TO.C,LED14*%
X211164531Y-110968833D02*
X211164531Y-112568833D01*
X211164531Y-112568833D02*
X212764531Y-112568833D01*
D11*
%TO.C,SW11*%
X193955691Y-113942649D02*
X194428835Y-113417166D01*
X194138864Y-117437852D02*
X194664347Y-117910999D01*
X194428835Y-113417166D02*
X196725683Y-113296797D01*
X194664347Y-117910999D02*
X197660235Y-117753991D01*
X197660235Y-117753991D02*
X198133381Y-117228509D01*
X198085233Y-116309768D02*
X198133381Y-117228509D01*
X198308214Y-111010837D02*
X202802045Y-110775326D01*
X198344848Y-111709878D02*
X198308214Y-111010837D01*
X202802045Y-110775326D02*
X202828215Y-111274640D01*
X203016620Y-114869707D02*
X203048026Y-115468884D01*
X203048026Y-115468884D02*
X198574165Y-115703350D01*
X198085233Y-116309768D02*
G75*
G02*
X198574165Y-115703350I547679J58740D01*
G01*
X198345897Y-111729853D02*
G75*
G02*
X196725683Y-113296796I-1593582J26639D01*
G01*
%TO.C,SW6*%
X155773570Y-120254572D02*
X156158688Y-119661540D01*
X156158688Y-119661540D02*
X158408427Y-119183346D01*
X156501261Y-123678089D02*
X157094290Y-124063206D01*
X157094290Y-124063206D02*
X160028733Y-123439472D01*
X159613874Y-116677971D02*
X164015537Y-115742369D01*
X159759410Y-117362674D02*
X159613874Y-116677971D01*
X160028733Y-123439472D02*
X160413853Y-122846442D01*
X160222572Y-121946546D02*
X160413853Y-122846442D01*
X164015537Y-115742369D02*
X164119493Y-116231442D01*
X164867975Y-119752774D02*
X164992721Y-120339662D01*
X164992721Y-120339662D02*
X160610620Y-121271107D01*
X159763569Y-117382237D02*
G75*
G02*
X158408427Y-119183346I-1578124J-222985D01*
G01*
X160222572Y-121946546D02*
G75*
G02*
X160610620Y-121271106I531737J143700D01*
G01*
%TD*%
D15*
X271584532Y-95468827D03*
X271584534Y-98008829D03*
X271584534Y-100548829D03*
X271584534Y-103088829D03*
X271584534Y-105628829D03*
X271584534Y-108168829D03*
X271584534Y-110708829D03*
X271584534Y-113248829D03*
X271584534Y-115788829D03*
X271584534Y-118328829D03*
X271584534Y-120868830D03*
X271584534Y-123408829D03*
X256344534Y-123408829D03*
X256344536Y-120868831D03*
X256344534Y-118328829D03*
X256344534Y-115788829D03*
X256344534Y-113248829D03*
X256344534Y-110708829D03*
X256344534Y-108168829D03*
X256344534Y-105628829D03*
X256344534Y-103088829D03*
X256344534Y-100548829D03*
X256344534Y-98008829D03*
X256344534Y-95468828D03*
X267364532Y-95468829D03*
X267364534Y-98008829D03*
X267364534Y-100548829D03*
X267364533Y-103088829D03*
X267364534Y-105628829D03*
X267364535Y-108168829D03*
X267364534Y-110708829D03*
X267364533Y-113248829D03*
X267364534Y-115788829D03*
X267364533Y-118328829D03*
X267364533Y-120868829D03*
X267364532Y-123408829D03*
X260564536Y-123408829D03*
X260564536Y-120868829D03*
X260564534Y-118328829D03*
X260564534Y-115788829D03*
X260564535Y-113248829D03*
X260564534Y-110708829D03*
X260564533Y-108168829D03*
X260564534Y-105628829D03*
X260564535Y-103088829D03*
X260564534Y-100548829D03*
X260564535Y-98008829D03*
X260564535Y-95468829D03*
X271364535Y-142668829D03*
X264364535Y-142668829D03*
D16*
X269764535Y-140368829D03*
X269764535Y-144968829D03*
X266764535Y-140368828D03*
X266764535Y-144968829D03*
D17*
X262214535Y-140368829D03*
X262214535Y-144968829D03*
D15*
X248964532Y-95668829D03*
X260154533Y-129368832D03*
X262694533Y-129368832D03*
X265234533Y-129368832D03*
X267774533Y-129368832D03*
X153355035Y-142544434D03*
X149820536Y-125915928D03*
X271964536Y-130418830D03*
X271964536Y-136918830D03*
X269923234Y-155488333D03*
X197195930Y-161468530D03*
X144629747Y-118329416D03*
X144920342Y-122101425D03*
X139249935Y-119472930D03*
X140487009Y-125292908D03*
X135138866Y-124180542D03*
X133870123Y-120616444D03*
X183146004Y-117981823D03*
X183040725Y-121763545D03*
X178298078Y-124474132D03*
X177676134Y-118556730D03*
X173095504Y-122808833D03*
X172206264Y-119131637D03*
X184923007Y-134888724D03*
X184817728Y-138670446D03*
X180075081Y-141381033D03*
X179453137Y-135463631D03*
X174872507Y-139715734D03*
X173983267Y-136038538D03*
X202115295Y-126332584D03*
X201812241Y-130103613D03*
X196934232Y-132562278D03*
X196622833Y-126620432D03*
X191825945Y-130626973D03*
X191130371Y-126908280D03*
X263195345Y-164868423D03*
X261561003Y-168280377D03*
X256125883Y-168827616D03*
X257964534Y-163168830D03*
X252050440Y-165190207D03*
X252733723Y-161469237D03*
X200335894Y-92379184D03*
X200032840Y-96150213D03*
X195154831Y-98608878D03*
X194843432Y-92667032D03*
X190046544Y-96673573D03*
X189350970Y-92954880D03*
X169305446Y-147844019D03*
X169596041Y-151616028D03*
X163925634Y-148987533D03*
X165162708Y-154807511D03*
X159814565Y-153695145D03*
X158545822Y-150131047D03*
X220464538Y-98668831D03*
X219964541Y-102418831D03*
X214964538Y-104618833D03*
X214964538Y-98668831D03*
X209964535Y-102418831D03*
X209464538Y-98668831D03*
X181368999Y-101075024D03*
X181263720Y-104856746D03*
X176521073Y-107567333D03*
X175899129Y-101649931D03*
X171318499Y-105902034D03*
X170429259Y-102224838D03*
X238464532Y-134668832D03*
X237964535Y-138418832D03*
X232964532Y-140618834D03*
X232964532Y-134668832D03*
X227964529Y-138418832D03*
X227464532Y-134668832D03*
X220464535Y-132668826D03*
X219964538Y-136418826D03*
X214964535Y-138618828D03*
X214964535Y-132668826D03*
X209964532Y-136418826D03*
X209464535Y-132668826D03*
X220464531Y-115668827D03*
X219964534Y-119418827D03*
X214964531Y-121618829D03*
X214964531Y-115668827D03*
X209964528Y-119418827D03*
X209464531Y-115668827D03*
X151698746Y-151586416D03*
X151989341Y-155358425D03*
X146318934Y-152729930D03*
X147556008Y-158549908D03*
X142207865Y-157437542D03*
X140939122Y-153873444D03*
X238464536Y-100668831D03*
X237964539Y-104418831D03*
X232964536Y-106618833D03*
X232964536Y-100668831D03*
X227964533Y-104418831D03*
X227464536Y-100668831D03*
X148164245Y-134957918D03*
X148454840Y-138729927D03*
X142784433Y-136101432D03*
X144021507Y-141921410D03*
X138673364Y-140809044D03*
X137404621Y-137244946D03*
X240443603Y-158648188D03*
X239618672Y-162340340D03*
X234445955Y-164096191D03*
X234964532Y-158168831D03*
X229656721Y-161468782D03*
X229485461Y-157689474D03*
X217443604Y-157689474D03*
X217272344Y-161468782D03*
X212483110Y-164096190D03*
X211964533Y-158168831D03*
X207310391Y-162340340D03*
X206485462Y-158648188D03*
X165770947Y-131215519D03*
X166061542Y-134987528D03*
X160391135Y-132359033D03*
X161628209Y-138179011D03*
X156280066Y-137066645D03*
X155011323Y-133502547D03*
X238464535Y-117668829D03*
X237964538Y-121418829D03*
X232964535Y-123618831D03*
X232964535Y-117668829D03*
X227964532Y-121418829D03*
X227464535Y-117668829D03*
X201225598Y-109355885D03*
X200922544Y-113126914D03*
X196044535Y-115585579D03*
X195733136Y-109643733D03*
X190936248Y-113650274D03*
X190240674Y-109931581D03*
X162236448Y-114587015D03*
X162527043Y-118359024D03*
X156856636Y-115730529D03*
X158093710Y-121550507D03*
X152745567Y-120438141D03*
X151476824Y-116874043D03*
M02*
