M48
METRIC,TZ
T1C1.500
T2C1.900
T3C3.000
T4C4.300
T5C5.000
%
G90
G05
T1
X264365Y-142669
X271365Y-142669
T2
X133870Y-120616
X137405Y-137245
X140939Y-153873
X144630Y-118329
X148164Y-134958
X151477Y-116874
X151699Y-151586
X155011Y-133503
X158546Y-150131
X162236Y-114587
X165771Y-131216
X169305Y-147844
X170429Y-102225
X172206Y-119132
X173983Y-136039
X181369Y-101075
X183146Y-117982
X184923Y-134889
X189351Y-92955
X190241Y-109932
X191130Y-126908
X200336Y-92379
X201226Y-109356
X202115Y-126333
X206485Y-158648
X209465Y-115669
X209465Y-132669
X209465Y-98669
X217444Y-157689
X220465Y-115669
X220465Y-132669
X220465Y-98669
X227465Y-134669
X227465Y-117669
X227465Y-100669
X229485Y-157689
X238465Y-134669
X238465Y-117669
X238465Y-100669
X240444Y-158648
X252734Y-161469
X263195Y-164868
T3
X135139Y-124181
X138673Y-140809
X140487Y-125293
X142208Y-157438
X144022Y-141921
X144920Y-122101
X147556Y-158550
X148455Y-138730
X151989Y-155358
X152746Y-120438
X156280Y-137067
X158094Y-121551
X159815Y-153695
X161628Y-138179
X162527Y-118359
X165163Y-154808
X166062Y-134988
X169596Y-151616
X171318Y-105902
X173096Y-122809
X174873Y-139716
X176521Y-107567
X178298Y-124474
X180075Y-141381
X181264Y-104857
X183041Y-121764
X184818Y-138670
X190047Y-96674
X190936Y-113650
X191826Y-130627
X195155Y-98609
X196045Y-115586
X196934Y-132562
X200033Y-96150
X200923Y-113127
X201812Y-130104
X207310Y-162340
X209965Y-119419
X209965Y-136419
X209965Y-102419
X212483Y-164096
X214965Y-121619
X214965Y-138619
X214965Y-104619
X217272Y-161469
X219965Y-119419
X219965Y-136419
X219965Y-102419
X227965Y-138419
X227965Y-121419
X227965Y-104419
X229657Y-161469
X232965Y-140619
X232965Y-123619
X232965Y-106619
X234446Y-164096
X237965Y-138419
X237965Y-121419
X237965Y-104419
X239619Y-162340
X252050Y-165190
X256126Y-168828
X261561Y-168280
T4
X149821Y-125916
X153355Y-142544
X197196Y-161469
X248965Y-95669
X269923Y-155488
T5
X139250Y-119473
X142784Y-136101
X146319Y-152730
X156857Y-115731
X160391Y-132359
X163926Y-148988
X175899Y-101650
X177676Y-118557
X179453Y-135464
X194843Y-92667
X195733Y-109644
X196623Y-126620
X211965Y-158169
X214965Y-115669
X214965Y-132669
X214965Y-98669
X232965Y-134669
X232965Y-117669
X232965Y-100669
X234965Y-158169
X257965Y-163169
M30
