%TF.GenerationSoftware,KiCad,Pcbnew,8.0.5*%
%TF.CreationDate,2024-10-14T20:57:04+01:00*%
%TF.ProjectId,scorn_choc.kicad_pcb_hybrid_routing,73636f72-6e5f-4636-986f-632e6b696361,v1.0.0*%
%TF.SameCoordinates,Original*%
%TF.FileFunction,Profile,NP*%
%FSLAX46Y46*%
G04 Gerber Fmt 4.6, Leading zero omitted, Abs format (unit mm)*
G04 Created by KiCad (PCBNEW 8.0.5) date 2024-10-14 20:57:04*
%MOMM*%
%LPD*%
G01*
G04 APERTURE LIST*
%TA.AperFunction,Profile*%
%ADD10C,0.150000*%
%TD*%
%TA.AperFunction,Profile*%
%ADD11C,0.120000*%
%TD*%
%ADD12C,0.350000*%
%ADD13O,1.500000X0.900000*%
%ADD14O,2.600000X0.900000*%
G04 APERTURE END LIST*
D10*
X274764507Y-92168829D02*
X274764511Y-155231887D01*
X205850825Y-82822417D02*
X207824278Y-87019788D01*
X176180721Y-157117191D02*
G75*
G02*
X177496106Y-157287185I415879J-1956109D01*
G01*
X243681536Y-169470830D02*
X224015288Y-167686262D01*
X209634212Y-88168826D02*
G75*
G02*
X207824254Y-87019799I-12J2000026D01*
G01*
X181705292Y-89160571D02*
X182949817Y-84191170D01*
X265928780Y-174925382D02*
G75*
G02*
X263480758Y-175989407I-1817780J834082D01*
G01*
X164974563Y-100407486D02*
G75*
G02*
X163522431Y-102610058I-1981163J-273814D01*
G01*
X243681536Y-169470830D02*
G75*
G02*
X244131035Y-169564554I-180736J-1991570D01*
G01*
X138662234Y-165091990D02*
G75*
G02*
X136282222Y-163512308I-415734J1956390D01*
G01*
X138662234Y-165091990D02*
X176180721Y-157117191D01*
X164974563Y-100407486D02*
X164144789Y-94404104D01*
X136282194Y-163512313D02*
X126676408Y-113414720D01*
X209634212Y-88168826D02*
X224324899Y-88168830D01*
X182949817Y-84191170D02*
G75*
G02*
X184785232Y-82679769I1939983J-485730D01*
G01*
X165916897Y-92141228D02*
X179974269Y-90663742D01*
X223660230Y-167685693D02*
X202487722Y-169538051D01*
X223660230Y-167685693D02*
G75*
G02*
X224015289Y-167686256I174370J-1993707D01*
G01*
X128224800Y-111081796D02*
X147769470Y-106927446D01*
X202487722Y-169538051D02*
G75*
G02*
X201413856Y-169331945I-174322J1992351D01*
G01*
X184785233Y-82679782D02*
X203936220Y-81676123D01*
X147882696Y-106899914D02*
X163522436Y-102610078D01*
X126676408Y-113414720D02*
G75*
G02*
X128224806Y-111081826I1964192J376620D01*
G01*
X203936220Y-81676123D02*
G75*
G02*
X205850841Y-82822409I104680J-1997277D01*
G01*
X274582290Y-156065959D02*
X265928780Y-174925382D01*
X224324899Y-88168830D02*
G75*
G02*
X226286038Y-89776602I1J-1999970D01*
G01*
X164144789Y-94404104D02*
G75*
G02*
X165916894Y-92141195I1981111J273904D01*
G01*
X201413856Y-169331940D02*
X177496100Y-157287197D01*
X274764511Y-155231887D02*
G75*
G02*
X274582285Y-156065957I-1999411J-113D01*
G01*
X226286065Y-89776597D02*
X226364506Y-90168829D01*
X263480756Y-175989412D02*
X244131038Y-169564546D01*
X147882696Y-106899914D02*
G75*
G02*
X147769470Y-106927447I-527196J1921414D01*
G01*
X181705292Y-89160571D02*
G75*
G02*
X179974271Y-90663761I-1940192J485971D01*
G01*
X226364506Y-90168829D02*
X272764508Y-90168826D01*
X272764508Y-90168826D02*
G75*
G02*
X274764474Y-92168829I92J-1999874D01*
G01*
D11*
%TO.C,LED21*%
X261607811Y-157780923D02*
X260649858Y-160729198D01*
X257226055Y-159616737D01*
X258184008Y-156668462D01*
X261607811Y-157780923D01*
%TO.C,LED17*%
X234764533Y-114518831D02*
X231164533Y-114518832D01*
X231164533Y-111418831D01*
X234764533Y-111418830D01*
X234764533Y-114518831D01*
%TO.C,LED5*%
X161496860Y-128903616D02*
X157975529Y-129652098D01*
X157331004Y-126619840D01*
X160852335Y-125871358D01*
X161496860Y-128903616D01*
%TO.C,LED7*%
X180913994Y-132142682D02*
X177333715Y-132518984D01*
X177009676Y-129435966D01*
X180589955Y-129059664D01*
X180913994Y-132142682D01*
%TO.C,LED19*%
X213483077Y-154873956D02*
X209896776Y-155187718D01*
X209626593Y-152099514D01*
X213212894Y-151785752D01*
X213483077Y-154873956D01*
%TO.C,LED6*%
X157962362Y-112275120D02*
X154441031Y-113023602D01*
X153796506Y-109991344D01*
X157317837Y-109242862D01*
X157962362Y-112275120D01*
%TO.C,LED3*%
X140355665Y-116017517D02*
X136834334Y-116765999D01*
X136189809Y-113733741D01*
X139711140Y-112985259D01*
X140355665Y-116017517D01*
%TO.C,LED11*%
X197365787Y-106403900D02*
X193770721Y-106592310D01*
X193608479Y-103496558D01*
X197203545Y-103308148D01*
X197365787Y-106403900D01*
%TO.C,LED1*%
X147424662Y-149274522D02*
X143903331Y-150023004D01*
X143258806Y-146990746D01*
X146780137Y-146242264D01*
X147424662Y-149274522D01*
%TO.C,LED2*%
X143890160Y-132646018D02*
X140368829Y-133394500D01*
X139724304Y-130362242D01*
X143245635Y-129613760D01*
X143890160Y-132646018D01*
%TO.C,LED9*%
X177359994Y-98328990D02*
X173779715Y-98705292D01*
X173455676Y-95622274D01*
X177035955Y-95245972D01*
X177359994Y-98328990D01*
%TO.C,LED16*%
X234764535Y-131518828D02*
X231164535Y-131518829D01*
X231164535Y-128418828D01*
X234764535Y-128418827D01*
X234764535Y-131518828D01*
%TO.C,LED12*%
X196476091Y-89427200D02*
X192881025Y-89615610D01*
X192718783Y-86519858D01*
X196313849Y-86331448D01*
X196476091Y-89427200D01*
%TO.C,LED13*%
X216764537Y-129518828D02*
X213164537Y-129518829D01*
X213164537Y-126418828D01*
X216764537Y-126418827D01*
X216764537Y-129518828D01*
%TO.C,LED15*%
X216764535Y-95518826D02*
X213164535Y-95518827D01*
X213164535Y-92418826D01*
X216764535Y-92418825D01*
X216764535Y-95518826D01*
%TO.C,LED18*%
X234764537Y-97518828D02*
X231164537Y-97518829D01*
X231164537Y-94418828D01*
X234764537Y-94418827D01*
X234764537Y-97518828D01*
%TO.C,LED10*%
X198255491Y-123380606D02*
X194660425Y-123569016D01*
X194498183Y-120473264D01*
X198093249Y-120284854D01*
X198255491Y-123380606D01*
%TO.C,LED20*%
X237302375Y-152099507D02*
X237032193Y-155187713D01*
X233445891Y-154873951D01*
X233716073Y-151785745D01*
X237302375Y-152099507D01*
%TO.C,LED8*%
X179136994Y-115235890D02*
X175556715Y-115612192D01*
X175232676Y-112529174D01*
X178812955Y-112152872D01*
X179136994Y-115235890D01*
%TO.C,LED4*%
X165031360Y-145532119D02*
X161510029Y-146280601D01*
X160865504Y-143248343D01*
X164386835Y-142499861D01*
X165031360Y-145532119D01*
%TO.C,LED14*%
X216764531Y-112518833D02*
X213164531Y-112518834D01*
X213164531Y-109418833D01*
X216764531Y-109418832D01*
X216764531Y-112518833D01*
%TD*%
D12*
X271584532Y-95468827D03*
X271584534Y-98008829D03*
X271584534Y-100548829D03*
X271584534Y-103088829D03*
X271584534Y-105628829D03*
X271584534Y-108168829D03*
X271584534Y-110708829D03*
X271584534Y-113248829D03*
X271584534Y-115788829D03*
X271584534Y-118328829D03*
X271584534Y-120868830D03*
X271584534Y-123408829D03*
X256344534Y-123408829D03*
X256344536Y-120868831D03*
X256344534Y-118328829D03*
X256344534Y-115788829D03*
X256344534Y-113248829D03*
X256344534Y-110708829D03*
X256344534Y-108168829D03*
X256344534Y-105628829D03*
X256344534Y-103088829D03*
X256344534Y-100548829D03*
X256344534Y-98008829D03*
X256344534Y-95468828D03*
X267364532Y-95468829D03*
X267364534Y-98008829D03*
X267364534Y-100548829D03*
X267364533Y-103088829D03*
X267364534Y-105628829D03*
X267364535Y-108168829D03*
X267364534Y-110708829D03*
X267364533Y-113248829D03*
X267364534Y-115788829D03*
X267364533Y-118328829D03*
X267364533Y-120868829D03*
X267364532Y-123408829D03*
X260564536Y-123408829D03*
X260564536Y-120868829D03*
X260564534Y-118328829D03*
X260564534Y-115788829D03*
X260564535Y-113248829D03*
X260564534Y-110708829D03*
X260564533Y-108168829D03*
X260564534Y-105628829D03*
X260564535Y-103088829D03*
X260564534Y-100548829D03*
X260564535Y-98008829D03*
X260564535Y-95468829D03*
X271364535Y-142668829D03*
X264364535Y-142668829D03*
D13*
X269764535Y-140368829D03*
X269764535Y-144968829D03*
X266764535Y-140368828D03*
X266764535Y-144968829D03*
D14*
X262214535Y-140368829D03*
X262214535Y-144968829D03*
D12*
X248964532Y-95668829D03*
X260154533Y-129368832D03*
X262694533Y-129368832D03*
X265234533Y-129368832D03*
X267774533Y-129368832D03*
X153355035Y-142544434D03*
X149820536Y-125915928D03*
X271964536Y-130418830D03*
X271964536Y-136918830D03*
X269923234Y-155488333D03*
X197195930Y-161468530D03*
X144629747Y-118329416D03*
X144920342Y-122101425D03*
X139249935Y-119472930D03*
X140487009Y-125292908D03*
X135138866Y-124180542D03*
X133870123Y-120616444D03*
X183146004Y-117981823D03*
X183040725Y-121763545D03*
X178298078Y-124474132D03*
X177676134Y-118556730D03*
X173095504Y-122808833D03*
X172206264Y-119131637D03*
X184923007Y-134888724D03*
X184817728Y-138670446D03*
X180075081Y-141381033D03*
X179453137Y-135463631D03*
X174872507Y-139715734D03*
X173983267Y-136038538D03*
X202115295Y-126332584D03*
X201812241Y-130103613D03*
X196934232Y-132562278D03*
X196622833Y-126620432D03*
X191825945Y-130626973D03*
X191130371Y-126908280D03*
X263195345Y-164868423D03*
X261561003Y-168280377D03*
X256125883Y-168827616D03*
X257964534Y-163168830D03*
X252050440Y-165190207D03*
X252733723Y-161469237D03*
X200335894Y-92379184D03*
X200032840Y-96150213D03*
X195154831Y-98608878D03*
X194843432Y-92667032D03*
X190046544Y-96673573D03*
X189350970Y-92954880D03*
X169305446Y-147844019D03*
X169596041Y-151616028D03*
X163925634Y-148987533D03*
X165162708Y-154807511D03*
X159814565Y-153695145D03*
X158545822Y-150131047D03*
X220464538Y-98668831D03*
X219964541Y-102418831D03*
X214964538Y-104618833D03*
X214964538Y-98668831D03*
X209964535Y-102418831D03*
X209464538Y-98668831D03*
X181368999Y-101075024D03*
X181263720Y-104856746D03*
X176521073Y-107567333D03*
X175899129Y-101649931D03*
X171318499Y-105902034D03*
X170429259Y-102224838D03*
X238464532Y-134668832D03*
X237964535Y-138418832D03*
X232964532Y-140618834D03*
X232964532Y-134668832D03*
X227964529Y-138418832D03*
X227464532Y-134668832D03*
X220464535Y-132668826D03*
X219964538Y-136418826D03*
X214964535Y-138618828D03*
X214964535Y-132668826D03*
X209964532Y-136418826D03*
X209464535Y-132668826D03*
X220464531Y-115668827D03*
X219964534Y-119418827D03*
X214964531Y-121618829D03*
X214964531Y-115668827D03*
X209964528Y-119418827D03*
X209464531Y-115668827D03*
X151698746Y-151586416D03*
X151989341Y-155358425D03*
X146318934Y-152729930D03*
X147556008Y-158549908D03*
X142207865Y-157437542D03*
X140939122Y-153873444D03*
X238464536Y-100668831D03*
X237964539Y-104418831D03*
X232964536Y-106618833D03*
X232964536Y-100668831D03*
X227964533Y-104418831D03*
X227464536Y-100668831D03*
X148164245Y-134957918D03*
X148454840Y-138729927D03*
X142784433Y-136101432D03*
X144021507Y-141921410D03*
X138673364Y-140809044D03*
X137404621Y-137244946D03*
X240443603Y-158648188D03*
X239618672Y-162340340D03*
X234445955Y-164096191D03*
X234964532Y-158168831D03*
X229656721Y-161468782D03*
X229485461Y-157689474D03*
X217443604Y-157689474D03*
X217272344Y-161468782D03*
X212483110Y-164096190D03*
X211964533Y-158168831D03*
X207310391Y-162340340D03*
X206485462Y-158648188D03*
X165770947Y-131215519D03*
X166061542Y-134987528D03*
X160391135Y-132359033D03*
X161628209Y-138179011D03*
X156280066Y-137066645D03*
X155011323Y-133502547D03*
X238464535Y-117668829D03*
X237964538Y-121418829D03*
X232964535Y-123618831D03*
X232964535Y-117668829D03*
X227964532Y-121418829D03*
X227464535Y-117668829D03*
X201225598Y-109355885D03*
X200922544Y-113126914D03*
X196044535Y-115585579D03*
X195733136Y-109643733D03*
X190936248Y-113650274D03*
X190240674Y-109931581D03*
X162236448Y-114587015D03*
X162527043Y-118359024D03*
X156856636Y-115730529D03*
X158093710Y-121550507D03*
X152745567Y-120438141D03*
X151476824Y-116874043D03*
M02*
