M48
METRIC,TZ
T1C0.300
T2C0.400
T3C0.400
T4C0.900
T5C1.000
T6C1.300
%
G90
G05
T1
X134750Y-129949
X135210Y-132920
X137230Y-135299
X138366Y-128416
X139777Y-150171
X141648Y-139947
X141968Y-116594
X142022Y-111494
X142782Y-117261
X144849Y-111401
X145806Y-110070
X146046Y-133344
X148144Y-161185
X148788Y-115906
X149271Y-142188
X150157Y-153328
X150711Y-132271
X152748Y-129346
X153075Y-123421
X154241Y-148900
X157744Y-135152
X159778Y-124804
X159853Y-141721
X160153Y-156043
X162392Y-152730
X162616Y-109501
X163621Y-109929
X164627Y-140220
X164935Y-123761
X166833Y-140692
X167427Y-126568
X167787Y-125684
X168679Y-141146
X169579Y-111153
X169909Y-98513
X171097Y-127038
X172264Y-144946
X172718Y-145830
X172928Y-103657
X177153Y-109850
X180779Y-122003
X181057Y-96257
X181474Y-126063
X181488Y-143437
X182264Y-97953
X183706Y-126314
X185204Y-113571
X186601Y-136098
X186667Y-130471
X188137Y-132801
X188782Y-94550
X190511Y-102557
X190761Y-86596
X191982Y-110950
X192745Y-96282
X193182Y-126350
X194016Y-100669
X194182Y-130750
X194895Y-117640
X198777Y-102557
X198982Y-135750
X200064Y-119281
X200291Y-134642
X201714Y-102545
X205367Y-115171
X206075Y-108291
X206947Y-156343
X207942Y-109109
X208366Y-127150
X211225Y-106429
X211382Y-116550
X211471Y-166294
X212582Y-119350
X214582Y-102350
X215637Y-123884
X216738Y-124685
X217242Y-136806
X217983Y-134331
X220246Y-159113
X221061Y-106671
X221876Y-142256
X222462Y-106304
X222946Y-113486
X222953Y-153615
X224582Y-142150
X224710Y-94877
X224929Y-115862
X224949Y-129519
X226003Y-127845
X228547Y-164143
X229982Y-127550
X230982Y-120750
X231068Y-108438
X231249Y-125513
X231261Y-165739
X232182Y-142704
X232982Y-104150
X235215Y-121211
X238921Y-108732
X241547Y-154543
X244947Y-147943
X245106Y-119919
X245947Y-150143
X247480Y-135411
X251737Y-156616
X254347Y-122743
X255003Y-171259
X258141Y-166792
X260640Y-125780
X261266Y-154218
X262947Y-131543
X263965Y-126622
X265947Y-124943
X266607Y-161496
T2
X133285Y-115220
X134447Y-116405
X136820Y-131849
X137982Y-133033
X140354Y-148477
X141516Y-149662
X142390Y-114716
X142969Y-113162
X145924Y-131345
X146504Y-129790
X149459Y-147973
X150038Y-146419
X150892Y-111478
X152054Y-112662
X154427Y-128106
X155588Y-129291
X157961Y-144735
X159123Y-145919
X159996Y-110974
X160576Y-109419
X163531Y-127602
X164110Y-126048
X167065Y-144231
X167645Y-142676
X170412Y-96797
X171443Y-98096
X172189Y-113704
X173220Y-115003
X173966Y-130611
X174997Y-131910
X179519Y-97247
X180258Y-95762
X181296Y-114154
X182035Y-112669
X183073Y-131061
X183812Y-129576
X189618Y-87534
X190507Y-104510
X190580Y-88885
X191397Y-121487
X191469Y-105862
X192359Y-122839
X198689Y-88460
X199504Y-87015
X199578Y-105437
X200394Y-103992
X200468Y-122414
X201283Y-120969
X206563Y-153221
X207571Y-154538
X210015Y-127269
X210015Y-93269
X210015Y-110269
X210905Y-111669
X210905Y-94669
X210905Y-128669
X215661Y-153830
X216425Y-152358
X219025Y-111669
X219025Y-94669
X219025Y-128669
X219915Y-110269
X219915Y-93269
X219915Y-127269
X228015Y-112269
X228015Y-95269
X228015Y-129269
X228905Y-130669
X228905Y-113669
X228905Y-96669
X230504Y-152358
X231269Y-153830
X237025Y-113669
X237025Y-96669
X237025Y-130669
X237915Y-95269
X237915Y-112269
X237915Y-129269
X239358Y-154538
X240366Y-153221
X254926Y-156504
X255339Y-158110
X263062Y-160619
X264341Y-159563
T3
X260565Y-108169
X260565Y-100549
X260565Y-105629
X260565Y-110709
X260565Y-115789
X260565Y-118329
X260565Y-95469
X260565Y-98009
X260565Y-103089
X260565Y-113249
X260565Y-120869
X260565Y-123409
X267365Y-95469
X267365Y-123409
X267365Y-103089
X267365Y-113249
X267365Y-118329
X267365Y-120869
X267365Y-98009
X267365Y-100549
X267365Y-105629
X267365Y-110709
X267365Y-115789
X267365Y-108169
T5
X256345Y-95469
X256345Y-98009
X256345Y-100549
X256345Y-103089
X256345Y-105629
X256345Y-108169
X256345Y-110709
X256345Y-113249
X256345Y-115789
X256345Y-118329
X256345Y-123409
X256345Y-120869
X260155Y-129369
X262695Y-129369
X265235Y-129369
X267775Y-129369
X271585Y-95469
X271585Y-98009
X271585Y-100549
X271585Y-103089
X271585Y-105629
X271585Y-108169
X271585Y-110709
X271585Y-113249
X271585Y-115789
X271585Y-118329
X271585Y-120869
X271585Y-123409
T6
X271965Y-130419
X271965Y-136919
T4
G00X263065Y-140369
M15
G01X261365Y-140369
M16
G05
G00X263065Y-144969
M15
G01X261365Y-144969
M16
G05
G00X267065Y-140369
M15
G01X266465Y-140369
M16
G05
G00X267065Y-144969
M15
G01X266465Y-144969
M16
G05
G00X270065Y-140369
M15
G01X269465Y-140369
M16
G05
G00X270065Y-144969
M15
G01X269465Y-144969
M16
G05
M30
