%TF.GenerationSoftware,KiCad,Pcbnew,8.0.5*%
%TF.CreationDate,2024-10-14T21:05:47+01:00*%
%TF.ProjectId,backplate_logos,6261636b-706c-4617-9465-5f6c6f676f73,v1.0.0*%
%TF.SameCoordinates,Original*%
%TF.FileFunction,Copper,L1,Top*%
%TF.FilePolarity,Positive*%
%FSLAX46Y46*%
G04 Gerber Fmt 4.6, Leading zero omitted, Abs format (unit mm)*
G04 Created by KiCad (PCBNEW 8.0.5) date 2024-10-14 21:05:47*
%MOMM*%
%LPD*%
G01*
G04 APERTURE LIST*
%TA.AperFunction,EtchedComponent*%
%ADD10C,0.000000*%
%TD*%
%ADD11C,0.350000*%
G04 APERTURE END LIST*
D10*
%TA.AperFunction,EtchedComponent*%
%TO.C,G\u002A\u002A\u002A*%
G36*
X198866351Y-110374100D02*
G01*
X199088881Y-110381604D01*
X199299037Y-110395593D01*
X199486241Y-110415989D01*
X199523140Y-110421304D01*
X199997174Y-110512920D01*
X200452663Y-110641084D01*
X200889135Y-110805551D01*
X201306115Y-111006072D01*
X201703129Y-111242400D01*
X202079706Y-111514288D01*
X202435370Y-111821488D01*
X202687911Y-112074701D01*
X202981487Y-112417357D01*
X203242923Y-112783270D01*
X203471089Y-113169480D01*
X203664856Y-113573032D01*
X203823091Y-113990967D01*
X203944666Y-114420328D01*
X204028450Y-114858157D01*
X204073312Y-115301498D01*
X204079147Y-115714967D01*
X204045887Y-116181487D01*
X203973009Y-116637519D01*
X203860923Y-117081896D01*
X203710039Y-117513453D01*
X203520768Y-117931023D01*
X203293521Y-118333440D01*
X203028708Y-118719539D01*
X203014908Y-118737841D01*
X202900604Y-118878969D01*
X202761149Y-119035518D01*
X202604935Y-119199159D01*
X202440357Y-119361566D01*
X202275807Y-119514409D01*
X202119678Y-119649362D01*
X202004701Y-119740177D01*
X201609385Y-120011150D01*
X201200262Y-120243437D01*
X200777029Y-120437168D01*
X200339386Y-120592475D01*
X199887030Y-120709488D01*
X199687149Y-120748198D01*
X199625889Y-120757260D01*
X199537492Y-120768177D01*
X199429244Y-120780262D01*
X199308433Y-120792827D01*
X199182346Y-120805186D01*
X199058271Y-120816650D01*
X198943495Y-120826533D01*
X198845305Y-120834148D01*
X198770989Y-120838807D01*
X198727834Y-120839824D01*
X198721683Y-120839245D01*
X198698730Y-120836989D01*
X198641935Y-120832127D01*
X198558435Y-120825247D01*
X198455365Y-120816942D01*
X198382606Y-120811165D01*
X197904770Y-120754888D01*
X197446653Y-120662866D01*
X197007015Y-120534712D01*
X196584619Y-120370040D01*
X196178226Y-120168459D01*
X195998787Y-120064726D01*
X195606034Y-119803942D01*
X195242123Y-119514539D01*
X194908135Y-119198120D01*
X194605149Y-118856291D01*
X194334245Y-118490654D01*
X194096503Y-118102815D01*
X193893004Y-117694378D01*
X193724825Y-117266947D01*
X193593049Y-116822125D01*
X193498754Y-116361519D01*
X193496490Y-116347310D01*
X193471318Y-116140724D01*
X193455422Y-115906427D01*
X193448798Y-115656748D01*
X193451446Y-115404016D01*
X193463364Y-115160560D01*
X193484550Y-114938709D01*
X193496691Y-114851861D01*
X193516780Y-114731107D01*
X193539121Y-114609326D01*
X193561119Y-114499971D01*
X193580183Y-114416496D01*
X193581843Y-114410032D01*
X193607084Y-114313202D01*
X193633602Y-114211513D01*
X193654187Y-114132605D01*
X193676999Y-114052242D01*
X193701554Y-113976303D01*
X193716069Y-113937378D01*
X193737058Y-113884688D01*
X193766869Y-113807533D01*
X193800077Y-113720001D01*
X193810487Y-113692226D01*
X193899824Y-113478424D01*
X194013164Y-113247305D01*
X194144422Y-113009555D01*
X194287514Y-112775856D01*
X194436355Y-112556892D01*
X194523903Y-112439588D01*
X194821458Y-112089320D01*
X195149663Y-111764755D01*
X195505093Y-111468613D01*
X195884323Y-111203613D01*
X196283929Y-110972475D01*
X196512541Y-110860130D01*
X196811815Y-110732365D01*
X197113171Y-110625417D01*
X197426479Y-110536425D01*
X197761608Y-110462529D01*
X198064078Y-110410508D01*
X198230312Y-110391286D01*
X198426488Y-110378863D01*
X198642027Y-110373161D01*
X198866351Y-110374100D01*
G37*
%TD.AperFunction*%
%TA.AperFunction,EtchedComponent*%
G36*
X194248850Y-121001512D02*
G01*
X194418261Y-121044564D01*
X194583441Y-121110389D01*
X194731978Y-121194138D01*
X194840603Y-121280283D01*
X194858099Y-121297206D01*
X194875330Y-121314497D01*
X194893788Y-121334108D01*
X194914968Y-121357992D01*
X194940364Y-121388103D01*
X194971468Y-121426393D01*
X195009775Y-121474815D01*
X195056778Y-121535323D01*
X195113971Y-121609869D01*
X195182847Y-121700407D01*
X195264901Y-121808889D01*
X195361625Y-121937269D01*
X195474514Y-122087499D01*
X195605061Y-122261532D01*
X195754759Y-122461322D01*
X195925103Y-122688822D01*
X196117586Y-122945984D01*
X196257977Y-123133576D01*
X196398506Y-123322035D01*
X196533225Y-123504011D01*
X196659836Y-123676315D01*
X196776040Y-123835758D01*
X196879537Y-123979149D01*
X196968028Y-124103299D01*
X197039215Y-124205018D01*
X197090798Y-124281116D01*
X197120477Y-124328405D01*
X197124194Y-124335328D01*
X197151927Y-124392719D01*
X197170636Y-124440357D01*
X197182095Y-124488662D01*
X197188075Y-124548057D01*
X197190351Y-124628959D01*
X197190696Y-124726213D01*
X197190204Y-124834760D01*
X197187544Y-124912697D01*
X197180941Y-124970512D01*
X197168619Y-125018695D01*
X197148804Y-125067733D01*
X197124218Y-125118990D01*
X197026333Y-125273415D01*
X196896224Y-125411035D01*
X196740764Y-125527726D01*
X196566823Y-125619362D01*
X196381274Y-125681818D01*
X196190988Y-125710970D01*
X196135336Y-125712605D01*
X196006275Y-125701854D01*
X195886806Y-125667793D01*
X195773458Y-125607670D01*
X195662757Y-125518734D01*
X195551232Y-125398232D01*
X195435410Y-125243412D01*
X195321744Y-125067764D01*
X195222761Y-124909379D01*
X195138862Y-124782814D01*
X195066029Y-124683497D01*
X195000242Y-124606858D01*
X194937483Y-124548325D01*
X194873734Y-124503326D01*
X194804974Y-124467292D01*
X194786750Y-124459243D01*
X194677647Y-124425224D01*
X194572281Y-124422504D01*
X194455044Y-124450687D01*
X194454554Y-124450853D01*
X194375930Y-124482970D01*
X194307542Y-124524597D01*
X194247187Y-124579697D01*
X194192660Y-124652230D01*
X194141757Y-124746155D01*
X194092274Y-124865435D01*
X194042007Y-125014028D01*
X193988752Y-125195897D01*
X193941070Y-125373543D01*
X193890058Y-125555507D01*
X193840138Y-125703156D01*
X193788355Y-125823079D01*
X193731756Y-125921862D01*
X193667388Y-126006092D01*
X193647739Y-126027787D01*
X193541172Y-126114670D01*
X193403648Y-126184820D01*
X193242590Y-126236200D01*
X193065425Y-126266772D01*
X192879578Y-126274501D01*
X192772411Y-126267885D01*
X192551928Y-126228155D01*
X192350107Y-126156394D01*
X192171688Y-126054586D01*
X192072488Y-125975049D01*
X191974544Y-125865481D01*
X191908843Y-125742092D01*
X191871852Y-125596991D01*
X191862533Y-125506231D01*
X191860334Y-125462348D01*
X191859799Y-125419924D01*
X191861738Y-125376045D01*
X191866959Y-125327796D01*
X191876270Y-125272262D01*
X191890480Y-125206527D01*
X191910399Y-125127678D01*
X191936833Y-125032798D01*
X191970592Y-124918973D01*
X192012485Y-124783288D01*
X192063319Y-124622829D01*
X192123905Y-124434680D01*
X192195050Y-124215925D01*
X192277562Y-123963651D01*
X192361081Y-123708980D01*
X192383917Y-123639208D01*
X192417361Y-123536773D01*
X192459320Y-123408102D01*
X192507699Y-123259621D01*
X192560403Y-123097757D01*
X192615340Y-122928934D01*
X192649038Y-122825323D01*
X192731506Y-122571830D01*
X192802513Y-122354238D01*
X192863304Y-122169362D01*
X192915125Y-122014016D01*
X192959221Y-121885014D01*
X192996838Y-121779171D01*
X193029220Y-121693301D01*
X193057614Y-121624218D01*
X193083263Y-121568737D01*
X193107414Y-121523671D01*
X193131312Y-121485836D01*
X193156202Y-121452046D01*
X193183329Y-121419115D01*
X193211356Y-121386812D01*
X193350839Y-121255539D01*
X193517412Y-121145347D01*
X193701266Y-121060721D01*
X193892597Y-121006145D01*
X194081596Y-120986105D01*
X194087622Y-120986084D01*
X194248850Y-121001512D01*
G37*
%TD.AperFunction*%
%TA.AperFunction,EtchedComponent*%
G36*
X184963350Y-112095938D02*
G01*
X185471568Y-112133566D01*
X185965778Y-112208364D01*
X186444607Y-112319740D01*
X186906681Y-112467101D01*
X187350624Y-112649857D01*
X187775065Y-112867413D01*
X188178628Y-113119179D01*
X188559939Y-113404562D01*
X188917625Y-113722969D01*
X189052832Y-113858468D01*
X189142271Y-113952766D01*
X189232245Y-114050427D01*
X189313897Y-114141657D01*
X189378373Y-114216666D01*
X189394193Y-114235969D01*
X189438512Y-114293339D01*
X189493789Y-114368331D01*
X189555427Y-114454291D01*
X189618828Y-114544567D01*
X189679393Y-114632507D01*
X189732525Y-114711459D01*
X189773627Y-114774771D01*
X189798100Y-114815791D01*
X189802913Y-114827305D01*
X189812340Y-114848356D01*
X189837631Y-114896673D01*
X189874303Y-114963812D01*
X189896802Y-115004108D01*
X189990247Y-115185185D01*
X190083812Y-115393681D01*
X190172211Y-115616270D01*
X190250157Y-115839628D01*
X190312365Y-116050430D01*
X190313313Y-116054045D01*
X190357671Y-116233866D01*
X190391660Y-116398215D01*
X190416481Y-116557405D01*
X190433334Y-116721751D01*
X190443421Y-116901568D01*
X190447942Y-117107168D01*
X190448485Y-117215129D01*
X190448099Y-117383991D01*
X190446257Y-117520025D01*
X190442463Y-117631494D01*
X190436222Y-117726658D01*
X190427041Y-117813779D01*
X190414423Y-117901120D01*
X190403565Y-117965210D01*
X190368450Y-118151564D01*
X190331934Y-118315932D01*
X190290480Y-118470633D01*
X190240548Y-118627982D01*
X190178600Y-118800296D01*
X190120215Y-118951618D01*
X189940256Y-119352833D01*
X189724254Y-119736492D01*
X189474083Y-120100891D01*
X189191620Y-120444328D01*
X188878738Y-120765099D01*
X188537315Y-121061503D01*
X188169226Y-121331835D01*
X187776346Y-121574393D01*
X187360550Y-121787474D01*
X186923715Y-121969376D01*
X186716444Y-122042038D01*
X186531951Y-122100557D01*
X186357614Y-122150126D01*
X186184380Y-122192677D01*
X186003189Y-122230142D01*
X185804988Y-122264450D01*
X185580717Y-122297534D01*
X185415453Y-122319453D01*
X185267510Y-122333703D01*
X185087724Y-122343267D01*
X184885104Y-122347963D01*
X184668660Y-122347607D01*
X184447401Y-122342018D01*
X184398220Y-122340036D01*
X184279623Y-122333815D01*
X184167993Y-122325973D01*
X184073291Y-122317349D01*
X184005474Y-122308784D01*
X183987217Y-122305364D01*
X183914711Y-122291708D01*
X183824586Y-122278399D01*
X183761165Y-122270954D01*
X183670213Y-122258862D01*
X183577412Y-122242012D01*
X183524839Y-122229737D01*
X183443717Y-122209448D01*
X183349481Y-122188103D01*
X183298787Y-122177565D01*
X183233215Y-122162143D01*
X183139910Y-122137014D01*
X183030166Y-122105363D01*
X182915277Y-122070372D01*
X182887784Y-122061701D01*
X182434798Y-121897729D01*
X182000545Y-121700191D01*
X181587548Y-121470743D01*
X181198329Y-121211042D01*
X180835411Y-120922746D01*
X180501317Y-120607512D01*
X180249293Y-120328479D01*
X179971562Y-119967458D01*
X179729840Y-119590463D01*
X179524999Y-119199461D01*
X179357915Y-118796415D01*
X179229460Y-118383290D01*
X179140508Y-117962051D01*
X179114299Y-117776231D01*
X179100625Y-117619919D01*
X179092639Y-117435490D01*
X179090240Y-117235517D01*
X179093325Y-117032573D01*
X179101794Y-116839231D01*
X179115544Y-116668064D01*
X179123833Y-116598624D01*
X179202135Y-116173490D01*
X179319097Y-115759145D01*
X179473272Y-115357392D01*
X179663214Y-114970034D01*
X179887476Y-114598875D01*
X180144613Y-114245716D01*
X180433177Y-113912361D01*
X180751722Y-113600614D01*
X181098802Y-113312277D01*
X181472970Y-113049152D01*
X181872781Y-112813044D01*
X182296787Y-112605755D01*
X182343204Y-112585497D01*
X182534255Y-112508198D01*
X182744328Y-112431984D01*
X182958271Y-112361912D01*
X183160933Y-112303039D01*
X183278237Y-112273451D01*
X183371716Y-112251510D01*
X183460180Y-112230517D01*
X183528743Y-112214014D01*
X183545389Y-112209927D01*
X183679088Y-112182465D01*
X183844864Y-112157407D01*
X184033730Y-112135475D01*
X184236697Y-112117392D01*
X184444776Y-112103879D01*
X184648979Y-112095660D01*
X184840317Y-112093457D01*
X184963350Y-112095938D01*
G37*
%TD.AperFunction*%
%TA.AperFunction,EtchedComponent*%
G36*
X190614265Y-104839294D02*
G01*
X190829215Y-104841064D01*
X191023686Y-104843966D01*
X191192079Y-104848048D01*
X191282525Y-104851256D01*
X191899490Y-104884039D01*
X192517793Y-104931076D01*
X193130392Y-104991522D01*
X193730246Y-105064529D01*
X194310313Y-105149251D01*
X194863552Y-105244840D01*
X195320631Y-105336847D01*
X195433651Y-105361067D01*
X195548452Y-105385310D01*
X195650050Y-105406428D01*
X195711628Y-105418935D01*
X195787695Y-105435375D01*
X195890438Y-105459345D01*
X196006834Y-105487728D01*
X196123862Y-105517408D01*
X196132906Y-105519757D01*
X196257802Y-105552235D01*
X196391088Y-105586864D01*
X196516511Y-105619421D01*
X196614682Y-105644874D01*
X196767830Y-105686547D01*
X196950824Y-105739622D01*
X197154925Y-105801333D01*
X197371398Y-105868916D01*
X197591506Y-105939605D01*
X197806512Y-106010637D01*
X198007679Y-106079245D01*
X198177633Y-106139522D01*
X198561366Y-106284606D01*
X198953836Y-106443712D01*
X199347807Y-106613468D01*
X199736038Y-106790503D01*
X200111292Y-106971447D01*
X200466329Y-107152928D01*
X200793910Y-107331576D01*
X201018610Y-107462508D01*
X201090121Y-107506285D01*
X201183221Y-107564347D01*
X201291012Y-107632283D01*
X201406596Y-107705681D01*
X201523077Y-107780130D01*
X201633555Y-107851220D01*
X201731134Y-107914538D01*
X201808916Y-107965673D01*
X201860003Y-108000215D01*
X201865858Y-108004349D01*
X202035103Y-108125723D01*
X202178115Y-108229425D01*
X202302458Y-108321175D01*
X202415693Y-108406691D01*
X202525382Y-108491692D01*
X202639090Y-108581899D01*
X202764377Y-108683030D01*
X202779312Y-108695166D01*
X203077655Y-108948235D01*
X203381925Y-109226052D01*
X203683573Y-109520018D01*
X203974048Y-109821535D01*
X204244802Y-110122005D01*
X204487284Y-110412829D01*
X204487440Y-110413026D01*
X204872440Y-110928369D01*
X205220566Y-111460977D01*
X205531444Y-112010024D01*
X205804700Y-112574683D01*
X206039961Y-113154129D01*
X206236851Y-113747535D01*
X206394998Y-114354075D01*
X206492226Y-114841586D01*
X206524890Y-115038948D01*
X206551995Y-115223837D01*
X206574270Y-115404286D01*
X206592445Y-115588331D01*
X206607248Y-115784004D01*
X206619407Y-115999342D01*
X206629653Y-116242378D01*
X206635786Y-116423948D01*
X206645859Y-117045935D01*
X206635900Y-117634089D01*
X206605547Y-118190664D01*
X206554438Y-118717913D01*
X206482213Y-119218090D01*
X206388509Y-119693449D01*
X206272965Y-120146244D01*
X206135220Y-120578730D01*
X205974912Y-120993159D01*
X205862509Y-121245273D01*
X205641347Y-121669011D01*
X205383733Y-122077042D01*
X205092574Y-122465495D01*
X204770778Y-122830497D01*
X204421253Y-123168174D01*
X204414063Y-123174566D01*
X204177721Y-123384332D01*
X204183593Y-123495281D01*
X204193164Y-123644521D01*
X204207711Y-123828312D01*
X204226606Y-124040487D01*
X204249224Y-124274879D01*
X204274939Y-124525321D01*
X204303124Y-124785648D01*
X204333154Y-125049692D01*
X204364402Y-125311287D01*
X204383667Y-125466019D01*
X204434414Y-125882329D01*
X204476189Y-126258588D01*
X204508997Y-126594850D01*
X204532840Y-126891174D01*
X204547722Y-127147614D01*
X204553647Y-127364228D01*
X204550619Y-127541073D01*
X204538640Y-127678203D01*
X204526888Y-127742597D01*
X204494626Y-127856434D01*
X204453162Y-127950671D01*
X204395051Y-128037938D01*
X204312847Y-128130865D01*
X204276234Y-128167828D01*
X204032587Y-128383857D01*
X203757038Y-128583499D01*
X203456930Y-128762580D01*
X203139604Y-128916928D01*
X202812402Y-129042369D01*
X202649853Y-129092254D01*
X202460527Y-129137647D01*
X202252246Y-129174113D01*
X202036823Y-129200460D01*
X201826073Y-129215498D01*
X201631809Y-129218034D01*
X201488014Y-129209423D01*
X201305397Y-129190139D01*
X201133712Y-129300894D01*
X201060391Y-129347678D01*
X201000870Y-129384687D01*
X200962932Y-129407135D01*
X200953538Y-129411650D01*
X200932786Y-129421015D01*
X200886151Y-129445662D01*
X200823396Y-129480417D01*
X200818284Y-129483302D01*
X200657160Y-129567169D01*
X200466230Y-129654624D01*
X200256036Y-129741436D01*
X200037123Y-129823374D01*
X199820032Y-129896206D01*
X199697816Y-129932979D01*
X199512633Y-129984224D01*
X199338350Y-130028194D01*
X199167666Y-130066153D01*
X198993274Y-130099367D01*
X198807874Y-130129102D01*
X198604160Y-130156623D01*
X198374829Y-130183195D01*
X198112577Y-130210083D01*
X198079971Y-130213253D01*
X197990090Y-130223315D01*
X197917734Y-130236162D01*
X197850306Y-130255643D01*
X197775210Y-130285605D01*
X197679851Y-130329897D01*
X197648418Y-130345093D01*
X197423412Y-130447034D01*
X197193738Y-130535689D01*
X196953293Y-130612654D01*
X196695977Y-130679524D01*
X196415686Y-130737895D01*
X196106319Y-130789364D01*
X195783010Y-130832942D01*
X195679752Y-130844838D01*
X195579311Y-130854604D01*
X195475780Y-130862492D01*
X195363251Y-130868755D01*
X195235815Y-130873646D01*
X195087565Y-130877419D01*
X194912592Y-130880328D01*
X194704988Y-130882624D01*
X194603373Y-130883493D01*
X194387627Y-130885482D01*
X194209095Y-130887791D01*
X194063891Y-130890580D01*
X193948129Y-130894008D01*
X193857923Y-130898236D01*
X193789387Y-130903423D01*
X193738634Y-130909729D01*
X193701780Y-130917314D01*
X193688891Y-130921123D01*
X193619619Y-130941054D01*
X193529595Y-130963188D01*
X193440292Y-130982328D01*
X193361830Y-130997874D01*
X193255877Y-131019156D01*
X193135193Y-131043598D01*
X193012537Y-131068623D01*
X192988188Y-131073616D01*
X192720184Y-131126085D01*
X192482768Y-131166578D01*
X192267469Y-131195911D01*
X192065817Y-131214899D01*
X191869341Y-131224355D01*
X191669568Y-131225096D01*
X191477751Y-131218880D01*
X191156315Y-131191597D01*
X190853486Y-131139166D01*
X190553283Y-131058643D01*
X190481068Y-131035218D01*
X190312524Y-130975380D01*
X190155165Y-130912890D01*
X190015809Y-130850820D01*
X189901272Y-130792243D01*
X189818371Y-130740235D01*
X189806307Y-130730988D01*
X189717226Y-130659601D01*
X189638696Y-130703738D01*
X189469656Y-130778280D01*
X189270304Y-130830585D01*
X189044804Y-130860793D01*
X188797316Y-130869048D01*
X188532004Y-130855490D01*
X188253029Y-130820262D01*
X187964554Y-130763505D01*
X187670739Y-130685362D01*
X187501295Y-130630902D01*
X187229275Y-130528426D01*
X186997912Y-130421012D01*
X186807048Y-130308554D01*
X186656524Y-130190948D01*
X186546183Y-130068089D01*
X186481817Y-129954645D01*
X186435553Y-129822631D01*
X186391815Y-129653944D01*
X186351445Y-129452977D01*
X186315285Y-129224124D01*
X186284177Y-128971776D01*
X186273673Y-128868738D01*
X186263632Y-128791629D01*
X186250955Y-128732148D01*
X186238000Y-128700661D01*
X186234924Y-128698354D01*
X186206631Y-128706765D01*
X186153428Y-128738346D01*
X186080916Y-128788730D01*
X185994698Y-128853552D01*
X185900375Y-128928446D01*
X185803551Y-129009045D01*
X185709826Y-129090984D01*
X185624803Y-129169897D01*
X185604536Y-129189654D01*
X185394874Y-129414893D01*
X185225537Y-129637396D01*
X185095930Y-129858246D01*
X185005456Y-130078523D01*
X184953517Y-130299309D01*
X184943416Y-130387783D01*
X184936706Y-130466955D01*
X184927017Y-130575181D01*
X184915435Y-130700616D01*
X184903045Y-130831415D01*
X184897263Y-130891262D01*
X184886953Y-131014659D01*
X184878733Y-131153722D01*
X184872463Y-131313257D01*
X184868002Y-131498067D01*
X184865213Y-131712958D01*
X184863954Y-131962734D01*
X184863856Y-132042071D01*
X184863998Y-132258560D01*
X184864823Y-132440191D01*
X184866566Y-132593205D01*
X184869463Y-132723843D01*
X184873751Y-132838344D01*
X184879665Y-132942950D01*
X184887441Y-133043900D01*
X184897316Y-133147435D01*
X184909524Y-133259796D01*
X184910092Y-133264806D01*
X184965239Y-133682974D01*
X185032209Y-134065366D01*
X185112222Y-134415915D01*
X185206496Y-134738552D01*
X185316250Y-135037210D01*
X185442703Y-135315822D01*
X185587074Y-135578319D01*
X185666512Y-135704987D01*
X185736899Y-135805183D01*
X185819205Y-135910130D01*
X185909314Y-136015809D01*
X186003110Y-136118203D01*
X186096475Y-136213293D01*
X186185293Y-136297062D01*
X186265447Y-136365491D01*
X186332819Y-136414564D01*
X186383295Y-136440261D01*
X186412755Y-136438565D01*
X186415147Y-136435637D01*
X186423375Y-136403448D01*
X186429975Y-136342103D01*
X186433761Y-136263547D01*
X186434106Y-136244579D01*
X186452631Y-135973969D01*
X186501026Y-135731057D01*
X186579156Y-135516069D01*
X186686883Y-135329230D01*
X186824072Y-135170768D01*
X186990586Y-135040906D01*
X187186288Y-134939871D01*
X187234143Y-134921203D01*
X187401082Y-134868680D01*
X187588688Y-134827579D01*
X187803447Y-134796748D01*
X188051842Y-134775035D01*
X188060460Y-134774475D01*
X188443661Y-134762781D01*
X188798438Y-134778752D01*
X189124259Y-134822307D01*
X189420594Y-134893370D01*
X189686913Y-134991861D01*
X189757727Y-135025182D01*
X189830599Y-135059049D01*
X189878841Y-135074423D01*
X189913142Y-135073823D01*
X189932403Y-135066381D01*
X190044691Y-135018194D01*
X190187784Y-134970331D01*
X190351456Y-134925509D01*
X190525482Y-134886447D01*
X190699637Y-134855863D01*
X190751755Y-134848567D01*
X190967569Y-134823200D01*
X191158136Y-134807870D01*
X191337984Y-134802248D01*
X191521640Y-134806006D01*
X191723628Y-134818813D01*
X191796279Y-134824925D01*
X192119388Y-134857806D01*
X192409742Y-134897125D01*
X192675393Y-134944408D01*
X192924391Y-135001180D01*
X193164788Y-135068968D01*
X193280872Y-135106330D01*
X193460530Y-135166408D01*
X193538036Y-135117480D01*
X193742312Y-135003802D01*
X193980713Y-134897806D01*
X194246631Y-134801675D01*
X194533462Y-134717591D01*
X194834599Y-134647736D01*
X195104855Y-134599967D01*
X195233102Y-134581118D01*
X195348742Y-134565536D01*
X195457623Y-134552904D01*
X195565589Y-134542901D01*
X195678487Y-134535210D01*
X195802162Y-134529510D01*
X195942461Y-134525483D01*
X196105229Y-134522809D01*
X196296313Y-134521171D01*
X196521558Y-134520248D01*
X196567879Y-134520129D01*
X197445224Y-134518030D01*
X197502912Y-134464400D01*
X197574749Y-134406812D01*
X197678755Y-134336259D01*
X197809262Y-134255829D01*
X197960603Y-134168611D01*
X198127110Y-134077692D01*
X198303117Y-133986161D01*
X198482956Y-133897106D01*
X198660959Y-133813615D01*
X198831460Y-133738776D01*
X198844984Y-133733097D01*
X199186962Y-133597931D01*
X199502118Y-133490131D01*
X199793573Y-133408910D01*
X200064452Y-133353482D01*
X200317876Y-133323061D01*
X200500724Y-133316181D01*
X200613905Y-133317113D01*
X200696946Y-133320891D01*
X200760785Y-133328985D01*
X200816358Y-133342868D01*
X200874604Y-133364011D01*
X200883805Y-133367720D01*
X200949888Y-133391651D01*
X201000433Y-133404538D01*
X201024218Y-133403683D01*
X201037234Y-133375913D01*
X201054738Y-133323293D01*
X201063330Y-133293040D01*
X201091304Y-133218472D01*
X201136532Y-133146027D01*
X201202925Y-133071971D01*
X201294392Y-132992569D01*
X201414845Y-132904088D01*
X201568192Y-132802795D01*
X201593614Y-132786681D01*
X201905985Y-132598397D01*
X202208414Y-132433682D01*
X202496120Y-132294938D01*
X202764319Y-132184564D01*
X202862541Y-132149745D01*
X203124302Y-132069547D01*
X203367810Y-132013186D01*
X203606763Y-131978641D01*
X203854857Y-131963893D01*
X204107157Y-131966223D01*
X204237723Y-131971764D01*
X204335971Y-131978435D01*
X204410685Y-131987416D01*
X204470648Y-131999890D01*
X204524643Y-132017040D01*
X204546103Y-132025300D01*
X204678595Y-132098500D01*
X204801486Y-132205421D01*
X204907490Y-132338746D01*
X204972200Y-132453074D01*
X205056306Y-132655266D01*
X205133895Y-132893823D01*
X205204298Y-133164427D01*
X205266846Y-133462761D01*
X205320872Y-133784508D01*
X205365705Y-134125351D01*
X205400679Y-134480972D01*
X205425125Y-134847053D01*
X205438373Y-135219278D01*
X205440634Y-135478291D01*
X205429227Y-135920625D01*
X205397550Y-136335813D01*
X205345957Y-136722643D01*
X205274803Y-137079906D01*
X205184441Y-137406390D01*
X205075228Y-137700885D01*
X204947516Y-137962180D01*
X204801661Y-138189064D01*
X204638017Y-138380327D01*
X204572941Y-138441904D01*
X204500699Y-138500549D01*
X204406545Y-138569029D01*
X204304583Y-138637376D01*
X204237841Y-138678774D01*
X204134937Y-138737365D01*
X204007625Y-138805718D01*
X203865697Y-138878958D01*
X203718945Y-138952209D01*
X203577159Y-139020596D01*
X203450132Y-139079242D01*
X203347655Y-139123273D01*
X203335195Y-139128241D01*
X203271608Y-139153795D01*
X203183939Y-139189733D01*
X203085943Y-139230394D01*
X203026942Y-139255110D01*
X202814661Y-139341110D01*
X202568910Y-139434967D01*
X202296084Y-139534543D01*
X202002581Y-139637703D01*
X201694798Y-139742311D01*
X201379131Y-139846231D01*
X201061976Y-139947325D01*
X200749730Y-140043458D01*
X200448790Y-140132494D01*
X200165552Y-140212296D01*
X200139644Y-140219361D01*
X200028794Y-140249543D01*
X199915603Y-140280442D01*
X199815463Y-140307854D01*
X199759466Y-140323239D01*
X199690420Y-140341532D01*
X199590021Y-140367164D01*
X199466015Y-140398245D01*
X199326148Y-140432883D01*
X199178166Y-140469189D01*
X199029814Y-140505272D01*
X198888839Y-140539241D01*
X198762985Y-140569205D01*
X198660000Y-140593275D01*
X198587628Y-140609560D01*
X198577832Y-140611648D01*
X198510514Y-140625858D01*
X198416730Y-140645745D01*
X198310209Y-140668396D01*
X198228479Y-140685814D01*
X197828430Y-140768633D01*
X197434601Y-140845229D01*
X197057345Y-140913667D01*
X196707015Y-140972013D01*
X196646117Y-140981526D01*
X196522619Y-141000662D01*
X196393524Y-141020771D01*
X196274431Y-141039418D01*
X196183738Y-141053722D01*
X196087837Y-141068494D01*
X195995352Y-141081981D01*
X195922375Y-141091859D01*
X195906311Y-141093815D01*
X195854230Y-141099936D01*
X195770709Y-141109834D01*
X195665113Y-141122395D01*
X195546811Y-141136507D01*
X195474758Y-141145119D01*
X195178190Y-141178238D01*
X194853852Y-141210211D01*
X194515076Y-141239810D01*
X194175190Y-141265813D01*
X194118447Y-141269775D01*
X194037856Y-141274283D01*
X193928696Y-141278849D01*
X193795688Y-141283393D01*
X193643549Y-141287834D01*
X193476998Y-141292092D01*
X193300754Y-141296089D01*
X193119535Y-141299743D01*
X192938060Y-141302976D01*
X192761048Y-141305707D01*
X192593217Y-141307856D01*
X192439286Y-141309344D01*
X192303973Y-141310091D01*
X192191998Y-141310017D01*
X192108078Y-141309042D01*
X192056932Y-141307086D01*
X192042881Y-141304891D01*
X192020437Y-141301308D01*
X191962344Y-141296450D01*
X191874022Y-141290645D01*
X191760892Y-141284221D01*
X191628373Y-141277506D01*
X191481886Y-141270829D01*
X191477751Y-141270651D01*
X191309698Y-141262797D01*
X191136051Y-141253579D01*
X190966838Y-141243608D01*
X190812086Y-141233496D01*
X190681820Y-141223852D01*
X190614644Y-141218089D01*
X190488221Y-141206583D01*
X190359201Y-141195281D01*
X190241109Y-141185341D01*
X190147472Y-141177920D01*
X190131716Y-141176757D01*
X190057848Y-141170775D01*
X189957915Y-141161775D01*
X189838354Y-141150424D01*
X189705598Y-141137387D01*
X189566085Y-141123331D01*
X189426250Y-141108922D01*
X189292528Y-141094826D01*
X189171355Y-141081709D01*
X189069167Y-141070237D01*
X188992400Y-141061077D01*
X188947489Y-141054895D01*
X188939806Y-141053383D01*
X188907336Y-141047897D01*
X188844065Y-141039765D01*
X188760111Y-141030225D01*
X188693204Y-141023245D01*
X188573866Y-141010028D01*
X188442067Y-140993527D01*
X188320329Y-140976616D01*
X188282201Y-140970808D01*
X188095119Y-140941435D01*
X187922419Y-140914490D01*
X187769184Y-140890755D01*
X187640496Y-140871013D01*
X187541435Y-140856048D01*
X187477084Y-140846642D01*
X187470470Y-140845721D01*
X187404622Y-140835373D01*
X187305400Y-140818098D01*
X187179694Y-140795224D01*
X187034392Y-140768080D01*
X186876382Y-140737995D01*
X186712555Y-140706296D01*
X186549798Y-140674311D01*
X186395001Y-140643370D01*
X186255052Y-140614801D01*
X186136842Y-140589931D01*
X186083334Y-140578254D01*
X185893589Y-140535830D01*
X185734408Y-140499498D01*
X185596143Y-140466829D01*
X185469151Y-140435395D01*
X185343787Y-140402768D01*
X185210405Y-140366519D01*
X185059360Y-140324220D01*
X184942800Y-140291093D01*
X184550313Y-140174571D01*
X184196808Y-140059816D01*
X183880255Y-139945900D01*
X183598624Y-139831892D01*
X183349884Y-139716863D01*
X183132007Y-139599884D01*
X182942961Y-139480026D01*
X182780718Y-139356359D01*
X182661431Y-139246607D01*
X182587192Y-139168837D01*
X182524441Y-139094948D01*
X182471692Y-139020284D01*
X182427462Y-138940194D01*
X182390264Y-138850021D01*
X182358614Y-138745114D01*
X182331027Y-138620817D01*
X182306019Y-138472478D01*
X182282103Y-138295441D01*
X182257795Y-138085054D01*
X182241237Y-137929692D01*
X182213653Y-137644309D01*
X182189271Y-137346127D01*
X182167985Y-137032175D01*
X182149688Y-136699484D01*
X182134275Y-136345082D01*
X182121640Y-135965998D01*
X182111675Y-135559263D01*
X182104276Y-135121905D01*
X182099337Y-134650953D01*
X182096750Y-134143438D01*
X182096303Y-133871035D01*
X182095678Y-133467294D01*
X182094207Y-133101671D01*
X182091753Y-132771194D01*
X182088178Y-132472886D01*
X182083348Y-132203773D01*
X182077123Y-131960881D01*
X182069369Y-131741234D01*
X182059948Y-131541858D01*
X182048724Y-131359778D01*
X182035559Y-131192018D01*
X182020317Y-131035606D01*
X182002862Y-130887564D01*
X181983056Y-130744920D01*
X181960763Y-130604698D01*
X181940992Y-130491968D01*
X181866519Y-130133705D01*
X181778575Y-129808220D01*
X181674602Y-129508667D01*
X181552041Y-129228198D01*
X181408335Y-128959968D01*
X181307894Y-128797420D01*
X181256611Y-128719895D01*
X181206392Y-128648086D01*
X181154578Y-128579508D01*
X181098508Y-128511677D01*
X181035523Y-128442106D01*
X180962963Y-128368311D01*
X180878169Y-128287805D01*
X180778481Y-128198104D01*
X180661239Y-128096722D01*
X180523785Y-127981174D01*
X180363457Y-127848975D01*
X180177598Y-127697638D01*
X179963546Y-127524680D01*
X179836085Y-127422049D01*
X179618437Y-127246719D01*
X179429111Y-127093586D01*
X179264220Y-126959313D01*
X179119876Y-126840565D01*
X178992193Y-126734006D01*
X178877283Y-126636302D01*
X178771261Y-126544116D01*
X178670238Y-126454113D01*
X178570327Y-126362959D01*
X178467643Y-126267316D01*
X178358297Y-126163851D01*
X178256719Y-126066790D01*
X177728651Y-125536023D01*
X177239334Y-124992755D01*
X176787948Y-124435587D01*
X176373673Y-123863120D01*
X175995686Y-123273952D01*
X175653168Y-122666683D01*
X175345296Y-122039914D01*
X175071251Y-121392245D01*
X174830211Y-120722274D01*
X174621354Y-120028603D01*
X174544705Y-119736507D01*
X174434294Y-119257207D01*
X174338727Y-118758849D01*
X174258268Y-118246603D01*
X174193181Y-117725634D01*
X174143730Y-117201112D01*
X174110179Y-116678203D01*
X174092792Y-116162076D01*
X174091834Y-115657899D01*
X174094637Y-115571116D01*
X175322123Y-115571116D01*
X175322294Y-116267989D01*
X175354146Y-116960810D01*
X175417046Y-117646130D01*
X175510360Y-118320500D01*
X175633454Y-118980470D01*
X175785694Y-119622591D01*
X175966446Y-120243414D01*
X176175077Y-120839489D01*
X176383392Y-121345712D01*
X176651910Y-121914399D01*
X176942130Y-122455267D01*
X177257143Y-122972740D01*
X177600043Y-123471241D01*
X177973921Y-123955193D01*
X178381870Y-124429020D01*
X178826982Y-124897145D01*
X178955387Y-125024559D01*
X179089110Y-125155099D01*
X179212754Y-125274312D01*
X179330025Y-125385399D01*
X179444629Y-125491564D01*
X179560270Y-125596008D01*
X179680655Y-125701931D01*
X179809488Y-125812537D01*
X179950475Y-125931028D01*
X180107322Y-126060603D01*
X180283734Y-126204467D01*
X180483416Y-126365820D01*
X180710073Y-126547864D01*
X180822492Y-126637896D01*
X181063890Y-126832409D01*
X181275109Y-127005745D01*
X181459225Y-127160873D01*
X181619317Y-127300765D01*
X181758463Y-127428393D01*
X181879739Y-127546727D01*
X181986224Y-127658739D01*
X182080995Y-127767400D01*
X182167130Y-127875681D01*
X182247707Y-127986553D01*
X182301339Y-128065615D01*
X182504087Y-128397215D01*
X182681184Y-128741589D01*
X182833877Y-129102558D01*
X182963410Y-129483948D01*
X183071029Y-129889581D01*
X183157979Y-130323282D01*
X183225506Y-130788874D01*
X183245108Y-130963187D01*
X183254739Y-131056339D01*
X183263380Y-131143436D01*
X183271108Y-131227231D01*
X183277999Y-131310471D01*
X183284128Y-131395908D01*
X183289574Y-131486289D01*
X183294411Y-131584367D01*
X183298717Y-131692889D01*
X183302567Y-131814605D01*
X183306038Y-131952266D01*
X183309206Y-132108621D01*
X183312148Y-132286420D01*
X183314939Y-132488412D01*
X183317657Y-132717348D01*
X183320377Y-132975976D01*
X183323176Y-133267046D01*
X183326130Y-133593309D01*
X183329315Y-133957513D01*
X183329812Y-134014887D01*
X183333683Y-134437384D01*
X183337706Y-134821679D01*
X183341969Y-135170670D01*
X183346565Y-135487254D01*
X183351584Y-135774331D01*
X183357116Y-136034798D01*
X183363252Y-136271552D01*
X183370083Y-136487493D01*
X183377699Y-136685517D01*
X183386191Y-136868524D01*
X183395650Y-137039411D01*
X183406165Y-137201076D01*
X183417828Y-137356417D01*
X183430730Y-137508333D01*
X183443229Y-137641990D01*
X183462833Y-137831087D01*
X183482792Y-138000170D01*
X183502512Y-138145329D01*
X183521400Y-138262655D01*
X183538861Y-138348240D01*
X183554303Y-138398173D01*
X183559372Y-138406815D01*
X183599707Y-138441229D01*
X183670816Y-138487425D01*
X183765532Y-138541379D01*
X183876691Y-138599067D01*
X183997127Y-138656466D01*
X184031548Y-138671944D01*
X184312067Y-138788041D01*
X184625541Y-138902802D01*
X184963843Y-139013634D01*
X185318846Y-139117942D01*
X185682423Y-139213132D01*
X185857282Y-139254749D01*
X186073864Y-139304733D01*
X186257008Y-139347313D01*
X186404882Y-139382060D01*
X186515652Y-139408544D01*
X186566263Y-139420968D01*
X186625942Y-139434130D01*
X186710144Y-139450543D01*
X186802784Y-139467105D01*
X186823140Y-139470533D01*
X186906723Y-139484867D01*
X187018305Y-139504621D01*
X187145500Y-139527572D01*
X187275924Y-139551497D01*
X187326619Y-139560916D01*
X187661477Y-139621723D01*
X187976396Y-139675172D01*
X188282228Y-139722824D01*
X188589823Y-139766241D01*
X188910034Y-139806984D01*
X189253711Y-139846616D01*
X189484386Y-139871423D01*
X189611807Y-139884947D01*
X189729714Y-139897719D01*
X189830210Y-139908863D01*
X189905401Y-139917506D01*
X189946764Y-139922681D01*
X190018248Y-139931052D01*
X190125018Y-139941124D01*
X190261312Y-139952515D01*
X190421368Y-139964845D01*
X190599425Y-139977735D01*
X190789719Y-139990804D01*
X190986490Y-140003671D01*
X191183976Y-140015956D01*
X191376414Y-140027279D01*
X191558044Y-140037259D01*
X191723102Y-140045517D01*
X191865827Y-140051672D01*
X191940130Y-140054251D01*
X192181249Y-140061319D01*
X192388483Y-140066726D01*
X192569017Y-140070481D01*
X192730031Y-140072592D01*
X192878709Y-140073068D01*
X193022232Y-140071917D01*
X193167785Y-140069146D01*
X193322548Y-140064766D01*
X193493705Y-140058783D01*
X193563141Y-140056146D01*
X193731035Y-140048945D01*
X193905608Y-140040188D01*
X194076438Y-140030486D01*
X194233105Y-140020453D01*
X194365187Y-140010700D01*
X194426699Y-140005387D01*
X194566243Y-139992542D01*
X194719257Y-139978741D01*
X194868406Y-139965533D01*
X194996357Y-139954464D01*
X195011313Y-139953197D01*
X195111654Y-139944265D01*
X195196567Y-139935840D01*
X195257985Y-139928787D01*
X195287842Y-139923968D01*
X195289184Y-139923443D01*
X195312758Y-139918645D01*
X195369637Y-139910368D01*
X195452273Y-139899620D01*
X195553116Y-139887408D01*
X195598503Y-139882151D01*
X195716249Y-139868063D01*
X195845815Y-139851507D01*
X195979820Y-139833538D01*
X196110881Y-139815213D01*
X196231619Y-139797590D01*
X196334652Y-139781725D01*
X196412600Y-139768674D01*
X196458081Y-139759494D01*
X196461165Y-139758657D01*
X196492271Y-139752326D01*
X196555321Y-139741370D01*
X196641611Y-139727245D01*
X196742439Y-139711406D01*
X196759143Y-139708840D01*
X196879581Y-139689110D01*
X197029381Y-139662533D01*
X197201738Y-139630488D01*
X197389850Y-139594349D01*
X197586913Y-139555494D01*
X197786124Y-139515300D01*
X197980679Y-139475144D01*
X198163776Y-139436402D01*
X198328610Y-139400450D01*
X198468379Y-139368666D01*
X198576279Y-139342426D01*
X198598382Y-139336653D01*
X198647974Y-139324075D01*
X198725867Y-139305045D01*
X198820325Y-139282407D01*
X198896360Y-139264447D01*
X199042139Y-139229297D01*
X199210292Y-139187187D01*
X199391758Y-139140521D01*
X199577479Y-139091701D01*
X199758397Y-139043131D01*
X199925453Y-138997214D01*
X200069589Y-138956353D01*
X200170470Y-138926427D01*
X200255533Y-138900691D01*
X200357244Y-138870397D01*
X200447897Y-138843766D01*
X200753729Y-138751865D01*
X201065350Y-138652795D01*
X201378730Y-138548133D01*
X201689838Y-138439455D01*
X201994643Y-138328337D01*
X202289114Y-138216354D01*
X202569222Y-138105084D01*
X202830934Y-137996101D01*
X203070220Y-137890982D01*
X203283049Y-137791304D01*
X203465391Y-137698641D01*
X203613215Y-137614571D01*
X203648662Y-137592274D01*
X203759944Y-137501611D01*
X203857486Y-137381357D01*
X203942314Y-137229355D01*
X204015453Y-137043447D01*
X204077930Y-136821478D01*
X204126022Y-136588344D01*
X204153100Y-136422819D01*
X204174154Y-136260614D01*
X204189591Y-136094467D01*
X204199819Y-135917112D01*
X204205246Y-135721285D01*
X204206279Y-135499723D01*
X204203325Y-135245160D01*
X204202857Y-135219269D01*
X204190892Y-134841764D01*
X204169170Y-134496538D01*
X204136896Y-134175757D01*
X204093274Y-133871588D01*
X204037509Y-133576198D01*
X204034658Y-133562783D01*
X204007528Y-133434476D01*
X203986803Y-133340767D01*
X203969061Y-133276346D01*
X203950884Y-133235904D01*
X203928850Y-133214129D01*
X203899538Y-133205713D01*
X203859529Y-133205344D01*
X203805935Y-133207695D01*
X203621114Y-133225631D01*
X203423095Y-133268844D01*
X203207050Y-133338695D01*
X202968151Y-133436546D01*
X202924191Y-133456395D01*
X202827737Y-133502411D01*
X202720200Y-133556839D01*
X202609584Y-133615282D01*
X202503890Y-133673345D01*
X202411122Y-133726630D01*
X202339282Y-133770742D01*
X202296371Y-133801284D01*
X202296288Y-133801356D01*
X202287731Y-133809201D01*
X202281115Y-133818972D01*
X202276693Y-133834574D01*
X202274717Y-133859911D01*
X202275439Y-133898887D01*
X202279109Y-133955407D01*
X202285981Y-134033376D01*
X202296305Y-134136699D01*
X202310333Y-134269279D01*
X202328318Y-134435022D01*
X202349805Y-134631391D01*
X202364010Y-134784081D01*
X202374883Y-134947954D01*
X202382339Y-135115772D01*
X202386296Y-135280298D01*
X202386672Y-135434295D01*
X202383383Y-135570525D01*
X202376347Y-135681751D01*
X202365480Y-135760736D01*
X202362867Y-135771925D01*
X202316072Y-135890814D01*
X202241609Y-136009892D01*
X202150003Y-136114158D01*
X202085268Y-136167572D01*
X201978354Y-136230302D01*
X201843047Y-136291741D01*
X201689305Y-136348947D01*
X201527089Y-136398981D01*
X201366360Y-136438901D01*
X201217078Y-136465767D01*
X201089202Y-136476638D01*
X201042049Y-136475580D01*
X200884464Y-136444900D01*
X200739984Y-136377393D01*
X200613587Y-136276521D01*
X200510247Y-136145746D01*
X200473640Y-136080178D01*
X200444953Y-136014775D01*
X200419803Y-135938997D01*
X200397279Y-135847855D01*
X200376466Y-135736361D01*
X200356451Y-135599525D01*
X200336322Y-135432359D01*
X200315164Y-135229874D01*
X200311882Y-135196521D01*
X200297455Y-135050558D01*
X200283893Y-134916361D01*
X200271822Y-134799899D01*
X200261870Y-134707140D01*
X200254664Y-134644055D01*
X200251084Y-134617787D01*
X200244626Y-134594231D01*
X200230478Y-134583620D01*
X200198913Y-134584911D01*
X200140204Y-134597061D01*
X200114019Y-134603090D01*
X199963755Y-134643768D01*
X199786179Y-134701616D01*
X199589583Y-134773269D01*
X199382255Y-134855360D01*
X199172486Y-134944523D01*
X198968566Y-135037390D01*
X198778785Y-135130595D01*
X198660033Y-135193554D01*
X198572132Y-135243173D01*
X198514963Y-135279503D01*
X198482436Y-135307515D01*
X198468461Y-135332176D01*
X198466490Y-135351482D01*
X198469062Y-135390342D01*
X198474900Y-135460694D01*
X198483182Y-135553134D01*
X198493088Y-135658256D01*
X198494916Y-135677137D01*
X198507899Y-135852949D01*
X198513611Y-136031119D01*
X198512350Y-136203783D01*
X198504415Y-136363075D01*
X198490105Y-136501131D01*
X198469718Y-136610084D01*
X198457963Y-136649451D01*
X198375773Y-136830914D01*
X198268388Y-136980822D01*
X198133582Y-137101264D01*
X197969131Y-137194328D01*
X197818884Y-137249245D01*
X197672871Y-137278466D01*
X197537577Y-137273793D01*
X197435821Y-137248106D01*
X197327239Y-137203869D01*
X197234512Y-137147977D01*
X197155953Y-137076851D01*
X197089875Y-136986913D01*
X197034591Y-136874586D01*
X196988414Y-136736292D01*
X196949657Y-136568454D01*
X196916631Y-136367493D01*
X196887651Y-136129833D01*
X196881746Y-136073210D01*
X196870146Y-135966444D01*
X196858683Y-135873805D01*
X196848445Y-135803238D01*
X196840523Y-135762687D01*
X196838381Y-135756856D01*
X196813727Y-135749802D01*
X196753903Y-135745093D01*
X196664760Y-135742575D01*
X196552151Y-135742092D01*
X196421930Y-135743490D01*
X196279948Y-135746612D01*
X196132059Y-135751304D01*
X195984117Y-135757410D01*
X195841972Y-135764775D01*
X195711479Y-135773245D01*
X195598490Y-135782664D01*
X195515858Y-135791923D01*
X195360531Y-135814874D01*
X195201290Y-135842365D01*
X195044028Y-135873004D01*
X194894644Y-135905403D01*
X194759032Y-135938171D01*
X194643088Y-135969917D01*
X194552710Y-135999252D01*
X194493791Y-136024786D01*
X194476717Y-136036926D01*
X194469829Y-136060458D01*
X194465816Y-136115224D01*
X194464669Y-136203371D01*
X194466382Y-136327045D01*
X194470946Y-136488395D01*
X194474667Y-136593932D01*
X194482006Y-136855275D01*
X194482361Y-137079590D01*
X194474582Y-137270536D01*
X194457518Y-137431769D01*
X194430015Y-137566946D01*
X194390923Y-137679725D01*
X194339090Y-137773764D01*
X194273365Y-137852718D01*
X194192595Y-137920247D01*
X194095629Y-137980006D01*
X194027339Y-138014538D01*
X193929863Y-138057165D01*
X193847407Y-138082631D01*
X193760503Y-138096134D01*
X193706532Y-138100185D01*
X193521442Y-138093116D01*
X193351899Y-138050799D01*
X193201606Y-137974847D01*
X193074269Y-137866875D01*
X193020295Y-137801287D01*
X192972895Y-137728620D01*
X192930539Y-137646074D01*
X192892397Y-137549981D01*
X192857638Y-137436675D01*
X192825431Y-137302486D01*
X192794947Y-137143747D01*
X192765353Y-136956791D01*
X192735819Y-136737949D01*
X192705516Y-136483555D01*
X192689850Y-136342192D01*
X192682146Y-136275788D01*
X192675823Y-136229389D01*
X192672509Y-136213754D01*
X192652347Y-136209690D01*
X192599365Y-136198539D01*
X192520923Y-136181862D01*
X192424381Y-136161219D01*
X192391962Y-136154266D01*
X191988625Y-136086142D01*
X191582124Y-136055058D01*
X191231793Y-136056970D01*
X191114150Y-136062350D01*
X191006194Y-136068381D01*
X190916774Y-136074488D01*
X190854738Y-136080094D01*
X190835559Y-136082745D01*
X190768771Y-136095118D01*
X190768771Y-136645809D01*
X190768450Y-136816519D01*
X190767274Y-136951798D01*
X190764926Y-137057312D01*
X190761085Y-137138726D01*
X190755434Y-137201708D01*
X190747654Y-137251922D01*
X190737425Y-137295035D01*
X190731044Y-137316494D01*
X190673698Y-137452936D01*
X190590505Y-137573565D01*
X190477155Y-137682917D01*
X190329339Y-137785525D01*
X190233836Y-137839637D01*
X190183146Y-137863519D01*
X190132513Y-137878066D01*
X190069559Y-137885334D01*
X189981906Y-137887374D01*
X189946764Y-137887259D01*
X189819365Y-137881143D01*
X189717407Y-137861544D01*
X189626151Y-137823615D01*
X189530855Y-137762512D01*
X189502079Y-137741076D01*
X189427622Y-137667567D01*
X189353371Y-137564541D01*
X189286032Y-137443065D01*
X189232308Y-137314206D01*
X189219540Y-137274733D01*
X189187222Y-137149877D01*
X189154725Y-136993247D01*
X189123595Y-136814136D01*
X189095381Y-136621835D01*
X189071628Y-136425635D01*
X189061710Y-136326841D01*
X189051133Y-136230184D01*
X189039224Y-136148986D01*
X189027435Y-136091743D01*
X189017224Y-136066947D01*
X189017174Y-136066916D01*
X188964468Y-136047764D01*
X188877976Y-136031723D01*
X188764907Y-136018973D01*
X188632471Y-136009691D01*
X188487877Y-136004055D01*
X188338336Y-136002245D01*
X188191056Y-136004437D01*
X188053247Y-136010810D01*
X187932118Y-136021543D01*
X187834879Y-136036814D01*
X187831255Y-136037594D01*
X187756658Y-136054960D01*
X187698922Y-136070400D01*
X187668795Y-136080998D01*
X187667151Y-136082148D01*
X187663002Y-136106331D01*
X187659814Y-136165681D01*
X187657593Y-136254275D01*
X187656350Y-136366192D01*
X187656091Y-136495508D01*
X187656827Y-136636301D01*
X187658565Y-136782649D01*
X187661314Y-136928629D01*
X187665083Y-137068319D01*
X187665696Y-137087136D01*
X187669373Y-137206640D01*
X187670582Y-137293586D01*
X187668454Y-137356485D01*
X187662116Y-137403847D01*
X187650700Y-137444185D01*
X187633335Y-137486009D01*
X187622518Y-137509352D01*
X187536344Y-137655142D01*
X187427872Y-137768739D01*
X187292592Y-137853966D01*
X187153350Y-137906900D01*
X186976765Y-137938618D01*
X186784392Y-137935669D01*
X186579257Y-137899926D01*
X186364386Y-137833262D01*
X186142806Y-137737551D01*
X185917542Y-137614666D01*
X185691622Y-137466481D01*
X185468070Y-137294869D01*
X185249914Y-137101703D01*
X185040180Y-136888857D01*
X184841894Y-136658205D01*
X184658082Y-136411619D01*
X184600926Y-136326780D01*
X184470824Y-136110842D01*
X184342525Y-135864647D01*
X184220794Y-135598933D01*
X184110395Y-135324437D01*
X184016093Y-135051897D01*
X183976292Y-134919094D01*
X183883473Y-134554585D01*
X183800767Y-134154309D01*
X183728991Y-133722532D01*
X183685014Y-133398382D01*
X183676207Y-133321416D01*
X183668875Y-133242448D01*
X183662891Y-133156977D01*
X183658129Y-133060502D01*
X183654463Y-132948525D01*
X183651767Y-132816544D01*
X183649915Y-132660060D01*
X183648780Y-132474573D01*
X183648236Y-132255583D01*
X183648140Y-132083171D01*
X183649930Y-131694959D01*
X183655473Y-131345077D01*
X183665021Y-131030904D01*
X183678830Y-130749818D01*
X183697153Y-130499200D01*
X183720247Y-130276426D01*
X183748364Y-130078878D01*
X183781760Y-129903932D01*
X183820689Y-129748968D01*
X183865406Y-129611365D01*
X183895584Y-129534951D01*
X183929735Y-129454305D01*
X183958649Y-129385873D01*
X183977929Y-129340067D01*
X183982357Y-129329450D01*
X184006559Y-129280296D01*
X184047189Y-129207259D01*
X184098067Y-129120780D01*
X184153009Y-129031299D01*
X184205836Y-128949255D01*
X184219622Y-128928721D01*
X184408287Y-128677412D01*
X184630463Y-128426632D01*
X184878940Y-128182486D01*
X185146509Y-127951075D01*
X185425959Y-127738502D01*
X185710080Y-127550872D01*
X185991664Y-127394287D01*
X186085634Y-127349163D01*
X186197020Y-127298287D01*
X186280536Y-127261479D01*
X186345523Y-127235351D01*
X186401319Y-127216516D01*
X186457265Y-127201587D01*
X186522701Y-127187175D01*
X186544966Y-127182572D01*
X186631782Y-127166125D01*
X186695991Y-127159433D01*
X186754900Y-127162460D01*
X186825819Y-127175171D01*
X186856776Y-127181922D01*
X187012172Y-127235127D01*
X187141208Y-127319790D01*
X187243991Y-127436021D01*
X187320629Y-127583931D01*
X187354248Y-127688462D01*
X187367935Y-127752922D01*
X187384470Y-127850287D01*
X187402698Y-127972556D01*
X187421460Y-128111729D01*
X187439598Y-128259806D01*
X187449082Y-128343910D01*
X187466521Y-128500562D01*
X187484845Y-128659417D01*
X187502892Y-128810781D01*
X187519495Y-128944964D01*
X187533490Y-129052271D01*
X187538570Y-129088808D01*
X187573257Y-129331095D01*
X187747915Y-129402809D01*
X187912744Y-129463215D01*
X188095041Y-129517596D01*
X188285090Y-129563982D01*
X188473176Y-129600403D01*
X188649582Y-129624890D01*
X188804594Y-129635473D01*
X188888431Y-129634018D01*
X188950221Y-129628073D01*
X188984758Y-129614314D01*
X189005861Y-129583454D01*
X189020571Y-129545226D01*
X189031785Y-129492116D01*
X189041326Y-129404171D01*
X189049092Y-129287627D01*
X189054982Y-129148720D01*
X189058895Y-128993685D01*
X189060729Y-128828758D01*
X189060383Y-128660174D01*
X189057757Y-128494169D01*
X189052749Y-128336979D01*
X189045257Y-128194839D01*
X189042999Y-128162586D01*
X189033084Y-128004685D01*
X189030096Y-127879380D01*
X189034871Y-127778622D01*
X189048240Y-127694362D01*
X189071037Y-127618549D01*
X189104095Y-127543134D01*
X189107887Y-127535522D01*
X189191020Y-127410533D01*
X189306073Y-127295608D01*
X189443966Y-127197958D01*
X189595616Y-127124794D01*
X189647367Y-127107180D01*
X189781545Y-127076344D01*
X189901072Y-127073137D01*
X190021750Y-127097586D01*
X190053617Y-127107908D01*
X190215703Y-127180217D01*
X190349300Y-127277427D01*
X190457862Y-127403155D01*
X190544838Y-127561016D01*
X190585433Y-127664887D01*
X190596441Y-127698222D01*
X190605653Y-127731655D01*
X190613305Y-127769262D01*
X190619636Y-127815121D01*
X190624884Y-127873307D01*
X190629286Y-127947897D01*
X190633080Y-128042967D01*
X190636504Y-128162594D01*
X190639795Y-128310855D01*
X190643192Y-128491826D01*
X190646932Y-128709584D01*
X190647161Y-128723220D01*
X190650704Y-128917108D01*
X190654609Y-129100581D01*
X190658742Y-129269073D01*
X190662964Y-129418022D01*
X190667139Y-129542865D01*
X190671130Y-129639036D01*
X190674800Y-129701974D01*
X190677176Y-129724196D01*
X190685366Y-129759885D01*
X190698953Y-129785196D01*
X190725806Y-129805487D01*
X190773796Y-129826117D01*
X190850794Y-129852444D01*
X190879211Y-129861759D01*
X191080576Y-129919253D01*
X191284614Y-129959753D01*
X191496432Y-129983253D01*
X191721136Y-129989747D01*
X191963834Y-129979226D01*
X192229632Y-129951685D01*
X192523637Y-129907116D01*
X192782686Y-129859176D01*
X192854444Y-129843753D01*
X192895261Y-129829172D01*
X192914727Y-129809439D01*
X192922429Y-129778556D01*
X192923320Y-129771222D01*
X192923836Y-129725208D01*
X192919662Y-129643860D01*
X192911337Y-129532607D01*
X192899398Y-129396882D01*
X192884384Y-129242116D01*
X192866835Y-129073740D01*
X192847288Y-128897185D01*
X192826282Y-128717883D01*
X192804355Y-128541265D01*
X192791906Y-128445793D01*
X192770383Y-128216343D01*
X192771681Y-128017932D01*
X192796466Y-127846983D01*
X192845402Y-127699918D01*
X192919155Y-127573159D01*
X192964499Y-127517438D01*
X193071648Y-127413347D01*
X193179930Y-127342029D01*
X193300852Y-127296489D01*
X193345132Y-127286001D01*
X193516376Y-127269365D01*
X193681243Y-127289966D01*
X193834281Y-127345221D01*
X193970038Y-127432547D01*
X194083064Y-127549360D01*
X194157771Y-127671106D01*
X194177347Y-127715989D01*
X194195368Y-127767855D01*
X194212487Y-127830575D01*
X194229360Y-127908017D01*
X194246640Y-128004050D01*
X194264982Y-128122543D01*
X194285039Y-128267365D01*
X194307466Y-128442386D01*
X194332916Y-128651474D01*
X194354766Y-128836246D01*
X194382090Y-129065322D01*
X194405755Y-129254915D01*
X194425953Y-129406463D01*
X194442879Y-129521402D01*
X194456726Y-129601169D01*
X194459409Y-129614286D01*
X194469723Y-129662795D01*
X194833527Y-129652358D01*
X195152769Y-129638336D01*
X195464351Y-129615214D01*
X195763154Y-129583750D01*
X196044055Y-129544701D01*
X196301934Y-129498824D01*
X196531671Y-129446878D01*
X196728144Y-129389618D01*
X196810518Y-129359931D01*
X196860054Y-129340731D01*
X196892980Y-129323537D01*
X196911510Y-129300550D01*
X196917860Y-129263972D01*
X196914244Y-129206004D01*
X196902875Y-129118847D01*
X196895032Y-129062298D01*
X196852830Y-128767288D01*
X196812018Y-128508254D01*
X196771652Y-128280136D01*
X196730787Y-128077878D01*
X196688480Y-127896420D01*
X196651706Y-127758378D01*
X196612482Y-127567290D01*
X196608975Y-127394968D01*
X196641721Y-127238936D01*
X196711253Y-127096715D01*
X196818105Y-126965828D01*
X196823749Y-126960214D01*
X196962484Y-126849640D01*
X197115236Y-126774228D01*
X197276398Y-126734150D01*
X197440362Y-126729578D01*
X197601522Y-126760682D01*
X197754270Y-126827635D01*
X197889765Y-126927610D01*
X197944837Y-126983355D01*
X197991974Y-127043896D01*
X198032579Y-127113751D01*
X198068056Y-127197434D01*
X198099809Y-127299464D01*
X198129242Y-127424356D01*
X198157758Y-127576627D01*
X198186762Y-127760793D01*
X198217658Y-127981372D01*
X198217932Y-127983414D01*
X198248730Y-128211751D01*
X198274714Y-128402342D01*
X198296332Y-128558205D01*
X198314035Y-128682357D01*
X198328271Y-128777815D01*
X198339490Y-128847595D01*
X198348141Y-128894713D01*
X198354673Y-128922188D01*
X198359320Y-128932836D01*
X198384305Y-128934982D01*
X198442304Y-128930096D01*
X198526065Y-128919375D01*
X198628332Y-128904012D01*
X198741852Y-128885204D01*
X198859372Y-128864145D01*
X198973637Y-128842030D01*
X199077393Y-128820055D01*
X199153237Y-128802039D01*
X199485740Y-128706868D01*
X199791918Y-128596895D01*
X200085329Y-128467244D01*
X200088269Y-128465819D01*
X200190531Y-128415598D01*
X200281812Y-128369577D01*
X200354671Y-128331600D01*
X200401664Y-128305509D01*
X200413265Y-128298024D01*
X200427463Y-128284613D01*
X200436728Y-128265368D01*
X200441344Y-128233608D01*
X200441598Y-128182652D01*
X200437776Y-128105821D01*
X200430161Y-127996434D01*
X200427621Y-127962167D01*
X200395904Y-127644794D01*
X200350865Y-127363520D01*
X200292711Y-127119479D01*
X200250500Y-126988311D01*
X200196737Y-126801365D01*
X200178090Y-126632322D01*
X200195095Y-126476873D01*
X200248288Y-126330708D01*
X200338202Y-126189517D01*
X200351857Y-126172243D01*
X200467246Y-126058062D01*
X200608023Y-125964693D01*
X200749382Y-125904855D01*
X200863065Y-125883340D01*
X200993986Y-125879873D01*
X201125783Y-125893399D01*
X201242092Y-125922866D01*
X201281028Y-125939081D01*
X201406380Y-126014016D01*
X201515308Y-126110789D01*
X201608727Y-126231754D01*
X201687554Y-126379267D01*
X201752705Y-126555682D01*
X201805094Y-126763355D01*
X201845639Y-127004639D01*
X201875255Y-127281891D01*
X201890360Y-127505761D01*
X201915546Y-127973415D01*
X202019141Y-127960872D01*
X202129738Y-127942597D01*
X202260693Y-127913629D01*
X202394167Y-127878443D01*
X202512316Y-127841514D01*
X202550142Y-127827701D01*
X202660950Y-127780700D01*
X202780154Y-127723018D01*
X202901409Y-127658502D01*
X203018370Y-127590997D01*
X203124690Y-127524352D01*
X203214025Y-127462412D01*
X203280027Y-127409024D01*
X203316352Y-127368035D01*
X203319672Y-127361217D01*
X203323205Y-127326993D01*
X203322747Y-127257750D01*
X203318718Y-127159334D01*
X203311533Y-127037590D01*
X203301613Y-126898363D01*
X203289373Y-126747498D01*
X203275232Y-126590841D01*
X203259607Y-126434236D01*
X203242917Y-126283528D01*
X203242238Y-126277751D01*
X203224558Y-126126917D01*
X203204379Y-125953741D01*
X203183850Y-125776715D01*
X203165118Y-125614334D01*
X203159887Y-125568770D01*
X203143642Y-125428953D01*
X203126200Y-125282016D01*
X203109208Y-125141641D01*
X203094314Y-125021509D01*
X203088105Y-124972815D01*
X203070142Y-124823445D01*
X203050143Y-124637284D01*
X203028008Y-124413312D01*
X203003636Y-124150504D01*
X202976927Y-123847838D01*
X202972929Y-123801456D01*
X202956863Y-123549955D01*
X202956065Y-123332312D01*
X202972002Y-123143668D01*
X203006142Y-122979169D01*
X203059951Y-122833958D01*
X203134896Y-122703178D01*
X203232444Y-122581972D01*
X203354061Y-122465484D01*
X203384114Y-122440073D01*
X203492330Y-122346204D01*
X203614179Y-122233598D01*
X203742761Y-122109254D01*
X203871177Y-121980174D01*
X203992527Y-121853359D01*
X204099913Y-121735808D01*
X204186434Y-121634523D01*
X204219604Y-121592314D01*
X204438449Y-121279360D01*
X204632707Y-120952264D01*
X204803463Y-120607889D01*
X204951803Y-120243102D01*
X205078809Y-119854767D01*
X205185566Y-119439749D01*
X205273160Y-118994914D01*
X205342673Y-118517127D01*
X205371163Y-118263187D01*
X205382045Y-118131477D01*
X205391694Y-117965876D01*
X205400006Y-117773578D01*
X205406874Y-117561778D01*
X205412193Y-117337669D01*
X205415858Y-117108445D01*
X205417763Y-116881301D01*
X205417801Y-116663430D01*
X205415868Y-116462026D01*
X205411858Y-116284285D01*
X205405665Y-116137399D01*
X205403000Y-116095145D01*
X205378942Y-115788562D01*
X205351433Y-115513289D01*
X205318854Y-115259578D01*
X205279584Y-115017679D01*
X205232002Y-114777843D01*
X205174487Y-114530321D01*
X205105420Y-114265364D01*
X205088725Y-114204531D01*
X204917243Y-113661280D01*
X204707013Y-113130313D01*
X204458747Y-112612424D01*
X204173158Y-112108406D01*
X203850960Y-111619054D01*
X203492866Y-111145161D01*
X203099589Y-110687524D01*
X202671841Y-110246934D01*
X202210337Y-109824187D01*
X201715789Y-109420077D01*
X201188910Y-109035398D01*
X200630414Y-108670943D01*
X200041013Y-108327508D01*
X199604697Y-108097132D01*
X199077091Y-107842620D01*
X198525529Y-107600531D01*
X197962449Y-107375831D01*
X197400286Y-107173488D01*
X196861894Y-107001566D01*
X196774232Y-106975271D01*
X196696346Y-106951561D01*
X196640345Y-106934136D01*
X196625567Y-106929350D01*
X196584217Y-106916872D01*
X196514383Y-106897129D01*
X196427337Y-106873271D01*
X196368690Y-106857535D01*
X196261732Y-106828992D01*
X196150410Y-106799139D01*
X196052840Y-106772838D01*
X196019337Y-106763753D01*
X195913194Y-106736279D01*
X195776506Y-106702985D01*
X195619032Y-106666096D01*
X195450533Y-106627833D01*
X195280769Y-106590419D01*
X195119500Y-106556078D01*
X195002104Y-106532099D01*
X194257739Y-106395420D01*
X193516029Y-106282965D01*
X192772281Y-106194474D01*
X192021802Y-106129689D01*
X191259898Y-106088349D01*
X190481876Y-106070197D01*
X189683043Y-106074973D01*
X188858706Y-106102418D01*
X188056149Y-106148670D01*
X187607150Y-106184247D01*
X187138054Y-106230261D01*
X186662887Y-106285053D01*
X186195671Y-106346965D01*
X185750430Y-106414335D01*
X185600405Y-106439234D01*
X185431675Y-106469071D01*
X185242075Y-106504510D01*
X185039125Y-106543992D01*
X184830348Y-106585953D01*
X184623265Y-106628834D01*
X184425397Y-106671074D01*
X184244267Y-106711111D01*
X184087395Y-106747383D01*
X183962304Y-106778331D01*
X183946117Y-106782584D01*
X183867075Y-106803454D01*
X183761255Y-106831234D01*
X183641664Y-106862519D01*
X183521306Y-106893901D01*
X183504288Y-106898329D01*
X183379500Y-106932199D01*
X183229042Y-106975300D01*
X183060748Y-107025189D01*
X182882451Y-107079420D01*
X182701982Y-107135548D01*
X182527174Y-107191130D01*
X182365860Y-107243719D01*
X182225873Y-107290871D01*
X182115045Y-107330142D01*
X182086327Y-107340909D01*
X181776405Y-107460678D01*
X181503977Y-107568700D01*
X181267361Y-107665657D01*
X181064876Y-107752230D01*
X181001159Y-107780471D01*
X180386255Y-108073764D01*
X179804686Y-108387685D01*
X179256860Y-108721874D01*
X178743186Y-109075971D01*
X178264073Y-109449617D01*
X177819927Y-109842450D01*
X177411159Y-110254112D01*
X177038176Y-110684241D01*
X176701387Y-111132477D01*
X176401200Y-111598461D01*
X176149724Y-112058400D01*
X175940691Y-112508224D01*
X175763922Y-112961425D01*
X175618325Y-113422635D01*
X175502808Y-113896490D01*
X175416281Y-114387622D01*
X175357650Y-114900667D01*
X175325824Y-115440258D01*
X175322123Y-115571116D01*
X174094637Y-115571116D01*
X174107567Y-115170839D01*
X174140257Y-114706065D01*
X174190167Y-114268743D01*
X174247387Y-113916828D01*
X174359546Y-113392522D01*
X174493993Y-112895947D01*
X174653512Y-112418660D01*
X174840887Y-111952214D01*
X175026303Y-111553560D01*
X175063771Y-111479890D01*
X175112388Y-111387462D01*
X175167862Y-111284091D01*
X175225900Y-111177594D01*
X175282209Y-111075786D01*
X175332499Y-110986484D01*
X175372476Y-110917503D01*
X175397847Y-110876660D01*
X175398721Y-110875404D01*
X175424824Y-110836604D01*
X175466335Y-110773069D01*
X175516735Y-110694830D01*
X175552294Y-110639077D01*
X175650909Y-110490687D01*
X175770357Y-110322048D01*
X175903331Y-110142866D01*
X176042523Y-109962848D01*
X176180626Y-109791698D01*
X176271767Y-109683495D01*
X176603891Y-109315675D01*
X176950505Y-108968695D01*
X177317231Y-108637665D01*
X177709687Y-108317698D01*
X178133495Y-108003907D01*
X178462948Y-107777897D01*
X178755557Y-107586736D01*
X179028008Y-107416915D01*
X179290737Y-107262334D01*
X179554184Y-107116889D01*
X179828785Y-106974478D01*
X179887460Y-106945077D01*
X179986535Y-106896517D01*
X180103526Y-106840507D01*
X180233150Y-106779445D01*
X180370123Y-106715731D01*
X180509161Y-106651764D01*
X180644980Y-106589944D01*
X180772297Y-106532669D01*
X180885828Y-106482340D01*
X180980288Y-106441355D01*
X181050396Y-106412113D01*
X181090866Y-106397016D01*
X181097787Y-106395469D01*
X181119863Y-106388367D01*
X181173170Y-106368819D01*
X181250705Y-106339457D01*
X181345466Y-106302918D01*
X181392123Y-106284733D01*
X181672866Y-106179494D01*
X181984239Y-106070811D01*
X182316294Y-105961770D01*
X182659082Y-105855453D01*
X183002655Y-105754945D01*
X183337065Y-105663329D01*
X183652362Y-105583689D01*
X183658415Y-105582237D01*
X183782915Y-105552296D01*
X183898254Y-105524355D01*
X183996646Y-105500315D01*
X184070309Y-105482077D01*
X184110518Y-105471797D01*
X184164735Y-105458860D01*
X184252482Y-105439864D01*
X184366863Y-105416156D01*
X184500979Y-105389084D01*
X184647933Y-105359996D01*
X184800830Y-105330241D01*
X184952772Y-105301167D01*
X185096861Y-105274122D01*
X185226201Y-105250455D01*
X185333894Y-105231513D01*
X185374353Y-105224743D01*
X185496545Y-105204778D01*
X185625006Y-105183797D01*
X185743469Y-105164458D01*
X185826457Y-105150918D01*
X186020606Y-105121305D01*
X186246903Y-105090237D01*
X186496464Y-105058692D01*
X186760410Y-105027647D01*
X187029859Y-104998082D01*
X187295930Y-104970975D01*
X187549741Y-104947305D01*
X187782411Y-104928049D01*
X187963674Y-104915469D01*
X188105183Y-104906504D01*
X188256762Y-104896382D01*
X188403316Y-104886142D01*
X188529750Y-104876824D01*
X188569903Y-104873699D01*
X188681772Y-104866690D01*
X188829138Y-104860351D01*
X189006404Y-104854727D01*
X189207973Y-104849866D01*
X189428247Y-104845813D01*
X189661627Y-104842614D01*
X189902517Y-104840317D01*
X190145319Y-104838967D01*
X190384434Y-104838610D01*
X190614265Y-104839294D01*
G37*
%TD.AperFunction*%
%TD*%
D11*
X252645575Y-92938897D03*
X153501580Y-123186031D03*
X273604271Y-152758428D03*
X157036079Y-139814540D03*
X200876966Y-158738623D03*
M02*
