%TF.GenerationSoftware,KiCad,Pcbnew,8.0.5*%
%TF.CreationDate,2024-10-14T21:05:47+01:00*%
%TF.ProjectId,backplate_logos,6261636b-706c-4617-9465-5f6c6f676f73,v1.0.0*%
%TF.SameCoordinates,Original*%
%TF.FileFunction,Profile,NP*%
%FSLAX46Y46*%
G04 Gerber Fmt 4.6, Leading zero omitted, Abs format (unit mm)*
G04 Created by KiCad (PCBNEW 8.0.5) date 2024-10-14 21:05:47*
%MOMM*%
%LPD*%
G01*
G04 APERTURE LIST*
%TA.AperFunction,Profile*%
%ADD10C,0.150000*%
%TD*%
%ADD11C,0.350000*%
G04 APERTURE END LIST*
D10*
X168655628Y-97677555D02*
G75*
G02*
X167203501Y-99880135I-1981128J-273845D01*
G01*
X227341300Y-164955762D02*
X206168788Y-166808117D01*
X185386357Y-86430639D02*
X186630884Y-81461238D01*
X151563760Y-104169986D02*
X167203504Y-99880147D01*
X247362601Y-166740898D02*
G75*
G02*
X247812103Y-166834614I-180601J-1991102D01*
G01*
X142343299Y-162362058D02*
G75*
G02*
X139963237Y-160782389I-415799J1956358D01*
G01*
X229967129Y-87046665D02*
X230045575Y-87438897D01*
X205094923Y-166602009D02*
X181177165Y-154557270D01*
X227341300Y-164955762D02*
G75*
G02*
X227696353Y-164956337I174300J-1992638D01*
G01*
X267161823Y-173259480D02*
X247812104Y-166834612D01*
X139963257Y-160782385D02*
X130357471Y-110684788D01*
X209531893Y-80092485D02*
X211505341Y-84289860D01*
X247362601Y-166740898D02*
X227696353Y-164956335D01*
X168655628Y-97677555D02*
X167825855Y-91674176D01*
X230045575Y-87438897D02*
X276445575Y-87438897D01*
X228005967Y-85438897D02*
G75*
G02*
X229967084Y-87046674I33J-1999903D01*
G01*
X206168788Y-166808117D02*
G75*
G02*
X205094923Y-166602010I-174288J1992517D01*
G01*
X179861788Y-154387257D02*
G75*
G02*
X181177163Y-154557273I415812J-1956343D01*
G01*
X188466297Y-79949850D02*
X207617287Y-78946189D01*
X213315275Y-85438897D02*
G75*
G02*
X211505311Y-84289874I25J2000097D01*
G01*
X278445575Y-152501955D02*
G75*
G02*
X278263344Y-153336024I-1999675J-45D01*
G01*
X167825855Y-91674176D02*
G75*
G02*
X169597969Y-89411357I1981045J273876D01*
G01*
X131905867Y-108351870D02*
X151450542Y-104197521D01*
X269609847Y-172195452D02*
G75*
G02*
X267161832Y-173259454I-1817747J834052D01*
G01*
X276445575Y-87438897D02*
G75*
G02*
X278445603Y-89438897I25J-2000003D01*
G01*
X151563760Y-104169986D02*
G75*
G02*
X151450541Y-104197518I-529160J1929486D01*
G01*
X185386357Y-86430639D02*
G75*
G02*
X183655329Y-87933812I-1940057J485839D01*
G01*
X142343299Y-162362058D02*
X179861788Y-154387257D01*
X169597963Y-89411300D02*
X183655329Y-87933811D01*
X278445575Y-89438897D02*
X278445575Y-152501955D01*
X186630884Y-81461238D02*
G75*
G02*
X188466296Y-79949831I1940016J-485762D01*
G01*
X278263354Y-153336029D02*
X269609847Y-172195452D01*
X213315275Y-85438897D02*
X228005967Y-85438897D01*
X207617287Y-78946189D02*
G75*
G02*
X209531939Y-80092464I104813J-1997111D01*
G01*
X130357471Y-110684788D02*
G75*
G02*
X131905858Y-108351826I1964329J376588D01*
G01*
D11*
X252645575Y-92938897D03*
X153501580Y-123186031D03*
X273604271Y-152758428D03*
X157036079Y-139814540D03*
X200876966Y-158738623D03*
M02*
