0
SECTION
2
HEADER
9
$INSUNITS
70
4
0
ENDSEC
0
SECTION
2
TABLES
0
TABLE
2
LTYPE
0
LTYPE
72
65
70
64
2
CONTINUOUS
3
______
73
0
40
0
0
ENDTAB
0
TABLE
2
LAYER
0
ENDTAB
0
ENDSEC
0
SECTION
2
ENTITIES
0
LINE
8
0
10
278.2633538
20
-153.3360292
11
269.6098467
21
-172.1954522
0
LINE
8
0
10
267.1618233
20
-173.2594799
11
247.8121038
21
-166.8346117
0
LINE
8
0
10
247.3626014
20
-166.7408975
11
227.6963534
21
-164.9563352
0
LINE
8
0
10
227.3412998
20
-164.9557621
11
206.1687878
21
-166.8081168
0
LINE
8
0
10
205.094923
20
-166.6020095
11
181.1771649
21
-154.5572704
0
LINE
8
0
10
142.3432992
20
-162.3620583
11
179.8617881
21
-154.3872573
0
LINE
8
0
10
139.9632569
20
-160.7823853
11
130.3574712
21
-110.6847877
0
LINE
8
0
10
131.9058667
20
-108.3518703
11
151.4505425
21
-104.1975213
0
LINE
8
0
10
151.5637603
20
-104.1699862
11
167.2035038
21
-99.8801474
0
LINE
8
0
10
168.6556278
20
-97.6775553
11
167.8258547
21
-91.674176
0
LINE
8
0
10
169.597963
20
-89.4113002
11
183.655329
21
-87.9338114
0
LINE
8
0
10
185.3863569
20
-86.4306387
11
186.6308836
21
-81.4612382
0
LINE
8
0
10
188.4662965
20
-79.9498502
11
207.6172868
21
-78.9461893
0
LINE
8
0
10
209.531893
20
-80.0924854
11
211.5053409
21
-84.2898601
0
LINE
8
0
10
213.3152751
20
-85.4388971
11
228.0059672
21
-85.4388971
0
LINE
8
0
10
229.9671285
20
-87.0466647
11
230.045575
21
-87.438897
0
LINE
8
0
10
230.045575
20
-87.438897
11
276.445575
21
-87.438897
0
LINE
8
0
10
278.445575
20
-89.438897
11
278.445575
21
-152.5019548
0
ARC
8
0
10
267.7920679
20
-171.3613778
40
2
50
251.6318034
51
335.3523252
0
ARC
8
0
10
247.1818592
20
-168.7327138
40
2
50
71.6318034
51
84.8150436
0
ARC
8
0
10
227.5156112
20
-166.9481515
40
2
50
84.8150436
51
94.9999976
0
ARC
8
0
10
205.9944764
20
-164.8157274
40
2
50
243.2706408
51
274.9999976
0
ARC
8
0
10
180.2776115
20
-156.3435525
40
2
50
63.2706408
51
102.0000005
0
ARC
8
0
10
141.9274758
20
-160.4057631
40
2
50
190.8542386
51
282.0000005
0
ARC
8
0
10
132.3216901
20
-110.3081655
40
2
50
102.0000005
51
190.8542386
0
ARC
8
0
10
151.0347191
20
-102.2412261
40
2
50
282.0000005
51
285.3384693
0
ARC
8
0
10
166.6744625
20
-97.9513873
40
2
50
285.3384693
51
7.8694272
0
ARC
8
0
10
169.80702
20
-91.400344
40
2
50
96.0000021
51
187.8694272
0
ARC
8
0
10
183.446272
20
-85.9447677
40
2
50
276.0000021
51
345.9401384
0
ARC
8
0
10
188.5709685
20
-81.9471092
40
2
50
93.0000026
51
165.9401384
0
ARC
8
0
10
207.7219588
20
-80.9434484
40
2
50
25.1811451
51
93.0000026
0
ARC
8
0
10
213.3152751
20
-83.4388971
40
2
50
205.1811451
51
270
0
ARC
8
0
10
228.0059672
20
-87.4388971
40
2
50
11.3099358
51
90
0
ARC
8
0
10
276.445575
20
-89.438897
40
2
50
0
51
90
0
ARC
8
0
10
276.445575
20
-152.5019548
40
2
50
335.3523252
51
0
0
CIRCLE
8
0
10
153.5015804
20
-123.186031
40
1.1
0
CIRCLE
8
0
10
157.036079
20
-139.8145402
40
1.1
0
CIRCLE
8
0
10
252.645575
20
-92.938897
40
1.1
0
CIRCLE
8
0
10
273.6042705
20
-152.7584284
40
1.1
0
CIRCLE
8
0
10
200.8769659
20
-158.7386226
40
1.1
0
ENDSEC
0
EOF