0
SECTION
2
HEADER
9
$INSUNITS
70
4
0
ENDSEC
0
SECTION
2
TABLES
0
TABLE
2
LTYPE
0
LTYPE
72
65
70
64
2
CONTINUOUS
3
______
73
0
40
0
0
ENDTAB
0
TABLE
2
LAYER
0
ENDTAB
0
ENDSEC
0
SECTION
2
ENTITIES
0
LINE
8
0
10
280.5965574
20
-158.1644133
11
271.9430505
21
-177.0238362
0
LINE
8
0
10
269.4950271
20
-178.0878639
11
250.1453076
21
-171.6629957
0
LINE
8
0
10
249.6958052
20
-171.5692815
11
230.0295572
21
-169.7847192
0
LINE
8
0
10
229.6745036
20
-169.7841461
11
208.49882
21
-171.6367783
0
LINE
8
0
10
207.4302234
20
-171.4333143
11
179.5493731
21
-157.4956536
0
LINE
8
0
10
178.4558071
20
-157.2945319
11
161.4036255
21
-159.0021155
0
LINE
8
0
10
161.3245601
20
-159.0116264
11
140.4371983
21
-161.9471536
0
LINE
8
0
10
138.1831352
20
-160.2773309
11
130.2588834
21
-109.8898056
0
LINE
8
0
10
131.9562541
20
-107.5985561
11
151.7168614
21
-104.8213838
0
LINE
8
0
10
151.7409992
20
-104.8178412
11
172.404177
21
-101.6563336
0
LINE
8
0
10
174.101522
20
-99.6531875
11
174.0052755
21
-92.2934337
0
LINE
8
0
10
176.0051045
20
-90.2672811
11
189.7323889
21
-90.2672811
0
LINE
8
0
10
191.7260195
20
-88.4267715
11
191.8315379
21
-87.1077907
0
LINE
8
0
10
193.8251685
20
-85.2672811
11
212.1323889
21
-85.2672811
0
LINE
8
0
10
214.1260195
20
-87.1077907
11
214.2315379
21
-88.4267715
0
LINE
8
0
10
216.2251685
20
-90.2672811
11
230.3391708
21
-90.2672811
0
LINE
8
0
10
232.3003322
20
-91.8750489
11
232.3787786
21
-92.2672811
0
LINE
8
0
10
232.3787786
20
-92.2672811
11
278.7787786
21
-92.2672811
0
LINE
8
0
10
280.7787786
20
-94.2672811
11
280.7787786
21
-157.3303389
0
ARC
8
0
10
270.1252717
20
-176.1897618
40
2
50
251.6318034
51
335.3523252
0
ARC
8
0
10
249.515063
20
-173.5610978
40
2
50
71.6318034
51
84.8150436
0
ARC
8
0
10
229.848815
20
-171.7765355
40
2
50
84.8150436
51
94.9999976
0
ARC
8
0
10
208.3245086
20
-169.6443889
40
2
50
243.439497
51
274.9999976
0
ARC
8
0
10
178.6550879
20
-159.2845789
40
2
50
63.439497
51
95.7184636
0
ARC
8
0
10
161.6029063
20
-160.9921625
40
2
50
95.7184636
51
97.9999997
0
ARC
8
0
10
140.1588521
20
-159.9666175
40
2
50
188.9374846
51
277.9999997
0
ARC
8
0
10
132.2346003
20
-109.5790922
40
2
50
97.9999997
51
188.9374846
0
ARC
8
0
10
151.4385152
20
-102.8408477
40
2
50
277.9999997
51
278.6989088
0
ARC
8
0
10
172.101693
20
-99.6793401
40
2
50
278.6989088
51
0.7492382
0
ARC
8
0
10
176.0051045
20
-92.2672811
40
2
50
90
51
180.7492382
0
ARC
8
0
10
189.7323889
20
-88.2672811
40
2
50
270
51
355.4260801
0
ARC
8
0
10
193.8251685
20
-87.2672811
40
2
50
90
51
175.4260801
0
ARC
8
0
10
212.1323889
20
-87.2672811
40
2
50
4.5739199
51
90
0
ARC
8
0
10
216.2251685
20
-88.2672811
40
2
50
184.5739199
51
270
0
ARC
8
0
10
230.3391708
20
-92.2672811
40
2
50
11.3099302
51
90
0
ARC
8
0
10
278.7787786
20
-94.2672811
40
2
50
0
51
90
0
ARC
8
0
10
278.7787786
20
-157.3303389
40
2
50
335.3523252
51
0
0
LINE
8
0
10
141.4930644
20
-159.5266493
11
158.8227556
21
-157.09112
0
LINE
8
0
10
158.8227556
20
-157.09112
11
156.5263994
21
-140.7516969
0
LINE
8
0
10
156.5263994
20
-140.7516969
11
139.1967082
21
-143.1872262
0
LINE
8
0
10
139.1967082
20
-143.1872262
11
141.4930644
21
-159.5266493
0
LINE
8
0
10
138.1368536
20
-142.8312652
11
155.4665448
21
-140.3957359
0
LINE
8
0
10
155.4665448
20
-140.3957359
11
153.1701886
21
-124.0563128
0
LINE
8
0
10
153.1701886
20
-124.0563128
11
135.8404974
21
-126.4918421
0
LINE
8
0
10
135.8404974
20
-126.4918421
11
138.1368536
21
-142.8312652
0
LINE
8
0
10
134.7806428
20
-126.1358811
11
152.110334
21
-123.7003518
0
LINE
8
0
10
152.110334
20
-123.7003518
11
149.8139778
21
-107.3609287
0
LINE
8
0
10
149.8139778
20
-107.3609287
11
132.4842866
21
-109.796458
0
LINE
8
0
10
132.4842866
20
-109.796458
11
134.7806428
21
-126.1358811
0
LINE
8
0
10
159.1728487
20
-156.370035
11
176.6302195
21
-155.1492967
0
LINE
8
0
10
176.6302195
20
-155.1492967
11
175.4792377
21
-138.6894898
0
LINE
8
0
10
175.4792377
20
-138.6894898
11
158.0218669
21
-139.9102281
0
LINE
8
0
10
158.0218669
20
-139.9102281
11
159.1728487
21
-156.370035
0
LINE
8
0
10
157.4882066
20
-139.4463243
11
174.9455774
21
-138.225586
0
LINE
8
0
10
174.9455774
20
-138.225586
11
173.7945956
21
-121.7657791
0
LINE
8
0
10
173.7945956
20
-121.7657791
11
156.3372248
21
-122.9865174
0
LINE
8
0
10
156.3372248
20
-122.9865174
11
157.4882066
21
-139.4463243
0
LINE
8
0
10
155.8035645
20
-122.5226136
11
173.2609353
21
-121.3018753
0
LINE
8
0
10
173.2609353
20
-121.3018753
11
172.1099535
21
-104.8420684
0
LINE
8
0
10
172.1099535
20
-104.8420684
11
154.6525827
21
-106.0628067
0
LINE
8
0
10
154.6525827
20
-106.0628067
11
155.8035645
21
-122.5226136
0
LINE
8
0
10
176.2287787
20
-143.0172811
11
193.7287787
21
-143.0172811
0
LINE
8
0
10
193.7287787
20
-143.0172811
11
193.7287787
21
-126.5172811
0
LINE
8
0
10
193.7287787
20
-126.5172811
11
176.2287787
21
-126.5172811
0
LINE
8
0
10
176.2287787
20
-126.5172811
11
176.2287787
21
-143.0172811
0
LINE
8
0
10
176.2287787
20
-126.0172811
11
193.7287787
21
-126.0172811
0
LINE
8
0
10
193.7287787
20
-126.0172811
11
193.7287787
21
-109.5172811
0
LINE
8
0
10
193.7287787
20
-109.5172811
11
176.2287787
21
-109.5172811
0
LINE
8
0
10
176.2287787
20
-109.5172811
11
176.2287787
21
-126.0172811
0
LINE
8
0
10
176.2287787
20
-109.0172811
11
193.7287787
21
-109.0172811
0
LINE
8
0
10
193.7287787
20
-109.0172811
11
193.7287787
21
-92.5172811
0
LINE
8
0
10
193.7287787
20
-92.5172811
11
176.2287787
21
-92.5172811
0
LINE
8
0
10
176.2287787
20
-92.5172811
11
176.2287787
21
-109.0172811
0
LINE
8
0
10
194.2287787
20
-138.0172811
11
211.7287787
21
-138.0172811
0
LINE
8
0
10
211.7287787
20
-138.0172811
11
211.7287787
21
-121.5172811
0
LINE
8
0
10
211.7287787
20
-121.5172811
11
194.2287787
21
-121.5172811
0
LINE
8
0
10
194.2287787
20
-121.5172811
11
194.2287787
21
-138.0172811
0
LINE
8
0
10
194.2287787
20
-121.0172811
11
211.7287787
21
-121.0172811
0
LINE
8
0
10
211.7287787
20
-121.0172811
11
211.7287787
21
-104.5172811
0
LINE
8
0
10
211.7287787
20
-104.5172811
11
194.2287787
21
-104.5172811
0
LINE
8
0
10
194.2287787
20
-104.5172811
11
194.2287787
21
-121.0172811
0
LINE
8
0
10
194.2287787
20
-104.0172811
11
211.7287787
21
-104.0172811
0
LINE
8
0
10
211.7287787
20
-104.0172811
11
211.7287787
21
-87.5172811
0
LINE
8
0
10
211.7287787
20
-87.5172811
11
194.2287787
21
-87.5172811
0
LINE
8
0
10
194.2287787
20
-87.5172811
11
194.2287787
21
-104.0172811
0
LINE
8
0
10
212.2287787
20
-143.0172811
11
229.7287787
21
-143.0172811
0
LINE
8
0
10
229.7287787
20
-143.0172811
11
229.7287787
21
-126.5172811
0
LINE
8
0
10
229.7287787
20
-126.5172811
11
212.2287787
21
-126.5172811
0
LINE
8
0
10
212.2287787
20
-126.5172811
11
212.2287787
21
-143.0172811
0
LINE
8
0
10
212.2287787
20
-126.0172811
11
229.7287787
21
-126.0172811
0
LINE
8
0
10
229.7287787
20
-126.0172811
11
229.7287787
21
-109.5172811
0
LINE
8
0
10
229.7287787
20
-109.5172811
11
212.2287787
21
-109.5172811
0
LINE
8
0
10
212.2287787
20
-109.5172811
11
212.2287787
21
-126.0172811
0
LINE
8
0
10
212.2287787
20
-109.0172811
11
229.7287787
21
-109.0172811
0
LINE
8
0
10
229.7287787
20
-109.0172811
11
229.7287787
21
-92.5172811
0
LINE
8
0
10
229.7287787
20
-92.5172811
11
212.2287787
21
-92.5172811
0
LINE
8
0
10
212.2287787
20
-92.5172811
11
212.2287787
21
-109.0172811
0
LINE
8
0
10
230.2287786
20
-145.0172811
11
247.7287786
21
-145.0172811
0
LINE
8
0
10
247.7287786
20
-145.0172811
11
247.7287786
21
-128.5172811
0
LINE
8
0
10
247.7287786
20
-128.5172811
11
230.2287786
21
-128.5172811
0
LINE
8
0
10
230.2287786
20
-128.5172811
11
230.2287786
21
-145.0172811
0
LINE
8
0
10
230.2287786
20
-128.0172811
11
247.7287786
21
-128.0172811
0
LINE
8
0
10
247.7287786
20
-128.0172811
11
247.7287786
21
-111.5172811
0
LINE
8
0
10
247.7287786
20
-111.5172811
11
230.2287786
21
-111.5172811
0
LINE
8
0
10
230.2287786
20
-111.5172811
11
230.2287786
21
-128.0172811
0
LINE
8
0
10
230.2287786
20
-111.0172811
11
247.7287786
21
-111.0172811
0
LINE
8
0
10
247.7287786
20
-111.0172811
11
247.7287786
21
-94.5172811
0
LINE
8
0
10
247.7287786
20
-94.5172811
11
230.2287786
21
-94.5172811
0
LINE
8
0
10
230.2287786
20
-94.5172811
11
230.2287786
21
-111.0172811
0
LINE
8
0
10
209.98111
20
-169.2485001
11
227.4145172
21
-167.7232746
0
LINE
8
0
10
227.4145172
20
-167.7232746
11
225.9764474
21
-151.2860621
0
LINE
8
0
10
225.9764474
20
-151.2860621
11
208.5430402
21
-152.8112876
0
LINE
8
0
10
208.5430402
20
-152.8112876
11
209.98111
21
-169.2485001
0
LINE
8
0
10
231.5430402
20
-167.7232746
11
248.9764474
21
-169.2485001
0
LINE
8
0
10
248.9764474
20
-169.2485001
11
250.4145172
21
-152.8112876
0
LINE
8
0
10
250.4145172
20
-152.8112876
11
232.98111
21
-151.2860621
0
LINE
8
0
10
232.98111
20
-151.2860621
11
231.5430402
21
-167.7232746
0
LINE
8
0
10
253.107644
20
-170.4095987
11
269.751133
21
-175.8173961
0
LINE
8
0
10
269.751133
20
-175.8173961
11
274.8499134
21
-160.1249635
0
LINE
8
0
10
274.8499134
20
-160.1249635
11
258.2064244
21
-154.7171661
0
LINE
8
0
10
258.2064244
20
-154.7171661
11
253.107644
21
-170.4095987
0
ENDSEC
0
EOF