0
SECTION
2
HEADER
9
$INSUNITS
70
4
0
ENDSEC
0
SECTION
2
TABLES
0
TABLE
2
LTYPE
0
LTYPE
72
65
70
64
2
CONTINUOUS
3
______
73
0
40
0
0
ENDTAB
0
TABLE
2
LAYER
0
ENDTAB
0
ENDSEC
0
SECTION
2
ENTITIES
0
LINE
8
0
10
278.2633538
20
-153.3360292
11
269.6098467
21
-172.1954522
0
LINE
8
0
10
267.1618233
20
-173.2594799
11
247.8121038
21
-166.8346117
0
LINE
8
0
10
247.3626014
20
-166.7408975
11
227.6963534
21
-164.9563352
0
LINE
8
0
10
227.3412998
20
-164.9557621
11
206.1687878
21
-166.8081168
0
LINE
8
0
10
205.094923
20
-166.6020095
11
181.1771649
21
-154.5572704
0
LINE
8
0
10
142.3432992
20
-162.3620583
11
179.8617881
21
-154.3872573
0
LINE
8
0
10
139.9632569
20
-160.7823853
11
130.3574712
21
-110.6847877
0
LINE
8
0
10
131.9058667
20
-108.3518703
11
151.4505425
21
-104.1975213
0
LINE
8
0
10
151.5637603
20
-104.1699862
11
167.2035038
21
-99.8801474
0
LINE
8
0
10
168.6556278
20
-97.6775553
11
167.8258547
21
-91.674176
0
LINE
8
0
10
169.597963
20
-89.4113002
11
183.655329
21
-87.9338114
0
LINE
8
0
10
185.3863569
20
-86.4306387
11
186.6308836
21
-81.4612382
0
LINE
8
0
10
188.4662965
20
-79.9498502
11
207.6172868
21
-78.9461893
0
LINE
8
0
10
209.531893
20
-80.0924854
11
211.5053409
21
-84.2898601
0
LINE
8
0
10
213.3152751
20
-85.4388971
11
228.0059672
21
-85.4388971
0
LINE
8
0
10
229.9671285
20
-87.0466647
11
230.045575
21
-87.438897
0
LINE
8
0
10
230.045575
20
-87.438897
11
276.445575
21
-87.438897
0
LINE
8
0
10
278.445575
20
-89.438897
11
278.445575
21
-152.5019548
0
ARC
8
0
10
267.7920679
20
-171.3613778
40
2
50
251.6318034
51
335.3523252
0
ARC
8
0
10
247.1818592
20
-168.7327138
40
2
50
71.6318034
51
84.8150436
0
ARC
8
0
10
227.5156112
20
-166.9481515
40
2
50
84.8150436
51
94.9999976
0
ARC
8
0
10
205.9944764
20
-164.8157274
40
2
50
243.2706408
51
274.9999976
0
ARC
8
0
10
180.2776115
20
-156.3435525
40
2
50
63.2706408
51
102.0000005
0
ARC
8
0
10
141.9274758
20
-160.4057631
40
2
50
190.8542386
51
282.0000005
0
ARC
8
0
10
132.3216901
20
-110.3081655
40
2
50
102.0000005
51
190.8542386
0
ARC
8
0
10
151.0347191
20
-102.2412261
40
2
50
282.0000005
51
285.3384693
0
ARC
8
0
10
166.6744625
20
-97.9513873
40
2
50
285.3384693
51
7.8694272
0
ARC
8
0
10
169.80702
20
-91.400344
40
2
50
96.0000021
51
187.8694272
0
ARC
8
0
10
183.446272
20
-85.9447677
40
2
50
276.0000021
51
345.9401384
0
ARC
8
0
10
188.5709685
20
-81.9471092
40
2
50
93.0000026
51
165.9401384
0
ARC
8
0
10
207.7219588
20
-80.9434484
40
2
50
25.1811451
51
93.0000026
0
ARC
8
0
10
213.3152751
20
-83.4388971
40
2
50
205.1811451
51
270
0
ARC
8
0
10
228.0059672
20
-87.4388971
40
2
50
11.3099358
51
90
0
ARC
8
0
10
276.445575
20
-89.438897
40
2
50
0
51
90
0
ARC
8
0
10
276.445575
20
-152.5019548
40
2
50
335.3523252
51
0
0
LINE
8
0
10
143.1564799
20
-159.888945
11
160.274063
21
-156.2504904
0
LINE
8
0
10
160.274063
20
-156.2504904
11
156.8435201
21
-140.111055
0
LINE
8
0
10
156.8435201
20
-140.111055
11
139.725937
21
-143.7495096
0
LINE
8
0
10
139.725937
20
-143.7495096
11
143.1564799
21
-159.888945
0
LINE
8
0
10
139.6219812
20
-143.2604358
11
156.7395643
21
-139.6219812
0
LINE
8
0
10
156.7395643
20
-139.6219812
11
153.3090214
21
-123.4825458
0
LINE
8
0
10
153.3090214
20
-123.4825458
11
136.1914383
21
-127.1210004
0
LINE
8
0
10
136.1914383
20
-127.1210004
11
139.6219812
21
-143.2604358
0
LINE
8
0
10
136.0874825
20
-126.6319266
11
153.2050656
21
-122.993472
0
LINE
8
0
10
153.2050656
20
-122.993472
11
149.7745227
21
-106.8540366
0
LINE
8
0
10
149.7745227
20
-106.8540366
11
132.6569396
21
-110.4924912
0
LINE
8
0
10
132.6569396
20
-110.4924912
11
136.0874825
21
-126.6319266
0
LINE
8
0
10
160.7631367
20
-156.1465346
11
177.8807198
21
-152.50808
0
LINE
8
0
10
177.8807198
20
-152.50808
11
175.6089164
21
-141.8200852
0
LINE
8
0
10
174.9800634
20
-138.8615648
11
174.4501769
21
-136.3686446
0
LINE
8
0
10
174.4501769
20
-136.3686446
11
157.3325938
21
-140.0070992
0
LINE
8
0
10
157.3325938
20
-140.0070992
11
160.7631367
21
-156.1465346
0
LINE
8
0
10
157.228638
20
-139.5180254
11
174.3462211
21
-135.8795708
0
LINE
8
0
10
174.3462211
20
-135.8795708
11
170.9156782
21
-119.7401354
0
LINE
8
0
10
170.9156782
20
-119.7401354
11
153.7980951
21
-123.37859
0
LINE
8
0
10
153.7980951
20
-123.37859
11
157.228638
21
-139.5180254
0
LINE
8
0
10
153.6941393
20
-122.8895162
11
170.8117224
21
-119.2510616
0
LINE
8
0
10
170.8117224
20
-119.2510616
11
167.3811795
21
-103.1116262
0
LINE
8
0
10
167.3811795
20
-103.1116262
11
150.2635964
21
-106.7500808
0
LINE
8
0
10
150.2635964
20
-106.7500808
11
153.6941393
21
-122.8895162
0
LINE
8
0
10
175.6089164
20
-141.8200852
11
192.6986231
21
-140.0238847
0
LINE
8
0
10
192.6986231
20
-140.0238847
11
190.9739035
21
-123.6142734
0
LINE
8
0
10
190.9739035
20
-123.6142734
11
173.5697703
21
-125.4435215
0
LINE
8
0
10
173.5697703
20
-125.4435215
11
174.9800634
21
-138.8615648
0
LINE
8
0
10
173.517506
20
-124.9462606
11
190.9216392
21
-123.1170125
0
LINE
8
0
10
190.9216392
20
-123.1170125
11
189.1969196
21
-106.7074012
0
LINE
8
0
10
189.1969196
20
-106.7074012
11
171.7927864
21
-108.5366493
0
LINE
8
0
10
171.7927864
20
-108.5366493
11
173.517506
21
-124.9462606
0
LINE
8
0
10
171.7405221
20
-108.0393884
11
189.1446553
21
-106.2101403
0
LINE
8
0
10
189.1446553
20
-106.2101403
11
187.4199357
21
-89.800529
0
LINE
8
0
10
187.4199357
20
-89.800529
11
170.0158025
21
-91.6297771
0
LINE
8
0
10
170.0158025
20
-91.6297771
11
171.7405221
21
-108.0393884
0
LINE
8
0
10
191.9976548
20
-132.5871708
11
209.4736717
21
-131.6712915
0
LINE
8
0
10
209.4736717
20
-131.6712915
11
208.6101284
21
-115.1939042
0
LINE
8
0
10
208.6101284
20
-115.1939042
11
191.1341115
21
-116.1097835
0
LINE
8
0
10
191.1341115
20
-116.1097835
11
191.9976548
21
-132.5871708
0
LINE
8
0
10
191.1079435
20
-115.6104687
11
208.5839604
21
-114.6945894
0
LINE
8
0
10
208.5839604
20
-114.6945894
11
207.7204171
21
-98.2172021
0
LINE
8
0
10
207.7204171
20
-98.2172021
11
190.2444002
21
-99.1330814
0
LINE
8
0
10
190.2444002
20
-99.1330814
11
191.1079435
21
-115.6104687
0
LINE
8
0
10
190.2182322
20
-98.6337666
11
207.6942491
21
-97.7178873
0
LINE
8
0
10
207.6942491
20
-97.7178873
11
206.8307058
21
-81.2405
0
LINE
8
0
10
206.8307058
20
-81.2405
11
189.3546889
21
-82.1563793
0
LINE
8
0
10
189.3546889
20
-82.1563793
11
190.2182322
21
-98.6337666
0
LINE
8
0
10
209.8955749
20
-138.1888971
11
227.3955749
21
-138.1888971
0
LINE
8
0
10
227.3955749
20
-138.1888971
11
227.3955749
21
-121.6888971
0
LINE
8
0
10
227.3955749
20
-121.6888971
11
209.8955749
21
-121.6888971
0
LINE
8
0
10
209.8955749
20
-121.6888971
11
209.8955749
21
-138.1888971
0
LINE
8
0
10
209.8955749
20
-121.1888971
11
227.3955749
21
-121.1888971
0
LINE
8
0
10
227.3955749
20
-121.1888971
11
227.3955749
21
-104.6888971
0
LINE
8
0
10
227.3955749
20
-104.6888971
11
209.8955749
21
-104.6888971
0
LINE
8
0
10
209.8955749
20
-104.6888971
11
209.8955749
21
-121.1888971
0
LINE
8
0
10
209.8955749
20
-104.1888971
11
227.3955749
21
-104.1888971
0
LINE
8
0
10
227.3955749
20
-104.1888971
11
227.3955749
21
-87.6888971
0
LINE
8
0
10
227.3955749
20
-87.6888971
11
209.8955749
21
-87.6888971
0
LINE
8
0
10
209.8955749
20
-87.6888971
11
209.8955749
21
-104.1888971
0
LINE
8
0
10
227.895575
20
-140.188897
11
245.395575
21
-140.188897
0
LINE
8
0
10
245.395575
20
-140.188897
11
245.395575
21
-123.688897
0
LINE
8
0
10
245.395575
20
-123.688897
11
227.895575
21
-123.688897
0
LINE
8
0
10
227.895575
20
-123.688897
11
227.895575
21
-140.188897
0
LINE
8
0
10
227.895575
20
-123.188897
11
245.395575
21
-123.188897
0
LINE
8
0
10
245.395575
20
-123.188897
11
245.395575
21
-106.688897
0
LINE
8
0
10
245.395575
20
-106.688897
11
227.895575
21
-106.688897
0
LINE
8
0
10
227.895575
20
-106.688897
11
227.895575
21
-123.188897
0
LINE
8
0
10
227.895575
20
-106.188897
11
245.395575
21
-106.188897
0
LINE
8
0
10
245.395575
20
-106.188897
11
245.395575
21
-89.688897
0
LINE
8
0
10
245.395575
20
-89.688897
11
227.895575
21
-89.688897
0
LINE
8
0
10
227.895575
20
-89.688897
11
227.895575
21
-106.188897
0
LINE
8
0
10
207.6479062
20
-164.4201161
11
225.0813134
21
-162.8948906
0
LINE
8
0
10
225.0813134
20
-162.8948906
11
223.6432436
21
-146.4576781
0
LINE
8
0
10
223.6432436
20
-146.4576781
11
206.2098364
21
-147.9829036
0
LINE
8
0
10
206.2098364
20
-147.9829036
11
207.6479062
21
-164.4201161
0
LINE
8
0
10
229.2098364
20
-162.8948906
11
246.6432436
21
-164.4201161
0
LINE
8
0
10
246.6432436
20
-164.4201161
11
248.0813134
21
-147.9829036
0
LINE
8
0
10
248.0813134
20
-147.9829036
11
230.6479062
21
-146.4576781
0
LINE
8
0
10
230.6479062
20
-146.4576781
11
229.2098364
21
-162.8948906
0
LINE
8
0
10
250.7744402
20
-165.5812147
11
267.4179292
21
-170.9890121
0
LINE
8
0
10
267.4179292
20
-170.9890121
11
272.5167096
21
-155.2965795
0
LINE
8
0
10
272.5167096
20
-155.2965795
11
255.8732206
21
-149.8887821
0
LINE
8
0
10
255.8732206
20
-149.8887821
11
250.7744402
21
-165.5812147
0
ENDSEC
0
EOF