0
SECTION
2
HEADER
9
$INSUNITS
70
4
0
ENDSEC
0
SECTION
2
TABLES
0
TABLE
2
LTYPE
0
LTYPE
72
65
70
64
2
CONTINUOUS
3
______
73
0
40
0
0
ENDTAB
0
TABLE
2
LAYER
0
ENDTAB
0
ENDSEC
0
SECTION
2
ENTITIES
0
LINE
8
0
10
141.4930644
20
-159.5266493
11
158.8227556
21
-157.09112
0
LINE
8
0
10
158.8227556
20
-157.09112
11
156.5263994
21
-140.7516969
0
LINE
8
0
10
156.5263994
20
-140.7516969
11
139.1967082
21
-143.1872262
0
LINE
8
0
10
139.1967082
20
-143.1872262
11
141.4930644
21
-159.5266493
0
LINE
8
0
10
138.1368536
20
-142.8312652
11
155.4665448
21
-140.3957359
0
LINE
8
0
10
155.4665448
20
-140.3957359
11
153.1701886
21
-124.0563128
0
LINE
8
0
10
153.1701886
20
-124.0563128
11
135.8404974
21
-126.4918421
0
LINE
8
0
10
135.8404974
20
-126.4918421
11
138.1368536
21
-142.8312652
0
LINE
8
0
10
134.7806428
20
-126.1358811
11
152.110334
21
-123.7003518
0
LINE
8
0
10
152.110334
20
-123.7003518
11
149.8139778
21
-107.3609287
0
LINE
8
0
10
149.8139778
20
-107.3609287
11
132.4842866
21
-109.796458
0
LINE
8
0
10
132.4842866
20
-109.796458
11
134.7806428
21
-126.1358811
0
LINE
8
0
10
159.1728487
20
-156.370035
11
176.6302195
21
-155.1492967
0
LINE
8
0
10
176.6302195
20
-155.1492967
11
175.4792377
21
-138.6894898
0
LINE
8
0
10
175.4792377
20
-138.6894898
11
158.0218669
21
-139.9102281
0
LINE
8
0
10
158.0218669
20
-139.9102281
11
159.1728487
21
-156.370035
0
LINE
8
0
10
157.4882066
20
-139.4463243
11
174.9455774
21
-138.225586
0
LINE
8
0
10
174.9455774
20
-138.225586
11
173.7945956
21
-121.7657791
0
LINE
8
0
10
173.7945956
20
-121.7657791
11
156.3372248
21
-122.9865174
0
LINE
8
0
10
156.3372248
20
-122.9865174
11
157.4882066
21
-139.4463243
0
LINE
8
0
10
155.8035645
20
-122.5226136
11
173.2609353
21
-121.3018753
0
LINE
8
0
10
173.2609353
20
-121.3018753
11
172.1099535
21
-104.8420684
0
LINE
8
0
10
172.1099535
20
-104.8420684
11
154.6525827
21
-106.0628067
0
LINE
8
0
10
154.6525827
20
-106.0628067
11
155.8035645
21
-122.5226136
0
LINE
8
0
10
176.2287787
20
-143.0172811
11
193.7287787
21
-143.0172811
0
LINE
8
0
10
193.7287787
20
-143.0172811
11
193.7287787
21
-126.5172811
0
LINE
8
0
10
193.7287787
20
-126.5172811
11
176.2287787
21
-126.5172811
0
LINE
8
0
10
176.2287787
20
-126.5172811
11
176.2287787
21
-143.0172811
0
LINE
8
0
10
176.2287787
20
-126.0172811
11
193.7287787
21
-126.0172811
0
LINE
8
0
10
193.7287787
20
-126.0172811
11
193.7287787
21
-109.5172811
0
LINE
8
0
10
193.7287787
20
-109.5172811
11
176.2287787
21
-109.5172811
0
LINE
8
0
10
176.2287787
20
-109.5172811
11
176.2287787
21
-126.0172811
0
LINE
8
0
10
176.2287787
20
-109.0172811
11
193.7287787
21
-109.0172811
0
LINE
8
0
10
193.7287787
20
-109.0172811
11
193.7287787
21
-92.5172811
0
LINE
8
0
10
193.7287787
20
-92.5172811
11
176.2287787
21
-92.5172811
0
LINE
8
0
10
176.2287787
20
-92.5172811
11
176.2287787
21
-109.0172811
0
LINE
8
0
10
194.2287787
20
-138.0172811
11
211.7287787
21
-138.0172811
0
LINE
8
0
10
211.7287787
20
-138.0172811
11
211.7287787
21
-121.5172811
0
LINE
8
0
10
211.7287787
20
-121.5172811
11
194.2287787
21
-121.5172811
0
LINE
8
0
10
194.2287787
20
-121.5172811
11
194.2287787
21
-138.0172811
0
LINE
8
0
10
194.2287787
20
-121.0172811
11
211.7287787
21
-121.0172811
0
LINE
8
0
10
211.7287787
20
-121.0172811
11
211.7287787
21
-104.5172811
0
LINE
8
0
10
211.7287787
20
-104.5172811
11
194.2287787
21
-104.5172811
0
LINE
8
0
10
194.2287787
20
-104.5172811
11
194.2287787
21
-121.0172811
0
LINE
8
0
10
194.2287787
20
-104.0172811
11
211.7287787
21
-104.0172811
0
LINE
8
0
10
211.7287787
20
-104.0172811
11
211.7287787
21
-87.5172811
0
LINE
8
0
10
211.7287787
20
-87.5172811
11
194.2287787
21
-87.5172811
0
LINE
8
0
10
194.2287787
20
-87.5172811
11
194.2287787
21
-104.0172811
0
LINE
8
0
10
212.2287787
20
-143.0172811
11
229.7287787
21
-143.0172811
0
LINE
8
0
10
229.7287787
20
-143.0172811
11
229.7287787
21
-126.5172811
0
LINE
8
0
10
229.7287787
20
-126.5172811
11
212.2287787
21
-126.5172811
0
LINE
8
0
10
212.2287787
20
-126.5172811
11
212.2287787
21
-143.0172811
0
LINE
8
0
10
212.2287787
20
-126.0172811
11
229.7287787
21
-126.0172811
0
LINE
8
0
10
229.7287787
20
-126.0172811
11
229.7287787
21
-109.5172811
0
LINE
8
0
10
229.7287787
20
-109.5172811
11
212.2287787
21
-109.5172811
0
LINE
8
0
10
212.2287787
20
-109.5172811
11
212.2287787
21
-126.0172811
0
LINE
8
0
10
212.2287787
20
-109.0172811
11
229.7287787
21
-109.0172811
0
LINE
8
0
10
229.7287787
20
-109.0172811
11
229.7287787
21
-92.5172811
0
LINE
8
0
10
229.7287787
20
-92.5172811
11
212.2287787
21
-92.5172811
0
LINE
8
0
10
212.2287787
20
-92.5172811
11
212.2287787
21
-109.0172811
0
LINE
8
0
10
230.2287786
20
-145.0172811
11
247.7287786
21
-145.0172811
0
LINE
8
0
10
247.7287786
20
-145.0172811
11
247.7287786
21
-128.5172811
0
LINE
8
0
10
247.7287786
20
-128.5172811
11
230.2287786
21
-128.5172811
0
LINE
8
0
10
230.2287786
20
-128.5172811
11
230.2287786
21
-145.0172811
0
LINE
8
0
10
230.2287786
20
-128.0172811
11
247.7287786
21
-128.0172811
0
LINE
8
0
10
247.7287786
20
-128.0172811
11
247.7287786
21
-111.5172811
0
LINE
8
0
10
247.7287786
20
-111.5172811
11
230.2287786
21
-111.5172811
0
LINE
8
0
10
230.2287786
20
-111.5172811
11
230.2287786
21
-128.0172811
0
LINE
8
0
10
230.2287786
20
-111.0172811
11
247.7287786
21
-111.0172811
0
LINE
8
0
10
247.7287786
20
-111.0172811
11
247.7287786
21
-94.5172811
0
LINE
8
0
10
247.7287786
20
-94.5172811
11
230.2287786
21
-94.5172811
0
LINE
8
0
10
230.2287786
20
-94.5172811
11
230.2287786
21
-111.0172811
0
LINE
8
0
10
209.98111
20
-169.2485001
11
227.4145172
21
-167.7232746
0
LINE
8
0
10
227.4145172
20
-167.7232746
11
225.9764474
21
-151.2860621
0
LINE
8
0
10
225.9764474
20
-151.2860621
11
208.5430402
21
-152.8112876
0
LINE
8
0
10
208.5430402
20
-152.8112876
11
209.98111
21
-169.2485001
0
LINE
8
0
10
231.5430402
20
-167.7232746
11
248.9764474
21
-169.2485001
0
LINE
8
0
10
248.9764474
20
-169.2485001
11
250.4145172
21
-152.8112876
0
LINE
8
0
10
250.4145172
20
-152.8112876
11
232.98111
21
-151.2860621
0
LINE
8
0
10
232.98111
20
-151.2860621
11
231.5430402
21
-167.7232746
0
LINE
8
0
10
253.107644
20
-170.4095987
11
269.751133
21
-175.8173961
0
LINE
8
0
10
269.751133
20
-175.8173961
11
274.8499134
21
-160.1249635
0
LINE
8
0
10
274.8499134
20
-160.1249635
11
258.2064244
21
-154.7171661
0
LINE
8
0
10
258.2064244
20
-154.7171661
11
253.107644
21
-170.4095987
0
ENDSEC
0
EOF