0
SECTION
2
HEADER
9
$INSUNITS
70
4
0
ENDSEC
0
SECTION
2
TABLES
0
TABLE
2
LTYPE
0
LTYPE
72
65
70
64
2
CONTINUOUS
3
______
73
0
40
0
0
ENDTAB
0
TABLE
2
LAYER
0
ENDTAB
0
ENDSEC
0
SECTION
2
ENTITIES
0
LINE
8
0
10
141.4930644
20
-159.5266493
11
158.8227556
21
-157.09112
0
LINE
8
0
10
158.8227556
20
-157.09112
11
157.7093708
21
-149.1689755
0
LINE
8
0
10
148.6042548
20
-141.8650817
11
139.1967082
21
-143.1872262
0
LINE
8
0
10
139.1967082
20
-143.1872262
11
141.4930644
21
-159.5266493
0
LINE
8
0
10
138.1368536
20
-142.8312652
11
148.5346683
21
-141.3699476
0
LINE
8
0
10
154.4227465
20
-132.9687255
11
154.35316
21
-132.4735913
0
LINE
8
0
10
145.7431781
20
-125.1001111
11
135.8404974
21
-126.4918421
0
LINE
8
0
10
135.8404974
20
-126.4918421
11
138.1368536
21
-142.8312652
0
LINE
8
0
10
134.7806428
20
-126.1358811
11
145.6735916
21
-124.604977
0
LINE
8
0
10
151.0665357
20
-116.2733413
11
149.8139778
21
-107.3609287
0
LINE
8
0
10
149.8139778
20
-107.3609287
11
132.4842866
21
-109.796458
0
LINE
8
0
10
132.4842866
20
-109.796458
11
134.7806428
21
-126.1358811
0
LINE
8
0
10
159.1728487
20
-156.370035
11
176.6302195
21
-155.1492967
0
LINE
8
0
10
176.6302195
20
-155.1492967
11
175.4792377
21
-138.6894898
0
LINE
8
0
10
175.4792377
20
-138.6894898
11
165.9238433
21
-139.3576681
0
LINE
8
0
10
158.6599596
20
-149.0353789
11
159.1728487
21
-156.370035
0
LINE
8
0
10
165.8540869
20
-138.861325
11
174.9455774
21
-138.225586
0
LINE
8
0
10
174.9455774
20
-138.225586
11
173.7945956
21
-121.7657791
0
LINE
8
0
10
173.7945956
20
-121.7657791
11
163.0521233
21
-122.516966
0
LINE
8
0
10
156.9748607
20
-132.1051353
11
157.0098241
21
-132.6051354
0
LINE
8
0
10
162.9823668
20
-122.0206228
11
173.2609353
21
-121.3018753
0
LINE
8
0
10
173.2609353
20
-121.3018753
11
172.1099535
21
-104.8420684
0
LINE
8
0
10
172.1099535
20
-104.8420684
11
154.6525827
21
-106.0628067
0
LINE
8
0
10
154.6525827
20
-106.0628067
11
155.3247252
21
-115.6748918
0
LINE
8
0
10
176.2287787
20
-143.0172811
11
193.7287787
21
-143.0172811
0
LINE
8
0
10
193.7287787
20
-143.0172811
11
193.7287787
21
-126.5172811
0
LINE
8
0
10
193.7287787
20
-126.5172811
11
176.2287787
21
-126.5172811
0
LINE
8
0
10
176.2287787
20
-126.5172811
11
176.2287787
21
-143.0172811
0
LINE
8
0
10
176.2287787
20
-126.0172811
11
193.7287787
21
-126.0172811
0
LINE
8
0
10
193.7287787
20
-126.0172811
11
193.7287787
21
-109.5172811
0
LINE
8
0
10
193.7287787
20
-109.5172811
11
176.2287787
21
-109.5172811
0
LINE
8
0
10
176.2287787
20
-109.5172811
11
176.2287787
21
-126.0172811
0
LINE
8
0
10
176.2287787
20
-109.0172811
11
193.7287787
21
-109.0172811
0
LINE
8
0
10
193.7287787
20
-109.0172811
11
193.7287787
21
-92.5172811
0
LINE
8
0
10
193.7287787
20
-92.5172811
11
176.2287787
21
-92.5172811
0
LINE
8
0
10
176.2287787
20
-92.5172811
11
176.2287787
21
-109.0172811
0
LINE
8
0
10
194.2287787
20
-138.0172811
11
211.7287787
21
-138.0172811
0
LINE
8
0
10
211.7287787
20
-138.0172811
11
211.7287787
21
-121.5172811
0
LINE
8
0
10
211.7287787
20
-121.5172811
11
194.2287787
21
-121.5172811
0
LINE
8
0
10
194.2287787
20
-121.5172811
11
194.2287787
21
-138.0172811
0
LINE
8
0
10
194.2287787
20
-121.0172811
11
211.7287787
21
-121.0172811
0
LINE
8
0
10
211.7287787
20
-121.0172811
11
211.7287787
21
-104.5172811
0
LINE
8
0
10
211.7287787
20
-104.5172811
11
194.2287787
21
-104.5172811
0
LINE
8
0
10
194.2287787
20
-104.5172811
11
194.2287787
21
-121.0172811
0
LINE
8
0
10
194.2287787
20
-104.0172811
11
211.7287787
21
-104.0172811
0
LINE
8
0
10
211.7287787
20
-104.0172811
11
211.7287787
21
-87.5172811
0
LINE
8
0
10
211.7287787
20
-87.5172811
11
194.2287787
21
-87.5172811
0
LINE
8
0
10
194.2287787
20
-87.5172811
11
194.2287787
21
-104.0172811
0
LINE
8
0
10
212.2287787
20
-143.0172811
11
229.7287787
21
-143.0172811
0
LINE
8
0
10
229.7287787
20
-143.0172811
11
229.7287787
21
-126.5172811
0
LINE
8
0
10
229.7287787
20
-126.5172811
11
212.2287787
21
-126.5172811
0
LINE
8
0
10
212.2287787
20
-126.5172811
11
212.2287787
21
-143.0172811
0
LINE
8
0
10
212.2287787
20
-126.0172811
11
229.7287787
21
-126.0172811
0
LINE
8
0
10
229.7287787
20
-126.0172811
11
229.7287787
21
-109.5172811
0
LINE
8
0
10
229.7287787
20
-109.5172811
11
212.2287787
21
-109.5172811
0
LINE
8
0
10
212.2287787
20
-109.5172811
11
212.2287787
21
-126.0172811
0
LINE
8
0
10
212.2287787
20
-109.0172811
11
229.7287787
21
-109.0172811
0
LINE
8
0
10
229.7287787
20
-109.0172811
11
229.7287787
21
-92.5172811
0
LINE
8
0
10
229.7287787
20
-92.5172811
11
212.2287787
21
-92.5172811
0
LINE
8
0
10
212.2287787
20
-92.5172811
11
212.2287787
21
-109.0172811
0
LINE
8
0
10
230.2287786
20
-145.0172811
11
247.7287786
21
-145.0172811
0
LINE
8
0
10
247.7287786
20
-145.0172811
11
247.7287786
21
-128.5172811
0
LINE
8
0
10
247.7287786
20
-128.5172811
11
230.2287786
21
-128.5172811
0
LINE
8
0
10
230.2287786
20
-128.5172811
11
230.2287786
21
-145.0172811
0
LINE
8
0
10
230.2287786
20
-128.0172811
11
247.7287786
21
-128.0172811
0
LINE
8
0
10
247.7287786
20
-128.0172811
11
247.7287786
21
-111.5172811
0
LINE
8
0
10
247.7287786
20
-111.5172811
11
230.2287786
21
-111.5172811
0
LINE
8
0
10
230.2287786
20
-111.5172811
11
230.2287786
21
-128.0172811
0
LINE
8
0
10
230.2287786
20
-111.0172811
11
247.7287786
21
-111.0172811
0
LINE
8
0
10
247.7287786
20
-111.0172811
11
247.7287786
21
-106.0172811
0
LINE
8
0
10
246.2287786
20
-94.5172811
11
230.2287786
21
-94.5172811
0
LINE
8
0
10
230.2287786
20
-94.5172811
11
230.2287786
21
-111.0172811
0
LINE
8
0
10
212.4715967
20
-169.0306107
11
227.4145172
21
-167.7232746
0
LINE
8
0
10
227.4145172
20
-167.7232746
11
225.9764474
21
-151.2860621
0
LINE
8
0
10
225.9764474
20
-151.2860621
11
208.5430402
21
-152.8112876
0
LINE
8
0
10
208.5430402
20
-152.8112876
11
208.7173517
21
-154.803677
0
LINE
8
0
10
231.5430402
20
-167.7232746
11
248.9764474
21
-169.2485001
0
LINE
8
0
10
248.9764474
20
-169.2485001
11
250.4145172
21
-152.8112876
0
LINE
8
0
10
250.4145172
20
-152.8112876
11
232.98111
21
-151.2860621
0
LINE
8
0
10
232.98111
20
-151.2860621
11
231.5430402
21
-167.7232746
0
LINE
8
0
10
253.107644
20
-170.4095987
11
269.751133
21
-175.8173961
0
LINE
8
0
10
269.751133
20
-175.8173961
11
273.1503199
21
-165.3557744
0
LINE
8
0
10
266.7659331
20
-157.4983191
11
258.2064244
21
-154.7171661
0
LINE
8
0
10
258.2064244
20
-154.7171661
11
253.107644
21
-170.4095987
0
LINE
8
0
10
154.35316
20
-132.4735913
11
156.9748607
21
-132.1051353
0
LINE
8
0
10
163.0521233
20
-122.516966
11
162.9823668
21
-122.0206228
0
LINE
8
0
10
155.3247252
20
-115.6748918
11
151.0665357
21
-116.2733413
0
LINE
8
0
10
145.6735916
20
-124.604977
11
145.7431781
21
-125.1001111
0
LINE
8
0
10
157.7093708
20
-149.1689755
11
158.6599596
21
-149.0353789
0
LINE
8
0
10
165.9238433
20
-139.3576681
11
165.8540869
21
-138.861325
0
LINE
8
0
10
157.0098241
20
-132.6051354
11
154.4227465
21
-132.9687255
0
LINE
8
0
10
148.5346683
20
-141.3699476
11
148.6042548
21
-141.8650817
0
LINE
8
0
10
247.7287786
20
-106.0172811
11
263.7287786
21
-106.0172811
0
LINE
8
0
10
263.7287786
20
-106.0172811
11
263.7287786
21
-89.5172811
0
LINE
8
0
10
263.7287786
20
-89.5172811
11
246.2287786
21
-89.5172811
0
LINE
8
0
10
246.2287786
20
-89.5172811
11
246.2287786
21
-94.5172811
0
LINE
8
0
10
273.1503199
20
-165.3557744
11
281.7098286
21
-168.1369274
0
LINE
8
0
10
281.7098286
20
-168.1369274
11
286.808609
21
-152.4444948
0
LINE
8
0
10
286.808609
20
-152.4444948
11
270.16512
21
-147.0366974
0
LINE
8
0
10
270.16512
20
-147.0366974
11
266.7659331
21
-157.4983191
0
LINE
8
0
10
195.212501
20
-172.5482256
11
212.6459082
21
-171.0230001
0
LINE
8
0
10
212.6459082
20
-171.0230001
11
212.4715967
21
-169.0306107
0
LINE
8
0
10
208.7173517
20
-154.803677
11
193.7744312
21
-156.1110131
0
LINE
8
0
10
193.7744312
20
-156.1110131
11
195.212501
21
-172.5482256
0
ENDSEC
0
EOF