0
SECTION
2
HEADER
9
$INSUNITS
70
4
0
ENDSEC
0
SECTION
2
TABLES
0
TABLE
2
LTYPE
0
LTYPE
72
65
70
64
2
CONTINUOUS
3
______
73
0
40
0
0
ENDTAB
0
TABLE
2
LAYER
0
ENDTAB
0
ENDSEC
0
SECTION
2
ENTITIES
0
LINE
8
0
10
139.5781007
20
-162.0678919
11
161.3639982
21
-159.0060837
0
LINE
8
0
10
161.3639982
20
-159.0060837
11
161.2897111
21
-158.4775038
0
LINE
8
0
10
137.212158
20
-145.2333347
11
139.5781007
21
-162.0678919
0
LINE
8
0
10
136.2218899
20
-145.3725078
11
137.212158
21
-145.2333347
0
LINE
8
0
10
133.8559472
20
-128.5379506
11
136.2218899
21
-145.3725078
0
LINE
8
0
10
132.8656791
20
-128.6771237
11
133.8559472
21
-128.5379506
0
LINE
8
0
10
152.885724
20
-113.0506211
11
151.7289415
21
-104.8196861
0
LINE
8
0
10
151.7289415
20
-104.8196861
11
129.943044
21
-107.8814943
0
LINE
8
0
10
129.943044
20
-107.8814943
11
132.8656791
21
-128.6771237
0
LINE
8
0
10
161.2897111
20
-158.4775038
11
179.0316907
21
-157.2368637
0
LINE
8
0
10
179.0316907
20
-157.2368637
11
178.194696
21
-145.2672811
0
LINE
8
0
10
173.9787787
20
-102.4558932
11
152.2511115
21
-103.9752397
0
LINE
8
0
10
152.2511115
20
-103.9752397
11
152.885724
21
-113.0506211
0
LINE
8
0
10
178.194696
20
-145.2672811
11
195.9787787
21
-145.2672811
0
LINE
8
0
10
195.9787787
20
-145.2672811
11
195.9787787
21
-140.2672811
0
LINE
8
0
10
191.9787787
20
-90.2672811
11
173.9787787
21
-90.2672811
0
LINE
8
0
10
173.9787787
20
-90.2672811
11
173.9787787
21
-102.4558932
0
LINE
8
0
10
195.9787787
20
-140.2672811
11
209.9787787
21
-140.2672811
0
LINE
8
0
10
213.9787787
20
-90.2672811
11
213.9787787
21
-85.2672811
0
LINE
8
0
10
213.9787787
20
-85.2672811
11
191.9787787
21
-85.2672811
0
LINE
8
0
10
191.9787787
20
-85.2672811
11
191.9787787
21
-90.2672811
0
LINE
8
0
10
209.9787787
20
-145.2672811
11
227.9787786
21
-145.2672811
0
LINE
8
0
10
209.9787787
20
-140.2672811
11
209.9787787
21
-145.2672811
0
LINE
8
0
10
231.9787787
20
-92.2672811
11
231.9787787
21
-90.2672811
0
LINE
8
0
10
231.9787787
20
-90.2672811
11
213.9787787
21
-90.2672811
0
LINE
8
0
10
227.9787786
20
-147.2672811
11
249.9787786
21
-147.2672811
0
LINE
8
0
10
249.9787786
20
-147.2672811
11
249.9787786
21
-108.2672811
0
LINE
8
0
10
227.9787786
20
-145.2672811
11
227.9787786
21
-147.2672811
0
LINE
8
0
10
243.9787786
20
-92.2672811
11
231.9787787
21
-92.2672811
0
LINE
8
0
10
214.9091352
20
-171.0759484
11
229.4787787
21
-169.8012698
0
LINE
8
0
10
229.4787787
20
-165.5020367
11
228.0217851
21
-148.8485236
0
LINE
8
0
10
228.0217851
20
-148.8485236
11
206.1055017
21
-150.7659499
0
LINE
8
0
10
206.1055017
20
-150.7659499
11
206.2798132
21
-152.7583393
0
LINE
8
0
10
229.4787787
20
-169.8012698
11
250.346315
21
-171.6269426
0
LINE
8
0
10
251.2777579
20
-168.760256
11
252.8520557
21
-150.7659499
0
LINE
8
0
10
252.8520557
20
-150.7659499
11
230.9357723
21
-148.8485236
0
LINE
8
0
10
230.9357723
20
-148.8485236
11
229.4787787
21
-165.5020367
0
LINE
8
0
10
250.2724786
20
-171.8541876
11
271.1957219
21
-178.6525615
0
LINE
8
0
10
271.1957219
20
-178.6525615
11
274.5949088
21
-168.1909398
0
LINE
8
0
10
265.3213442
20
-154.6631537
11
256.7618355
21
-151.8820007
0
LINE
8
0
10
256.7618355
20
-151.8820007
11
251.2777579
21
-168.760256
0
LINE
8
0
10
250.346315
20
-171.6269426
11
250.2724786
21
-171.8541876
0
LINE
8
0
10
249.9787786
20
-108.2672811
11
265.9787786
21
-108.2672811
0
LINE
8
0
10
265.9787786
20
-108.2672811
11
265.9787786
21
-87.2672811
0
LINE
8
0
10
265.9787786
20
-87.2672811
11
243.9787786
21
-87.2672811
0
LINE
8
0
10
243.9787786
20
-87.2672811
11
243.9787786
21
-92.2672811
0
LINE
8
0
10
274.5949088
20
-168.1909398
11
283.1544175
21
-170.9720928
0
LINE
8
0
10
283.1544175
20
-170.9720928
11
289.6437744
21
-150.9999059
0
LINE
8
0
10
289.6437744
20
-150.9999059
11
268.7205311
21
-144.201532
0
LINE
8
0
10
268.7205311
20
-144.201532
11
265.3213442
21
-154.6631537
0
LINE
8
0
10
193.1671633
20
-174.9857641
11
215.0834467
21
-173.0683378
0
LINE
8
0
10
215.0834467
20
-173.0683378
11
214.9091352
21
-171.0759484
0
LINE
8
0
10
206.2798132
20
-152.7583393
11
191.3368927
21
-154.0656754
0
LINE
8
0
10
191.3368927
20
-154.0656754
11
193.1671633
21
-174.9857641
0
ENDSEC
0
EOF