0
SECTION
2
HEADER
9
$INSUNITS
70
4
0
ENDSEC
0
SECTION
2
TABLES
0
TABLE
2
LTYPE
0
LTYPE
72
65
70
64
2
CONTINUOUS
3
______
73
0
40
0
0
ENDTAB
0
TABLE
2
LAYER
0
ENDTAB
0
ENDSEC
0
SECTION
2
ENTITIES
0
LINE
8
0
10
141.4234491
20
-162.5575784
11
180.5493532
21
-154.2411108
0
LINE
8
0
10
129.9883062
20
-108.7594604
11
141.4234491
21
-162.5575784
0
LINE
8
0
10
129.9883062
20
-108.7594604
11
168.6892099
21
-100.5333294
0
LINE
8
0
10
180.5493532
20
-154.2411108
11
178.3292945
21
-143.7965556
0
LINE
8
0
10
178.3292945
20
-143.7965556
11
195.1714864
21
-142.0263699
0
LINE
8
0
10
195.1714864
20
-142.0263699
11
194.4029466
21
-134.7142025
0
LINE
8
0
10
187.3838459
20
-87.5419286
11
167.5429392
21
-89.6272919
0
LINE
8
0
10
167.5429392
20
-89.6272919
11
168.6892099
21
-100.5333294
0
LINE
8
0
10
194.4029466
20
-134.7142025
11
207.6455749
21
-134.0201858
0
LINE
8
0
10
209.3038222
20
-85.4388971
11
208.9598663
21
-78.8758277
0
LINE
8
0
10
208.9598663
20
-78.8758277
11
186.9900166
21
-80.0272187
0
LINE
8
0
10
186.9900166
20
-80.0272187
11
187.3838459
21
-87.5419286
0
LINE
8
0
10
207.6455749
20
-140.4388971
11
225.645575
21
-140.4388971
0
LINE
8
0
10
207.6455749
20
-134.0201858
11
207.6455749
21
-140.4388971
0
LINE
8
0
10
229.6455749
20
-87.438897
11
229.6455749
21
-85.4388971
0
LINE
8
0
10
229.6455749
20
-85.4388971
11
209.3038222
21
-85.4388971
0
LINE
8
0
10
225.645575
20
-142.438897
11
247.645575
21
-142.438897
0
LINE
8
0
10
247.645575
20
-142.438897
11
247.645575
21
-103.438897
0
LINE
8
0
10
225.645575
20
-140.4388971
11
225.645575
21
-142.438897
0
LINE
8
0
10
241.645575
20
-87.438897
11
229.6455749
21
-87.438897
0
LINE
8
0
10
212.5759314
20
-166.2475644
11
227.1455749
21
-164.9728858
0
LINE
8
0
10
227.1455749
20
-160.6736527
11
225.6885813
21
-144.0201396
0
LINE
8
0
10
225.6885813
20
-144.0201396
11
203.7722979
21
-145.9375659
0
LINE
8
0
10
203.7722979
20
-145.9375659
11
203.9466094
21
-147.9299553
0
LINE
8
0
10
227.1455749
20
-164.9728858
11
248.0131112
21
-166.7985586
0
LINE
8
0
10
248.9445541
20
-163.931872
11
250.5188519
21
-145.9375659
0
LINE
8
0
10
250.5188519
20
-145.9375659
11
228.6025685
21
-144.0201396
0
LINE
8
0
10
228.6025685
20
-144.0201396
11
227.1455749
21
-160.6736527
0
LINE
8
0
10
247.9392748
20
-167.0258036
11
268.8625181
21
-173.8241775
0
LINE
8
0
10
268.8625181
20
-173.8241775
11
272.261705
21
-163.3625558
0
LINE
8
0
10
262.9881404
20
-149.8347697
11
254.4286317
21
-147.0536167
0
LINE
8
0
10
254.4286317
20
-147.0536167
11
248.9445541
21
-163.931872
0
LINE
8
0
10
248.0131112
20
-166.7985586
11
247.9392748
21
-167.0258036
0
LINE
8
0
10
247.645575
20
-103.438897
11
263.645575
21
-103.438897
0
LINE
8
0
10
263.645575
20
-103.438897
11
263.645575
21
-82.438897
0
LINE
8
0
10
263.645575
20
-82.438897
11
241.645575
21
-82.438897
0
LINE
8
0
10
241.645575
20
-82.438897
11
241.645575
21
-87.438897
0
LINE
8
0
10
272.261705
20
-163.3625558
11
280.8212137
21
-166.1437088
0
LINE
8
0
10
280.8212137
20
-166.1437088
11
287.3105706
21
-146.1715219
0
LINE
8
0
10
287.3105706
20
-146.1715219
11
266.3873273
21
-139.373148
0
LINE
8
0
10
266.3873273
20
-139.373148
11
262.9881404
21
-149.8347697
0
LINE
8
0
10
190.8339595
20
-170.1573801
11
212.7502429
21
-168.2399538
0
LINE
8
0
10
212.7502429
20
-168.2399538
11
212.5759314
21
-166.2475644
0
LINE
8
0
10
203.9466094
20
-147.9299553
11
189.0036889
21
-149.2372914
0
LINE
8
0
10
189.0036889
20
-149.2372914
11
190.8339595
21
-170.1573801
0
ENDSEC
0
EOF