0
SECTION
2
HEADER
9
$INSUNITS
70
4
0
ENDSEC
0
SECTION
2
TABLES
0
TABLE
2
LTYPE
0
LTYPE
72
65
70
64
2
CONTINUOUS
3
______
73
0
40
0
0
ENDTAB
0
TABLE
2
LAYER
0
ENDTAB
0
ENDSEC
0
SECTION
2
ENTITIES
0
LINE
8
0
10
278.2633538
20
-153.3360292
11
269.6098467
21
-172.1954522
0
LINE
8
0
10
267.1618233
20
-173.2594799
11
247.8121038
21
-166.8346117
0
LINE
8
0
10
247.3626014
20
-166.7408975
11
227.6963534
21
-164.9563352
0
LINE
8
0
10
227.3412998
20
-164.9557621
11
206.1687878
21
-166.8081168
0
LINE
8
0
10
205.094923
20
-166.6020095
11
181.1771649
21
-154.5572704
0
LINE
8
0
10
142.3432992
20
-162.3620583
11
179.8617881
21
-154.3872573
0
LINE
8
0
10
139.9632569
20
-160.7823853
11
130.3574712
21
-110.6847877
0
LINE
8
0
10
131.9058667
20
-108.3518703
11
151.4505425
21
-104.1975213
0
LINE
8
0
10
151.5637603
20
-104.1699862
11
167.2035038
21
-99.8801474
0
LINE
8
0
10
168.6556278
20
-97.6775553
11
167.8258547
21
-91.674176
0
LINE
8
0
10
169.597963
20
-89.4113002
11
183.655329
21
-87.9338114
0
LINE
8
0
10
185.3863569
20
-86.4306387
11
186.6308836
21
-81.4612382
0
LINE
8
0
10
188.4662965
20
-79.9498502
11
207.6172868
21
-78.9461893
0
LINE
8
0
10
209.531893
20
-80.0924854
11
211.5053409
21
-84.2898601
0
LINE
8
0
10
213.3152751
20
-85.4388971
11
228.0059672
21
-85.4388971
0
LINE
8
0
10
229.9671285
20
-87.0466647
11
230.045575
21
-87.438897
0
LINE
8
0
10
230.045575
20
-87.438897
11
255.545575
21
-87.438897
0
LINE
8
0
10
257.545575
20
-89.438897
11
257.545575
21
-144.638897
0
LINE
8
0
10
259.545575
20
-146.638897
11
276.445575
21
-146.638897
0
LINE
8
0
10
278.445575
20
-148.638897
11
278.445575
21
-152.5019548
0
ARC
8
0
10
267.7920679
20
-171.3613778
40
2
50
251.6318034
51
335.3523252
0
ARC
8
0
10
247.1818592
20
-168.7327138
40
2
50
71.6318034
51
84.8150436
0
ARC
8
0
10
227.5156112
20
-166.9481515
40
2
50
84.8150436
51
94.9999976
0
ARC
8
0
10
205.9944764
20
-164.8157274
40
2
50
243.2706408
51
274.9999976
0
ARC
8
0
10
180.2776115
20
-156.3435525
40
2
50
63.2706408
51
102.0000005
0
ARC
8
0
10
141.9274758
20
-160.4057631
40
2
50
190.8542386
51
282.0000005
0
ARC
8
0
10
132.3216901
20
-110.3081655
40
2
50
102.0000005
51
190.8542386
0
ARC
8
0
10
151.0347191
20
-102.2412261
40
2
50
282.0000005
51
285.3384693
0
ARC
8
0
10
166.6744625
20
-97.9513873
40
2
50
285.3384693
51
7.8694272
0
ARC
8
0
10
169.80702
20
-91.400344
40
2
50
96.0000021
51
187.8694272
0
ARC
8
0
10
183.446272
20
-85.9447677
40
2
50
276.0000021
51
345.9401384
0
ARC
8
0
10
188.5709685
20
-81.9471092
40
2
50
93.0000026
51
165.9401384
0
ARC
8
0
10
207.7219588
20
-80.9434484
40
2
50
25.1811451
51
93.0000026
0
ARC
8
0
10
213.3152751
20
-83.4388971
40
2
50
205.1811451
51
270
0
ARC
8
0
10
228.0059672
20
-87.4388971
40
2
50
11.3099358
51
90
0
ARC
8
0
10
255.545575
20
-89.438897
40
2
50
0
51
90
0
ARC
8
0
10
259.545575
20
-144.638897
40
2
50
180
51
270
0
ARC
8
0
10
276.445575
20
-148.638897
40
2
50
0
51
90
0
ARC
8
0
10
276.445575
20
-152.5019548
40
2
50
335.3523252
51
0
0
LINE
8
0
10
144.6853722
20
-158.1838091
11
158.1838091
21
-155.3146278
0
LINE
8
0
10
158.1838091
20
-155.3146278
11
155.3146278
21
-141.8161909
0
LINE
8
0
10
155.3146278
20
-141.8161909
11
141.8161909
21
-144.6853722
0
LINE
8
0
10
141.8161909
20
-144.6853722
11
144.6853722
21
-158.1838091
0
LINE
8
0
10
141.1508735
20
-141.5552999
11
154.6493104
21
-138.6861186
0
LINE
8
0
10
154.6493104
20
-138.6861186
11
151.7801291
21
-125.1876817
0
LINE
8
0
10
151.7801291
20
-125.1876817
11
138.2816922
21
-128.056863
0
LINE
8
0
10
138.2816922
20
-128.056863
11
141.1508735
21
-141.5552999
0
LINE
8
0
10
137.6163748
20
-124.9267907
11
151.1148117
21
-122.0576094
0
LINE
8
0
10
151.1148117
20
-122.0576094
11
148.2456304
21
-108.5591725
0
LINE
8
0
10
148.2456304
20
-108.5591725
11
134.7471935
21
-111.4283538
0
LINE
8
0
10
134.7471935
20
-111.4283538
11
137.6163748
21
-124.9267907
0
LINE
8
0
10
162.292029
20
-154.4413987
11
175.7904659
21
-151.5722174
0
LINE
8
0
10
175.7904659
20
-151.5722174
11
172.9212846
21
-138.0737805
0
LINE
8
0
10
172.9212846
20
-138.0737805
11
159.4228477
21
-140.9429618
0
LINE
8
0
10
159.4228477
20
-140.9429618
11
162.292029
21
-154.4413987
0
LINE
8
0
10
158.7575303
20
-137.8128895
11
172.2559672
21
-134.9437082
0
LINE
8
0
10
172.2559672
20
-134.9437082
11
169.3867859
21
-121.4452713
0
LINE
8
0
10
169.3867859
20
-121.4452713
11
155.888349
21
-124.3144526
0
LINE
8
0
10
155.888349
20
-124.3144526
11
158.7575303
21
-137.8128895
0
LINE
8
0
10
155.2230316
20
-121.1843803
11
168.7214685
21
-118.315199
0
LINE
8
0
10
168.7214685
20
-118.315199
11
165.8522872
21
-104.8167621
0
LINE
8
0
10
165.8522872
20
-104.8167621
11
152.3538503
21
-107.6859434
0
LINE
8
0
10
152.3538503
20
-107.6859434
11
155.2230316
21
-121.1843803
0
LINE
8
0
10
176.993242
20
-140.3171506
11
190.7176442
21
-138.8746578
0
LINE
8
0
10
190.7176442
20
-138.8746578
11
189.2751514
21
-125.1502556
0
LINE
8
0
10
189.2751514
20
-125.1502556
11
175.5507492
21
-126.5927484
0
LINE
8
0
10
175.5507492
20
-126.5927484
11
176.993242
21
-140.3171506
0
LINE
8
0
10
175.2162581
20
-123.4102784
11
188.9406603
21
-121.9677856
0
LINE
8
0
10
188.9406603
20
-121.9677856
11
187.4981675
21
-108.2433834
0
LINE
8
0
10
187.4981675
20
-108.2433834
11
173.7737653
21
-109.6858762
0
LINE
8
0
10
173.7737653
20
-109.6858762
11
175.2162581
21
-123.4102784
0
LINE
8
0
10
173.4392742
20
-106.5034062
11
187.1636764
21
-105.0609134
0
LINE
8
0
10
187.1636764
20
-105.0609134
11
185.7211836
21
-91.3365112
0
LINE
8
0
10
185.7211836
20
-91.3365112
11
171.9967814
21
-92.779004
0
LINE
8
0
10
171.9967814
20
-92.779004
11
173.4392742
21
-106.5034062
0
LINE
8
0
10
193.7744659
20
-131.1421994
11
207.5555535
21
-130.4199632
0
LINE
8
0
10
207.5555535
20
-130.4199632
11
206.8333173
21
-116.6388756
0
LINE
8
0
10
206.8333173
20
-116.6388756
11
193.0522297
21
-117.3611118
0
LINE
8
0
10
193.0522297
20
-117.3611118
11
193.7744659
21
-131.1421994
0
LINE
8
0
10
192.8847546
20
-114.1654973
11
206.6658422
21
-113.4432611
0
LINE
8
0
10
206.6658422
20
-113.4432611
11
205.943606
21
-99.6621735
0
LINE
8
0
10
205.943606
20
-99.6621735
11
192.1625184
21
-100.3844097
0
LINE
8
0
10
192.1625184
20
-100.3844097
11
192.8847546
21
-114.1654973
0
LINE
8
0
10
191.9950433
20
-97.1887952
11
205.7761309
21
-96.466559
0
LINE
8
0
10
205.7761309
20
-96.466559
11
205.0538947
21
-82.6854714
0
LINE
8
0
10
205.0538947
20
-82.6854714
11
191.2728071
21
-83.4077076
0
LINE
8
0
10
191.2728071
20
-83.4077076
11
191.9950433
21
-97.1887952
0
LINE
8
0
10
211.7455749
20
-136.8388971
11
225.5455749
21
-136.8388971
0
LINE
8
0
10
225.5455749
20
-136.8388971
11
225.5455749
21
-123.0388971
0
LINE
8
0
10
225.5455749
20
-123.0388971
11
211.7455749
21
-123.0388971
0
LINE
8
0
10
211.7455749
20
-123.0388971
11
211.7455749
21
-136.8388971
0
LINE
8
0
10
211.7455749
20
-119.8388971
11
225.5455749
21
-119.8388971
0
LINE
8
0
10
225.5455749
20
-119.8388971
11
225.5455749
21
-106.0388971
0
LINE
8
0
10
225.5455749
20
-106.0388971
11
211.7455749
21
-106.0388971
0
LINE
8
0
10
211.7455749
20
-106.0388971
11
211.7455749
21
-119.8388971
0
LINE
8
0
10
211.7455749
20
-102.8388971
11
225.5455749
21
-102.8388971
0
LINE
8
0
10
225.5455749
20
-102.8388971
11
225.5455749
21
-89.0388971
0
LINE
8
0
10
225.5455749
20
-89.0388971
11
211.7455749
21
-89.0388971
0
LINE
8
0
10
211.7455749
20
-89.0388971
11
211.7455749
21
-102.8388971
0
LINE
8
0
10
229.745575
20
-138.838897
11
243.545575
21
-138.838897
0
LINE
8
0
10
243.545575
20
-138.838897
11
243.545575
21
-125.038897
0
LINE
8
0
10
243.545575
20
-125.038897
11
229.745575
21
-125.038897
0
LINE
8
0
10
229.745575
20
-125.038897
11
229.745575
21
-138.838897
0
LINE
8
0
10
229.745575
20
-121.838897
11
243.545575
21
-121.838897
0
LINE
8
0
10
243.545575
20
-121.838897
11
243.545575
21
-108.038897
0
LINE
8
0
10
243.545575
20
-108.038897
11
229.745575
21
-108.038897
0
LINE
8
0
10
229.745575
20
-108.038897
11
229.745575
21
-121.838897
0
LINE
8
0
10
229.745575
20
-104.838897
11
243.545575
21
-104.838897
0
LINE
8
0
10
243.545575
20
-104.838897
11
243.545575
21
-91.038897
0
LINE
8
0
10
243.545575
20
-91.038897
11
229.745575
21
-91.038897
0
LINE
8
0
10
229.745575
20
-91.038897
11
229.745575
21
-104.838897
0
LINE
8
0
10
209.3732061
20
-162.9140151
11
223.1206929
21
-161.7112659
0
LINE
8
0
10
223.1206929
20
-161.7112659
11
221.9179437
21
-147.9637791
0
LINE
8
0
10
221.9179437
20
-147.9637791
11
208.1704569
21
-149.1665283
0
LINE
8
0
10
208.1704569
20
-149.1665283
11
209.3732061
21
-162.9140151
0
LINE
8
0
10
231.1704569
20
-161.7112659
11
244.9179437
21
-162.9140151
0
LINE
8
0
10
244.9179437
20
-162.9140151
11
246.1206929
21
-149.1665283
0
LINE
8
0
10
246.1206929
20
-149.1665283
11
232.3732061
21
-147.9637791
0
LINE
8
0
10
232.3732061
20
-147.9637791
11
231.1704569
21
-161.7112659
0
LINE
8
0
10
252.9510677
20
-164.8689698
11
266.0756476
21
-169.1334043
0
LINE
8
0
10
266.0756476
20
-169.1334043
11
270.3400821
21
-156.0088244
0
LINE
8
0
10
270.3400821
20
-156.0088244
11
257.2155022
21
-151.7443899
0
LINE
8
0
10
257.2155022
20
-151.7443899
11
252.9510677
21
-164.8689698
0
CIRCLE
8
0
10
153.5015804
20
-123.186031
40
1.1
0
CIRCLE
8
0
10
157.036079
20
-139.8145402
40
1.1
0
CIRCLE
8
0
10
252.645575
20
-92.938897
40
1.1
0
CIRCLE
8
0
10
273.6042705
20
-152.7584284
40
1.1
0
CIRCLE
8
0
10
200.8769659
20
-158.7386226
40
1.1
0
ENDSEC
0
EOF