M48
; DRILL file {KiCad 8.0.6} date 2024-12-16T16:55:52+0000
; FORMAT={-:-/ absolute / metric / decimal}
; #@! TF.CreationDate,2024-12-16T16:55:52+00:00
; #@! TF.GenerationSoftware,Kicad,Pcbnew,8.0.6
; #@! TF.FileFunction,NonPlated,1,2,NPTH
FMAT,2
METRIC
; #@! TA.AperFunction,NonPlated,NPTH,ComponentDrill
T1C0.900
; #@! TA.AperFunction,NonPlated,NPTH,ComponentDrill
T2C1.900
; #@! TA.AperFunction,NonPlated,NPTH,ComponentDrill
T3C3.000
; #@! TA.AperFunction,NonPlated,NPTH,ComponentDrill
T4C4.300
; #@! TA.AperFunction,NonPlated,NPTH,ComponentDrill
T5C5.000
%
G90
G05
T1
X276.171Y-139.439
X276.171Y-142.439
T2
X137.551Y-117.887
X141.086Y-134.515
X144.62Y-151.144
X148.311Y-115.599
X151.845Y-132.228
X155.158Y-114.144
X155.38Y-148.856
X158.692Y-130.773
X162.227Y-147.401
X165.918Y-111.857
X169.452Y-128.486
X172.987Y-145.114
X174.11Y-99.495
X175.887Y-116.402
X177.664Y-133.309
X185.05Y-98.345
X186.827Y-115.252
X188.604Y-132.159
X193.032Y-90.225
X193.922Y-107.202
X194.811Y-124.178
X204.017Y-89.649
X204.907Y-106.626
X205.796Y-123.603
X210.167Y-155.918
X213.146Y-95.939
X213.146Y-112.939
X213.146Y-129.939
X221.125Y-154.96
X224.146Y-95.939
X224.146Y-112.939
X224.146Y-129.939
X231.146Y-97.939
X231.146Y-114.939
X231.146Y-131.939
X233.167Y-154.96
X242.146Y-97.939
X242.146Y-114.939
X242.146Y-131.939
X244.125Y-155.918
X256.415Y-158.739
X266.876Y-162.138
T3
X138.82Y-121.451
X142.354Y-138.079
X144.168Y-122.563
X145.889Y-154.708
X147.703Y-139.191
X148.601Y-119.371
X151.237Y-155.82
X152.136Y-136.0
X155.67Y-152.628
X156.427Y-117.708
X159.961Y-134.337
X161.775Y-118.821
X163.496Y-150.965
X165.309Y-135.449
X166.208Y-115.629
X168.844Y-152.078
X169.743Y-132.258
X173.277Y-148.886
X175.0Y-103.172
X176.777Y-120.079
X178.554Y-136.986
X180.202Y-104.837
X181.979Y-121.744
X183.756Y-138.651
X184.945Y-102.127
X186.722Y-119.034
X188.499Y-135.941
X193.728Y-93.944
X194.617Y-110.92
X195.507Y-127.897
X198.836Y-95.879
X199.726Y-112.856
X200.615Y-129.832
X203.714Y-93.42
X204.604Y-110.397
X205.493Y-127.374
X210.991Y-159.61
X213.646Y-99.689
X213.646Y-116.689
X213.646Y-133.689
X216.164Y-161.366
X218.646Y-101.889
X218.646Y-118.889
X218.646Y-135.889
X220.953Y-158.739
X223.646Y-99.689
X223.646Y-116.689
X223.646Y-133.689
X231.646Y-101.689
X231.646Y-118.689
X231.646Y-135.689
X233.338Y-158.739
X236.646Y-103.889
X236.646Y-120.889
X236.646Y-137.889
X238.127Y-161.366
X241.646Y-101.689
X241.646Y-118.689
X241.646Y-135.689
X243.3Y-159.61
X255.732Y-162.46
X259.807Y-166.098
X265.242Y-165.55
T4
X153.502Y-123.186
X157.036Y-139.814
X200.877Y-158.739
X252.646Y-92.939
X252.646Y-142.939
X273.604Y-152.758
T5
X142.931Y-116.743
X146.465Y-133.371
X150.0Y-150.0
X160.538Y-113.001
X164.072Y-129.629
X167.607Y-146.258
X179.58Y-98.92
X181.357Y-115.827
X183.134Y-132.734
X198.524Y-89.937
X199.414Y-106.914
X200.304Y-123.89
X215.646Y-155.439
X218.646Y-95.939
X218.646Y-112.939
X218.646Y-129.939
X236.646Y-97.939
X236.646Y-114.939
X236.646Y-131.939
X238.646Y-155.439
X261.646Y-160.439
M30
