%TF.GenerationSoftware,KiCad,Pcbnew,8.0.5*%
%TF.CreationDate,2024-10-14T20:53:26+01:00*%
%TF.ProjectId,switchplate_logo,73776974-6368-4706-9c61-74655f6c6f67,v1.0.0*%
%TF.SameCoordinates,Original*%
%TF.FileFunction,Copper,L1,Top*%
%TF.FilePolarity,Positive*%
%FSLAX46Y46*%
G04 Gerber Fmt 4.6, Leading zero omitted, Abs format (unit mm)*
G04 Created by KiCad (PCBNEW 8.0.5) date 2024-10-14 20:53:26*
%MOMM*%
%LPD*%
G01*
G04 APERTURE LIST*
%TA.AperFunction,EtchedComponent*%
%ADD10C,0.000000*%
%TD*%
%ADD11C,0.350000*%
G04 APERTURE END LIST*
D10*
%TA.AperFunction,EtchedComponent*%
%TO.C,G\u002A\u002A\u002A*%
G36*
X201516903Y-142544291D02*
G01*
X201621235Y-142549338D01*
X201711665Y-142557391D01*
X201759528Y-142564164D01*
X202001876Y-142617496D01*
X202233564Y-142692100D01*
X202453527Y-142787201D01*
X202660696Y-142902020D01*
X202854006Y-143035783D01*
X203032390Y-143187711D01*
X203194780Y-143357029D01*
X203340111Y-143542959D01*
X203467314Y-143744726D01*
X203521546Y-143846824D01*
X203617588Y-144065481D01*
X203690203Y-144290370D01*
X203739228Y-144519978D01*
X203764500Y-144752792D01*
X203765853Y-144987298D01*
X203743126Y-145221984D01*
X203696154Y-145455335D01*
X203695726Y-145457012D01*
X203626686Y-145678371D01*
X203535756Y-145890512D01*
X203424343Y-146092039D01*
X203293855Y-146281557D01*
X203145700Y-146457671D01*
X202981286Y-146618985D01*
X202802021Y-146764102D01*
X202609313Y-146891628D01*
X202404570Y-147000168D01*
X202189199Y-147088324D01*
X201989187Y-147148644D01*
X201822046Y-147183884D01*
X201644858Y-147208698D01*
X201465819Y-147222399D01*
X201293127Y-147224300D01*
X201169763Y-147217303D01*
X200931573Y-147183605D01*
X200701157Y-147127503D01*
X200479788Y-147050063D01*
X200268740Y-146952348D01*
X200069287Y-146835423D01*
X199882702Y-146700353D01*
X199710260Y-146548202D01*
X199553234Y-146380036D01*
X199412897Y-146196917D01*
X199290524Y-145999912D01*
X199187387Y-145790085D01*
X199104762Y-145568499D01*
X199074933Y-145466433D01*
X199028084Y-145244941D01*
X199004257Y-145018543D01*
X199003068Y-144789831D01*
X199024133Y-144561395D01*
X199067068Y-144335829D01*
X199131491Y-144115724D01*
X199217018Y-143903672D01*
X199323265Y-143702265D01*
X199340094Y-143674542D01*
X199477604Y-143474717D01*
X199632357Y-143292034D01*
X199803368Y-143127147D01*
X199989654Y-142980708D01*
X200190231Y-142853373D01*
X200404117Y-142745796D01*
X200630327Y-142658629D01*
X200867878Y-142592528D01*
X201010090Y-142564164D01*
X201088199Y-142554175D01*
X201184317Y-142547193D01*
X201292062Y-142543219D01*
X201405051Y-142542251D01*
X201516903Y-142544291D01*
G37*
%TD.AperFunction*%
%TA.AperFunction,EtchedComponent*%
G36*
X195182933Y-143316899D02*
G01*
X195281996Y-143319098D01*
X195371497Y-143323044D01*
X195445755Y-143328738D01*
X195474117Y-143332064D01*
X195722327Y-143377113D01*
X195961451Y-143442650D01*
X196190221Y-143527737D01*
X196407367Y-143631434D01*
X196611618Y-143752802D01*
X196801707Y-143890902D01*
X196976362Y-144044794D01*
X197134315Y-144213540D01*
X197274295Y-144396200D01*
X197395033Y-144591835D01*
X197495260Y-144799506D01*
X197511441Y-144839139D01*
X197583368Y-145052327D01*
X197631438Y-145267662D01*
X197656120Y-145483786D01*
X197657883Y-145699343D01*
X197637196Y-145912977D01*
X197594528Y-146123330D01*
X197530347Y-146329048D01*
X197445122Y-146528772D01*
X197339323Y-146721146D01*
X197213418Y-146904814D01*
X197067876Y-147078420D01*
X196903165Y-147240606D01*
X196719756Y-147390016D01*
X196601116Y-147472843D01*
X196386337Y-147599549D01*
X196159983Y-147704991D01*
X195923379Y-147788827D01*
X195677847Y-147850712D01*
X195424711Y-147890305D01*
X195165294Y-147907262D01*
X194939575Y-147903554D01*
X194705421Y-147880080D01*
X194473188Y-147835542D01*
X194245321Y-147771111D01*
X194024266Y-147687961D01*
X193812469Y-147587262D01*
X193612376Y-147470187D01*
X193426432Y-147337908D01*
X193257084Y-147191598D01*
X193106777Y-147032428D01*
X193096602Y-147020320D01*
X192949794Y-146826733D01*
X192826130Y-146626397D01*
X192725788Y-146420033D01*
X192648943Y-146208360D01*
X192595772Y-145992096D01*
X192566450Y-145771962D01*
X192561154Y-145548676D01*
X192580059Y-145322958D01*
X192623342Y-145095528D01*
X192624437Y-145091050D01*
X192659879Y-144971051D01*
X192708797Y-144840533D01*
X192767813Y-144706864D01*
X192833548Y-144577411D01*
X192902623Y-144459542D01*
X192939372Y-144404372D01*
X193091644Y-144208203D01*
X193260456Y-144029978D01*
X193445138Y-143870095D01*
X193645020Y-143728952D01*
X193859433Y-143606948D01*
X194087708Y-143504479D01*
X194329175Y-143421944D01*
X194583164Y-143359742D01*
X194742961Y-143332099D01*
X194804644Y-143325567D01*
X194885163Y-143320781D01*
X194978837Y-143317741D01*
X195079987Y-143316446D01*
X195182933Y-143316899D01*
G37*
%TD.AperFunction*%
%TA.AperFunction,EtchedComponent*%
G36*
X199378316Y-147311216D02*
G01*
X199476523Y-147337742D01*
X199565534Y-147382736D01*
X199637104Y-147441419D01*
X199654313Y-147461479D01*
X199684235Y-147498946D01*
X199725334Y-147551760D01*
X199776075Y-147617860D01*
X199834925Y-147695184D01*
X199900348Y-147781674D01*
X199970810Y-147875269D01*
X200044776Y-147973907D01*
X200120712Y-148075529D01*
X200197082Y-148178074D01*
X200272353Y-148279481D01*
X200344989Y-148377691D01*
X200413456Y-148470642D01*
X200476219Y-148556275D01*
X200531744Y-148632528D01*
X200578496Y-148697342D01*
X200614940Y-148748655D01*
X200639541Y-148784407D01*
X200650569Y-148802129D01*
X200671194Y-148863261D01*
X200682065Y-148937480D01*
X200682677Y-149015104D01*
X200672525Y-149086451D01*
X200666496Y-149107669D01*
X200629154Y-149186259D01*
X200574469Y-149255978D01*
X200506270Y-149315175D01*
X200428384Y-149362201D01*
X200344640Y-149395405D01*
X200258866Y-149413138D01*
X200174889Y-149413749D01*
X200096538Y-149395589D01*
X200050686Y-149373089D01*
X200016642Y-149349026D01*
X199982633Y-149317998D01*
X199946288Y-149277106D01*
X199905241Y-149223451D01*
X199857120Y-149154134D01*
X199799559Y-149066257D01*
X199798145Y-149064056D01*
X199745780Y-148986414D01*
X199700248Y-148928541D01*
X199658477Y-148887713D01*
X199617396Y-148861206D01*
X199573935Y-148846297D01*
X199547837Y-148842046D01*
X199483406Y-148844422D01*
X199421674Y-148863709D01*
X199370725Y-148896812D01*
X199352328Y-148916893D01*
X199330194Y-148948586D01*
X199311450Y-148981393D01*
X199294346Y-149019791D01*
X199277132Y-149068259D01*
X199258058Y-149131276D01*
X199235373Y-149213320D01*
X199232881Y-149222586D01*
X199205015Y-149321797D01*
X199179679Y-149400398D01*
X199155097Y-149461974D01*
X199129495Y-149510113D01*
X199101096Y-149548400D01*
X199068125Y-149580422D01*
X199047840Y-149596339D01*
X198995224Y-149624632D01*
X198925677Y-149647096D01*
X198846409Y-149662503D01*
X198764630Y-149669629D01*
X198687549Y-149667247D01*
X198656798Y-149662836D01*
X198546175Y-149631498D01*
X198450016Y-149582055D01*
X198393707Y-149538304D01*
X198339646Y-149477844D01*
X198305069Y-149411545D01*
X198289457Y-149336619D01*
X198292289Y-149250279D01*
X198313045Y-149149736D01*
X198317973Y-149132217D01*
X198332474Y-149083895D01*
X198352990Y-149017889D01*
X198378709Y-148936659D01*
X198408820Y-148842663D01*
X198442509Y-148738362D01*
X198478964Y-148626214D01*
X198517374Y-148508680D01*
X198556925Y-148388218D01*
X198596805Y-148267289D01*
X198636203Y-148148351D01*
X198674305Y-148033865D01*
X198710299Y-147926290D01*
X198743373Y-147828085D01*
X198772715Y-147741710D01*
X198797512Y-147669625D01*
X198816952Y-147614288D01*
X198830223Y-147578159D01*
X198835403Y-147565621D01*
X198880149Y-147496972D01*
X198943498Y-147432399D01*
X199019515Y-147377319D01*
X199072106Y-147349537D01*
X199171750Y-147316405D01*
X199275273Y-147303867D01*
X199378316Y-147311216D01*
G37*
%TD.AperFunction*%
%TA.AperFunction,EtchedComponent*%
G36*
X198155138Y-140068550D02*
G01*
X198587980Y-140096962D01*
X199000871Y-140139991D01*
X199450264Y-140205788D01*
X199888834Y-140289393D01*
X200315577Y-140390441D01*
X200729490Y-140508569D01*
X201129567Y-140643412D01*
X201514805Y-140794606D01*
X201884200Y-140961786D01*
X202236748Y-141144588D01*
X202571444Y-141342649D01*
X202871698Y-141544422D01*
X203123500Y-141735887D01*
X203365546Y-141942691D01*
X203594710Y-142161718D01*
X203807869Y-142389857D01*
X204001895Y-142623993D01*
X204131313Y-142799275D01*
X204306900Y-143070900D01*
X204460402Y-143352481D01*
X204592035Y-143644565D01*
X204702012Y-143947697D01*
X204790549Y-144262425D01*
X204857860Y-144589296D01*
X204874226Y-144691679D01*
X204891219Y-144830242D01*
X204904176Y-144988303D01*
X204913093Y-145161117D01*
X204917970Y-145343939D01*
X204918804Y-145532025D01*
X204915595Y-145720629D01*
X204908340Y-145905007D01*
X204897037Y-146080414D01*
X204881686Y-146242104D01*
X204874808Y-146298821D01*
X204827115Y-146594495D01*
X204762909Y-146872210D01*
X204681988Y-147132395D01*
X204584147Y-147375476D01*
X204469183Y-147601882D01*
X204336892Y-147812041D01*
X204187069Y-148006381D01*
X204019511Y-148185329D01*
X203940733Y-148258748D01*
X203813241Y-148372792D01*
X203816254Y-148436929D01*
X203820484Y-148504852D01*
X203827686Y-148594129D01*
X203837562Y-148701751D01*
X203849815Y-148824714D01*
X203864144Y-148960013D01*
X203880251Y-149104640D01*
X203896520Y-149244509D01*
X203915303Y-149404131D01*
X203931113Y-149541894D01*
X203944163Y-149660311D01*
X203954664Y-149761893D01*
X203962828Y-149849151D01*
X203968865Y-149924598D01*
X203972988Y-149990746D01*
X203975409Y-150050104D01*
X203976337Y-150105186D01*
X203975986Y-150158503D01*
X203975477Y-150182186D01*
X203972982Y-150256577D01*
X203969487Y-150311037D01*
X203964407Y-150350208D01*
X203957155Y-150378731D01*
X203948034Y-150399613D01*
X203902087Y-150467056D01*
X203835850Y-150538228D01*
X203752829Y-150610714D01*
X203656530Y-150682101D01*
X203550459Y-150749974D01*
X203438123Y-150811919D01*
X203323027Y-150865522D01*
X203209628Y-150908059D01*
X203120608Y-150935339D01*
X203040903Y-150955280D01*
X202963121Y-150969030D01*
X202879867Y-150977734D01*
X202783749Y-150982541D01*
X202720136Y-150983979D01*
X202513276Y-150987233D01*
X202443648Y-151029436D01*
X202259373Y-151131927D01*
X202069939Y-151218491D01*
X201872128Y-151290116D01*
X201662720Y-151347785D01*
X201438496Y-151392486D01*
X201196237Y-151425202D01*
X201128636Y-151431985D01*
X201063221Y-151438907D01*
X201014327Y-151446751D01*
X200973928Y-151457584D01*
X200933996Y-151473474D01*
X200895158Y-151492134D01*
X200759895Y-151551075D01*
X200602587Y-151603762D01*
X200425081Y-151649698D01*
X200229225Y-151688382D01*
X200088389Y-151710032D01*
X200023511Y-151717352D01*
X199944274Y-151723296D01*
X199848316Y-151727971D01*
X199733277Y-151731485D01*
X199596793Y-151733945D01*
X199548345Y-151734526D01*
X199450786Y-151735935D01*
X199359700Y-151737939D01*
X199278382Y-151740412D01*
X199210124Y-151743228D01*
X199158219Y-151746262D01*
X199125960Y-151749388D01*
X199118253Y-151750938D01*
X199086172Y-151759709D01*
X199034655Y-151771861D01*
X198968457Y-151786428D01*
X198892330Y-151802441D01*
X198811029Y-151818932D01*
X198729306Y-151834933D01*
X198651914Y-151849475D01*
X198583608Y-151861592D01*
X198540058Y-151868681D01*
X198446059Y-151879591D01*
X198339450Y-151886195D01*
X198227425Y-151888498D01*
X198117175Y-151886506D01*
X198015891Y-151880226D01*
X197930766Y-151869665D01*
X197922094Y-151868131D01*
X197824938Y-151847213D01*
X197724873Y-151820221D01*
X197626835Y-151788922D01*
X197535763Y-151755084D01*
X197456593Y-151720475D01*
X197394262Y-151686863D01*
X197370497Y-151670635D01*
X197327196Y-151637608D01*
X197275628Y-151663363D01*
X197216809Y-151689253D01*
X197156853Y-151707513D01*
X197090500Y-151718928D01*
X197012492Y-151724282D01*
X196917569Y-151724359D01*
X196874988Y-151723134D01*
X196662118Y-151703897D01*
X196456470Y-151661211D01*
X196257417Y-151594916D01*
X196109776Y-151528451D01*
X196039512Y-151489397D01*
X195981183Y-151447444D01*
X195933337Y-151399718D01*
X195894519Y-151343345D01*
X195863276Y-151275453D01*
X195838154Y-151193167D01*
X195817699Y-151093613D01*
X195800457Y-150973919D01*
X195792021Y-150900363D01*
X195784583Y-150840707D01*
X195776706Y-150794161D01*
X195769177Y-150764710D01*
X195763572Y-150756093D01*
X195743031Y-150764331D01*
X195708533Y-150786874D01*
X195663655Y-150820809D01*
X195611975Y-150863220D01*
X195557069Y-150911193D01*
X195502514Y-150961813D01*
X195461829Y-151001950D01*
X195360518Y-151115785D01*
X195282925Y-151226967D01*
X195228451Y-151336394D01*
X195216872Y-151367988D01*
X195204124Y-151418962D01*
X195192398Y-151491230D01*
X195181816Y-151581524D01*
X195172499Y-151686579D01*
X195164570Y-151803128D01*
X195158149Y-151927903D01*
X195153360Y-152057639D01*
X195150324Y-152189069D01*
X195149163Y-152318925D01*
X195149998Y-152443942D01*
X195152951Y-152560853D01*
X195158144Y-152666391D01*
X195165231Y-152752831D01*
X195195436Y-152989059D01*
X195235123Y-153203969D01*
X195284778Y-153399113D01*
X195344888Y-153576044D01*
X195415939Y-153736316D01*
X195498419Y-153881480D01*
X195536823Y-153938655D01*
X195577374Y-153991599D01*
X195626537Y-154048826D01*
X195679623Y-154105526D01*
X195731943Y-154156886D01*
X195778809Y-154198097D01*
X195814891Y-154223979D01*
X195851414Y-154245102D01*
X195858730Y-154113383D01*
X195873055Y-153982075D01*
X195901153Y-153868330D01*
X195944107Y-153771202D01*
X196003001Y-153689745D01*
X196078917Y-153623013D01*
X196172939Y-153570057D01*
X196286149Y-153529933D01*
X196419630Y-153501693D01*
X196574466Y-153484391D01*
X196578696Y-153484085D01*
X196764664Y-153478495D01*
X196939525Y-153488765D01*
X197100852Y-153514567D01*
X197246218Y-153555573D01*
X197317152Y-153583890D01*
X197400729Y-153621261D01*
X197488277Y-153589681D01*
X197580427Y-153559152D01*
X197668724Y-153536274D01*
X197759034Y-153520186D01*
X197857220Y-153510030D01*
X197969149Y-153504944D01*
X198073101Y-153503950D01*
X198235271Y-153507230D01*
X198381294Y-153517121D01*
X198518973Y-153534717D01*
X198656113Y-153561116D01*
X198800515Y-153597410D01*
X198860402Y-153614460D01*
X199008708Y-153657861D01*
X199082220Y-153614777D01*
X199213472Y-153549003D01*
X199365831Y-153492695D01*
X199537603Y-153446144D01*
X199727096Y-153409645D01*
X199932614Y-153383491D01*
X200152464Y-153367974D01*
X200384952Y-153363388D01*
X200521302Y-153365741D01*
X200782178Y-153373613D01*
X200838711Y-153330461D01*
X200897160Y-153289915D01*
X200973743Y-153242932D01*
X201063711Y-153192032D01*
X201162313Y-153139740D01*
X201264800Y-153088575D01*
X201366420Y-153041063D01*
X201458539Y-153001315D01*
X201608514Y-152944145D01*
X201752408Y-152897868D01*
X201887983Y-152862858D01*
X202012999Y-152839488D01*
X202125220Y-152828132D01*
X202222405Y-152829162D01*
X202302317Y-152842953D01*
X202335646Y-152854995D01*
X202369577Y-152869958D01*
X202392744Y-152879710D01*
X202398792Y-152881858D01*
X202402934Y-152871204D01*
X202408885Y-152845078D01*
X202409803Y-152840300D01*
X202424343Y-152797203D01*
X202452855Y-152753030D01*
X202496860Y-152706526D01*
X202557877Y-152656437D01*
X202637430Y-152601511D01*
X202737037Y-152540494D01*
X202853266Y-152474844D01*
X203006809Y-152395454D01*
X203148446Y-152332921D01*
X203282809Y-152285924D01*
X203414532Y-152253143D01*
X203548250Y-152233259D01*
X203688595Y-152224951D01*
X203731882Y-152224518D01*
X203804901Y-152224719D01*
X203858366Y-152225757D01*
X203897301Y-152228293D01*
X203926727Y-152232989D01*
X203951668Y-152240505D01*
X203977145Y-152251501D01*
X203992169Y-152258763D01*
X204061866Y-152302413D01*
X204118201Y-152360116D01*
X204165395Y-152436444D01*
X204175499Y-152457328D01*
X204212181Y-152549687D01*
X204246913Y-152663283D01*
X204278968Y-152794808D01*
X204307619Y-152940952D01*
X204332141Y-153098409D01*
X204351071Y-153256653D01*
X204371925Y-153516570D01*
X204379909Y-153762177D01*
X204375180Y-153992654D01*
X204357898Y-154207183D01*
X204328221Y-154404945D01*
X204286306Y-154585120D01*
X204232313Y-154746889D01*
X204166399Y-154889434D01*
X204088722Y-155011935D01*
X203999441Y-155113575D01*
X203990706Y-155121797D01*
X203929027Y-155172823D01*
X203852479Y-155225029D01*
X203759434Y-155279276D01*
X203648263Y-155336424D01*
X203517337Y-155397334D01*
X203365026Y-155462869D01*
X203277817Y-155498662D01*
X202952854Y-155623167D01*
X202609771Y-155741424D01*
X202252184Y-155852643D01*
X201883712Y-155956034D01*
X201507972Y-156050807D01*
X201128580Y-156136172D01*
X200749154Y-156211338D01*
X200373312Y-156275515D01*
X200004670Y-156327914D01*
X199646846Y-156367743D01*
X199303457Y-156394214D01*
X199142187Y-156402044D01*
X199068698Y-156404868D01*
X198995845Y-156407663D01*
X198930963Y-156410148D01*
X198881384Y-156412042D01*
X198871844Y-156412405D01*
X198827471Y-156413400D01*
X198765866Y-156413845D01*
X198694370Y-156413729D01*
X198620322Y-156413043D01*
X198601500Y-156412769D01*
X198308825Y-156405028D01*
X198013737Y-156391183D01*
X197717851Y-156371539D01*
X197422779Y-156346398D01*
X197130133Y-156316063D01*
X196841527Y-156280836D01*
X196558573Y-156241022D01*
X196282885Y-156196922D01*
X196016075Y-156148840D01*
X195759756Y-156097079D01*
X195515541Y-156041942D01*
X195285042Y-155983731D01*
X195069874Y-155922749D01*
X194871648Y-155859301D01*
X194691977Y-155793687D01*
X194532475Y-155726212D01*
X194394754Y-155657178D01*
X194310024Y-155606703D01*
X194222520Y-155544880D01*
X194153354Y-155482688D01*
X194099843Y-155415697D01*
X194059304Y-155339475D01*
X194029054Y-155249593D01*
X194006409Y-155141619D01*
X193998975Y-155093050D01*
X193987151Y-155005344D01*
X193976546Y-154917811D01*
X193967078Y-154828559D01*
X193958661Y-154735699D01*
X193951213Y-154637338D01*
X193944648Y-154531587D01*
X193938884Y-154416555D01*
X193933837Y-154290350D01*
X193929422Y-154151083D01*
X193925555Y-153996862D01*
X193922154Y-153825797D01*
X193919133Y-153635997D01*
X193916409Y-153425571D01*
X193913898Y-153192629D01*
X193913681Y-153170634D01*
X193911918Y-153004701D01*
X193909933Y-152842943D01*
X193907768Y-152687444D01*
X193905464Y-152540289D01*
X193903061Y-152403561D01*
X193900600Y-152279347D01*
X193898122Y-152169730D01*
X193895668Y-152076794D01*
X193893278Y-152002625D01*
X193890994Y-151949307D01*
X193889296Y-151923368D01*
X193865541Y-151716141D01*
X193832416Y-151519752D01*
X193790629Y-151337098D01*
X193740888Y-151171076D01*
X193683899Y-151024583D01*
X193654979Y-150963632D01*
X193609119Y-150882288D01*
X193552473Y-150795765D01*
X193490369Y-150711387D01*
X193428138Y-150636473D01*
X193381632Y-150588078D01*
X193348775Y-150558355D01*
X193299882Y-150516122D01*
X193238209Y-150464095D01*
X193167013Y-150404989D01*
X193089550Y-150341520D01*
X193009075Y-150276403D01*
X192977972Y-150251464D01*
X192843699Y-150143638D01*
X192726068Y-150048079D01*
X192622136Y-149962209D01*
X192528957Y-149883450D01*
X192443590Y-149809224D01*
X192363088Y-149736954D01*
X192284508Y-149664061D01*
X192204907Y-149587967D01*
X192121339Y-149506095D01*
X192081194Y-149466221D01*
X191916818Y-149297956D01*
X191769371Y-149137129D01*
X191634635Y-148978653D01*
X191508395Y-148817438D01*
X191386434Y-148648397D01*
X191309055Y-148534320D01*
X191120655Y-148230029D01*
X190952665Y-147915464D01*
X190804837Y-147589855D01*
X190676925Y-147252431D01*
X190568680Y-146902425D01*
X190479856Y-146539065D01*
X190410204Y-146161582D01*
X190359478Y-145769206D01*
X190336756Y-145508854D01*
X190332279Y-145426879D01*
X190329182Y-145328435D01*
X190327402Y-145217522D01*
X190326877Y-145098139D01*
X190327518Y-144979035D01*
X190869369Y-144979035D01*
X190872969Y-145222078D01*
X190885571Y-145471597D01*
X190906993Y-145723568D01*
X190937052Y-145973968D01*
X190975565Y-146218774D01*
X191008041Y-146387470D01*
X191094204Y-146743330D01*
X191201918Y-147087811D01*
X191331022Y-147420574D01*
X191481355Y-147741280D01*
X191652754Y-148049590D01*
X191845059Y-148345164D01*
X192058108Y-148627662D01*
X192098751Y-148677223D01*
X192192888Y-148788032D01*
X192288236Y-148894834D01*
X192386946Y-148999638D01*
X192491167Y-149104455D01*
X192603050Y-149211294D01*
X192724747Y-149322165D01*
X192858406Y-149439078D01*
X193006179Y-149564044D01*
X193170217Y-149699072D01*
X193329802Y-149827874D01*
X193448274Y-149923223D01*
X193549322Y-150005757D01*
X193635081Y-150077544D01*
X193707684Y-150140652D01*
X193769265Y-150197148D01*
X193821958Y-150249100D01*
X193867899Y-150298577D01*
X193909220Y-150347646D01*
X193948057Y-150398374D01*
X193986543Y-150452829D01*
X194008676Y-150485632D01*
X194115563Y-150664968D01*
X194207382Y-150859832D01*
X194284456Y-151071238D01*
X194347110Y-151300201D01*
X194395668Y-151547736D01*
X194429334Y-151803903D01*
X194435293Y-151875227D01*
X194440876Y-151969047D01*
X194446033Y-152083287D01*
X194450715Y-152215869D01*
X194454873Y-152364717D01*
X194458457Y-152527753D01*
X194461417Y-152702899D01*
X194463705Y-152888078D01*
X194465270Y-153081213D01*
X194466063Y-153280227D01*
X194466149Y-153350086D01*
X194467046Y-153601132D01*
X194469532Y-153829860D01*
X194473701Y-154038484D01*
X194479648Y-154229216D01*
X194487468Y-154404271D01*
X194497256Y-154565860D01*
X194509107Y-154716198D01*
X194523115Y-154857498D01*
X194535057Y-154958588D01*
X194543653Y-155022293D01*
X194553217Y-155068897D01*
X194567457Y-155103294D01*
X194590078Y-155130377D01*
X194624789Y-155155042D01*
X194675295Y-155182182D01*
X194721807Y-155205163D01*
X194870210Y-155271213D01*
X195041568Y-155335455D01*
X195234304Y-155397590D01*
X195446842Y-155457319D01*
X195677605Y-155514342D01*
X195925018Y-155568360D01*
X196187505Y-155619074D01*
X196463490Y-155666183D01*
X196751395Y-155709388D01*
X197049646Y-155748391D01*
X197356665Y-155782891D01*
X197670878Y-155812590D01*
X197990707Y-155837187D01*
X198079246Y-155843005D01*
X198153545Y-155846498D01*
X198247626Y-155849011D01*
X198357749Y-155850591D01*
X198480174Y-155851282D01*
X198611161Y-155851129D01*
X198746970Y-155850178D01*
X198883861Y-155848473D01*
X199018095Y-155846060D01*
X199145932Y-155842984D01*
X199263630Y-155839289D01*
X199367452Y-155835023D01*
X199453656Y-155830228D01*
X199510837Y-155825718D01*
X200022559Y-155767048D01*
X200524919Y-155690348D01*
X201022864Y-155594658D01*
X201521339Y-155479015D01*
X202025291Y-155342459D01*
X202083075Y-155325590D01*
X202260178Y-155271888D01*
X202436634Y-155215271D01*
X202610076Y-155156666D01*
X202778135Y-155096996D01*
X202938444Y-155037186D01*
X203088634Y-154978163D01*
X203226337Y-154920850D01*
X203349187Y-154866173D01*
X203454814Y-154815057D01*
X203540851Y-154768427D01*
X203592708Y-154735854D01*
X203644573Y-154686948D01*
X203691025Y-154614997D01*
X203732323Y-154519565D01*
X203748293Y-154472059D01*
X203779467Y-154349205D01*
X203803027Y-154206759D01*
X203818995Y-154048493D01*
X203827391Y-153878177D01*
X203828236Y-153699580D01*
X203821552Y-153516473D01*
X203807359Y-153332626D01*
X203785677Y-153151808D01*
X203756529Y-152977791D01*
X203739547Y-152896237D01*
X203713045Y-152777407D01*
X203645661Y-152780179D01*
X203548331Y-152791213D01*
X203442727Y-152817077D01*
X203326925Y-152858498D01*
X203199002Y-152916201D01*
X203057034Y-152990912D01*
X202997732Y-153024650D01*
X202982779Y-153033475D01*
X202971678Y-153042473D01*
X202964279Y-153054865D01*
X202960429Y-153073871D01*
X202959976Y-153102711D01*
X202962771Y-153144606D01*
X202968660Y-153202776D01*
X202977492Y-153280442D01*
X202983330Y-153330739D01*
X202992346Y-153419123D01*
X203000131Y-153515551D01*
X203006059Y-153610727D01*
X203009507Y-153695356D01*
X203010100Y-153729754D01*
X203010139Y-153802857D01*
X203008814Y-153856483D01*
X203005609Y-153895718D01*
X203000008Y-153925646D01*
X202991497Y-153951353D01*
X202986431Y-153963232D01*
X202947050Y-154033141D01*
X202896226Y-154089252D01*
X202830084Y-154134677D01*
X202744751Y-154172531D01*
X202711950Y-154183817D01*
X202606998Y-154215379D01*
X202519994Y-154235375D01*
X202447344Y-154244067D01*
X202385453Y-154241720D01*
X202330727Y-154228596D01*
X202296827Y-154214177D01*
X202250181Y-154186831D01*
X202210943Y-154153641D01*
X202178211Y-154112160D01*
X202151084Y-154059940D01*
X202128660Y-153994534D01*
X202110038Y-153913494D01*
X202094317Y-153814373D01*
X202080595Y-153694723D01*
X202072299Y-153604522D01*
X202066222Y-153539609D01*
X202059921Y-153482906D01*
X202054001Y-153439180D01*
X202049067Y-153413201D01*
X202047444Y-153408742D01*
X202029954Y-153402729D01*
X201993285Y-153406391D01*
X201940375Y-153418692D01*
X201874166Y-153438596D01*
X201797597Y-153465066D01*
X201713608Y-153497066D01*
X201625138Y-153533559D01*
X201535127Y-153573510D01*
X201446516Y-153615882D01*
X201415579Y-153631501D01*
X201255782Y-153713417D01*
X201258505Y-153773811D01*
X201259592Y-153806051D01*
X201260894Y-153857444D01*
X201262292Y-153922568D01*
X201263669Y-153996002D01*
X201264649Y-154055395D01*
X201265699Y-154135224D01*
X201265755Y-154195047D01*
X201264412Y-154239430D01*
X201261265Y-154272938D01*
X201255908Y-154300133D01*
X201247938Y-154325582D01*
X201238531Y-154349934D01*
X201195149Y-154428324D01*
X201134221Y-154497342D01*
X201061515Y-154551257D01*
X201011993Y-154574991D01*
X200921563Y-154598848D01*
X200836966Y-154600365D01*
X200760206Y-154579994D01*
X200693285Y-154538190D01*
X200650896Y-154493225D01*
X200623766Y-154451674D01*
X200601919Y-154403138D01*
X200584079Y-154343281D01*
X200568969Y-154267769D01*
X200555313Y-154172268D01*
X200554534Y-154165990D01*
X200546688Y-154102444D01*
X200539231Y-154042351D01*
X200533071Y-153993001D01*
X200529467Y-153964438D01*
X200522560Y-153910347D01*
X200274754Y-153917810D01*
X200187790Y-153921196D01*
X200098658Y-153926011D01*
X200014231Y-153931789D01*
X199941379Y-153938066D01*
X199891776Y-153943705D01*
X199819329Y-153955189D01*
X199739341Y-153970498D01*
X199658656Y-153988083D01*
X199584115Y-154006392D01*
X199522561Y-154023876D01*
X199492405Y-154034198D01*
X199461684Y-154045974D01*
X199461374Y-154370181D01*
X199461021Y-154477606D01*
X199459821Y-154563760D01*
X199457219Y-154631948D01*
X199452662Y-154685473D01*
X199445595Y-154727642D01*
X199435464Y-154761757D01*
X199421716Y-154791123D01*
X199403796Y-154819045D01*
X199381150Y-154848826D01*
X199381102Y-154848886D01*
X199330648Y-154896258D01*
X199264183Y-154935574D01*
X199189892Y-154963082D01*
X199115961Y-154975031D01*
X199105322Y-154975250D01*
X199018126Y-154966311D01*
X198937156Y-154941205D01*
X198869894Y-154902332D01*
X198864441Y-154897971D01*
X198822587Y-154852370D01*
X198783140Y-154789208D01*
X198749739Y-154715466D01*
X198726026Y-154638129D01*
X198723866Y-154628279D01*
X198717366Y-154592803D01*
X198708994Y-154540885D01*
X198699450Y-154477597D01*
X198689434Y-154408010D01*
X198679648Y-154337196D01*
X198670790Y-154270225D01*
X198663563Y-154212170D01*
X198658666Y-154168100D01*
X198656799Y-154143089D01*
X198656798Y-154142666D01*
X198645195Y-154132993D01*
X198612834Y-154121400D01*
X198563389Y-154108649D01*
X198500532Y-154095498D01*
X198427936Y-154082707D01*
X198349275Y-154071034D01*
X198268220Y-154061238D01*
X198257426Y-154060115D01*
X198186704Y-154055121D01*
X198106257Y-154053001D01*
X198023068Y-154053604D01*
X197944119Y-154056779D01*
X197876391Y-154062374D01*
X197830817Y-154069351D01*
X197797435Y-154076535D01*
X197798037Y-154318947D01*
X197797621Y-154419118D01*
X197795460Y-154498458D01*
X197791012Y-154560682D01*
X197783739Y-154609507D01*
X197773099Y-154648649D01*
X197758554Y-154681822D01*
X197741156Y-154710417D01*
X197706093Y-154750312D01*
X197655517Y-154793134D01*
X197596909Y-154833133D01*
X197544703Y-154861397D01*
X197475403Y-154880951D01*
X197399622Y-154880851D01*
X197323710Y-154862405D01*
X197254012Y-154826920D01*
X197212624Y-154792948D01*
X197176298Y-154750762D01*
X197145359Y-154700887D01*
X197118948Y-154640523D01*
X197096204Y-154566867D01*
X197076266Y-154477120D01*
X197058273Y-154368480D01*
X197041365Y-154238145D01*
X197040885Y-154234040D01*
X197032623Y-154171235D01*
X197023872Y-154118416D01*
X197015509Y-154080120D01*
X197008407Y-154060881D01*
X197007253Y-154059742D01*
X196979078Y-154050253D01*
X196932078Y-154043075D01*
X196870773Y-154038148D01*
X196799681Y-154035410D01*
X196723320Y-154034801D01*
X196646209Y-154036260D01*
X196572867Y-154039725D01*
X196507813Y-154045137D01*
X196455565Y-154052435D01*
X196420641Y-154061557D01*
X196409977Y-154067785D01*
X196407248Y-154082424D01*
X196405169Y-154117484D01*
X196403764Y-154168815D01*
X196403058Y-154232270D01*
X196403074Y-154303699D01*
X196403837Y-154378954D01*
X196405371Y-154453886D01*
X196407375Y-154516207D01*
X196408858Y-154592394D01*
X196405404Y-154650233D01*
X196395334Y-154695734D01*
X196376970Y-154734908D01*
X196348634Y-154773767D01*
X196329248Y-154796013D01*
X196264669Y-154849738D01*
X196186479Y-154884458D01*
X196096590Y-154900222D01*
X195996911Y-154897081D01*
X195889351Y-154875086D01*
X195775821Y-154834288D01*
X195664587Y-154778394D01*
X195492340Y-154667015D01*
X195335691Y-154538458D01*
X195194479Y-154392408D01*
X195068542Y-154228550D01*
X194957718Y-154046569D01*
X194861846Y-153846151D01*
X194780764Y-153626981D01*
X194714312Y-153388743D01*
X194662326Y-153131123D01*
X194624646Y-152853807D01*
X194612788Y-152728254D01*
X194607023Y-152633713D01*
X194603507Y-152520367D01*
X194602114Y-152392572D01*
X194602717Y-152254686D01*
X194605192Y-152111067D01*
X194609412Y-151966070D01*
X194615253Y-151824052D01*
X194622588Y-151689372D01*
X194631292Y-151566386D01*
X194641239Y-151459451D01*
X194651751Y-151376536D01*
X194686704Y-151224980D01*
X194745924Y-151070841D01*
X194829273Y-150914449D01*
X194873352Y-150845311D01*
X194915289Y-150789358D01*
X194972434Y-150722685D01*
X195040504Y-150649539D01*
X195115214Y-150574169D01*
X195192279Y-150500824D01*
X195267416Y-150433750D01*
X195336340Y-150377196D01*
X195372519Y-150350369D01*
X195516768Y-150254397D01*
X195647775Y-150178774D01*
X195765904Y-150123382D01*
X195871519Y-150088104D01*
X195964985Y-150072823D01*
X196046665Y-150077420D01*
X196116923Y-150101778D01*
X196126262Y-150106988D01*
X196190277Y-150158594D01*
X196238536Y-150227891D01*
X196266963Y-150303210D01*
X196272916Y-150333063D01*
X196280950Y-150383328D01*
X196290509Y-150449983D01*
X196301036Y-150529004D01*
X196311977Y-150616370D01*
X196321930Y-150700678D01*
X196334313Y-150806032D01*
X196344848Y-150889128D01*
X196353900Y-150952185D01*
X196361837Y-150997420D01*
X196369025Y-151027054D01*
X196375829Y-151043303D01*
X196379099Y-151047026D01*
X196401260Y-151058245D01*
X196441730Y-151073787D01*
X196494990Y-151091947D01*
X196555524Y-151111018D01*
X196617813Y-151129295D01*
X196676340Y-151145070D01*
X196725589Y-151156638D01*
X196745961Y-151160467D01*
X196812887Y-151168921D01*
X196885960Y-151174392D01*
X196953165Y-151176123D01*
X196981640Y-151175304D01*
X196996697Y-151170451D01*
X197008879Y-151156457D01*
X197018377Y-151131341D01*
X197025380Y-151093119D01*
X197030081Y-151039812D01*
X197032669Y-150969435D01*
X197033337Y-150880009D01*
X197032274Y-150769551D01*
X197030401Y-150669112D01*
X197022634Y-150305760D01*
X197054293Y-150242229D01*
X197104053Y-150167725D01*
X197169997Y-150107012D01*
X197247439Y-150062826D01*
X197331698Y-150037910D01*
X197409892Y-150034254D01*
X197498085Y-150052086D01*
X197574034Y-150091099D01*
X197638007Y-150151482D01*
X197690267Y-150233424D01*
X197690611Y-150234111D01*
X197706021Y-150268710D01*
X197718481Y-150306433D01*
X197728291Y-150350230D01*
X197735753Y-150403053D01*
X197741169Y-150467853D01*
X197744838Y-150547581D01*
X197747063Y-150645186D01*
X197748145Y-150763622D01*
X197748278Y-150798984D01*
X197748837Y-150891527D01*
X197749905Y-150978624D01*
X197751394Y-151056479D01*
X197753215Y-151121298D01*
X197755279Y-151169282D01*
X197757498Y-151196637D01*
X197757587Y-151197243D01*
X197765893Y-151251428D01*
X197850549Y-151279959D01*
X197931479Y-151304342D01*
X198009269Y-151320854D01*
X198091993Y-151330673D01*
X198187726Y-151334975D01*
X198230851Y-151335413D01*
X198277801Y-151335215D01*
X198320414Y-151334021D01*
X198362664Y-151331357D01*
X198408525Y-151326743D01*
X198461970Y-151319704D01*
X198526972Y-151309763D01*
X198607505Y-151296442D01*
X198707542Y-151279265D01*
X198727456Y-151275809D01*
X198755114Y-151267953D01*
X198765850Y-151251820D01*
X198767393Y-151228771D01*
X198765743Y-151188877D01*
X198760986Y-151127502D01*
X198753410Y-151047504D01*
X198743301Y-150951742D01*
X198730948Y-150843076D01*
X198716748Y-150725254D01*
X198705155Y-150621485D01*
X198698945Y-150537507D01*
X198698277Y-150469096D01*
X198703306Y-150412030D01*
X198714190Y-150362084D01*
X198731085Y-150315037D01*
X198732057Y-150312763D01*
X198764423Y-150258012D01*
X198810705Y-150205489D01*
X198864042Y-150161551D01*
X198917574Y-150132557D01*
X198931358Y-150128065D01*
X199011399Y-150117403D01*
X199093951Y-150125654D01*
X199172274Y-150151027D01*
X199239626Y-150191732D01*
X199267005Y-150217191D01*
X199285413Y-150238347D01*
X199301208Y-150260162D01*
X199314929Y-150285040D01*
X199327114Y-150315383D01*
X199338305Y-150353595D01*
X199349040Y-150402078D01*
X199359860Y-150463236D01*
X199371303Y-150539471D01*
X199383909Y-150633187D01*
X199398219Y-150746786D01*
X199412825Y-150866570D01*
X199422585Y-150946022D01*
X199431776Y-151018517D01*
X199439865Y-151080038D01*
X199446322Y-151126565D01*
X199450612Y-151154082D01*
X199451489Y-151158418D01*
X199455614Y-151170447D01*
X199463984Y-151178359D01*
X199481059Y-151183014D01*
X199511302Y-151185269D01*
X199559176Y-151185981D01*
X199595116Y-151186025D01*
X199773588Y-151180947D01*
X199953707Y-151166373D01*
X200129547Y-151143134D01*
X200295182Y-151112062D01*
X200444685Y-151073985D01*
X200485874Y-151061200D01*
X200563862Y-151035814D01*
X200555858Y-150978841D01*
X200534946Y-150835554D01*
X200514367Y-150705366D01*
X200494585Y-150590916D01*
X200476063Y-150494842D01*
X200459265Y-150419786D01*
X200454526Y-150401373D01*
X200433300Y-150315857D01*
X200420886Y-150248298D01*
X200416892Y-150193866D01*
X200420922Y-150147730D01*
X200430752Y-150110278D01*
X200468488Y-150033855D01*
X200522686Y-149970896D01*
X200589390Y-149922702D01*
X200664646Y-149890572D01*
X200744499Y-149875807D01*
X200824993Y-149879707D01*
X200902173Y-149903573D01*
X200957734Y-149937040D01*
X200988896Y-149962009D01*
X201015141Y-149986934D01*
X201037296Y-150014400D01*
X201056185Y-150046991D01*
X201072634Y-150087291D01*
X201087468Y-150137886D01*
X201101513Y-150201360D01*
X201115594Y-150280298D01*
X201130537Y-150377284D01*
X201147167Y-150494903D01*
X201155605Y-150556606D01*
X201167096Y-150639322D01*
X201177917Y-150713786D01*
X201187535Y-150776587D01*
X201195414Y-150824313D01*
X201201019Y-150853552D01*
X201203355Y-150861249D01*
X201217806Y-150862478D01*
X201251073Y-150860021D01*
X201297759Y-150854391D01*
X201337693Y-150848495D01*
X201563547Y-150802894D01*
X201773938Y-150739769D01*
X201971422Y-150658306D01*
X202035323Y-150626679D01*
X202142536Y-150571306D01*
X202137968Y-150500820D01*
X202129934Y-150403074D01*
X202118788Y-150304751D01*
X202105360Y-150211238D01*
X202090482Y-150127922D01*
X202074987Y-150060193D01*
X202064727Y-150026370D01*
X202038499Y-149944220D01*
X202024119Y-149877423D01*
X202020699Y-149820310D01*
X202025590Y-149775989D01*
X202052539Y-149694121D01*
X202098518Y-149623063D01*
X202159715Y-149565086D01*
X202232318Y-149522461D01*
X202312515Y-149497458D01*
X202396493Y-149492348D01*
X202475794Y-149507819D01*
X202554721Y-149546579D01*
X202621872Y-149606587D01*
X202677345Y-149687979D01*
X202721236Y-149790891D01*
X202749009Y-149893071D01*
X202757266Y-149940598D01*
X202765964Y-150006916D01*
X202774577Y-150086258D01*
X202782577Y-150172856D01*
X202789435Y-150260943D01*
X202794624Y-150344753D01*
X202797616Y-150418518D01*
X202797795Y-150426093D01*
X202809056Y-150430556D01*
X202839831Y-150428546D01*
X202886115Y-150420735D01*
X202943908Y-150407792D01*
X203006870Y-150391057D01*
X203105646Y-150356253D01*
X203210161Y-150308021D01*
X203310071Y-150251514D01*
X203374092Y-150208049D01*
X203438761Y-150159991D01*
X203431079Y-150061684D01*
X203426199Y-150001955D01*
X203420609Y-149939304D01*
X203413994Y-149870741D01*
X203406036Y-149793277D01*
X203396421Y-149703922D01*
X203384831Y-149599687D01*
X203370950Y-149477583D01*
X203354463Y-149334620D01*
X203351137Y-149305951D01*
X203328741Y-149111189D01*
X203309645Y-148939061D01*
X203294011Y-148787827D01*
X203282001Y-148655744D01*
X203273775Y-148541073D01*
X203269496Y-148442072D01*
X203269324Y-148356999D01*
X203273422Y-148284115D01*
X203281951Y-148221677D01*
X203295071Y-148167945D01*
X203312945Y-148121178D01*
X203335735Y-148079634D01*
X203363601Y-148041573D01*
X203396705Y-148005253D01*
X203435208Y-147968934D01*
X203478610Y-147931432D01*
X203642284Y-147782174D01*
X203785414Y-147626768D01*
X203909626Y-147462552D01*
X204016545Y-147286861D01*
X204107796Y-147097033D01*
X204185004Y-146890406D01*
X204248344Y-146670102D01*
X204291052Y-146477929D01*
X204324235Y-146277621D01*
X204348255Y-146065698D01*
X204363480Y-145838682D01*
X204370272Y-145593095D01*
X204370725Y-145502710D01*
X204368789Y-145308346D01*
X204362842Y-145133552D01*
X204352472Y-144973588D01*
X204337267Y-144823710D01*
X204316814Y-144679177D01*
X204290703Y-144535249D01*
X204283744Y-144501210D01*
X204210949Y-144211937D01*
X204114890Y-143929803D01*
X203995983Y-143655363D01*
X203854643Y-143389173D01*
X203691287Y-143131789D01*
X203506328Y-142883768D01*
X203300183Y-142645666D01*
X203073268Y-142418039D01*
X202825997Y-142201444D01*
X202558786Y-141996435D01*
X202272051Y-141803571D01*
X202265687Y-141799569D01*
X201940542Y-141609043D01*
X201597062Y-141434060D01*
X201236190Y-141274920D01*
X200858871Y-141131923D01*
X200466046Y-141005370D01*
X200058661Y-140895559D01*
X199637657Y-140802792D01*
X199203979Y-140727367D01*
X198758569Y-140669585D01*
X198687518Y-140662123D01*
X198560971Y-140649730D01*
X198444651Y-140639501D01*
X198334213Y-140631246D01*
X198225309Y-140624776D01*
X198113592Y-140619900D01*
X197994714Y-140616430D01*
X197864329Y-140614176D01*
X197718090Y-140612948D01*
X197551649Y-140612557D01*
X197550847Y-140612557D01*
X197376124Y-140612948D01*
X197221079Y-140614325D01*
X197080826Y-140616887D01*
X196950477Y-140620834D01*
X196825148Y-140626368D01*
X196699952Y-140633688D01*
X196570002Y-140642995D01*
X196430412Y-140654489D01*
X196346590Y-140661921D01*
X195907324Y-140710032D01*
X195479925Y-140773651D01*
X195065513Y-140852463D01*
X194665211Y-140946150D01*
X194280138Y-141054397D01*
X193911416Y-141176887D01*
X193560167Y-141313305D01*
X193227512Y-141463335D01*
X192914571Y-141626659D01*
X192903385Y-141632953D01*
X192825594Y-141678817D01*
X192734094Y-141735973D01*
X192634569Y-141800615D01*
X192532703Y-141868938D01*
X192434181Y-141937138D01*
X192344688Y-142001411D01*
X192279185Y-142050716D01*
X192211380Y-142106251D01*
X192132442Y-142175762D01*
X192046369Y-142255307D01*
X191957161Y-142340944D01*
X191868817Y-142428733D01*
X191785337Y-142514732D01*
X191710720Y-142594998D01*
X191648965Y-142665591D01*
X191623285Y-142697141D01*
X191450225Y-142936525D01*
X191299602Y-143185938D01*
X191171435Y-143445338D01*
X191065741Y-143714681D01*
X190982539Y-143993925D01*
X190921848Y-144283028D01*
X190914416Y-144328983D01*
X190889910Y-144528464D01*
X190874955Y-144746489D01*
X190869369Y-144979035D01*
X190327518Y-144979035D01*
X190327544Y-144974286D01*
X190329341Y-144849962D01*
X190332205Y-144729166D01*
X190336073Y-144615898D01*
X190340884Y-144514158D01*
X190346575Y-144427943D01*
X190353082Y-144361256D01*
X190354901Y-144347606D01*
X190401246Y-144074038D01*
X190459642Y-143818073D01*
X190531513Y-143575150D01*
X190618281Y-143340714D01*
X190721370Y-143110204D01*
X190773594Y-143006290D01*
X190926147Y-142737435D01*
X191097579Y-142482400D01*
X191288679Y-142240255D01*
X191500236Y-142010069D01*
X191733039Y-141790914D01*
X191972984Y-141593335D01*
X192258496Y-141387253D01*
X192563858Y-141195171D01*
X192888592Y-141017277D01*
X193232219Y-140853760D01*
X193594261Y-140704807D01*
X193974240Y-140570607D01*
X194371676Y-140451348D01*
X194786092Y-140347219D01*
X195217008Y-140258407D01*
X195480262Y-140213034D01*
X195914117Y-140151899D01*
X196358415Y-140105468D01*
X196808910Y-140073829D01*
X197261359Y-140057071D01*
X197711516Y-140055282D01*
X198155138Y-140068550D01*
G37*
%TD.AperFunction*%
%TD*%
D11*
X153501580Y-123186031D03*
X157036079Y-139814540D03*
X252645575Y-92938897D03*
X273604271Y-152758428D03*
X200876966Y-158738623D03*
M02*
