%TF.GenerationSoftware,KiCad,Pcbnew,8.0.5*%
%TF.CreationDate,2024-10-14T20:57:04+01:00*%
%TF.ProjectId,scorn_choc.kicad_pcb_hybrid_routing,73636f72-6e5f-4636-986f-632e6b696361,v1.0.0*%
%TF.SameCoordinates,Original*%
%TF.FileFunction,Copper,L2,Bot*%
%TF.FilePolarity,Positive*%
%FSLAX46Y46*%
G04 Gerber Fmt 4.6, Leading zero omitted, Abs format (unit mm)*
G04 Created by KiCad (PCBNEW 8.0.5) date 2024-10-14 20:57:04*
%MOMM*%
%LPD*%
G01*
G04 APERTURE LIST*
G04 Aperture macros list*
%AMRotRect*
0 Rectangle, with rotation*
0 The origin of the aperture is its center*
0 $1 length*
0 $2 width*
0 $3 Rotation angle, in degrees counterclockwise*
0 Add horizontal line*
21,1,$1,$2,0,0,$3*%
%AMOutline5P*
0 Free polygon, 5 corners , with rotation*
0 The origin of the aperture is its center*
0 number of corners: always 5*
0 $1 to $10 corner X, Y*
0 $11 Rotation angle, in degrees counterclockwise*
0 create outline with 5 corners*
4,1,5,$1,$2,$3,$4,$5,$6,$7,$8,$9,$10,$1,$2,$11*%
%AMOutline6P*
0 Free polygon, 6 corners , with rotation*
0 The origin of the aperture is its center*
0 number of corners: always 6*
0 $1 to $12 corner X, Y*
0 $13 Rotation angle, in degrees counterclockwise*
0 create outline with 6 corners*
4,1,6,$1,$2,$3,$4,$5,$6,$7,$8,$9,$10,$11,$12,$1,$2,$13*%
%AMOutline7P*
0 Free polygon, 7 corners , with rotation*
0 The origin of the aperture is its center*
0 number of corners: always 7*
0 $1 to $14 corner X, Y*
0 $15 Rotation angle, in degrees counterclockwise*
0 create outline with 7 corners*
4,1,7,$1,$2,$3,$4,$5,$6,$7,$8,$9,$10,$11,$12,$13,$14,$1,$2,$15*%
%AMOutline8P*
0 Free polygon, 8 corners , with rotation*
0 The origin of the aperture is its center*
0 number of corners: always 8*
0 $1 to $16 corner X, Y*
0 $17 Rotation angle, in degrees counterclockwise*
0 create outline with 8 corners*
4,1,8,$1,$2,$3,$4,$5,$6,$7,$8,$9,$10,$11,$12,$13,$14,$15,$16,$1,$2,$17*%
%AMFreePoly0*
4,1,6,0.250000,0.000000,-0.250000,-0.625000,-0.500000,-0.625000,-0.500000,0.625000,-0.250000,0.625000,0.250000,0.000000,0.250000,0.000000,$1*%
%AMFreePoly1*
4,1,6,0.500000,-0.625000,-0.650000,-0.625000,-0.150000,0.000000,-0.650000,0.625000,0.500000,0.625000,0.500000,-0.625000,0.500000,-0.625000,$1*%
G04 Aperture macros list end*
%TA.AperFunction,SMDPad,CuDef*%
%ADD10FreePoly0,180.000000*%
%TD*%
%TA.AperFunction,ComponentPad*%
%ADD11C,1.700000*%
%TD*%
%TA.AperFunction,SMDPad,CuDef*%
%ADD12FreePoly0,0.000000*%
%TD*%
%TA.AperFunction,SMDPad,CuDef*%
%ADD13FreePoly1,0.000000*%
%TD*%
%TA.AperFunction,ComponentPad*%
%ADD14C,0.800000*%
%TD*%
%TA.AperFunction,SMDPad,CuDef*%
%ADD15FreePoly1,180.000000*%
%TD*%
%TA.AperFunction,ComponentPad*%
%ADD16O,2.200000X1.600000*%
%TD*%
%TA.AperFunction,ComponentPad*%
%ADD17O,3.300000X1.600000*%
%TD*%
%TA.AperFunction,ComponentPad*%
%ADD18O,1.700000X1.700000*%
%TD*%
%TA.AperFunction,SMDPad,CuDef*%
%ADD19R,1.200000X0.600000*%
%TD*%
%TA.AperFunction,ComponentPad*%
%ADD20C,2.000000*%
%TD*%
%TA.AperFunction,SMDPad,CuDef*%
%ADD21RotRect,1.400000X1.000000X342.000000*%
%TD*%
%TA.AperFunction,SMDPad,CuDef*%
%ADD22R,1.400000X1.000000*%
%TD*%
%TA.AperFunction,SMDPad,CuDef*%
%ADD23RotRect,0.900000X1.200000X273.000000*%
%TD*%
%TA.AperFunction,SMDPad,CuDef*%
%ADD24RotRect,0.900000X1.200000X282.000000*%
%TD*%
%TA.AperFunction,SMDPad,CuDef*%
%ADD25Outline5P,-1.300000X1.300000X1.300000X1.300000X1.300000X-1.300000X-0.117000X-1.300000X-1.300000X-0.117000X192.000000*%
%TD*%
%TA.AperFunction,SMDPad,CuDef*%
%ADD26RotRect,2.600000X2.600000X192.000000*%
%TD*%
%TA.AperFunction,SMDPad,CuDef*%
%ADD27RotRect,1.400000X1.000000X12.000000*%
%TD*%
%TA.AperFunction,SMDPad,CuDef*%
%ADD28RotRect,0.900000X1.200000X265.000000*%
%TD*%
%TA.AperFunction,SMDPad,CuDef*%
%ADD29RotRect,0.900000X1.200000X252.000000*%
%TD*%
%TA.AperFunction,SMDPad,CuDef*%
%ADD30RotRect,1.400000X1.000000X6.000000*%
%TD*%
%TA.AperFunction,SMDPad,CuDef*%
%ADD31RotRect,1.400000X1.000000X5.000000*%
%TD*%
%TA.AperFunction,SMDPad,CuDef*%
%ADD32Outline5P,-1.300000X1.300000X1.300000X1.300000X1.300000X-1.300000X-0.117000X-1.300000X-1.300000X-0.117000X186.000000*%
%TD*%
%TA.AperFunction,SMDPad,CuDef*%
%ADD33RotRect,2.600000X2.600000X186.000000*%
%TD*%
%TA.AperFunction,SMDPad,CuDef*%
%ADD34Outline5P,-1.300000X1.300000X1.300000X1.300000X1.300000X-1.300000X-0.117000X-1.300000X-1.300000X-0.117000X183.000000*%
%TD*%
%TA.AperFunction,SMDPad,CuDef*%
%ADD35RotRect,2.600000X2.600000X183.000000*%
%TD*%
%TA.AperFunction,SMDPad,CuDef*%
%ADD36RotRect,1.400000X1.000000X3.000000*%
%TD*%
%TA.AperFunction,SMDPad,CuDef*%
%ADD37R,1.200000X0.900000*%
%TD*%
%TA.AperFunction,SMDPad,CuDef*%
%ADD38Outline5P,-1.300000X1.300000X1.300000X1.300000X1.300000X-1.300000X-0.117000X-1.300000X-1.300000X-0.117000X162.000000*%
%TD*%
%TA.AperFunction,SMDPad,CuDef*%
%ADD39RotRect,2.600000X2.600000X162.000000*%
%TD*%
%TA.AperFunction,SMDPad,CuDef*%
%ADD40RotRect,0.900000X1.200000X276.000000*%
%TD*%
%TA.AperFunction,SMDPad,CuDef*%
%ADD41Outline5P,-1.300000X1.300000X1.300000X1.300000X1.300000X-1.300000X-0.117000X-1.300000X-1.300000X-0.117000X180.000000*%
%TD*%
%TA.AperFunction,SMDPad,CuDef*%
%ADD42R,2.600000X2.600000*%
%TD*%
%TA.AperFunction,SMDPad,CuDef*%
%ADD43RotRect,1.400000X1.000000X355.000000*%
%TD*%
%TA.AperFunction,SMDPad,CuDef*%
%ADD44RotRect,0.900000X1.200000X275.000000*%
%TD*%
%TA.AperFunction,SMDPad,CuDef*%
%ADD45Outline5P,-1.300000X1.300000X1.300000X1.300000X1.300000X-1.300000X-0.117000X-1.300000X-1.300000X-0.117000X175.000000*%
%TD*%
%TA.AperFunction,SMDPad,CuDef*%
%ADD46RotRect,2.600000X2.600000X175.000000*%
%TD*%
%TA.AperFunction,SMDPad,CuDef*%
%ADD47Outline5P,-1.300000X1.300000X1.300000X1.300000X1.300000X-1.300000X-0.117000X-1.300000X-1.300000X-0.117000X185.000000*%
%TD*%
%TA.AperFunction,SMDPad,CuDef*%
%ADD48RotRect,2.600000X2.600000X185.000000*%
%TD*%
%TA.AperFunction,ViaPad*%
%ADD49C,0.600000*%
%TD*%
%TA.AperFunction,ViaPad*%
%ADD50C,0.800000*%
%TD*%
%TA.AperFunction,Conductor*%
%ADD51C,0.150000*%
%TD*%
%TA.AperFunction,Conductor*%
%ADD52C,0.250000*%
%TD*%
%ADD53C,0.300000*%
%ADD54C,0.350000*%
%ADD55O,1.500000X0.900000*%
%ADD56O,2.600000X0.900000*%
G04 APERTURE END LIST*
D10*
%TO.P,MCU1,1*%
%TO.N,MCU1_1*%
X269464533Y-95468829D03*
D11*
X271584532Y-95468827D03*
D10*
%TO.P,MCU1,2*%
%TO.N,MCU1_2*%
X269464535Y-98008829D03*
D11*
X271584534Y-98008829D03*
D10*
%TO.P,MCU1,3*%
%TO.N,MCU1_3*%
X269464534Y-100548829D03*
D11*
X271584534Y-100548829D03*
D10*
%TO.P,MCU1,4*%
%TO.N,MCU1_4*%
X269464534Y-103088829D03*
D11*
X271584534Y-103088829D03*
D10*
%TO.P,MCU1,5*%
%TO.N,MCU1_5*%
X269464535Y-105628829D03*
D11*
X271584534Y-105628829D03*
D10*
%TO.P,MCU1,6*%
%TO.N,MCU1_6*%
X269464534Y-108168829D03*
D11*
X271584534Y-108168829D03*
D10*
%TO.P,MCU1,7*%
%TO.N,MCU1_7*%
X269464534Y-110708829D03*
D11*
X271584534Y-110708829D03*
D10*
%TO.P,MCU1,8*%
%TO.N,MCU1_8*%
X269464534Y-113248829D03*
D11*
X271584534Y-113248829D03*
D10*
%TO.P,MCU1,9*%
%TO.N,MCU1_9*%
X269464534Y-115788829D03*
D11*
X271584534Y-115788829D03*
D10*
%TO.P,MCU1,10*%
%TO.N,MCU1_10*%
X269464534Y-118328829D03*
D11*
X271584534Y-118328829D03*
D10*
%TO.P,MCU1,11*%
%TO.N,MCU1_11*%
X269464534Y-120868829D03*
D11*
X271584534Y-120868830D03*
D10*
%TO.P,MCU1,12*%
%TO.N,MCU1_12*%
X269464533Y-123408829D03*
D11*
X271584534Y-123408829D03*
%TO.P,MCU1,13*%
%TO.N,MCU1_13*%
X256344534Y-123408829D03*
D12*
X258464536Y-123408829D03*
D11*
%TO.P,MCU1,14*%
%TO.N,MCU1_14*%
X256344536Y-120868831D03*
D12*
X258464535Y-120868829D03*
D11*
%TO.P,MCU1,15*%
%TO.N,MCU1_15*%
X256344534Y-118328829D03*
D12*
X258464533Y-118328829D03*
D11*
%TO.P,MCU1,16*%
%TO.N,MCU1_16*%
X256344534Y-115788829D03*
D12*
X258464534Y-115788829D03*
D11*
%TO.P,MCU1,17*%
%TO.N,MCU1_17*%
X256344534Y-113248829D03*
D12*
X258464534Y-113248829D03*
D11*
%TO.P,MCU1,18*%
%TO.N,MCU1_18*%
X256344534Y-110708829D03*
D12*
X258464533Y-110708829D03*
D11*
%TO.P,MCU1,19*%
%TO.N,MCU1_19*%
X256344534Y-108168829D03*
D12*
X258464534Y-108168829D03*
D11*
%TO.P,MCU1,20*%
%TO.N,MCU1_20*%
X256344534Y-105628829D03*
D12*
X258464534Y-105628829D03*
D11*
%TO.P,MCU1,21*%
%TO.N,MCU1_21*%
X256344534Y-103088829D03*
D12*
X258464534Y-103088829D03*
D11*
%TO.P,MCU1,22*%
%TO.N,MCU1_22*%
X256344534Y-100548829D03*
D12*
X258464534Y-100548829D03*
D11*
%TO.P,MCU1,23*%
%TO.N,MCU1_23*%
X256344534Y-98008829D03*
D12*
X258464534Y-98008829D03*
D11*
%TO.P,MCU1,24*%
%TO.N,MCU1_24*%
X256344534Y-95468828D03*
D12*
X258464534Y-95468829D03*
D13*
%TO.P,MCU1,101*%
%TO.N,LED*%
X259189534Y-95468829D03*
D14*
X267364532Y-95468829D03*
D13*
%TO.P,MCU1,102*%
%TO.N,P0*%
X259189534Y-98008829D03*
D14*
X267364534Y-98008829D03*
D13*
%TO.P,MCU1,103*%
%TO.N,GND*%
X259189534Y-100548829D03*
D14*
X267364534Y-100548829D03*
D13*
%TO.P,MCU1,104*%
X259189531Y-103088829D03*
D14*
X267364533Y-103088829D03*
D13*
%TO.P,MCU1,105*%
%TO.N,SDA*%
X259189534Y-105628829D03*
D14*
X267364534Y-105628829D03*
D13*
%TO.P,MCU1,106*%
%TO.N,SCL*%
X259189534Y-108168829D03*
D14*
X267364535Y-108168829D03*
D13*
%TO.P,MCU1,107*%
%TO.N,CS*%
X259189534Y-110708829D03*
D14*
X267364534Y-110708829D03*
D13*
%TO.P,MCU1,108*%
%TO.N,R0*%
X259189531Y-113248829D03*
D14*
X267364533Y-113248829D03*
D13*
%TO.P,MCU1,109*%
%TO.N,R1*%
X259189534Y-115788829D03*
D14*
X267364534Y-115788829D03*
D13*
%TO.P,MCU1,110*%
%TO.N,R2*%
X259189534Y-118328829D03*
D14*
X267364533Y-118328829D03*
D13*
%TO.P,MCU1,111*%
%TO.N,R3*%
X259189534Y-120868829D03*
D14*
X267364533Y-120868829D03*
D13*
%TO.P,MCU1,112*%
%TO.N,DAT*%
X259189534Y-123408829D03*
D14*
X267364532Y-123408829D03*
%TO.P,MCU1,113*%
%TO.N,P10*%
X260564536Y-123408829D03*
D15*
X268739534Y-123408829D03*
D14*
%TO.P,MCU1,114*%
%TO.N,P16*%
X260564536Y-120868829D03*
D15*
X268739534Y-120868829D03*
D14*
%TO.P,MCU1,115*%
%TO.N,C5*%
X260564534Y-118328829D03*
D15*
X268739534Y-118328829D03*
D14*
%TO.P,MCU1,116*%
%TO.N,C4*%
X260564534Y-115788829D03*
D15*
X268739534Y-115788829D03*
D14*
%TO.P,MCU1,117*%
%TO.N,C3*%
X260564535Y-113248829D03*
D15*
X268739537Y-113248829D03*
D14*
%TO.P,MCU1,118*%
%TO.N,C2*%
X260564534Y-110708829D03*
D15*
X268739534Y-110708829D03*
D14*
%TO.P,MCU1,119*%
%TO.N,C1*%
X260564533Y-108168829D03*
D15*
X268739534Y-108168829D03*
D14*
%TO.P,MCU1,120*%
%TO.N,C0*%
X260564534Y-105628829D03*
D15*
X268739534Y-105628829D03*
D14*
%TO.P,MCU1,121*%
%TO.N,VCC*%
X260564535Y-103088829D03*
D15*
X268739537Y-103088829D03*
D14*
%TO.P,MCU1,122*%
%TO.N,RST*%
X260564534Y-100548829D03*
D15*
X268739534Y-100548829D03*
D14*
%TO.P,MCU1,123*%
%TO.N,GND*%
X260564535Y-98008829D03*
D15*
X268739534Y-98008829D03*
D14*
%TO.P,MCU1,124*%
%TO.N,RAW*%
X260564535Y-95468829D03*
D15*
X268739534Y-95468829D03*
%TD*%
D16*
%TO.P,TRRS1,2*%
%TO.N,GND*%
X269764535Y-140368829D03*
X269764535Y-144968829D03*
%TO.P,TRRS1,3*%
%TO.N,DAT*%
X266764535Y-140368828D03*
X266764535Y-144968829D03*
D17*
%TO.P,TRRS1,4*%
%TO.N,VCC*%
X262214535Y-140368829D03*
X262214535Y-144968829D03*
%TD*%
D18*
%TO.P,DISP1,1*%
%TO.N,DISP1_1*%
X260154533Y-129368832D03*
%TO.P,DISP1,2*%
%TO.N,DISP1_2*%
X262694533Y-129368832D03*
%TO.P,DISP1,3*%
%TO.N,DISP1_3*%
X265234533Y-129368832D03*
%TO.P,DISP1,4*%
%TO.N,DISP1_4*%
X267774533Y-129368832D03*
D19*
%TO.P,DISP1,20*%
X267774533Y-127618832D03*
%TO.P,DISP1,21*%
%TO.N,DISP1_3*%
X265234532Y-127618829D03*
%TO.P,DISP1,22*%
%TO.N,DISP1_2*%
X262694535Y-127618832D03*
%TO.P,DISP1,23*%
%TO.N,DISP1_1*%
X260154533Y-127618832D03*
%TO.P,DISP1,24*%
%TO.N,GND*%
X267774533Y-126718832D03*
%TO.P,DISP1,25*%
%TO.N,VCC*%
X265234533Y-126718832D03*
%TO.P,DISP1,26*%
%TO.N,SCL*%
X262694533Y-126718832D03*
%TO.P,DISP1,27*%
%TO.N,SDA*%
X260154533Y-126718832D03*
%TD*%
D20*
%TO.P,RST1,1*%
%TO.N,RST*%
X271964536Y-130418830D03*
%TO.P,RST1,2*%
%TO.N,GND*%
X271964536Y-136918830D03*
%TD*%
D21*
%TO.P,LED21,1*%
%TO.N,VCC*%
X261768474Y-160198914D03*
%TO.P,LED21,2*%
%TO.N,LED_21*%
X262201097Y-158867436D03*
%TO.P,LED21,3*%
%TO.N,GND*%
X257065392Y-157198746D03*
%TO.P,LED21,4*%
%TO.N,LED_20*%
X256632769Y-158530224D03*
%TD*%
D22*
%TO.P,LED17,1*%
%TO.N,VCC*%
X235664533Y-113668831D03*
%TO.P,LED17,2*%
%TO.N,LED_12*%
X235664533Y-112268831D03*
%TO.P,LED17,3*%
%TO.N,GND*%
X230264533Y-112268831D03*
%TO.P,LED17,4*%
%TO.N,LED_11*%
X230264533Y-113668831D03*
%TD*%
D23*
%TO.P,D32,1*%
%TO.N,R1*%
X187679081Y-106911494D03*
%TO.P,D32,2*%
%TO.N,middle_home*%
X187851789Y-110206972D03*
%TD*%
D24*
%TO.P,D22,1*%
%TO.N,R2*%
X137936675Y-151291283D03*
%TO.P,D22,2*%
%TO.N,outer_bottom*%
X138622783Y-154519171D03*
%TD*%
D25*
%TO.P,SW3,1*%
%TO.N,C0*%
X143690442Y-124611998D03*
D26*
%TO.P,SW3,2*%
%TO.N,outer_top*%
X131935432Y-124861453D03*
%TD*%
D27*
%TO.P,LED5,1*%
%TO.N,VCC*%
X162200469Y-127885070D03*
%TO.P,LED5,2*%
%TO.N,LED_8*%
X161909392Y-126515663D03*
%TO.P,LED5,3*%
%TO.N,GND*%
X156627395Y-127638386D03*
%TO.P,LED5,4*%
%TO.N,LED_7*%
X156918472Y-129007793D03*
%TD*%
D28*
%TO.P,D41,1*%
%TO.N,R3*%
X227369141Y-154342306D03*
%TO.P,D41,2*%
%TO.N,mid_cluster*%
X227081531Y-157629748D03*
%TD*%
D29*
%TO.P,D42,1*%
%TO.N,R3*%
X251424613Y-157731786D03*
%TO.P,D42,2*%
%TO.N,outer_cluster*%
X250404857Y-160870272D03*
%TD*%
D30*
%TO.P,LED7,1*%
%TO.N,VCC*%
X181720214Y-131203262D03*
%TO.P,LED7,2*%
%TO.N,LED_16*%
X181573874Y-129810936D03*
%TO.P,LED7,3*%
%TO.N,GND*%
X176203456Y-130375386D03*
%TO.P,LED7,4*%
%TO.N,LED_15*%
X176349796Y-131767712D03*
%TD*%
D23*
%TO.P,D31,1*%
%TO.N,R2*%
X188568780Y-123888191D03*
%TO.P,D31,2*%
%TO.N,middle_bottom*%
X188741488Y-127183669D03*
%TD*%
D31*
%TO.P,LED19,1*%
%TO.N,VCC*%
X214305570Y-153948751D03*
%TO.P,LED19,2*%
%TO.N,LED_19*%
X214183552Y-152554078D03*
%TO.P,LED19,3*%
%TO.N,GND*%
X208804100Y-153024719D03*
%TO.P,LED19,4*%
%TO.N,LED_18*%
X208926118Y-154419392D03*
%TD*%
D27*
%TO.P,LED6,1*%
%TO.N,VCC*%
X158665971Y-111256574D03*
%TO.P,LED6,2*%
%TO.N,LED_5*%
X158374894Y-109887167D03*
%TO.P,LED6,3*%
%TO.N,GND*%
X153092897Y-111009890D03*
%TO.P,LED6,4*%
%TO.N,LED_4*%
X153383974Y-112379297D03*
%TD*%
D32*
%TO.P,SW8,1*%
%TO.N,C2*%
X181555138Y-124131805D03*
D33*
%TO.P,SW8,2*%
%TO.N,ring_home*%
X169838447Y-123151160D03*
%TD*%
D27*
%TO.P,LED3,1*%
%TO.N,VCC*%
X141059274Y-114998971D03*
%TO.P,LED3,2*%
%TO.N,LED_6*%
X140768197Y-113629564D03*
%TO.P,LED3,3*%
%TO.N,GND*%
X135486200Y-114752287D03*
%TO.P,LED3,4*%
%TO.N,LED_5*%
X135777277Y-116121694D03*
%TD*%
D32*
%TO.P,SW7,1*%
%TO.N,C2*%
X183332141Y-141038706D03*
D33*
%TO.P,SW7,2*%
%TO.N,ring_bottom*%
X171615450Y-140058061D03*
%TD*%
D34*
%TO.P,SW10,1*%
%TO.N,C3*%
X200204745Y-132390877D03*
D35*
%TO.P,SW10,2*%
%TO.N,middle_bottom*%
X188555433Y-130798373D03*
%TD*%
D36*
%TO.P,LED11,1*%
%TO.N,VCC*%
X198220068Y-105507963D03*
%TO.P,LED11,2*%
%TO.N,LED_10*%
X198146798Y-104109881D03*
%TO.P,LED11,3*%
%TO.N,GND*%
X192754198Y-104392495D03*
%TO.P,LED11,4*%
%TO.N,LED_9*%
X192827468Y-105790577D03*
%TD*%
D37*
%TO.P,D36,1*%
%TO.N,R0*%
X207064529Y-95518833D03*
%TO.P,D36,2*%
%TO.N,index_top*%
X207064533Y-98818833D03*
%TD*%
D38*
%TO.P,SW21,1*%
%TO.N,C5*%
X259240593Y-169839647D03*
D39*
%TO.P,SW21,2*%
%TO.N,outer_cluster*%
X248935728Y-164178176D03*
%TD*%
D40*
%TO.P,D29,1*%
%TO.N,R1*%
X169490159Y-116249768D03*
%TO.P,D29,2*%
%TO.N,ring_home*%
X169835109Y-119531690D03*
%TD*%
D27*
%TO.P,LED1,1*%
%TO.N,VCC*%
X148128271Y-148255976D03*
%TO.P,LED1,2*%
%TO.N,LED_18*%
X147837194Y-146886569D03*
%TO.P,LED1,3*%
%TO.N,GND*%
X142555197Y-148009292D03*
%TO.P,LED1,4*%
%TO.N,LED_17*%
X142846274Y-149378699D03*
%TD*%
D37*
%TO.P,D34,1*%
%TO.N,R2*%
X207064533Y-129518831D03*
%TO.P,D34,2*%
%TO.N,index_bottom*%
X207064537Y-132818831D03*
%TD*%
D34*
%TO.P,SW12,1*%
%TO.N,C3*%
X198425344Y-98437477D03*
D35*
%TO.P,SW12,2*%
%TO.N,middle_top*%
X186776032Y-96844973D03*
%TD*%
D27*
%TO.P,LED2,1*%
%TO.N,VCC*%
X144593769Y-131627472D03*
%TO.P,LED2,2*%
%TO.N,LED_7*%
X144302692Y-130258065D03*
%TO.P,LED2,3*%
%TO.N,GND*%
X139020695Y-131380788D03*
%TO.P,LED2,4*%
%TO.N,LED_6*%
X139311772Y-132750195D03*
%TD*%
D25*
%TO.P,SW4,1*%
%TO.N,C1*%
X168366141Y-154126601D03*
D26*
%TO.P,SW4,2*%
%TO.N,pinky_bottom*%
X156611131Y-154376056D03*
%TD*%
D30*
%TO.P,LED9,1*%
%TO.N,VCC*%
X178166214Y-97389570D03*
%TO.P,LED9,2*%
%TO.N,LED_4*%
X178019874Y-95997244D03*
%TO.P,LED9,3*%
%TO.N,GND*%
X172649456Y-96561694D03*
%TO.P,LED9,4*%
%TO.N,LED_3*%
X172795796Y-97954020D03*
%TD*%
D22*
%TO.P,LED16,1*%
%TO.N,VCC*%
X235664535Y-130668828D03*
%TO.P,LED16,2*%
%TO.N,LED_13*%
X235664535Y-129268828D03*
%TO.P,LED16,3*%
%TO.N,GND*%
X230264535Y-129268828D03*
%TO.P,LED16,4*%
%TO.N,LED_12*%
X230264535Y-130668828D03*
%TD*%
D36*
%TO.P,LED12,1*%
%TO.N,VCC*%
X197330372Y-88531263D03*
%TO.P,LED12,2*%
%TO.N,LED_3*%
X197257102Y-87133181D03*
%TO.P,LED12,3*%
%TO.N,GND*%
X191864502Y-87415795D03*
%TO.P,LED12,4*%
%TO.N,LED_2*%
X191937772Y-88813877D03*
%TD*%
D41*
%TO.P,SW15,1*%
%TO.N,C4*%
X218239538Y-104618831D03*
D42*
%TO.P,SW15,2*%
%TO.N,index_top*%
X206689538Y-102418831D03*
%TD*%
D32*
%TO.P,SW9,1*%
%TO.N,C2*%
X179778133Y-107225006D03*
D33*
%TO.P,SW9,2*%
%TO.N,ring_top*%
X168061442Y-106244361D03*
%TD*%
D41*
%TO.P,SW16,1*%
%TO.N,C5*%
X236239532Y-140618832D03*
D42*
%TO.P,SW16,2*%
%TO.N,inner_bottom*%
X224689532Y-138418832D03*
%TD*%
D22*
%TO.P,LED13,1*%
%TO.N,VCC*%
X217664537Y-128668828D03*
%TO.P,LED13,2*%
%TO.N,LED_14*%
X217664537Y-127268828D03*
%TO.P,LED13,3*%
%TO.N,GND*%
X212264537Y-127268828D03*
%TO.P,LED13,4*%
%TO.N,LED_13*%
X212264537Y-128668828D03*
%TD*%
%TO.P,LED15,1*%
%TO.N,VCC*%
X217664535Y-94668826D03*
%TO.P,LED15,2*%
%TO.N,LED_2*%
X217664535Y-93268826D03*
%TO.P,LED15,3*%
%TO.N,GND*%
X212264535Y-93268826D03*
%TO.P,LED15,4*%
%TO.N,LED_1*%
X212264535Y-94668826D03*
%TD*%
D24*
%TO.P,D23,1*%
%TO.N,R1*%
X134402181Y-134662788D03*
%TO.P,D23,2*%
%TO.N,outer_home*%
X135088289Y-137890676D03*
%TD*%
D41*
%TO.P,SW13,1*%
%TO.N,C4*%
X218239535Y-138618826D03*
D42*
%TO.P,SW13,2*%
%TO.N,index_bottom*%
X206689535Y-136418826D03*
%TD*%
D40*
%TO.P,D28,1*%
%TO.N,R2*%
X171267163Y-133156668D03*
%TO.P,D28,2*%
%TO.N,ring_bottom*%
X171612113Y-136438590D03*
%TD*%
D37*
%TO.P,D38,1*%
%TO.N,R1*%
X225064533Y-114518831D03*
%TO.P,D38,2*%
%TO.N,inner_home*%
X225064537Y-117818831D03*
%TD*%
D22*
%TO.P,LED18,1*%
%TO.N,VCC*%
X235664537Y-96668828D03*
%TO.P,LED18,2*%
%TO.N,LED_1*%
X235664537Y-95268828D03*
%TO.P,LED18,3*%
%TO.N,GND*%
X230264537Y-95268828D03*
%TO.P,LED18,4*%
%TO.N,LED*%
X230264537Y-96668828D03*
%TD*%
D23*
%TO.P,D33,1*%
%TO.N,R0*%
X186789379Y-89934790D03*
%TO.P,D33,2*%
%TO.N,middle_top*%
X186962087Y-93230268D03*
%TD*%
D41*
%TO.P,SW14,1*%
%TO.N,C4*%
X218239531Y-121618827D03*
D42*
%TO.P,SW14,2*%
%TO.N,index_home*%
X206689531Y-119418827D03*
%TD*%
D36*
%TO.P,LED10,1*%
%TO.N,VCC*%
X199109772Y-122484669D03*
%TO.P,LED10,2*%
%TO.N,LED_15*%
X199036502Y-121086587D03*
%TO.P,LED10,3*%
%TO.N,GND*%
X193643902Y-121369201D03*
%TO.P,LED10,4*%
%TO.N,LED_14*%
X193717172Y-122767283D03*
%TD*%
D40*
%TO.P,D30,1*%
%TO.N,R0*%
X167713156Y-99342970D03*
%TO.P,D30,2*%
%TO.N,ring_top*%
X168058106Y-102624892D03*
%TD*%
D43*
%TO.P,LED20,1*%
%TO.N,VCC*%
X238002850Y-154419386D03*
%TO.P,LED20,2*%
%TO.N,LED_20*%
X238124868Y-153024713D03*
%TO.P,LED20,3*%
%TO.N,GND*%
X232745416Y-152554072D03*
%TO.P,LED20,4*%
%TO.N,LED_19*%
X232623398Y-153948745D03*
%TD*%
D24*
%TO.P,D25,1*%
%TO.N,R2*%
X155543277Y-147548888D03*
%TO.P,D25,2*%
%TO.N,pinky_bottom*%
X156229385Y-150776776D03*
%TD*%
D25*
%TO.P,SW1,1*%
%TO.N,C0*%
X150759441Y-157868998D03*
D26*
%TO.P,SW1,2*%
%TO.N,outer_bottom*%
X139004431Y-158118453D03*
%TD*%
D41*
%TO.P,SW18,1*%
%TO.N,C5*%
X236239536Y-106618831D03*
D42*
%TO.P,SW18,2*%
%TO.N,inner_top*%
X224689536Y-104418831D03*
%TD*%
D37*
%TO.P,D35,1*%
%TO.N,R1*%
X207064533Y-112518832D03*
%TO.P,D35,2*%
%TO.N,index_home*%
X207064537Y-115818832D03*
%TD*%
D44*
%TO.P,D40,1*%
%TO.N,R3*%
X203820026Y-155719309D03*
%TO.P,D40,2*%
%TO.N,inner_cluster*%
X204107636Y-159006751D03*
%TD*%
D30*
%TO.P,LED8,1*%
%TO.N,VCC*%
X179943214Y-114296470D03*
%TO.P,LED8,2*%
%TO.N,LED_9*%
X179796874Y-112904144D03*
%TO.P,LED8,3*%
%TO.N,GND*%
X174426456Y-113468594D03*
%TO.P,LED8,4*%
%TO.N,LED_8*%
X174572796Y-114860920D03*
%TD*%
D25*
%TO.P,SW2,1*%
%TO.N,C0*%
X147224940Y-141240500D03*
D26*
%TO.P,SW2,2*%
%TO.N,outer_home*%
X135469930Y-141489955D03*
%TD*%
D45*
%TO.P,SW20,1*%
%TO.N,C4*%
X237708493Y-164381625D03*
D46*
%TO.P,SW20,2*%
%TO.N,mid_cluster*%
X226394187Y-161183347D03*
%TD*%
D47*
%TO.P,SW19,1*%
%TO.N,C3*%
X215745646Y-163810751D03*
D48*
%TO.P,SW19,2*%
%TO.N,inner_cluster*%
X204047856Y-162625775D03*
%TD*%
D27*
%TO.P,LED4,1*%
%TO.N,VCC*%
X165734969Y-144513573D03*
%TO.P,LED4,2*%
%TO.N,LED_17*%
X165443892Y-143144166D03*
%TO.P,LED4,3*%
%TO.N,GND*%
X160161895Y-144266889D03*
%TO.P,LED4,4*%
%TO.N,LED_16*%
X160452972Y-145636296D03*
%TD*%
D24*
%TO.P,D26,1*%
%TO.N,R1*%
X152008783Y-130920386D03*
%TO.P,D26,2*%
%TO.N,pinky_home*%
X152694891Y-134148274D03*
%TD*%
%TO.P,D24,1*%
%TO.N,R0*%
X130867678Y-118034287D03*
%TO.P,D24,2*%
%TO.N,outer_top*%
X131553786Y-121262175D03*
%TD*%
D25*
%TO.P,SW5,1*%
%TO.N,C1*%
X164831642Y-137498101D03*
D26*
%TO.P,SW5,2*%
%TO.N,pinky_home*%
X153076632Y-137747556D03*
%TD*%
D41*
%TO.P,SW17,1*%
%TO.N,C5*%
X236239535Y-123618829D03*
D42*
%TO.P,SW17,2*%
%TO.N,inner_home*%
X224689535Y-121418829D03*
%TD*%
D37*
%TO.P,D37,1*%
%TO.N,R2*%
X225064529Y-131518824D03*
%TO.P,D37,2*%
%TO.N,inner_bottom*%
X225064533Y-134818824D03*
%TD*%
D22*
%TO.P,LED14,1*%
%TO.N,VCC*%
X217664531Y-111668833D03*
%TO.P,LED14,2*%
%TO.N,LED_11*%
X217664531Y-110268833D03*
%TO.P,LED14,3*%
%TO.N,GND*%
X212264531Y-110268833D03*
%TO.P,LED14,4*%
%TO.N,LED_10*%
X212264531Y-111668833D03*
%TD*%
D37*
%TO.P,D39,1*%
%TO.N,R0*%
X225064535Y-97518833D03*
%TO.P,D39,2*%
%TO.N,inner_top*%
X225064539Y-100818833D03*
%TD*%
D24*
%TO.P,D27,1*%
%TO.N,R0*%
X148474278Y-114291889D03*
%TO.P,D27,2*%
%TO.N,pinky_top*%
X149160386Y-117519777D03*
%TD*%
D34*
%TO.P,SW11,1*%
%TO.N,C3*%
X199315048Y-115414178D03*
D35*
%TO.P,SW11,2*%
%TO.N,middle_home*%
X187665736Y-113821674D03*
%TD*%
D25*
%TO.P,SW6,1*%
%TO.N,C1*%
X161297143Y-120869597D03*
D26*
%TO.P,SW6,2*%
%TO.N,pinky_top*%
X149542133Y-121119052D03*
%TD*%
D49*
%TO.N,C0*%
X149271035Y-142187534D03*
X148143723Y-161185430D03*
X138365823Y-128416290D03*
X247480030Y-135411233D03*
%TO.N,outer_bottom*%
X150157258Y-153328127D03*
%TO.N,GND*%
X222462133Y-106303632D03*
X135210473Y-132920392D03*
D50*
X152053935Y-112661930D03*
X141515933Y-149661935D03*
X134446934Y-116404930D03*
X192358936Y-122838931D03*
X190579936Y-88885034D03*
D49*
X192745034Y-96282128D03*
D50*
X210904937Y-128668932D03*
X228904935Y-113668927D03*
D49*
X169908734Y-98512531D03*
D50*
X137981936Y-133032934D03*
X159122934Y-145918929D03*
X171442931Y-98096231D03*
X191468933Y-105861932D03*
D49*
X139776937Y-150171431D03*
D50*
X228904934Y-130668929D03*
X210904935Y-94668830D03*
D49*
X134749765Y-129949239D03*
D50*
X207570937Y-154537932D03*
X210904932Y-111668932D03*
X173219931Y-115002929D03*
X255338935Y-158109932D03*
D49*
X224928634Y-115862329D03*
D50*
X155587937Y-129290935D03*
X228904936Y-96668833D03*
X231268936Y-153829931D03*
X174996934Y-131909933D03*
D49*
%TO.N,outer_home*%
X141648187Y-139947111D03*
%TO.N,outer_top*%
X141967633Y-116594064D03*
%TO.N,C1*%
X168679236Y-141146429D03*
X164935434Y-123760633D03*
X159778238Y-124803833D03*
X164626536Y-140220130D03*
X160152729Y-156042629D03*
X166832636Y-140691531D03*
%TO.N,pinky_bottom*%
X162391636Y-152729632D03*
%TO.N,pinky_home*%
X157743934Y-135152333D03*
%TO.N,pinky_top*%
X153075238Y-123421031D03*
%TO.N,C2*%
X181488333Y-143437029D03*
X183705938Y-126313830D03*
X177152837Y-109850331D03*
X201714438Y-102544830D03*
X180778735Y-122002927D03*
X190510637Y-102556933D03*
X198777436Y-102556929D03*
%TO.N,ring_bottom*%
X186601035Y-136098230D03*
%TO.N,ring_home*%
X181473833Y-126062832D03*
%TO.N,ring_top*%
X172927860Y-103657394D03*
%TO.N,C3*%
X193182087Y-126350182D03*
X194016437Y-100669031D03*
X200291435Y-134642033D03*
X194894930Y-117640230D03*
X206074532Y-108290933D03*
X211470831Y-166293533D03*
%TO.N,middle_bottom*%
X198982084Y-135750182D03*
%TO.N,middle_home*%
X191982086Y-110950183D03*
%TO.N,middle_top*%
X188782085Y-94550181D03*
%TO.N,C4*%
X221876484Y-142255785D03*
X217241535Y-136805830D03*
X221061332Y-106670937D03*
X254347339Y-122742826D03*
X212582083Y-119350183D03*
X216738135Y-124685130D03*
X231261240Y-165738834D03*
X211225235Y-106428836D03*
%TO.N,index_bottom*%
X217982832Y-134331230D03*
%TO.N,index_home*%
X211382084Y-116550184D03*
%TO.N,index_top*%
X214582082Y-102350182D03*
%TO.N,C5*%
X245947340Y-150142828D03*
X238921434Y-108732331D03*
X245106132Y-119918829D03*
X258140737Y-166791531D03*
X229982084Y-127550184D03*
X244947341Y-147942826D03*
X232182086Y-142703828D03*
X231067733Y-108437927D03*
X235214532Y-121211430D03*
%TO.N,inner_bottom*%
X224582084Y-142150182D03*
%TO.N,inner_home*%
X230982086Y-120750183D03*
%TO.N,inner_top*%
X232982085Y-104150180D03*
%TO.N,inner_cluster*%
X220246232Y-159112728D03*
%TO.N,mid_cluster*%
X228547340Y-164142829D03*
%TO.N,outer_cluster*%
X255003031Y-171259309D03*
%TO.N,R2*%
X186666931Y-130470534D03*
X231248635Y-125513430D03*
X194182085Y-130750182D03*
X172263533Y-144946360D03*
X224949234Y-129518831D03*
X208365534Y-127150431D03*
X154240532Y-148899534D03*
%TO.N,R1*%
X222946234Y-113485732D03*
X205366731Y-115171334D03*
X207942134Y-109108533D03*
X152748136Y-129346427D03*
X171097235Y-127037629D03*
X167427234Y-126567929D03*
X150711435Y-132271030D03*
X185203534Y-113570729D03*
%TO.N,R0*%
X182263731Y-97952734D03*
X145806335Y-110069629D03*
X224710133Y-94877132D03*
X163621432Y-109929030D03*
X148788434Y-115905831D03*
%TO.N,R3*%
X241547340Y-154542827D03*
X206947342Y-156342828D03*
X261265732Y-154218233D03*
X222953432Y-153614732D03*
X266607435Y-161495933D03*
X251737136Y-156616233D03*
%TO.N,VCC*%
X142782198Y-117260850D03*
D50*
X239357934Y-154537934D03*
X237024936Y-96668830D03*
X163530933Y-127601931D03*
X149458937Y-147972933D03*
X145923934Y-131344930D03*
X219024938Y-128668929D03*
X183072934Y-131060929D03*
X237024936Y-130668934D03*
X237024930Y-113668934D03*
X181295935Y-114153930D03*
D49*
X146046360Y-133343531D03*
D50*
X198688938Y-88460031D03*
D49*
X137230141Y-135298994D03*
D50*
X263061936Y-160618929D03*
X215660934Y-153829929D03*
X159995936Y-110973931D03*
D49*
X200063736Y-119281132D03*
D50*
X200467935Y-122413926D03*
D49*
X263964535Y-126621735D03*
D50*
X142389934Y-114715927D03*
X179518937Y-97247434D03*
D49*
X181056534Y-96257430D03*
D50*
X219024936Y-94668830D03*
X167064936Y-144230930D03*
X219024935Y-111668928D03*
X199577934Y-105436929D03*
%TO.N,LED*%
X228014936Y-95268828D03*
D49*
%TO.N,SDA*%
X260640135Y-125780330D03*
%TO.N,SCL*%
X265947342Y-124942826D03*
X262947337Y-131542828D03*
D50*
%TO.N,LED_18*%
X150037934Y-146418933D03*
X206562933Y-153220934D03*
%TO.N,LED_17*%
X140353936Y-148476929D03*
D49*
X159852936Y-141720530D03*
D50*
X167644936Y-142675934D03*
%TO.N,LED_7*%
X146503935Y-129789931D03*
X154426932Y-128105934D03*
D49*
%TO.N,LED_6*%
X144848735Y-111401266D03*
X142021816Y-111493557D03*
D50*
X142968932Y-113161935D03*
X136819937Y-131848929D03*
D49*
%TO.N,LED_5*%
X162615635Y-109500634D03*
D50*
X133284937Y-115219931D03*
X160575940Y-109418931D03*
D49*
%TO.N,LED_16*%
X172717847Y-145829962D03*
X188136611Y-132801481D03*
D50*
X157960936Y-144734931D03*
X183811937Y-129575929D03*
%TO.N,LED_8*%
X164109936Y-126047926D03*
D49*
X167786834Y-125684427D03*
D50*
X172188934Y-113703932D03*
%TO.N,LED_4*%
X180257936Y-95762027D03*
D49*
X169578552Y-111152867D03*
D50*
X150891934Y-111477934D03*
%TO.N,LED_15*%
X173965933Y-130610929D03*
X201282934Y-120968935D03*
%TO.N,LED_9*%
X182034937Y-112668929D03*
X190506934Y-104509935D03*
%TO.N,LED_3*%
X199503935Y-87015430D03*
X170411935Y-96796933D03*
D49*
%TO.N,LED_14*%
X215637136Y-123884131D03*
D50*
X191396930Y-121486930D03*
X219914934Y-127268931D03*
%TO.N,LED_10*%
X200393933Y-103991932D03*
X210014934Y-110268932D03*
%TO.N,LED_2*%
X189617938Y-87533531D03*
D49*
X190761134Y-86596331D03*
D50*
X219914933Y-93268827D03*
%TO.N,LED_13*%
X210014932Y-127268933D03*
X237914934Y-129268933D03*
%TO.N,LED_11*%
X219914932Y-110268933D03*
X228014934Y-112268931D03*
%TO.N,LED_1*%
X210014934Y-93268828D03*
X237914932Y-95268830D03*
%TO.N,LED_12*%
X228014937Y-129268929D03*
D49*
X226002934Y-127845133D03*
D50*
X237914933Y-112268936D03*
%TO.N,LED_19*%
X230503934Y-152357928D03*
X216424932Y-152357929D03*
%TO.N,LED_20*%
X240365937Y-153220932D03*
X254925933Y-156503933D03*
%TO.N,LED_21*%
X264340932Y-159562932D03*
%TD*%
D51*
%TO.N,C0*%
X142424525Y-139638007D02*
X144431056Y-139284202D01*
X260674536Y-105518828D02*
X260564533Y-105628828D01*
D52*
X267664933Y-104903932D02*
X267063939Y-104903932D01*
D51*
X149271035Y-142149730D02*
X149271035Y-142187534D01*
X136096887Y-131635499D02*
X138348920Y-128419269D01*
X260674536Y-105518828D02*
X259618837Y-104463228D01*
D52*
X266558934Y-105408930D02*
X260784932Y-105408928D01*
D51*
X150908772Y-158715896D02*
X150759440Y-157868998D01*
X143690440Y-124611998D02*
X141401442Y-127881024D01*
X136446449Y-133617964D02*
X136096887Y-131635499D01*
X149325491Y-160977053D02*
X150908772Y-158715896D01*
D52*
X267063939Y-104903932D02*
X266558934Y-105408930D01*
D51*
X138189088Y-134838172D02*
X139275266Y-135598722D01*
X255897636Y-104463231D02*
X247643032Y-112717831D01*
X139275266Y-135598722D02*
X139644231Y-137691224D01*
X268739434Y-105628930D02*
X268739538Y-105628831D01*
D52*
X268739934Y-105628933D02*
X268739434Y-105628930D01*
D51*
X147224942Y-141240501D02*
X147779006Y-141142804D01*
X139644231Y-137691224D02*
X142424525Y-139638007D01*
X260784932Y-105408928D02*
X260784436Y-105408931D01*
X147779006Y-141142804D02*
X149271035Y-142187534D01*
X138189088Y-134838172D02*
X136446449Y-133617964D01*
X148143723Y-161185430D02*
X149325491Y-160977053D01*
X260784436Y-105408931D02*
X260674536Y-105518828D01*
D52*
X268389935Y-105628928D02*
X267664933Y-104903932D01*
D51*
X247643034Y-135248230D02*
X247480030Y-135411233D01*
X247643032Y-112717831D02*
X247643034Y-135248230D01*
X144431056Y-139284202D02*
X147224940Y-141240500D01*
X141401442Y-127881024D02*
X138365823Y-128416290D01*
X147224932Y-141240534D02*
X146423935Y-140439531D01*
D52*
X268739434Y-105628930D02*
X268389935Y-105628928D01*
D51*
X259618837Y-104463228D02*
X255897636Y-104463231D01*
X138348920Y-128419269D02*
X138365823Y-128416290D01*
%TO.N,outer_bottom*%
X139004431Y-158118453D02*
X140773469Y-155591999D01*
X142186023Y-155342926D02*
X143367795Y-155134547D01*
X140773469Y-155591999D02*
X142186023Y-155342926D01*
X138420679Y-154807821D02*
X138622787Y-154519172D01*
X148048245Y-156340113D02*
X150157258Y-153328127D01*
X146275591Y-156652679D02*
X148048245Y-156340113D01*
X145684707Y-156756868D02*
X146275591Y-156652679D01*
X143367795Y-155134547D02*
X145684707Y-156756868D01*
X139004432Y-158118453D02*
X138420679Y-154807821D01*
D52*
%TO.N,GND*%
X231807235Y-152674229D02*
X231807336Y-152674130D01*
X176166436Y-130412433D02*
X176203432Y-130375432D01*
X151830845Y-128266883D02*
X148782287Y-128804424D01*
X171358936Y-97294736D02*
X171442931Y-98096231D01*
X269051237Y-144968830D02*
X257924832Y-156095228D01*
X176203457Y-129324879D02*
X176203456Y-130375393D01*
X260864934Y-103813928D02*
X261359931Y-103318933D01*
X134801935Y-114897931D02*
X134279932Y-115615930D01*
X135485934Y-114751933D02*
X135314934Y-114788429D01*
X192714437Y-121636433D02*
X191834829Y-120756827D01*
X212264434Y-127268931D02*
X212264532Y-127268831D01*
X228904934Y-129117831D02*
X228904932Y-129862926D01*
X259189634Y-103088933D02*
X259189535Y-103088829D01*
X229400135Y-141248529D02*
X230039734Y-140608932D01*
X142406634Y-147310131D02*
X142406534Y-147310132D01*
X209263137Y-109980130D02*
X209709633Y-109533633D01*
X165681534Y-117729486D02*
X166679213Y-116304658D01*
X152750434Y-110568329D02*
X154655734Y-108663030D01*
X192726635Y-104410931D02*
X192745031Y-104392530D01*
X208803931Y-153024931D02*
X208804135Y-153024730D01*
X191834829Y-120756827D02*
X187991135Y-120756834D01*
X159401938Y-142834028D02*
X159533935Y-142834028D01*
X153701932Y-129413638D02*
X153701931Y-127805631D01*
X256399930Y-156982930D02*
X255587933Y-157343930D01*
X228904934Y-112862930D02*
X228904935Y-113668927D01*
X138844695Y-130513715D02*
X138885019Y-130742403D01*
X180956334Y-127791629D02*
X177736706Y-127791627D01*
X268739534Y-98008833D02*
X268389934Y-98008830D01*
X134279932Y-115615930D02*
X134446934Y-116404930D01*
X227228832Y-132248831D02*
X227228834Y-129017128D01*
X158746734Y-142832529D02*
X159400435Y-142832534D01*
X154842733Y-126150184D02*
X154842732Y-126350182D01*
X175506932Y-130448931D02*
X174912932Y-131107935D01*
X222647534Y-118143429D02*
X222647537Y-130659232D01*
X224286532Y-132298233D02*
X227179435Y-132298235D01*
X269051234Y-142208831D02*
X269051237Y-144968830D01*
X260263936Y-101273830D02*
X260864935Y-101273827D01*
X192944936Y-121405930D02*
X192714437Y-121636433D01*
X166265732Y-102369634D02*
X169908732Y-98726631D01*
X138678434Y-131453429D02*
X138335934Y-131525932D01*
X230264433Y-112268931D02*
X229564934Y-112268928D01*
X221840933Y-117336828D02*
X222647534Y-118143429D01*
X164655324Y-110381371D02*
X166265732Y-108081468D01*
X156889736Y-132750182D02*
X156889735Y-133411829D01*
X231807334Y-152635732D02*
X231521532Y-152349930D01*
X211564933Y-110268930D02*
X211343133Y-110468533D01*
X268739735Y-98008831D02*
X268739733Y-98122032D01*
X173135934Y-114201928D02*
X173219931Y-115002929D01*
X142555234Y-148009331D02*
X142406634Y-147310131D01*
X259189937Y-103088930D02*
X259189634Y-103088933D01*
X222647537Y-130659232D02*
X224286532Y-132298233D01*
X174434135Y-129376131D02*
X169348335Y-129376132D01*
X159476935Y-144411929D02*
X158954933Y-145130931D01*
X268389934Y-98008830D02*
X267664935Y-97283828D01*
X192745031Y-104392530D02*
X192745034Y-96282128D01*
X162957132Y-110680808D02*
X164655324Y-110381371D01*
X209263134Y-112108132D02*
X209263137Y-109980130D01*
X259538934Y-103088930D02*
X260263935Y-103813932D01*
X153003534Y-115891630D02*
X153003534Y-117662230D01*
X230264529Y-95268831D02*
X229564932Y-95268832D01*
X258924434Y-99332027D02*
X244110731Y-99332028D01*
X193643937Y-120214029D02*
X193919233Y-119938731D01*
X232745435Y-152554028D02*
X231966835Y-152554032D01*
X205062833Y-127075934D02*
X205641233Y-126497534D01*
X191481435Y-95018537D02*
X191481434Y-91717531D01*
X227179435Y-132298235D02*
X227228832Y-132248831D01*
X232047933Y-152492929D02*
X231966835Y-152554032D01*
X190731033Y-87452432D02*
X191165932Y-87452431D01*
X155471415Y-128630115D02*
X156100815Y-127731240D01*
X139614736Y-150009231D02*
X139776937Y-150171431D01*
X158394935Y-142480727D02*
X158746734Y-142832529D01*
X191426937Y-105056934D02*
X191468933Y-105861932D01*
X222042334Y-117135426D02*
X222042334Y-106723332D01*
X166265732Y-108081468D02*
X166265732Y-102369634D01*
X205062835Y-149662834D02*
X205062833Y-127075934D01*
X135210473Y-132920392D02*
X134966437Y-130131049D01*
X190162332Y-103755131D02*
X191381133Y-103755128D01*
X152181833Y-127765619D02*
X151830845Y-128266883D01*
X230039734Y-137051333D02*
X230039734Y-137051330D01*
X230264433Y-112268931D02*
X230264538Y-112268828D01*
X168611086Y-113151225D02*
X171848369Y-112580401D01*
X214332036Y-119303029D02*
X216187336Y-119303030D01*
X158394935Y-142480727D02*
X155193537Y-145682133D01*
X228904934Y-95862932D02*
X228904936Y-96668833D01*
X267664935Y-97283828D02*
X267063932Y-97283830D01*
X156889734Y-132601441D02*
X153701932Y-129413638D01*
X227726934Y-128519033D02*
X228306132Y-128519027D01*
X153701931Y-127805631D02*
X153769731Y-127737831D01*
X228904932Y-129862926D02*
X228904934Y-130668929D01*
X141348935Y-148872932D02*
X141515933Y-149661935D01*
X259189937Y-103088930D02*
X259538934Y-103088930D01*
X156627433Y-127638430D02*
X156626932Y-127637930D01*
X191864537Y-87415833D02*
X191864537Y-87415729D01*
X155471415Y-128630115D02*
X155587937Y-129290935D01*
X176203934Y-130375929D02*
X175855438Y-130412432D01*
X192404434Y-104410931D02*
X192726635Y-104410931D01*
X229564932Y-95268832D02*
X228904934Y-95862932D01*
X231030933Y-94078229D02*
X230264934Y-94844229D01*
X208455431Y-153055429D02*
X205062835Y-149662834D01*
X191481434Y-91717531D02*
X188852037Y-89088131D01*
X174426934Y-113468933D02*
X173729934Y-113541931D01*
X152407933Y-111154931D02*
X152004035Y-110751029D01*
X261359931Y-103318933D02*
X267134434Y-103318932D01*
X229564934Y-129268930D02*
X228904932Y-129862926D01*
X173318935Y-113998632D02*
X173135934Y-114201928D01*
X147857790Y-128157085D02*
X139457705Y-129638247D01*
X260864935Y-101273827D02*
X261359938Y-100778830D01*
X270314535Y-136918831D02*
X270314533Y-128332131D01*
X259189938Y-100548832D02*
X259189533Y-100548830D01*
X169908732Y-98726631D02*
X169908734Y-98512531D01*
X192316934Y-122033932D02*
X192358936Y-122838931D01*
X175855438Y-130412432D02*
X175506932Y-130448931D01*
X189285034Y-86767132D02*
X190045736Y-86767130D01*
X156889736Y-132750182D02*
X156889734Y-132601441D01*
X266558934Y-97788831D02*
X260784933Y-97788829D01*
X177736706Y-127791627D02*
X176203457Y-129324879D01*
X205641235Y-123696830D02*
X201883132Y-119938732D01*
X230264934Y-94844229D02*
X230264936Y-95268828D01*
X156627396Y-127638390D02*
X155878260Y-127113840D01*
X138885019Y-130742403D02*
X139020733Y-131380834D01*
X260784533Y-97788828D02*
X260564537Y-98008830D01*
X222042431Y-106723329D02*
X222462133Y-106303632D01*
X260784933Y-97788829D02*
X260784533Y-97788828D01*
X231807235Y-152674229D02*
X231338936Y-153026932D01*
X256732433Y-157090934D02*
X256399930Y-156982930D01*
X166679213Y-116304658D02*
X165772741Y-111163795D01*
X210319833Y-126497528D02*
X210904939Y-127082633D01*
X230264936Y-95268828D02*
X230264529Y-95268831D01*
X259538936Y-100548830D02*
X260263936Y-101273830D01*
X222042334Y-106723332D02*
X222042431Y-106723329D01*
X187991135Y-120756834D02*
X180956334Y-127791629D01*
X229400134Y-148007932D02*
X229400135Y-148007931D01*
X159400435Y-142832534D02*
X159401938Y-142834028D01*
X212264434Y-110268931D02*
X211564933Y-110268930D01*
X154842735Y-126664829D02*
X154842732Y-126350182D01*
X175506932Y-130448931D02*
X174434135Y-129376131D01*
X141870937Y-148154932D02*
X141348935Y-148872932D01*
X140430536Y-147310134D02*
X139614735Y-148125932D01*
X153092936Y-111009932D02*
X152750437Y-111082434D01*
X224928634Y-115862329D02*
X222647534Y-118143429D01*
X231521532Y-152349930D02*
X231521535Y-150129327D01*
X152407933Y-111154931D02*
X151885934Y-111873926D01*
X255587933Y-157343930D02*
X255338935Y-158109932D01*
X201883132Y-119938732D02*
X205993534Y-115828331D01*
X165772741Y-111163795D02*
X168611086Y-113151225D01*
X192745034Y-96282128D02*
X191481435Y-95018537D01*
X273292234Y-100500229D02*
X273292237Y-135591132D01*
X230264436Y-129268933D02*
X229564934Y-129268930D01*
X150151032Y-112395634D02*
X150151037Y-113039127D01*
X148715956Y-128757978D02*
X147857790Y-128157085D01*
X230264933Y-112268931D02*
X230264433Y-112268931D01*
X139020935Y-131380934D02*
X138678434Y-131453429D01*
X273292237Y-135591132D02*
X271964535Y-136918833D01*
X139457705Y-129638247D02*
X138844695Y-130513715D01*
X227228834Y-129017128D02*
X227726934Y-128519033D01*
X210904939Y-127082633D02*
X210904932Y-127862929D01*
X188852037Y-89088131D02*
X188852038Y-87200131D01*
X208106935Y-153085931D02*
X207500933Y-153734934D01*
X193919234Y-113163833D02*
X192651833Y-111896430D01*
X138948133Y-131453428D02*
X138678434Y-131453429D01*
X165681532Y-125709331D02*
X165681534Y-117729486D01*
X193643933Y-121368930D02*
X193643937Y-120214029D01*
X156889735Y-133411829D02*
X158394934Y-134917031D01*
X269764534Y-137468828D02*
X270314535Y-136918831D01*
X268739932Y-98008830D02*
X268739735Y-98008831D01*
X154842735Y-119501431D02*
X154842733Y-126150184D01*
X267134434Y-103318932D02*
X267134933Y-103318926D01*
X172649935Y-96561729D02*
X171952938Y-96634831D01*
X191165932Y-87452431D02*
X190537931Y-88080231D01*
X159533935Y-142834028D02*
X159944635Y-143244729D01*
X164655324Y-110381371D02*
X165772741Y-111163795D01*
X260263935Y-103813932D02*
X260864934Y-103813928D01*
X192651831Y-108975529D02*
X189758932Y-106082632D01*
X193919233Y-119938731D02*
X193919234Y-113163833D01*
X190537931Y-88080231D02*
X190579936Y-88885034D01*
X151885934Y-111873926D02*
X152053935Y-112661930D01*
X175855438Y-130412432D02*
X176166436Y-130412433D01*
X191864932Y-87415731D02*
X191864537Y-87415729D01*
X211914734Y-127268933D02*
X211564933Y-127268931D01*
X257064929Y-157198927D02*
X256732433Y-157090934D01*
X230039734Y-140608932D02*
X230039734Y-137051333D01*
X269764535Y-144968829D02*
X269051237Y-144968830D01*
X256732433Y-157090934D02*
X256957637Y-157090936D01*
X189758932Y-106082632D02*
X189758936Y-104158528D01*
X156100815Y-127731240D02*
X156627396Y-127638390D01*
X211564933Y-93268830D02*
X210904931Y-93862933D01*
X257924832Y-156095228D02*
X257423932Y-156095229D01*
X192651833Y-111896430D02*
X192651831Y-108975529D01*
X192745031Y-104392530D02*
X192754235Y-104392530D01*
X231338936Y-153026932D02*
X231268936Y-153829931D01*
X229192234Y-134212233D02*
X227228832Y-132248831D01*
X192753932Y-104392934D02*
X192404434Y-104410931D01*
X256957637Y-157090936D02*
X257065434Y-157198728D01*
X210904931Y-93862933D02*
X210904935Y-94668830D01*
X205993534Y-115828331D02*
X205993535Y-115377734D01*
X188852038Y-87200131D02*
X189285034Y-86767132D01*
X231807336Y-152674130D02*
X231807334Y-152635732D01*
X150151037Y-113039127D02*
X153003534Y-115891630D01*
X138335934Y-131525932D02*
X137813933Y-132244927D01*
X134966437Y-130131049D02*
X134749765Y-129949239D01*
X205641233Y-126497534D02*
X205641235Y-123696830D01*
X231521535Y-150129327D02*
X229400134Y-148007932D01*
X174912932Y-131107935D02*
X174996934Y-131909933D01*
X172925802Y-113334829D02*
X173219931Y-115002929D01*
X135314934Y-114788429D02*
X135143933Y-114824932D01*
X228306132Y-128519027D02*
X228904934Y-129117831D01*
X153769731Y-127737831D02*
X154842735Y-126664829D01*
X173729934Y-113541931D02*
X173318935Y-113998632D01*
X158954933Y-145130931D02*
X159122934Y-145918929D01*
X189758936Y-104158528D02*
X190162332Y-103755131D01*
X192714437Y-121636433D02*
X192316934Y-122033932D01*
X160945135Y-108714017D02*
X160945136Y-108663032D01*
X270314533Y-128332131D02*
X268701236Y-126718834D01*
X150151038Y-111162131D02*
X150151032Y-112395634D01*
X268739735Y-98008831D02*
X268739534Y-98008833D01*
X212264936Y-93268830D02*
X212264532Y-93268831D01*
X210904938Y-110862932D02*
X210904932Y-111668932D01*
X268739733Y-98122032D02*
X269896534Y-99278833D01*
X152750437Y-111082434D02*
X152750434Y-110568329D01*
X211914734Y-127268933D02*
X211914735Y-121720332D01*
X191381133Y-103755128D02*
X192054934Y-104428932D01*
X267134536Y-100778829D02*
X267134931Y-100778832D01*
X153003534Y-117662230D02*
X154842735Y-119501431D01*
X221840933Y-117336828D02*
X222042334Y-117135426D01*
X231966835Y-152554032D02*
X231807235Y-152674229D01*
X209709633Y-109533633D02*
X210408235Y-109533628D01*
X155878260Y-127113840D02*
X152181833Y-127765619D01*
X205993535Y-115377734D02*
X209263134Y-112108132D01*
X229400135Y-148007931D02*
X229400135Y-141248529D01*
X230264936Y-129268935D02*
X230264436Y-129268933D01*
X160161934Y-144266928D02*
X159476935Y-144411929D01*
X191864537Y-87415729D02*
X191165932Y-87452431D01*
X218153535Y-117336830D02*
X221840933Y-117336828D01*
X216187336Y-119303030D02*
X218153535Y-117336830D01*
X259189537Y-99597130D02*
X258924434Y-99332027D01*
X155193537Y-145682133D02*
X144034535Y-145682131D01*
X150562134Y-110751034D02*
X150151038Y-111162131D01*
X137813933Y-132244927D02*
X137981936Y-133032934D01*
X171952938Y-96634831D02*
X171541935Y-97091437D01*
X211914735Y-121720332D02*
X214332036Y-119303029D01*
X158394934Y-134917031D02*
X158394935Y-142480727D01*
X144034535Y-145682131D02*
X142406534Y-147310132D01*
X269764530Y-141495529D02*
X269051234Y-142208831D01*
X142406534Y-147310132D02*
X140430536Y-147310134D01*
X271964535Y-136918833D02*
X270314535Y-136918831D01*
X171541935Y-97091437D02*
X171358936Y-97294736D01*
X232744933Y-152553930D02*
X232047933Y-152492929D01*
X139614735Y-148125932D02*
X139614736Y-150009231D01*
X259189938Y-100548832D02*
X259538936Y-100548830D01*
X205641233Y-126497534D02*
X210319833Y-126497528D01*
X269764538Y-140368830D02*
X269764534Y-137468828D01*
X212264934Y-127268934D02*
X212264434Y-127268931D01*
X154655734Y-108663030D02*
X160945136Y-108663032D01*
X212264532Y-93268831D02*
X211564933Y-93268830D01*
X135143933Y-114824932D02*
X134801935Y-114897931D01*
X152750437Y-111082434D02*
X152407933Y-111154931D01*
X244110731Y-99332028D02*
X238856932Y-94078232D01*
X267774533Y-126718827D02*
X268701236Y-126718834D01*
X190045736Y-86767130D02*
X190731033Y-87452432D01*
X208455431Y-153055429D02*
X208106935Y-153085931D01*
X142554931Y-148008930D02*
X141870937Y-148154932D01*
X172649436Y-96561732D02*
X171541933Y-96678135D01*
X135143933Y-114824932D02*
X135413636Y-114824930D01*
X229564934Y-112268928D02*
X228904934Y-112862930D01*
X208803931Y-153024931D02*
X208455431Y-153055429D01*
X230039734Y-137051330D02*
X229192231Y-136203834D01*
X193643933Y-121368930D02*
X193294433Y-121387432D01*
X193294433Y-121387432D02*
X192944936Y-121405930D01*
X193294433Y-121387432D02*
X193625734Y-121387428D01*
X210904932Y-127862929D02*
X210904937Y-128668932D01*
X267134536Y-100778829D02*
X267364533Y-100548830D01*
X257065434Y-157198728D02*
X257423932Y-156095229D01*
X211564933Y-127268931D02*
X210904932Y-127862929D01*
X267134434Y-103318932D02*
X267364532Y-103088832D01*
X171848369Y-112580401D02*
X172925802Y-113334829D01*
X169348335Y-129376132D02*
X165681532Y-125709331D01*
X211343133Y-110468533D02*
X210904938Y-110862932D01*
X152004035Y-110751029D02*
X150562134Y-110751034D01*
X272070833Y-99278833D02*
X273292234Y-100500229D01*
X238856932Y-94078232D02*
X231030933Y-94078229D01*
X212264935Y-110268930D02*
X212264434Y-110268931D01*
X210408235Y-109533628D02*
X211343133Y-110468533D01*
X148782287Y-128804424D02*
X148715956Y-128757978D01*
X135413636Y-114824930D02*
X135486233Y-114752329D01*
X230264436Y-129268933D02*
X230264533Y-129268831D01*
X207500933Y-153734934D02*
X207570937Y-154537932D01*
X269764538Y-140368830D02*
X269764530Y-141495529D01*
X171541935Y-97091437D02*
X171541933Y-96678135D01*
X192404434Y-104410931D02*
X192054934Y-104428932D01*
X160161934Y-144266928D02*
X159944635Y-143244729D01*
X229192231Y-136203834D02*
X229192234Y-134212233D01*
X192054934Y-104428932D02*
X191426937Y-105056934D01*
X193625734Y-121387428D02*
X193643930Y-121369229D01*
X162806351Y-110575232D02*
X160945135Y-108714017D01*
X212264434Y-127268931D02*
X211914734Y-127268933D01*
X269896534Y-99278833D02*
X272070833Y-99278833D01*
X261359938Y-100778830D02*
X267134536Y-100778829D01*
X162806351Y-110575232D02*
X162957132Y-110680808D01*
X212264434Y-110268931D02*
X212264536Y-110268830D01*
X259189533Y-100548830D02*
X259189537Y-99597130D01*
X139020733Y-131380834D02*
X138948133Y-131453428D01*
X267063932Y-97283830D02*
X266558934Y-97788831D01*
X201883132Y-119938732D02*
X193919233Y-119938731D01*
D51*
%TO.N,outer_home*%
X139705397Y-138316917D02*
X141648187Y-139947111D01*
X135469932Y-141489953D02*
X134886176Y-138179321D01*
X134886176Y-138179321D02*
X135088289Y-137890676D01*
X135469932Y-141489953D02*
X137408070Y-138721998D01*
X135469930Y-138272318D02*
X135088291Y-137890673D01*
X138720595Y-138490565D02*
X139705397Y-138316917D01*
X137408070Y-138721998D02*
X138720595Y-138490565D01*
%TO.N,outer_top*%
X136037592Y-119306428D02*
X136447153Y-121629182D01*
X129894457Y-122987686D02*
X129060948Y-118260609D01*
X142653343Y-120545986D02*
X141958752Y-116606753D01*
X136011132Y-119156378D02*
X136037592Y-119306428D01*
X138068990Y-122764804D02*
X141526605Y-122155134D01*
X136447153Y-121629182D02*
X138068990Y-122764804D01*
X131935428Y-124861452D02*
X131351678Y-121550817D01*
X141958752Y-116606753D02*
X141967633Y-116594064D01*
X131935429Y-124861452D02*
X129983910Y-123494986D01*
X132432604Y-116650668D02*
X136011132Y-119156378D01*
X129872104Y-117102152D02*
X132432604Y-116650668D01*
X129983910Y-123494986D02*
X129894457Y-122987686D01*
X129060948Y-118260609D02*
X129872104Y-117102152D01*
X141526605Y-122155134D02*
X142653343Y-120545986D01*
X131351678Y-121550817D02*
X131553787Y-121262175D01*
%TO.N,C1*%
X165276238Y-124101427D02*
X165276234Y-126511430D01*
X164935434Y-123760633D02*
X165276238Y-124101427D01*
X167020336Y-152780831D02*
X164253635Y-152780831D01*
X164626536Y-140220130D02*
X164831634Y-140015032D01*
X164626536Y-140220130D02*
X164831642Y-140015022D01*
X164831641Y-138690534D02*
X164831643Y-137498102D01*
X268739434Y-108168931D02*
X268739534Y-108168825D01*
X166832636Y-140691531D02*
X164831641Y-138690534D01*
X164253635Y-152780831D02*
X160991831Y-156042632D01*
X161297134Y-123283334D02*
X160506183Y-124074283D01*
X164831642Y-140015022D02*
X164831643Y-137498102D01*
X165276234Y-126511430D02*
X168679238Y-129914433D01*
X160506183Y-124074283D02*
X161297143Y-123283319D01*
X160991831Y-156042632D02*
X160152729Y-156042629D01*
X167019482Y-150126481D02*
X167634476Y-153614284D01*
D52*
X268739434Y-108168931D02*
X268389932Y-108168928D01*
X267063933Y-107443929D02*
X266558936Y-107948929D01*
D51*
X167387551Y-149600823D02*
X167019482Y-150126481D01*
X168679236Y-141146429D02*
X168716056Y-141172216D01*
D52*
X268389932Y-108168928D02*
X267664934Y-107443933D01*
D51*
X167127746Y-148127390D02*
X167387551Y-149600823D01*
X168366133Y-154126630D02*
X167020336Y-152780831D01*
X161297143Y-123283319D02*
X161297145Y-120869594D01*
X160506183Y-124074283D02*
X159778231Y-124802230D01*
D52*
X268739935Y-108168934D02*
X268739434Y-108168931D01*
X267664934Y-107443933D02*
X267063933Y-107443929D01*
D51*
X168160134Y-153982349D02*
X168366145Y-154126598D01*
D52*
X266558936Y-107948929D02*
X260784934Y-107948933D01*
D51*
X169376224Y-144916222D02*
X167127746Y-148127390D01*
X167634476Y-153614284D02*
X168366142Y-154126601D01*
X168716056Y-141172216D02*
X169376224Y-144916222D01*
X260784431Y-107948931D02*
X260564535Y-108168832D01*
X168679238Y-129914433D02*
X168679236Y-141146429D01*
X159778231Y-124802230D02*
X159778238Y-124803833D01*
X260784934Y-107948933D02*
X260784431Y-107948931D01*
%TO.N,pinky_bottom*%
X156027357Y-151065303D02*
X156611132Y-154376056D01*
X158184212Y-152129468D02*
X158527109Y-151720819D01*
X156611132Y-154376056D02*
X158184212Y-152129468D01*
X158527109Y-151720819D02*
X161106254Y-151495173D01*
X156229386Y-150776774D02*
X156027357Y-151065303D01*
X161106254Y-151495173D02*
X161223505Y-151593557D01*
X161330432Y-151668432D02*
X162391636Y-152729632D01*
X161223505Y-151593557D02*
X161330432Y-151668432D01*
%TO.N,pinky_home*%
X152694889Y-134262989D02*
X153076628Y-134644728D01*
X153728682Y-132696782D02*
X154399631Y-132025832D01*
X154399631Y-132025832D02*
X155623134Y-132025828D01*
X155623134Y-132025828D02*
X156488036Y-132890730D01*
X152694890Y-134148273D02*
X152694889Y-134262989D01*
X153728682Y-132696782D02*
X152694887Y-133730576D01*
X156488033Y-133896434D02*
X157743934Y-135152333D01*
X156488036Y-132890730D02*
X156488033Y-133896434D01*
X152694887Y-133730576D02*
X152694890Y-134148273D01*
X153076628Y-134644728D02*
X153076631Y-137747555D01*
%TO.N,pinky_top*%
X151844132Y-123421028D02*
X151412336Y-122989231D01*
X149744161Y-120830524D02*
X149542132Y-121119052D01*
X151412336Y-122989231D02*
X149939635Y-122989232D01*
X149542136Y-121119033D02*
X149939635Y-122989232D01*
X149160387Y-117519775D02*
X149744161Y-120830524D01*
X153075238Y-123421031D02*
X151844132Y-123421028D01*
%TO.N,C2*%
X185142334Y-131914688D02*
X185142334Y-131350184D01*
D52*
X267664932Y-109983930D02*
X267063934Y-109983929D01*
D51*
X185593734Y-140761834D02*
X185316855Y-141038706D01*
X180969934Y-122002934D02*
X180969934Y-118069527D01*
X182737235Y-116302228D02*
X182737233Y-110459332D01*
X201714438Y-102544830D02*
X198789535Y-102544833D01*
D52*
X266558934Y-110488929D02*
X260784934Y-110488930D01*
X268739935Y-110708927D02*
X268739432Y-110708933D01*
D51*
X181397235Y-110394832D02*
X179960234Y-108957829D01*
X182153835Y-142771528D02*
X181488333Y-143437029D01*
X179778136Y-107225029D02*
X179960234Y-108957829D01*
X268739432Y-110708933D02*
X268739535Y-110708832D01*
X260784934Y-110488930D02*
X260784435Y-110488931D01*
X260784435Y-110488931D02*
X260564534Y-110708832D01*
X182672734Y-110394831D02*
X190510637Y-102556933D01*
X187177834Y-134150184D02*
X187177835Y-139177730D01*
D52*
X268389933Y-110708932D02*
X267664932Y-109983930D01*
X268739432Y-110708933D02*
X268389933Y-110708932D01*
D51*
X182672734Y-110394831D02*
X181397235Y-110394832D01*
X179778136Y-107225029D02*
X177152837Y-109850331D01*
X183332134Y-141038731D02*
X183514234Y-142771534D01*
X185316855Y-141038706D02*
X183332141Y-141038706D01*
X180778735Y-122002927D02*
X180969934Y-122002934D01*
X187177832Y-133950184D02*
X185142334Y-131914688D01*
X182737233Y-110459332D02*
X182672734Y-110394831D01*
X198789535Y-102544833D02*
X198777436Y-102556929D01*
X183514234Y-142771534D02*
X182153835Y-142771528D01*
X187177835Y-139177730D02*
X185593734Y-140761834D01*
X185142337Y-127750235D02*
X185142334Y-131350184D01*
X180969934Y-118069527D02*
X182737235Y-116302228D01*
X187177834Y-134150184D02*
X187177832Y-133950184D01*
D52*
X267063934Y-109983929D02*
X266558934Y-110488929D01*
D51*
X180969937Y-123546632D02*
X180969934Y-122002934D01*
X181555131Y-124131831D02*
X180969937Y-123546632D01*
X183705938Y-126313830D02*
X185142337Y-127750235D01*
%TO.N,ring_bottom*%
X171615436Y-140058034D02*
X171797533Y-141790933D01*
X173364133Y-141352533D02*
X173364135Y-141073533D01*
X180727936Y-138506030D02*
X182790634Y-136443329D01*
X172845834Y-138876231D02*
X174033034Y-137689028D01*
X172845837Y-140555231D02*
X172845834Y-138876231D01*
X175712136Y-137689031D02*
X176529131Y-138506032D01*
X171612107Y-136438589D02*
X171612106Y-140054719D01*
X171797533Y-141790933D02*
X172925732Y-141790933D01*
X176529131Y-138506032D02*
X180727936Y-138506030D01*
X171612106Y-140054719D02*
X171615446Y-140058060D01*
X182790634Y-136443329D02*
X186255928Y-136443327D01*
X172925732Y-141790933D02*
X173364133Y-141352533D01*
X173364135Y-141073533D02*
X172845837Y-140555231D01*
X186255928Y-136443327D02*
X186601035Y-136098230D01*
X174033034Y-137689028D02*
X175712136Y-137689031D01*
%TO.N,ring_home*%
X171880536Y-126206133D02*
X176026636Y-126206125D01*
X169835109Y-123147822D02*
X169838447Y-123151160D01*
X176026636Y-126206125D02*
X176376828Y-126556327D01*
X176376828Y-126556327D02*
X178382085Y-126556331D01*
X169656438Y-123982033D02*
X171880536Y-126206133D01*
X178382085Y-126556331D02*
X180980334Y-126556334D01*
X169835109Y-119531690D02*
X169835109Y-123147822D01*
X180980334Y-126556334D02*
X181473833Y-126062832D01*
%TO.N,ring_top*%
X168061442Y-106244358D02*
X167550946Y-103349190D01*
X168061442Y-106244358D02*
X169442539Y-104271948D01*
X169442539Y-104271948D02*
X172927860Y-103657394D01*
X167550946Y-103349190D02*
X168058104Y-102624891D01*
%TO.N,C3*%
X200291532Y-134048032D02*
X200291535Y-134504431D01*
D52*
X266558931Y-113028936D02*
X260784934Y-113028935D01*
D51*
X200972235Y-115327434D02*
X201594438Y-115327430D01*
X198425335Y-98437432D02*
X196193733Y-100669031D01*
X196193733Y-100669031D02*
X194016437Y-100669031D01*
X260784431Y-113028927D02*
X260564531Y-113248834D01*
X213262833Y-166293532D02*
X211470831Y-166293533D01*
D52*
X268739936Y-113248930D02*
X268739434Y-113248934D01*
D51*
X204678135Y-166293531D02*
X211470831Y-166293533D01*
X198582087Y-129950186D02*
X194582085Y-129950187D01*
X260784934Y-113028935D02*
X260784431Y-113028927D01*
D52*
X267664932Y-112523930D02*
X267063934Y-112523929D01*
X268389935Y-113248933D02*
X267664932Y-112523930D01*
X267063934Y-112523929D02*
X266558931Y-113028936D01*
D51*
X200204747Y-132390872D02*
X200204748Y-131572843D01*
X200291436Y-161906835D02*
X204678135Y-166293531D01*
X200291435Y-134642033D02*
X200291436Y-161906835D01*
X200291535Y-134504431D02*
X200291433Y-134504531D01*
X200972237Y-115327329D02*
X200972235Y-115327434D01*
X215745633Y-163810728D02*
X213262833Y-166293532D01*
X194182087Y-129550186D02*
X193182085Y-128550181D01*
X200291433Y-134504531D02*
X200291435Y-134642033D01*
X199315035Y-115414128D02*
X197088935Y-117640231D01*
X194582085Y-129950187D02*
X194182087Y-129550186D01*
X268739434Y-113248934D02*
X268739532Y-113248829D01*
X199315035Y-115414128D02*
X200972237Y-115327329D01*
X200204748Y-131572843D02*
X198582087Y-129950186D01*
X203654034Y-113267835D02*
X203654035Y-110711431D01*
X197088935Y-117640231D02*
X194894930Y-117640230D01*
X203654035Y-110711431D02*
X206074532Y-108290933D01*
X193182085Y-128550181D02*
X193182084Y-127750186D01*
D52*
X268739434Y-113248934D02*
X268389935Y-113248933D01*
D51*
X200204731Y-132390831D02*
X200291532Y-134048032D01*
X201594438Y-115327430D02*
X203654034Y-113267835D01*
X193182084Y-127750186D02*
X193182087Y-126350182D01*
%TO.N,middle_bottom*%
X193182085Y-135750180D02*
X198982084Y-135750182D01*
X188555434Y-130798373D02*
X188555433Y-131123531D01*
X188555434Y-130798373D02*
X188555435Y-127369724D01*
X188555433Y-131123531D02*
X192382083Y-134950184D01*
X192382083Y-134950184D02*
X193182085Y-135750180D01*
X188555435Y-127369724D02*
X188741488Y-127183671D01*
%TO.N,middle_home*%
X191382082Y-111550187D02*
X191982086Y-110950183D01*
X187665733Y-110393024D02*
X187851786Y-110206973D01*
X188153697Y-113821671D02*
X190425190Y-111550182D01*
X187665733Y-113821674D02*
X187665733Y-110393024D01*
X187665733Y-113821674D02*
X188153697Y-113821671D01*
X190425190Y-111550182D02*
X191382082Y-111550187D01*
%TO.N,middle_top*%
X186962088Y-93230269D02*
X186507212Y-93772366D01*
X186507212Y-93772366D02*
X186776030Y-96844971D01*
X186776034Y-96556237D02*
X188782085Y-94550181D01*
X186776034Y-96844973D02*
X186776034Y-96556237D01*
%TO.N,C4*%
X254347339Y-122742826D02*
X254347341Y-115342829D01*
D52*
X268389934Y-115788934D02*
X267664935Y-115063927D01*
D51*
X260784432Y-115568934D02*
X260564534Y-115788831D01*
X220626334Y-128024629D02*
X220626334Y-125582334D01*
X218810532Y-134706634D02*
X218810537Y-129840428D01*
D52*
X268739933Y-115788928D02*
X268739438Y-115788933D01*
D51*
X216194336Y-106664027D02*
X211460435Y-106664031D01*
D52*
X268739438Y-115788933D02*
X268389934Y-115788934D01*
D51*
X237708536Y-164381630D02*
X237559037Y-166089835D01*
X260564537Y-115223144D02*
X260564538Y-115788831D01*
X218374496Y-116550180D02*
X218382087Y-116550186D01*
X260784934Y-115568931D02*
X260784432Y-115568934D01*
D52*
X267664935Y-115063927D02*
X267063939Y-115063931D01*
X266558936Y-115568931D02*
X260784934Y-115568931D01*
D51*
X217241535Y-137620834D02*
X217241535Y-136805830D01*
X259884219Y-114542827D02*
X260564537Y-115223144D01*
X218239531Y-138618827D02*
X217241535Y-137620834D01*
X235930032Y-166160132D02*
X231682530Y-166160135D01*
X231261240Y-165738834D02*
X227967436Y-165738833D01*
X221061337Y-107550182D02*
X221061332Y-106670937D01*
X217241535Y-136805830D02*
X217241534Y-136275632D01*
X218227734Y-123195527D02*
X216738135Y-124685130D01*
X221061335Y-110751118D02*
X221061333Y-107350179D01*
X211460435Y-106664031D02*
X211225235Y-106428836D01*
X231682530Y-166160135D02*
X231261240Y-165738834D01*
X218239533Y-138618832D02*
X221876484Y-142255785D01*
X216174496Y-118750187D02*
X218374496Y-116550180D01*
X212582083Y-119350183D02*
X213182086Y-118750183D01*
X213182086Y-118750183D02*
X216174496Y-118750187D01*
D52*
X267063939Y-115063931D02*
X266558936Y-115568931D01*
D51*
X218810537Y-129840428D02*
X220626334Y-128024629D01*
X218239535Y-121618834D02*
X218239535Y-122407133D01*
X255147340Y-114542826D02*
X259884219Y-114542827D01*
X254347341Y-115342829D02*
X255147340Y-114542826D01*
X218382087Y-116550186D02*
X218382084Y-113430365D01*
X268739438Y-115788933D02*
X268739536Y-115788836D01*
X218239535Y-104618834D02*
X216194336Y-106664027D01*
X218239534Y-156010929D02*
X218239531Y-138618827D01*
X237559037Y-166089835D02*
X236000337Y-166089832D01*
X217241534Y-136275632D02*
X218810532Y-134706634D01*
X227967436Y-165738833D02*
X218239534Y-156010929D01*
X218239534Y-122803532D02*
X218239533Y-123195534D01*
X218239535Y-122407133D02*
X218239534Y-122803532D01*
X218382084Y-113430365D02*
X221061335Y-110751118D01*
X218239533Y-123195534D02*
X218227734Y-123195527D01*
X236000337Y-166089832D02*
X235930032Y-166160132D01*
X220626334Y-125582334D02*
X218239533Y-123195534D01*
%TO.N,index_bottom*%
X210076334Y-131192130D02*
X211889534Y-133005331D01*
X206689535Y-136418830D02*
X206689534Y-134842130D01*
X207064534Y-132980437D02*
X208852834Y-131192131D01*
X207064534Y-133410132D02*
X207064534Y-132980437D01*
X216606632Y-135707432D02*
X217982832Y-134331230D01*
X208852834Y-131192131D02*
X210076334Y-131192130D01*
X211889532Y-133880832D02*
X213716136Y-135707429D01*
X211889534Y-133005331D02*
X211889532Y-133880832D01*
X213716136Y-135707429D02*
X216606632Y-135707432D01*
X207064533Y-132818835D02*
X207064534Y-133410132D01*
X207064536Y-134467129D02*
X206689534Y-134842130D01*
X207064534Y-133410132D02*
X207064536Y-134467129D01*
%TO.N,index_home*%
X206689533Y-116920527D02*
X207064538Y-116545530D01*
X206689533Y-119418825D02*
X208758181Y-117350184D01*
X210382083Y-117350183D02*
X211182086Y-116550180D01*
X208758181Y-117350184D02*
X210382083Y-117350183D01*
X206689532Y-119418824D02*
X206689533Y-116920527D01*
X207064538Y-115818827D02*
X207064538Y-116545530D01*
X211182086Y-116550180D02*
X211382084Y-116550184D01*
%TO.N,index_top*%
X211782083Y-100350182D02*
X213782086Y-102350182D01*
X206689536Y-102418832D02*
X208758183Y-100350183D01*
X207064536Y-102043830D02*
X206689536Y-102418832D01*
X208758183Y-100350183D02*
X211782083Y-100350182D01*
X207064532Y-98818832D02*
X207064536Y-102043830D01*
X213782086Y-102350182D02*
X214582082Y-102350182D01*
%TO.N,C5*%
X255996042Y-166791530D02*
X254547342Y-165342832D01*
X235214532Y-121211430D02*
X235214535Y-122593834D01*
D52*
X266558934Y-118108931D02*
X260784934Y-118108931D01*
D51*
X253347340Y-157413260D02*
X246076905Y-150142827D01*
X234208137Y-108650234D02*
X231280033Y-108650233D01*
X238921434Y-108732331D02*
X245106135Y-114917031D01*
X258140737Y-166791531D02*
X255996042Y-166791530D01*
X245106135Y-114917031D02*
X245106132Y-119918829D01*
X254547342Y-165342832D02*
X254547340Y-160542830D01*
X232308184Y-127550184D02*
X236239535Y-123618834D01*
D52*
X268739435Y-118328929D02*
X268389935Y-118328927D01*
D51*
X235214535Y-122593834D02*
X236239534Y-123618832D01*
X254547341Y-160142828D02*
X253347343Y-158942827D01*
X259240636Y-167891429D02*
X258140737Y-166791531D01*
X236239536Y-140618834D02*
X234154531Y-142703829D01*
X268739435Y-118328929D02*
X268739535Y-118328827D01*
X229982084Y-127550184D02*
X232308184Y-127550184D01*
X259240637Y-169839628D02*
X259240636Y-167891429D01*
X237623349Y-140618830D02*
X236239537Y-140618834D01*
X260784934Y-118108931D02*
X260784436Y-118108930D01*
X234154531Y-142703829D02*
X232182086Y-142703828D01*
X253347343Y-158942827D02*
X253347340Y-157413260D01*
X260784436Y-118108930D02*
X260564533Y-118328831D01*
X254547340Y-160542830D02*
X254547341Y-160142828D01*
D52*
X267063938Y-117603934D02*
X266558934Y-118108931D01*
D51*
X244947341Y-147942826D02*
X237623349Y-140618830D01*
D52*
X268739936Y-118328931D02*
X268739435Y-118328929D01*
X267664938Y-117603933D02*
X267063938Y-117603934D01*
D51*
X246076905Y-150142827D02*
X245947340Y-150142828D01*
D52*
X268389935Y-118328927D02*
X267664938Y-117603933D01*
D51*
X231280033Y-108650233D02*
X231067733Y-108437927D01*
X236239534Y-106618833D02*
X234208137Y-108650234D01*
%TO.N,inner_bottom*%
X225064533Y-136467129D02*
X224689535Y-136842131D01*
X224689530Y-138418834D02*
X224689531Y-142042737D01*
X225064537Y-135182126D02*
X225064533Y-136467129D01*
X225064534Y-134818834D02*
X225064537Y-135182126D01*
X224689531Y-142042737D02*
X224582084Y-142150182D01*
X224689532Y-138418833D02*
X224689535Y-136842131D01*
%TO.N,inner_home*%
X226758184Y-119350183D02*
X229182088Y-119350186D01*
X224689530Y-118920531D02*
X225064532Y-118545532D01*
X229182088Y-119350186D02*
X230582086Y-120750183D01*
X230582086Y-120750183D02*
X230982086Y-120750183D01*
X225064534Y-117818834D02*
X225064532Y-118545532D01*
X224689533Y-121418827D02*
X224689530Y-118920531D01*
X224689534Y-121418829D02*
X226758184Y-119350183D01*
%TO.N,inner_top*%
X225064530Y-101545532D02*
X224689537Y-101920533D01*
X224689537Y-101920533D02*
X224689539Y-104418832D01*
X225064534Y-100818828D02*
X225064530Y-101545532D01*
X226958183Y-102150181D02*
X229382087Y-102150183D01*
X224689535Y-104418832D02*
X226958183Y-102150181D01*
X229382087Y-102150183D02*
X231382086Y-104150184D01*
X231382086Y-104150184D02*
X232982085Y-104150180D01*
%TO.N,inner_cluster*%
X213420830Y-162056931D02*
X211017231Y-162056930D01*
X220135638Y-159223329D02*
X216254435Y-159223327D01*
X220246232Y-159112728D02*
X220135638Y-159223329D01*
X204107639Y-159006752D02*
X204107641Y-162565993D01*
X205756135Y-164334032D02*
X204197334Y-164334029D01*
X204047834Y-162625734D02*
X204197334Y-164334029D01*
X216254435Y-159223327D02*
X213420830Y-162056931D01*
X205813434Y-164391329D02*
X205756135Y-164334032D01*
X204107641Y-162565993D02*
X204047856Y-162625772D01*
X208682832Y-164391332D02*
X205813434Y-164391329D01*
X211017231Y-162056930D02*
X208682832Y-164391332D01*
%TO.N,mid_cluster*%
X226394234Y-161183335D02*
X226543733Y-159475134D01*
X227011437Y-158430232D02*
X226543734Y-158897929D01*
X226394188Y-162189676D02*
X228547340Y-164142829D01*
X226394187Y-161183349D02*
X226394188Y-162189676D01*
X226543734Y-158897929D02*
X226543733Y-159475134D01*
X227081534Y-157629731D02*
X227011437Y-158430232D01*
X228547340Y-164142829D02*
X228347342Y-164142823D01*
%TO.N,outer_cluster*%
X249715420Y-161268319D02*
X248935728Y-164178174D01*
X251525697Y-170327558D02*
X255003031Y-171259309D01*
X255003031Y-171259309D02*
X255196218Y-171311070D01*
X248935728Y-164178174D02*
X248631299Y-165314312D01*
X248631299Y-165314312D02*
X250960014Y-169347759D01*
X250404857Y-160870278D02*
X249715420Y-161268319D01*
X250960014Y-169347759D02*
X251525697Y-170327558D01*
%TO.N,R2*%
X136218016Y-153745784D02*
X137936675Y-151291283D01*
X187655134Y-123936034D02*
X187655135Y-124801829D01*
X153348879Y-160851490D02*
X140277103Y-163156396D01*
X183334434Y-144013832D02*
X174663533Y-144013833D01*
D52*
X260263933Y-119053931D02*
X260864932Y-119053930D01*
D51*
X169657834Y-138550185D02*
X169657834Y-134766001D01*
X186787635Y-132936533D02*
X187529538Y-133678430D01*
X186666935Y-125790032D02*
X186666931Y-130470534D01*
X208365533Y-127491135D02*
X208365534Y-127150431D01*
X225064533Y-131518831D02*
X225064533Y-129634132D01*
X171599967Y-144946360D02*
X172263533Y-144946360D01*
X187529534Y-137871026D02*
X187531034Y-137872528D01*
X187531034Y-137872528D02*
X187531033Y-139817232D01*
X192582084Y-125750184D02*
X191982085Y-125150184D01*
X194182084Y-130045154D02*
X192582084Y-128445154D01*
X194182085Y-130750182D02*
X194182084Y-130045154D01*
D52*
X261359933Y-118558929D02*
X267134430Y-118558931D01*
X267134430Y-118558931D02*
X267134934Y-118558930D01*
D51*
X153888112Y-151451765D02*
X155103649Y-158345420D01*
X267134430Y-118558931D02*
X267364536Y-118328830D01*
X225064533Y-129634132D02*
X229185235Y-125513431D01*
X187529538Y-133678430D02*
X187529534Y-137871026D01*
X169657835Y-143004230D02*
X171599967Y-144946360D01*
X186666931Y-130470534D02*
X186787634Y-130591229D01*
X154423374Y-148883534D02*
X155543279Y-147548887D01*
X186787634Y-130591229D02*
X186787635Y-132936533D01*
X192582084Y-128445154D02*
X192582084Y-125750184D01*
X155543279Y-147548887D02*
X155760063Y-148778343D01*
X229185235Y-125513431D02*
X231248635Y-125513430D01*
X207064530Y-129518833D02*
X207064529Y-128792131D01*
X207064529Y-128792131D02*
X208365533Y-127491135D01*
X137539343Y-161239395D02*
X136218016Y-153745784D01*
X155760063Y-148778343D02*
X153888112Y-151451765D01*
X191982085Y-125150184D02*
X189830773Y-125150184D01*
X189830773Y-125150184D02*
X188568781Y-123888191D01*
X259189931Y-118328930D02*
X259189636Y-118328931D01*
X188568730Y-123888230D02*
X187655134Y-123936034D01*
X225064533Y-129634132D02*
X224949234Y-129518831D01*
D52*
X259538933Y-118328931D02*
X260263933Y-119053931D01*
D51*
X140277103Y-163156396D02*
X137539343Y-161239395D01*
X173731006Y-144946359D02*
X174663533Y-144013833D01*
X169657834Y-138550185D02*
X169657835Y-143004230D01*
X154240532Y-148899534D02*
X154423374Y-148883534D01*
X259189636Y-118328931D02*
X259189533Y-118328829D01*
D52*
X259189931Y-118328930D02*
X259538933Y-118328931D01*
X260864932Y-119053930D02*
X261359933Y-118558929D01*
D51*
X169657834Y-134766001D02*
X171267161Y-133156671D01*
X172263533Y-144946360D02*
X173731006Y-144946359D01*
X187531033Y-139817232D02*
X183334434Y-144013832D01*
X155103649Y-158345420D02*
X153348879Y-160851490D01*
X187655135Y-124801829D02*
X186666935Y-125790032D01*
%TO.N,R1*%
X259189633Y-115788930D02*
X259189534Y-115788835D01*
X133907330Y-143793326D02*
X136687627Y-145740110D01*
X166800000Y-120000000D02*
X166800000Y-125940695D01*
X152748133Y-130060032D02*
X153017437Y-130329329D01*
X186765434Y-106959331D02*
X186765437Y-107825130D01*
X166800000Y-125940695D02*
X167427234Y-126567929D01*
X267134436Y-116018931D02*
X267364534Y-115788833D01*
X167427234Y-126567929D02*
X167896936Y-127037630D01*
D52*
X267134436Y-116018931D02*
X267134936Y-116018930D01*
D51*
X169490159Y-117309841D02*
X166800000Y-120000000D01*
X207064537Y-112518830D02*
X207064535Y-113473528D01*
X152008734Y-130920437D02*
X151000135Y-131134830D01*
X167896936Y-127037630D02*
X171097235Y-127037629D01*
X169490159Y-116249768D02*
X169490159Y-117309841D01*
D52*
X259189935Y-115788934D02*
X259538939Y-115788928D01*
D51*
X150711434Y-132217729D02*
X150711435Y-132271030D01*
X152264439Y-132370302D02*
X152008781Y-130920383D01*
D52*
X260263932Y-116513930D02*
X260864935Y-116513935D01*
D51*
X152008734Y-130920437D02*
X153017433Y-130706031D01*
X152748136Y-129346427D02*
X152748133Y-130060032D01*
D52*
X259538939Y-115788928D02*
X260263932Y-116513930D01*
D51*
X207064538Y-111792129D02*
X207064535Y-109986131D01*
X207064532Y-112155430D02*
X207064537Y-112518830D01*
X151000135Y-131134830D02*
X151000133Y-131929031D01*
X225064536Y-114518827D02*
X223979332Y-114518831D01*
X185589737Y-112631328D02*
X185203540Y-113017530D01*
X259189935Y-115788934D02*
X259189633Y-115788930D01*
X153017437Y-130329329D02*
X153017433Y-130706031D01*
X187679036Y-106911529D02*
X186765434Y-106959331D01*
X149096201Y-143552141D02*
X151367451Y-140308470D01*
D52*
X260864935Y-116513935D02*
X261359934Y-116018931D01*
D51*
X151000133Y-131929031D02*
X150711434Y-132217729D01*
X207064535Y-113473528D02*
X205366731Y-115171334D01*
X185203540Y-113017530D02*
X185203534Y-113570729D01*
X134402181Y-134662786D02*
X132720783Y-137064073D01*
X186765437Y-107825130D02*
X185589735Y-109000832D01*
X207064535Y-109986131D02*
X207942134Y-109108533D01*
X207064532Y-112155430D02*
X207064538Y-111792129D01*
X136687627Y-145740110D02*
X149096201Y-143552141D01*
X185589735Y-109000832D02*
X185589737Y-112631328D01*
X150429751Y-134990503D02*
X152264439Y-132370302D01*
X151367451Y-140308470D02*
X150429751Y-134990503D01*
X223979332Y-114518831D02*
X222946234Y-113485732D01*
X132720783Y-137064073D02*
X133907330Y-143793326D01*
D52*
X261359934Y-116018931D02*
X267134436Y-116018931D01*
D51*
%TO.N,R0*%
X183383134Y-93834832D02*
X182263733Y-94954231D01*
X206842282Y-92978553D02*
X206724866Y-91636486D01*
X186789334Y-89934829D02*
X185875735Y-89982634D01*
X162031378Y-108295266D02*
X163121568Y-109058625D01*
X189805052Y-85681432D02*
X199660864Y-85681433D01*
X185875736Y-89982734D02*
X183383136Y-92475332D01*
X160411225Y-106773452D02*
X161953453Y-107853331D01*
X182263733Y-94954231D02*
X182263731Y-97952734D01*
X206724866Y-91636486D02*
X199832702Y-85853272D01*
D52*
X261359936Y-113478930D02*
X267134437Y-113478931D01*
X260864931Y-113973932D02*
X261359936Y-113478930D01*
D51*
X169443409Y-95555675D02*
X171128489Y-93547475D01*
X207064530Y-95518830D02*
X207064537Y-95155426D01*
X143028492Y-120657980D02*
X142648502Y-118502937D01*
X142660234Y-118500866D02*
X145203575Y-114868598D01*
X163621429Y-109929028D02*
X162953423Y-106140573D01*
D52*
X259538933Y-113248931D02*
X260263932Y-113973930D01*
D51*
X161953453Y-107853331D02*
X162031378Y-108295266D01*
X225064533Y-97518829D02*
X225064535Y-95231528D01*
X167673931Y-98894613D02*
X169540871Y-96669680D01*
X145806335Y-110069629D02*
X147149585Y-108151270D01*
X171128489Y-93547475D02*
X183383136Y-92475332D01*
X210707417Y-91741734D02*
X208079111Y-91741733D01*
X186789377Y-89934792D02*
X186789379Y-88697100D01*
X137791406Y-123206096D02*
X141730639Y-122511505D01*
X169540871Y-96669680D02*
X169443409Y-95555675D01*
X224710133Y-94877132D02*
X221574735Y-91741730D01*
X259189936Y-113248927D02*
X259189632Y-113248928D01*
X142648502Y-118502937D02*
X142660234Y-118500866D01*
X225064535Y-95231528D02*
X224710133Y-94877132D01*
X159716153Y-106286753D02*
X160411225Y-106773452D01*
X183383136Y-92475332D02*
X183383134Y-93834832D01*
X136169565Y-122070474D02*
X137791406Y-123206096D01*
X130867680Y-118034286D02*
X131905117Y-118760707D01*
X148754697Y-115882209D02*
X148788434Y-115905831D01*
X199660864Y-85681433D02*
X199832702Y-85853272D01*
D52*
X267134437Y-113478931D02*
X267134935Y-113478933D01*
D51*
X145203575Y-114868598D02*
X148474276Y-114291884D01*
D52*
X259189936Y-113248927D02*
X259538933Y-113248931D01*
X260263932Y-113973930D02*
X260864931Y-113973932D01*
D51*
X163621432Y-109929030D02*
X163621429Y-109929028D01*
X221574735Y-91741730D02*
X210707417Y-91741734D01*
X141730639Y-122511505D02*
X143028492Y-120657980D01*
X186789379Y-88697100D02*
X189805052Y-85681432D01*
X185875735Y-89982634D02*
X185875736Y-89982734D01*
X134096247Y-118374352D02*
X135718081Y-119509975D01*
X163121568Y-109058625D02*
X163226252Y-109652322D01*
X147149585Y-108151270D02*
X159315357Y-106006115D01*
X259189632Y-113248928D02*
X259189533Y-113248834D01*
X267134437Y-113478931D02*
X267364535Y-113248830D01*
X167713157Y-99342968D02*
X167673931Y-98894613D01*
X163226252Y-109652322D02*
X163621432Y-109929030D01*
X148474279Y-114291887D02*
X148754697Y-115882209D01*
X208079111Y-91741733D02*
X206842282Y-92978553D01*
X159315357Y-106006115D02*
X159716153Y-106286753D01*
X135718081Y-119509975D02*
X136169565Y-122070474D01*
X207064533Y-95518834D02*
X206842282Y-92978553D01*
X167713160Y-99342969D02*
X162953423Y-106140573D01*
X131905117Y-118760707D02*
X134096247Y-118374352D01*
%TO.N,R3*%
X233147344Y-161342828D02*
X237147340Y-161342827D01*
X223599135Y-154260435D02*
X222953432Y-153614732D01*
D52*
X259189930Y-120868933D02*
X259538935Y-120868932D01*
X259538935Y-120868932D02*
X260263934Y-121593928D01*
D51*
X206747342Y-156342829D02*
X206123823Y-155719309D01*
X251737135Y-156769730D02*
X251737136Y-156616233D01*
X227369142Y-154342308D02*
X229346822Y-154342311D01*
X206947342Y-156342828D02*
X206747342Y-156342829D01*
D52*
X267134436Y-121098931D02*
X267134937Y-121098929D01*
D51*
X261265732Y-154218233D02*
X266607435Y-159559930D01*
X237147340Y-161342827D02*
X238347343Y-160142825D01*
X259189637Y-120868932D02*
X259189535Y-120868829D01*
X231547334Y-156542822D02*
X231547345Y-159742826D01*
X267134436Y-121098931D02*
X267364535Y-120868833D01*
X238347343Y-157742823D02*
X241547340Y-154542827D01*
X251424633Y-157731832D02*
X251737233Y-156769731D01*
X266607435Y-159559930D02*
X266607435Y-161495933D01*
X226432437Y-154260430D02*
X223599135Y-154260435D01*
X259189930Y-120868933D02*
X259189637Y-120868932D01*
X229346822Y-154342311D02*
X231547334Y-156542822D01*
X251737233Y-156769731D02*
X251737135Y-156769730D01*
X238347343Y-160142825D02*
X238347343Y-157742823D01*
D52*
X260864933Y-121593928D02*
X261359932Y-121098929D01*
D51*
X206123823Y-155719309D02*
X203820025Y-155719307D01*
D52*
X260263934Y-121593928D02*
X260864933Y-121593928D01*
D51*
X226432433Y-154260332D02*
X226432437Y-154260430D01*
D52*
X261359932Y-121098929D02*
X267134436Y-121098931D01*
D51*
X227369133Y-154342334D02*
X226432433Y-154260332D01*
X231547345Y-159742826D02*
X233147344Y-161342828D01*
D52*
%TO.N,RAW*%
X268739534Y-95468828D02*
X268389935Y-95468836D01*
X266558937Y-95248829D02*
X260784931Y-95248834D01*
X260784931Y-95248834D02*
X260784535Y-95248827D01*
X268389935Y-95468836D02*
X267664932Y-94743831D01*
X267063935Y-94743829D02*
X266558937Y-95248829D01*
X268739936Y-95468827D02*
X268739534Y-95468828D01*
X260784535Y-95248827D02*
X260564536Y-95468833D01*
X267664932Y-94743831D02*
X267063935Y-94743829D01*
D51*
%TO.N,RST*%
X272725033Y-102613629D02*
X272725037Y-129658330D01*
D52*
X268739533Y-100548828D02*
X268389933Y-100548831D01*
D51*
X268739737Y-100620431D02*
X269938131Y-101818831D01*
D52*
X268739736Y-100548831D02*
X268739533Y-100548828D01*
X267664939Y-99823832D02*
X267063935Y-99823832D01*
D51*
X260784937Y-100328829D02*
X260784531Y-100328829D01*
X268739736Y-100548831D02*
X268739737Y-100620431D01*
D52*
X268739936Y-100548828D02*
X268739736Y-100548831D01*
X268389933Y-100548831D02*
X267664939Y-99823832D01*
D51*
X269938131Y-101818831D02*
X271930234Y-101818834D01*
D52*
X267063935Y-99823832D02*
X266558935Y-100328832D01*
D51*
X260784531Y-100328829D02*
X260564535Y-100548829D01*
X272725037Y-129658330D02*
X271964535Y-130418833D01*
X271930234Y-101818834D02*
X272725033Y-102613629D01*
D52*
X266558935Y-100328832D02*
X260784937Y-100328829D01*
%TO.N,VCC*%
X198656534Y-88461731D02*
X198688938Y-88460031D01*
X219577834Y-111668933D02*
X219024935Y-111668928D01*
X235664536Y-96668830D02*
X235664931Y-96668830D01*
X139452358Y-151357069D02*
X139220665Y-151194837D01*
X168052535Y-140886929D02*
X168052536Y-141405933D01*
X181719932Y-131202926D02*
X181761833Y-131198530D01*
X262214537Y-140368829D02*
X262214533Y-144968831D01*
X180619431Y-114225435D02*
X181295935Y-114153930D01*
X164310436Y-122880782D02*
X164310435Y-124825681D01*
X166732635Y-144301634D02*
X167064936Y-144230930D01*
X260564536Y-102845929D02*
X259601734Y-101883131D01*
X145771236Y-131377434D02*
X145923934Y-131344930D01*
X180066534Y-97247430D02*
X181056534Y-96257430D01*
X168387036Y-142970235D02*
X167055634Y-144301633D01*
X221957234Y-104880126D02*
X222090434Y-104746930D01*
X218781634Y-108055731D02*
X220661337Y-109935433D01*
X268739435Y-103088933D02*
X268389934Y-103088928D01*
X214305733Y-153948728D02*
X214305934Y-153948933D01*
X178207835Y-97385134D02*
X179518937Y-97247434D01*
X163583732Y-127601927D02*
X163530933Y-127601931D01*
X240060635Y-100039132D02*
X240060636Y-101883130D01*
X240049633Y-128150183D02*
X240049634Y-116693629D01*
X260784437Y-102868926D02*
X260564535Y-103088830D01*
X217664831Y-111668831D02*
X217664933Y-111668929D01*
X238002933Y-154418931D02*
X238680435Y-154478433D01*
X179518937Y-97247434D02*
X180066534Y-97247430D01*
X141058937Y-114998930D02*
X141724434Y-114857428D01*
X138578399Y-147552353D02*
X133712883Y-144145484D01*
X144593735Y-131627429D02*
X145769934Y-131377429D01*
X163376635Y-127635029D02*
X163497831Y-127635035D01*
X227025535Y-109948432D02*
X221957234Y-104880126D01*
X240163336Y-154508233D02*
X252923132Y-141748428D01*
X147815616Y-155974958D02*
X145778416Y-156334175D01*
X200063736Y-119281132D02*
X205862435Y-113482429D01*
X238656535Y-112608930D02*
X237596535Y-113668929D01*
X164641037Y-114834634D02*
X164641036Y-115350186D01*
X150200242Y-152177086D02*
X149645289Y-152969644D01*
X181757132Y-131203231D02*
X181761833Y-131198530D01*
X260564535Y-103088830D02*
X260564536Y-102845929D01*
X205862435Y-113482429D02*
X205862434Y-109389331D01*
X235664534Y-130668833D02*
X235664834Y-130668834D01*
X133542179Y-144025957D02*
X132135195Y-136046552D01*
X202341132Y-102804429D02*
X202341138Y-102285228D01*
X263964534Y-126718829D02*
X264307831Y-126718831D01*
X178166232Y-97389530D02*
X178203435Y-97389533D01*
X198255535Y-105472428D02*
X198220037Y-105507933D01*
X198219935Y-105507930D02*
X198898933Y-105472430D01*
X214305934Y-153948933D02*
X215660934Y-153829929D01*
X206746633Y-108055729D02*
X218781634Y-108055731D01*
X143037872Y-154415225D02*
X142545700Y-151623971D01*
X268739933Y-103088930D02*
X268739435Y-103088933D01*
X266558936Y-102868931D02*
X260784932Y-102868932D01*
X217664534Y-94668830D02*
X217664935Y-94668827D01*
X220661337Y-109935433D02*
X220661334Y-110585434D01*
X202114836Y-93517029D02*
X202108037Y-93510226D01*
X235664933Y-130668930D02*
X237024936Y-130668934D01*
X202114833Y-103030734D02*
X202341132Y-102804429D01*
X199788935Y-122449432D02*
X200467935Y-122413926D01*
X198898933Y-105472430D02*
X198255535Y-105472428D01*
X220661334Y-110585434D02*
X219577834Y-111668933D01*
X235664833Y-113668835D02*
X235664937Y-113668931D01*
X252923132Y-141748428D02*
X258994132Y-141748434D01*
X148269734Y-148114433D02*
X148128233Y-148255934D01*
X200101835Y-105436929D02*
X199577934Y-105436929D01*
X165876032Y-144372430D02*
X165734930Y-144513529D01*
X146230078Y-133081158D02*
X146046360Y-133343531D01*
X159922133Y-110989632D02*
X159995936Y-110973931D01*
X238680435Y-154478433D02*
X239019732Y-154508228D01*
X163497831Y-127635035D02*
X163530933Y-127601931D01*
X149496800Y-153181705D02*
X149552053Y-153495068D01*
X148127935Y-148255933D02*
X148793437Y-148114433D01*
X239019732Y-154508228D02*
X239357934Y-154537934D01*
X149645289Y-152969644D02*
X149496800Y-153181705D01*
X199144933Y-122449430D02*
X199109731Y-122484634D01*
X240060635Y-106706931D02*
X236819133Y-109948434D01*
X202341138Y-102285228D02*
X202114834Y-102058933D01*
X145769934Y-131377429D02*
X145771236Y-131377434D01*
X162200935Y-127884926D02*
X163530933Y-127601931D01*
X202114836Y-103423933D02*
X202114833Y-103030734D01*
X205862434Y-109389331D02*
X206746632Y-108505134D01*
X181761833Y-131198530D02*
X183072934Y-131060929D01*
X198009434Y-88495630D02*
X197365933Y-88495630D01*
X181720235Y-131203232D02*
X181757132Y-131203231D01*
X267063933Y-102363834D02*
X266558936Y-102868931D01*
X268389934Y-103088928D02*
X267664934Y-102363832D01*
X237596535Y-113668929D02*
X237024930Y-113668934D01*
X206746632Y-108505134D02*
X206746633Y-108055729D01*
X142545700Y-151623971D02*
X140379121Y-152005995D01*
X197329934Y-88531229D02*
X198009434Y-88495630D01*
X168052536Y-141405933D02*
X168387033Y-141740428D01*
X202114834Y-102058933D02*
X202114836Y-93517029D01*
X239019732Y-154508228D02*
X240163336Y-154508233D01*
X199109933Y-122484929D02*
X199788935Y-122449432D01*
X178165933Y-97389530D02*
X178207835Y-97385134D01*
X164708785Y-126476884D02*
X163950931Y-127234733D01*
X217664935Y-94668827D02*
X219024936Y-94668830D01*
X137230141Y-135298994D02*
X136998450Y-135136764D01*
X200279230Y-90086427D02*
X200279235Y-90084428D01*
X265234536Y-126718833D02*
X264307831Y-126718831D01*
X165734934Y-144513932D02*
X166399933Y-144372432D01*
X141200734Y-114857433D02*
X141059237Y-114998929D01*
X200279235Y-90084428D02*
X198656534Y-88461731D01*
X167055634Y-144301633D02*
X166732635Y-144301634D01*
X202108037Y-93510226D02*
X202108032Y-91915328D01*
X142782198Y-117260850D02*
X142827311Y-117196425D01*
X166399933Y-144372432D02*
X165876032Y-144372430D01*
X164641035Y-122550185D02*
X164310436Y-122880782D01*
X197365933Y-88495630D02*
X197330333Y-88531232D01*
X240060636Y-101883130D02*
X240060635Y-106706931D01*
X261978434Y-160408931D02*
X261768433Y-160198928D01*
X198009434Y-88495630D02*
X198656534Y-88461731D01*
X236819133Y-109948434D02*
X227025535Y-109948432D01*
X267664934Y-102363832D02*
X267063933Y-102363834D01*
X164641036Y-115350186D02*
X164641035Y-122550185D01*
X217664933Y-128668929D02*
X219024938Y-128668929D01*
X240049635Y-128874934D02*
X240049633Y-128150183D01*
X149099554Y-154141305D02*
X147815616Y-155974958D01*
X200307835Y-90115126D02*
X200307836Y-90115035D01*
X148793437Y-148114433D02*
X148269734Y-148114433D01*
X241053484Y-129878785D02*
X240049635Y-128874934D01*
X217664933Y-111668929D02*
X219024935Y-111668928D01*
X222090435Y-97734331D02*
X219024936Y-94668830D01*
X164310435Y-124825681D02*
X164834930Y-125350183D01*
X238878233Y-130046333D02*
X238255637Y-130668929D01*
X179942936Y-114296929D02*
X180619431Y-114225435D01*
X143944762Y-155050235D02*
X143037872Y-154415225D01*
X159922133Y-110989632D02*
X160796037Y-110989631D01*
X222090434Y-104746930D02*
X222090435Y-97734331D01*
X262414933Y-160408931D02*
X263061936Y-160618929D01*
X240049635Y-128350183D02*
X240049633Y-128150183D01*
X252923132Y-141748428D02*
X241053484Y-129878785D01*
X160796037Y-110989631D02*
X161669338Y-111862932D01*
X168277534Y-131561431D02*
X168277534Y-140661930D01*
X159330936Y-111115427D02*
X159922133Y-110989632D01*
X134913229Y-133676678D02*
X137230141Y-135298994D01*
X133712883Y-144145484D02*
X133542179Y-144025957D01*
X235664931Y-96668830D02*
X236690333Y-96668833D01*
X259601734Y-101883131D02*
X240060636Y-101883130D01*
X263964533Y-138618833D02*
X263964534Y-126718829D01*
X139220665Y-151194837D02*
X138578399Y-147552353D01*
X240049633Y-128834729D02*
X240049635Y-128350183D01*
X262214537Y-140368829D02*
X263964533Y-138618833D01*
X133637035Y-133901701D02*
X134913229Y-133676678D01*
X168277534Y-140661930D02*
X168052535Y-140886929D01*
X235664834Y-130668834D02*
X235664933Y-130668930D01*
X166399933Y-144372432D02*
X166732635Y-144301634D01*
X258994132Y-141748434D02*
X262214533Y-144968831D01*
X238656537Y-111785829D02*
X238656535Y-112608930D01*
X236819133Y-109948434D02*
X238656537Y-111785829D01*
X180014233Y-114225431D02*
X179943234Y-114296425D01*
X180619431Y-114225435D02*
X180014233Y-114225431D01*
X200307836Y-90115035D02*
X200279230Y-90086427D01*
X202114836Y-103423933D02*
X206746633Y-108055729D01*
X238061833Y-154478429D02*
X238002832Y-154419430D01*
X159330936Y-111115427D02*
X158807037Y-111115433D01*
X260784932Y-102868932D02*
X260784437Y-102868926D01*
X163950931Y-127234733D02*
X168277534Y-131561431D01*
X240049633Y-128874933D02*
X240049635Y-128350183D01*
X145923934Y-131344930D02*
X146230078Y-133081158D01*
X140379121Y-152005995D02*
X139452358Y-151357069D01*
X148793437Y-148114433D02*
X149458937Y-147972933D01*
X199788935Y-122449432D02*
X199144933Y-122449430D01*
X202108032Y-91915328D02*
X200307835Y-90115126D01*
X158807037Y-111115433D02*
X158665932Y-111256535D01*
X202114836Y-103423933D02*
X200101835Y-105436929D01*
X161669338Y-111862932D02*
X164641037Y-114834634D01*
X162200434Y-127885033D02*
X163376635Y-127635029D01*
X238255637Y-130668929D02*
X237024936Y-130668934D01*
X142389934Y-114715927D02*
X142782198Y-117260850D01*
X198898933Y-105472430D02*
X199577934Y-105436929D01*
X217664535Y-111668833D02*
X217664831Y-111668831D01*
X235664535Y-113668832D02*
X235664833Y-113668835D01*
X145778416Y-156334175D02*
X143944762Y-155050235D01*
X132135195Y-136046552D02*
X133637035Y-133901701D01*
X141724434Y-114857428D02*
X141200734Y-114857433D01*
X168387033Y-141740428D02*
X168387036Y-142970235D01*
X221957234Y-104880126D02*
X218781634Y-108055731D01*
X236690333Y-96668833D02*
X240060635Y-100039132D01*
X240049634Y-116693629D02*
X237024930Y-113668934D01*
X141724434Y-114857428D02*
X142389934Y-114715927D01*
X238878233Y-130046333D02*
X240049633Y-128874933D01*
X217664534Y-128668835D02*
X217664837Y-128668833D01*
X238680435Y-154478433D02*
X238061833Y-154478429D01*
X235664937Y-113668931D02*
X237024930Y-113668934D01*
X163950931Y-127234733D02*
X163583732Y-127601927D01*
X214305537Y-153948730D02*
X214305733Y-153948728D01*
X217664837Y-128668833D02*
X217664933Y-128668929D01*
X149552053Y-153495068D02*
X149099554Y-154141305D01*
X263964534Y-126718829D02*
X263964535Y-126621735D01*
X164834935Y-126350734D02*
X164834930Y-125350183D01*
X268739435Y-103088933D02*
X268739533Y-103088833D01*
X236690333Y-96668833D02*
X237024936Y-96668830D01*
X144593930Y-131627931D02*
X145771236Y-131377434D01*
X149458937Y-147972933D02*
X150200242Y-152177086D01*
X164708785Y-126476884D02*
X164834935Y-126350734D01*
X158665935Y-111256929D02*
X159330936Y-111115427D01*
X261767935Y-160198937D02*
X262414933Y-160408931D01*
X262414933Y-160408931D02*
X261978434Y-160408931D01*
X178203435Y-97389533D02*
X178207835Y-97385134D01*
D51*
%TO.N,P16*%
X260784432Y-120648930D02*
X260564535Y-120868831D01*
D52*
X268389934Y-120868930D02*
X267664933Y-120143932D01*
X268739432Y-120868928D02*
X268389934Y-120868930D01*
D51*
X268739432Y-120868928D02*
X268739535Y-120868835D01*
D52*
X267063932Y-120143933D02*
X266558935Y-120648931D01*
D51*
X260784934Y-120648929D02*
X260784432Y-120648930D01*
D52*
X267664933Y-120143932D02*
X267063932Y-120143933D01*
X266558935Y-120648931D02*
X260784934Y-120648929D01*
X268739934Y-120868929D02*
X268739432Y-120868928D01*
%TO.N,P10*%
X268389936Y-123408925D02*
X267664936Y-122683932D01*
X268739430Y-123408932D02*
X268389936Y-123408925D01*
X267664936Y-122683932D02*
X267063937Y-122683931D01*
X266558933Y-123188931D02*
X260784937Y-123188930D01*
X268739934Y-123408934D02*
X268739430Y-123408932D01*
D51*
X268739430Y-123408932D02*
X268739535Y-123408826D01*
X260784937Y-123188930D02*
X260784436Y-123188931D01*
D52*
X267063937Y-122683931D02*
X266558933Y-123188931D01*
D51*
X260784436Y-123188931D02*
X260564536Y-123408831D01*
D52*
%TO.N,LED*%
X261359934Y-95698835D02*
X267134538Y-95698829D01*
X259189939Y-95468832D02*
X259538933Y-95468830D01*
D51*
X259189939Y-95468832D02*
X259189534Y-95468835D01*
X229874431Y-97061329D02*
X230264532Y-96671229D01*
X230335435Y-92948329D02*
X228014936Y-95268828D01*
D52*
X267134538Y-95698829D02*
X267134931Y-95698832D01*
D51*
X230264532Y-96671229D02*
X230264534Y-96668829D01*
X259189534Y-95468835D02*
X259189535Y-94567128D01*
D52*
X259538933Y-95468830D02*
X260263932Y-96193830D01*
X229483935Y-97453833D02*
X228435933Y-97453832D01*
X260263932Y-96193830D02*
X260864934Y-96193831D01*
D51*
X267134538Y-95698829D02*
X267364538Y-95468831D01*
X259189535Y-94567128D02*
X257570735Y-92948332D01*
D52*
X229874431Y-97061329D02*
X229483935Y-97453833D01*
X228014935Y-97028829D02*
X228014936Y-95268828D01*
X228435933Y-97453832D02*
X228014935Y-97028829D01*
X260864934Y-96193831D02*
X261359934Y-95698835D01*
D51*
X257570735Y-92948332D02*
X230335435Y-92948329D01*
D52*
X230264938Y-96668831D02*
X229874431Y-97061329D01*
%TO.N,P0*%
X259538935Y-98008831D02*
X260263937Y-98733829D01*
X259189937Y-98008829D02*
X259538935Y-98008831D01*
X260263937Y-98733829D02*
X260864934Y-98733835D01*
X260864934Y-98733835D02*
X261359932Y-98238834D01*
D51*
X267134534Y-98238832D02*
X267364537Y-98008833D01*
D52*
X261359932Y-98238834D02*
X267134534Y-98238832D01*
D51*
X259189937Y-98008829D02*
X259189535Y-98008832D01*
D52*
X267134534Y-98238832D02*
X267134934Y-98238836D01*
D51*
%TO.N,SDA*%
X260154533Y-126718835D02*
X260154537Y-126265927D01*
X260154537Y-126265927D02*
X260640135Y-125780330D01*
D52*
X259189932Y-105628930D02*
X259538934Y-105628931D01*
D51*
X259189634Y-105628934D02*
X259189530Y-105628830D01*
D52*
X261359937Y-105858929D02*
X267134432Y-105858930D01*
D51*
X259189634Y-105709228D02*
X259189634Y-105628934D01*
D52*
X267134432Y-105858930D02*
X267134932Y-105858929D01*
X260864935Y-106353931D02*
X261359937Y-105858929D01*
D51*
X259189932Y-105628930D02*
X259189634Y-105628934D01*
X267134432Y-105858930D02*
X267364535Y-105628829D01*
D52*
X259538934Y-105628931D02*
X260263933Y-106353929D01*
X260263933Y-106353929D02*
X260864935Y-106353931D01*
%TO.N,SCL*%
X261359936Y-108398932D02*
X267134436Y-108398931D01*
D51*
X261347343Y-127542826D02*
X262171336Y-126718831D01*
X259189635Y-108249232D02*
X259189635Y-108168931D01*
D52*
X260864932Y-108893928D02*
X261359936Y-108398932D01*
D51*
X259189931Y-108168932D02*
X259189635Y-108168931D01*
X262694533Y-126718829D02*
X264470539Y-124942827D01*
X262947337Y-131542828D02*
X261347343Y-129942827D01*
X262171336Y-126718831D02*
X262694533Y-126718829D01*
X259189635Y-108168931D02*
X259189535Y-108168833D01*
D52*
X259538928Y-108168930D02*
X260263932Y-108893928D01*
X267134436Y-108398931D02*
X267134936Y-108398927D01*
X260263932Y-108893928D02*
X260864932Y-108893928D01*
D51*
X264470539Y-124942827D02*
X265947342Y-124942826D01*
X267134436Y-108398931D02*
X267364537Y-108168828D01*
D52*
X259189931Y-108168932D02*
X259538928Y-108168930D01*
D51*
X261347343Y-129942827D02*
X261347343Y-127542826D01*
D52*
%TO.N,CS*%
X260263934Y-111433928D02*
X260864933Y-111433932D01*
X259189935Y-110708931D02*
X259538939Y-110708930D01*
D51*
X259189935Y-110708931D02*
X259189634Y-110708931D01*
D52*
X260864933Y-111433932D02*
X261359933Y-110938931D01*
D51*
X259189634Y-110708931D02*
X259189532Y-110708829D01*
D52*
X267134435Y-110938930D02*
X267134935Y-110938933D01*
D51*
X267134435Y-110938930D02*
X267364536Y-110708829D01*
D52*
X261359933Y-110938931D02*
X267134435Y-110938930D01*
X259538939Y-110708930D02*
X260263934Y-111433928D01*
%TO.N,DAT*%
X261359936Y-123638933D02*
X266997234Y-123638925D01*
X260263935Y-124133930D02*
X260864933Y-124133930D01*
D51*
X266764534Y-144968829D02*
X266764536Y-140368833D01*
D52*
X260864933Y-124133930D02*
X261359936Y-123638933D01*
D51*
X259189635Y-123408929D02*
X259189534Y-123408830D01*
X266997234Y-123638925D02*
X267227333Y-123408827D01*
X266634534Y-139162133D02*
X266634534Y-124001630D01*
X267227333Y-123408827D02*
X267364532Y-123408835D01*
X266764536Y-140368833D02*
X266764530Y-139292130D01*
X259189936Y-123408928D02*
X259189635Y-123408929D01*
D52*
X259538933Y-123408938D02*
X260263935Y-124133930D01*
X266997234Y-123638925D02*
X267134931Y-123638930D01*
D51*
X266764530Y-139292130D02*
X266634534Y-139162133D01*
D52*
X259189936Y-123408928D02*
X259538933Y-123408938D01*
D51*
X266634534Y-124001630D02*
X266997234Y-123638925D01*
D52*
%TO.N,MCU1_24*%
X256344933Y-95468830D02*
X258464537Y-95468830D01*
D51*
X256344933Y-95468830D02*
X256344532Y-95468834D01*
D52*
X258464537Y-95468830D02*
X258464934Y-95468833D01*
%TO.N,MCU1_1*%
X271584936Y-95468827D02*
X271584530Y-95468828D01*
X271584530Y-95468828D02*
X269464936Y-95468829D01*
D51*
%TO.N,MCU1_23*%
X256344936Y-98008831D02*
X256344534Y-98008831D01*
D52*
X258464536Y-98008833D02*
X258464936Y-98008831D01*
X256344936Y-98008831D02*
X258464536Y-98008833D01*
%TO.N,MCU1_2*%
X271584535Y-98008832D02*
X269464933Y-98008830D01*
X271584935Y-98008832D02*
X271584535Y-98008832D01*
D51*
%TO.N,MCU1_22*%
X256344937Y-100548834D02*
X256344533Y-100548835D01*
D52*
X256344937Y-100548834D02*
X258464534Y-100548829D01*
X258464534Y-100548829D02*
X258464936Y-100548834D01*
%TO.N,MCU1_3*%
X271584932Y-100548828D02*
X271584536Y-100548832D01*
X271584536Y-100548832D02*
X269464936Y-100548829D01*
D51*
%TO.N,MCU1_21*%
X256344934Y-103088932D02*
X256344635Y-103088931D01*
D52*
X256344934Y-103088932D02*
X258464935Y-103088932D01*
D51*
X256344635Y-103088931D02*
X256344535Y-103088829D01*
%TO.N,MCU1_4*%
X271584433Y-103088933D02*
X271584534Y-103088830D01*
D52*
X271584433Y-103088933D02*
X269464934Y-103088931D01*
X271584935Y-103088933D02*
X271584433Y-103088933D01*
D51*
%TO.N,MCU1_20*%
X256344636Y-105628933D02*
X256344533Y-105628831D01*
X256344934Y-105628932D02*
X256344636Y-105628933D01*
D52*
X256344934Y-105628932D02*
X258464935Y-105628936D01*
%TO.N,MCU1_5*%
X271584937Y-105628932D02*
X271584433Y-105628932D01*
X271584433Y-105628932D02*
X269464935Y-105628932D01*
D51*
X271584433Y-105628932D02*
X271584535Y-105628830D01*
%TO.N,MCU1_19*%
X256344936Y-108168927D02*
X256344636Y-108168930D01*
D52*
X256344936Y-108168927D02*
X258464933Y-108168932D01*
D51*
X256344636Y-108168930D02*
X256344531Y-108168831D01*
%TO.N,MCU1_6*%
X271584434Y-108168929D02*
X271584531Y-108168829D01*
D52*
X271584935Y-108168930D02*
X271584434Y-108168929D01*
X271584434Y-108168929D02*
X269464935Y-108168932D01*
D51*
%TO.N,MCU1_18*%
X256344633Y-110708930D02*
X256344533Y-110708833D01*
D52*
X256344935Y-110708933D02*
X258464935Y-110708930D01*
D51*
X256344935Y-110708933D02*
X256344633Y-110708930D01*
%TO.N,MCU1_7*%
X271584434Y-110708933D02*
X271584536Y-110708830D01*
D52*
X271584936Y-110708928D02*
X271584434Y-110708933D01*
X271584434Y-110708933D02*
X269464934Y-110708932D01*
D51*
%TO.N,MCU1_17*%
X256344932Y-113248929D02*
X256344636Y-113248927D01*
X256344636Y-113248927D02*
X256344534Y-113248835D01*
D52*
X256344932Y-113248929D02*
X258464935Y-113248928D01*
%TO.N,MCU1_8*%
X271584935Y-113248931D02*
X271584434Y-113248933D01*
X271584434Y-113248933D02*
X269464936Y-113248931D01*
D51*
X271584434Y-113248933D02*
X271584537Y-113248833D01*
D52*
%TO.N,MCU1_16*%
X256344935Y-115788930D02*
X258464938Y-115788933D01*
D51*
X256344935Y-115788930D02*
X256344633Y-115788930D01*
X256344633Y-115788930D02*
X256344535Y-115788830D01*
D52*
%TO.N,MCU1_9*%
X271584435Y-115788936D02*
X269464932Y-115788930D01*
D51*
X271584435Y-115788936D02*
X271584533Y-115788833D01*
D52*
X271584935Y-115788926D02*
X271584435Y-115788936D01*
D51*
%TO.N,MCU1_15*%
X256344634Y-118328931D02*
X256344532Y-118328831D01*
D52*
X256344931Y-118328933D02*
X258464934Y-118328929D01*
D51*
X256344931Y-118328933D02*
X256344634Y-118328931D01*
D52*
%TO.N,MCU1_10*%
X271584932Y-118328935D02*
X271584438Y-118328927D01*
X271584438Y-118328927D02*
X269464935Y-118328933D01*
D51*
X271584438Y-118328927D02*
X271584535Y-118328832D01*
%TO.N,MCU1_14*%
X256344632Y-120868929D02*
X256344536Y-120868829D01*
D52*
X256344934Y-120868937D02*
X258464933Y-120868936D01*
D51*
X256344934Y-120868937D02*
X256344632Y-120868929D01*
D52*
%TO.N,MCU1_11*%
X271584932Y-120868928D02*
X271584437Y-120868932D01*
D51*
X271584437Y-120868932D02*
X271584535Y-120868833D01*
D52*
X271584437Y-120868932D02*
X269464933Y-120868934D01*
%TO.N,MCU1_13*%
X256344933Y-123408930D02*
X258464932Y-123408929D01*
D51*
X256344933Y-123408930D02*
X256344636Y-123408927D01*
X256344636Y-123408927D02*
X256344533Y-123408833D01*
D52*
%TO.N,MCU1_12*%
X271584434Y-123408926D02*
X269464933Y-123408934D01*
X271584936Y-123408936D02*
X271584434Y-123408926D01*
D51*
X271584434Y-123408926D02*
X271584536Y-123408828D01*
%TO.N,DISP1_1*%
X260154834Y-127618832D02*
X260154932Y-127618932D01*
X260154536Y-128494327D02*
X260154536Y-129368831D01*
X260154934Y-128493930D02*
X260154536Y-128494327D01*
X260154534Y-127618835D02*
X260154834Y-127618832D01*
D52*
X260154934Y-128493930D02*
X260154932Y-127618932D01*
X260154937Y-129368928D02*
X260154934Y-128493930D01*
D51*
%TO.N,DISP1_2*%
X262694533Y-127618831D02*
X262694832Y-127618829D01*
D52*
X262694937Y-128493928D02*
X262694936Y-127618928D01*
X262694937Y-129368936D02*
X262694937Y-128493928D01*
D51*
X262694937Y-128493928D02*
X262694534Y-128494333D01*
X262694534Y-128494333D02*
X262694536Y-129368827D01*
X262694832Y-127618829D02*
X262694936Y-127618928D01*
D52*
%TO.N,DISP1_3*%
X265234933Y-128493929D02*
X265234932Y-127618930D01*
X265234937Y-129368930D02*
X265234933Y-128493929D01*
D51*
X265234539Y-128494330D02*
X265234535Y-129368830D01*
X265234531Y-127618834D02*
X265234834Y-127618827D01*
X265234834Y-127618827D02*
X265234932Y-127618930D01*
X265234933Y-128493929D02*
X265234539Y-128494330D01*
%TO.N,DISP1_4*%
X267774532Y-128494335D02*
X267774535Y-129368834D01*
X267774831Y-127618830D02*
X267774936Y-127618932D01*
X267774536Y-127618830D02*
X267774831Y-127618830D01*
D52*
X267774935Y-128493933D02*
X267774936Y-127618932D01*
D51*
X267774935Y-128493933D02*
X267774532Y-128494335D01*
D52*
X267774933Y-129368932D02*
X267774935Y-128493933D01*
D51*
%TO.N,LED_18*%
X148070835Y-146652924D02*
X147837237Y-146886534D01*
D52*
X150037934Y-146418933D02*
X148937432Y-146652930D01*
X208216933Y-155269928D02*
X207172932Y-155360932D01*
D51*
X208926135Y-154419433D02*
X208239236Y-155106327D01*
D52*
X208239234Y-155243131D02*
X208216933Y-155269928D01*
X208925935Y-154418929D02*
X208239234Y-155243131D01*
X148937432Y-146652930D02*
X147836934Y-146886931D01*
D51*
X148937432Y-146652930D02*
X148070835Y-146652924D01*
X208239236Y-155106327D02*
X208239234Y-155243131D01*
D52*
X207172932Y-155360932D02*
X206715932Y-154973932D01*
X206715932Y-154973932D02*
X206562933Y-153220934D01*
D51*
%TO.N,LED_17*%
X164020532Y-141720533D02*
X165443935Y-143143935D01*
D52*
X167644936Y-142675934D02*
X166544436Y-142909929D01*
D51*
X142846238Y-149543631D02*
X142846237Y-149378731D01*
D52*
X166544436Y-142909929D02*
X165443935Y-143143935D01*
X140719937Y-150198928D02*
X140353936Y-148476929D01*
D51*
X159852936Y-141720530D02*
X164020532Y-141720533D01*
X166544436Y-142909929D02*
X165678131Y-142909930D01*
X142545932Y-149843931D02*
X142846238Y-149543631D01*
D52*
X142545932Y-149843931D02*
X142245934Y-150308934D01*
X141220933Y-150526931D02*
X140719937Y-150198928D01*
D51*
X165678131Y-142909930D02*
X165443932Y-143144128D01*
D52*
X142845932Y-149378933D02*
X142545932Y-149843931D01*
X142245934Y-150308934D02*
X141220933Y-150526931D01*
%TO.N,LED_7*%
X156618434Y-129472932D02*
X156317935Y-129937935D01*
X154792935Y-129827929D02*
X154426932Y-128105934D01*
X155292935Y-130155935D02*
X154792935Y-129827929D01*
X156918935Y-129007931D02*
X156618434Y-129472932D01*
D51*
X156618434Y-129472932D02*
X156918434Y-129172932D01*
X144536835Y-130023928D02*
X144302734Y-130258030D01*
D52*
X156317935Y-129937935D02*
X155292935Y-130155935D01*
X146503935Y-129789931D02*
X145403436Y-130023930D01*
D51*
X156918434Y-129172932D02*
X156918436Y-129007832D01*
D52*
X145403436Y-130023930D02*
X144302936Y-130257933D01*
D51*
X145403436Y-130023930D02*
X144536835Y-130023928D01*
D52*
%TO.N,LED_6*%
X142968932Y-113161935D02*
X141868436Y-113395928D01*
X137685936Y-133897935D02*
X137185932Y-133569929D01*
D51*
X139311736Y-132914637D02*
X139311732Y-132750227D01*
D52*
X138710931Y-133679930D02*
X137685936Y-133897935D01*
D51*
X141001836Y-113395929D02*
X140768232Y-113629527D01*
D52*
X139311932Y-132749933D02*
X139011433Y-133214931D01*
X144385352Y-111076800D02*
X144848735Y-111401266D01*
X137185932Y-133569929D02*
X136819937Y-131848929D01*
D51*
X139011433Y-133214931D02*
X139311736Y-132914637D01*
X141868436Y-113395928D02*
X141001836Y-113395929D01*
D52*
X139011433Y-133214931D02*
X138710931Y-133679930D01*
X142021816Y-111493557D02*
X144385352Y-111076800D01*
X141868436Y-113395928D02*
X140767934Y-113629932D01*
%TO.N,LED_5*%
X133650931Y-116941927D02*
X133284937Y-115219931D01*
D51*
X135777233Y-116286629D02*
X135777234Y-116121735D01*
X158714755Y-107538837D02*
X147299880Y-109551588D01*
X136079694Y-111228605D02*
X133284937Y-115219931D01*
X147299880Y-109551588D02*
X146533335Y-110646326D01*
D52*
X159475435Y-109652934D02*
X158374934Y-109886931D01*
D51*
X159666177Y-108205033D02*
X158714755Y-107538837D01*
D52*
X134151936Y-117269930D02*
X133650931Y-116941927D01*
D51*
X161320037Y-108205030D02*
X159666177Y-108205033D01*
X135476936Y-116586931D02*
X135777233Y-116286629D01*
D52*
X135776935Y-116121931D02*
X135476936Y-116586931D01*
D51*
X143688560Y-109886957D02*
X136079694Y-111228605D01*
D52*
X135476936Y-116586931D02*
X135176937Y-117051932D01*
D51*
X158609137Y-109652930D02*
X158374935Y-109887132D01*
X159475435Y-109652934D02*
X158609137Y-109652930D01*
X162615635Y-109500634D02*
X161320037Y-108205030D01*
D52*
X160575940Y-109418931D02*
X159475435Y-109652934D01*
D51*
X146533335Y-110646326D02*
X145127157Y-110894273D01*
X144923140Y-110751418D02*
X143688560Y-109886957D01*
D52*
X135176937Y-117051932D02*
X134151936Y-117269930D01*
D51*
X145127157Y-110894273D02*
X144923140Y-110751418D01*
D52*
%TO.N,LED_16*%
X183811937Y-129575929D02*
X181769232Y-129790431D01*
X188333570Y-132766750D02*
X188136611Y-132801481D01*
X181769232Y-129790431D02*
X181573933Y-129810934D01*
X159851934Y-146566931D02*
X158826932Y-146783930D01*
D51*
X181594337Y-129790433D02*
X181769232Y-129790431D01*
X160152435Y-146101430D02*
X160452936Y-145800932D01*
D52*
X184553882Y-144805990D02*
X189593503Y-137608666D01*
X160452932Y-145635926D02*
X160152435Y-146101430D01*
X160152435Y-146101430D02*
X159851934Y-146566931D01*
X158326937Y-146455929D02*
X157960936Y-144734931D01*
X189593503Y-137608666D02*
X188796955Y-133091216D01*
X158826932Y-146783930D02*
X158326937Y-146455929D01*
X173930624Y-146679157D02*
X184553882Y-144805990D01*
X172717847Y-145829962D02*
X173930624Y-146679157D01*
X188796955Y-133091216D02*
X188333570Y-132766750D01*
D51*
X181573835Y-129810930D02*
X181594337Y-129790433D01*
X160452936Y-145800932D02*
X160452932Y-145636331D01*
D52*
%TO.N,LED_8*%
X164109936Y-126047926D02*
X163009432Y-126281932D01*
D51*
X163009432Y-126281932D02*
X162143133Y-126281932D01*
X174225438Y-115291929D02*
X174572834Y-114944530D01*
X162143133Y-126281932D02*
X161909437Y-126515631D01*
D52*
X172835938Y-115832931D02*
X172372938Y-115453933D01*
D51*
X167832034Y-119683830D02*
X167832032Y-125637630D01*
D52*
X172343334Y-115172526D02*
X172188934Y-113703932D01*
X173877933Y-115722929D02*
X172835938Y-115832931D01*
D51*
X172343334Y-115172526D02*
X167832034Y-119683830D01*
X167786833Y-125682828D02*
X167786834Y-125684427D01*
D52*
X174225438Y-115291929D02*
X173877933Y-115722929D01*
X174572934Y-114860932D02*
X174225438Y-115291929D01*
X163009432Y-126281932D02*
X161908935Y-126515930D01*
X172372938Y-115453933D02*
X172343334Y-115172526D01*
D51*
X174572834Y-114944530D02*
X174572836Y-114860929D01*
X167832032Y-125637630D02*
X167786833Y-125682828D01*
D52*
%TO.N,LED_4*%
X180257936Y-95762027D02*
X179072533Y-95886633D01*
X179370028Y-99881354D02*
X179786784Y-102244893D01*
X152782934Y-113309930D02*
X151757934Y-113526931D01*
X181794271Y-96419174D02*
X179370028Y-99881354D01*
X179786784Y-102244893D02*
X177677769Y-105256878D01*
D51*
X153083431Y-112844429D02*
X153383931Y-112543926D01*
D52*
X181688622Y-95819987D02*
X181794271Y-96419174D01*
X170957283Y-110909758D02*
X169578552Y-111152867D01*
D51*
X178019832Y-95997233D02*
X179072533Y-95886633D01*
D52*
X177677769Y-105256878D02*
X174526385Y-105812551D01*
X151257935Y-113198931D02*
X150891934Y-111477934D01*
X179072533Y-95886633D02*
X178019934Y-95997229D01*
X174526385Y-105812551D02*
X173715224Y-106971010D01*
X180257936Y-95762027D02*
X181334694Y-95572165D01*
X153083431Y-112844429D02*
X152782934Y-113309930D01*
X153383935Y-112378927D02*
X153083431Y-112844429D01*
X151757934Y-113526931D02*
X151257935Y-113198931D01*
D51*
X153383931Y-112543926D02*
X153383934Y-112379334D01*
D52*
X181334694Y-95572165D02*
X181688622Y-95819987D01*
X173715224Y-106971010D02*
X170957283Y-110909758D01*
D51*
%TO.N,LED_15*%
X200159935Y-121027930D02*
X200058032Y-121027930D01*
D52*
X200159935Y-121027930D02*
X199036935Y-121086934D01*
X174149936Y-132360931D02*
X173965933Y-130610929D01*
D51*
X176002437Y-132198928D02*
X176349834Y-131851528D01*
X176349834Y-131851528D02*
X176349835Y-131767733D01*
X200052636Y-121033332D02*
X200052632Y-121033426D01*
D52*
X176002437Y-132198928D02*
X175654935Y-132629929D01*
D51*
X199036536Y-121086633D02*
X200052632Y-121033426D01*
X200058032Y-121027930D02*
X200052636Y-121033332D01*
D52*
X201282934Y-120968935D02*
X200159935Y-121027930D01*
X175654935Y-132629929D02*
X174612933Y-132739933D01*
X176349937Y-131767927D02*
X176002437Y-132198928D01*
X174612933Y-132739933D02*
X174149936Y-132360931D01*
%TO.N,LED_9*%
X191041933Y-106669930D02*
X190598931Y-106267931D01*
D51*
X179796834Y-112904134D02*
X180849537Y-112793532D01*
D52*
X192088934Y-106614930D02*
X191041933Y-106669930D01*
X190598931Y-106267931D02*
X190506934Y-104509935D01*
D51*
X192827434Y-105833930D02*
X192827436Y-105790534D01*
D52*
X182034937Y-112668929D02*
X180849537Y-112793428D01*
X180849537Y-112793428D02*
X179796934Y-112903934D01*
D51*
X192458435Y-106202937D02*
X192827434Y-105833930D01*
D52*
X192458435Y-106202937D02*
X192088934Y-106614930D01*
D51*
X180849537Y-112793428D02*
X180849537Y-112793532D01*
D52*
X192827933Y-105790930D02*
X192458435Y-106202937D01*
%TO.N,LED_3*%
X172795932Y-97954030D02*
X172142534Y-98764729D01*
X197400536Y-87125626D02*
X197256934Y-87133128D01*
X171058933Y-98925932D02*
X170595935Y-98547232D01*
X170595935Y-98547232D02*
X170411935Y-96796933D01*
X172142534Y-98764729D02*
X172100933Y-98816332D01*
X199503935Y-87015430D02*
X197400536Y-87125626D01*
X172100933Y-98816332D02*
X171058933Y-98925932D01*
D51*
X172795834Y-97954031D02*
X172142535Y-98607333D01*
X172142535Y-98607333D02*
X172142534Y-98764729D01*
X197257133Y-87133232D02*
X197264739Y-87125635D01*
X197264739Y-87125635D02*
X197400536Y-87125626D01*
%TO.N,LED_14*%
X215637134Y-124464733D02*
X215637136Y-123884131D01*
X217664536Y-126492136D02*
X215637134Y-124464733D01*
D52*
X191931936Y-123646936D02*
X191488936Y-123244930D01*
D51*
X217664834Y-127268829D02*
X217664936Y-127268929D01*
D52*
X193716936Y-122766925D02*
X193347435Y-123179431D01*
X193347435Y-123179431D02*
X192977935Y-123591930D01*
D51*
X217664537Y-127268828D02*
X217664536Y-126492136D01*
D52*
X219914934Y-127268931D02*
X217664936Y-127268929D01*
X192977935Y-123591930D02*
X191931936Y-123646936D01*
X191488936Y-123244930D02*
X191396930Y-121486930D01*
D51*
X217664537Y-127268828D02*
X217664834Y-127268829D01*
X193347435Y-123179431D02*
X193717135Y-122809732D01*
X193717135Y-122809732D02*
X193717138Y-122767229D01*
%TO.N,LED_10*%
X198146830Y-104109933D02*
X198146935Y-104109934D01*
D52*
X211483938Y-112453931D02*
X210435935Y-112453930D01*
X200393933Y-103991932D02*
X198146935Y-104109934D01*
X210014933Y-112028933D02*
X210014934Y-110268932D01*
D51*
X212264536Y-112445529D02*
X211492333Y-112445532D01*
X212264532Y-111668832D02*
X212264536Y-112445529D01*
D52*
X211492333Y-112445532D02*
X211483938Y-112453931D01*
X212264933Y-111668929D02*
X211492333Y-112445532D01*
X210435935Y-112453930D02*
X210014933Y-112028933D01*
D51*
%TO.N,LED_2*%
X207875532Y-96245528D02*
X206332236Y-96245528D01*
X218722833Y-93268830D02*
X217547430Y-92093429D01*
D52*
X218722833Y-93268830D02*
X217664934Y-93268830D01*
X189709933Y-89291135D02*
X189617938Y-87533531D01*
D51*
X212748836Y-92443532D02*
X212748833Y-92443630D01*
X209864935Y-92443635D02*
X207989335Y-94319230D01*
X217547430Y-92093429D02*
X213098936Y-92093430D01*
X213098936Y-92093430D02*
X212748836Y-92443532D01*
D52*
X191937935Y-88813826D02*
X191568436Y-89226232D01*
D51*
X212748833Y-92443630D02*
X209864935Y-92443635D01*
X206332236Y-96245528D02*
X202593035Y-92506331D01*
X192229134Y-86596231D02*
X190761134Y-86596233D01*
X191568436Y-89226232D02*
X191937733Y-88856932D01*
X207989337Y-96131728D02*
X207875532Y-96245528D01*
X191937733Y-88856932D02*
X191937734Y-88813834D01*
X202593031Y-89141528D02*
X199482936Y-86031433D01*
X217664533Y-93268830D02*
X217664934Y-93268830D01*
X202593035Y-92506331D02*
X202593031Y-89141528D01*
X192793935Y-86031433D02*
X192229134Y-86596231D01*
X199482936Y-86031433D02*
X192793935Y-86031433D01*
X207989335Y-94319230D02*
X207989337Y-96131728D01*
X190761134Y-86596233D02*
X190761134Y-86596331D01*
D52*
X190151932Y-89693529D02*
X189709933Y-89291135D01*
X219914933Y-93268827D02*
X218722833Y-93268830D01*
X191198931Y-89638628D02*
X190151932Y-89693529D01*
X191568436Y-89226232D02*
X191198931Y-89638628D01*
%TO.N,LED_13*%
X210014935Y-129028933D02*
X210014932Y-127268933D01*
X210435935Y-129453931D02*
X210014935Y-129028933D01*
X211483934Y-129453931D02*
X210435935Y-129453931D01*
D51*
X212264534Y-128668835D02*
X212264531Y-129445529D01*
D52*
X237914934Y-129268933D02*
X235664932Y-129268929D01*
D51*
X235664530Y-129268833D02*
X235664835Y-129268828D01*
D52*
X211492334Y-129445534D02*
X211483934Y-129453931D01*
D51*
X235664835Y-129268828D02*
X235664932Y-129268929D01*
X212264531Y-129445529D02*
X211492334Y-129445534D01*
D52*
X212264935Y-128668930D02*
X211492334Y-129445534D01*
%TO.N,LED_11*%
X230264933Y-113668932D02*
X229492334Y-114445529D01*
X228014934Y-114028934D02*
X228014934Y-112268931D01*
D51*
X217664839Y-110268832D02*
X217664933Y-110268933D01*
D52*
X219914932Y-110268933D02*
X217664933Y-110268933D01*
X229483934Y-114453930D02*
X228435928Y-114453930D01*
X228435928Y-114453930D02*
X228014934Y-114028934D01*
D51*
X217664534Y-110268829D02*
X217664839Y-110268832D01*
D52*
X229492334Y-114445529D02*
X229483934Y-114453930D01*
D51*
X230264535Y-113668834D02*
X230264537Y-114445529D01*
X230264537Y-114445529D02*
X229492334Y-114445529D01*
%TO.N,LED_1*%
X235664536Y-95268832D02*
X235664931Y-95268831D01*
X211874434Y-95061333D02*
X212264534Y-94671234D01*
X212264534Y-94671234D02*
X212264531Y-94668831D01*
D52*
X210014935Y-95028833D02*
X210014934Y-93268828D01*
X210435935Y-95453835D02*
X210014935Y-95028833D01*
X211874434Y-95061333D02*
X211483933Y-95453835D01*
X212264936Y-94668826D02*
X211874434Y-95061333D01*
X211483933Y-95453835D02*
X210435935Y-95453835D01*
X237914932Y-95268830D02*
X235664931Y-95268831D01*
%TO.N,LED_12*%
X228014935Y-131028932D02*
X228014937Y-129268929D01*
D51*
X226002934Y-127845133D02*
X223098834Y-124941035D01*
X226187533Y-113119230D02*
X228214332Y-111092433D01*
X235664837Y-112268829D02*
X235664932Y-112268930D01*
D52*
X229483932Y-131453928D02*
X228435936Y-131453928D01*
D51*
X230264536Y-130668831D02*
X230264532Y-131445531D01*
D52*
X229492335Y-131445529D02*
X229483932Y-131453928D01*
X230264938Y-130668928D02*
X229492335Y-131445529D01*
D51*
X224947235Y-116439030D02*
X225184932Y-116439033D01*
X235664535Y-112268832D02*
X235664530Y-111492129D01*
X228214332Y-111092433D02*
X235264833Y-111092427D01*
D52*
X228435936Y-131453928D02*
X228014935Y-131028932D01*
D51*
X223098834Y-124941035D02*
X223098833Y-118287433D01*
X230264532Y-131445531D02*
X229492335Y-131445529D01*
X235664535Y-112268832D02*
X235664837Y-112268829D01*
D52*
X237914933Y-112268936D02*
X235664932Y-112268930D01*
D51*
X235264833Y-111092427D02*
X235664530Y-111492129D01*
X226187535Y-115436430D02*
X226187533Y-113119230D01*
X225184932Y-116439033D02*
X226187535Y-115436430D01*
X223098833Y-118287433D02*
X224947235Y-116439030D01*
D52*
%TO.N,LED_19*%
X216424932Y-152357929D02*
X214183931Y-152553932D01*
X232622931Y-153948930D02*
X231867538Y-154586434D01*
D51*
X214183531Y-152554030D02*
X214183834Y-152554026D01*
X232623434Y-153948729D02*
X231985733Y-154586431D01*
D52*
X230732932Y-154570931D02*
X230350931Y-154110928D01*
X231867538Y-154586434D02*
X231776933Y-154662931D01*
D51*
X214183834Y-152554026D02*
X214183931Y-152553932D01*
X231985733Y-154586431D02*
X231867538Y-154586434D01*
D52*
X231776933Y-154662931D02*
X230732932Y-154570931D01*
X230350931Y-154110928D02*
X230503934Y-152357928D01*
%TO.N,LED_20*%
X239165638Y-153115934D02*
X238124936Y-153024929D01*
X255646934Y-159035929D02*
X254650934Y-158711934D01*
X254381931Y-158176931D02*
X254925933Y-156503933D01*
D51*
X256178230Y-158984733D02*
X255746732Y-158984729D01*
D52*
X240365937Y-153220932D02*
X239165638Y-153115934D01*
D51*
X256632734Y-158530231D02*
X256178230Y-158984733D01*
X238124833Y-153024735D02*
X239165536Y-153115831D01*
X239165638Y-153115934D02*
X239165536Y-153115831D01*
D52*
X255746732Y-158984729D02*
X255646934Y-159035929D01*
X256632935Y-158529929D02*
X255746732Y-158984729D01*
X254650934Y-158711934D02*
X254381931Y-158176931D01*
%TO.N,LED_21*%
X263030732Y-159137429D02*
X262200936Y-158867929D01*
D51*
X263030732Y-159137429D02*
X262471134Y-159137429D01*
D52*
X264340932Y-159562932D02*
X263030732Y-159137429D01*
D51*
X262471134Y-159137429D02*
X262201134Y-158867430D01*
%TD*%
D53*
X149271035Y-142187534D03*
X148143723Y-161185430D03*
X138365823Y-128416290D03*
X247480030Y-135411233D03*
X150157258Y-153328127D03*
X222462133Y-106303632D03*
X135210473Y-132920392D03*
D54*
X152053935Y-112661930D03*
X141515933Y-149661935D03*
X134446934Y-116404930D03*
X192358936Y-122838931D03*
X190579936Y-88885034D03*
D53*
X192745034Y-96282128D03*
D54*
X210904937Y-128668932D03*
X228904935Y-113668927D03*
D53*
X169908734Y-98512531D03*
D54*
X137981936Y-133032934D03*
X159122934Y-145918929D03*
X171442931Y-98096231D03*
X191468933Y-105861932D03*
D53*
X139776937Y-150171431D03*
D54*
X228904934Y-130668929D03*
X210904935Y-94668830D03*
D53*
X134749765Y-129949239D03*
D54*
X207570937Y-154537932D03*
X210904932Y-111668932D03*
X173219931Y-115002929D03*
X255338935Y-158109932D03*
D53*
X224928634Y-115862329D03*
D54*
X155587937Y-129290935D03*
X228904936Y-96668833D03*
X231268936Y-153829931D03*
X174996934Y-131909933D03*
D53*
X141648187Y-139947111D03*
X141967633Y-116594064D03*
X168679236Y-141146429D03*
X164935434Y-123760633D03*
X159778238Y-124803833D03*
X164626536Y-140220130D03*
X160152729Y-156042629D03*
X166832636Y-140691531D03*
X162391636Y-152729632D03*
X157743934Y-135152333D03*
X153075238Y-123421031D03*
X181488333Y-143437029D03*
X183705938Y-126313830D03*
X177152837Y-109850331D03*
X201714438Y-102544830D03*
X180778735Y-122002927D03*
X190510637Y-102556933D03*
X198777436Y-102556929D03*
X186601035Y-136098230D03*
X181473833Y-126062832D03*
X172927860Y-103657394D03*
X193182087Y-126350182D03*
X194016437Y-100669031D03*
X200291435Y-134642033D03*
X194894930Y-117640230D03*
X206074532Y-108290933D03*
X211470831Y-166293533D03*
X198982084Y-135750182D03*
X191982086Y-110950183D03*
X188782085Y-94550181D03*
X221876484Y-142255785D03*
X217241535Y-136805830D03*
X221061332Y-106670937D03*
X254347339Y-122742826D03*
X212582083Y-119350183D03*
X216738135Y-124685130D03*
X231261240Y-165738834D03*
X211225235Y-106428836D03*
X217982832Y-134331230D03*
X211382084Y-116550184D03*
X214582082Y-102350182D03*
X245947340Y-150142828D03*
X238921434Y-108732331D03*
X245106132Y-119918829D03*
X258140737Y-166791531D03*
X229982084Y-127550184D03*
X244947341Y-147942826D03*
X232182086Y-142703828D03*
X231067733Y-108437927D03*
X235214532Y-121211430D03*
X224582084Y-142150182D03*
X230982086Y-120750183D03*
X232982085Y-104150180D03*
X220246232Y-159112728D03*
X228547340Y-164142829D03*
X255003031Y-171259309D03*
X186666931Y-130470534D03*
X231248635Y-125513430D03*
X194182085Y-130750182D03*
X172263533Y-144946360D03*
X224949234Y-129518831D03*
X208365534Y-127150431D03*
X154240532Y-148899534D03*
X222946234Y-113485732D03*
X205366731Y-115171334D03*
X207942134Y-109108533D03*
X152748136Y-129346427D03*
X171097235Y-127037629D03*
X167427234Y-126567929D03*
X150711435Y-132271030D03*
X185203534Y-113570729D03*
X182263731Y-97952734D03*
X145806335Y-110069629D03*
X224710133Y-94877132D03*
X163621432Y-109929030D03*
X148788434Y-115905831D03*
X241547340Y-154542827D03*
X206947342Y-156342828D03*
X261265732Y-154218233D03*
X222953432Y-153614732D03*
X266607435Y-161495933D03*
X251737136Y-156616233D03*
X142782198Y-117260850D03*
D54*
X239357934Y-154537934D03*
X237024936Y-96668830D03*
X163530933Y-127601931D03*
X149458937Y-147972933D03*
X145923934Y-131344930D03*
X219024938Y-128668929D03*
X183072934Y-131060929D03*
X237024936Y-130668934D03*
X237024930Y-113668934D03*
X181295935Y-114153930D03*
D53*
X146046360Y-133343531D03*
D54*
X198688938Y-88460031D03*
D53*
X137230141Y-135298994D03*
D54*
X263061936Y-160618929D03*
X215660934Y-153829929D03*
X159995936Y-110973931D03*
D53*
X200063736Y-119281132D03*
D54*
X200467935Y-122413926D03*
D53*
X263964535Y-126621735D03*
D54*
X142389934Y-114715927D03*
X179518937Y-97247434D03*
D53*
X181056534Y-96257430D03*
D54*
X219024936Y-94668830D03*
X167064936Y-144230930D03*
X219024935Y-111668928D03*
X199577934Y-105436929D03*
X228014936Y-95268828D03*
D53*
X260640135Y-125780330D03*
X265947342Y-124942826D03*
X262947337Y-131542828D03*
D54*
X150037934Y-146418933D03*
X206562933Y-153220934D03*
X140353936Y-148476929D03*
D53*
X159852936Y-141720530D03*
D54*
X167644936Y-142675934D03*
X146503935Y-129789931D03*
X154426932Y-128105934D03*
D53*
X144848735Y-111401266D03*
X142021816Y-111493557D03*
D54*
X142968932Y-113161935D03*
X136819937Y-131848929D03*
D53*
X162615635Y-109500634D03*
D54*
X133284937Y-115219931D03*
X160575940Y-109418931D03*
D53*
X172717847Y-145829962D03*
X188136611Y-132801481D03*
D54*
X157960936Y-144734931D03*
X183811937Y-129575929D03*
X164109936Y-126047926D03*
D53*
X167786834Y-125684427D03*
D54*
X172188934Y-113703932D03*
X180257936Y-95762027D03*
D53*
X169578552Y-111152867D03*
D54*
X150891934Y-111477934D03*
X173965933Y-130610929D03*
X201282934Y-120968935D03*
X182034937Y-112668929D03*
X190506934Y-104509935D03*
X199503935Y-87015430D03*
X170411935Y-96796933D03*
D53*
X215637136Y-123884131D03*
D54*
X191396930Y-121486930D03*
X219914934Y-127268931D03*
X200393933Y-103991932D03*
X210014934Y-110268932D03*
X189617938Y-87533531D03*
D53*
X190761134Y-86596331D03*
D54*
X219914933Y-93268827D03*
X210014932Y-127268933D03*
X237914934Y-129268933D03*
X219914932Y-110268933D03*
X228014934Y-112268931D03*
X210014934Y-93268828D03*
X237914932Y-95268830D03*
X228014937Y-129268929D03*
D53*
X226002934Y-127845133D03*
D54*
X237914933Y-112268936D03*
X230503934Y-152357928D03*
X216424932Y-152357929D03*
X240365937Y-153220932D03*
X254925933Y-156503933D03*
X264340932Y-159562932D03*
X271584532Y-95468827D03*
X271584534Y-98008829D03*
X271584534Y-100548829D03*
X271584534Y-103088829D03*
X271584534Y-105628829D03*
X271584534Y-108168829D03*
X271584534Y-110708829D03*
X271584534Y-113248829D03*
X271584534Y-115788829D03*
X271584534Y-118328829D03*
X271584534Y-120868830D03*
X271584534Y-123408829D03*
X256344534Y-123408829D03*
X256344536Y-120868831D03*
X256344534Y-118328829D03*
X256344534Y-115788829D03*
X256344534Y-113248829D03*
X256344534Y-110708829D03*
X256344534Y-108168829D03*
X256344534Y-105628829D03*
X256344534Y-103088829D03*
X256344534Y-100548829D03*
X256344534Y-98008829D03*
X256344534Y-95468828D03*
X267364532Y-95468829D03*
X267364534Y-98008829D03*
X267364534Y-100548829D03*
X267364533Y-103088829D03*
X267364534Y-105628829D03*
X267364535Y-108168829D03*
X267364534Y-110708829D03*
X267364533Y-113248829D03*
X267364534Y-115788829D03*
X267364533Y-118328829D03*
X267364533Y-120868829D03*
X267364532Y-123408829D03*
X260564536Y-123408829D03*
X260564536Y-120868829D03*
X260564534Y-118328829D03*
X260564534Y-115788829D03*
X260564535Y-113248829D03*
X260564534Y-110708829D03*
X260564533Y-108168829D03*
X260564534Y-105628829D03*
X260564535Y-103088829D03*
X260564534Y-100548829D03*
X260564535Y-98008829D03*
X260564535Y-95468829D03*
X271364535Y-142668829D03*
X264364535Y-142668829D03*
D55*
X269764535Y-140368829D03*
X269764535Y-144968829D03*
X266764535Y-140368828D03*
X266764535Y-144968829D03*
D56*
X262214535Y-140368829D03*
X262214535Y-144968829D03*
D54*
X248964532Y-95668829D03*
X260154533Y-129368832D03*
X262694533Y-129368832D03*
X265234533Y-129368832D03*
X267774533Y-129368832D03*
X153355035Y-142544434D03*
X149820536Y-125915928D03*
X271964536Y-130418830D03*
X271964536Y-136918830D03*
X269923234Y-155488333D03*
X197195930Y-161468530D03*
X144629747Y-118329416D03*
X144920342Y-122101425D03*
X139249935Y-119472930D03*
X140487009Y-125292908D03*
X135138866Y-124180542D03*
X133870123Y-120616444D03*
X183146004Y-117981823D03*
X183040725Y-121763545D03*
X178298078Y-124474132D03*
X177676134Y-118556730D03*
X173095504Y-122808833D03*
X172206264Y-119131637D03*
X184923007Y-134888724D03*
X184817728Y-138670446D03*
X180075081Y-141381033D03*
X179453137Y-135463631D03*
X174872507Y-139715734D03*
X173983267Y-136038538D03*
X202115295Y-126332584D03*
X201812241Y-130103613D03*
X196934232Y-132562278D03*
X196622833Y-126620432D03*
X191825945Y-130626973D03*
X191130371Y-126908280D03*
X263195345Y-164868423D03*
X261561003Y-168280377D03*
X256125883Y-168827616D03*
X257964534Y-163168830D03*
X252050440Y-165190207D03*
X252733723Y-161469237D03*
X200335894Y-92379184D03*
X200032840Y-96150213D03*
X195154831Y-98608878D03*
X194843432Y-92667032D03*
X190046544Y-96673573D03*
X189350970Y-92954880D03*
X169305446Y-147844019D03*
X169596041Y-151616028D03*
X163925634Y-148987533D03*
X165162708Y-154807511D03*
X159814565Y-153695145D03*
X158545822Y-150131047D03*
X220464538Y-98668831D03*
X219964541Y-102418831D03*
X214964538Y-104618833D03*
X214964538Y-98668831D03*
X209964535Y-102418831D03*
X209464538Y-98668831D03*
X181368999Y-101075024D03*
X181263720Y-104856746D03*
X176521073Y-107567333D03*
X175899129Y-101649931D03*
X171318499Y-105902034D03*
X170429259Y-102224838D03*
X238464532Y-134668832D03*
X237964535Y-138418832D03*
X232964532Y-140618834D03*
X232964532Y-134668832D03*
X227964529Y-138418832D03*
X227464532Y-134668832D03*
X220464535Y-132668826D03*
X219964538Y-136418826D03*
X214964535Y-138618828D03*
X214964535Y-132668826D03*
X209964532Y-136418826D03*
X209464535Y-132668826D03*
X220464531Y-115668827D03*
X219964534Y-119418827D03*
X214964531Y-121618829D03*
X214964531Y-115668827D03*
X209964528Y-119418827D03*
X209464531Y-115668827D03*
X151698746Y-151586416D03*
X151989341Y-155358425D03*
X146318934Y-152729930D03*
X147556008Y-158549908D03*
X142207865Y-157437542D03*
X140939122Y-153873444D03*
X238464536Y-100668831D03*
X237964539Y-104418831D03*
X232964536Y-106618833D03*
X232964536Y-100668831D03*
X227964533Y-104418831D03*
X227464536Y-100668831D03*
X148164245Y-134957918D03*
X148454840Y-138729927D03*
X142784433Y-136101432D03*
X144021507Y-141921410D03*
X138673364Y-140809044D03*
X137404621Y-137244946D03*
X240443603Y-158648188D03*
X239618672Y-162340340D03*
X234445955Y-164096191D03*
X234964532Y-158168831D03*
X229656721Y-161468782D03*
X229485461Y-157689474D03*
X217443604Y-157689474D03*
X217272344Y-161468782D03*
X212483110Y-164096190D03*
X211964533Y-158168831D03*
X207310391Y-162340340D03*
X206485462Y-158648188D03*
X165770947Y-131215519D03*
X166061542Y-134987528D03*
X160391135Y-132359033D03*
X161628209Y-138179011D03*
X156280066Y-137066645D03*
X155011323Y-133502547D03*
X238464535Y-117668829D03*
X237964538Y-121418829D03*
X232964535Y-123618831D03*
X232964535Y-117668829D03*
X227964532Y-121418829D03*
X227464535Y-117668829D03*
X201225598Y-109355885D03*
X200922544Y-113126914D03*
X196044535Y-115585579D03*
X195733136Y-109643733D03*
X190936248Y-113650274D03*
X190240674Y-109931581D03*
X162236448Y-114587015D03*
X162527043Y-118359024D03*
X156856636Y-115730529D03*
X158093710Y-121550507D03*
X152745567Y-120438141D03*
X151476824Y-116874043D03*
M02*
