M48
; DRILL file {KiCad 8.0.5} date 2024-10-14T20:57:04+0100
; FORMAT={-:-/ absolute / metric / decimal}
; #@! TF.CreationDate,2024-10-14T20:57:04+01:00
; #@! TF.GenerationSoftware,Kicad,Pcbnew,8.0.5
; #@! TF.FileFunction,NonPlated,1,2,NPTH
FMAT,2
METRIC
; #@! TA.AperFunction,NonPlated,NPTH,ComponentDrill
T1C1.500
; #@! TA.AperFunction,NonPlated,NPTH,ComponentDrill
T2C1.900
; #@! TA.AperFunction,NonPlated,NPTH,ComponentDrill
T3C3.000
; #@! TA.AperFunction,NonPlated,NPTH,ComponentDrill
T4C4.300
; #@! TA.AperFunction,NonPlated,NPTH,ComponentDrill
T5C5.000
%
G90
G05
T1
X264.365Y-142.669
X271.365Y-142.669
T2
X133.87Y-120.616
X137.405Y-137.245
X140.939Y-153.873
X144.63Y-118.329
X148.164Y-134.958
X151.477Y-116.874
X151.699Y-151.586
X155.011Y-133.503
X158.546Y-150.131
X162.236Y-114.587
X165.771Y-131.216
X169.305Y-147.844
X170.429Y-102.225
X172.206Y-119.132
X173.983Y-136.039
X181.369Y-101.075
X183.146Y-117.982
X184.923Y-134.889
X189.351Y-92.955
X190.241Y-109.932
X191.13Y-126.908
X200.336Y-92.379
X201.226Y-109.356
X202.115Y-126.333
X206.485Y-158.648
X209.465Y-115.669
X209.465Y-132.669
X209.465Y-98.669
X217.444Y-157.689
X220.465Y-115.669
X220.465Y-132.669
X220.465Y-98.669
X227.465Y-134.669
X227.465Y-117.669
X227.465Y-100.669
X229.485Y-157.689
X238.465Y-134.669
X238.465Y-117.669
X238.465Y-100.669
X240.444Y-158.648
X252.734Y-161.469
X263.195Y-164.868
T3
X135.139Y-124.181
X138.673Y-140.809
X140.487Y-125.293
X142.208Y-157.438
X144.022Y-141.921
X144.92Y-122.101
X147.556Y-158.55
X148.455Y-138.73
X151.989Y-155.358
X152.746Y-120.438
X156.28Y-137.067
X158.094Y-121.551
X159.815Y-153.695
X161.628Y-138.179
X162.527Y-118.359
X165.163Y-154.808
X166.062Y-134.988
X169.596Y-151.616
X171.318Y-105.902
X173.096Y-122.809
X174.873Y-139.716
X176.521Y-107.567
X178.298Y-124.474
X180.075Y-141.381
X181.264Y-104.857
X183.041Y-121.764
X184.818Y-138.67
X190.047Y-96.674
X190.936Y-113.65
X191.826Y-130.627
X195.155Y-98.609
X196.045Y-115.586
X196.934Y-132.562
X200.033Y-96.15
X200.923Y-113.127
X201.812Y-130.104
X207.31Y-162.34
X209.965Y-119.419
X209.965Y-136.419
X209.965Y-102.419
X212.483Y-164.096
X214.965Y-121.619
X214.965Y-138.619
X214.965Y-104.619
X217.272Y-161.469
X219.965Y-119.419
X219.965Y-136.419
X219.965Y-102.419
X227.965Y-138.419
X227.965Y-121.419
X227.965Y-104.419
X229.657Y-161.469
X232.965Y-140.619
X232.965Y-123.619
X232.965Y-106.619
X234.446Y-164.096
X237.965Y-138.419
X237.965Y-121.419
X237.965Y-104.419
X239.619Y-162.34
X252.05Y-165.19
X256.126Y-168.828
X261.561Y-168.28
T4
X149.821Y-125.916
X153.355Y-142.544
X197.196Y-161.469
X248.965Y-95.669
X269.923Y-155.488
T5
X139.25Y-119.473
X142.784Y-136.101
X146.319Y-152.73
X156.857Y-115.731
X160.391Y-132.359
X163.926Y-148.988
X175.899Y-101.65
X177.676Y-118.557
X179.453Y-135.464
X194.843Y-92.667
X195.733Y-109.644
X196.623Y-126.62
X211.965Y-158.169
X214.965Y-115.669
X214.965Y-132.669
X214.965Y-98.669
X232.965Y-134.669
X232.965Y-117.669
X232.965Y-100.669
X234.965Y-158.169
X257.965Y-163.169
M30
