M48
; DRILL file {KiCad 8.0.6} date 2024-12-16T11:38:41+0000
; FORMAT={-:-/ absolute / metric / decimal}
; #@! TF.CreationDate,2024-12-16T11:38:41+00:00
; #@! TF.GenerationSoftware,Kicad,Pcbnew,8.0.6
; #@! TF.FileFunction,MixedPlating,1,2
FMAT,2
METRIC
; #@! TA.AperFunction,Plated,PTH,ViaDrill
T1C0.300
; #@! TA.AperFunction,Plated,PTH,ComponentDrill
T2C0.400
; #@! TA.AperFunction,Plated,PTH,ComponentDrill
T3C0.750
; #@! TA.AperFunction,Plated,PTH,ComponentDrill
T4C1.000
; #@! TA.AperFunction,NonPlated,NPTH,ComponentDrill
T5C0.900
; #@! TA.AperFunction,NonPlated,NPTH,ComponentDrill
T6C1.900
; #@! TA.AperFunction,NonPlated,NPTH,ComponentDrill
T7C3.000
; #@! TA.AperFunction,NonPlated,NPTH,ComponentDrill
T8C4.300
; #@! TA.AperFunction,NonPlated,NPTH,ComponentDrill
T9C5.000
%
G90
G05
T1
X143.57Y-145.371
X143.57Y-119.751
X143.737Y-120.533
X147.105Y-136.379
X147.271Y-137.162
X148.0Y-128.0
X148.817Y-112.234
X150.639Y-153.008
X150.806Y-153.79
X154.148Y-127.573
X158.148Y-146.252
X161.177Y-116.008
X161.343Y-116.791
X164.711Y-132.637
X164.878Y-133.419
X167.92Y-107.201
X168.246Y-149.265
X168.412Y-150.048
X171.108Y-123.836
X172.876Y-142.415
X173.236Y-112.188
X179.902Y-101.978
X179.985Y-102.774
X181.679Y-118.885
X181.762Y-119.681
X182.5Y-135.892
X183.539Y-136.587
X188.421Y-95.104
X190.348Y-127.687
X190.47Y-86.216
X192.436Y-108.861
X193.374Y-103.166
X196.455Y-104.545
X196.5Y-101.5
X198.685Y-93.008
X198.727Y-93.807
X199.575Y-109.985
X199.617Y-110.784
X200.465Y-126.961
X200.507Y-127.76
X201.66Y-119.34
X205.964Y-103.166
X208.415Y-119.34
X208.835Y-151.148
X210.746Y-86.233
X215.914Y-158.502
X215.983Y-159.299
X218.646Y-99.014
X218.646Y-99.814
X218.646Y-116.014
X218.646Y-116.814
X218.646Y-133.014
X218.646Y-133.814
X221.921Y-124.673
X228.746Y-92.147
X228.746Y-127.516
X229.838Y-151.285
X229.85Y-111.789
X236.646Y-101.014
X236.646Y-101.814
X236.646Y-118.014
X236.646Y-118.814
X236.646Y-135.014
X236.646Y-135.814
X238.308Y-159.299
X238.378Y-158.502
X247.419Y-114.472
X247.419Y-127.63
X249.445Y-94.789
X249.445Y-109.249
X250.292Y-166.292
X252.671Y-101.665
X252.671Y-139.92
X254.047Y-153.088
X255.631Y-119.409
X257.5Y-89.5
X259.379Y-124.124
X260.448Y-164.124
X260.695Y-163.363
X264.349Y-128.747
X265.74Y-128.309
X265.962Y-135.075
X266.227Y-127.213
X266.6Y-132.975
X273.145Y-142.828
X273.159Y-139.964
X274.551Y-99.016
X276.5Y-122.5
T2
X264.246Y-92.739
X264.246Y-95.279
X264.246Y-97.819
X264.246Y-100.359
X264.246Y-102.899
X264.246Y-105.439
X264.246Y-107.979
X264.246Y-110.519
X264.246Y-113.059
X264.246Y-115.599
X264.246Y-118.139
X264.246Y-120.679
X271.046Y-92.739
X271.046Y-95.279
X271.046Y-97.819
X271.046Y-100.359
X271.046Y-102.899
X271.046Y-105.439
X271.046Y-107.979
X271.046Y-110.519
X271.046Y-113.059
X271.046Y-115.599
X271.046Y-118.139
X271.046Y-120.679
T3
X263.146Y-131.939
X263.146Y-133.939
T4
X260.026Y-92.739
X260.026Y-95.279
X260.026Y-97.819
X260.026Y-100.359
X260.026Y-102.899
X260.026Y-105.439
X260.026Y-107.979
X260.026Y-110.519
X260.026Y-113.059
X260.026Y-115.599
X260.026Y-118.139
X260.026Y-120.679
X262.566Y-124.639
X265.106Y-124.639
X267.646Y-124.639
X270.186Y-124.639
X272.726Y-124.639
X275.266Y-92.739
X275.266Y-95.279
X275.266Y-97.819
X275.266Y-100.359
X275.266Y-102.899
X275.266Y-105.439
X275.266Y-107.979
X275.266Y-110.519
X275.266Y-113.059
X275.266Y-115.599
X275.266Y-118.139
X275.266Y-120.679
X276.146Y-127.189
X276.146Y-133.689
T5
X276.171Y-139.439
X276.171Y-142.439
T6
X137.551Y-117.887
X141.086Y-134.515
X144.62Y-151.144
X148.311Y-115.599
X151.845Y-132.228
X155.158Y-114.144
X155.38Y-148.856
X158.692Y-130.773
X162.227Y-147.401
X165.918Y-111.857
X169.452Y-128.486
X172.987Y-145.114
X174.11Y-99.495
X175.887Y-116.402
X177.664Y-133.309
X185.05Y-98.345
X186.827Y-115.252
X188.604Y-132.159
X193.032Y-90.225
X193.922Y-107.202
X194.811Y-124.178
X204.017Y-89.649
X204.907Y-106.626
X205.796Y-123.603
X210.167Y-155.918
X213.146Y-95.939
X213.146Y-112.939
X213.146Y-129.939
X221.125Y-154.96
X224.146Y-95.939
X224.146Y-112.939
X224.146Y-129.939
X231.146Y-97.939
X231.146Y-114.939
X231.146Y-131.939
X233.167Y-154.96
X242.146Y-97.939
X242.146Y-114.939
X242.146Y-131.939
X244.125Y-155.918
X256.415Y-158.739
X266.876Y-162.138
T7
X138.82Y-121.451
X142.354Y-138.079
X144.168Y-122.563
X145.889Y-154.708
X147.703Y-139.191
X148.601Y-119.371
X151.237Y-155.82
X152.136Y-136.0
X155.67Y-152.628
X156.427Y-117.708
X159.961Y-134.337
X161.775Y-118.821
X163.496Y-150.965
X165.309Y-135.449
X166.208Y-115.629
X168.844Y-152.078
X169.743Y-132.258
X173.277Y-148.886
X175.0Y-103.172
X176.777Y-120.079
X178.554Y-136.986
X180.202Y-104.837
X181.979Y-121.744
X183.756Y-138.651
X184.945Y-102.127
X186.722Y-119.034
X188.499Y-135.941
X193.728Y-93.944
X194.617Y-110.92
X195.507Y-127.897
X198.836Y-95.879
X199.726Y-112.856
X200.615Y-129.832
X203.714Y-93.42
X204.604Y-110.397
X205.493Y-127.374
X210.991Y-159.61
X213.646Y-99.689
X213.646Y-116.689
X213.646Y-133.689
X216.164Y-161.366
X218.646Y-101.889
X218.646Y-118.889
X218.646Y-135.889
X220.953Y-158.739
X223.646Y-99.689
X223.646Y-116.689
X223.646Y-133.689
X231.646Y-101.689
X231.646Y-118.689
X231.646Y-135.689
X233.338Y-158.739
X236.646Y-103.889
X236.646Y-120.889
X236.646Y-137.889
X238.127Y-161.366
X241.646Y-101.689
X241.646Y-118.689
X241.646Y-135.689
X243.3Y-159.61
X255.732Y-162.46
X259.807Y-166.098
X265.242Y-165.55
T8
X153.502Y-123.186
X157.036Y-139.814
X200.877Y-158.739
X252.646Y-92.939
X252.646Y-142.939
X273.604Y-152.758
T9
X142.931Y-116.743
X146.465Y-133.371
X150.0Y-150.0
X160.538Y-113.001
X164.072Y-129.629
X167.607Y-146.258
X179.58Y-98.92
X181.357Y-115.827
X183.134Y-132.734
X198.524Y-89.937
X199.414Y-106.914
X200.304Y-123.89
X215.646Y-155.439
X218.646Y-95.939
X218.646Y-112.939
X218.646Y-129.939
X236.646Y-97.939
X236.646Y-114.939
X236.646Y-131.939
X238.646Y-155.439
X261.646Y-160.439
M30
