%TF.GenerationSoftware,KiCad,Pcbnew,8.0.6*%
%TF.CreationDate,2024-12-16T11:38:41+00:00*%
%TF.ProjectId,scorn_choc_wireless,73636f72-6e5f-4636-986f-635f77697265,v1.0.0*%
%TF.SameCoordinates,Original*%
%TF.FileFunction,Paste,Bot*%
%TF.FilePolarity,Positive*%
%FSLAX46Y46*%
G04 Gerber Fmt 4.6, Leading zero omitted, Abs format (unit mm)*
G04 Created by KiCad (PCBNEW 8.0.6) date 2024-12-16 11:38:41*
%MOMM*%
%LPD*%
G01*
G04 APERTURE LIST*
G04 Aperture macros list*
%AMRotRect*
0 Rectangle, with rotation*
0 The origin of the aperture is its center*
0 $1 length*
0 $2 width*
0 $3 Rotation angle, in degrees counterclockwise*
0 Add horizontal line*
21,1,$1,$2,0,0,$3*%
%AMOutline5P*
0 Free polygon, 5 corners , with rotation*
0 The origin of the aperture is its center*
0 number of corners: always 5*
0 $1 to $10 corner X, Y*
0 $11 Rotation angle, in degrees counterclockwise*
0 create outline with 5 corners*
4,1,5,$1,$2,$3,$4,$5,$6,$7,$8,$9,$10,$1,$2,$11*%
%AMOutline6P*
0 Free polygon, 6 corners , with rotation*
0 The origin of the aperture is its center*
0 number of corners: always 6*
0 $1 to $12 corner X, Y*
0 $13 Rotation angle, in degrees counterclockwise*
0 create outline with 6 corners*
4,1,6,$1,$2,$3,$4,$5,$6,$7,$8,$9,$10,$11,$12,$1,$2,$13*%
%AMOutline7P*
0 Free polygon, 7 corners , with rotation*
0 The origin of the aperture is its center*
0 number of corners: always 7*
0 $1 to $14 corner X, Y*
0 $15 Rotation angle, in degrees counterclockwise*
0 create outline with 7 corners*
4,1,7,$1,$2,$3,$4,$5,$6,$7,$8,$9,$10,$11,$12,$13,$14,$1,$2,$15*%
%AMOutline8P*
0 Free polygon, 8 corners , with rotation*
0 The origin of the aperture is its center*
0 number of corners: always 8*
0 $1 to $16 corner X, Y*
0 $17 Rotation angle, in degrees counterclockwise*
0 create outline with 8 corners*
4,1,8,$1,$2,$3,$4,$5,$6,$7,$8,$9,$10,$11,$12,$13,$14,$15,$16,$1,$2,$17*%
%AMFreePoly0*
4,1,6,0.500000,-0.625000,-0.650000,-0.625000,-0.150000,0.000000,-0.650000,0.625000,0.500000,0.625000,0.500000,-0.625000,0.500000,-0.625000,$1*%
%AMFreePoly1*
4,1,6,0.250000,0.000000,-0.250000,-0.625000,-0.500000,-0.625000,-0.500000,0.625000,-0.250000,0.625000,0.250000,0.000000,0.250000,0.000000,$1*%
%AMFreePoly2*
4,1,6,0.600000,-0.200000,0.600000,-0.400000,-0.600000,-0.400000,-0.600000,-0.200000,0.000000,0.400000,0.600000,-0.200000,0.600000,-0.200000,$1*%
%AMFreePoly3*
4,1,6,0.600000,-1.000000,0.000000,-0.400000,-0.600000,-1.000000,-0.600000,0.250000,0.600000,0.250000,0.600000,-1.000000,0.600000,-1.000000,$1*%
G04 Aperture macros list end*
%ADD10FreePoly0,180.000000*%
%ADD11FreePoly0,0.000000*%
%ADD12FreePoly1,0.000000*%
%ADD13FreePoly1,180.000000*%
%ADD14FreePoly2,270.000000*%
%ADD15FreePoly3,270.000000*%
%ADD16R,1.200000X0.600000*%
%ADD17R,1.500000X0.700000*%
%ADD18R,0.800000X1.000000*%
%ADD19R,1.200000X0.900000*%
%ADD20RotRect,2.600000X2.600000X192.000000*%
%ADD21Outline5P,-1.300000X1.300000X1.300000X1.300000X1.300000X-1.300000X-0.117000X-1.300000X-1.300000X-0.117000X192.000000*%
%ADD22RotRect,0.900000X1.200000X282.000000*%
%ADD23RotRect,0.900000X1.200000X273.000000*%
%ADD24RotRect,2.600000X2.600000X185.000000*%
%ADD25Outline5P,-1.300000X1.300000X1.300000X1.300000X1.300000X-1.300000X-0.117000X-1.300000X-1.300000X-0.117000X185.000000*%
%ADD26R,2.600000X2.600000*%
%ADD27Outline5P,-1.300000X1.300000X1.300000X1.300000X1.300000X-1.300000X-0.117000X-1.300000X-1.300000X-0.117000X180.000000*%
%ADD28RotRect,2.600000X2.600000X162.000000*%
%ADD29Outline5P,-1.300000X1.300000X1.300000X1.300000X1.300000X-1.300000X-0.117000X-1.300000X-1.300000X-0.117000X162.000000*%
%ADD30RotRect,0.900000X1.200000X265.000000*%
%ADD31RotRect,2.600000X2.600000X183.000000*%
%ADD32Outline5P,-1.300000X1.300000X1.300000X1.300000X1.300000X-1.300000X-0.117000X-1.300000X-1.300000X-0.117000X183.000000*%
%ADD33RotRect,0.900000X1.200000X275.000000*%
%ADD34RotRect,0.900000X1.200000X276.000000*%
%ADD35RotRect,2.600000X2.600000X175.000000*%
%ADD36Outline5P,-1.300000X1.300000X1.300000X1.300000X1.300000X-1.300000X-0.117000X-1.300000X-1.300000X-0.117000X175.000000*%
%ADD37RotRect,0.900000X1.200000X252.000000*%
%ADD38RotRect,2.600000X2.600000X186.000000*%
%ADD39Outline5P,-1.300000X1.300000X1.300000X1.300000X1.300000X-1.300000X-0.117000X-1.300000X-1.300000X-0.117000X186.000000*%
G04 APERTURE END LIST*
D10*
%TO.C,MCU1*%
X272420600Y-92738900D03*
X272420600Y-95278900D03*
X272420600Y-97818900D03*
X272420600Y-100358900D03*
X272420600Y-102898900D03*
X272420600Y-105438900D03*
X272420600Y-107978900D03*
X272420600Y-110518900D03*
X272420600Y-113058900D03*
X272420600Y-115598900D03*
X272420600Y-118138900D03*
X272420600Y-120678900D03*
D11*
X262870600Y-120678900D03*
X262870600Y-118138900D03*
X262870600Y-115598900D03*
X262870600Y-113058900D03*
X262870600Y-110518900D03*
X262870600Y-107978900D03*
X262870600Y-105438900D03*
X262870600Y-102898900D03*
X262870600Y-100358900D03*
X262870600Y-97818900D03*
X262870600Y-95278900D03*
X262870600Y-92738900D03*
D12*
X262145600Y-92738900D03*
X262145600Y-95278900D03*
X262145600Y-97818900D03*
X262145600Y-100358900D03*
X262145600Y-102898900D03*
X262145600Y-105438900D03*
X262145600Y-107978900D03*
X262145600Y-110518900D03*
X262145600Y-113058900D03*
X262145600Y-115598900D03*
X262145600Y-118138900D03*
X262145600Y-120678900D03*
D13*
X273145600Y-120678900D03*
X273145600Y-118138900D03*
X273145600Y-115598900D03*
X273145600Y-113058900D03*
X273145600Y-110518900D03*
X273145600Y-107978900D03*
X273145600Y-105438900D03*
X273145600Y-102898900D03*
X273145600Y-100358900D03*
X273145600Y-97818900D03*
X273145600Y-95278900D03*
X273145600Y-92738900D03*
%TD*%
D14*
%TO.C,BAT1*%
X264945600Y-131938900D03*
X264945600Y-133938900D03*
D15*
X265961600Y-133938900D03*
X265961600Y-131938900D03*
%TD*%
D16*
%TO.C,DISP1*%
X262565600Y-126388900D03*
X265105600Y-126388900D03*
X270185600Y-126388900D03*
X272725600Y-126388900D03*
X262565600Y-127288900D03*
X265105600Y-127288900D03*
X270185600Y-127288900D03*
X272725600Y-127288900D03*
%TD*%
D17*
%TO.C,PWR1*%
X274410600Y-143188900D03*
X274410600Y-141688900D03*
X274410600Y-138688900D03*
D18*
X277270600Y-144588900D03*
X277270600Y-137288900D03*
X275060600Y-144588900D03*
X275060600Y-137288900D03*
%TD*%
D19*
%TO.C,D39*%
X228745600Y-98088900D03*
X228745600Y-94788900D03*
%TD*%
D20*
%TO.C,SW4*%
X160292197Y-151646123D03*
D21*
X172047208Y-151396667D03*
%TD*%
D19*
%TO.C,D34*%
X210745600Y-130088900D03*
X210745600Y-126788900D03*
%TD*%
D22*
%TO.C,D26*%
X156375954Y-131418344D03*
X155689846Y-128190456D03*
%TD*%
D23*
%TO.C,D33*%
X190643154Y-90500339D03*
X190470446Y-87204861D03*
%TD*%
D20*
%TO.C,SW2*%
X139150997Y-138760023D03*
D21*
X150906008Y-138510567D03*
%TD*%
D24*
%TO.C,SW19*%
X207728923Y-159895844D03*
D25*
X219426714Y-161080823D03*
%TD*%
D19*
%TO.C,D35*%
X210745600Y-113088900D03*
X210745600Y-109788900D03*
%TD*%
D20*
%TO.C,SW5*%
X156757697Y-135017623D03*
D21*
X168512708Y-134768167D03*
%TD*%
D20*
%TO.C,SW3*%
X135616497Y-122131523D03*
D21*
X147371508Y-121882067D03*
%TD*%
D26*
%TO.C,SW13*%
X210370600Y-133688900D03*
D27*
X221920600Y-135888900D03*
%TD*%
D22*
%TO.C,D25*%
X159910454Y-148046844D03*
X159224346Y-144818956D03*
%TD*%
%TO.C,D27*%
X152841454Y-114789844D03*
X152155346Y-111561956D03*
%TD*%
D28*
%TO.C,SW21*%
X252616794Y-161448246D03*
D29*
X262921659Y-167109717D03*
%TD*%
D26*
%TO.C,SW15*%
X210370600Y-99688900D03*
D27*
X221920600Y-101888900D03*
%TD*%
D26*
%TO.C,SW14*%
X210370600Y-116688900D03*
D27*
X221920600Y-118888900D03*
%TD*%
D23*
%TO.C,D32*%
X191532854Y-107477039D03*
X191360146Y-104181561D03*
%TD*%
D30*
%TO.C,D41*%
X230762593Y-154899821D03*
X231050207Y-151612379D03*
%TD*%
D31*
%TO.C,SW11*%
X191346800Y-111091741D03*
D32*
X202996111Y-112684245D03*
%TD*%
D20*
%TO.C,SW6*%
X153223197Y-118389123D03*
D21*
X164978208Y-118139667D03*
%TD*%
D33*
%TO.C,D40*%
X207788707Y-156276821D03*
X207501093Y-152989379D03*
%TD*%
D23*
%TO.C,D31*%
X192422554Y-124453739D03*
X192249846Y-121158261D03*
%TD*%
D31*
%TO.C,SW12*%
X190457100Y-94115041D03*
D32*
X202106411Y-95707545D03*
%TD*%
D22*
%TO.C,D22*%
X142303854Y-151789244D03*
X141617746Y-148561356D03*
%TD*%
%TO.C,D24*%
X135234854Y-118532244D03*
X134548746Y-115304356D03*
%TD*%
D26*
%TO.C,SW18*%
X228370600Y-101688900D03*
D27*
X239920600Y-103888900D03*
%TD*%
D26*
%TO.C,SW16*%
X228370600Y-135688900D03*
D27*
X239920600Y-137888900D03*
%TD*%
D34*
%TO.C,D28*%
X175293172Y-133708661D03*
X174948228Y-130426739D03*
%TD*%
D22*
%TO.C,D23*%
X138769354Y-135160744D03*
X138083246Y-131932856D03*
%TD*%
D31*
%TO.C,SW10*%
X192236500Y-128068441D03*
D32*
X203885811Y-129660945D03*
%TD*%
D35*
%TO.C,SW20*%
X230075255Y-158453416D03*
D36*
X241389561Y-161651694D03*
%TD*%
D19*
%TO.C,D38*%
X228745600Y-115088900D03*
X228745600Y-111788900D03*
%TD*%
D34*
%TO.C,D30*%
X171739172Y-99894961D03*
X171394228Y-96613039D03*
%TD*%
D26*
%TO.C,SW17*%
X228370600Y-118688900D03*
D27*
X239920600Y-120888900D03*
%TD*%
D19*
%TO.C,D36*%
X210745600Y-96088900D03*
X210745600Y-92788900D03*
%TD*%
D37*
%TO.C,D42*%
X254085922Y-158140343D03*
X255105678Y-155001857D03*
%TD*%
D38*
%TO.C,SW8*%
X173519513Y-120421230D03*
D39*
X185236204Y-121401875D03*
%TD*%
D38*
%TO.C,SW9*%
X171742513Y-103514430D03*
D39*
X183459204Y-104495075D03*
%TD*%
D19*
%TO.C,D37*%
X228745600Y-132088900D03*
X228745600Y-128788900D03*
%TD*%
D20*
%TO.C,SW1*%
X142685497Y-155388523D03*
D21*
X154440508Y-155139067D03*
%TD*%
D38*
%TO.C,SW7*%
X175296513Y-137328130D03*
D39*
X187013204Y-138308775D03*
%TD*%
D34*
%TO.C,D29*%
X173516172Y-116801761D03*
X173171228Y-113519839D03*
%TD*%
M02*
