%TF.GenerationSoftware,KiCad,Pcbnew,8.0.6*%
%TF.CreationDate,2024-12-16T16:55:52+00:00*%
%TF.ProjectId,scorn_choc_wireless,73636f72-6e5f-4636-986f-635f77697265,v1.0.0*%
%TF.SameCoordinates,Original*%
%TF.FileFunction,Soldermask,Top*%
%TF.FilePolarity,Negative*%
%FSLAX46Y46*%
G04 Gerber Fmt 4.6, Leading zero omitted, Abs format (unit mm)*
G04 Created by KiCad (PCBNEW 8.0.6) date 2024-12-16 16:55:52*
%MOMM*%
%LPD*%
G01*
G04 APERTURE LIST*
G04 Aperture macros list*
%AMRoundRect*
0 Rectangle with rounded corners*
0 $1 Rounding radius*
0 $2 $3 $4 $5 $6 $7 $8 $9 X,Y pos of 4 corners*
0 Add a 4 corners polygon primitive as box body*
4,1,4,$2,$3,$4,$5,$6,$7,$8,$9,$2,$3,0*
0 Add four circle primitives for the rounded corners*
1,1,$1+$1,$2,$3*
1,1,$1+$1,$4,$5*
1,1,$1+$1,$6,$7*
1,1,$1+$1,$8,$9*
0 Add four rect primitives between the rounded corners*
20,1,$1+$1,$2,$3,$4,$5,0*
20,1,$1+$1,$4,$5,$6,$7,0*
20,1,$1+$1,$6,$7,$8,$9,0*
20,1,$1+$1,$8,$9,$2,$3,0*%
%AMFreePoly0*
4,1,16,-0.214645,0.660355,-0.210957,0.656235,0.289043,0.031235,0.299694,-0.005522,0.289043,-0.031235,-0.210957,-0.656235,-0.244478,-0.674694,-0.250000,-0.675000,-0.500000,-0.675000,-0.535355,-0.660355,-0.550000,-0.625000,-0.550000,0.625000,-0.535355,0.660355,-0.500000,0.675000,-0.250000,0.675000,-0.214645,0.660355,-0.214645,0.660355,$1*%
%AMFreePoly1*
4,1,16,0.535355,0.660355,0.550000,0.625000,0.550000,-0.625000,0.535355,-0.660355,0.500000,-0.675000,-0.650000,-0.675000,-0.685355,-0.660355,-0.700000,-0.625000,-0.689043,-0.593765,-0.214031,0.000000,-0.689043,0.593765,-0.699694,0.630522,-0.681235,0.664043,-0.650000,0.675000,0.500000,0.675000,0.535355,0.660355,0.535355,0.660355,$1*%
%AMFreePoly2*
4,1,16,0.635355,0.285355,0.650000,0.250000,0.650000,-1.000000,0.635355,-1.035355,0.600000,-1.050000,0.564645,-1.035355,0.000000,-0.470710,-0.564645,-1.035355,-0.600000,-1.050000,-0.635355,-1.035355,-0.650000,-1.000000,-0.650000,0.250000,-0.635355,0.285355,-0.600000,0.300000,0.600000,0.300000,0.635355,0.285355,0.635355,0.285355,$1*%
%AMFreePoly3*
4,1,14,0.035355,0.435355,0.635355,-0.164645,0.650000,-0.200000,0.650000,-0.400000,0.635355,-0.435355,0.600000,-0.450000,-0.600000,-0.450000,-0.635355,-0.435355,-0.650000,-0.400000,-0.650000,-0.200000,-0.635355,-0.164645,-0.035355,0.435355,0.000000,0.450000,0.035355,0.435355,0.035355,0.435355,$1*%
%AMFreePoly4*
4,1,14,1.335355,1.335355,1.350000,1.300000,1.350000,-0.117000,1.335355,-0.152355,0.152355,-1.335355,0.117000,-1.350000,-1.300000,-1.350000,-1.335355,-1.335355,-1.350000,-1.300000,-1.350000,1.300000,-1.335355,1.335355,-1.300000,1.350000,1.300000,1.350000,1.335355,1.335355,1.335355,1.335355,$1*%
G04 Aperture macros list end*
%ADD10C,4.400000*%
%ADD11RoundRect,0.050000X-0.643751X0.384818X-0.549675X-0.510252X0.643751X-0.384818X0.549675X0.510252X0*%
%ADD12RoundRect,0.050000X-0.636937X0.395994X-0.558497X-0.500581X0.636937X-0.395994X0.558497X0.500581X0*%
%ADD13RoundRect,0.050000X-0.680449X0.315419X-0.493328X-0.564913X0.680449X-0.315419X0.493328X0.564913X0*%
%ADD14RoundRect,0.050000X-0.600000X0.450000X-0.600000X-0.450000X0.600000X-0.450000X0.600000X0.450000X0*%
%ADD15RoundRect,0.050000X-0.431576X0.613386X-0.709692X-0.242565X0.431576X-0.613386X0.709692X0.242565X0*%
%ADD16FreePoly0,180.000000*%
%ADD17C,1.800000*%
%ADD18FreePoly0,0.000000*%
%ADD19C,0.900000*%
%ADD20FreePoly1,180.000000*%
%ADD21FreePoly1,0.000000*%
%ADD22FreePoly2,270.000000*%
%ADD23O,1.850000X1.300000*%
%ADD24FreePoly3,270.000000*%
%ADD25O,1.800000X1.800000*%
%ADD26RoundRect,0.050000X0.600000X-0.300000X0.600000X0.300000X-0.600000X0.300000X-0.600000X-0.300000X0*%
%ADD27RoundRect,0.050000X-0.622729X0.417982X-0.575627X-0.480785X0.622729X-0.417982X0.575627X0.480785X0*%
%ADD28RoundRect,0.050000X0.400000X-0.500000X0.400000X0.500000X-0.400000X0.500000X-0.400000X-0.500000X0*%
%ADD29C,1.000000*%
%ADD30RoundRect,0.050000X0.750000X-0.350000X0.750000X0.350000X-0.750000X0.350000X-0.750000X-0.350000X0*%
%ADD31RoundRect,0.050000X-0.558497X0.500581X-0.636937X-0.395994X0.558497X-0.500581X0.636937X0.395994X0*%
%ADD32C,2.000000*%
%ADD33C,3.100000*%
%ADD34C,5.100000*%
%ADD35FreePoly4,192.000000*%
%ADD36RoundRect,0.050000X1.001307X1.541877X-1.541877X1.001307X-1.001307X-1.541877X1.541877X-1.001307X0*%
%ADD37FreePoly4,185.000000*%
%ADD38RoundRect,0.050000X1.181751X1.408356X-1.408356X1.181751X-1.181751X-1.408356X1.408356X-1.181751X0*%
%ADD39FreePoly4,180.000000*%
%ADD40RoundRect,0.050000X1.300000X1.300000X-1.300000X1.300000X-1.300000X-1.300000X1.300000X-1.300000X0*%
%ADD41FreePoly4,162.000000*%
%ADD42RoundRect,0.050000X1.638096X0.834651X-0.834651X1.638096X-1.638096X-0.834651X0.834651X-1.638096X0*%
%ADD43FreePoly4,183.000000*%
%ADD44RoundRect,0.050000X1.230182X1.366255X-1.366255X1.230182X-1.230182X-1.366255X1.366255X-1.230182X0*%
%ADD45FreePoly4,175.000000*%
%ADD46RoundRect,0.050000X1.408356X1.181751X-1.181751X1.408356X-1.408356X-1.181751X1.181751X-1.408356X0*%
%ADD47FreePoly4,186.000000*%
%ADD48RoundRect,0.050000X1.156991X1.428765X-1.428765X1.156991X-1.156991X-1.428765X1.428765X-1.156991X0*%
G04 APERTURE END LIST*
D10*
%TO.C,MH6*%
X252645600Y-142938900D03*
%TD*%
%TO.C,MH5*%
X200877000Y-158738600D03*
%TD*%
D11*
%TO.C,D7*%
X190661628Y-128775139D03*
X191006572Y-132057061D03*
%TD*%
D12*
%TO.C,D19*%
X223240993Y-151612379D03*
X223528607Y-154899821D03*
%TD*%
D13*
%TO.C,D4*%
X174679146Y-141533956D03*
X175365254Y-144761844D03*
%TD*%
D14*
%TO.C,D18*%
X244545600Y-94788900D03*
X244545600Y-98088900D03*
%TD*%
%TO.C,D17*%
X244545600Y-111788900D03*
X244545600Y-115088900D03*
%TD*%
%TO.C,D14*%
X226545600Y-109788900D03*
X226545600Y-113088900D03*
%TD*%
D10*
%TO.C,MH2*%
X157036100Y-139814500D03*
%TD*%
%TO.C,MH4*%
X273604300Y-152758400D03*
%TD*%
D13*
%TO.C,D2*%
X153537946Y-128647856D03*
X154224054Y-131875744D03*
%TD*%
%TO.C,D1*%
X157072446Y-145276356D03*
X157758554Y-148504244D03*
%TD*%
D15*
%TO.C,D21*%
X270132278Y-159884257D03*
X269112522Y-163022743D03*
%TD*%
D11*
%TO.C,D8*%
X188884628Y-111868339D03*
X189229572Y-115150261D03*
%TD*%
D10*
%TO.C,MH1*%
X153501600Y-123186000D03*
%TD*%
D16*
%TO.C,MCU1*%
X273145600Y-92738900D03*
D17*
X275265600Y-92738900D03*
D16*
X273145600Y-95278900D03*
D17*
X275265600Y-95278900D03*
D16*
X273145600Y-97818900D03*
D17*
X275265600Y-97818900D03*
D16*
X273145600Y-100358900D03*
D17*
X275265600Y-100358900D03*
D16*
X273145600Y-102898900D03*
D17*
X275265600Y-102898900D03*
D16*
X273145600Y-105438900D03*
D17*
X275265600Y-105438900D03*
D16*
X273145600Y-107978900D03*
D17*
X275265600Y-107978900D03*
D16*
X273145600Y-110518900D03*
D17*
X275265600Y-110518900D03*
D16*
X273145600Y-113058900D03*
D17*
X275265600Y-113058900D03*
D16*
X273145600Y-115598900D03*
D17*
X275265600Y-115598900D03*
D16*
X273145600Y-118138900D03*
D17*
X275265600Y-118138900D03*
D16*
X273145600Y-120678900D03*
D17*
X275265600Y-120678900D03*
X260025600Y-120678900D03*
D18*
X262145600Y-120678900D03*
D17*
X260025600Y-118138900D03*
D18*
X262145600Y-118138900D03*
D17*
X260025600Y-115598900D03*
D18*
X262145600Y-115598900D03*
D17*
X260025600Y-113058900D03*
D18*
X262145600Y-113058900D03*
D17*
X260025600Y-110518900D03*
D18*
X262145600Y-110518900D03*
D17*
X260025600Y-107978900D03*
D18*
X262145600Y-107978900D03*
D17*
X260025600Y-105438900D03*
D18*
X262145600Y-105438900D03*
D17*
X260025600Y-102898900D03*
D18*
X262145600Y-102898900D03*
D17*
X260025600Y-100358900D03*
D18*
X262145600Y-100358900D03*
D17*
X260025600Y-97818900D03*
D18*
X262145600Y-97818900D03*
D17*
X260025600Y-95278900D03*
D18*
X262145600Y-95278900D03*
D17*
X260025600Y-92738900D03*
D18*
X262145600Y-92738900D03*
D19*
X271045600Y-92738900D03*
D20*
X272420600Y-92738900D03*
D19*
X271045600Y-95278900D03*
D20*
X272420600Y-95278900D03*
D19*
X271045600Y-97818900D03*
D20*
X272420600Y-97818900D03*
D19*
X271045600Y-100358900D03*
D20*
X272420600Y-100358900D03*
D19*
X271045600Y-102898900D03*
D20*
X272420600Y-102898900D03*
D19*
X271045600Y-105438900D03*
D20*
X272420600Y-105438900D03*
D19*
X271045600Y-107978900D03*
D20*
X272420600Y-107978900D03*
D19*
X271045600Y-110518900D03*
D20*
X272420600Y-110518900D03*
D19*
X271045600Y-113058900D03*
D20*
X272420600Y-113058900D03*
D19*
X271045600Y-115598900D03*
D20*
X272420600Y-115598900D03*
D19*
X271045600Y-118138900D03*
D20*
X272420600Y-118138900D03*
D19*
X271045600Y-120678900D03*
D20*
X272420600Y-120678900D03*
D21*
X262870600Y-120678900D03*
D19*
X264245600Y-120678900D03*
D21*
X262870600Y-118138900D03*
D19*
X264245600Y-118138900D03*
D21*
X262870600Y-115598900D03*
D19*
X264245600Y-115598900D03*
D21*
X262870600Y-113058900D03*
D19*
X264245600Y-113058900D03*
D21*
X262870600Y-110518900D03*
D19*
X264245600Y-110518900D03*
D21*
X262870600Y-107978900D03*
D19*
X264245600Y-107978900D03*
D21*
X262870600Y-105438900D03*
D19*
X264245600Y-105438900D03*
D21*
X262870600Y-102898900D03*
D19*
X264245600Y-102898900D03*
D21*
X262870600Y-100358900D03*
D19*
X264245600Y-100358900D03*
D21*
X262870600Y-97818900D03*
D19*
X264245600Y-97818900D03*
D21*
X262870600Y-95278900D03*
D19*
X264245600Y-95278900D03*
D21*
X262870600Y-92738900D03*
D19*
X264245600Y-92738900D03*
%TD*%
D13*
%TO.C,D5*%
X171144646Y-124905456D03*
X171830754Y-128133344D03*
%TD*%
D22*
%TO.C,BAT1*%
X265961600Y-133938900D03*
X265961600Y-131938900D03*
D23*
X263145600Y-133938900D03*
X263145600Y-131938900D03*
D24*
X264945600Y-133938900D03*
X264945600Y-131938900D03*
%TD*%
D25*
%TO.C,DISP1*%
X262565600Y-124638900D03*
X265105600Y-124638900D03*
X267645600Y-124638900D03*
X270185600Y-124638900D03*
D17*
X272725600Y-124638900D03*
D26*
X262565600Y-127288900D03*
X265105600Y-127288900D03*
X270185600Y-127288900D03*
X272725600Y-127288900D03*
X262565600Y-126388900D03*
X265105600Y-126388900D03*
X270185600Y-126388900D03*
X272725600Y-126388900D03*
%TD*%
D10*
%TO.C,MH3*%
X252645600Y-92938900D03*
%TD*%
D13*
%TO.C,D6*%
X167610146Y-108276856D03*
X168296254Y-111504744D03*
%TD*%
D11*
%TO.C,D9*%
X187107728Y-94961439D03*
X187452672Y-98243361D03*
%TD*%
D17*
%TO.C,RST1*%
X276145600Y-127188900D03*
X276145600Y-133688900D03*
%TD*%
D27*
%TO.C,D12*%
X206248746Y-86377961D03*
X206421454Y-89673439D03*
%TD*%
%TO.C,D10*%
X208028246Y-120331361D03*
X208200954Y-123626839D03*
%TD*%
D28*
%TO.C,PWR1*%
X275060600Y-137288900D03*
X275060600Y-144588900D03*
D29*
X276170600Y-139438900D03*
X276170600Y-142438900D03*
D28*
X277270600Y-137288900D03*
X277270600Y-144588900D03*
D30*
X274410600Y-143188900D03*
X274410600Y-140188900D03*
X274410600Y-138688900D03*
%TD*%
D14*
%TO.C,D15*%
X226545600Y-92788900D03*
X226545600Y-96088900D03*
%TD*%
D31*
%TO.C,D20*%
X246790007Y-152989379D03*
X246502393Y-156276821D03*
%TD*%
D14*
%TO.C,D16*%
X244545600Y-128788900D03*
X244545600Y-132088900D03*
%TD*%
D27*
%TO.C,D11*%
X207138546Y-103354661D03*
X207311254Y-106650139D03*
%TD*%
D13*
%TO.C,D3*%
X150003446Y-112019356D03*
X150689554Y-115247244D03*
%TD*%
D14*
%TO.C,D13*%
X226545600Y-126788900D03*
X226545600Y-130088900D03*
%TD*%
D32*
%TO.C,SW4*%
X172986512Y-145114086D03*
D33*
X173277107Y-148886095D03*
X168843775Y-152077578D03*
D34*
X167606700Y-146257600D03*
D33*
X163495631Y-150965212D03*
D32*
X162226888Y-147401114D03*
D35*
X165640341Y-152758489D03*
D36*
X176480540Y-148205184D03*
%TD*%
D32*
%TO.C,SW2*%
X151845312Y-132227986D03*
D33*
X152135907Y-135999995D03*
X147702575Y-139191478D03*
D34*
X146465500Y-133371500D03*
D33*
X142354431Y-138079112D03*
D32*
X141085688Y-134515014D03*
D35*
X144499141Y-139872389D03*
D36*
X155339340Y-135319084D03*
%TD*%
D32*
%TO.C,SW19*%
X221124671Y-154959543D03*
D33*
X220953411Y-158738851D03*
X216164177Y-161366258D03*
D34*
X215645600Y-155438900D03*
D33*
X210991461Y-159610409D03*
D32*
X210166529Y-155918257D03*
D37*
X212901639Y-161651694D03*
D38*
X224215945Y-158453416D03*
%TD*%
D32*
%TO.C,SW5*%
X169452012Y-128485586D03*
D33*
X169742607Y-132257595D03*
X165309275Y-135449078D03*
D34*
X164072200Y-129629100D03*
D33*
X159961131Y-134336712D03*
D32*
X158692388Y-130772614D03*
D35*
X162105841Y-136129989D03*
D36*
X172946040Y-131576684D03*
%TD*%
D32*
%TO.C,SW3*%
X148310812Y-115599486D03*
D33*
X148601407Y-119371495D03*
X144168075Y-122562978D03*
D34*
X142931000Y-116743000D03*
D33*
X138819931Y-121450612D03*
D32*
X137551188Y-117886514D03*
D35*
X140964641Y-123243889D03*
D36*
X151804840Y-118690584D03*
%TD*%
D32*
%TO.C,SW13*%
X224145600Y-129938900D03*
D33*
X223645600Y-133688900D03*
X218645600Y-135888900D03*
D34*
X218645600Y-129938900D03*
D33*
X213645600Y-133688900D03*
D32*
X213145600Y-129938900D03*
D39*
X215370600Y-135888900D03*
D40*
X226920600Y-133688900D03*
%TD*%
D32*
%TO.C,SW21*%
X266876411Y-162138493D03*
D33*
X265242069Y-165550447D03*
X259806949Y-166097686D03*
D34*
X261645600Y-160438900D03*
D33*
X255731504Y-162460277D03*
D32*
X256414789Y-158739307D03*
D41*
X256692239Y-165085656D03*
D42*
X268356779Y-166562478D03*
%TD*%
D32*
%TO.C,SW15*%
X224145600Y-95938900D03*
D33*
X223645600Y-99688900D03*
X218645600Y-101888900D03*
D34*
X218645600Y-95938900D03*
D33*
X213645600Y-99688900D03*
D32*
X213145600Y-95938900D03*
D39*
X215370600Y-101888900D03*
D40*
X226920600Y-99688900D03*
%TD*%
D32*
%TO.C,SW14*%
X224145600Y-112938900D03*
D33*
X223645600Y-116688900D03*
X218645600Y-118888900D03*
D34*
X218645600Y-112938900D03*
D33*
X213645600Y-116688900D03*
D32*
X213145600Y-112938900D03*
D39*
X215370600Y-118888900D03*
D40*
X226920600Y-116688900D03*
%TD*%
D32*
%TO.C,SW11*%
X204906662Y-106625952D03*
D33*
X204603608Y-110396981D03*
X199725599Y-112855646D03*
D34*
X199414200Y-106913800D03*
D33*
X194617312Y-110920341D03*
D32*
X193921738Y-107201648D03*
D43*
X196455087Y-113027046D03*
D44*
X207874119Y-110225581D03*
%TD*%
D32*
%TO.C,SW6*%
X165917512Y-111857086D03*
D33*
X166208107Y-115629095D03*
X161774775Y-118820578D03*
D34*
X160537700Y-113000600D03*
D33*
X156426631Y-117708212D03*
D32*
X155157888Y-114144114D03*
D35*
X158571341Y-119501489D03*
D36*
X169411540Y-114948184D03*
%TD*%
D32*
%TO.C,SW12*%
X204016962Y-89649252D03*
D33*
X203713908Y-93420281D03*
X198835899Y-95878946D03*
D34*
X198524500Y-89937100D03*
D33*
X193727612Y-93943641D03*
D32*
X193032038Y-90224948D03*
D43*
X195565387Y-96050346D03*
D44*
X206984419Y-93248881D03*
%TD*%
D32*
%TO.C,SW18*%
X242145600Y-97938900D03*
D33*
X241645600Y-101688900D03*
X236645600Y-103888900D03*
D34*
X236645600Y-97938900D03*
D33*
X231645600Y-101688900D03*
D32*
X231145600Y-97938900D03*
D39*
X233370600Y-103888900D03*
D40*
X244920600Y-101688900D03*
%TD*%
D32*
%TO.C,SW16*%
X242145600Y-131938900D03*
D33*
X241645600Y-135688900D03*
X236645600Y-137888900D03*
D34*
X236645600Y-131938900D03*
D33*
X231645600Y-135688900D03*
D32*
X231145600Y-131938900D03*
D39*
X233370600Y-137888900D03*
D40*
X244920600Y-135688900D03*
%TD*%
D32*
%TO.C,SW10*%
X205796362Y-123602652D03*
D33*
X205493308Y-127373681D03*
X200615299Y-129832346D03*
D34*
X200303900Y-123890500D03*
D33*
X195507012Y-127897041D03*
D32*
X194811438Y-124178348D03*
D43*
X197344787Y-130003746D03*
D44*
X208763819Y-127202281D03*
%TD*%
D32*
%TO.C,SW20*%
X244124671Y-155918257D03*
D33*
X243299739Y-159610409D03*
X238127023Y-161366258D03*
D34*
X238645600Y-155438900D03*
D33*
X233337789Y-158738851D03*
D32*
X233166529Y-154959543D03*
D45*
X234864486Y-161080823D03*
D46*
X246562277Y-159895844D03*
%TD*%
D32*
%TO.C,SW17*%
X242145600Y-114938900D03*
D33*
X241645600Y-118688900D03*
X236645600Y-120888900D03*
D34*
X236645600Y-114938900D03*
D33*
X231645600Y-118688900D03*
D32*
X231145600Y-114938900D03*
D39*
X233370600Y-120888900D03*
D40*
X244920600Y-118688900D03*
%TD*%
D32*
%TO.C,SW8*%
X186827070Y-115251893D03*
D33*
X186721791Y-119033615D03*
X181979144Y-121744205D03*
D34*
X181357200Y-115826800D03*
D33*
X176776572Y-120078899D03*
D32*
X175887330Y-116401707D03*
D47*
X178722085Y-122086536D03*
D48*
X189978850Y-118691284D03*
%TD*%
D32*
%TO.C,SW9*%
X185050070Y-98345093D03*
D33*
X184944791Y-102126815D03*
X180202144Y-104837405D03*
D34*
X179580200Y-98920000D03*
D33*
X174999572Y-103172099D03*
D32*
X174110330Y-99494907D03*
D47*
X176945085Y-105179736D03*
D48*
X188201850Y-101784484D03*
%TD*%
D32*
%TO.C,SW1*%
X155379812Y-148856486D03*
D33*
X155670407Y-152628495D03*
X151237075Y-155819978D03*
D34*
X150000000Y-150000000D03*
D33*
X145888931Y-154707612D03*
D32*
X144620188Y-151143514D03*
D35*
X148033641Y-156500889D03*
D36*
X158873840Y-151947584D03*
%TD*%
D32*
%TO.C,SW7*%
X188604070Y-132158793D03*
D33*
X188498791Y-135940515D03*
X183756144Y-138651105D03*
D34*
X183134200Y-132733700D03*
D33*
X178553572Y-136985799D03*
D32*
X177664330Y-133308607D03*
D47*
X180499085Y-138993436D03*
D48*
X191755850Y-135598184D03*
%TD*%
M02*
